<?xml version="1.0" encoding="utf-8"?>
<!-- Generator: Adobe Illustrator 19.0.0, SVG Export Plug-In . SVG Version: 6.00 Build 0)  -->
<svg version="1.1" id="Layer_1" xmlns="http://www.w3.org/2000/svg" xmlns:xlink="http://www.w3.org/1999/xlink" x="0px" y="0px"
	 width="24px" height="15.2px" viewBox="0 0 24 15.2" enable-background="new 0 0 24 15.2" xml:space="preserve">
<g>
	<g>
		<path fill="#FFFFFF" d="M0,7.2C0.1,3.3,3.7-0.1,7.6,0c1.9-0.1,3.7,0.7,5.1,1.9c-0.6,0.7-1.3,1.4-1.9,2C9,2.7,6.6,2.4,4.9,3.7
			c-2.5,1.7-2.6,5.8-0.2,7.6c2.3,2.1,6.7,1.1,7.3-2.2c-1.5,0-2.9,0-4.4,0c0-0.9,0-1.7,0-2.6c2.4,0,4.9,0,7.3,0
			c0.1,2-0.1,4.2-1.4,5.9c-1.9,2.7-5.7,3.4-8.7,2.3C1.9,13.6-0.2,10.5,0,7.2z"/>
		<path fill="#FFFFFF" d="M19.6,4.3c0.7,0,1.4,0,2.2,0c0,0.7,0,1.5,0,2.2c0.7,0,1.5,0,2.2,0c0,0.7,0,1.4,0,2.2c-0.7,0-1.4,0-2.2,0
			c0,0.7,0,1.5,0,2.2c-0.7,0-1.4,0-2.2,0c0-0.7,0-1.4,0-2.2c-0.7,0-1.5,0-2.2,0c0-0.7,0-1.4,0-2.2c0.7,0,1.4,0,2.2,0
			C19.6,5.8,19.6,5.1,19.6,4.3z"/>
	</g>
</g>
</svg>
