<?xml version="1.0" encoding="utf-8"?>
<!-- Generator: Adobe Illustrator 19.0.0, SVG Export Plug-In . SVG Version: 6.00 Build 0)  -->
<svg version="1.1" id="Layer_1" xmlns="http://www.w3.org/2000/svg" xmlns:xlink="http://www.w3.org/1999/xlink" x="0px" y="0px"
	 width="14px" height="18.1px" viewBox="0 0 14 18.1" enable-background="new 0 0 14 18.1" xml:space="preserve">
<path fill="#FFFFFF" d="M7.4,0C2.5,0,0,3.5,0,6.5c0,1.8,0.7,3.4,2.1,4c0.2,0.1,0.5,0,0.5-0.3c0-0.2,0.2-0.6,0.2-0.8
	c0.1-0.3,0-0.4-0.1-0.6C2.3,8.3,2,7.7,2,6.7c0-2.6,2-5,5.1-5c2.8,0,4.3,1.7,4.3,4c0,3-1.3,5.5-3.3,5.5c-1.1,0-1.9-0.9-1.6-2
	C6.8,8,7.4,6.5,7.4,5.6C7.4,4.7,7,4,6,4C4.9,4,4,5.2,4,6.7c0,1,0.3,1.6,0.3,1.6S3.2,13.2,3,14C2.6,15.7,3,17.8,3,18
	c0,0.1,0.2,0.2,0.2,0.1c0.1-0.1,1.4-1.8,1.9-3.4c0.1-0.5,0.7-2.9,0.7-2.9c0.4,0.7,1.4,1.3,2.5,1.3c3.3,0,5.6-3,5.6-7.1
	C14,2.9,11.4,0,7.4,0z"/>
</svg>
