<svg id="Icons" xmlns="http://www.w3.org/2000/svg" viewBox="0 0 357.75 462.66"><defs><style>.cls-1{fill:#fff;}.cls-2{fill:#eaecf2;}</style></defs><title>404</title><path class="cls-1" d="M234.47,238.32c-2.3,6.91-7.36,91.6-8.13,98.52-1.07,9.67-2.3,19.18-3.22,28.08-2.13,20.61-1.84,27.16-2.76,47.88,0,5.06,1.84,17-2.76,20.26-6,4.6-11.51-1.84-13.35-6.91-3.68-8.75-4.14-25.32-4.14-34.53,0-29-17.61-117.33-17.61-117.33-1.7,5-9.13,54.06-10.47,61.64-2.55,14.39-6.44,29.1-6.44,43.7,0,12.12-1.67,29.7-2.3,41.57-.15,2.77.28,7.41-2.28,9.21-9.51,6.68-11.48-19.71-11.9-24.12-.87-9.15-.55-18.41-1.47-27.55-1.84-18.26-5.22-29.92-8.29-48.34-1-5.74-21.18-97-18.41-98.83"/><path class="cls-2" d="M233.79,238.72c-1.95,6.21-1.87,13.53-2.45,20-1.1,12.08-2,24.19-2.84,36.3-1.59,22.07-3.35,43.92-5.8,65.91a468.11,468.11,0,0,0-3.27,52.79c0,3.07.37,6.13.35,9.2a30,30,0,0,1-.31,4.72c-.55,3.3-.46,2.74-4,4.36-3.25,1.49-3.76,1.89-6.25-.29-6.06-5.31-6.84-15.78-7.52-23.24-1.07-11.84-.65-23.7-1.92-35.54-1.4-13-3.36-25.88-5.45-38.75q-4.92-30.32-10.92-60.47c-.19-.93-1.71.53-1.83.9-2.55,8-3.27,16.88-4.62,25.12-1.8,11-3.5,22-5.28,33-2.78,17.1-6.74,33.54-7.11,50.94-.2,9-.92,18.07-1.55,27.09-.28,4-.59,8.06-.74,12.09-.13,3.63-1.82,10.26-6.14,6.59-3.45-2.93-4.24-9.76-4.93-13.89a140.39,140.39,0,0,1-1.59-15.56c-.55-10.32-.69-20.52-2.14-30.77-1.29-9.09-3.2-18.06-5-27.07-3.49-17.91-7.19-35.77-10.88-53.64-2.49-12.07-5-24.16-7.16-36.29q-1.24-6.83-2.27-13.68c-.22-1.49-.5-3-.63-4.49-.07-.82.17-2.6-.37-2.09.86-.81.27-1.47-.6-.64-2.63,2.5,0,11.13.52,14,1.78,10.84,4,21.63,6.13,32.4,3.66,18.11,8.05,36.14,11.28,54.34,1.79,10.13,4,20.18,5.75,30.31a254.32,254.32,0,0,1,3.25,34.61c.37,9.83.09,23.94,5.67,32.5,2,3,5,3.87,7.95,1.64,4.67-3.49,3.16-12.36,3.5-17.43,1.4-20.73,1.23-41.66,5.19-62.1,2.73-14.08,5.05-28.16,7.32-42.32,1.84-11.48,2.66-24,6.21-35.16l-1.83.9q5.54,27.82,10.16,55.82c2.28,13.76,4.44,27.56,6,41.42,1.41,12.5,1,25,2.14,37.52.67,7.38,1.45,16.89,6.77,22.62,3.7,4,9.5,4.24,12.85-.39,3.51-4.85,2-12.36,1.84-17.89-.3-8.91.5-18.05.93-27,.85-17.6,3.63-35,5.12-52.5.75-8.85,1.24-17.72,1.84-26.58,1-14.57,2-29.13,3.13-43.69.67-8.44.31-18.22,2.8-26.4.17-.57-1.22.35-1.36.79Z"/><path class="cls-1" d="M148.54,422.47c3.22-7.37-17-20.26-8.29-25.32,4.14-2.76,26.24-3.22,29,2.3,2.3,5.06-8.29,14.27-7.83,20.26.92.92.92,0,1.38,0"/><path class="cls-2" d="M149,422.24c2.57-4.55-3.5-10.68-5.92-14-1.51-2.07-4.78-5.69-4.15-8.52.82-3.72,8.18-3.51,10.95-3.63,4.32-.19,19.15-.88,18.72,6.1-.19,3.18-11.39,16.54-7.15,18.71.23.12.6-.14.77-.25l.69-.46c.51-.33,1.11-1.66,0-1.11-1.39.69,1.6-6.11,2-6.85,1.28-2.17,2.75-4.23,3.89-6.47,1.38-2.7,2.78-6,.15-8.4-5.11-4.57-16.91-3.51-23-2.58-4.13.63-9.89,2.55-8.56,7.86,1.84,7.38,11.64,12,10.59,20.24,0,.27.92-.52,1-.65Z"/><path class="cls-1" d="M202.86,422.47c2.3-9.67-13.35-18-1.38-23.94,4.14-1.84,22.56-3.68,25.32.92s-6.44,15.65-6.44,19.33"/><path class="cls-2" d="M203.54,422.07c.89-4.82-1.6-8.71-3.75-12.8-2.29-4.35-3-7.9,2.76-10.36,2.69-1.15,6.44-1.18,9.32-1.34,4.81-.28,15.61-1.16,14.24,6.24-1,5.32-6.74,10.12-6.58,15.58,0,.74,1.57-.65,1.65-1,1.19-5.24,9.83-13.89,6.55-19.55-2.85-4.91-14.24-3.22-18.64-2.69-4.58.56-11.16,1.64-12.79,6.82-2.14,6.82,7.08,12.62,5.88,19.93-.11.64,1.28-.34,1.36-.79Z"/><path class="cls-2" d="M209.77,421.32c-4.14,20.13-14.27,30,11,36.16,26.24,6.56,55.24-11.38,41.89-39.38-6.91-14.88-23.48-16.19-36.83-8.75-4.6,2.19-13.81,13.13-18,13.56-6,.44,6.68,8.12,8.06,4.62Z"/><path class="cls-2" d="M209.11,421.7c-2.15,9.47-11.3,25.3-.4,32.32,13.61,8.76,34.95,7.51,47.63-2.27a27.77,27.77,0,0,0,2.77-41.13c-5.69-5.87-14-7.59-21.89-6.22s-13.77,5.36-19.59,10.61a60.93,60.93,0,0,1-6.44,5.48c-1.39.94-3.08,1-4.39,1.81s-1.76,1.62-1.21,3c1.42,3.44,9,5.94,11.25,2.28.14-.22.26-.64,0-.86-2.08-2.07-4.46-3.92-6.5-6-.33-.33-1.58.86-1.26,1.18,1.23,1.23,2.23,2.77,3.49,4a12.48,12.48,0,0,1,2.1,2.1c.48.88-.18-.56-.39-.61a15.23,15.23,0,0,1-2.61-.77,18,18,0,0,1-3.14-1.85,3.91,3.91,0,0,1-.87-.84c-.58-1.15-1,.78-.1-.08a13.32,13.32,0,0,1,2.21-.81,20.31,20.31,0,0,0,3.5-2.42c5.14-4.1,9.38-9.2,15.5-11.91,7.3-3.24,16-4.1,23.31-.31,14.43,7.52,17.28,30,5.32,40.78-11.78,10.63-30.87,10.95-44.76,4.57-5.87-2.7-8.35-6.9-7.26-13.32,1.12-6.61,3.67-12.94,5-19.53C210.54,420.33,209.21,421.28,209.11,421.7Z"/><path class="cls-2" d="M165.57,412.34c1.84,7.75,6.91,14.68,7.37,22.83.92,13.46-6.91,20.39-20.72,24.06-23,5.3-49.72,3.28-50.18-27.73-.25-16.72,16.57-25.28,31.76-22,12,2.45,27.62,21.61,31.3,4.49"/><path class="cls-2" d="M164.83,412.89c2.12,8.65,7.54,16.24,7.3,25.42s-6,15.18-14.37,18.36C146.36,461,131,462.55,119.42,458c-12.59-4.89-19.38-20.32-15.57-33.27,2.43-8.28,10-13.31,18.25-14.63,7.46-1.2,14,.72,20.39,4.43,4.61,2.67,10.24,7.51,15.88,7.41,4.64-.08,6.74-4.29,7.72-8.26.34-1.39-1.73-.37-1.94.48-.69,2.8-1.55,5.72-5.06,5.81a10.39,10.39,0,0,1-3.95-1.06,73.76,73.76,0,0,1-9.64-5.38c-6.36-3.8-12.5-6.25-20.05-5.66-13.8,1.08-25,11.28-24.37,25.54.55,13.57,7.64,24.57,21.21,27.81,12.43,3,28.68,1.15,39.87-5.11,5.44-3,9.72-7.71,11.15-13.89,2.56-11-4.06-20.31-7-30.48-.17-.58-1.63.56-1.5,1.1Z"/><path class="cls-1" d="M200.56,414.41c-4.14,20.13-5.06,35.1,20.26,41.23,26.24,6.56,55.24-11.38,41.89-39.38-6.91-14.88-23.48-16.19-36.83-8.75-4.6,2.19-13.81,13.13-18,13.56C201.94,421.51,200.56,414.41,200.56,414.41Z"/><path class="cls-2" d="M199.9,414.8c-2.51,11.57-5.46,26.31,5.06,34.92,11,9,28.82,10.3,41.78,5.46,11.69-4.37,21.16-14.6,20.25-27.7-1.07-15.32-12.7-27.19-28.4-25.12a35.47,35.47,0,0,0-19.13,9.17c-2.91,2.58-6.44,7.13-10.25,8.31-3.58,1.11-7.28-2.6-8-5.93-.09-.44-1.44.53-1.33,1,.77,3.57,2.52,7.19,6.88,7.14,4.21,0,8-4.43,10.9-7,5.7-5.13,11.16-9.2,18.94-10.54,7.44-1.28,15.33.43,20.7,6,11.29,11.62,10,30.91-3.65,39.77-12.58,8.17-30.74,7.57-43.6.32-13.72-7.73-11.35-23.34-8.85-36.53C201.33,413.42,200,414.37,199.9,414.8Z"/><path class="cls-1" d="M165.57,410.5c1.84,7.75,6.91,14.68,7.37,22.83.92,13.46-6.91,20.39-20.72,24.06-23,5.3-50.64,2.82-50.18-27.73.25-16.72,16.57-25.28,31.76-22,12,2.45,27.62,21.61,31.3,4.49"/><path class="cls-2" d="M164.83,411.05c2.12,8.65,7.54,16.24,7.3,25.42s-6,15.18-14.37,18.36c-11.54,4.4-27,5.75-38.68,1.19-12.72-5-19.15-20.09-15.07-33.09,2.56-8.18,9.92-13.29,18.16-14.63,7.43-1.21,14,.74,20.32,4.43,4.61,2.67,10.24,7.51,15.88,7.41,4.64-.08,6.74-4.29,7.72-8.26.34-1.39-1.73-.37-1.94.48-.69,2.8-1.55,5.72-5.06,5.81a10.39,10.39,0,0,1-3.95-1.06,73.76,73.76,0,0,1-9.64-5.38c-6.34-3.79-12.47-6.26-20-5.66-13.78,1.08-24.64,11.42-24.46,25.52.18,13.65,7.46,24.41,21,27.68,12.54,3,28.84,1.36,40.16-5,5.44-3,9.72-7.71,11.15-13.89,2.56-11-4.06-20.31-7-30.48-.17-.58-1.63.56-1.5,1.1Z"/><path class="cls-1" d="M206.08,421.55c-6.91,14.27,3.22,24.4,17.49,26.7,15.19,2.3,30.84-1.84,41.43-12.89"/><path class="cls-2" d="M205.45,421.8c-6.31,13.82,2.88,24.63,16.76,27.17,15.61,2.86,32-1.87,43.22-13.16,1-1,.17-1.92-.84-.9-10.9,10.92-27.29,15.39-42.36,12.11-12.65-2.76-21.22-12.81-15.5-25.72.38-.85-1.09.09-1.28.5Z"/><path class="cls-2" d="M104.27,445.52c3.5,6.17,14.87,6.62,21,7.15,7.64.66,15.8,1.05,23.27-1,8.26-2.3,15.3-8,17.49-16.53,1.49-5.83,1.87-16.14-5.89-17.28-.8-.12-2.24,1.73-1.08,1.9,8.19,1.19,6.31,14.53,3.74,19.73-4.3,8.71-13.83,11.55-22.87,11.92a103.82,103.82,0,0,1-19.29-1c-5.15-.76-11.67-1.78-15.3-5.89-.21-.24-1.24.69-1.07,1Z"/><path class="cls-1" d="M272.85,150.73c-7.35.42-15.83,14.34-19.83,19.79a136.63,136.63,0,0,0-14.83,25.31c-3.85,8.67-7.45,20.89,2.25,26.13,9.05,4.89,15.45,1.07,21.23-6.3,11.91-15.17,12-37.55,14.51-57.09"/><path class="cls-2" d="M248.17,225.17a17.23,17.23,0,0,1-8.21-2.32c-8-4.3-8.86-13.52-2.69-27.42a137.92,137.92,0,0,1,14.94-25.5c.58-.79,1.26-1.77,2-2.85,4.7-6.75,11.8-17,18.56-17.34l.12,2c-5.79.33-12.83,10.45-17,16.49-.77,1.1-1.45,2.09-2,2.89a135.88,135.88,0,0,0-14.72,25.13c-5.75,13-5.16,21.08,1.82,24.85,7.5,4,13.47,2.25,20-6,9.66-12.29,11.43-29.5,13.15-46.13.36-3.46.73-7,1.16-10.47l2,.25c-.43,3.4-.8,7-1.16,10.42-1.74,16.92-3.55,34.42-13.56,47.16C259,220.69,254.46,225.17,248.17,225.17Z"/><path class="cls-1" d="M256,146.74c1.47-16.13,40.92-15,48.21-5.49,15.4,20.1-23.49,27.12-35.84,20.17-5.79-3.26-9.06-6.24-11.38-12.7"/><path class="cls-2" d="M281.44,165.05c-5.32,0-10.25-.91-13.53-2.75-5.75-3.23-9.34-6.3-11.84-13.23l1.88-.68c2.3,6.38,5.49,9.1,10.93,12.17,8.3,4.67,28.92,2.73,35.74-5.13,3.25-3.74,2.85-8.3-1.18-13.56-4.53-5.92-23.08-8.49-35.43-4.92-4.73,1.37-10.48,4.19-11,9.89l-2-.18c.49-5.4,4.79-9.42,12.43-11.63,13.23-3.83,32.55-.94,37.57,5.63,5.84,7.62,3.82,13,1.1,16.09C301.37,162.23,290.82,165.05,281.44,165.05Z"/><path class="cls-1" d="M273.1,139c-9.85-1.18-30.49,7.28-19.22,19.84,8.83,9.84,25.91,4.37,33.2-3.21"/><path class="cls-2" d="M266.71,165.15h-.39a17.57,17.57,0,0,1-13.18-5.64c-4.53-5.05-3.88-9.21-2.53-11.8,3.65-7,16-10.48,22.61-9.7l-.24,2c-6.1-.73-17.45,2.57-20.6,8.63-1.54,3-.78,6.17,2.24,9.54a15.62,15.62,0,0,0,11.73,5,29.2,29.2,0,0,0,20-8.21l1.44,1.39C282.76,161.56,274.15,165.15,266.71,165.15Z"/><path class="cls-1" d="M337.19,145.9c5.67-10,22.56-7.76,19.1,5.52-2.56,9.84-18.33,16.44-26.82,11.45"/><path class="cls-2" d="M336.43,165.57a14.67,14.67,0,0,1-7.47-1.85l1-1.72c3.62,2.13,9.19,2.07,14.55-.14,5.54-2.29,9.68-6.39,10.8-10.69,1.23-4.72-.2-8.29-3.92-9.8a11.13,11.13,0,0,0-13.35,5l-1.74-1c2.74-4.82,9.57-8.44,15.84-5.9,4.68,1.9,6.59,6.45,5.1,12.16-1.29,5-5.77,9.47-12,12A23.4,23.4,0,0,1,336.43,165.57Z"/><path class="cls-1" d="M319.3,145.49c6.42-8,20.37-5.91,23.08,3.51,3.09,10.74-8.32,21.56-21.75,20.17"/><path class="cls-2" d="M322.95,170.29a23.44,23.44,0,0,1-2.42-.12l.21-2a20.52,20.52,0,0,0,17.76-6.82c3.07-3.67,4.11-8,2.93-12.07-1.1-3.82-4.36-6.62-8.72-7.49a12.78,12.78,0,0,0-12.62,4.32l-1.56-1.25a14.79,14.79,0,0,1,14.57-5c5.11,1,8.94,4.35,10.25,8.9A15,15,0,0,1,340,162.63,22.35,22.35,0,0,1,322.95,170.29Z"/><path class="cls-1" d="M300,153.56c1.93-7.11,18.38-9.91,22.39-5.82,4.5,4.59,4.23,12,1.3,17.62-6,11.63-32.19,13.72-39.93-3.34"/><path class="cls-2" d="M305,175.46h-.82c-9.73-.26-17.68-5.13-21.25-13l1.82-.83c3.25,7.17,10.54,11.6,19.49,11.84,8.24.24,15.91-3.29,18.64-8.55,2.59-5,3.24-12-1.13-16.46-1.74-1.78-6.87-2.12-11.94-.8-4.78,1.25-8.07,3.56-8.78,6.18l-1.93-.52c.92-3.37,4.63-6.14,10.2-7.59,4.82-1.26,11.21-1.38,13.87,1.33,5.07,5.17,4.4,13.16,1.48,18.79C321.58,171.64,313.75,175.46,305,175.46Z"/><path class="cls-1" d="M260.87,162.21c9.06,6,20.51,13,26.18-1.63,2.24-5.78,1.74-11.1-4.21-14.3-4-2.14-14.81-2-16.62,3"/><path class="cls-2" d="M276.94,170.23c-5.23,0-11-3.5-16.62-7.19l1.1-1.67c6.32,4.18,12.92,8.11,18.05,6.48,2.82-.9,5-3.4,6.64-7.64,2.39-6.15,1.16-10.42-3.75-13.05-2.48-1.33-8.14-1.72-12-.26a5.25,5.25,0,0,0-3.22,2.71l-1.88-.69a7,7,0,0,1,4.38-3.89c4.47-1.7,10.78-1.18,13.65.36,5.79,3.11,7.41,8.48,4.67,15.54-1.85,4.77-4.51,7.74-7.9,8.82A10.29,10.29,0,0,1,276.94,170.23Z"/><path class="cls-1" d="M279.79,144.81c7.23,1.54,8.67,4.81,12.33,2.8s12.61-4.28,14.66-.92"/><path class="cls-2" d="M289.91,149.24a9.64,9.64,0,0,1-4-1.23,27.35,27.35,0,0,0-6.34-2.22l.42-2a29.09,29.09,0,0,1,6.77,2.37c2.17,1,3.17,1.48,4.87.54,3.37-1.85,13.39-4.83,16-.57l-1.71,1c-1.57-2.57-9.8-.66-13.32,1.28A5.47,5.47,0,0,1,289.91,149.24Z"/><path class="cls-1" d="M133.11,52.68c-20,17.21-24.23,44.67-27.38,69.54-1.6,12.63-1.56,24.91-2.9,37.53-1.37,12.92,2.19,24.13,3.85,36.87,2.74,21,4,40.09,14.8,58.78,10.93,18.9,27.28,25.26,47.68,30.15,16.74,4,43.39,2.22,55.77-11.64,10.43-11.69,21.18-34.46,19.56-50.53-1-9.59-4.17-19.56-6.28-28.67-2.19-9.49-5.57-31.95-9.31-41.09-1.51-3.69-5-4.07-3.41-9.71,2.56-9-.06-19.68-.81-28.87-.81-9.92-2.88-19.46-3.07-29.47C221.4,74.33,219.88,60,209,53.48c-13.82-8.33-30-15.43-46.44-13.61-7.06.78-14,1.52-20.27,4.84-2.33,1.23-18,13.19-14.53,16.53a1,1,0,0,0,1.2-.42"/><path class="cls-2" d="M186.05,288.43a74.59,74.59,0,0,1-17.12-1.91c-21.93-5.25-37.66-12.2-48.32-30.62-9.67-16.71-11.78-33.85-14-52-.29-2.37-.59-4.75-.9-7.17-.48-3.71-1.14-7.34-1.77-10.84-1.58-8.74-3.07-17-2.08-26.26.61-5.74.94-11.51,1.26-17.09.38-6.67.77-13.56,1.65-20.46,3.16-24.93,7.37-48.68,22.81-65.42,3.48-5.31,13-12.17,14.3-12.85,6.42-3.38,13.24-4.13,20.46-4.93l.16,0c14-1.54,28.94,2.82,47.06,13.75,11.17,6.73,12.85,21.13,13.08,32.92A152.65,152.65,0,0,0,224.28,103c.52,3.88,1.06,7.89,1.39,11.92.19,2.3.49,4.66.81,7.16,1,7.45,2.77,29.75,3.34,31.13,2.63,6.43,5.08,19.31,7,29.66.89,4.67,1.65,8.7,2.32,11.58.61,2.64,1.3,5.3,2,8.12,1.76,6.78,3.58,13.8,4.27,20.67,1.63,16.15-9,39.2-19.81,51.29-7.31,8.19-18.63,11.51-26.83,12.84A80,80,0,0,1,186.05,288.43ZM126.45,61c-13,16.13-16.8,38.22-19.73,61.34-.87,6.83-1.26,13.69-1.64,20.32-.32,5.61-.65,11.4-1.27,17.19-1,9,.51,17.11,2.06,25.7.64,3.53,1.3,7.18,1.79,10.94.32,2.42.61,4.81.9,7.18,2.22,17.93,4.31,34.87,13.77,51.23,10.29,17.8,25.63,24.55,47,29.68,15.28,3.66,42.38,2.56,54.79-11.34,10.51-11.78,20.89-34.15,19.31-49.76-.68-6.72-2.48-13.66-4.22-20.37-.73-2.83-1.43-5.51-2-8.17-.68-2.93-1.45-7-2.34-11.66-1.95-10.26-4.37-23-6.93-29.28-.44-1.09-2.54-24.38-3.47-31.63-.32-2.52-.63-4.9-.82-7.25-.32-4-.86-8-1.38-11.81a154.27,154.27,0,0,1-1.69-17.72c-.21-11.28-1.78-25-12.11-31.25-17.73-10.69-32.28-15-45.81-13.47l-.16,0c-7,.78-13.66,1.51-19.75,4.71A65.86,65.86,0,0,0,133.41,53l.35.41A57.29,57.29,0,0,0,129,58a4.87,4.87,0,0,0-.74,1.78,1,1,0,0,0,0,.53l1.44,1.11a2,2,0,0,1-2.29.76l-.22-.07L127.1,62A2.6,2.6,0,0,1,126.45,61Z"/><path class="cls-1" d="M159.23,90.64c-10.88-3.72-17.56,3.1-20.2,12.91-1.9,7.08-5.29,21.23-1.82,27.76,3.38,6.37,20.27,8.58,26.06,4.24,6.07-4.55,5.65-20.1,4.15-26.53-1.53-6.6-2.77-16.26-10-18.92"/><path class="cls-2" d="M154.11,138.81a33.56,33.56,0,0,1-7.17-.79c-5.26-1.17-9.13-3.45-10.61-6.24-2.64-5-2.08-14.3,1.74-28.49,1.7-6.34,4.83-10.88,9-13.12a14.5,14.5,0,0,1,10.67-1h0q.86.22,1.75.52l-.09.25c5.54,3.17,7.13,10.52,8.43,16.52.17.8.34,1.58.51,2.32,1.61,7,2,22.68-4.53,27.55C161.53,138.11,157.88,138.81,154.11,138.81Zm-.61-48.2a11.43,11.43,0,0,0-5.45,1.32c-4.69,2.5-7,7.84-8.05,11.88-3.62,13.49-4.26,22.58-1.9,27,1.19,2.24,4.66,4.19,9.28,5.22,6,1.35,12.48.8,15.3-1.32,5.42-4.07,5.34-18.76,3.78-25.5-.17-.75-.34-1.54-.52-2.35-1.31-6.05-2.93-13.58-8.73-15.81A15.45,15.45,0,0,0,153.5,90.61Z"/><path class="cls-1" d="M204.91,91.49c-8.62-4.12-13.77,12.22-14.65,17.94-1.49,9.68.87,17.75,1.65,26.72,12.76,2.28,26.95-2,26.27-17.61-.27-6.25-7.74-31-17-26.91"/><path class="cls-2" d="M198.21,137.72a36.86,36.86,0,0,1-6.47-.59L191,137l-.07-.76c-.23-2.62-.6-5.22-1-7.73-.87-6-1.76-12.26-.69-19.23.74-4.79,4.1-15.64,9.76-18.63a6.65,6.65,0,0,1,6-.19,7.64,7.64,0,0,1,1.74.81c7.31,4.53,12.19,22.39,12.4,27.23.26,6.06-1.57,10.85-5.45,14.25C210,136,204.47,137.72,198.21,137.72Zm-5.37-2.43c7.94,1.25,15.22-.24,19.58-4.05,3.4-3,5-7.23,4.77-12.66-.21-4.89-5-21.62-11.45-25.62a5.61,5.61,0,0,0-1.25-.59v0l-.11,0a4,4,0,0,0-2.79.21l-.28-.63a5.11,5.11,0,0,0-1.34.49c-4.94,2.61-8.05,12.88-8.71,17.17-1,6.67-.2,12.49.69,18.64C192.27,130.52,192.61,132.88,192.84,135.29Z"/><circle class="cls-2" cx="158.54" cy="113.14" r="8.9" transform="translate(26.36 256.19) rotate(-82.77)"/><path class="cls-2" d="M158.55,123a10.07,10.07,0,0,1-1.25-.08,9.9,9.9,0,1,1,11.07-8.58h0A9.92,9.92,0,0,1,158.55,123Zm0-17.8a7.9,7.9,0,1,0,1,.06A7.91,7.91,0,0,0,158.54,105.24Z"/><circle class="cls-2" cx="207.84" cy="114.75" r="8.9" transform="translate(67.85 306.5) rotate(-82.77)"/><path class="cls-2" d="M207.84,124.65a10.07,10.07,0,0,1-1.25-.08A9.9,9.9,0,1,1,217.66,116h0A9.92,9.92,0,0,1,207.84,124.65Zm0-17.8a7.91,7.91,0,1,0,1,.06A7.91,7.91,0,0,0,207.83,106.85Z"/><path class="cls-1" d="M138.46,83.68c-11.55-4.78,9.45-19.87,14-22.51,4.72-2.74,8.46-5.67,12.07-1.55s2.33,11.2,1.41,16.31c-5.13-.46-11.18,2.37-15.92,4.26-2.45,1-14.28,8.72-11.12,2.3"/><path class="cls-2" d="M139.32,86a1.94,1.94,0,0,1-1.41-.51,1.73,1.73,0,0,1-.52-1.23c-2.09-1-3.21-2.54-3.33-4.44-.48-7.28,14.87-17.77,17.92-19.54l1.38-.82c4-2.39,8.14-4.85,11.94-.52s2.64,11.63,1.7,16.85l-.21,1.2-.91-.08c-4.26-.39-9.25,1.66-13.65,3.46l-1.8.73c-.47.19-1.43.71-2.54,1.32C143.61,84.77,141,86,139.32,86Zm.08-2h0c1.35,0,5.61-2.32,7.49-3.35,1.22-.66,2.18-1.19,2.76-1.42l1.78-.73c4.32-1.77,9.17-3.75,13.67-3.66.85-4.76,1.82-11-1.34-14.6-2.58-2.94-5-1.71-9.42.92L153,62C148,64.91,135.69,74.4,136,79.71a3.22,3.22,0,0,0,1.86,2.59l.12-.24,1.79.88A4.45,4.45,0,0,0,139.4,84Z"/><path class="cls-1" d="M197.42,67.65c-3.34-.47-3.56,4.43-2.69,6.45,1.12,2.62,4.69,4.36,6.85,5.7,4,2.5,9.66,7.07,14.22,8,3-6.54-1-9.2-5.47-13.75-3.22-3.29-8.55-9.9-13.37-7.73"/><path class="cls-2" d="M216.38,89l-.78-.17c-3.6-.76-7.67-3.53-11.26-6-1.18-.8-2.29-1.56-3.29-2.18L200,80c-2.26-1.33-5.08-3-6.15-5.5-.68-1.58-.87-4.74.54-6.57a3.19,3.19,0,0,1,2.74-1.3l-.53-1.18c4.92-2.21,10,3.16,13.32,6.71.42.44.81.86,1.17,1.23.53.54,1,1.05,1.55,1.55,3.77,3.71,7,6.92,4.12,13.32ZM197,68.61a1.22,1.22,0,0,0-1,.52,5.51,5.51,0,0,0-.29,4.57c.82,1.9,3.32,3.38,5.33,4.57l1.13.68c1,.64,2.17,1.41,3.36,2.23,3.16,2.15,6.7,4.57,9.75,5.48,1.77-4.59-.45-6.78-4-10.29-.51-.5-1-1-1.58-1.57l-1.2-1.26c-2.93-3.11-7.34-7.79-10.94-6.3l-.2,1.42Z"/><path class="cls-2" d="M188.25,168.71c6.37-1.85,16.2-2.79,19.73-9.25.57-1-.55-3,0-4-3.54,6.46-13.36,7.4-19.73,9.25-.38.11.33,3.9,0,4Z"/><path class="cls-2" d="M190.47,216.34c9.07-1.38,13.06,7.12,8.42,14.09-3.3,5-11.83,9.54-17.56,6.68-5.55-2.78-8.34-12-6.13-17.62,2.65-6.78,12.62-6.54,16.08-1.3a7.76,7.76,0,0,1,1.58,5"/><path class="cls-2" d="M185.34,239a9.87,9.87,0,0,1-4.46-1c-6.3-3.15-8.9-13-6.62-18.88a9.12,9.12,0,0,1,7.88-5.74,11.31,11.31,0,0,1,8.23,2.34l-.06-.37c4.39-.67,8.07.76,10.09,3.93,2.14,3.36,1.88,7.84-.68,11.7S191,239,185.34,239Zm-2-23.69a9.57,9.57,0,0,0-1,.05,7.18,7.18,0,0,0-6.23,4.48c-1.93,4.95.46,13.77,5.65,16.36,5,2.51,13-1.42,16.28-6.34,2.12-3.19,2.37-6.83.66-9.51-1.4-2.19-3.88-3.31-6.91-3.15q.16.21.3.42a8.79,8.79,0,0,1,1.74,5.56l-2-.1a6.85,6.85,0,0,0-1.41-4.36A8.47,8.47,0,0,0,183.38,215.31Z"/><path class="cls-2" d="M180.46,225.74c-6.21.94-22.65,1-16.95,11.88,2.22,4.23,2.79,5.3,3,10.48s-2.33,7.71-5.1,11.32c7.43.9,19.65-5.28,20.63-13.06.59-4.67,1.11-6-1.71-9.38-2.5-3-5.11-9.23,2-7.29"/><path class="cls-2" d="M162.93,260.51a14,14,0,0,1-1.66-.1l-1.74-.21,1.07-1.39.85-1.09c2.34-3,4.2-5.35,4-9.59-.17-4.93-.68-5.91-2.83-10-1.51-2.87-1.72-5.3-.67-7.28,2.3-4.32,9.91-5.15,15.46-5.76,1.08-.12,2.06-.22,2.86-.35l.3,2c-.83.13-1.83.24-2.95.36-4.82.53-12.11,1.32-13.91,4.71-.72,1.36-.5,3.16.65,5.35,2.23,4.26,2.9,5.52,3.09,10.91.17,4.73-1.78,7.45-4.12,10.44,7.23-.2,16.86-5.92,17.66-12.28l.17-1.27c.49-3.65.62-4.62-1.65-7.35-1.71-2.05-3.76-5.88-2.39-8,.86-1.33,2.67-1.63,5.39-.89l-.53,1.93c-2-.54-2.94-.34-3.18,0-.55.86.54,3.6,2.24,5.65,2.83,3.4,2.6,5.12,2.1,8.9l-.16,1.25C182.06,254,171.08,260.51,162.93,260.51Z"/><path class="cls-2" d="M206.68,249.48c-.14,2.55,2,4,1.41,6.61-6.63-.05-13.55-5-12.82-11.77.36-3.4,2.56-5.65,1-9s-5.23-3.75-.4-6.1c5.78-2.8,14.36-.21,16.93,5.64,3.42,7.77-.43,10.48-5.35,15.68"/><path class="cls-2" d="M208.9,257.1h-.82A15.42,15.42,0,0,1,197,252.23a10.18,10.18,0,0,1-2.69-8,16,16,0,0,1,.87-3.47c.6-1.8,1.08-3.21.25-5a8.23,8.23,0,0,0-1.6-2.19c-.71-.77-1.45-1.56-1.25-2.6s1-1.69,2.92-2.61a14.38,14.38,0,0,1,11-.27,12.52,12.52,0,0,1,7.28,6.41c3.35,7.61.06,11-4.11,15.28l-1.43,1.49-.35-.33a11.55,11.55,0,0,0,.5,1.27,6.37,6.37,0,0,1,.71,4.16Zm-7.78-28a11,11,0,0,0-4.79,1c-1.62.79-1.82,1.16-1.84,1.2a11.33,11.33,0,0,0,.76.85,10,10,0,0,1,2,2.73c1.16,2.55.48,4.57-.17,6.51a14.18,14.18,0,0,0-.77,3,8.28,8.28,0,0,0,2.2,6.47,13.3,13.3,0,0,0,8.72,4.15,6.09,6.09,0,0,0-.65-2.1,7.37,7.37,0,0,1-.85-3.52l1.37.08,1.15-1.19c4.2-4.32,6.51-6.7,3.71-13.08a10.52,10.52,0,0,0-6.14-5.34A13.54,13.54,0,0,0,201.12,229.06Z"/><path class="cls-2" d="M228.27,152.45c16.24,2.95,10.34,20.48,6.25,31.42-5.16,13.79-15.5,24.84-27.19,34-4.5,3.53-8.52,6.81-13.52,9.49.06-3.74,9.15-11.71,11.58-15.21,3.41-4.93,7.1-9.66,10.26-14.9,7.92-13.16,16.58-29.74,15.36-37.12Z"/><path class="cls-2" d="M192.78,229.07l0-1.7c0-2.68,3.27-6.36,7.83-11.26a51.91,51.91,0,0,0,3.93-4.51c1.09-1.57,2.2-3.12,3.32-4.67,2.35-3.26,4.77-6.63,6.91-10.18,4.08-6.78,16.73-28,15.37-36.24l1.74.24c1,6.13-3.88,17.9-15.4,37-2.18,3.62-4.63,7-7,10.32-1.11,1.54-2.22,3.08-3.29,4.64a51.72,51.72,0,0,1-4.11,4.73,58.62,58.62,0,0,0-6.42,7.69,99.64,99.64,0,0,0,9.89-7.16l1.14-.9c13.63-10.7,22.42-21.68,26.87-33.59,2.37-6.33,6.78-18.1,2.92-24.89-1.56-2.75-4.32-4.46-8.41-5.2l.36-2c4.65.84,7.95,2.92,9.8,6.18,4.32,7.6-.31,19.94-2.79,26.58-4.59,12.26-13.59,23.53-27.51,34.46l-1.14.89a84.35,84.35,0,0,1-12.53,8.69Z"/><path class="cls-2" d="M97.47,144.68c-13.19-4-30.78,6.13-33.54,19.83,4.15-1.45,8.33-1.73,12.38-3l1-.34c8.2-2.44,12.57-5.35,18.22-4.65A22.86,22.86,0,0,1,112,167.41c8.42,13.61,20.8,28.53,33.93,37.95,6.49,4.65,6.18,5.58,12.72,9.71,5.56,3.51,11.8,6.69,17.14,11l8.79.19c8-3.11-7.27-9.36-10.27-11.4-5-3.37-10.29-6.64-15.3-9.95-10.53-6.94-15.19-18.9-20.15-29.7-6-13.06-10.5-21.52-21.61-32.67-5.3-5.32-12.82-6.79-20.29-5.46-6.5,1.16-13,5.51-14,12.25"/><path class="cls-2" d="M184.75,227.27l-9.33-.2-.27-.22a96.26,96.26,0,0,0-11.78-7.76c-1.75-1-3.56-2.1-5.27-3.18a49.7,49.7,0,0,1-7-5.21,72,72,0,0,0-5.73-4.53c-11.87-8.51-24.65-22.8-34.2-38.23a21.79,21.79,0,0,0-15.75-10.44c-3.62-.45-6.7.69-11,2.27-2,.73-4.23,1.57-6.85,2.34l-.93.33a52.89,52.89,0,0,1-5.91,1.42,47.28,47.28,0,0,0-6.47,1.61l-1.66.58.35-1.72c1.35-6.71,6.14-13,13.15-17.13a31.93,31.93,0,0,1,8-3.4c2.84-4.22,7.9-6.83,12.68-7.68,8.47-1.51,16,.53,21.18,5.74,11.51,11.55,16.11,20.55,21.81,33q.69,1.5,1.38,3c4.48,9.89,9.1,20.12,18.42,26.25,2.07,1.37,4.2,2.73,6.33,4.09,3,1.91,6.06,3.88,9,5.86.55.37,1.62.94,2.86,1.59,5.65,3,10.31,5.68,10.15,8.55-.07,1.28-1.06,2.29-2.94,3Zm-8.61-2.18,8.25.18c.92-.38,1.46-.82,1.48-1.2.1-1.82-6.33-5.21-9.08-6.66-1.35-.71-2.41-1.27-3-1.7-2.9-2-6-3.93-8.94-5.83-2.14-1.37-4.27-2.74-6.35-4.11-9.8-6.45-14.55-16.95-19.14-27.1q-.69-1.52-1.37-3c-5.78-12.58-10.11-21-21.41-32.38-4.72-4.73-11.61-6.57-19.41-5.18a18.59,18.59,0,0,0-9.93,5.05,23.71,23.71,0,0,1,10.58.6l-.59,1.91a22.53,22.53,0,0,0-11.83-.12,11.06,11.06,0,0,0-1.4,4l-2-.3a12.93,12.93,0,0,1,.79-2.91,30.41,30.41,0,0,0-5.63,2.62C71.2,152.43,67,157.51,65.34,163c1.69-.48,3.37-.81,5-1.14A50.69,50.69,0,0,0,76,160.54l.95-.33c2.6-.78,4.82-1.6,6.77-2.32,4.36-1.61,7.8-2.89,11.91-2.38a23.78,23.78,0,0,1,17.21,11.37c9.42,15.22,22,29.3,33.67,37.66a73.31,73.31,0,0,1,5.87,4.64,48,48,0,0,0,6.79,5c1.69,1.07,3.4,2.08,5.22,3.15A100.15,100.15,0,0,1,176.14,225.08Z"/><path class="cls-1" d="M99.58,143c4.24.33,8.95.71,12.45,3.38s5.27,7.17,7,11.06c-.58-1.31-1.32-3.75-2.06-5.41-1.68-3.79-3.35-8.09-6.59-10.85-3.54-3-8.52-3.45-13-3.79.81.06,1.25,5.53,2.15,5.6Z"/><path class="cls-1" d="M180.62,217c4.55,0,5.56,5.74,4.7,9.26a17,17,0,0,1,2.91-.75c.33-.09,2.81-.49,2.89-.81.85-3.51-.16-9.23-4.7-9.26-1.94,0-3.88,1.56-5.8,1.55Z"/><path class="cls-1" d="M193.41,218.63c2.86,1.46,1.74,4.48,1.28,7a19.55,19.55,0,0,1,2.91-.75c.31-.08,2.84-.52,2.89-.81.46-2.49,1.58-5.51-1.28-7a3.86,3.86,0,0,0-.85.21l-2.05.54-2,.56c-.14,0-.74.3-.84.25Z"/><path class="cls-1" d="M206,232.07c4.57-.17,5.28,8.54,1.27,10,.16-2.74,3-5.8.67-8.24"/><path class="cls-1" d="M171,229.8c-2.66.85.41,4,1,5.72.85,2.25.53,4.14-.06,6.42,3.2,1.23,3.86-4,3.06-6.75-.85-2.9-3.46-3-3.32-6.23"/><path class="cls-1" d="M269.51,86.43c-18.7-13-43.4-29.38-61-32.74-49.7-9.5-108,6.47-147.77,38.61,12.83-3.91,15.1-.06,32.37-3.32s16.25-6.54,23.94-7.59c12.8-1.74,87.13-7,99.68-4.77"/><path class="cls-2" d="M56.11,94.75l4-3.23C101,58.5,159.3,43.26,208.69,52.7c17.18,3.28,37.94,16.49,58.65,30.92l-.83,1.68C246,71,225.13,57.88,208.32,54.66c-47.35-9-103,4.85-143.22,35.48a45.08,45.08,0,0,1,10.67-.75A75,75,0,0,0,92.92,88c9.89-1.87,13.61-3.7,16.61-5.17a21.09,21.09,0,0,1,7.38-2.43c12.69-1.72,87.37-7,100-4.76l-.35,2c-12.48-2.23-86.74,3.06-99.37,4.77a19,19,0,0,0-6.77,2.24c-2.94,1.45-7,3.43-17.12,5.34A76.75,76.75,0,0,1,75.74,91.4,40.51,40.51,0,0,0,61,93.25Z"/><path class="cls-1" d="M126.24,55.61C130.15,43,134,30.77,139.65,18.89c5.72-12.15,17-14.66,29.53-16.74C184.81-.42,191,4.52,197.29,19.43c3.27,7.79,12.84,27.29,5.36,34"/><path class="cls-2" d="M127.19,55.91l-1.91-.59c4.15-13.33,8-25.3,13.46-36.85C144.56,6.13,155.89,3.34,169,1.17,184.37-1.36,191.47,3,198.21,19c.31.74.68,1.58,1.08,2.51,4,9.11,11.33,26.07,4,32.59L202,52.65c6.22-5.56-1-22.27-4.53-30.3-.41-.94-.78-1.79-1.09-2.54-6.44-15.33-12.5-19.07-27-16.67-13,2.15-23.38,4.7-28.79,16.18S131.46,42.18,127.19,55.91Z"/><path class="cls-2" d="M124.52,59.14C122.46,50.8,136,47.4,142.26,44.71c8.46-3.66,17.78-5.38,26.64-7a87.93,87.93,0,0,1,20.93-1.16c5.68.38,19.16,7.06,15.91,15-.81,2-5,1.67-8.78.67a49.8,49.8,0,0,0-11.59-1.44c-4.36-.14-20.42.21-24,1-6.15,1.27-12.18,1.57-18.32,2.8a92,92,0,0,0-9.12,2C130.79,57.44,124.52,59.14,124.52,59.14Z"/><path class="cls-2" d="M123.8,60.38l-.25-1c-1.94-7.86,8.18-11.7,14.88-14.24,1.26-.48,2.45-.93,3.43-1.35,8.39-3.63,17.5-5.35,26.31-7l.55-.1A88.86,88.86,0,0,1,189.9,35.5c4.37.29,12.77,4,16,9.13a7.73,7.73,0,0,1,.79,7.25c-1.24,3-6.77,2.09-10,1.26a48.58,48.58,0,0,0-11.37-1.41c-4.29-.13-20.3.22-23.8.94-3.18.66-6.36,1.06-9.44,1.45-2.91.37-5.92.75-8.89,1.35l-2.31.44a60.48,60.48,0,0,0-6.7,1.51c-3.09,1-9.35,2.67-9.41,2.68Zm60.48-23.06a85.66,85.66,0,0,0-15.19,1.32l-.55.1c-8.7,1.64-17.7,3.34-25.88,6.88-1,.44-2.23.9-3.52,1.39-6,2.29-14.18,5.38-13.81,10.87,1.93-.53,6-1.66,8.27-2.37a61.93,61.93,0,0,1,6.93-1.57l2.29-.44c3-.61,6.08-1,9-1.37s6.19-.79,9.29-1.43c3.7-.76,19.79-1.12,24.27-1a50.27,50.27,0,0,1,11.81,1.48c4.49,1.18,7.22.85,7.6-.08a5.74,5.74,0,0,0-.64-5.44c-2.84-4.54-10.56-7.94-14.42-8.2C187.87,37.37,186,37.32,184.28,37.32Z"/><path class="cls-1" d="M117.57,80.61a149.39,149.39,0,0,0-8.87,23.76c-29.23-.89-50.39-4.29-50.62-8.89-.35-7.16,46.27-14.67,104-17.46s104.67.19,105,7.34c.22,4.45-16.74,9.85-44.22,13.52C220.6,91,217.68,81.28,215.35,77"/><path class="cls-2" d="M109.49,105.39l-.82,0c-14.64-.45-27.2-1.51-36.32-3.07-13.5-2.31-15.17-5-15.26-6.77-.07-1.53-.3-6.2,31.05-11.4,8.33-1.38,17.93-2.64,28.41-3.73l.14-.27.39.21c13.77-1.42,29-2.56,44.94-3.33,28.24-1.37,54.57-1.39,74.14-.06,31.63,2.15,31.85,6.82,31.93,8.35.38,7.87-34.41,13.13-45.09,14.56l-.85.11-.24-.83c-1.55-5.34-4.71-16.24-7.15-21.07-15.71-.29-33.75,0-52.65.93-15.66.76-30.69,1.87-44.27,3.26-2.3,4.8-6.81,16.55-8.17,22.32Zm6-22.88c-10,1.05-19.09,2.26-27.06,3.58C59.7,90.87,59.06,95,59.09,95.43c.12,2.47,13.5,6.78,48.84,7.92A162.15,162.15,0,0,1,115.53,82.51ZM217,78.13c2,4.4,4.34,11.93,6.58,19.64,31.17-4.23,42.62-9.82,42.5-12.36,0-.45-1.05-4.48-30.06-6.45C230.24,78.55,223.86,78.28,217,78.13Z"/><path class="cls-1" d="M84.53,148.61c7.31.94,14.78,15.43,18.38,21.14a136.63,136.63,0,0,1,13,26.3c3.23,8.92,6,21.37-4.1,25.91-9.38,4.24-15.48,0-20.73-7.78-10.81-16-9.35-38.31-10.44-58"/><path class="cls-2" d="M104.83,224.64c-6.81,0-11.28-5-14.58-9.9-9.09-13.42-9.65-31-10.19-48-.11-3.47-.23-7.05-.42-10.47l2-.11c.19,3.45.31,7,.42,10.52.53,16.72,1.09,34,9.85,46.95,5.9,8.72,11.73,10.94,19.49,7.43,7.22-3.27,8.39-11.33,3.57-24.66a136,136,0,0,0-12.91-26.1c-.53-.84-1.15-1.88-1.84-3-3.77-6.33-10.08-16.91-15.83-17.65l.26-2c6.72.87,13.08,11.55,17.29,18.61.68,1.14,1.28,2.16,1.81,3a137.9,137.9,0,0,1,13.1,26.49c5.17,14.3,3.62,23.44-4.62,27.16A17.94,17.94,0,0,1,104.83,224.64Z"/><path class="cls-1" d="M101.59,145.82c-.32-16.19-39.76-17.86-47.71-8.88-16.78,19,21.51,28.71,34.33,22.65,6-2.84,9.48-5.59,12.25-11.86"/><path class="cls-2" d="M78.06,162.4c-10.06,0-22.3-3.68-27.16-10.15-2.49-3.32-4.12-8.78,2.24-16,5.48-6.19,24.95-7.71,37.88-3,7.47,2.75,11.47,7.06,11.58,12.48l-2,0c-.11-5.72-5.65-8.94-10.27-10.64-12.07-4.44-30.75-3.18-35.69,2.4-4.39,5-5.11,9.48-2.13,13.44,6.25,8.32,26.68,11.72,35.29,7.64,5.65-2.67,9-5.16,11.77-11.36l1.83.81c-3,6.74-6.78,9.55-12.74,12.36A25.58,25.58,0,0,1,78.06,162.4Z"/><path class="cls-1" d="M85.11,136.9c9.91-.48,29.9,9.41,17.77,21.15-9.5,9.19-26.16,2.52-32.89-5.55"/><path class="cls-2" d="M91.24,163.49q-.6,0-1.21,0a31.28,31.28,0,0,1-20.8-10.32l1.54-1.28a29.12,29.12,0,0,0,19.37,9.61,15.58,15.58,0,0,0,12.05-4.13c3.26-3.15,4.24-6.3,2.91-9.36-2.71-6.27-13.81-10.38-19.94-10.07l-.1-2c6.63-.3,18.73,4,21.87,11.27,1.16,2.68,1.52,6.87-3.36,11.59A17.28,17.28,0,0,1,91.24,163.49Z"/><path class="cls-1" d="M20.69,139.24c-5-10.35-22-9.34-19.44,4.15,1.86,10,17.12,17.69,25.94,13.32"/><path class="cls-2" d="M21.35,159a22.7,22.7,0,0,1-10-2.54c-6-3-10.15-7.8-11.08-12.85-1.08-5.8,1.14-10.2,5.95-11.77,6.43-2.1,13,2,15.38,7l-1.8.86a11.14,11.14,0,0,0-13-6c-3.81,1.24-5.49,4.71-4.6,9.5.81,4.37,4.65,8.75,10,11.43,5.18,2.59,10.74,3,14.5,1.17l.89,1.79A14.09,14.09,0,0,1,21.35,159Z"/><path class="cls-1" d="M38.57,140.09c-5.84-8.48-19.9-7.34-23.27,1.87-3.84,10.5,6.77,22.09,20.27,21.65"/><path class="cls-2" d="M34.84,164.63a22.49,22.49,0,0,1-18.16-8.9,15,15,0,0,1-2.32-14.11c1.63-4.45,5.68-7.49,10.85-8.15a14.79,14.79,0,0,1,14.18,6.05l-1.65,1.13a12.78,12.78,0,0,0-12.28-5.2c-4.41.56-7.86,3.12-9.23,6.85-1.47,4-.74,8.37,2.07,12.25a20.63,20.63,0,0,0,17.23,8.06l.07,2Z"/><path class="cls-1" d="M57.22,149.51c-1.42-7.23-17.64-11.18-21.93-7.39-4.82,4.26-5.06,11.67-2.55,17.49,5.21,12,31.14,16,40.06-.51"/><path class="cls-2" d="M52.9,171.08l-1.32,0c-9.12-.4-17.05-4.84-19.74-11-2.52-5.82-2.63-13.83,2.8-18.63,2.84-2.51,9.21-1.94,13.93-.35,5.45,1.84,9,4.87,9.64,8.29l-2,.39c-.52-2.67-3.64-5.2-8.32-6.79-5-1.68-10.1-1.7-12,0-4.68,4.14-4.52,11.19-2.29,16.34,2.35,5.43,9.75,9.48,18,9.84,8.95.4,16.53-3.51,20.28-10.43l1.76,1C69.76,166.84,62,171.08,52.9,171.08Z"/><path class="cls-1" d="M95.66,160.9c-9.46,5.33-21.38,11.47-26-3.48-1.83-5.92-1-11.2,5.21-14,4.13-1.85,14.91-.92,16.37,4.16"/><path class="cls-2" d="M79.94,167.8a10.61,10.61,0,0,1-4-.72c-3.3-1.32-5.75-4.46-7.26-9.36-2.24-7.23-.25-12.48,5.75-15.17,3-1.33,9.3-1.41,13.64.6a7,7,0,0,1,4.1,4.2l-1.92.55a5.25,5.25,0,0,0-3-2.93c-3.74-1.74-9.41-1.75-12-.59-5.08,2.28-6.61,6.46-4.66,12.76,1.34,4.35,3.33,7,6.09,8.09,5,2,11.87-1.47,18.46-5.19l1,1.74C90.65,164.88,85,167.8,79.94,167.8Z"/><path class="cls-1" d="M78,142.21c-7.32,1-9,4.19-12.5,1.92S53.26,139,51,142.17"/><path class="cls-2" d="M68,145.93a5.33,5.33,0,0,1-3-1c-3.38-2.18-11.45-4.67-13.2-2.22l-1.63-1.16c2.9-4.07,12.68-.38,15.91,1.7,1.63,1.05,2.66.67,4.9-.19a29.1,29.1,0,0,1,6.92-1.88l.28,2A27.37,27.37,0,0,0,71.69,145,10.68,10.68,0,0,1,68,145.93Z"/><ellipse class="cls-2" cx="183.03" cy="189.99" rx="15.28" ry="23.12" transform="matrix(0.13, -0.99, 0.99, 0.13, -28.47, 347.66)"/><path class="cls-2" d="M185.45,206.42a35.59,35.59,0,0,1-4.46-.28c-13.19-1.67-23-10.28-21.88-19.18.56-4.39,3.62-8.17,8.63-10.64a30.93,30.93,0,0,1,17.35-2.48c13.19,1.67,23,10.28,21.88,19.18h0C206,200.91,196.71,206.42,185.45,206.42Zm-4.9-30.87a27.14,27.14,0,0,0-11.93,2.56c-4.38,2.16-7.06,5.39-7.53,9.09-1,7.81,8,15.41,20.15,16.95S204,200.58,205,192.77h0c1-7.81-8-15.41-20.15-16.95A34,34,0,0,0,180.54,175.55Z"/><path class="cls-1" d="M185.11,194.58s5-3,12.14-.63c2.93,1.3,3.16,4.34,2.9,6.4-7.72,6.71-30.83,5.74-33.58-5.48,6.11-4.41,16.73-3.73,20.91,2.45"/><path class="cls-2" d="M185.45,205.58a32.65,32.65,0,0,1-9.77-1.44c-5.5-1.75-9.08-5-10.08-9l-.16-.65.55-.39a18,18,0,0,1,13.24-2.74,15.4,15.4,0,0,1,5.74,2.2,16.52,16.52,0,0,1,12.6-.51c2.75,1.22,4,3.93,3.57,7.47l0,.38-.29.25C197.5,204,191.58,205.58,185.45,205.58ZM167.74,195.3c1.31,3.89,5.33,5.92,8.55,6.94,7.84,2.49,18.2,1.38,22.92-2.39.16-1.81-.17-4-2.36-5a14.92,14.92,0,0,0-10.1.06,11.18,11.18,0,0,1,1.56,1.83l-1.66,1.12a11.58,11.58,0,0,0-7.77-4.59A16.11,16.11,0,0,0,167.74,195.3Z"/></svg>