<svg id="Icons" xmlns="http://www.w3.org/2000/svg" viewBox="0 0 92.67 56"><title>american-camp</title><path d="M40,53.5a7.77,7.77,0,0,1,1.1.08c3.72.35,9.32,1.1.21,2.34-.17,0-1,.08-1.37.08s-3.07,0-7.73-.44A60.62,60.62,0,0,1,13.69,51,27.28,27.28,0,0,1,3.37,43.33,19.14,19.14,0,0,1-.52,29.52,24.43,24.43,0,0,1,5.93,15.75,41.93,41.93,0,0,1,18.38,6.52C37.18-2.7,59.33-1.2,73.33,5.19A37.08,37.08,0,0,1,88.19,16.52a22.65,22.65,0,0,1,3.42,6.41,20.27,20.27,0,0,1,1,4.54,18.13,18.13,0,0,1-2.51,11.26c-2.43,4.06-6.7,7.33-11.28,9.61A58.22,58.22,0,0,1,64.65,53a85,85,0,0,1-15.74,1.77c-2.92,0-3.69-.1-2.87-.24,1.6-.33,9.59-.7,18.89-3-.5.08,2.07-.45,6-1.8S80.29,46,84.5,42.19c4.36-3.76,6.29-9.44,5.77-13.65a17.93,17.93,0,0,0-1.82-6.77A22.12,22.12,0,0,0,84.9,16.4,37.29,37.29,0,0,0,70.6,6.73C57.3,1.22,36,.15,18.52,9.24,10,13.64,2.39,21.39,1.91,30.42A16.51,16.51,0,0,0,5.64,42.17,25.4,25.4,0,0,0,15,48.88a58.67,58.67,0,0,0,17.55,4.2c4.47.41,7.17.41,7.44.42M38.42,10.4a3.75,3.75,0,0,1-1,1.29c-.76.67-1.74.48-1.82-.91a4.42,4.42,0,0,1,1.19-3.2c.68-.68,1.19-.63,1.17-.63a.81.81,0,0,1,.87.53,3.43,3.43,0,0,1,.29,1.38,12.46,12.46,0,0,0,0,1.38c0,.14.4-.07.71-1.27a3.11,3.11,0,0,0-.31-2.41,1.91,1.91,0,0,0-1.32-.84A2.77,2.77,0,0,0,36,6.6a5.61,5.61,0,0,0-1.67,4.18,2.62,2.62,0,0,0,1.37,2.36,2.44,2.44,0,0,0,2.42-.46A4.92,4.92,0,0,0,39.53,11a.39.39,0,0,0,0-.12c-.2-.88-.8-.61-1.05-.48,0,0,0,0-.06.05M25.14,15.1a2.58,2.58,0,0,1-.67,1.07,1,1,0,0,1-1.78-.54,2.84,2.84,0,0,1,.5-2.55,1.42,1.42,0,0,1,.91-.55.9.9,0,0,1,.87.33,2.28,2.28,0,0,1,.47,1c.11.5.08.95.16,1.06s.3-.11.34-1.08a2.29,2.29,0,0,0-.69-1.74,1.67,1.67,0,0,0-1.05-.43,2.1,2.1,0,0,0-1.58.78,3.68,3.68,0,0,0-.78,3.42,2.13,2.13,0,0,0,1.42,1.51,2,2,0,0,0,1.79-.5A3.37,3.37,0,0,0,26,15.38a.32.32,0,0,0,0-.09c-.2-.65-.62-.36-.79-.24a.07.07,0,0,0,0,0M12.9,20.42a46,46,0,0,0,15-1.06,60.1,60.1,0,0,0,13.58-5.59s1.93-1.13,3.69-2.44a29.81,29.81,0,0,0,3.18-2.66A13,13,0,0,0,50.61,6c.09-.32-.48.34-2.64,2.17a47.38,47.38,0,0,1-6.73,4.44,59.35,59.35,0,0,1-13.45,5.63A44.79,44.79,0,0,1,13,19.27l-.25,0c-1.68.29-.77.83-.07,1.07a.61.61,0,0,0,.2,0m3.29,14.7a40.12,40.12,0,0,1,1.33-4.36,22,22,0,0,0,1-4.61,7.55,7.55,0,0,0-.08-1.51,2.37,2.37,0,0,0-.61-1.31.73.73,0,0,0-1.07-.23.68.68,0,0,0-.29.35c0,.08.07.1.25.07s.53-.08.5.09a3.78,3.78,0,0,1,.1,2.27,20,20,0,0,1-1,4.44A35,35,0,0,0,15,35a.39.39,0,0,0,0,.12c.12.22.38.49.6.39s.07-.22.07-.32c.12-.25.45,0,.48-.09s0,0,0,0m10.49-1.84c0-.14,1.55-5,2.9-10a5,5,0,0,0,0-2.16,1.46,1.46,0,0,0-1-1.06l-.36,0A.82.82,0,0,0,28,20l-.14,0a1.83,1.83,0,0,0-.59.24,7.61,7.61,0,0,0-2.38,2.57,19.89,19.89,0,0,0-1.39,3,49.14,49.14,0,0,0-1.5,5.8c-.23,1.22-.31,2.3-.34,2.33s.08.24.29-.17a16.94,16.94,0,0,0,.65-1.94c.68-2.26,1.85-5.37,1.88-5.35a20,20,0,0,1,1.29-2.85,6.52,6.52,0,0,1,2-2.32c.31-.21.65-.27.69,0a3.54,3.54,0,0,1,0,1.59c-1.28,4.88-3,9.93-2.91,10.11a.94.94,0,0,0,0,.2c0,.3.16.77.51.77s.11-.21.09-.28.23,0,.26-.08a.77.77,0,0,0,.2-.23.25.25,0,0,0,.05-.11m14-17.95a27.73,27.73,0,0,0-3.93,6.39c-1.5,3.34-2.79,6.7-2.8,6.7s-1.43,4.15-1.33,4c-.24.81-.55,1.44-.57,1.52-.17.23.53.13,1.18-1.22S35,29.06,35,29.07s1.32-3.41,2.82-6.74a26.39,26.39,0,0,1,3.82-6.24.51.51,0,0,0,0-.13c.08-1-.58-.86-.93-.69a.16.16,0,0,0-.09.06m9.5,1.78V14.79h-.39v.33h0a1,1,0,0,0-.8-.39A1.14,1.14,0,0,0,47.86,16,1.15,1.15,0,0,0,49,17.17a1,1,0,0,0,.8-.39h0v.32h.39m-1.16-2a.78.78,0,0,1,.78.84.79.79,0,0,1-.77.88.8.8,0,0,1-.76-.88A.79.79,0,0,1,49,15.09Zm3.42,0v-.25H52v2.32h.39v-1.2c0-.35,0-.82.51-.82s.41.42.41.7v1.32h.39V15.88c0-.35,0-.79.51-.79s.42.37.42.67v1.35h.4V15.7c0-.49-.15-1-.74-1a.78.78,0,0,0-.7.38.71.71,0,0,0-.64-.38.65.65,0,0,0-.56.32h0m4.73,1H59A1.13,1.13,0,1,0,56.77,16a1.12,1.12,0,0,0,1.14,1.2A1.17,1.17,0,0,0,59,16.52l-.34-.19a.79.79,0,0,1-.71.48.75.75,0,0,1-.76-.78m0-.34a.74.74,0,0,1,.71-.61.71.71,0,0,1,.68.61ZM61.06,15v-.25h-.4v2.32h.4V15.95c0-.3,0-.86.46-.86a.38.38,0,0,1,.23.1l.19-.36a.7.7,0,0,0-.36-.11.6.6,0,0,0-.51.32h0m3-1.13a.28.28,0,1,0-.28.28.28.28,0,0,0,.28-.28m-.48,3.2h.4V14.79h-.4Zm4.08-1.63V15a1.25,1.25,0,0,0-.72-.23,1.23,1.23,0,0,0-1.24,1.22,1.2,1.2,0,0,0,1.24,1.23,1.26,1.26,0,0,0,.74-.24v-.53h0a.9.9,0,0,1-.76.4.81.81,0,0,1-.8-.86.83.83,0,0,1,.82-.86.89.89,0,0,1,.72.39h0m3.88,1.63V14.79h-.39v.33h0a1,1,0,0,0-.8-.39A1.14,1.14,0,0,0,69.2,16a1.15,1.15,0,0,0,1.11,1.22,1,1,0,0,0,.8-.39h0v.32h.39m-1.15-2a.78.78,0,0,1,.78.84.79.79,0,0,1-.77.88.8.8,0,0,1-.76-.88A.79.79,0,0,1,70.36,15.09Zm3.42,0v-.28h-.4v2.32h.4V16c0-.41,0-.92.58-.92s.49.34.49.71v1.31h.39V15.73c0-.54-.15-1-.79-1a.78.78,0,0,0-.66.35h0M46.72,32.75V30.43h-.39v.33h0a1,1,0,0,0-.79-.4,1.23,1.23,0,0,0,0,2.45,1,1,0,0,0,.8-.39h0v.32h.39m-1.16-2a.78.78,0,0,1,.78.84.79.79,0,0,1-.78.88.8.8,0,0,1-.76-.88A.79.79,0,0,1,45.56,30.73Zm4,.24.33-.17a.7.7,0,0,0-.62-.43.66.66,0,0,0-.69.66c0,.73,1,.55,1,1.07a.35.35,0,0,1-.37.36c-.26,0-.38-.15-.47-.37l-.35.15a.83.83,0,0,0,.82.59.76.76,0,0,0,.79-.75.71.71,0,0,0-.54-.67c-.27-.12-.54-.19-.54-.41a.28.28,0,0,1,.29-.26.37.37,0,0,1,.32.24m3.11,0L53,30.8a.7.7,0,0,0-.62-.43.66.66,0,0,0-.69.66c0,.73,1,.55,1,1.07a.35.35,0,0,1-.38.36c-.26,0-.37-.15-.47-.37l-.35.15a.84.84,0,0,0,.82.59.76.76,0,0,0,.79-.75.71.71,0,0,0-.54-.67C52.3,31.28,52,31.2,52,31a.28.28,0,0,1,.29-.26.37.37,0,0,1,.32.24m2,.63a1.22,1.22,0,1,0,1.22-1.23A1.21,1.21,0,0,0,54.6,31.6m1.22-.86a.86.86,0,1,1-.82.86A.82.82,0,0,1,55.82,30.73Zm4.63.39V30.6a1.26,1.26,0,0,0-.72-.23,1.23,1.23,0,0,0-1.24,1.23,1.2,1.2,0,0,0,1.24,1.23,1.28,1.28,0,0,0,.74-.24v-.53h0a.9.9,0,0,1-.76.4.81.81,0,0,1-.8-.86.83.83,0,0,1,.82-.86.9.9,0,0,1,.72.39h0m2.32-1.57a.28.28,0,0,0-.56,0,.28.28,0,0,0,.56,0m-.48,3.2h.39V30.43h-.39Zm4.48,0V30.43h-.4v.33h0a1,1,0,0,0-.8-.4,1.23,1.23,0,0,0,0,2.45,1,1,0,0,0,.8-.39h0v.32h.4m-1.16-2a.78.78,0,0,1,.78.84.79.79,0,0,1-.78.88.8.8,0,0,1-.76-.88A.79.79,0,0,1,65.61,30.73Zm3.44,2v-2h.41v-.37H69V29.6h-.4v.84h-.24v.37h.24v2H69m2.46-3.2a.28.28,0,0,0-.56,0,.28.28,0,0,0,.56,0M71,32.75h.4V30.43H71Zm2.15-1.16a1.22,1.22,0,1,0,1.22-1.23,1.21,1.21,0,0,0-1.22,1.23m1.22-.86a.86.86,0,1,1-.83.86A.83.83,0,0,1,74.4,30.73Zm3.3,0v-.28h-.4v2.32h.4v-1.1c0-.42,0-.92.58-.92s.49.34.49.71v1.31h.39V31.38c0-.54-.15-1-.79-1a.78.78,0,0,0-.66.35h0m4-9.18c.36.31.21.79.16,1.1s-1,.55-1.34.73-1.39,1-1.7,1.1a11.49,11.49,0,0,0-1.81.8.91.91,0,0,1-1,0c-.31-.18-.26-.55-.26-.73s.93-.67,1-.85a16.07,16.07,0,0,1,2.37-.92A12.46,12.46,0,0,0,80.38,22c.41-.31.1-.24-.05-.37s-1.29-.06-1.65-.18a22.3,22.3,0,0,0-2.73.37,8.26,8.26,0,0,0-1.7.61c-.36.12-.21.37-.11.92s.15,2.32.21,2.63a7.3,7.3,0,0,1,.15,1.83c-.1.3-.67.18-1,.12s-.67-.67-.72-.86-.31-2.45-.36-2.81-.15-.37-.31-.31a10.63,10.63,0,0,0-.72,1.47c-.15.24.15,1.1.21,1.65A.78.78,0,0,1,71,28a2.32,2.32,0,0,1-.88-.55,4,4,0,0,1-.46-1.22c-.1-.31-.05-1.41-.1-1.65a.42.42,0,0,0-.57-.31,16.61,16.61,0,0,0-1,1.53,7.93,7.93,0,0,1-.93,1c-.21.12-1-.12-1.47-.18s-1.11-.73-1.26-.8a13.54,13.54,0,0,1-1.24-1.71q-.23-.37-.31,0c-.05.24-.1,1.9-.1,2.2s.05.79-.1.92a1.28,1.28,0,0,1-.83,0c-.15-.06-.41-.49-.62-.73a4.66,4.66,0,0,1-.1-1.9c.05-.31.05-1.22.05-1.22a2,2,0,0,1-.72.31,5.31,5.31,0,0,0-1,.06c-.26.06-.1.31-.1.31s.57,1,.73,1.22a.54.54,0,0,1-.05.67c-.15.18-.21.24-.47.12a6.83,6.83,0,0,1-.88-.49A6.27,6.27,0,0,1,58,24.33c-.1-.25-.41-.18-.41-.18a6.25,6.25,0,0,1-1.29.18,21.47,21.47,0,0,0-2.68.36c-.26.06-.52.67-.62.86a6.49,6.49,0,0,1-.72,1.34c-.21.12-.67-.12-.83-.24s-.41-.25-.41-.49.36-.67.47-.92-.05-.31-.05-.31a1,1,0,0,0-.77,0,28.2,28.2,0,0,1-6.76,2.26,3.26,3.26,0,0,1-2-.61c-.31-.18-.41-.86-.1-1.65s3.87-3,4.54-3.42,4.45-2.09,4.8-2c.15.06.2.31.2.31s.36.12.47.31-.1.49-.36.55-1.08.31-1.45.43-2.22,1.1-2.53,1.22a16.41,16.41,0,0,0-1.6.67,16.28,16.28,0,0,1-2,1.34c-.36.12-.83.8-1,1s0,.49.26.61a2.28,2.28,0,0,0,1.5-.24,17.12,17.12,0,0,1,2.68-.73c.26-.06,1.86-1,2.22-1.1s2.94-.85,3.25-.91.47-.43.62-.55,1.24-2,1.24-2a16.47,16.47,0,0,1,1-1.9c.21-.18.62.43.83.61S57.73,21,57.73,21s1,1.29,1.24,1.53.52,0,.88,0,1.6-.31,1.91-.3.26-.55.26-.55.26-.61.47-.61.57.12.72.67a9.84,9.84,0,0,0,2.22,3.37c.26.31.57.24.93.12s1-1,1.19-1.22a20.45,20.45,0,0,1,1.81-2c.31-.18.72.12.93.31a6.24,6.24,0,0,1,.36,1.84c.05.37.31.61.46.49s.67-1.28.82-1.47a1.49,1.49,0,0,0,.31-.73c0-.18.31-.31.36-.55a.62.62,0,0,1,.41-.49,60.64,60.64,0,0,1,6.09-.91,4.51,4.51,0,0,1,2.63,1M57,21.89c-.1-.19-.88-1.47-.88-1.47s-.21-.18-.31,0-.52,1.22-.52,1.22a9.17,9.17,0,0,0-.67,1,1.16,1.16,0,0,0,0,.73c0,.14.36-.06.88-.24a11.93,11.93,0,0,1,1.7-.31C57.52,22.74,57.11,22.07,57,21.89ZM9.82,41.52a20.47,20.47,0,0,1,8.31-2.94c5.17-.93,12.19-1,19.15-.83s13.94.56,19.16.66,8.72,0,8.72,0,4.25-.12,8.38-.73a33,33,0,0,0,7.67-1.93,18.75,18.75,0,0,0,2.2-1.05c.33-.18.64-.39.93-.57l.41-.29.2-.14.09-.07,0,0-.16-.45h-.08a8.7,8.7,0,0,0-2.29.52c-.26.14,0,.09,1,0l.9-.07h.48c0-.13.11.3-.11-.3h0l-.06,0-.54.33a18.31,18.31,0,0,1-3,1.41c-6,2.21-15.3,2.09-15.26,2.14s-3.5.15-8.78,0-12.33-.46-19.43-.66-14.27-.13-19.66.82a21.8,21.8,0,0,0-8.9,3.14c-.12.09-.34.28-.38.32h0l-.19.61h0l0,0,0,.07.08.13a2.4,2.4,0,0,0,.17.24,2.57,2.57,0,0,0,.34.37,1,1,0,0,0,.66.28c.34,0,.29-.2.18-.28a1.75,1.75,0,0,1-.26-.47c0-.13-.09-.26-.13-.41l-.05-.22s0-.08,0-.1h0l-.2.62h0l.05,0a1.81,1.81,0,0,0,.32-.19m8.25,5.15h2.5l.26,1.21h1.94l-1.52-7h-2l-3.79,7H17.4l.67-1.21m2.23-1.39H18.79l1.1-2.22h0Zm8.21-2,.35-2.18a3.87,3.87,0,0,0-1.6-.35,4.44,4.44,0,0,0-2.84,1.13A4.36,4.36,0,0,0,23,44.4a3,3,0,0,0,.7,2.64,3.32,3.32,0,0,0,2.46,1,5.63,5.63,0,0,0,1.65-.32l.34-2.18a2.48,2.48,0,0,1-1.68.74,1.52,1.52,0,0,1-1.59-1.9A2.23,2.23,0,0,1,27,42.47a1.65,1.65,0,0,1,1.47.77m6.12,0L35,41.07a3.87,3.87,0,0,0-1.6-.35,4.44,4.44,0,0,0-2.84,1.13,4.36,4.36,0,0,0-1.43,2.56A3,3,0,0,0,29.8,47a3.32,3.32,0,0,0,2.46,1,5.63,5.63,0,0,0,1.65-.32l.35-2.18a2.48,2.48,0,0,1-1.68.74A1.52,1.52,0,0,1,31,44.41a2.23,2.23,0,0,1,2.17-1.94,1.65,1.65,0,0,1,1.47.77m6.2,4.64L39.08,45a2.29,2.29,0,0,0,1.84-2c.24-1.49-.71-2.15-2.09-2.15H36.12l-1.11,7h1.82l.43-2.69h0l1.29,2.69h2.26m-3.11-5.6h.18c.59,0,1.24.11,1.12.87s-.81.87-1.4.87h-.18Zm6.46.15h2.16l.24-1.54h-4l-1.11,7h4l.24-1.54H43.56l.19-1.2h2L46,43.61H44l.19-1.17m3.71-1.54-1.11,7h2.58a4.27,4.27,0,0,0,4.1-3.49,2.92,2.92,0,0,0-3-3.49H47.88m1.57,1.54h.43a1.55,1.55,0,0,1,1.68,2,2.21,2.21,0,0,1-2.32,2h-.41Zm6.29,5.45,1.11-7H55l-1.11,7h1.82m4.15,0,.86-5.45h1.5l.24-1.54H57.69l-.24,1.54h1.5l-.86,5.45H59.9m5-5.45h2.16l.24-1.54h-4l-1.11,7h4l.24-1.54H64.3l.19-1.2h2l.24-1.54h-2l.18-1.17m3.71-1.54-1.11,7H70.1a4.27,4.27,0,0,0,4.1-3.49,2.92,2.92,0,0,0-3-3.49H68.63m1.57,1.54h.43a1.54,1.54,0,0,1,1.68,2,2.21,2.21,0,0,1-2.32,2h-.41Zm12.38-6.11h0a1.34,1.34,0,1,0,1.32,1.34,1.33,1.33,0,0,0-1.32-1.34m0,.21a1.13,1.13,0,1,1-1.08,1.13,1.1,1.1,0,0,1,1.08-1.13Zm-.26,1.27h.17a.28.28,0,0,1,.32.26,1.1,1.1,0,0,0,.1.38h.25a1.22,1.22,0,0,1-.09-.37c0-.22-.12-.34-.25-.36h0a.37.37,0,0,0,.29-.36A.36.36,0,0,0,83,37a.78.78,0,0,0-.46-.11,2.66,2.66,0,0,0-.42,0v1.49h.24Zm0-.69h.17c.27,0,.36.13.36.26s-.17.26-.36.26h-.17Z"/></svg>