<svg id="Icons" xmlns="http://www.w3.org/2000/svg" viewBox="0 0 19.97 18.09"><title>apply-now</title><path d="M19.72,4.31,19,3a1.92,1.92,0,0,0-2.62-.73l-.9.51V2.06A2.07,2.07,0,0,0,13.41,0H2.06A2.07,2.07,0,0,0,0,2.06V16a2.07,2.07,0,0,0,2.06,2.06H13.41A2.07,2.07,0,0,0,15.48,16V12.69h-1.4V16a.66.66,0,0,1-.66.66H2.06A.66.66,0,0,1,1.4,16v-14a.66.66,0,0,1,.66-.66H13.41a.66.66,0,0,1,.66.66V3.61L6.14,8.11,3.39,12.72H8.77L19,6.93A1.93,1.93,0,0,0,19.72,4.31ZM6.63,10l.75,1.31H5.85Zm11.67-4.3L8.84,11.07,7.6,8.89l9.46-5.36a.52.52,0,0,1,.71.2L18.5,5A.52.52,0,0,1,18.31,5.71Z"/><rect x="5.66" y="3.32" width="4.15" height="1.4"/></svg>