<svg id="Icons" xmlns="http://www.w3.org/2000/svg" viewBox="0 0 14.7 14.83"><title>call-mobile</title><path d="M7.73,0h-6A1.69,1.69,0,0,0,0,1.69V13.14a1.69,1.69,0,0,0,1.69,1.69h6a1.69,1.69,0,0,0,1.69-1.69V1.69A1.69,1.69,0,0,0,7.73,0ZM1.13,2.73v-1a.55.55,0,0,1,.55-.55h6a.55.55,0,0,1,.55.55v1Zm0,9.36H8.28v1a.55.55,0,0,1-.55.55h-6a.55.55,0,0,1-.55-.55Zm0-8.23H8.28V11H1.14Z"/><path d="M13.1,3.55,13,3.46l-.8.8.09.09a4.33,4.33,0,0,1,0,6.13l-.09.09.8.8.09-.09a5.47,5.47,0,0,0,0-7.74Z"/><path d="M11.53,5.11,11.45,5l-.8.8.09.09a2.13,2.13,0,0,1,0,3L10.65,9l.8.8.09-.09a3.26,3.26,0,0,0,0-4.61Z"/></svg>