<svg id="Icons" xmlns="http://www.w3.org/2000/svg" viewBox="0 0 22.22 26"><title>document</title><rect x="5.41" y="6.17" width="6" height="1.89"/><rect x="5.41" y="11.62" width="11.41" height="1.89" fill="#050050" /><rect x="5.41" y="17.07" width="11.41" height="1.89" fill="#050050"/><path d="M22.21,7a.92.92,0,0,0,0-.22.93.93,0,0,0-.11-.18A.89.89,0,0,0,22,6.47L16.32.31h0a.94.94,0,0,0-.19-.14L16,.08l-.14,0a.94.94,0,0,0-.22,0H2.92A2.92,2.92,0,0,0,0,2.92V23.1A2.92,2.92,0,0,0,2.92,26h16.4a2.92,2.92,0,0,0,2.92-2.92v-16A.9.9,0,0,0,22.21,7ZM16.57,3.38l2.56,2.79H16.57Zm2.74,20.75H2.92a1,1,0,0,1-1-1V2.92a1,1,0,0,1,1-1H14.68V8.06h5.66v15A1,1,0,0,1,19.32,24.12Z" fill="#050050"/></svg>