<svg id="Icons" xmlns="http://www.w3.org/2000/svg" viewBox="0 0 18.04 18"><title>footer-yelp</title><path d="M1.92,11.91a6.92,6.92,0,0,1,.32-3,.8.8,0,0,1,1.11-.46l3.5,1.71a.8.8,0,0,1-.16,1.5l-3.78.94A.81.81,0,0,1,1.92,11.91Zm6.71,5.32a.8.8,0,0,1-.94.76A7,7,0,0,1,4.9,16.86a.8.8,0,0,1-.14-1.2l2.61-2.9a.8.8,0,0,1,1.4.57Zm.21-9.1a.8.8,0,0,1-1.5.4L3.68,2.18A.8.8,0,0,1,4,1.06,11.28,11.28,0,0,1,8,0a.8.8,0,0,1,.86.8Zm6.28,6a7,7,0,0,1-1.85,2.38.8.8,0,0,1-1.19-.19L10,13a.8.8,0,0,1,.93-1.19L14.65,13A.8.8,0,0,1,15.13,14.12Zm-.41-4.68L11,10.52a.8.8,0,0,1-.89-1.22l2.18-3.23a.8.8,0,0,1,1.2-.15,6.92,6.92,0,0,1,1.77,2.44A.81.81,0,0,1,14.71,9.44Z"/></svg>