<svg id="Icons" xmlns="http://www.w3.org/2000/svg" viewBox="0 0 18.04 18"><title>footer-instagram</title><path d="M18,5.3a6.61,6.61,0,0,0-.42-2.19,4.41,4.41,0,0,0-1-1.6,4.43,4.43,0,0,0-1.6-1A6.62,6.62,0,0,0,12.74,0C11.78,0,11.47,0,9,0S6.26,0,5.3,0A6.62,6.62,0,0,0,3.1.47a4.43,4.43,0,0,0-1.6,1,4.42,4.42,0,0,0-1,1.6A6.62,6.62,0,0,0,0,5.3C0,6.26,0,6.57,0,9s0,2.76.05,3.72a6.63,6.63,0,0,0,.42,2.19,4.43,4.43,0,0,0,1,1.6,4.43,4.43,0,0,0,1.6,1A6.64,6.64,0,0,0,5.3,18c1,0,1.27.05,3.72.05s2.76,0,3.72-.05a6.64,6.64,0,0,0,2.19-.42,4.62,4.62,0,0,0,2.64-2.64A6.62,6.62,0,0,0,18,12.74c0-1,.05-1.27.05-3.72S18,6.26,18,5.3ZM9,13.66A4.63,4.63,0,1,1,13.65,9,4.64,4.64,0,0,1,9,13.66Zm4.82-8.37A1.08,1.08,0,1,1,14.92,4.2,1.08,1.08,0,0,1,13.84,5.29Z"/><circle cx="9.02" cy="9.02" r="3.01"/></svg>