<svg id="Icons" xmlns="http://www.w3.org/2000/svg" viewBox="0 0 180 117.53"><title>footer-logo</title><polygon points="48 19.52 47.73 18.71 46.91 18.98 44.31 19.86 43.5 20.14 43.78 20.95 44.6 23.38 43.54 25.55 38.61 27.21 37 26.38 33.15 14.96 33.94 13.3 38.88 11.64 41.01 12.73 41.83 15.17 42.1 15.98 42.91 15.71 45.51 14.83 46.32 14.55 46.05 13.74 44.67 9.65 44.56 9.33 44.26 9.17 39.67 6.73 39.35 6.56 39 6.68 30.81 9.44 30.46 9.56 30.31 9.89 28.14 14.61 28 14.92 28.1 15.24 32.82 29.2 32.92 29.53 33.23 29.69 37.81 32.12 38.13 32.3 38.48 32.18 46.67 29.41 47.02 29.3 47.17 28.96 49.35 24.25 49.49 23.94 49.38 23.62 48 19.52"/><path d="M80.71,20.6l-.09-.85-.85.09L78.53,20,71.84,5.48l.27,0L73,5.37l-.09-.85-.28-2.73L72.51.93,71.66,1l-9.11.93L61.7,2l.09.85.28,2.73.09.85L63,6.38l.24,0L59.59,21.88l-1.2.12-.85.09.09.85.28,2.73.09.85.85-.09,7.23-.73.85-.09-.09-.85L66.55,22l-.09-.85-.85.09-1.09.11.62-2.61L72.46,18l1.13,2.43-1.05.11-.85.09.09.85.28,2.73.09.85L73,25l7.23-.73.85-.09L81,23.33Zm-14.5-6.42,1.52-6.41,2.77,6Z"/><polygon points="112.15 1.9 111.58 1.84 111.31 2.36 104.35 16 99.99 1.32 99.83 0.77 99.25 0.71 92.29 0.07 91.43 -0.01 91.36 0.85 91.11 3.58 91.03 4.43 91.88 4.51 93.42 4.65 92.04 19.67 90.5 19.53 89.65 19.45 89.57 20.3 89.32 23.04 89.24 23.89 90.09 23.97 98.01 24.69 98.87 24.77 98.94 23.92 99.2 21.19 99.27 20.34 98.42 20.26 96.89 20.12 97.84 9.71 101.52 21.73 101.69 22.28 102.26 22.33 105.26 22.61 105.83 22.66 106.1 22.15 111.9 11 110.95 21.41 109.41 21.27 108.56 21.19 108.48 22.04 108.23 24.77 108.15 25.63 109 25.7 116.92 26.43 117.78 26.51 117.86 25.66 118.11 22.92 118.19 22.07 117.33 21.99 115.8 21.85 117.17 6.83 118.71 6.97 119.56 7.05 119.64 6.2 119.89 3.47 119.97 2.61 119.12 2.54 112.15 1.9"/><path d="M152,17l-2-4.8-.14-.34-.34-.13L136.8,6.8,136,6.5l-.31.8-1,2.56-.31.8.8.31,1.44.56-5.43,14.07L129.77,25l-.8-.31-.31.8-1,2.56-.31.8.8.31,7.74,3,.8.31.31-.8,1-2.56.31-.8-.8-.31-1.76-.68,1.11-2.88,6.81,2.63.34.13.33-.16L149,24.83l.31-.15.12-.32,2.59-6.72.12-.32Zm-6.38,4.23-1.94.88-5.2-2,2.57-6.65,5.23,2,.82,1.94Z"/><polygon points="18.99 62.7 13.4 54.92 18.64 47.62 20.19 47.62 21.05 47.62 21.05 46.76 21.05 44.02 21.05 43.16 20.19 43.16 12.93 43.16 12.07 43.16 12.07 44.02 12.07 46.76 12.07 47.62 12.93 47.62 13 47.62 9.16 52.93 7.44 52.93 7.44 47.62 8.98 47.62 9.84 47.62 9.84 46.76 9.84 44.02 9.84 43.16 8.98 43.16 1.03 43.16 0.17 43.16 0.17 44.02 0.17 46.76 0.17 47.62 1.03 47.62 2.57 47.62 2.57 62.7 1.03 62.7 0.17 62.7 0.17 63.56 0.17 66.3 0.17 67.16 1.03 67.16 8.98 67.16 9.84 67.16 9.84 66.3 9.84 63.56 9.84 62.7 8.98 62.7 7.44 62.7 7.44 57.39 9.54 57.39 13.35 62.7 13.27 62.7 12.41 62.7 12.41 63.56 12.41 66.3 12.41 67.16 13.27 67.16 20.54 67.16 21.39 67.16 21.39 66.3 21.39 63.56 21.39 62.7 20.54 62.7 18.99 62.7"/><polygon points="25.58 43.16 24.72 43.16 24.72 44.02 24.72 46.76 24.72 47.62 25.58 47.62 27.46 47.62 27.46 62.7 25.58 62.7 24.72 62.7 24.72 63.56 24.72 66.3 24.72 67.16 25.58 67.16 34.22 67.16 35.08 67.16 35.08 66.3 35.08 63.56 35.08 62.7 34.22 62.7 32.33 62.7 32.33 47.62 34.22 47.62 35.08 47.62 35.08 46.76 35.08 44.02 35.08 43.16 34.22 43.16 25.58 43.16"/><polygon points="54 43.16 53.14 43.16 53.14 44.02 53.14 46.76 53.14 47.62 54 47.62 55.54 47.62 55.54 59.49 47.15 43.62 46.91 43.16 46.39 43.16 39.26 43.16 38.4 43.16 38.4 44.02 38.4 46.76 38.4 47.62 39.26 47.62 40.8 47.62 40.8 62.7 39.26 62.7 38.4 62.7 38.4 63.56 38.4 66.3 38.4 67.16 39.26 67.16 47.21 67.16 48.07 67.16 48.07 66.3 48.07 63.56 48.07 62.7 47.21 62.7 45.67 62.7 45.67 50.86 54.07 66.7 54.31 67.16 54.82 67.16 59.55 67.16 60.41 67.16 60.41 66.3 60.41 47.62 61.95 47.62 62.81 47.62 62.81 46.76 62.81 44.02 62.81 43.16 61.95 43.16 54 43.16"/><polygon points="81.74 43.16 80.88 43.16 80.88 44.02 80.88 46.76 80.88 47.62 81.74 47.62 83.28 47.62 83.28 59.49 74.88 43.62 74.64 43.16 74.13 43.16 67 43.16 66.14 43.16 66.14 44.02 66.14 46.76 66.14 47.62 67 47.62 68.54 47.62 68.54 62.7 67 62.7 66.14 62.7 66.14 63.56 66.14 66.3 66.14 67.16 67 67.16 74.95 67.16 75.81 67.16 75.81 66.3 75.81 63.56 75.81 62.7 74.95 62.7 73.41 62.7 73.41 50.86 81.8 66.7 82.04 67.16 82.56 67.16 87.29 67.16 88.15 67.16 88.15 66.3 88.15 47.62 89.69 47.62 90.55 47.62 90.55 46.76 90.55 44.02 90.55 43.16 89.69 43.16 81.74 43.16"/><polygon points="94.73 43.16 93.88 43.16 93.88 44.02 93.88 46.76 93.88 47.62 94.73 47.62 96.28 47.62 96.28 62.7 94.73 62.7 93.88 62.7 93.88 63.56 93.88 66.3 93.88 67.16 94.73 67.16 111.05 67.16 111.91 67.16 111.91 66.3 111.91 59.58 111.91 58.73 111.05 58.73 108.31 58.73 107.45 58.73 107.45 59.58 107.45 62.7 101.14 62.7 101.14 57.39 108.31 57.39 109.16 57.39 109.16 56.53 109.16 53.79 109.16 52.93 108.31 52.93 101.14 52.93 101.14 47.62 107.45 47.62 107.45 50.74 107.45 51.59 108.31 51.59 111.05 51.59 111.91 51.59 111.91 50.74 111.91 44.02 111.91 43.16 111.05 43.16 94.73 43.16"/><path d="M133.58,62.7,131,58.4l3-3.16.24-.25V47.45L134,47.2l-3.56-3.77-.25-.27H115.24v4.46h2.4V62.7h-2.4v4.46h9.32V62.7H122.5V59.27h3.7l2.06,3.43H128v4.46h7.81V62.7h-2.19ZM122.5,47.82h5.6l1.46,1.51V53.1l-1.49,1.52H122.5Z"/><polygon points="139.96 43.16 139.1 43.16 139.1 44.02 139.1 46.76 139.1 47.62 139.96 47.62 141.5 47.62 141.5 62.7 139.96 62.7 139.1 62.7 139.1 63.56 139.1 66.3 139.1 67.16 139.96 67.16 156.27 67.16 157.13 67.16 157.13 66.3 157.13 59.58 157.13 58.73 156.27 58.73 153.53 58.73 152.67 58.73 152.67 59.58 152.67 62.7 146.37 62.7 146.37 57.39 153.53 57.39 154.39 57.39 154.39 56.53 154.39 53.79 154.39 52.93 153.53 52.93 146.37 52.93 146.37 47.62 152.67 47.62 152.67 50.74 152.67 51.59 153.53 51.59 156.27 51.59 157.13 51.59 157.13 50.74 157.13 44.02 157.13 43.16 156.27 43.16 139.96 43.16"/><polygon points="179.14 43.16 161.31 43.16 160.46 43.16 160.46 44.02 160.46 50.74 160.46 51.59 161.31 51.59 163.92 51.59 164.78 51.59 164.78 50.74 164.78 47.62 167.79 47.62 167.79 62.7 165.22 62.7 164.37 62.7 164.37 63.56 164.37 66.3 164.37 67.16 165.22 67.16 175.23 67.16 176.09 67.16 176.09 66.3 176.09 63.56 176.09 62.7 175.23 62.7 172.66 62.7 172.66 47.62 175.68 47.62 175.68 50.74 175.68 51.59 176.53 51.59 179.14 51.59 180 51.59 180 50.74 180 44.02 180 43.16 179.14 43.16"/><path d="M70.76,115.19H64.45v.37l6.31,1.8v-2.17Z"/><path d="M115.72,115.55H64.45V104.08h51.28Zm-50.91-.37h50.54V104.45H64.81Z"/><path d="M68.51,111.1l1.29-.25q0,.19,0,.34a2.65,2.65,0,0,0,0,.32,1.14,1.14,0,0,0,.08.28.5.5,0,0,0,.14.18.33.33,0,0,0,.22.08q.38,0,.38-.48a1.8,1.8,0,0,0-.74-1.31l-.39-.33-.3-.26a3.55,3.55,0,0,1-.26-.28,1.83,1.83,0,0,1-.24-.34,2,2,0,0,1-.21-.89,1.56,1.56,0,0,1,.48-1.21,1.83,1.83,0,0,1,1.29-.44,1.53,1.53,0,0,1,1.13.47,1.57,1.57,0,0,1,.47,1.14v.15l-1.31.18s0-.07,0-.12,0-.1,0-.14a1.64,1.64,0,0,0,0-.24,1.3,1.3,0,0,0-.06-.23.4.4,0,0,0-.12-.18.31.31,0,0,0-.2-.07.35.35,0,0,0-.31.16.7.7,0,0,0-.1.39,1.07,1.07,0,0,0,.06.37,1,1,0,0,0,.18.32,2.57,2.57,0,0,0,.23.25l.28.24.25.21a5.43,5.43,0,0,1,.45.44,3.46,3.46,0,0,1,.35.47,2.08,2.08,0,0,1,.25.56,2.52,2.52,0,0,1,.08.66,1.38,1.38,0,0,1-.47,1.08,1.66,1.66,0,0,1-1.14.42,1.79,1.79,0,0,1-.77-.16,1.44,1.44,0,0,1-.55-.44,2.12,2.12,0,0,1-.32-.61A2.64,2.64,0,0,1,68.51,111.1Z"/><path d="M73.61,112.9v-6.27h1.27v6.27Z"/><path d="M76.84,112.9v-6.28h.91l1.38,3.28v-3.28h1.05v6.28H79.3l-1.37-3.48v3.48Z"/><path d="M82.06,110.8v-2.08q0-2.22,1.82-2.22a2.1,2.1,0,0,1,.68.1,1.46,1.46,0,0,1,.5.28,1.44,1.44,0,0,1,.33.45,2.18,2.18,0,0,1,.19.58,3.74,3.74,0,0,1,.06.68v.54H84.39v-.58c0-.11,0-.21,0-.29a2.22,2.22,0,0,0,0-.28,1,1,0,0,0-.08-.26.46.46,0,0,0-.15-.17.4.4,0,0,0-.24-.07q-.55,0-.55.93v2.71q0,.92.55.92a.41.41,0,0,0,.28-.09.52.52,0,0,0,.16-.27,2,2,0,0,0,.07-.34,3.67,3.67,0,0,0,0-.38v-.64h1.24v.53a4.43,4.43,0,0,1-.06.66,2.53,2.53,0,0,1-.18.59,1.61,1.61,0,0,1-.32.48,1.42,1.42,0,0,1-.5.32,1.92,1.92,0,0,1-.7.12,2.09,2.09,0,0,1-.72-.12,1.48,1.48,0,0,1-.52-.31,1.6,1.6,0,0,1-.34-.48,2.39,2.39,0,0,1-.19-.6A4.14,4.14,0,0,1,82.06,110.8Z"/><path d="M87.45,112.9v-6.27h2.62v.87H88.72v1.71h1v.89h-1V112h1.35v.87Z"/><path d="M94.79,112.9v-4.66h-.63v-.92l.26-.14.25-.13a.91.91,0,0,0,.2-.16,1,1,0,0,0,.19-.27H96v6.28Z"/><path d="M97.92,111.19v-.1h1.19c0,.07,0,.13,0,.18s0,.11,0,.19a.7.7,0,0,0,0,.19,1,1,0,0,0,.07.15.29.29,0,0,0,.12.12.39.39,0,0,0,.18,0,.31.31,0,0,0,.18-.06.45.45,0,0,0,.13-.13.77.77,0,0,0,.08-.21c0-.09,0-.16.05-.23a2.55,2.55,0,0,0,0-.26c0-.1,0-.18,0-.23v-.43a1.41,1.41,0,0,1-.7.17q-1.47,0-1.47-1.91a3.55,3.55,0,0,1,.06-.64,2.51,2.51,0,0,1,.18-.59,1.85,1.85,0,0,1,.32-.49,1.39,1.39,0,0,1,.48-.33,1.65,1.65,0,0,1,.65-.12,1.58,1.58,0,0,1,.64.13,1.39,1.39,0,0,1,.48.34,2,2,0,0,1,.32.49,2.5,2.5,0,0,1,.19.59,3.3,3.3,0,0,1,.06.63v2a5,5,0,0,1,0,.68,3,3,0,0,1-.16.64,1.9,1.9,0,0,1-.3.55,1.37,1.37,0,0,1-.49.37,1.6,1.6,0,0,1-.69.14,1.74,1.74,0,0,1-.71-.14,1.27,1.27,0,0,1-.5-.38,1.79,1.79,0,0,1-.3-.57A2.55,2.55,0,0,1,97.92,111.19Zm2.09-1.9v-.83a2.14,2.14,0,0,0,0-.27,2.11,2.11,0,0,0-.06-.29.53.53,0,0,0-.15-.25.36.36,0,0,0-.25-.09.35.35,0,0,0-.17,0,.42.42,0,0,0-.12.1.58.58,0,0,0-.08.17,1.71,1.71,0,0,0-.05.18,1.81,1.81,0,0,0,0,.21c0,.08,0,.14,0,.18s0,.09,0,.16v.16s0,.09,0,.17a1.22,1.22,0,0,0,0,.19,1.33,1.33,0,0,0,.05.16.38.38,0,0,0,.21.24.38.38,0,0,0,.17,0,.5.5,0,0,0,.27-.08A.68.68,0,0,0,100,109.29Z"/><path d="M103.07,110.9h1.21c0,.11,0,.21,0,.29s0,.16,0,.25a1.06,1.06,0,0,0,0,.22.77.77,0,0,0,.07.17.28.28,0,0,0,.11.12.33.33,0,0,0,.16,0,.45.45,0,0,0,.21,0,.39.39,0,0,0,.15-.12.87.87,0,0,0,.1-.18,1,1,0,0,0,.06-.22c0-.08,0-.16,0-.24a1.76,1.76,0,0,0,0-.23c0-.07,0-.14,0-.21v-.09c0-.07,0-.13,0-.18s0-.12,0-.2a.91.91,0,0,0,0-.2.88.88,0,0,0-.08-.17.34.34,0,0,0-.13-.12.4.4,0,0,0-.49.1,1.16,1.16,0,0,0-.21.34h-1v-3.6h3v1.19h-1.86v1.13a1.19,1.19,0,0,1,.61-.21,1.54,1.54,0,0,1,.59.11,1.14,1.14,0,0,1,.42.29,1.48,1.48,0,0,1,.26.43,2.25,2.25,0,0,1,.14.52,4.05,4.05,0,0,1,0,.58,5.63,5.63,0,0,1,0,.58,4.25,4.25,0,0,1-.09.54,1.84,1.84,0,0,1-.19.49,1.72,1.72,0,0,1-.3.39,1.2,1.2,0,0,1-.45.26,1.87,1.87,0,0,1-.61.09,1.9,1.9,0,0,1-.68-.11,1.27,1.27,0,0,1-.48-.3,1.44,1.44,0,0,1-.3-.46,2.44,2.44,0,0,1-.16-.57A4.48,4.48,0,0,1,103.07,110.9Z"/><path d="M108.06,111.37v-1l1.53-3.77H111v3.78h.59v1H111v1.52h-1.2v-1.52Zm1.07-1h.68v-1.88Z"/><path d="M29.53,88.69l2.17-.42q0,.32,0,.57a4.44,4.44,0,0,0,.06.54,1.93,1.93,0,0,0,.14.48.86.86,0,0,0,.24.31.56.56,0,0,0,.37.13q.63,0,.64-.81a3,3,0,0,0-1.25-2.21l-.66-.56-.51-.44a5.92,5.92,0,0,1-.44-.48,3.06,3.06,0,0,1-.4-.58,3.26,3.26,0,0,1-.25-.67,3.29,3.29,0,0,1-.1-.83,2.63,2.63,0,0,1,.82-2,3.09,3.09,0,0,1,2.17-.75,2.58,2.58,0,0,1,1.91.8,2.65,2.65,0,0,1,.79,1.93v.25L33,84.2s0-.11,0-.2,0-.17,0-.23a2.77,2.77,0,0,0,0-.41,2.23,2.23,0,0,0-.1-.39.67.67,0,0,0-.21-.31.52.52,0,0,0-.34-.11.59.59,0,0,0-.53.28,1.19,1.19,0,0,0-.18.65,1.82,1.82,0,0,0,.1.62,1.75,1.75,0,0,0,.31.54,4.74,4.74,0,0,0,.38.41l.47.4.42.35a9.08,9.08,0,0,1,.76.75,5.83,5.83,0,0,1,.59.79,3.52,3.52,0,0,1,.41,1,4.25,4.25,0,0,1,.14,1.11,2.33,2.33,0,0,1-.79,1.82,2.79,2.79,0,0,1-1.93.71,3,3,0,0,1-1.31-.27,2.43,2.43,0,0,1-.92-.73,3.57,3.57,0,0,1-.54-1A4.42,4.42,0,0,1,29.53,88.69Z"/><path d="M37.85,87.78V81.13H40v6.59q0,.56,0,.82c0,.17,0,.38,0,.62a1.89,1.89,0,0,0,.08.51,2.14,2.14,0,0,0,.16.32.48.48,0,0,0,.27.22,1.53,1.53,0,0,0,.8,0A.49.49,0,0,0,41.6,90a2.1,2.1,0,0,0,.16-.31,1.84,1.84,0,0,0,.08-.51q0-.36,0-.61t0-.81V81.13H44v6.65c0,.34,0,.64,0,.92a7.84,7.84,0,0,1-.11.85,3.89,3.89,0,0,1-.22.78,2.91,2.91,0,0,1-.38.65,2.08,2.08,0,0,1-.56.51,2.77,2.77,0,0,1-.77.32,4.46,4.46,0,0,1-2,0,2.74,2.74,0,0,1-.77-.32,2.1,2.1,0,0,1-.55-.51,2.91,2.91,0,0,1-.38-.65,4,4,0,0,1-.23-.78,7,7,0,0,1-.11-.85Q37.84,88.29,37.85,87.78Z"/><path d="M47,91.72V81.13H49.6l1.13,7.06,1.22-7.06h2.48V91.72H52.85l0-7.44q-.18,1.15-.62,3.72t-.62,3.72H50l-1.3-7.49,0,7.49Z"/><path d="M57.49,91.72V81.13h2.56l1.13,7.06,1.22-7.06h2.48V91.72H63.3l0-7.44q-.18,1.15-.62,3.72T62,91.72h-1.6l-1.3-7.49,0,7.49Z"/><path d="M67.94,91.72V81.13h4.42V82.6H70.08v2.88h1.61V87H70.08v3.26h2.28v1.47Z"/><path d="M74.92,91.72V81.13h2.33a5.82,5.82,0,0,1,1.4.15,3.11,3.11,0,0,1,1.06.47,2,2,0,0,1,.69.86,3.27,3.27,0,0,1,.24,1.3q0,.33,0,.59a3.86,3.86,0,0,1-.11.59,2.33,2.33,0,0,1-.23.59,2.07,2.07,0,0,1-.42.5,2.45,2.45,0,0,1-.65.41q1,3,1.66,5.12H78.63l-1.21-4.87h-.35v4.87Zm2.14-6.18h.61a.6.6,0,0,0,.42-.16.94.94,0,0,0,.26-.42,3.18,3.18,0,0,0,.11-.46,2.66,2.66,0,0,0,0-.4,2.85,2.85,0,0,0,0-.39,3.24,3.24,0,0,0-.09-.44.89.89,0,0,0-.22-.4.52.52,0,0,0-.38-.16h-.71Z"/><path d="M87.54,91.72V81.13h2.21a6.64,6.64,0,0,1,1.74.19,2.19,2.19,0,0,1,1.08.63,2.41,2.41,0,0,1,.54,1,6.73,6.73,0,0,1,.15,1.56V88q0,.56,0,1a5.52,5.52,0,0,1-.13.82,2.43,2.43,0,0,1-.26.68,2.32,2.32,0,0,1-.43.52,2,2,0,0,1-.64.38,4.32,4.32,0,0,1-.88.22,7.74,7.74,0,0,1-1.16.08Zm2.22-1.5h.48l.35,0a.66.66,0,0,0,.26-.1.62.62,0,0,0,.15-.18.71.71,0,0,0,.09-.28,3.31,3.31,0,0,0,0-.4v-5.7a.72.72,0,0,0-.31-.69,2.37,2.37,0,0,0-1-.18Z"/><path d="M95.43,91.72l2.29-10.58h1.89l2.28,10.58H99.78l-.43-2.26H98l-.41,2.26Zm2.68-3.58h1.09l-.54-3.93Z"/><path d="M105.48,91.72v-3.5l-2-7.09h2l1,4.65.55-2.33.54-2.33h2l-2,7.09v3.5Z"/><path d="M116,88.18v-3.5q0-3.75,3.07-3.75a3.53,3.53,0,0,1,1.15.17,2.33,2.33,0,0,1,1.41,1.23,3.72,3.72,0,0,1,.32,1,6.34,6.34,0,0,1,.1,1.15v.91H120v-1q0-.29,0-.5a3.93,3.93,0,0,0-.06-.48,1.64,1.64,0,0,0-.14-.43.78.78,0,0,0-.25-.29.68.68,0,0,0-.4-.12q-.93,0-.93,1.56v4.57q0,1.56.93,1.56a.69.69,0,0,0,.46-.16.88.88,0,0,0,.27-.45,3.52,3.52,0,0,0,.11-.57,6.3,6.3,0,0,0,0-.64V87.37h2.09v.89a7.43,7.43,0,0,1-.1,1.12,4.23,4.23,0,0,1-.3,1,2.69,2.69,0,0,1-.54.81,2.38,2.38,0,0,1-.84.53,3.23,3.23,0,0,1-1.19.2,3.5,3.5,0,0,1-1.22-.2,2.47,2.47,0,0,1-.88-.53,2.67,2.67,0,0,1-.57-.82,4,4,0,0,1-.31-1A7,7,0,0,1,116,88.18Z"/><path d="M124.32,91.72l2.29-10.58h1.89l2.28,10.58h-2.11l-.44-2.26h-1.38l-.41,2.26ZM127,88.14h1.09l-.53-3.93Z"/><path d="M133.27,91.72V81.13h2.56L137,88.19l1.22-7.06h2.48V91.72h-1.58l0-7.44q-.18,1.15-.62,3.72t-.62,3.72h-1.6l-1.3-7.49,0,7.49Z"/><path d="M143.72,91.72V81.13h2.56a2.45,2.45,0,0,1,2,.77,3.45,3.45,0,0,1,.63,2.23,5,5,0,0,1-.14,1.25,2.64,2.64,0,0,1-.39.87,1.85,1.85,0,0,1-.64.55,2.88,2.88,0,0,1-.84.29,6,6,0,0,1-1,.09v4.53Zm2.16-6,.3,0,.23,0a.41.41,0,0,0,.18-.1l.13-.12a.43.43,0,0,0,.08-.17l.05-.2a1.54,1.54,0,0,0,0-.25c0-.11,0-.2,0-.27v-.41c0-.15,0-.27,0-.35s0-.18,0-.3a1,1,0,0,0-.06-.27,1.46,1.46,0,0,0-.11-.21.45.45,0,0,0-.18-.17,1.36,1.36,0,0,0-.27-.09,1.53,1.53,0,0,0-.37,0Z"/><rect x="23.53" y="77.99" width="130.56" height="0.82"/><rect x="23.53" y="94.14" width="130.56" height="0.82"/><polygon points="70.58 115.55 70.58 117.17 58.43 117.17 62.81 111.39 58.47 106.43 64.59 106.43 64.59 106.07 57.66 106.07 62.34 111.41 57.69 117.53 70.94 117.53 70.94 115.55 70.58 115.55"/><path d="M109.41,115.55v1.8l6.31-1.8v-.37h-6.31Z"/><polygon points="109.59 115.55 109.59 117.17 121.74 117.17 117.36 111.39 121.7 106.43 115.58 106.43 115.58 106.07 122.51 106.07 117.84 111.41 122.48 117.53 109.23 117.53 109.23 115.55 109.59 115.55"/></svg>