<svg id="Icons" xmlns="http://www.w3.org/2000/svg" viewBox="0 0 207.35 90.49"><defs><style>.cls-1{fill:#10069f;}.cls-2{fill:#ff671f;}.cls-3{fill:#fff;}</style></defs><title>full-logo</title><path class="cls-1" d="M131.22,28l-.07-.62-.62.06-1,.1L124.4,16.37l.25,0,.62-.06-.06-.62L125,13.56l-.07-.62-.62.06-7,.71-.62.06.06.62.21,2.09.06.62.62-.06.22,0-2.82,12-.94.1-.62.06.06.62.21,2.09.06.62.62-.06,5.55-.56.62-.06-.06-.62-.21-2.09-.06-.62-.62.06-.88.09.49-2.07,5.65-.57.89,1.93L125,28l-.62.06.06.62.21,2.09.06.62.62-.06,5.54-.56.62-.06-.06-.62ZM120.09,23.1l1.19-5,2.18,4.7Z"/><polygon class="cls-1" points="155.36 13.68 154.94 13.64 154.74 14.02 149.37 24.55 146.01 13.21 145.89 12.81 145.47 12.77 140.12 12.28 139.5 12.22 139.44 12.85 139.25 14.94 139.19 15.56 139.82 15.62 141.03 15.73 139.96 27.31 138.76 27.2 138.13 27.14 138.07 27.77 137.88 29.86 137.82 30.48 138.45 30.54 144.52 31.1 145.15 31.16 145.2 30.53 145.4 28.44 145.45 27.81 144.83 27.76 143.62 27.65 144.37 19.48 147.24 28.85 147.36 29.25 147.78 29.29 150.08 29.5 150.5 29.54 150.69 29.16 155.22 20.47 154.47 28.64 153.26 28.53 152.63 28.47 152.58 29.1 152.38 31.19 152.33 31.82 152.95 31.87 159.02 32.43 159.65 32.49 159.7 31.86 159.89 29.77 159.95 29.15 159.33 29.09 158.12 28.98 159.18 17.4 160.39 17.51 161.01 17.57 161.07 16.94 161.26 14.85 161.32 14.22 160.7 14.17 155.36 13.68"/><path class="cls-1" d="M185.93,25.25l-1.51-3.68-.1-.25-.25-.1-9.81-3.78-.58-.22-.23.58-.76,2-.22.58.58.22,1.13.44L170,31.86l-1.13-.44-.58-.23-.23.58-.75,2-.23.58.58.23,5.93,2.29.59.23.22-.58.76-2,.23-.59-.58-.22-1.38-.53.87-2.27,5.25,2,.25.1.24-.11,3.59-1.71.23-.11.09-.23,2-5.15.09-.23Zm-10.37,2.38,2-5.16,4,1.56.64,1.51-1.14,3-1.51.68Z"/><polygon class="cls-1" points="105.14 34.72 105.39 34.63 105.5 34.39 107.17 30.77 107.27 30.55 107.19 30.31 106.14 27.17 105.94 26.58 105.34 26.78 103.35 27.45 102.76 27.65 102.96 28.25 103.59 30.12 102.77 31.81 98.96 33.1 97.71 32.45 94.74 23.66 95.36 22.37 99.17 21.08 100.83 21.94 101.46 23.81 101.66 24.41 102.25 24.21 104.25 23.53 104.84 23.33 104.64 22.74 103.58 19.6 103.5 19.37 103.28 19.25 99.77 17.39 99.53 17.26 99.27 17.34 93 19.46 92.74 19.55 92.63 19.79 90.96 23.41 90.86 23.63 90.94 23.87 94.55 34.58 94.63 34.81 94.85 34.93 98.37 36.8 98.61 36.92 98.86 36.84 105.14 34.72"/><polygon class="cls-1" points="83.9 60.31 79.59 54.31 83.64 48.68 84.84 48.68 85.47 48.68 85.47 48.05 85.47 45.95 85.47 45.32 84.84 45.32 79.27 45.32 78.64 45.32 78.64 45.95 78.64 48.05 78.64 48.68 79.27 48.68 79.39 48.68 76.4 52.81 75.03 52.81 75.03 48.68 76.25 48.68 76.87 48.68 76.87 48.05 76.87 45.95 76.87 45.32 76.25 45.32 70.15 45.32 69.52 45.32 69.52 45.95 69.52 48.05 69.52 48.68 70.15 48.68 71.36 48.68 71.36 60.31 70.15 60.31 69.52 60.31 69.52 60.93 69.52 63.03 69.52 63.66 70.15 63.66 76.25 63.66 76.87 63.66 76.87 63.03 76.87 60.93 76.87 60.31 76.25 60.31 75.03 60.31 75.03 56.17 76.69 56.17 79.66 60.31 79.53 60.31 78.91 60.31 78.91 60.93 78.91 63.03 78.91 63.66 79.53 63.66 85.1 63.66 85.73 63.66 85.73 63.03 85.73 60.93 85.73 60.31 85.1 60.31 83.9 60.31"/><polygon class="cls-1" points="88.97 45.32 88.35 45.32 88.35 45.95 88.35 48.05 88.35 48.68 88.97 48.68 90.45 48.68 90.45 60.31 88.97 60.31 88.35 60.31 88.35 60.93 88.35 63.03 88.35 63.66 88.97 63.66 95.6 63.66 96.22 63.66 96.22 63.03 96.22 60.93 96.22 60.31 95.6 60.31 94.12 60.31 94.12 48.68 95.6 48.68 96.22 48.68 96.22 48.05 96.22 45.95 96.22 45.32 95.6 45.32 88.97 45.32"/><polygon class="cls-1" points="116.86 45.32 110.77 45.32 110.14 45.32 110.14 45.95 110.14 48.05 110.14 48.68 110.77 48.68 111.98 48.68 111.98 57.94 105.49 45.66 105.31 45.32 104.93 45.32 99.46 45.32 98.84 45.32 98.84 45.95 98.84 48.05 98.84 48.68 99.46 48.68 100.68 48.68 100.68 60.31 99.46 60.31 98.84 60.31 98.84 60.93 98.84 63.03 98.84 63.66 99.46 63.66 105.56 63.66 106.19 63.66 106.19 63.03 106.19 60.93 106.19 60.31 105.56 60.31 104.35 60.31 104.35 51.07 110.84 63.33 111.02 63.66 111.4 63.66 115.03 63.66 115.65 63.66 115.65 63.03 115.65 48.68 116.86 48.68 117.49 48.68 117.49 48.05 117.49 45.95 117.49 45.32 116.86 45.32"/><polygon class="cls-1" points="132.04 45.32 131.41 45.32 131.41 45.95 131.41 48.05 131.41 48.68 132.04 48.68 133.25 48.68 133.25 57.94 126.75 45.66 126.58 45.32 126.2 45.32 120.73 45.32 120.11 45.32 120.11 45.95 120.11 48.05 120.11 48.68 120.73 48.68 121.95 48.68 121.95 60.31 120.73 60.31 120.11 60.31 120.11 60.93 120.11 63.03 120.11 63.66 120.73 63.66 126.83 63.66 127.46 63.66 127.46 63.03 127.46 60.93 127.46 60.31 126.83 60.31 125.62 60.31 125.62 51.07 132.12 63.33 132.29 63.66 132.67 63.66 136.29 63.66 136.92 63.66 136.92 63.03 136.92 48.68 138.13 48.68 138.76 48.68 138.76 48.05 138.76 45.95 138.76 45.32 138.13 45.32 132.04 45.32"/><polygon class="cls-1" points="142 45.32 141.38 45.32 141.38 45.95 141.38 48.05 141.38 48.68 142 48.68 143.22 48.68 143.22 60.31 142 60.31 141.38 60.31 141.38 60.93 141.38 63.03 141.38 63.66 142 63.66 154.51 63.66 155.14 63.66 155.14 63.03 155.14 57.88 155.14 57.26 154.51 57.26 152.41 57.26 151.78 57.26 151.78 57.88 151.78 60.31 146.89 60.31 146.89 56.17 152.41 56.17 153.04 56.17 153.04 55.54 153.04 53.44 153.04 52.81 152.41 52.81 146.89 52.81 146.89 48.68 151.78 48.68 151.78 51.1 151.78 51.73 152.41 51.73 154.51 51.73 155.14 51.73 155.14 51.1 155.14 45.95 155.14 45.32 154.51 45.32 142 45.32"/><path class="cls-1" d="M172.81,60.31h-1l-2-3.34,2.32-2.44.17-.18V48.59l-.17-.18-2.73-2.89-.19-.2H157.76v3.35h1.84V60.31h-1.84v3.35h7.09V60.31h-1.58V57.62h2.88l1.62,2.69h-.26v3.35h5.93V60.31Zm-9.55-11.47h4.34L168.74,50v2.91l-1.16,1.18h-4.32Z"/><polygon class="cls-1" points="189.19 45.32 176.68 45.32 176.05 45.32 176.05 45.95 176.05 48.05 176.05 48.68 176.68 48.68 177.9 48.68 177.9 60.31 176.68 60.31 176.05 60.31 176.05 60.93 176.05 63.03 176.05 63.66 176.68 63.66 189.19 63.66 189.82 63.66 189.82 63.03 189.82 57.88 189.82 57.26 189.19 57.26 187.09 57.26 186.46 57.26 186.46 57.88 186.46 60.31 181.57 60.31 181.57 56.17 187.09 56.17 187.72 56.17 187.72 55.54 187.72 53.44 187.72 52.81 187.09 52.81 181.57 52.81 181.57 48.68 186.46 48.68 186.46 51.1 186.46 51.73 187.09 51.73 189.19 51.73 189.82 51.73 189.82 51.1 189.82 45.95 189.82 45.32 189.19 45.32"/><polygon class="cls-1" points="206.73 45.32 193.06 45.32 192.43 45.32 192.43 45.95 192.43 51.1 192.43 51.73 193.06 51.73 195.06 51.73 195.69 51.73 195.69 51.1 195.69 48.68 198.06 48.68 198.06 60.31 196.06 60.31 195.43 60.31 195.43 60.93 195.43 63.03 195.43 63.66 196.06 63.66 203.73 63.66 204.36 63.66 204.36 63.03 204.36 60.93 204.36 60.31 203.73 60.31 201.73 60.31 201.73 48.68 204.1 48.68 204.1 51.1 204.1 51.73 204.73 51.73 206.73 51.73 207.35 51.73 207.35 51.1 207.35 45.95 207.35 45.32 206.73 45.32"/><path class="cls-2" d="M35,52.21c-.56.37,3.56,10.15,3.75,11.32.62,3.75,1.31,6.13,1.69,9.85.19,1.86.12,3.75.3,5.61.09.9.49,6.27,2.43,4.91.52-.37.44-1.31.46-1.87.13-2.42.47-6,.47-8.47,0-3,.79-6,1.31-8.9a24.5,24.5,0,0,1,1-4.39c.38-1,.22-2,.56-3"/><path class="cls-1" d="M34.87,52.28c-.91,2.78,2.88,8.29,3.62,11a63.71,63.71,0,0,1,1.88,12c.11,1.6-.35,6.83,1.13,8.19,1.63,1.5,2,0,2.25-1.6.7-3.94.25-8.08.79-12,.59-4.3,1.83-8.47,2.6-12.74,0-.18-.31,0-.34.17-1.11,6.17-2.7,12-3,18.35,0,.78.15,8.62-2.33,6.92-.82-.57-.71-4.75-.76-5.59A61.15,61.15,0,0,0,38.4,62c-.75-2.37-4-7.33-3.33-9.83,0-.08-.18.07-.2.13Z"/><path class="cls-2" d="M47.44,56.87C49.13,62.49,51.1,70.09,51.1,76c0,1.87.09,5.25.85,7,.37,1,1.5,2.34,2.72,1.41.94-.66.56-3.09.56-4.12.19-4.22.13-5.55.56-9.75.19-1.81.44-3.75.66-5.72.16-1.41,1.56-10.78,2-12.19"/><path class="cls-1" d="M47.31,57c2.18,7.66,3,14.84,3.76,22.7.19,1.81,1.43,7.26,4,4.37,1.16-1.31.4-5.27.47-6.86.15-3.84.52-7.64,1-11.45a131,131,0,0,1,2.12-13.16c0-.15-.26.05-.28.13-2.32,7.13-2.79,16-3.12,23.41,0,1.1.64,9.22-2.52,7.81-2-.92-1.38-7.75-1.47-9.51-.31-6-1.91-11.92-3.66-17.63,0-.09-.28.11-.26.19Z"/><path class="cls-1" d="M40.59,82.28c.66-1.5-3.47-4.13-1.69-5.16.85-.56,5.34-.66,5.91.47s-1.69,2.91-1.6,4.13c.19.19.19,0,.28,0"/><path class="cls-1" d="M40.68,82.24c.46-.86-.54-1.93-1-2.56-.33-.45-1-1.13-1-1.71-.08-1,1.11-1,1.83-1.05,1-.08,3.49-.3,4.12.71s-1.58,2.91-1.53,4.2a.05.05,0,0,0,0,0c.2.1.2.08.39,0s.26-.35,0-.23.28-1.2.41-1.43c.28-.47.6-.91.84-1.4s.45-1,.09-1.48c-.85-1.07-3.62-.8-4.76-.63-.79.12-1.92.44-1.77,1.46.23,1.61,2.4,2.5,2.18,4.25,0,0,.17-.1.18-.12Z"/><path class="cls-3" d="M39.78,2.89A1.37,1.37,0,0,1,42.16,2"/><path class="cls-1" d="M39.89,2.8A1.21,1.21,0,0,1,42,2.14c.08.08.35-.17.27-.25A1.56,1.56,0,0,0,39.67,3s.21-.09.22-.17Z"/><path class="cls-1" d="M32.48,19.5c-1.55-.42-1.08-3.3-.77-4.74A19.13,19.13,0,0,1,34.4,8.51c1.5-2.5,4-5.38,6.88-6.38a9.66,9.66,0,0,1,5.94.19c.62.19,3.25,1.75,3.37,1.69"/><path class="cls-1" d="M32.59,19.4C28.32,16.81,35.33,6.52,37.8,4.46a9.32,9.32,0,0,1,9.67-1.81c1,.41,1.93,1.19,3,1.53.15,0,.43-.28.27-.34-2.46-.83-4.18-2.35-7-2.28a9.64,9.64,0,0,0-6.49,3.12c-2.19,2.15-9.35,12.39-4.89,14.91.07,0,.26-.17.21-.2Z"/><path class="cls-3" d="M70.84,18.4c-1.8-2,1.08-5.74,3-6.49a14.63,14.63,0,0,1,5.71-.48,14.36,14.36,0,0,1,2.87.21c2.43.46.69,2.89-.35,3.89-2.3,2.13-9.11,6.88-11.57,2.59V18"/><path class="cls-1" d="M71,18.29c-1.19-1.76,0-3.85,1.33-5.17s3.58-1.59,5.54-1.58a17.53,17.53,0,0,1,4.48.26c2.18.66.47,2.92-.57,3.88a18.18,18.18,0,0,1-4.85,3.17c-1.41.62-5.77,1.76-6.2-1,0-.16-.37.09-.35.24.14,1.11,1.81,1.76,2.72,1.86a8.43,8.43,0,0,0,4.56-1.21c2-1,5.81-3.16,6.18-5.68.19-1.31-.81-1.6-2-1.77-2.34-.34-5.7-.56-7.93.4S69,16.13,70.73,18.5c0,.05.27-.14.22-.21Z"/><path class="cls-3" d="M69.86,16.5c-1.55-1.2.08-3.14,1.1-3.9s2.3-1.51,3.65-.95"/><path class="cls-1" d="M70,16.39c-1.13-1-.38-2.4.56-3.3s2.46-1.8,3.94-1.27c.14.05.42-.28.27-.33-1.66-.58-3.26.38-4.43,1.54-1,1-1.84,2.5-.58,3.58.07.06.3-.17.24-.22Z"/><path class="cls-1" d="M51.28,79.88c-.84,4.1-1.13,8.29,4,9.54,5.35,1.34,11.25-2.32,8.53-8-1.41-3-4.78-3.3-7.5-1.78-.94.45-2.81,2.67-3.66,2.76-1.22.09-1.41-1.69-1.12-2.41Z"/><path class="cls-1" d="M51.16,79.95c-.78,3.7-1,8,3.29,9.41,3.08,1,7.19.47,9.24-2.28s.77-7.46-2.68-8.39a6.36,6.36,0,0,0-4.68.77,11.23,11.23,0,0,0-1.7,1.36c-.63.55-1.57,1.74-2.58,1.08-.53-.35-.41-1.55-.32-2,0,0,0-.07,0-.07l-.31-.05c-.07,0-.3.19-.21.24.75.37-.34,3.09,1.82,2.43,1.16-.35,2.08-1.83,3-2.48,2.34-1.57,5.68-1.46,7.28,1,3.63,5.61-3.14,9.67-8.24,8.19-4.51-1.31-4.39-5.5-3.67-9.35C51.43,79.69,51.18,79.87,51.16,79.95Z"/><path class="cls-1" d="M44.06,80.22c.37,1.58,1.41,3,1.5,4.65.19,2.74-1.41,4.15-4.22,4.9-4.69,1.08-10.13.67-10.22-5.65,0-3.41,3.38-5.15,6.47-4.49,2.44.5,5.63,4.4,6.38.91"/><path class="cls-1" d="M43.92,80.32c.61,2.1,2.12,4.28,1.25,6.56s-4.12,3-6.33,3.13c-3.69.28-7.13-1.08-7.47-5.2s3.84-6.05,7.16-4.61c1.17.51,2.21,1.61,3.47,1.85s1.77-.36,2.14-1.55c.08-.25-.31-.06-.35.09-.8,2.6-4.87-.85-6.1-1.14a6.06,6.06,0,0,0-4.85,1c-2.68,2-2.46,6.53,0,8.6s7.06,1.66,9.85.4c4.34-2,2.58-5.76,1.47-9.32,0-.11-.31.11-.28.21Z"/><path class="cls-3" d="M44.06,79.84c.37,1.58,1.41,3,1.5,4.65.19,2.74-1.41,4.15-4.22,4.9C36.65,90.48,31,90,31.12,83.75c.05-3.41,3.38-5.15,6.47-4.49,2.44.5,5.63,4.4,6.38.91"/><path class="cls-1" d="M43.93,79.94c.61,2.1,2.12,4.28,1.26,6.56s-4.14,3-6.36,3.14c-3.66.26-7.23-1.06-7.48-5.21s3.87-6.06,7.2-4.61c1.17.51,2.21,1.61,3.47,1.85s1.75-.36,2.12-1.54c.07-.23-.29-.05-.33.09-.81,2.63-4.87-.83-6.12-1.12a6,6,0,0,0-4.8,1c-2.64,2-2.57,6.46-.07,8.55s7.12,1.7,9.93.44c4.34-2,2.56-5.75,1.46-9.3,0-.1-.29.1-.26.19Z"/><path class="cls-1" d="M43.11,81.33c.2.78.79,1.3,1,2.09.6,2.33-1.1,3.38-2.63,3.8a14.39,14.39,0,0,1-4,.28c-1.26,0-4.94.15-5.65-1.22,0-.09-.32.14-.28.24.66,2,7.7,1.37,9.13,1.14a4.42,4.42,0,0,0,2.88-1.45,3.43,3.43,0,0,0,.88-1.9c.17-1.43-.69-1.87-1.1-3.13,0-.06-.22.1-.21.16Z"/><path class="cls-3" d="M74.82,12.72c-2.33-.09-4.43.49-5.46,2.86s1.52,4,3.42,4.77c1,.38,1.05,1.74,2.09,1.69,1.36-.1,2.72-2.19,3.63-3.12A9,9,0,0,1,80.92,17,7.51,7.51,0,0,0,83,15.48"/><path class="cls-1" d="M74.92,12.61c-2.08-.1-4.16.41-5.33,2.28-1.49,2.38.08,4,2.17,5.22,2.34,1.34,2.83,3.12,5.17.77A28.53,28.53,0,0,1,81.27,17a6.28,6.28,0,0,0,1.91-1.49c.14-.22-.17-.15-.26,0-.82,1.07-2.32,1.49-3.35,2.32-1.49,1.2-2.31,3.07-4.25,3.44-1.69.32-1.18-.19-2.37-1-.23-.16-1-.44-1.22-.57a4.93,4.93,0,0,1-2.29-2.21c-1.56-4.05,3.27-4.53,5.29-4.59.08,0,.25-.21.19-.22Z"/><path class="cls-3" d="M73.29,12.6c1-1.13,7.74-4.18,7.31-.52"/><path class="cls-1" d="M73.32,12.63c1.2-1.16,7.33-3.92,7.12-.46,0,.19.33,0,.34-.17.31-3.74-6.3-.82-7.54.6-.1.12,0,.12.08,0Z"/><path class="cls-3" d="M76,13c1.63-1.51,4.93-2.64,7.32-1.18"/><path class="cls-1" d="M76,13A6.48,6.48,0,0,1,83.22,12c.13.07.42-.25.27-.33C81,10.29,78,11.12,76,12.93c-.09.09-.1.23,0,.11Z"/><path class="cls-3" d="M75.66,13a2.33,2.33,0,0,1,1.59.15"/><path class="cls-1" d="M75.59,13.08a2.61,2.61,0,0,1,1.55.18c.1,0,.33-.23.23-.26a2.28,2.28,0,0,0-1.65-.11s-.21.22-.13.19Z"/><path class="cls-2" d="M54.89,32.32c1.79-4.71,7.47-8.07,11.11-11.15,2.27-2,1.86-1.83,4.53-3.07,1-.15,3,.19,3.49,1.45.49,1.45-1.91,3.21-2.83,4.1C63,31.55,61.54,37.82,59.86,41.28"/><path class="cls-1" d="M55,32.28c2.3-4.91,7-7.73,11.06-11,1.85-1.52,10.56-6.38,5.76,1.73-.74,1.24-2.65,2.59-3.61,3.69C64.3,31.1,62.13,36,59.7,41.32c-.09.2.25,0,.3-.1,2.58-5.44,4.78-10.54,8.91-15.1,1.1-1.22,7-5.08,4.61-7.49-2.67-2.7-6.74,1.79-8.5,3.22-3.88,3.16-8.14,5.8-10.25,10.52,0,.07.18-.06.2-.11Z"/><path class="cls-3" d="M79.84,13.36A6.47,6.47,0,0,1,85,11.71a3.23,3.23,0,0,1,1.8.81c1.21,1.75-.67,1.74-1.46,2a14.41,14.41,0,0,0-2.82,1.33.65.65,0,0,0,.27-.11"/><path class="cls-1" d="M79.87,13.39a6.35,6.35,0,0,1,4.32-1.59c.94,0,3.36.55,2.56,1.89-.36.61-1.11.58-1.75.82a14.07,14.07,0,0,0-2.47,1.21c-.13.08-.21.39,0,.27l.27-.15c.07,0,.28-.31.08-.25.94-.29,1.85-.76,2.82-1a3.72,3.72,0,0,0,1.17-.38A1.16,1.16,0,0,0,87,12.37c-1.72-2-5.7-.58-7.21,1-.11.12,0,.12.09,0Z"/><path class="cls-3" d="M69.15,18.49c1.52-1,5.22,1.39,4,3.18-.15.26-1.13.68-1,1.09s1.28.34,1.6.29a2.5,2.5,0,0,0,1.92-2.5c0-2.18-2.41-3.63-4.25-3.89a3.31,3.31,0,0,0-2.72.81c-.46.44-.94,1.7.06,1.46Z"/><path class="cls-1" d="M69.1,18.61c1.34-.63,4,.61,4.08,2.24,0,1.09-1,1-1.2,1.72-.07.27-.08.29.08.5.52.68,2.23,0,2.71-.42a3,3,0,0,0,.83-3.23c-.82-2.29-4.38-3.81-6.53-2.46-.44.28-1.49,1.31-1.12,1.93s1-.08,1.27-.38c.13-.14,0-.15-.11-.06s-.19.21-.24.21l-.17.14-.21-.94a3,3,0,0,1,1.51-1,3.33,3.33,0,0,1,1-.08A5.59,5.59,0,0,1,74,18a4.15,4.15,0,0,1,.95,1,3.24,3.24,0,0,1,.39.91l.06,1-1.82,1.9a1.42,1.42,0,0,1-.55,0l-.53-.08.26-.77c.11-.15.33-.24.45-.4,1.5-2-2.39-4.24-4.06-3.29C69.12,18.43,68.95,18.68,69.1,18.61Z"/><path class="cls-1" d="M73.52,16A6.24,6.24,0,0,1,77,14.58c.06,0,.24-.21.15-.2a6.09,6.09,0,0,0-3.7,1.52c-.13.13-.06.21.08.08Z"/><path class="cls-3" d="M37.53,11.51c-.12-3.25,1.75-8.44,5.32-9.57,2.62-.81,5.63,1.19,7.63,2.19"/><path class="cls-1" d="M37.64,11.43c0-2.81.94-6,3.05-8,3.17-2.9,6.48-.74,9.65.82.11.06.39-.23.25-.3-3.12-1.7-6.75-3.68-9.84-.91a11.51,11.51,0,0,0-3.34,8.52s.22-.09.22-.17Z"/><path class="cls-1" d="M31.9,18.33A51.72,51.72,0,0,1,35,14.14,30.1,30.1,0,0,1,42.09,7.7c3.25-2.25,6.35-4.63,10-5.88A24.34,24.34,0,0,1,62.22.32c3,.31,7,2.13,4.06,5.31a28.36,28.36,0,0,1-6.06,4.94A19.51,19.51,0,0,1,55.74,13"/><path class="cls-1" d="M32,18.31C37.11,10.93,44.89,4.15,53.63,1.5,55.68.87,64.76-1.22,66.32,2L65.11,6.68a23.93,23.93,0,0,1-3,2.48,28.32,28.32,0,0,1-6.31,3.66c-.12,0-.33.39-.12.31,4.67-1.7,18.79-11.41,6.64-13C50.38-1.39,37.88,9.09,31.81,18.37c-.07.11.14,0,.17-.06Z"/><path class="cls-3" d="M32.17,16.31a9.65,9.65,0,0,1,4.08-4s.2-.24.08-.18a9.48,9.48,0,0,0-4.39,4.27c-.07.15.19,0,.23-.09Z"/><path class="cls-2" d="M32.33,19c0,6.25-1.87,12-2.88,18.26-.75,5.13.9,8.58,3.08,13.21,2.48,5.27,10.11,6.86,16.61,6.49,6.13-.37,9.38-2.63,11-8.25a33,33,0,0,0,1.22-11c0-2,.36-5.37-.18-7.13-1.63-5.13-3.66-8.81-4.28-14.07C56,9.12,47,7.75,42,9.62c-3,1.25-9.5,5.88-9.75,9.5"/><path class="cls-1" d="M32.22,19.08c-.27,8.43-4.84,17.45-2.27,25.77,2,6.39,5.2,10.49,12,11.83,4.37.86,10.13,1.09,14-1.48s5-7.64,5.43-11.93a66.33,66.33,0,0,0,.26-10.6c-.2-3.23-1.74-6.19-2.8-9.21C57,18.16,57.6,12.05,51.62,9.62c-6.9-2.81-18,1.85-19.53,9.59,0,.17.31,0,.34-.17,1.19-5.86,9.3-10.29,14.84-10,4.47.26,8.18,2.51,9.34,7,.67,2.6,1,5.11,1.88,7.67.8,2.3,2,4.61,2.51,7,.88,4.17.52,10-.17,14.22s-2,8.2-5.81,10.55c-2.2,1.34-5.4,1.4-7.9,1.37-4.87,0-10.84-1.14-13.83-5.43C26.14,41.16,32.15,30,32.43,18.91c0,0-.21.09-.22.17Z"/><path class="cls-1" d="M52.69,11.29c-1,.19-.66,2-.47,2.72,1.59-.47,2.34.28,3.75.66.28-1.69-1.78-2.81-3.09-3.37Z"/><path class="cls-1" d="M52.76,11.2c-1.28.22-.9,2.08-.69,2.93,0,0,.06,0,.09,0,1.38-.36,2.41.3,3.69.67.1,0,.26-.13.27-.22A2.53,2.53,0,0,0,55,12.31c-.52-.42-1.56-1.23-2.25-1.11,0,0-.23.19-.16.2a5.5,5.5,0,0,1,2.06,1.11,2.49,2.49,0,0,1,1.16,2.24l.27-.22c-1.12-.32-2.08-.9-3.28-.77-.26,0-.36.12-.5-.09a1.83,1.83,0,0,1-.12-.59c-.08-.51-.21-1.45.42-1.68C52.66,11.38,52.86,11.18,52.76,11.2Z"/><path class="cls-3" d="M55.33,6a4.92,4.92,0,0,1,2.79,1c.06,0,.25-.15.2-.19a3.67,3.67,0,0,0-2.83-1c-.07,0-.2.19-.17.19Z"/><path class="cls-3" d="M42.09,25.5c-.77-1.06.24-3.89.83-5.28,1.31-3.08,4.2-3.46,4.55-2.87A8.62,8.62,0,0,1,49,20.6a19.34,19.34,0,0,1,.18,4.14c-.12,1.48-.77,3.07-2.54,2.9-.83-.06-3.87-.5-4.5-2.15"/><path class="cls-1" d="M42.19,25.41c-.88-1.84.48-5.19,1.7-6.62.52-.61,2.17-1.94,3.22-1.47.78.35,1.33,2,1.56,2.71.66,2.17,1.21,7.38-2.21,7.44a5,5,0,0,1-4.21-2.1c0-.09-.33.14-.29.23.84,1.69,4.43,3,6.1,1.8,2.24-1.61,1.45-6.57.49-8.59-.4-.83-.7-1.72-1.66-1.84a3.76,3.76,0,0,0-2.46,1c-1.7,1.41-3.57,5.46-2.43,7.58,0,0,.23-.12.2-.18Z"/><path class="cls-1" d="M45.66,21.2c-1.75-.75-2.34,2.84-.81,3.56s2.41-.25,2.25-1.81a1.77,1.77,0,0,0-1.84-1.78"/><path class="cls-1" d="M45.75,21.11c-1.89-.89-2.6,2.87-1.15,3.74a1.72,1.72,0,0,0,2.59-1A2.1,2.1,0,0,0,45.35,21c-.13,0-.38.3-.19.32a1.79,1.79,0,0,1,1.77,1.74c.07.7-.1,1.61-.94,1.73a1.76,1.76,0,0,1-1.29-.37c-.94-.82-.81-3.62.87-3.13.06,0,.22-.17.18-.19Z"/><path class="cls-1" d="M50.58,32.32a11,11,0,0,0,2.1-.4,11.17,11.17,0,0,0,1.71-1s.24-.27.08-.21a15.73,15.73,0,0,0-1.4.8,8.91,8.91,0,0,1-2.32.57c-.07,0-.26.24-.16.22Z"/><path class="cls-1" d="M56.91,33.08c-.5,2.44-1.13,7.31-4.5,7.06-2-.19-3.25-1.5-4.44-2.94-.69-.87-1.81-2.13-1.5-3.38a2.29,2.29,0,0,0,.69.31,9.63,9.63,0,0,0,5.31.56c1.94-.38,3.8-.91,5-2.59"/><path class="cls-1" d="M56.8,33.15c-.51,2.24-.87,6.49-3.83,6.83a5,5,0,0,1-3.81-1.78c-.65-.65-2.73-2.73-2.53-3.67q-.4-.75.38-.21l.73.25a11,11,0,0,0,1.54.36,10,10,0,0,0,3.77-.18,7.37,7.37,0,0,0,4.56-2.62c.16-.21-.07-.17-.18,0a9.36,9.36,0,0,1-10.82,1.57c-.13-.08-.32.16-.33.27-.21,3,4.29,7.46,7.4,6.18,2.53-1,2.95-4.78,3.34-7.09,0-.1-.2.07-.22.14Z"/><path class="cls-3" d="M49.6,38.46c.69-.94,2.75-1.19,3.44-.12,1.12-1.94,3.19-.13,1.12,1.25a3.16,3.16,0,0,1-4-.62Z"/><path class="cls-1" d="M49.65,38.46a2.23,2.23,0,0,1,3.24,0c.07.09.24-.1.27-.15.46-.7,1.76-1,1.71.13C54.81,39.73,53,40,52,39.79a6.48,6.48,0,0,1-2.32-1.42c-.05,0-.24.14-.2.19a4.35,4.35,0,0,0,2.38,1.58,3.12,3.12,0,0,0,2.9-1c.42-.49.68-1.36,0-1.74s-1.47.33-1.84.9l.27-.15c-.9-1.19-2.83-.77-3.66.28C49.42,38.61,49.61,38.51,49.65,38.46Z"/><path class="cls-3" d="M52.69,25.64c.09-2.16-.56-4.31.37-6.28,1.13-2.25,3.38-3.47,4.6-.66.66,1.5,1.41,5.16.47,6.66-1.41,2-4.88,1.6-6-.28"/><path class="cls-1" d="M52.83,25.54c.07-2.49-.73-5.29,1.13-7.36,2-2.28,3.5.07,4,2,.44,1.65,1.09,4.5-.54,5.74a3.85,3.85,0,0,1-5.16-1c-.07-.09-.35.15-.28.26a4,4,0,0,0,5.73.73c1.64-1.42,1-4.32.51-6.13s-1.93-3.87-3.93-2.22c-2.53,2.08-1.72,5.3-1.75,8.15,0,.08.27-.1.27-.2Z"/><path class="cls-1" d="M54.14,21.27c-.85,1,.12,3.36,1.46,2.93,2.08-.66.93-5.16-1.37-3"/><path class="cls-1" d="M54,21.29a2.16,2.16,0,0,0,.56,3,1.56,1.56,0,0,0,2.07-.89,2.43,2.43,0,0,0-.26-2.49c-.65-.76-1.62-.34-2.22.25-.13.13-.11.34.09.18.56-.46,1.25-.78,1.8-.13A2.27,2.27,0,0,1,56.48,23c-.17.87-1.05,1.44-1.81.78a2,2,0,0,1-.41-2.54c.14-.2-.16-.05-.23,0Z"/><path class="cls-1" d="M42.66,15.61c-.56-.94,3.85-1.88,4.69-2.16.19-2.16-.75-3-2.53-1.59-1,.84-2.35,2.25-2.16,3.75Z"/><path class="cls-1" d="M42.75,15.53c-.27-1,3.8-1.71,4.54-1.95.08,0,.2-.13.21-.22.09-1.39-.36-2.94-2-2.08C44.18,12,42,14,42.57,15.69c0,0,.18-.12.19-.16a4.87,4.87,0,0,1,1.53-3.07c.52-.51,1.66-1.59,2.45-1a1.37,1.37,0,0,1,.41.76c0,.19.16,1.12.19,1.09-.15.19-1,.27-1.22.34-.42.11-4.21,1-3.54,2C42.59,15.73,42.76,15.58,42.75,15.53Z"/><path class="cls-1" d="M35.34,35.3c.56.42,2.55,4.36,4.5,6.6,2.53,2.9,4.94,4,8.44,5.13,1.31.42,6,1.35,6.09-.66-4.69-.09-4.91-1.22-8.41-3.47-3.63-2.5-4.13-4.25-6.19-7.94-1.72-3.08-6.94-6.5-8.5-4.25"/><path class="cls-1" d="M35.25,35.39c4,5.17,6.15,9.84,12.92,11.77,1.77.51,5.52,1.52,6.35-.84,0-.05,0-.09,0-.1C50.65,46,47.94,44.32,45,42c-2.6-2.11-3.51-4.89-5.36-7.55-1.46-2.1-5.78-6.34-8.42-3.74-.14.14-.06.24.09.1,4.4-3.92,9.24,6.52,10.83,8.75a19.47,19.47,0,0,0,8.62,6.57c.35.11,2.06.31,2.11.37.81,1-2.58.86-2.77.83a19,19,0,0,1-5.25-1.74c-4.88-2.39-5.92-6.77-9.42-10.32,0,0-.22.13-.19.17Z"/><path class="cls-1" d="M60.6,28.83c2.06,3,3.88,11.57,1.19,15.25-1.06,1.46-2.87,3.25-4.88,3.13-1,0-1.63-.75-2.5-.62v-.5c3,.25,6.69-3.55,7.06-6.38.2-1.55,0-6.16,0-6.75"/><path class="cls-1" d="M60.49,28.93a19,19,0,0,1,2.41,11.5,7.94,7.94,0,0,1-1.8,4.37c-1.16,1.27-4.7,3.41-5.75,1.74-.88-1.4-1.1.49-.16-.34a20.11,20.11,0,0,1,2.15-.83c4.83-2.78,4.5-7.63,4.29-12.52,0-.11-.29.09-.29.19-.16,5,1.09,12.62-6.82,12.9-.1,0-.25.13-.25.23v.5s0,.06,0,.07c2.24.29,3.38,1,5.42-.38a8.47,8.47,0,0,0,2.93-3.63c1.69-4.17.43-10.33-1.92-14,0-.05-.26.13-.22.21Z"/><path class="cls-1" d="M54.9,45.1c-1.69-.38-2.77,2.16-1.08,2.86,1.13.47,3-.19,2.53-1.59-.28-.61-1.17-1.55-1.87-1.17"/><path class="cls-1" d="M55,45a1.82,1.82,0,0,0-2.08,1.31,1.48,1.48,0,0,0,1.45,1.95A2.07,2.07,0,0,0,56.56,47c.23-1-1.08-2.45-2.07-1.91-.06,0-.26.29-.08.23.82-.25,1.88.8,1.85,1.62s-1.29,1.12-2,1a1.38,1.38,0,0,1,.53-2.72c.07,0,.23-.19.18-.2Z"/><path class="cls-1" d="M54.61,47.12c.09,1.36-1.88.94-2.58,1.64a4.71,4.71,0,0,0-1,4.55c.19-2.11,2.34-.89,3.42-1.78A2.76,2.76,0,0,0,54.66,48"/><path class="cls-1" d="M54.49,47.21c-.05,1-1.47.88-2.09,1.2a2.69,2.69,0,0,0-.93.86,5.21,5.21,0,0,0-.62,4.15c0,.16.31-.12.32-.2.25-1.67,2.44-.78,3.45-1.75a3,3,0,0,0,.19-3.6c-.05-.09-.35.15-.3.25.63,1.26,1,3.19-1,3.62-.45.1-.93,0-1.38.12a1.64,1.64,0,0,0-1.27,1.53l.32-.2a5.47,5.47,0,0,1,.09-3c.54-1.45,1.31-1.5,2.43-1.87A1.29,1.29,0,0,0,54.74,47c0-.07-.25.1-.26.19Z"/><path class="cls-1" d="M55.41,48.05a5.81,5.81,0,0,0,.37,2.06c.8,1.17,2.77.77,3.28,2.3a3.35,3.35,0,0,0-.14-3.19,3.66,3.66,0,0,0-3-1.45"/><path class="cls-1" d="M55.3,48.14c0,1,0,2.06.93,2.65s2.2.56,2.68,1.74c.06.15.3-.09.32-.16A3.58,3.58,0,0,0,59,49a3.67,3.67,0,0,0-3-1.37c-.12,0-.38.31-.19.32a3.79,3.79,0,0,1,2.77,1.16,3.28,3.28,0,0,1,.36,3.38l.32-.16c-.38-.93-1.17-1.16-2-1.49A2.43,2.43,0,0,1,55.93,50a6,6,0,0,1-.41-2c0-.07-.23.11-.23.18Z"/><path class="cls-1" d="M28.59,34.41a4.08,4.08,0,0,0-.19,1,17.92,17.92,0,0,0-.66,3.47,26.89,26.89,0,0,0,.61,5.49A13.25,13.25,0,0,0,29.72,48,17.61,17.61,0,0,0,33,51.71c-.09-1-1.2-2.26-1.44-3.25S29,41.11,29.2,38.91a6.34,6.34,0,0,1,.7-2.44"/><path class="cls-1" d="M28.48,34.48c-1.78,6.22-.77,13.11,4.4,17.37.1.08.34-.14.31-.25C31.78,47,27.85,41.39,30,36.43c.08-.19-.24,0-.29.1-1.71,3.88.37,9.16,2,12.83a13.25,13.25,0,0,1,.73,1.36c.31,1.21-.45-.18-.83-.58a11.85,11.85,0,0,1-2.6-4,20.07,20.07,0,0,1-.35-11.76c0-.09-.2.07-.22.14Z"/><path class="cls-3" d="M53.61,45.65c.22-.21.58.28.67.43a1.55,1.55,0,0,1,.25.82c0,.06.15-.09.16-.12.19-.52-.57-1.8-1.15-1.2-.1.1,0,.17.06.07Z"/><path class="cls-3" d="M57.19,45.63c2.26-.65,3.66-3.2,4.9-5,.09-.12-.1,0-.14,0-1.21,1.73-2.51,4.21-4.66,4.85,0,0-.14.14-.1.13Z"/><path class="cls-3" d="M32.79,32.17c.08,0,.25-.21.13-.21s-.25.21-.13.21Z"/><path class="cls-3" d="M33.22,32a4.31,4.31,0,0,1,3.34,1.72c0,.05.24-.11.19-.18a4.13,4.13,0,0,0-3.42-1.66s-.12.12-.11.12Z"/><path class="cls-3" d="M51.59,50.39c.13-.94.82-1.24,1.62-1.51,0,0,.18-.18.1-.17a2.11,2.11,0,0,0-1.86,1.78s.13-.06.14-.11Z"/><path class="cls-3" d="M57.17,48.6a2.08,2.08,0,0,1,1.5.92s.15-.09.13-.12a1.88,1.88,0,0,0-1.49-1c-.06,0-.17.16-.14.16Z"/><path class="cls-3" d="M55.81,45.77a1.52,1.52,0,0,1,.23.79s.14-.07.14-.11a1.28,1.28,0,0,0-.24-.8s-.16.09-.14.13Z"/><path class="cls-2" d="M31.59,41.68c.38-3.66-3.94-6.56-6.37-8.44a59.09,59.09,0,0,0-7.78-5.16c-2.91-1.78-1.87-4.31,1.41-4.22,2,.09,4,1.41,5.81,2.25,2.72,1.31,4.78,3.28,7.13,5.07,1.6,1.22,3,2.16,3.47,4.5"/><path class="cls-1" d="M31.69,41.6c.07-6.06-8.77-10.34-13.12-13.08-.87-.55-2.41-1.3-2.63-2.46-.71-3.72,4.67-1.67,5.75-1.21a33.78,33.78,0,0,1,5.2,2.79c2.92,1.93,7.23,4.63,8.21,8.14,0,.12.32-.1.29-.21-1.07-3.92-6.27-7.14-9.63-9.08-2.2-1.27-7-4.38-9.48-2s2.47,4.61,4,5.56c3.93,2.45,11.15,6.47,11.21,11.73,0,0,.2-.09.2-.16Z"/><path class="cls-3" d="M2.48,22.92c-.14-1,.61-1.59,1.55-1.69s2.58.84,3.38.42"/><path class="cls-1" d="M2.58,22.84a1.56,1.56,0,0,1,2-1.42c.42.07.82.22,1.23.32a2.25,2.25,0,0,0,1.61,0c.06,0,.25-.27.08-.22-1.29.38-2.55-.78-3.86-.34A1.66,1.66,0,0,0,2.37,23c0,.05.21-.1.21-.16Z"/><path class="cls-1" d="M51.66,82.28c.47-2-2.72-3.66-.28-4.88.84-.37,4.6-.75,5.16.19s-1.31,3.19-1.31,3.94"/><path class="cls-1" d="M51.79,82.21c.21-1.14-.5-2-.94-2.93a1.24,1.24,0,0,1,.9-1.85,7.66,7.66,0,0,1,1.88-.24c1,0,3.06-.19,2.8,1.29-.2,1.09-1.36,2.05-1.34,3.17,0,.13.28-.12.3-.19.23-1,2-2.85,1.33-4-.58-1-2.8-.65-3.68-.55s-2.34.3-2.68,1.38c-.44,1.38,1.44,2.57,1.19,4.06,0,.12.24-.06.26-.15Z"/><path class="cls-3" d="M14.34,27.7a3.85,3.85,0,0,0,4.78-1.45,3.32,3.32,0,0,0-.37-4.17"/><path class="cls-1" d="M14.23,27.8c3.35,2,7.46-3,4.64-5.84-.07-.07-.32.16-.26.24a3.38,3.38,0,0,1,.13,4.39,3.87,3.87,0,0,1-4.32,1c-.06,0-.24.17-.2.2Z"/><path class="cls-3" d="M7.26,27.19c1.5,1.55,4.36,1.22,6.24.75a7.28,7.28,0,0,0,4.59-3.33c.7-1.36,1-3-.19-4.17A3,3,0,0,0,14,20.06c-1.12.7-2,2.06-3.14,2.53s-2.11-.33-3.09-.47S5.43,21.94,5,23s.61,2.48,1.41,3.24a3.25,3.25,0,0,0,1.17.94"/><path class="cls-1" d="M7.16,27.28c2.46,2.17,6.89,1.19,9.3-.65,2.11-1.61,4-6,.37-7.17a3.79,3.79,0,0,0-3.43.9c-1.61,1.23-3,2.15-5.12,1.7a4.66,4.66,0,0,0-1.73-.15c-3.54.59-.9,4.32.9,5.44.12.07.41-.23.26-.32-.83-.52-5-4.05-.67-4.8,1-.18,1.94.68,2.94.65a3.59,3.59,0,0,0,2.3-1.13c1.56-1.25,3.73-3,5.44-1.15,2.44,2.63-1,6.07-3.48,7-2.18.81-5,1-6.89-.47,0,0-.23.15-.19.18Z"/><path class="cls-3" d="M8,22.31c1.22-.47,3.61-1.27,4.83-.33,1.46,1.17-.51,2.3-1.55,2.53-1.41.38-2.16-.52-3.38-.94"/><path class="cls-3" d="M9.18,22a3.19,3.19,0,0,1,3.28-.14"/><path class="cls-1" d="M9.16,22.13A3.09,3.09,0,0,1,12.32,22c.11.07.36-.21.28-.26a3.28,3.28,0,0,0-3.4.17c-.08,0-.23.3,0,.19Z"/><path class="cls-3" d="M3.22,22.36c-1.59-.23-3.7.89-2.91,2.81S4.68,28,6.51,27.33"/><path class="cls-1" d="M3.31,22.26C1.52,22-.7,23.4.21,25.41s4.28,2.81,6.24,2.06c.09,0,.32-.32.11-.27a6.35,6.35,0,0,1-4.65-.63A3.08,3.08,0,0,1,.37,24.75C0,23,1.79,22.41,3.13,22.46c.07,0,.24-.19.18-.2Z"/><path class="cls-3" d="M5.9,22.17a3.25,3.25,0,0,0-2.53,0A2.34,2.34,0,0,0,2.24,25c.47,1.51,3.56,2.37,5,2.46a6.37,6.37,0,0,0,3.47-1"/><path class="cls-1" d="M6,22.06c-2.08-1.22-5.14,1.26-3.73,3.5.81,1.28,2.83,1.8,4.22,2a5.9,5.9,0,0,0,4.24-1c.09-.07.21-.33,0-.22a6.8,6.8,0,0,1-6,.36,3.91,3.91,0,0,1-2.16-1.53c-1.11-2.08,1.5-3.61,3.24-2.86.07,0,.28-.19.22-.23Z"/><path class="cls-3" d="M10.49,22.08C9.65,22,8,21.09,7,21.23A2.29,2.29,0,0,0,5.29,24c.66,2.63,6.38,2.86,8.16,1.59a.56.56,0,0,0,.23-.23"/><path class="cls-1" d="M10.59,22C9,21.59,7.32,20.38,5.9,21.69a2.36,2.36,0,0,0,0,3.57c1.22,1.09,3.21,1.29,4.77,1.2,1-.05,2.64-.2,3.18-1.15.11-.19-.12-.17-.21-.07-1.33,1.4-4.64,1-6.22.38-1-.4-2-1.12-1.9-2.33q-.2-1,1.08-1.2.55-.85,1.27-.61a3.37,3.37,0,0,1,.85.24,10.93,10.93,0,0,0,1.7.48c.08,0,.29-.21.2-.23Z"/><path class="cls-3" d="M51.14,80.55c-.84,4.1-1,7.24,4.17,8.49,5.35,1.34,11.25-2.32,8.53-8-1.41-3-4.78-3.3-7.5-1.78-.94.45-2.81,2.67-3.66,2.76-1.22.09-1.55-.64-1.27-1.36Z"/><path class="cls-1" d="M51,80.62c-.74,3.52-.79,6.85,3.1,8.25,3,1.09,6.93.76,9.2-1.73a5.65,5.65,0,0,0-1-8.24,5.49,5.49,0,0,0-4.8-.36,7.06,7.06,0,0,0-2,1.08c-.33.25-.63.56-.94.83l-.46.41q-1.14,1.57-2.58-.31s0-.07,0-.07l-.31-.05c-.07,0-.29.19-.2.23s.13,1,.46,1.27c.62.53,1.34.17,1.92-.14,1.73-.95,2.59-2.6,4.68-3.1a4.72,4.72,0,0,1,5.71,2.79c2.54,5.84-4.44,8.69-9.11,7.21-4.09-1.3-4.12-4.56-3.44-8.21C51.28,80.37,51,80.54,51,80.62Z"/><path class="cls-1" d="M52.2,82.14c-1.34,3.25,1.09,5.33,4.27,5.63A9.94,9.94,0,0,0,64.39,85c.18-.18,0-.34-.15-.16a9.58,9.58,0,0,1-8.57,2.48C53,86.75,51.34,84.8,52.43,82c.06-.16-.21,0-.24.09Z"/><path class="cls-3" d="M44.89,42.48c1.75,1.56,3.64,3.15,6,3.63,0,0,.06,0,0-.05a14.35,14.35,0,0,1-6-3.62s-.05,0,0,0Z"/><path class="cls-2" d="M92,80.2l1.66-.32c0,.17,0,.31,0,.44a3.24,3.24,0,0,0,0,.41,1.48,1.48,0,0,0,.1.37.66.66,0,0,0,.18.24.43.43,0,0,0,.28.1c.32,0,.49-.21.49-.62a2.34,2.34,0,0,0-1-1.69l-.51-.43-.39-.34a4.25,4.25,0,0,1-.34-.36,2.37,2.37,0,0,1-.31-.44,2.58,2.58,0,0,1-.19-.52,2.5,2.5,0,0,1-.08-.64,2,2,0,0,1,.63-1.56,2.36,2.36,0,0,1,1.66-.57,2,2,0,0,1,1.47.61,2,2,0,0,1,.61,1.48v.19l-1.69.23s0-.08,0-.16,0-.13,0-.17a1.91,1.91,0,0,0,0-.31,1.84,1.84,0,0,0-.07-.3.5.5,0,0,0-.16-.24.4.4,0,0,0-.26-.09.45.45,0,0,0-.41.21.92.92,0,0,0-.14.5,1.43,1.43,0,0,0,.08.47,1.35,1.35,0,0,0,.24.41,3.4,3.4,0,0,0,.3.32l.36.31.32.27a7.23,7.23,0,0,1,.59.57,4.39,4.39,0,0,1,.45.61,2.76,2.76,0,0,1,.32.73,3.3,3.3,0,0,1,.1.85,1.79,1.79,0,0,1-.61,1.39,2.14,2.14,0,0,1-1.48.54,2.29,2.29,0,0,1-1-.21,1.84,1.84,0,0,1-.71-.56,2.76,2.76,0,0,1-.41-.79A3.41,3.41,0,0,1,92,80.2Z"/><path class="cls-2" d="M98.38,79.5V74.4H100v5.05c0,.29,0,.5,0,.63s0,.29,0,.48a1.5,1.5,0,0,0,.06.4,1.59,1.59,0,0,0,.13.24.35.35,0,0,0,.2.17,1.18,1.18,0,0,0,.61,0,.36.36,0,0,0,.2-.17,1.5,1.5,0,0,0,.12-.24,1.34,1.34,0,0,0,.06-.39c0-.19,0-.34,0-.47s0-.33,0-.62V74.4h1.64v5.1c0,.26,0,.49,0,.7a6.54,6.54,0,0,1-.08.65,3.14,3.14,0,0,1-.17.6,2.31,2.31,0,0,1-.29.5,1.6,1.6,0,0,1-.43.39,2.11,2.11,0,0,1-.59.24,3.4,3.4,0,0,1-1.56,0,2.1,2.1,0,0,1-.59-.24A1.63,1.63,0,0,1,99,82a2.29,2.29,0,0,1-.29-.5,3.09,3.09,0,0,1-.17-.6,5.71,5.71,0,0,1-.09-.65C98.39,80,98.38,79.76,98.38,79.5Z"/><path class="cls-2" d="M105.43,82.52V74.4h2l.87,5.41.93-5.41h1.9v8.11h-1.21l0-5.71c-.09.59-.25,1.54-.47,2.85s-.39,2.27-.47,2.85h-1.23l-1-5.74,0,5.74Z"/><path class="cls-2" d="M113.44,82.52V74.4h2l.87,5.41.93-5.41h1.9v8.11h-1.21l0-5.71q-.14.88-.47,2.85t-.47,2.85h-1.23l-1-5.74,0,5.74Z"/><path class="cls-2" d="M121.45,82.52V74.4h3.39v1.13H123.1v2.21h1.23v1.15H123.1v2.5h1.74v1.13Z"/><path class="cls-2" d="M126.81,82.52V74.4h1.79a4.49,4.49,0,0,1,1.07.11,2.38,2.38,0,0,1,.81.36,1.55,1.55,0,0,1,.53.66,2.51,2.51,0,0,1,.18,1c0,.17,0,.32,0,.45a3,3,0,0,1-.08.45,1.75,1.75,0,0,1-.18.45,1.58,1.58,0,0,1-.32.38,1.83,1.83,0,0,1-.5.32q.73,2.32,1.27,3.92h-1.7l-.93-3.74h-.27v3.74Zm1.64-4.74h.47a.46.46,0,0,0,.32-.13.71.71,0,0,0,.2-.32,2.42,2.42,0,0,0,.08-.36,1.84,1.84,0,0,0,0-.31,2,2,0,0,0,0-.3,2.76,2.76,0,0,0-.07-.34.71.71,0,0,0-.17-.31.4.4,0,0,0-.29-.12h-.55Z"/><path class="cls-2" d="M136.49,82.52V74.4h1.69a5.1,5.1,0,0,1,1.34.15,1.68,1.68,0,0,1,.82.48,1.86,1.86,0,0,1,.42.8,5.19,5.19,0,0,1,.12,1.2v2.66c0,.29,0,.54,0,.75a4.15,4.15,0,0,1-.1.63,2,2,0,0,1-.2.52,1.78,1.78,0,0,1-.33.4,1.54,1.54,0,0,1-.49.29,3.5,3.5,0,0,1-.67.17,6.17,6.17,0,0,1-.89.06Zm1.7-1.15h.37l.27,0a.39.39,0,0,0,.31-.21.52.52,0,0,0,.07-.21,2.09,2.09,0,0,0,0-.31V76.23a.55.55,0,0,0-.24-.53,1.82,1.82,0,0,0-.8-.13Z"/><path class="cls-2" d="M142.54,82.52l1.75-8.11h1.45l1.75,8.11h-1.62l-.33-1.74h-1.06l-.31,1.74Zm2.06-2.74h.84l-.41-3Z"/><path class="cls-2" d="M150.24,82.52V79.84l-1.53-5.43h1.55L151,78l.42-1.78.41-1.78h1.5l-1.53,5.43v2.68Z"/><path class="cls-2" d="M158.35,79.81V77.12q0-2.88,2.36-2.88a2.75,2.75,0,0,1,.88.13,1.9,1.9,0,0,1,.65.37,1.87,1.87,0,0,1,.43.58,2.78,2.78,0,0,1,.24.74A4.94,4.94,0,0,1,163,77v.7h-1.61V76.9c0-.15,0-.27,0-.38a2.57,2.57,0,0,0,0-.37,1.18,1.18,0,0,0-.1-.33.6.6,0,0,0-.19-.22.53.53,0,0,0-.31-.09q-.71,0-.71,1.2v3.5q0,1.19.71,1.19a.53.53,0,0,0,.36-.12.68.68,0,0,0,.21-.34,3,3,0,0,0,.09-.44c0-.14,0-.31,0-.49v-.83H163v.68a6,6,0,0,1-.08.86,3.26,3.26,0,0,1-.23.76,2,2,0,0,1-.41.62,1.83,1.83,0,0,1-.65.41,2.47,2.47,0,0,1-.91.16,2.68,2.68,0,0,1-.94-.15,1.87,1.87,0,0,1-.67-.4,2.13,2.13,0,0,1-.43-.63,3.13,3.13,0,0,1-.24-.78A5.52,5.52,0,0,1,158.35,79.81Z"/><path class="cls-2" d="M164.69,82.52l1.75-8.11h1.45l1.75,8.11H168l-.33-1.74h-1.06l-.31,1.74Zm2.06-2.74h.84l-.41-3Z"/><path class="cls-2" d="M171.55,82.52V74.4h2l.87,5.41.93-5.41h1.9v8.11H176l0-5.71q-.13.88-.47,2.85T175,82.52H173.8l-1-5.74,0,5.74Z"/><path class="cls-2" d="M179.57,82.52V74.4h2a1.88,1.88,0,0,1,1.54.59,2.64,2.64,0,0,1,.48,1.71,3.85,3.85,0,0,1-.11,1,2.1,2.1,0,0,1-.3.67,1.4,1.4,0,0,1-.49.42A2.23,2.23,0,0,1,182,79a4.61,4.61,0,0,1-.8.07v3.47Zm1.65-4.63.23,0,.18,0a.3.3,0,0,0,.13-.07l.1-.09a.34.34,0,0,0,.06-.13l0-.15a1.28,1.28,0,0,0,0-.19c0-.09,0-.16,0-.21v-.31c0-.12,0-.21,0-.27s0-.14,0-.23a.77.77,0,0,0,0-.21,1,1,0,0,0-.09-.16.34.34,0,0,0-.14-.13l-.2-.07a1.23,1.23,0,0,0-.29,0Z"/><rect class="cls-2" x="87.4" y="72" width="100.12" height="0.63"/><rect class="cls-2" x="87.4" y="84.38" width="100.12" height="0.63"/></svg>