<svg id="Icons" xmlns="http://www.w3.org/2000/svg" viewBox="0 0 210.35 229.8"><defs><style>.cls-1{fill:#fff;}.cls-2{fill:#eaecf2;}</style></defs><title>home-og-garden-tablet</title><path class="cls-1" d="M32.55,25.27c24.3-9.85,61.16-4.71,84.24,10.61,8.17,5.43,19.63,19.54,23.11,29"/><path class="cls-1" d="M69,130C66,139.25,86.2,141.46,92.48,140.61c8-1.08,6.87-10.43-.5-16.19-3.9-3-11.53-4.66-16.2-2.91-2.63,1-9.06,5.72-5.73,8.76"/><path class="cls-2" d="M89.48,141.53c-6.17,0-16.45-1.55-20.12-6a5.71,5.71,0,0,1-1-5.77l.48.16a3.22,3.22,0,0,1-.38-2.31c.61-3.2,5.25-6.14,7.09-6.83,4.7-1.77,12.62-.36,16.93,3,4.64,3.63,7.14,8.93,6.07,12.87-.7,2.59-2.81,4.24-5.94,4.66A24,24,0,0,1,89.48,141.53ZM69.62,130.75a4.16,4.16,0,0,0,.91,3.84c4,4.81,17.29,5.89,21.85,5.27,2.52-.34,4.14-1.57,4.68-3.56.91-3.37-1.37-8-5.54-11.28-3.89-3-11.27-4.38-15.47-2.79-1.91.72-5.7,3.43-6.13,5.7a1.81,1.81,0,0,0,.65,1.8Z"/><path class="cls-1" d="M54.18,132.8c.53,3.85-3,9.83-4.48,13.36-1.72,4.06-3.59,8-5.61,11.84-3.67,7-7.46,14.32-11.78,21-2.13,3.28-3.85,6.81-6,10.08-1.23,1.83-6.37,6.9-6.11,8.51l3-2.53c-2.2,2.79-4.08,7.44-7.25,9.08-3.94,2-8.29-.83-7.24-5a71.37,71.37,0,0,1,4-10.35c2.75-6.45,6-12.68,8.82-19.15a146.09,146.09,0,0,0,7-20.71c2.23-8,6.3-18.35,6.36-26.82"/><path class="cls-2" d="M13.2,205.54a5.7,5.7,0,0,1-3.55-1.2,5.15,5.15,0,0,1-1.75-5.44,56.58,56.58,0,0,1,3.22-8.65l.79-1.82c1.5-3.52,3.16-7,4.77-10.41,1.35-2.85,2.75-5.8,4.05-8.75a145.17,145.17,0,0,0,7-20.6c.55-2,1.21-4.09,1.9-6.32,2.05-6.58,4.38-14,4.43-20.31h1.51c0,6.5-2.41,14.07-4.5,20.75-.69,2.21-1.34,4.3-1.89,6.27a146.28,146.28,0,0,1-7,20.81c-1.31,3-2.71,5.93-4.07,8.79-1.6,3.38-3.26,6.87-4.75,10.36l-.79,1.83a55.29,55.29,0,0,0-3.14,8.41,3.63,3.63,0,0,0,1.22,3.89,4.53,4.53,0,0,0,4.94.29c1.61-.83,2.9-2.58,4.09-4.46l-.21-1.3c-.22-1.35,1.54-3.51,4.25-6.64.83-1,1.62-1.87,2-2.41,1.15-1.71,2.19-3.54,3.2-5.3.9-1.58,1.83-3.21,2.84-4.76,4.3-6.63,8.09-13.89,11.74-20.91,2.1-4,3.93-7.89,5.58-11.79.33-.79.76-1.69,1.22-2.64,1.6-3.35,3.59-7.53,3.21-10.31l1.5-.2c.44,3.24-1.66,7.64-3.34,11.17-.45.94-.87,1.83-1.19,2.58-1.67,3.94-3.51,7.83-5.63,11.9-3.67,7.05-7.47,14.35-11.82,21-1,1.52-1.9,3.13-2.79,4.69-1,1.79-2.07,3.64-3.26,5.4-.41.61-1.19,1.51-2.09,2.55-.55.64-1.36,1.58-2.1,2.51l1,1a33.33,33.33,0,0,0-2,3c-1.54,2.49-3.14,5.05-5.48,6.26A6.6,6.6,0,0,1,13.2,205.54Z"/><path class="cls-1" d="M81.64,125.74c1.56-2.23,14.47-2.82,17.15-2,3.56,1.06,5.57,4.48,6.79,7.81,2.57,7-1.4,14.77-5.74,20.41-2.12,2.75-4,5.65-6,8.37s-5.57,6.88-7.57,3.16c-1.83-3.4-.51-8.13-.31-11.78.21-4,.73-8.65-.24-12.36a20.39,20.39,0,0,0-1.52-4.28"/><path class="cls-2" d="M88.23,165.7H88a3.07,3.07,0,0,1-2.45-1.85c-1.49-2.76-1.06-6.24-.69-9.31.12-1,.24-2,.29-2.87,0-.63.07-1.28.12-1.94.21-3.37.45-7.19-.34-10.19a19.79,19.79,0,0,0-1.45-4.11l1.33-.72a21.13,21.13,0,0,1,1.59,4.45c.85,3.24.6,7.18.38,10.67,0,.65-.08,1.3-.11,1.92,0,.94-.17,1.93-.3,3-.36,3-.74,6.08.52,8.41.54,1,1.06,1,1.23,1.06,1.13.08,2.83-1.36,5.07-4.32,1-1.31,2-2.68,2.88-4s2-2.93,3.15-4.36c4-5.16,8.16-12.76,5.63-19.69-1.49-4.07-3.61-6.54-6.3-7.35s-15.09,0-16.31,1.73L81,125.31c1.84-2.64,15.23-3.13,18-2.31,3.17.95,5.62,3.73,7.29,8.28,2.77,7.58-1.65,15.67-5.85,21.13-1.08,1.41-2.11,2.88-3.11,4.31s-1.91,2.73-2.92,4.06C92.66,163.09,90.39,165.7,88.23,165.7Z"/><path class="cls-2" d="M1.26,209.91c0,5.94,4.3,6.63,9.32,7.36s9,1,13.84-1.13c-.14-.32-.41-.29-.74-.44"/><path class="cls-2" d="M16.43,218.56a40.9,40.9,0,0,1-6-.54c-4.89-.72-10-1.46-10-8.11H2c0,5.09,3.31,5.83,8.68,6.62s8.79.85,13-.91L24,215l.18.06a1.37,1.37,0,0,1,.94.76l.31.7-.7.3A20.16,20.16,0,0,1,16.43,218.56Z"/><path class="cls-2" d="M6.8,214.2c1.19,7.45,11.3,9.06,17.14,9.63,3.65.36,17.39-1.06,14.62-7.62"/><path class="cls-2" d="M25.09,224.63c-.51,0-.93,0-1.23,0-4.06-.4-16.43-1.6-17.81-10.27l1.49-.24c.81,5.05,6.19,8,16.46,9,3,.29,11.4-.64,13.63-3.66a2.76,2.76,0,0,0,.22-2.91l1.39-.59a4.27,4.27,0,0,1-.4,4.39C36.28,223.81,28.57,224.63,25.09,224.63Z"/><path class="cls-2" d="M11.84,200.34c2-3.75-.55-8.57.25-12.6s5.21-4.62,8.82-4.8c3.82-.19,7,.17,9.77,2.85,2.94,2.85,2,7.38-2.21,8.25"/><path class="cls-2" d="M12.51,200.69,11.17,200c1-1.94.71-4.26.36-6.72a17,17,0,0,1-.18-5.67c1-5,6.76-5.27,9.52-5.41,4.1-.2,7.42.24,10.33,3.06a5.87,5.87,0,0,1,1.74,5.8,5.39,5.39,0,0,1-4.32,3.73l-.31-1.48a3.93,3.93,0,0,0,3.17-2.67,4.37,4.37,0,0,0-1.34-4.3c-2.53-2.45-5.39-2.82-9.2-2.64-4.41.22-7.48,1-8.12,4.2A15.69,15.69,0,0,0,13,193C13.39,195.64,13.78,198.32,12.51,200.69Z"/><path class="cls-2" d="M87.44,185.72c2.36-2.08,8.22-2.33,11.35-2,2.31.22,8,1.28,9.77,2.83,3.49,3.08-.32,6.23-2.91,7.57a19.11,19.11,0,0,1-11.15,2.47c-2.68-.28-6.2-1.74-7.56-4-1-1.71-1.4-7.58,1.76-7.06"/><path class="cls-2" d="M96.33,197.42a17.9,17.9,0,0,1-1.91-.1c-2.84-.3-6.6-1.81-8.13-4.41-.8-1.36-1.35-5.2,0-7.11a2.55,2.55,0,0,1,1-.86c2.83-2.18,8.81-2.27,11.66-2,2.38.22,8.24,1.3,10.19,3a4.08,4.08,0,0,1,1.64,3.62c-.33,2.73-3.68,4.66-4.7,5.19A20.56,20.56,0,0,1,96.33,197.42Zm-8.4-11.16a1,1,0,0,0-.43.38c-.85,1.24-.56,4.38.1,5.49,1.2,2,4.49,3.41,7,3.68,3.51.37,6.82-.36,10.72-2.39,1.68-.87,3.7-2.45,3.89-4a2.65,2.65,0,0,0-1.13-2.3c-1.5-1.31-6.79-2.41-9.34-2.65-2.75-.26-7.59-.09-10.07,1.34l-.07.43a1.21,1.21,0,0,0-.58,0l-.06,0Z"/><path class="cls-1" d="M11.77,200.17c-1.6.64-2.93.42-3.39-1.87-3.83.32-9.2,10.3-7.19,13.69,1.6,2.7,4.39.77,6.47,1.79,1.26.61,1.72,2.31,2.71,3.28a18.55,18.55,0,0,0,4.24,2.74c3.64,2,7.17,2,11.35,2,8-.1,16-3.57,14.62-13.1-1-6.77-4.66-12.93-11.6-14.36a19.26,19.26,0,0,0-10.08,1.19c-4,1.53-9,5.31-7.78,10,1.14,4.42,6.34,7.63,10.54,8.52,3.73.79,19.48,1.41,18.91-5.05"/><path class="cls-2" d="M24.21,222.53c-3.38,0-6.64-.23-10-2.06l-.64-.35a15.87,15.87,0,0,1-3.77-2.52,8,8,0,0,1-1.12-1.53,4.06,4.06,0,0,0-1.39-1.61,4.66,4.66,0,0,0-2.26-.22c-1.48.08-3.31.18-4.53-1.86s-.15-5.76,1.27-8.52,4-6.11,6.51-6.32l.67-.06.13.66a2.17,2.17,0,0,0,.78,1.46,2,2,0,0,0,1.59-.15l.15.38a15.64,15.64,0,0,1,7-5.08,20.23,20.23,0,0,1,10.51-1.23c6.5,1.34,11.05,7,12.19,15,.52,3.69-.24,6.76-2.27,9.13-2.62,3-7.27,4.77-13.09,4.84ZM5.93,212.7a4.61,4.61,0,0,1,2.06.4,5.27,5.27,0,0,1,2,2.18,6.79,6.79,0,0,0,.9,1.25,14.71,14.71,0,0,0,3.42,2.26l.65.35c3.55,1.95,7.16,1.91,11,1.86,3.12,0,8.81-.65,12-4.31a8.46,8.46,0,0,0,1.94-4.27c-4.16,3.67-15.75,2.83-18.34,2.28-4.62-1-9.92-4.41-11.12-9.07a6.42,6.42,0,0,1,.47-4.43,2.68,2.68,0,0,1-1.67-.26,3,3,0,0,1-1.34-1.74c-1.45.56-3.28,2.63-4.69,5.35-1.53,3-2.06,5.8-1.31,7.05s1.61,1.21,3.14,1.12C5.29,212.72,5.61,212.7,5.93,212.7Zm20.39-17.91a20.88,20.88,0,0,0-7.15,1.39c-3,1.18-8.47,4.59-7.32,9.07,1,4,5.91,7.1,10,8,2.79.59,13.56,1.14,17-1.94a2.62,2.62,0,0,0,1-2.31h0l0-.21c-1-7.39-5.16-12.52-11-13.73A12.36,12.36,0,0,0,26.32,194.79Z"/><path class="cls-2" d="M81.39,174c1.86-2.12,2.17-5.2,1.61-7.94-.44-2.17-1.75-4,.29-5.77A10.07,10.07,0,0,1,95.64,160c2.12,1.75,3.25,6,0,6.9"/><path class="cls-2" d="M82,174.5l-1.14-1c1.51-1.71,2-4.37,1.44-7.29-.09-.46-.23-.91-.37-1.36-.49-1.62-1.05-3.46.9-5.14a10.88,10.88,0,0,1,13.32-.25,6.35,6.35,0,0,1,2.22,5.66,3.3,3.3,0,0,1-2.51,2.55l-.4-1.46a1.79,1.79,0,0,0,1.42-1.41,4.87,4.87,0,0,0-1.7-4.18,9.29,9.29,0,0,0-11.37.24c-1.15,1-.94,1.9-.44,3.55.14.48.29,1,.4,1.49C84.43,169.3,83.78,172.43,82,174.5Z"/><path class="cls-1" d="M86.18,171.61c-4.29,1-7.71,5-9.64,8.76-1.72,3.38-4.41,9.76-3.67,13.64,7-3.75,13.44-9.92,21.44-10.76,4.29-.45,8,.69,11.53,2.27,1.29.57,4.17,1.07,4.29,4.47,1-.63,2-7.09,2-8.05.27-4.6-7.11-9.05-10.85-10.67a15.94,15.94,0,0,0-8.07-1.44c-1.47.16-7.58,1.1-7.81,1.76"/><path class="cls-2" d="M72.31,195.17l-.19-1c-.87-4.56,2.64-12,3.74-14.13,2.21-4.35,5.47-7.55,8.91-8.8.82-1.24,7.09-2,8.38-2.14a16.64,16.64,0,0,1,8.45,1.5c4,1.75,11.6,6.38,11.3,11.4,0,.07-.83,7.67-2.38,8.65l-1.11.7,0-1.31c-.09-2.41-1.79-3-3.15-3.54-.26-.09-.49-.18-.69-.27A21.38,21.38,0,0,0,94.38,184c-5.37.57-10.14,3.7-14.76,6.74-2.08,1.36-4.22,2.77-6.4,3.94ZM86.26,172l.09.39c-3.45.77-6.87,3.9-9.14,8.37-1.93,3.8-3.79,8.76-3.71,12.09,1.78-1,3.56-2.18,5.29-3.32,4.77-3.13,9.7-6.38,15.44-7a22.79,22.79,0,0,1,11.91,2.33l.6.23a6.06,6.06,0,0,1,3.6,2.69,43.39,43.39,0,0,0,1.06-5.85c.23-3.86-6.25-8.14-10.39-9.93a15,15,0,0,0-7.68-1.39A46.07,46.07,0,0,0,86.26,172Z"/><path class="cls-1" d="M85.42,180.43c0-4-2.8-6.71,1-9.58,3-2.24,8.42-3.83,12.1-4,5.79-.31,15.37,4.79,13.92,12.15-.66,3.36-2.66,1.52-4.91.26-5.48-3.09-12.89-1.76-15.31-1-1.68.52-5,2.66-6.55,1.71"/><path class="cls-2" d="M111,181.64a6.26,6.26,0,0,1-2.89-1.21l-.91-.54c-5-2.8-11.8-1.84-14.72-1a15.67,15.67,0,0,0-1.62.68c-1.91.86-4.07,1.85-5.54,1l.09-.14h-.7a13.6,13.6,0,0,0-.53-3.31c-.56-2.27-1.15-4.61,1.84-6.87s8.83-4,12.51-4.18a16.94,16.94,0,0,1,12.46,5.44,8.77,8.77,0,0,1,2.24,7.62,3,3,0,0,1-1.45,2.37A1.87,1.87,0,0,1,111,181.64ZM99,176.53a18.23,18.23,0,0,1,8.88,2l1,.57c.83.5,1.86,1.14,2.26,1,.08,0,.37-.24.58-1.28a7.38,7.38,0,0,0-1.9-6.33,15.54,15.54,0,0,0-11.24-4.92c-3.46.19-8.77,1.69-11.68,3.88-2.19,1.65-1.83,3.1-1.28,5.29a19.49,19.49,0,0,1,.51,2.55c.81.42,2.78-.47,4.09-1.07a16.67,16.67,0,0,1,1.81-.74A25.37,25.37,0,0,1,99,176.53Z"/><path class="cls-2" d="M84.58,188.74c6.6-2.3,12.5-3.65,19.24-.76,3.21,1.37,6.39,2.4,2.58,5.74-2.28,2-6.36,1.87-8,3.76"/><path class="cls-2" d="M98.92,198l-1.13-1c1-1.12,2.56-1.59,4.21-2.08a10.53,10.53,0,0,0,3.9-1.75c1.39-1.21,1.52-1.86,1.47-2.14-.12-.75-1.79-1.46-3.27-2.08l-.58-.25C97.34,186,92,187,84.83,189.46l-.5-1.43c6-2.1,12.47-3.88,19.79-.75l.57.24c2,.85,3.92,1.65,4.17,3.23.17,1.07-.45,2.19-2,3.52a11.61,11.61,0,0,1-4.46,2.06A7.89,7.89,0,0,0,98.92,198Z"/><path class="cls-1" d="M65.44,30.91c-4,5.41-8.58,12-11.86,16.72C49.1,54,45.68,61.31,42.67,68.53,38,79.76,32.2,92,30.48,103.74c-1.42,9.7,2.43,19,11.1,25.87,6.55,5.21,12.61,8.34,21.92,4.7,7-2.74,25.29-11.65,29.56-17.8,2.06-3,3.86-6.25,6-9.1,1.55-2.08,3.59-2.5,5.37-4,3.78-3.2,2.38-10,3.09-14.72.77-5,5.58-24.63,7-29.29,1.56-5.11.86-11.1.65-16.48-.26-6.79-2.31-10.71-6.64-15.88-5.1-6.1-9.16-6.25-16.55-6.62-3.61-.18-12.52-1.47-18.21.06"/><path class="cls-2" d="M55.92,136.64c-5.38,0-9.9-2.53-14.81-6.44-8.82-7-12.86-16.45-11.37-26.57s5.86-20.38,10.1-30.34c.72-1.7,1.44-3.39,2.13-5,2.57-6.17,6.15-14.14,11-21.05l1.45-2.07c3.12-4.46,7-10,10.42-14.66l1.22.9C62.64,36,58.76,41.54,55.65,46L54.2,48.06c-4.76,6.79-8.29,14.67-10.83,20.76-.69,1.66-1.41,3.35-2.14,5.06-4.2,9.87-8.55,20.08-10,30C29.83,113.42,33.67,122.36,42,129c6.87,5.46,12.54,8,21.18,4.59,6.87-2.68,25-11.53,29.21-17.53.89-1.28,1.74-2.64,2.57-4,1.08-1.73,2.21-3.52,3.42-5.15a10.23,10.23,0,0,1,3.45-2.78,13.26,13.26,0,0,0,2-1.35c2.42-2,2.49-5.93,2.56-9.67a35.66,35.66,0,0,1,.27-4.58c.76-5,5.55-24.54,7-29.4,1.25-4.1,1-8.82.76-13.38-.05-1-.1-1.91-.14-2.85-.26-6.82-2.38-10.54-6.46-15.43-4.84-5.8-8.52-6-15.83-6.34h-.17c-.75,0-1.72-.12-2.84-.22-4.28-.37-10.74-.93-15.14.25l-.39-1.46c4.65-1.25,11.28-.68,15.66-.3,1.1.1,2.05.18,2.78.21h.17c7.27.36,11.65.58,16.92,6.88,4.21,5,6.54,9.13,6.81,16.34,0,.93.09,1.87.14,2.83.25,4.69.5,9.55-.82,13.9-1.43,4.7-6.24,24.33-7,29.18a34.63,34.63,0,0,0-.26,4.38c-.07,3.89-.15,8.31-3.09,10.8a14.62,14.62,0,0,1-2.27,1.51,8.86,8.86,0,0,0-3,2.38c-1.18,1.58-2.29,3.34-3.35,5-.84,1.34-1.71,2.72-2.61,4-4.61,6.63-23.81,15.7-29.9,18.07A21.53,21.53,0,0,1,55.92,136.64Z"/><path class="cls-2" d="M70.72,79a18.54,18.54,0,0,0-.42,4.54,34.25,34.25,0,0,0,.57,7.08c1,4.46,3.77,9.62,8,11.73,1.28.64,4.28,1.84,5.7,1.78,3.28-.13,2.7-.7,3.53-3.13,1.28-3.75,3.11-11.61,5.8-14.45"/><path class="cls-2" d="M84.49,104.85c-1.67,0-4.71-1.24-6-1.86-4.76-2.37-7.5-8.08-8.41-12.25a35,35,0,0,1-.59-7.24A19.21,19.21,0,0,1,70,78.81l1.48.3a17.83,17.83,0,0,0-.41,4.39,33.6,33.6,0,0,0,.55,6.92c.83,3.84,3.32,9.08,7.6,11.22,1.45.72,4.16,1.75,5.34,1.7,2.12-.08,2.13-.13,2.48-1.4.09-.34.2-.74.36-1.21.28-.82.6-1.88.93-3,1.26-4.19,2.82-9.4,5-11.74l1.1,1c-2,2.07-3.54,7.31-4.68,11.13-.34,1.13-.66,2.19-.95,3-.15.43-.25.8-.33,1.12-.52,1.91-1,2.41-3.88,2.52Z"/><path class="cls-2" d="M96.64,87.69c-3.52,0-23-3.11-27.08-9.18a4.05,4.05,0,0,1-.46-4l1.4.58a2.54,2.54,0,0,0,.32,2.54c3.49,5.19,21.81,8.51,25.8,8.51h.06v1.51Z"/><path class="cls-1" d="M74.34,97.52c.4,3.39,9.48,7.95,12.23,5.51,2.13-1.89-.6-4.21-2.35-4.8a5.27,5.27,0,0,0-3.49,0c-1.62.52-1.32.48-2.85-.21-1-.45-2.67-1.16-3.35,0,.32.16-.15-.11,0-.13"/><path class="cls-2" d="M84.3,104.47a11.09,11.09,0,0,1-3.86-.82c-2.8-1.07-5.74-3.09-6.62-5.16l-.36-.18.19-.33a2.84,2.84,0,0,1-.07-.37l.19,0,.09-.36.37-.09c1.16-1.13,3.16-.22,4,.15l.49.23c.68.32.68.32,1.6,0l.21-.07a6,6,0,0,1,4,0c1.2.4,3.23,1.7,3.59,3.47a2.65,2.65,0,0,1-1,2.61A4.07,4.07,0,0,1,84.3,104.47Zm-8.93-6.25c.78,1.38,3,3,5.61,4,2.3.88,4.25,1,5.08.22a1.16,1.16,0,0,0,.5-1.17A4.17,4.17,0,0,0,84,98.95a4.51,4.51,0,0,0-3,0l-.21.07A2.67,2.67,0,0,1,78,98.89l-.47-.22c-1.11-.51-1.82-.67-2.18-.49Z"/><path class="cls-1" d="M74.34,97.69c2.69-1.15,6.52-.18,7.73,2.52"/><path class="cls-2" d="M81.37,100.52c-1.06-2.37-4.5-3.1-6.74-2.13L74,97c2.94-1.26,7.29-.29,8.72,2.91Z"/><path class="cls-2" d="M86.56,81.16c3.64,2,9,.75,12.53-1,.68-.34,1.3-1.37.13-.79C96,81,91.34,81.94,88.07,80.12c-.44-.25-1.89.82-1.51,1Z"/><path class="cls-1" d="M106.93,49.64c-4.87-.13-9.6,7.66-10.42,10.16a17.94,17.94,0,0,0-.76,4.7,6.08,6.08,0,0,0,.65,3.62,6.86,6.86,0,0,0,6.4,2.94A8.16,8.16,0,0,0,109,65.89c2.14-5.54,2-12.28,1.26-13.86-.66-1.36-1.89-2.65-3.65-2.39"/><path class="cls-2" d="M102,71.87a7.65,7.65,0,0,1-6.24-3.33A6,6,0,0,1,95,64.92v-.41a18.66,18.66,0,0,1,.79-4.94c.7-2.15,5.27-10.36,10.69-10.68h0c1.81-.26,3.47.79,4.44,2.81.83,1.72,1,8.69-1.24,14.46a8.93,8.93,0,0,1-6.78,5.64A6.66,6.66,0,0,1,102,71.87Zm4.8-21.48c-4.23,0-8.77,7.14-9.58,9.64a17.17,17.17,0,0,0-.72,4.47v.42A4.69,4.69,0,0,0,97,67.71a6.12,6.12,0,0,0,5.67,2.6,7.38,7.38,0,0,0,5.57-4.69c2.09-5.4,1.92-11.95,1.28-13.26-.31-.64-1.17-2.09-2.66-2v0Z"/><path class="cls-1" d="M75.68,47c2-1.68,4.09-3.4,6.8-3.53a5.34,5.34,0,0,1,3.87.93A5.9,5.9,0,0,1,88,47.61c.82,3.63-.82,10.53-1.26,11.8-1.11,3.17-1.78,4.94-4.13,5.44a6.82,6.82,0,0,1-3.87-.4c-4.88-1.53-8.89-6.74-7-11.8a.18.18,0,0,0,0-.15S73.88,48.52,75.68,47Z"/><path class="cls-2" d="M81.45,65.74a9.42,9.42,0,0,1-2.89-.57,12.08,12.08,0,0,1-7.06-6A8.45,8.45,0,0,1,71,52.52l0-.11.14-.26c.09-.17,2.16-4.13,4.05-5.7l.08-.07c2.09-1.72,4.24-3.49,7.17-3.63a6.06,6.06,0,0,1,4.38,1.1,6.68,6.68,0,0,1,2,3.59c.87,3.84-.85,11-1.28,12.21-1.08,3.09-1.86,5.32-4.69,5.93A6.41,6.41,0,0,1,81.45,65.74ZM72.49,53a7,7,0,0,0,.37,5.57A10.53,10.53,0,0,0,79,63.72a6.13,6.13,0,0,0,3.48.39c1.91-.41,2.48-1.82,3.58-5,.39-1.12,2-7.91,1.24-11.38A5.33,5.33,0,0,0,85.87,45a4.61,4.61,0,0,0-3.35-.75c-2.42.11-4.29,1.66-6.28,3.29l-.08.07C74.69,48.83,73,52,72.57,52.69A1,1,0,0,1,72.49,53Z"/><ellipse class="cls-2" cx="103.19" cy="66.78" rx="3.57" ry="4.12"/><path class="cls-2" d="M103.19,71.65a4.91,4.91,0,1,1,4.33-4.87A4.63,4.63,0,0,1,103.19,71.65Zm0-8.23A3.41,3.41,0,1,0,106,66.78,3.13,3.13,0,0,0,103.19,63.42Z"/><circle class="cls-2" cx="81.73" cy="61.48" r="3.53"/><path class="cls-2" d="M81.73,65.77A4.28,4.28,0,1,1,86,61.48,4.29,4.29,0,0,1,81.73,65.77Zm0-7.06a2.77,2.77,0,1,0,2.77,2.77A2.77,2.77,0,0,0,81.73,58.71Z"/><path class="cls-2" d="M76.87,39.4a.93.93,0,0,1-.68-.3c-.83-.9.32-4,.89-4.75l1.17,1a6.64,6.64,0,0,0-.86,2.93.52.52,0,0,0-.3-.31.51.51,0,0,0-.43,0l.86,1.24A1.16,1.16,0,0,1,76.87,39.4Z"/><path class="cls-2" d="M77.49,39.2l-.77-1.3c2.49-1.47,6-1,9.12-.6.67.09,1.31.17,1.92.23L87.62,39c-.62-.06-1.29-.15-2-.24C82.78,38.43,79.53,38,77.49,39.2Z"/><path class="cls-2" d="M112.24,51.78a.73.73,0,0,1-.5-.19,55.43,55.43,0,0,0-5.8-4.5c-.76-.54-1.51-1.07-2.19-1.57a.76.76,0,1,1,.9-1.22c.67.5,1.41,1,2.16,1.55,1.61,1.14,3.4,2.41,4.92,3.7a2.27,2.27,0,0,0-.17-1.2.76.76,0,0,1,1.34-.7,5.38,5.38,0,0,1,.1,3.5.78.78,0,0,1-.52.58A.82.82,0,0,1,112.24,51.78Z"/><path class="cls-1" d="M207.22,198.32l-52.92-2.69-31.08,3.53,2.35.67a169.11,169.11,0,0,0,33.6,5c3,.11,5.88.73,8.94.51a78.92,78.92,0,0,0,9.2-1.51c5-1,10-1.73,15-2.49,2.39-.37,4.8-.51,7.19-.71a33,33,0,0,1,4.7-.5"/><path class="cls-2" d="M166.76,205.95a42,42,0,0,1-4.3-.29c-1.08-.11-2.2-.23-3.31-.27a168.12,168.12,0,0,1-33.7-5.05l-4.87-1.39,33.7-3.83h0l52.92,2.69-.05,1-52.88-2.69-28.44,3.23a166.76,166.76,0,0,0,33.32,5c1.14,0,2.28.16,3.37.27a31.9,31.9,0,0,0,5.51.24,63.12,63.12,0,0,0,7.67-1.21l1.47-.29c4.45-.87,9-1.57,13.45-2.25l1.56-.24c1.87-.29,3.77-.44,5.61-.58l1.61-.13c.55,0,1.11-.14,1.7-.23a14,14,0,0,1,3.08-.27l-.07,1a13.15,13.15,0,0,0-2.85.26c-.58.1-1.19.19-1.77.24l-1.62.13c-1.82.14-3.7.29-5.53.57l-1.56.24c-4.42.68-9,1.38-13.41,2.25l-1.46.29a63.73,63.73,0,0,1-7.8,1.23C167.69,205.93,167.22,205.95,166.76,205.95Z"/><path class="cls-2" d="M148.93,199.16a53.33,53.33,0,0,1,8.24-.5c.86,0,6.73.1,5.92,1.56-.59,1.08-6.28.45-7.48.45s-6.44-.3-6-1"/><path class="cls-2" d="M160,201.35c-.9,0-2,0-3.18-.12-.52,0-.93-.06-1.17-.06-.06,0-5.86-.07-6.45-1.11a.64.64,0,0,1-.08-.41H149l-.16-1a54.3,54.3,0,0,1,8.32-.51c1.68,0,5.66.13,6.37,1.32a1,1,0,0,1,0,1C163.17,201.12,162,201.35,160,201.35Zm-10-1.83c.57.35,4.11.65,5.6.65.25,0,.69,0,1.23.06,3.56.21,5.51.13,5.81-.26-.23-.42-2.8-.81-5.48-.81A57.9,57.9,0,0,0,150,199.52Zm-.54.07.56.34a.36.36,0,0,0,0-.41Z"/><path class="cls-1" d="M137.25,187.57c-1,.75-1.4,2.62-1.74,3.78a17.89,17.89,0,0,0-.44,4.2c-.08,1.56-.43,2.81,1.34,3.19s2.47-.71,1.89-2.35a13.46,13.46,0,0,1-.46-4.62v-2.52a3.85,3.85,0,0,0-.12-1.26c-.24-.42-.63-.39-.82.17"/><path class="cls-2" d="M165.31,200.34c1.78-.54,4.64-.44,6.55-.5a24.61,24.61,0,0,1,6.87.63c-2.21,2-4.78,1.58-6.74,1.58a23,23,0,0,1-7.72-1.07,2.35,2.35,0,0,1,.92-.44"/><path class="cls-2" d="M173.92,202.58l-1,0-.89,0a23.39,23.39,0,0,1-7.89-1.1l-.82-.29.66-.57a2.81,2.81,0,0,1,1.28-.56l-.05-.17a21.52,21.52,0,0,1,5.41-.5l1.28,0a25.25,25.25,0,0,1,7,.66l.82.27-.64.58A7.12,7.12,0,0,1,173.92,202.58Zm-8.45-1.77a24.36,24.36,0,0,0,6.51.72l.92,0a7.9,7.9,0,0,0,4.69-.86,29,29,0,0,0-5.72-.36l-1.29,0A21.41,21.41,0,0,0,165.47,200.81Zm-.27.21Zm-.05-.3.3.09-.2-.67Z"/><path class="cls-2" d="M130.66,198.45c2.42-.87,6.15-.49,8.76-.76.87-.09,3.91.19,4.14.79,1,2.42-12.07.44-13.78,0"/><path class="cls-2" d="M140.14,200.17A69.42,69.42,0,0,1,129.65,199l.25-1,.65.15-.06-.17a19.63,19.63,0,0,1,5.95-.66c1.06,0,2.06,0,2.93-.12.34,0,4.21,0,4.66,1.1a1,1,0,0,1-.17,1.09C143.35,200,141.92,200.17,140.14,200.17Zm-7.46-1.66c4,.58,10,1,10.42.2a9.62,9.62,0,0,0-3.64-.52c-.91.09-1.93.11-3,.12A34.72,34.72,0,0,0,132.69,198.51Z"/><path class="cls-2" d="M158.67,196.14c-1.82-.68-6.81-.58-8.39.46,2,.94,4.37.6,6.54.71,1.74.09,4,.57,5.4-.33-1.23-.88-3.39-.5-4.9-.5"/><path class="cls-2" d="M159.84,198c-.64,0-1.28-.06-1.9-.12-.39,0-.78-.07-1.14-.09-.55,0-1.12,0-1.68,0a11.5,11.5,0,0,1-5-.73l-.81-.38.75-.5c1.83-1.21,7-1.2,8.84-.51l-.09.25a6.06,6.06,0,0,1,3.76.65l.61.44-.64.4A5,5,0,0,1,159.84,198Zm-1.37-1.08a10.7,10.7,0,0,0,2.25,0A12.15,12.15,0,0,0,158.46,196.94Zm-2.88-.16c.43,0,.85,0,1.27,0l.48,0v-.5a17,17,0,0,0-5.57.22,15.61,15.61,0,0,0,3.35.22Z"/><path class="cls-2" d="M176.48,197.48c-3.22,0-8.8-1.4-11.62.32,1,1.76,11.62,2,11.42.38a5.08,5.08,0,0,0-3.16,0"/><path class="cls-2" d="M171.69,199.76c-3,0-6.57-.51-7.26-1.7l-.25-.43.42-.26c2.16-1.32,5.66-1,8.75-.64,1.16.12,2.25.23,3.14.24v.74l.26.09,0,.31c0,.37-.1.88-1.09,1.21A14.46,14.46,0,0,1,171.69,199.76Zm-5.89-1.85a14.07,14.07,0,0,0,4.5.81,17.53,17.53,0,0,0,4.84-.27,4.36,4.36,0,0,0-1.85.18l-.33-.92C170.43,197.45,167.66,197.19,165.8,197.91Z"/><path class="cls-2" d="M189.92,197.14c-1.86.61-11-.87-10.56,2.66,2.95.85,6.48.7,9.55.87,1.74.09,4.93.42,5.73-1.51-1.12-1.31-2.92-1.18-4.52-1.35-1.25-.13-3.21-.72-4.23-.33"/><path class="cls-2" d="M190.81,201.25c-.56,0-1.09,0-1.54-.06l-.38,0c-.73,0-1.49-.06-2.26-.08a30.41,30.41,0,0,1-7.41-.8l-.32-.09,0-.34a2,2,0,0,1,.5-1.63c1.27-1.42,4.71-1.42,7.47-1.42a14,14,0,0,0,2.93-.15l.2.62.21,0,.81.07c1.39.1,3,.21,4,1.46l.2.23-.12.29C194.45,201,192.52,201.25,190.81,201.25Zm-10.95-1.83a31.8,31.8,0,0,0,6.8.67c.78,0,1.54,0,2.28.08l.38,0c1.58.09,3.9.23,4.7-.94a5.08,5.08,0,0,0-3.11-.87l-.85-.07c-.37,0-.81-.12-1.27-.2a6.63,6.63,0,0,0-2.73-.16l0-.12c-2.3,0-5,.11-5.91,1.08A1,1,0,0,0,179.86,199.42Z"/><path class="cls-1" d="M23.43,61.06c-3.28,0-6.18,3.07-8.4,5.17a11.78,11.78,0,0,0-3.52,9.27C12.11,82.15,19.34,87,25.62,84c4.47-2.13,7.16-6.13,8.74-10.71,1.13-3.29,1.91-6.66-.8-9a14.77,14.77,0,0,0-2.76-2.36c-1.12-.55-2.44-.11-3.49-.71"/><path class="cls-2" d="M21.66,85.69a10.5,10.5,0,0,1-5.21-1.41,11.25,11.25,0,0,1-5.7-8.7,12.54,12.54,0,0,1,3.76-9.89l.62-.59c2.22-2.13,5-4.78,8.23-4.78h.08l0,1.51h-.06c-2.65,0-5.16,2.42-7.19,4.36l-.63.6a11,11,0,0,0-3.29,8.66A9.87,9.87,0,0,0,17.2,83a8.64,8.64,0,0,0,8.09.39c3.82-1.82,6.63-5.27,8.35-10.27,1.26-3.66,1.6-6.31-.59-8.22-.26-.23-.54-.5-.82-.78a7.64,7.64,0,0,0-1.78-1.47A3.78,3.78,0,0,0,29,62.37a4.59,4.59,0,0,1-2.11-.48l.75-1.31a3.31,3.31,0,0,0,1.44.28,5.05,5.05,0,0,1,2,.41A8.79,8.79,0,0,1,33.3,63c.26.25.5.5.74.71,3.39,3,1.85,7.44,1,9.85-1.86,5.39-4.93,9.14-9.13,11.14A9.92,9.92,0,0,1,21.66,85.69Z"/><path class="cls-1" d="M21.42,62.91c-1.69,1.4-3.87,2.78-4.92,5.38s-1.55,6.25-.08,8.56c4,6.3,10.81,7.49,14.7,4.66"/><path class="cls-2" d="M26.4,83.72a10.41,10.41,0,0,1-2-.19,13.38,13.38,0,0,1-8.67-6.27c-1.56-2.47-1.12-6.43,0-9.25a12.3,12.3,0,0,1,4.31-5l.83-.67,1,1.16-.86.69a10.92,10.92,0,0,0-3.84,4.39c-1,2.39-1.42,5.87-.15,7.88A11.89,11.89,0,0,0,24.73,82a7.67,7.67,0,0,0,5.95-1.14l.89,1.22A8.77,8.77,0,0,1,26.4,83.72Z"/><path class="cls-2" d="M51.92,75.08c5.18,6.54,10.38,11.58,13.65,19.58a42.9,42.9,0,0,1,3.36,19.51C63.47,115.5,56.5,92.25,53.71,87.9c-2.45-3.81-5.55,1-8.35.8-5.64-.36-12.28-1.08-13.37,5.92-1.69-7.86-1.5-15.78,4.94-22.46"/><path class="cls-2" d="M68.45,115c-3.92,0-7.65-8.37-12.06-19.24a63.35,63.35,0,0,0-3.31-7.45c-1.11-1.73-2.14-1.25-4.17-.1a6.83,6.83,0,0,1-3.59,1.25l-.64,0c-6.44-.43-11.06-.29-11.94,5.32l-.63,4-.86-4C29.9,88.52,29,79.32,36.38,71.64l1.09,1C32.71,77.63,31,83.52,32.19,91.53c2.35-4.3,7.94-3.93,12.57-3.62l.64,0a5.67,5.67,0,0,0,2.75-1.05c1.8-1,4.26-2.42,6.19.59a61.89,61.89,0,0,1,3.44,7.69c2.73,6.73,7.21,17.75,10.42,18.27a42,42,0,0,0-3.34-18.51c-2.49-6.09-6.16-10.48-10-15.13-1.14-1.37-2.32-2.78-3.5-4.26l1.19-.94c1.16,1.47,2.34,2.87,3.47,4.23,4,4.74,7.71,9.22,10.28,15.53a43.55,43.55,0,0,1,3.42,19.84l0,.56-.55.13A2.78,2.78,0,0,1,68.45,115Z"/><polyline class="cls-1" points="49.39 91.47 78.87 193.78 84.92 189.25 54.93 87.94"/><polygon class="cls-2" points="78.45 195.05 48.66 91.68 50.12 91.26 79.29 192.52 84.05 188.96 54.21 88.16 55.66 87.73 85.79 189.54 78.45 195.05"/><path class="cls-1" d="M97,225a21.93,21.93,0,0,1-10.08,2c-7.79-.49-13.91-5.93-18.59-11.9-2.77-3.54-5.69-7.39-7-11.75-.57-1.88-1.11-4.47-.16-6.33,1.28-2.51,4.17-2.13,6.68-3a11.13,11.13,0,0,0,6.38-4.51,11.71,11.71,0,0,1,6.21-3.81c4.63-1.21,5.63,1.72,8.78,4.14,3.85,3,9-.2,11.42,3.61a25.48,25.48,0,0,1,3.94,13.61c0,6.79-1.95,11.08-4.54,16.88"/><path class="cls-2" d="M87.94,227.84q-.53,0-1,0c-6.79-.43-13-4.41-19.14-12.19-3-3.84-5.82-7.64-7.14-12-.91-3-1-5.25-.11-6.9,1.08-2.12,3.07-2.5,5-2.85a16,16,0,0,0,2.11-.49,10.37,10.37,0,0,0,6-4.25A12.35,12.35,0,0,1,80.25,185c3.87-1,5.6.69,7.43,2.48a22,22,0,0,0,2,1.8c1.6,1.24,3.52,1.28,5.38,1.32,2.31.05,4.69.11,6.21,2.48a26.3,26.3,0,0,1,4.06,14c0,6.88-2,11.36-4.52,17l-.08.17-1.38-.62.08-.17c2.55-5.71,4.39-9.84,4.39-16.4a24.77,24.77,0,0,0-3.82-13.2c-1.08-1.69-2.8-1.73-5-1.78-2,0-4.28-.1-6.27-1.64a23.76,23.76,0,0,1-2.14-1.92c-1.78-1.74-2.95-2.89-6-2.09a11,11,0,0,0-5.81,3.54,11.87,11.87,0,0,1-6.74,4.76,17.12,17.12,0,0,1-2.31.54c-1.78.33-3.19.59-3.93,2.05-.64,1.26-.57,3.2.21,5.77,1.25,4.1,4,7.78,6.89,11.5,5.81,7.42,11.71,11.21,18,11.61a21,21,0,0,0,9.71-1.95l.65,1.37A23.09,23.09,0,0,1,87.94,227.84Z"/><path class="cls-1" d="M79.63,229.32c1.11-2.3,2.54-1.76,4.35-3,.74-.49,1.09-1.62,1.94-2.1s2.37,0,3-.54c1.24-1,1.19-3.89,3.83-3.73,1.77.11,1.38,2.32,2.61,2.81.55.22,1.86-.69,2.55-.71a10.85,10.85,0,0,1,2.91.66c1.85.48,7.38-.55,7.09,2.24,2.51-.12,3.36.75,4,3.06"/><path class="cls-2" d="M79.62,229.8c1-1.55,2-1.59,3.47-2.48,1-.6,1.21-1.25,2.1-1.92s1.66-.52,2.63-.89c2.09-.81,3.5-5.71,6-3.37.62.57.49,1.87,1.45,2.17.7.22,1.47-.5,2.13-.59a6.88,6.88,0,0,1,2.38.26c1.77.35,7.8-.11,8,2.27,0,0,0,.25.08.26,2.3,0,3.25.81,3.94,3,.06.18.24-.65.17-.86a4.13,4.13,0,0,0-2.67-3.05c-.43-.2-1.08-.44-1.37-.63s-.2-.64-.73-.91c-1.61-.82-3.45-.46-5.18-.64-.76-.08-1.4-.28-2.14-.42a6,6,0,0,0-2-.38,9,9,0,0,0-1.8.63c-2.09-.13-1.44-2.42-3.36-2.73-1.69-.27-2,1.13-2.83,2.12-1.28,1.61-1.61,1.46-3.3,2a3,3,0,0,0-1.43.85A6.57,6.57,0,0,1,84,225.87a15.74,15.74,0,0,1-2.4,1,4.69,4.69,0,0,0-1.94,1.91c-.15.24,0,1,0,1Z"/><path class="cls-2" d="M102.64,227.13a1.71,1.71,0,0,0-1.14-.85,3.33,3.33,0,0,0-2.55.39l-.84-1.25a4.82,4.82,0,0,1,3.78-.6,3.19,3.19,0,0,1,2.11,1.65Z"/><path class="cls-2" d="M89.22,229.23a2.83,2.83,0,0,1,1-3.09,3.06,3.06,0,0,1,3.46.3l-.86,1.24a1.62,1.62,0,0,0-1.75-.28,1.39,1.39,0,0,0-.35,1.51Z"/><path class="cls-1" d="M109.11,80.89c5.5,4.74,8.75,11.72,10.57,18.41,1,3.57,2.37,7.83.45,11.52-1.58,3-5,5.09-7.8,6.8-7.31,4.45-16.58,8-24.89,8.38-3.72.18-8.63-6.45-4.28-9.07,3.14-1.89,6.91-2.3,10.08-4.54s11.23-5.35,13.1-8.57A14.35,14.35,0,0,0,107.6,94"/><path class="cls-2" d="M87.29,126.76c-2.7,0-5.55-2.8-6.35-5.39a4.14,4.14,0,0,1,1.82-5.09,25.42,25.42,0,0,1,4.71-2,21.37,21.37,0,0,0,5.33-2.47,44.77,44.77,0,0,1,4.39-2.5c3.28-1.72,7.35-3.87,8.5-5.83a13.69,13.69,0,0,0,1.19-9.22l1.44-.46A15,15,0,0,1,107,104.2c-1.36,2.34-5.47,4.5-9.1,6.41a44,44,0,0,0-4.22,2.4A22.57,22.57,0,0,1,88,115.66a23.84,23.84,0,0,0-4.43,1.91,2.68,2.68,0,0,0-1.16,3.35c.68,2.22,3.08,4.32,4.9,4.32h.11c7.46-.37,16.63-3.46,24.54-8.27l.11-.06c2.79-1.7,6-3.62,7.41-6.44,1.65-3.18.61-6.92-.3-10.23L119,99.5c-1.48-5.45-4.48-13-10.33-18l1-1.15c4.86,4.19,8.6,10.68,10.81,18.78l.2.74c.94,3.4,2.11,7.63.19,11.33-1.66,3.19-5.16,5.32-8,7l-.11.06c-8.23,5-17.44,8.1-25.25,8.49Z"/><path class="cls-2" d="M110.29,76.69c.27,1,1.54,1.31,2.13,2.25a8.51,8.51,0,0,1,1.32,3,25.11,25.11,0,0,1,.53,6.16c-.19,3.93-2.71,7.81-4.63,11.11a30.55,30.55,0,0,1-9.73,10.17,68.93,68.93,0,0,1-6.43,4.07c-1.64.9-3.6,2.67-5.45,3a5,5,0,0,0-.69.26,8.92,8.92,0,0,0-1.54-1.72c-.66-.52,2.91,1.37,2.31.9.82-.69,5.94-5.07,7.73-7.06,2.71-3,11.15-17,12.43-21.34C109.15,84.42,110.29,76.69,110.29,76.69Z"/><path class="cls-2" d="M87,117.54l-.32-.45a8,8,0,0,0-1.4-1.56.8.8,0,0,1-.25-1.08c.39-.62.82-.41,2.24.26l.61.28c1.21-1,5.7-4.9,7.35-6.73,2.56-2.83,11-16.79,12.27-21,.86-2.94,2-10.57,2-10.65l.53-3.59,1,3.51c.08.3.36.52.82.85a4.49,4.49,0,0,1,1.22,1.19,9.15,9.15,0,0,1,1.42,3.24,25.88,25.88,0,0,1,.55,6.35c-.18,3.71-2.28,7.28-4.13,10.42l-.6,1a31.17,31.17,0,0,1-10,10.41,70.64,70.64,0,0,1-6.5,4.11c-.5.27-1,.63-1.6,1a10.88,10.88,0,0,1-4.09,2l-.23.09a3.06,3.06,0,0,1-.36.14Zm23.74-39.09c-.39,2.45-1.14,7-1.79,9.21-1.31,4.51-9.9,18.65-12.6,21.63-.95,1.05-2.78,2.73-4.43,4.2.39-.26.78-.5,1.15-.71a69.36,69.36,0,0,0,6.35-4A29.78,29.78,0,0,0,109,98.81l.61-1c1.76-3,3.76-6.39,3.92-9.73a24.12,24.12,0,0,0-.52-6,7.75,7.75,0,0,0-1.22-2.74,3.27,3.27,0,0,0-.84-.78Z"/><path class="cls-1" d="M28.6,81.14c-5-.13-6.93-2.37-8.2-4.06a12.29,12.29,0,0,1-2.14-6.8C18,66,20.4,61.25,23.08,58a24.54,24.54,0,0,1,13.17-8.59c4.4-1.17,9.5-1.9,14-.76,4.28,1.08,7.27,2.73,9.36,6.8,1.73,3.36,3.5,6.6,3.49,10.49,0,6.35-9.11,17.22-15,9.74a6.7,6.7,0,0,0-6.42-2.56A15,15,0,0,0,37.8,74c-1.08.44-1.79,1.46-3,1.5.14,2.13,1.35,4.44-1.41,5.27A15.91,15.91,0,0,1,28.6,81.14Z"/><path class="cls-2" d="M29.82,81.94c-.67,0-1.15,0-1.26,0C23,81.75,20.9,79,19.8,77.53a12.91,12.91,0,0,1-2.29-7.22c-.2-4,1.66-8.75,5-12.84a25.38,25.38,0,0,1,13.56-8.85c5.63-1.5,10.48-1.76,14.4-.77,3.67.93,7.41,2.44,9.85,7.19l.26.51c1.63,3.17,3.32,6.45,3.32,10.33,0,4.32-4,10.92-8.91,12.63-2.81,1-5.46.11-7.46-2.42a6,6,0,0,0-5.75-2.28,14.16,14.16,0,0,0-3.67.86,5.21,5.21,0,0,0-1,.6,5.4,5.4,0,0,1-1.48.82c0,.22.07.44.11.66.28,1.64.67,3.88-2.13,4.72A14,14,0,0,1,29.82,81.94ZM45.35,48.79a35,35,0,0,0-8.9,1.31,23.91,23.91,0,0,0-12.78,8.34c-3.09,3.8-4.83,8.21-4.65,11.8a11.45,11.45,0,0,0,2,6.39c1.38,1.84,3.11,3.65,7.61,3.76h0A15.25,15.25,0,0,0,33.17,80c1.39-.42,1.4-1.12,1.07-3a14.22,14.22,0,0,1-.2-1.49L34,74.76l.78,0A2.79,2.79,0,0,0,36.23,74a6.52,6.52,0,0,1,1.28-.76,15.83,15.83,0,0,1,4.08-1,7.48,7.48,0,0,1,7.1,2.84c1.62,2,3.57,2.7,5.78,1.93,4.17-1.45,7.89-7.47,7.9-11.2,0-3.52-1.53-6.49-3.15-9.64L59,55.75c-2-4-5-5.44-8.87-6.41A19.34,19.34,0,0,0,45.35,48.79Z"/><path class="cls-1" d="M38,77.86c2.1,3,8.42,1.75,10.37-.85A21.06,21.06,0,0,0,52,66.4,29.34,29.34,0,0,0,52.16,62,12.92,12.92,0,0,0,51,58.08"/><path class="cls-2" d="M42.18,80.35h-.12a5.53,5.53,0,0,1-4.63-2l1.23-.87a4.25,4.25,0,0,0,3.42,1.41h.1c2.24,0,4.65-1,5.63-2.27,1.89-2.53,3-5.88,3.47-10.24A28.46,28.46,0,0,0,51.41,62a8.59,8.59,0,0,0-.75-2.8c-.12-.29-.23-.59-.34-.89l1.42-.51c.1.29.21.57.32.85a9.92,9.92,0,0,1,.85,3.28,29.9,29.9,0,0,1-.13,4.53c-.47,4.65-1.7,8.24-3.77,11C47.76,79.15,44.9,80.35,42.18,80.35Z"/><path class="cls-1" d="M39.94,58.84c.14,1.24.77,2.64,1,3.91.21,1,.52,2.1.63,3.15A20.76,20.76,0,0,1,41.3,72a10.88,10.88,0,0,1-2.27,5c-1.73,2-2.28.75-3.9-.57-.93-.75-2.39-1.37-3.16-2.26-.93-1.08-.85-2.57-.72-3.94a26.3,26.3,0,0,0-.89-9.2"/><path class="cls-2" d="M37.45,78.88a3.25,3.25,0,0,1-2.07-1.14c-.22-.2-.46-.42-.73-.64a11.6,11.6,0,0,0-1.2-.8,8.56,8.56,0,0,1-2.06-1.56c-1.2-1.4-1-3.35-.89-4.51a25.55,25.55,0,0,0-.86-8.92l1.46-.41A27.15,27.15,0,0,1,32,70.38c-.13,1.3-.19,2.53.54,3.37A7.54,7.54,0,0,0,34.24,75a13,13,0,0,1,1.36.91c.3.24.56.48.8.69.43.39.85.79,1.07.75s.39-.09,1-.78a10.27,10.27,0,0,0,2.11-4.7A19.93,19.93,0,0,0,40.83,66a16.1,16.1,0,0,0-.38-2c-.08-.36-.17-.71-.24-1.07a16.18,16.18,0,0,0-.45-1.61,13.1,13.1,0,0,1-.58-2.35l1.5-.17a12,12,0,0,0,.52,2.07,17.38,17.38,0,0,1,.49,1.77c.07.34.15.68.23,1a17.07,17.07,0,0,1,.41,2.2,21.5,21.5,0,0,1-.3,6.38,11.63,11.63,0,0,1-2.44,5.36,3.07,3.07,0,0,1-2,1.3Z"/><path class="cls-1" d="M56.19,77.36c.76.73,5.18-5.66,5.54-6.3a14.29,14.29,0,0,1-1.89,9.7c-1.1,3.42-4.68,3.39-7.71,4.38-3.77,1.24-6.4,1.92-10.93,1-3.91-.78-7-3.27-9.61-6.5a17,17,0,0,1-4.12-10.86l-.25.38c-.26-.77-.23-2.31.76-2.53s1.07.8,1.35,1.52c.49,1.25.83,2.57,1.42,3.78,1.74,3.61,4.82,5.7,8.22,7.65s8.06,1,11.56.31a22.36,22.36,0,0,0,5.67-2.55"/><path class="cls-2" d="M45,87.32a20.22,20.22,0,0,1-4-.43c-3.67-.74-7-3-10-6.76a18.17,18.17,0,0,1-4.23-9.92l-.27-.79a3.54,3.54,0,0,1,.15-2.63,1.73,1.73,0,0,1,1.15-.88c1.55-.34,1.93,1,2.09,1.58,0,.14.08.28.13.4.19.49.36,1,.53,1.48a19.55,19.55,0,0,0,.87,2.25c1.72,3.56,4.85,5.57,7.92,7.33,3.22,1.85,8.3.79,11,.22a21.86,21.86,0,0,0,5.4-2.44l.51-.34.17.16c1.12-.82,4.15-5,4.63-5.87l1.07-1.87.33,2.13a15.1,15.1,0,0,1-1.94,10.12c-1,3-3.74,3.67-6.15,4.25-.67.16-1.37.33-2,.55A22.35,22.35,0,0,1,45,87.32Zm-16.83-20v1.42a16.16,16.16,0,0,0,4,10.39C35,82.71,38,84.75,41.35,85.41c4.38.88,6.9.21,10.55-1,.71-.23,1.43-.41,2.14-.58,2.34-.57,4.37-1.06,5.09-3.32l.06-.13a13.92,13.92,0,0,0,2-7.16C59.8,75.18,57.62,78,56.5,78.16h-.18a22.72,22.72,0,0,1-5.64,2.47c-2.93.61-8.37,1.74-12.09-.39-3.12-1.79-6.62-4-8.53-8a20.85,20.85,0,0,1-.94-2.42c-.16-.47-.32-.95-.5-1.41-.07-.17-.12-.36-.17-.54a2.56,2.56,0,0,0-.19-.54Z"/><ellipse class="cls-1" cx="27.46" cy="63.88" rx="2.52" ry="5.17" transform="translate(-10.68 5.74) rotate(-10)"/><path class="cls-2" d="M28.14,69.74a3.11,3.11,0,0,1-2.4-1.51,9.31,9.31,0,0,1-1.49-3.78c-.59-3.32.36-6.08,2.2-6.4S30.1,60,30.69,63.31a9.31,9.31,0,0,1-.11,4.07,2.9,2.9,0,0,1-2.09,2.34A2,2,0,0,1,28.14,69.74ZM26.78,59.53H26.7c-.71.13-1.44,2-1,4.65A7.9,7.9,0,0,0,27,67.34c.44.6.91.94,1.28.88s.69-.55.9-1.26a7.88,7.88,0,0,0,.07-3.39C28.75,61,27.51,59.53,26.78,59.53Z"/><ellipse class="cls-1" cx="25.95" cy="63.88" rx="2.52" ry="5.17" transform="translate(-10.7 5.48) rotate(-10)"/><path class="cls-2" d="M26.62,69.74a3.11,3.11,0,0,1-2.4-1.51,9.31,9.31,0,0,1-1.49-3.78c-.59-3.32.36-6.08,2.2-6.4a2.91,2.91,0,0,1,2.76,1.48,10.16,10.16,0,0,1,1.38,7.85A2.9,2.9,0,0,1,27,69.71,2,2,0,0,1,26.62,69.74ZM25.27,59.53h-.08c-.71.13-1.44,2-1,4.65a7.89,7.89,0,0,0,1.23,3.16c.44.6.92.94,1.27.88s.69-.55.9-1.26a7.89,7.89,0,0,0,.07-3.39h0a7.89,7.89,0,0,0-1.23-3.16A1.82,1.82,0,0,0,25.27,59.53Z"/><path class="cls-1" d="M47.5,89.46c-.25-.7-.86-1.65-.75-2.4a7.93,7.93,0,0,1,2.92-3.75c1.47-.74,3.72-1.38,4.6.35.45.89.34,1.94.69,2.87a6.52,6.52,0,0,1,.58,2.53,10.16,10.16,0,0,0-4.14,1.5c-.83.44-2.82,2.68-3.11.87C48.3,91.43,47.82,90.37,47.5,89.46Z"/><path class="cls-2" d="M48.87,92.88a1.25,1.25,0,0,1-.46-.09,1.41,1.41,0,0,1-.84-1.14c-.12-.27-.5-1.15-.78-1.94h0c-.06-.18-.15-.37-.25-.57A4.08,4.08,0,0,1,46,86.95a8.54,8.54,0,0,1,3.33-4.31c2.63-1.33,4.73-1.07,5.62.68a5.66,5.66,0,0,1,.48,1.81,5.53,5.53,0,0,0,.24,1.14,7.21,7.21,0,0,1,.63,2.81v.72l-.72,0a9.35,9.35,0,0,0-3.7,1.36l-.11.06a6.22,6.22,0,0,0-.67.49A4.17,4.17,0,0,1,48.87,92.88Zm3.44-9.57A5.8,5.8,0,0,0,50,84a7.52,7.52,0,0,0-2.51,3.18,3.26,3.26,0,0,0,.42,1.35c.11.25.22.48.29.69h0c.31.88.77,1.91.78,1.92l.06.19h0a8,8,0,0,0,1.11-.78,6.5,6.5,0,0,1,.9-.64l.11-.06a12.72,12.72,0,0,1,3.58-1.45,8,8,0,0,0-.47-1.56,6.81,6.81,0,0,1-.34-1.49A4.4,4.4,0,0,0,53.6,84,1.32,1.32,0,0,0,52.32,83.31Z"/><path class="cls-1" d="M79.88,115.92c.81-2.36,5.35-1.28,6.87-.06,1.85,1.48,2.51,4,2.71,6.11.55,5.84-3.55,9.36-9.32,8.82"/><path class="cls-2" d="M81.27,131.59q-.6,0-1.21-.06L80.2,130a8.11,8.11,0,0,0,6.64-2,7.22,7.22,0,0,0,1.86-6c-.25-2.62-1.06-4.5-2.43-5.59a6.62,6.62,0,0,0-4.77-1,1.18,1.18,0,0,0-.91.76l-1.43-.49a2.7,2.7,0,0,1,1.91-1.72,8.06,8.06,0,0,1,6.14,1.32c1.7,1.36,2.7,3.59,3,6.63a8.67,8.67,0,0,1-2.29,7.2A9.18,9.18,0,0,1,81.27,131.59Z"/><path class="cls-1" d="M67.19,108.85c3.24.93,4.35,3.29,6.9,4.86,3.35,2.05,6.57,1.13,7.86,5.93.91,3.4,1.42,7.83-.76,10.9a21.81,21.81,0,0,1-7.93,6.23A12.32,12.32,0,0,1,68,138.1c-1.78,0-3.86-.8-5.54.5-4.11,3.18-.39,2.5-1.76,5.46-.76,1.63,0,.57-1.51.34s-2.4.43-2.84-1c-1.2-3.79-.57-8.14-1.71-11.89a31.57,31.57,0,0,1-1-11.6C54.41,112.46,58.95,106.49,67.19,108.85Z"/><path class="cls-2" d="M60.3,145.7a.84.84,0,0,1-.64-.33c-.06-.07-.15-.18-.55-.24a5.44,5.44,0,0,0-1,0,2,2,0,0,1-2.39-1.44,26.32,26.32,0,0,1-.92-6.24,25.37,25.37,0,0,0-.79-5.66,32.4,32.4,0,0,1-1-11.89c.47-4.79,2.44-8.69,5.39-10.69,2.48-1.69,5.63-2.05,9.09-1.06h0a10.93,10.93,0,0,1,4.7,3,14.72,14.72,0,0,0,2.39,1.95,13.72,13.72,0,0,0,2.92,1.25c2.21.74,4.29,1.44,5.28,5.12.92,3.41,1.51,8.18-.87,11.54a22.78,22.78,0,0,1-8.22,6.47,13.06,13.06,0,0,1-5.56,1.4,14.91,14.91,0,0,1-1.65-.12c-1.27-.15-2.47-.29-3.43.46-1.91,1.47-1.77,1.74-1.55,2.18a3,3,0,0,1,0,3c-.12.26-.2.45-.26.59-.13.31-.28.66-.73.73Zm-1.82-2.12a5.53,5.53,0,0,1,.86.06,3.07,3.07,0,0,1,.67.18l0-.09a1.52,1.52,0,0,0,0-1.68c-.63-1.23-.5-2.15,2-4.06,1.45-1.12,3.09-.93,4.53-.77a11.24,11.24,0,0,0,1.46.11,11.58,11.58,0,0,0,4.92-1.25,21.21,21.21,0,0,0,7.64-6c2-2.88,1.48-7.17.64-10.27-.78-2.9-2.26-3.4-4.3-4.08a15.08,15.08,0,0,1-3.22-1.4,16,16,0,0,1-2.64-2.13A9.6,9.6,0,0,0,67,109.58c-3.07-.88-5.7-.59-7.83.86-2.58,1.75-4.31,5.25-4.73,9.59a30.82,30.82,0,0,0,1,11.31,26.89,26.89,0,0,1,.85,6,25.22,25.22,0,0,0,.85,5.89c.13.41.13.41.9.38Z"/><path class="cls-1" d="M59,121.78c-8.5-.27-13.1,15.06-4.79,17.41"/><path class="cls-2" d="M54,139.91c-3.66-1-5.49-4.49-4.79-9,.77-5,4.68-10.06,9.81-9.88l0,1.51c-4.34-.13-7.59,4.26-8.27,8.6-.22,1.41-.6,6.11,3.71,7.33Z"/><path class="cls-1" d="M65.26,129.27c-3-.48-7.36.72-8.9,3.19-2,3.15-3.06,7.31-.74,10.23,1.64,2.07,6.48,4.06,8.8,2.2-.34-1.85-1.71-2.49-.67-5.38.41-1.13,1.35-1.34,2.35-2"/><path class="cls-2" d="M62,146.39a7.12,7.12,0,0,1-.79,0A10.13,10.13,0,0,1,55,143.17c-2.19-2.75-1.93-6.9.69-11.1,1.71-2.75,6.38-4,9.66-3.54L65.15,130c-2.76-.43-6.77.63-8.14,2.84-.85,1.36-3.41,6.06-.79,9.36a8.56,8.56,0,0,0,5.16,2.62,4,4,0,0,0,2.18-.29,8,8,0,0,0-.35-.85,5.05,5.05,0,0,1-.17-4.44,3.59,3.59,0,0,1,1.93-2c.23-.13.47-.26.71-.43l.84,1.25c-.28.19-.55.34-.82.49-.7.39-1.05.61-1.25,1.15a3.61,3.61,0,0,0,.13,3.31,6.93,6.93,0,0,1,.57,1.68l.08.44-.35.28A4.53,4.53,0,0,1,62,146.39Z"/><path class="cls-1" d="M59.34,121.84c-3,.91-6.59,1.93-8.14,4.66a14.63,14.63,0,0,0-1.56,4c-3.11.5-3-2.13-3-2.9,0-2.9,1.83-7.25,3.47-9.32,2.77-3.53,7-3.89,11.66-3.91"/><path class="cls-2" d="M48.9,131.35a3,3,0,0,1-2-.66,3.81,3.81,0,0,1-1.05-3,19.06,19.06,0,0,1,3.63-9.85c3-3.84,7.71-4.18,12.25-4.19v1.51c-4.34,0-8.46.3-11.06,3.62a17.86,17.86,0,0,0-3.3,8.86,2.62,2.62,0,0,0,.52,1.91,1.59,1.59,0,0,0,1.11.29,17.52,17.52,0,0,1,1.53-3.71c1.66-2.91,5.34-4,8.31-4.93l.27-.08.44,1.45-.27.08c-2.85.86-6.07,1.84-7.43,4.23a14.08,14.08,0,0,0-1.47,3.76l-.07.56-.55.09A5.31,5.31,0,0,1,48.9,131.35Z"/><path class="cls-1" d="M127.09,202.18c-.63,2-.16,5.13.33,7.07.63,2.51,1.5,3.43,4,4l-.67-.17c0,3,3,3.08,5.88,3.19,1.57.06,6,.1,6.06-2.45l.47-.09c4.25-1.11,2.15-7.37,3-10.56"/><path class="cls-2" d="M137.53,216.82l-.88,0c-2.73-.11-6.11-.24-6.35-3.33-1.94-.66-2.78-1.75-3.37-4.1-.27-1.09-1.11-4.85-.32-7.34l1,.3c-.56,1.78-.2,4.67.34,6.79s1.25,3,3.26,3.55l.42.1-.23.95c.37,1.73,2.4,1.95,5.33,2.06,2.52.11,4.34-.25,5.11-1a1.3,1.3,0,0,0,.42-1v-.41l.87-.17c2.31-.6,2.45-2.89,2.4-6.32a14.4,14.4,0,0,1,.26-3.88l1,.27a13.8,13.8,0,0,0-.23,3.59c0,3,.1,6.47-3.18,7.32l-.13,0a2.27,2.27,0,0,1-.7,1.28C141.6,216.39,139.93,216.82,137.53,216.82Z"/><path class="cls-1" d="M143.2,213.76c4.25-1.11,2.15-7.37,3-10.56"/><path class="cls-2" d="M143.32,214.24l-.25-1c2.34-.61,2.48-2.9,2.42-6.33a14.4,14.4,0,0,1,.26-3.88l1,.27a13.8,13.8,0,0,0-.23,3.59C146.55,210,146.6,213.39,143.32,214.24Z"/><path class="cls-1" d="M145.23,204.2c-.63,2-.16,5.13.33,7.07.63,2.51,1.5,3.43,4,4l-.67-.17c0,3,3,3.08,5.88,3.19,1.57.06,6,.1,6.06-2.45l.47-.09c4.25-1.11,2.15-7.37,3-10.56"/><path class="cls-2" d="M155.67,218.83l-.88,0c-2.73-.11-6.11-.24-6.35-3.33-1.94-.66-2.78-1.75-3.37-4.1-.27-1.09-1.11-4.85-.32-7.34l1,.3c-.56,1.78-.2,4.67.34,6.79s1.25,3,3.25,3.55l.43.11-.23.95c.37,1.73,2.4,1.95,5.33,2.06,2.52.1,4.34-.25,5.11-1a1.3,1.3,0,0,0,.42-1v-.41l.87-.17c2.31-.6,2.45-2.89,2.4-6.32a14.4,14.4,0,0,1,.26-3.88l1,.27a13.8,13.8,0,0,0-.23,3.59c0,3,.1,6.47-3.18,7.32l-.13,0a2.27,2.27,0,0,1-.7,1.28C159.74,218.41,158.08,218.83,155.67,218.83Z"/><path class="cls-1" d="M180.51,203.19c-.63,2-.16,5.13.33,7.07.63,2.51,1.5,3.43,4,4l-.67-.17c0,3,3,3.08,5.88,3.19,1.57.06,6,.1,6.06-2.45l.47-.09c4.25-1.11,2.15-8.37,3-11.57"/><path class="cls-2" d="M191,217.83l-.88,0c-2.73-.11-6.11-.24-6.35-3.33-1.94-.66-2.78-1.75-3.37-4.1-.27-1.09-1.11-4.85-.32-7.34l1,.3c-.56,1.78-.2,4.67.34,6.79s1.25,3,3.25,3.55l.43.11-.23.95c.37,1.73,2.4,1.95,5.33,2.06,2.53.1,4.34-.25,5.11-1a1.3,1.3,0,0,0,.43-1v-.41l.87-.17c2.48-.65,2.44-3.93,2.39-7.1a15.91,15.91,0,0,1,.26-4.12l1,.27a15.37,15.37,0,0,0-.23,3.83c0,3.39.1,7.24-3.18,8.09l-.13,0a2.29,2.29,0,0,1-.7,1.28C195,217.4,193.36,217.83,191,217.83Z"/><path class="cls-1" d="M162.18,206.09c-.64,2-.16,5.23.33,7.21.64,2.56,1.53,3.5,4.12,4.1l-.69-.17c0,3,3.11,3.14,6,3.26,1.6.06,6.15.11,6.18-2.5l.48-.1c4.34-1.13,2.19-10.08,3.11-13.34"/><path class="cls-2" d="M172.83,221l-.91,0c-2.79-.11-6.23-.24-6.48-3.4-2-.67-2.83-1.78-3.44-4.18-.28-1.11-1.13-4.95-.32-7.49l1,.31c-.57,1.81-.2,4.77.34,6.93s1.28,3.08,3.33,3.62l.42.11-.23,1c.38,1.76,2.44,2,5.44,2.1,2.58.1,4.43-.25,5.21-1a1.33,1.33,0,0,0,.43-1v-.42l.89-.18c2.54-.66,2.49-4.78,2.44-8.42a18.6,18.6,0,0,1,.27-4.56l1,.28A18.14,18.14,0,0,0,182,209c0,3.81.1,8.56-3.24,9.43l-.14,0a2.33,2.33,0,0,1-.71,1.3C177,220.58,175.28,221,172.83,221Z"/><path class="cls-1" d="M172.62,207.22l-50.06-5.54a3.92,3.92,0,0,1-2-.63c-.08-.67,1.3-2.39,1.3-2.39l51.24,5,34.61-5.38s2.32.94,2.1,2.9l-.76.13-36.46,5.88"/><path class="cls-2" d="M172.63,207.73h-.07l-50.06-5.54a4.37,4.37,0,0,1-2.2-.71l-.19-.13,0-.23c-.1-.8,1-2.2,1.41-2.77l.17-.21,51.45,5.06,34.68-5.39.13.05c.11,0,2.68,1.11,2.41,3.42l0,.38-1.13.19Zm-51.5-6.94a3.49,3.49,0,0,0,1.45.39l50,5.54,36.73-5.92c-.11-1.1-1.29-1.76-1.68-1.95l-34.52,5.36-51-5A7.66,7.66,0,0,0,121.12,200.79Z"/><path class="cls-2" d="M139.38,199.37l-4.08-.17-.15-.21a1.53,1.53,0,0,1-.29-.81c0-.07,0-.16,0-.26-.8-3.81.76-8.23,2.39-12.06.57-1.34,1.19-2.65,1.81-3.92.79-2.2,1.74-4.32,2.66-6.38.44-1,.89-2,1.32-3l.15-.4c1.16-3.11,2.36-6.32,2.5-9.38.3-6.36-.81-10.41-3.3-12l.56-.86c2.86,1.85,4.09,6.08,3.77,12.93a24.87,24.87,0,0,1-1.51,6.79l.09,0c-.4,1.11-.84,2.21-1.3,3.29-.24.64-.47,1.26-.68,1.88a68.61,68.61,0,0,1-3.08,7.07l-.22.46-.1.28c-2,5.68-2.49,10.06-1.5,13.39.1.33.18.69.27,1.06a10.58,10.58,0,0,0,.44,1.57Zm-3.48-1.17,2,.08c-.09-.32-.17-.66-.24-1s-.16-.69-.25-1a16.81,16.81,0,0,1-.21-7.56c-1.09,2.95-1.92,6.22-1.34,9,0,.14,0,.25.05.35S135.89,198.16,135.9,198.2Z"/><path class="cls-1" d="M137.08,148.42c-5.13-1.73-8,5.38-7.79,9.28,2.89-2.32,6.8-2.57,10.06-4.24,1.39-.71,3.28-2.16,3.15-3.9-.14-2-2.87-2.12-4.42-1.9-.56.08-1.65.27-1.38.88"/><path class="cls-2" d="M128.84,158.73l-.06-1c-.16-2.85,1.23-7.11,3.74-9a4.86,4.86,0,0,1,3.91-1,2.92,2.92,0,0,1,1.58-.57,5.81,5.81,0,0,1,4.15.74,2.25,2.25,0,0,1,.85,1.63c.17,2.36-2.58,4-3.43,4.4a26.25,26.25,0,0,1-4.25,1.6,16.66,16.66,0,0,0-5.72,2.59Zm6.7-10.06a3.88,3.88,0,0,0-2.39.85c-1.92,1.46-3.16,4.66-3.33,7.17a20.79,20.79,0,0,1,5.21-2.16,25.47,25.47,0,0,0,4.09-1.53c1.39-.71,3-2,2.88-3.41a1.22,1.22,0,0,0-.47-.9,4.93,4.93,0,0,0-3.36-.52c-.84.12-1,.27-1,.29a.16.16,0,0,0,0-.12l-.07,0-.18.54a4.75,4.75,0,0,0-.65-.17h0v0A4,4,0,0,0,135.54,148.67Z"/><path class="cls-1" d="M143.51,162.91c-2.18-2.48-5.84-.79-7.34,1.63-1.61,2.61-1.09,6-2,8.84,2-2.9,6.51-3.23,9.46-5.09,1.26-.8,3.34-2.29,3.15-4s-3.09-2.16-4.28-1.39"/><path class="cls-2" d="M132.61,176.6l1.09-3.36a17.5,17.5,0,0,0,.61-3.49,12.64,12.64,0,0,1,1.44-5.46,6.59,6.59,0,0,1,4.75-3.08,3.9,3.9,0,0,1,2.91.89,4.59,4.59,0,0,1,2.45.39,2.3,2.3,0,0,1,1.45,1.77c.25,2.2-2.48,3.93-3.38,4.49a20.15,20.15,0,0,1-3.88,1.72c-2.2.8-4.29,1.55-5.43,3.23Zm8.26-14.39h-.29a5.61,5.61,0,0,0-4,2.6,11.72,11.72,0,0,0-1.29,5c-.07.61-.13,1.23-.23,1.85a16.57,16.57,0,0,1,4.59-2.21,19.11,19.11,0,0,0,3.68-1.62c2.05-1.3,3-2.48,2.91-3.51-.06-.5-.57-.81-.86-1a3.52,3.52,0,0,0-2.18-.24l-.1.09,0,0a1.36,1.36,0,0,0-.3.14l-.51-.79A2.87,2.87,0,0,0,140.87,162.21Z"/><path class="cls-2" d="M154.59,163l-.5-2.28c-.47-2.15-1.34-3.47-2.75-4.15a5.14,5.14,0,0,0-2.74-.46,6.79,6.79,0,0,0-.71.12,2.84,2.84,0,0,1-2.71-.37h0a2.22,2.22,0,0,1,1.11-2c1.61-1,4.45-.75,5.77-.11,2.72,1.32,3.78,3.72,3.07,6.93Zm-5.44-7.94a6.05,6.05,0,0,1,2.64.59,5.41,5.41,0,0,1,2.41,2.33,4.38,4.38,0,0,0-2.63-3.27,6.07,6.07,0,0,0-4.77.06,1.35,1.35,0,0,0-.53.56,3.13,3.13,0,0,0,1.41-.1,7.75,7.75,0,0,1,.82-.14C148.72,155.07,148.93,155.06,149.15,155.06Z"/><path class="cls-1" d="M130,187.23c0-.9.85-1.39,1.54-1.73,2.33-1.15,3.6,0,3.09,2.46a5.47,5.47,0,0,1-3,3.9c-3.41,1.92-7.75.92-9.9,4.78a21.77,21.77,0,0,1,2-9.54,6,6,0,0,1,3.63-3.18c1.68-.41,2.94.78,4.49.91"/><path class="cls-2" d="M121.33,198.43l-.11-1.76a22.65,22.65,0,0,1,2.06-9.78,6.51,6.51,0,0,1,4-3.48,4.91,4.91,0,0,1,3,.44,6,6,0,0,0,1.63.46l0,.49a2.55,2.55,0,0,1,2.59.15c.75.59,1,1.69.71,3.11a6,6,0,0,1-3.28,4.25,14.81,14.81,0,0,1-4.13,1.37c-2.32.52-4.32,1-5.57,3.21Zm6.75-14.08a2.42,2.42,0,0,0-.58.07,5.56,5.56,0,0,0-3.28,2.89,23.4,23.4,0,0,0-2,7.77c1.45-1.54,3.39-2,5.29-2.4a14,14,0,0,0,3.85-1.27,5,5,0,0,0,2.78-3.56c.21-1,.09-1.76-.33-2.09s-1.14-.24-2,.19-1.23.8-1.26,1.3l-1-.05a2.53,2.53,0,0,1,1.51-2,11.17,11.17,0,0,1-1.11-.38A5.18,5.18,0,0,0,128.08,184.35Z"/><path class="cls-1" d="M144.52,181.06c-2-.74-3.14.89-3,2.77s1.74,2.42,3.25,3.44a23.86,23.86,0,0,1,6.74,7.23c1.58-2.68,1.82-8.51.73-11.43a4,4,0,0,0-4-2.89c-1.36.05-1.52.77-2.55,1.23-.76.34-1.88-.53-2.61.28"/><path class="cls-2" d="M151.48,195.51l-.44-.75a23.48,23.48,0,0,0-6.58-7.06c-.31-.21-.62-.39-.93-.57-1.19-.7-2.43-1.41-2.54-3.26a3.45,3.45,0,0,1,1.16-3,2.59,2.59,0,0,1,2.56-.25l-.12.33h0a1.56,1.56,0,0,0,.78,0,3.57,3.57,0,0,0,.78-.51,3,3,0,0,1,2-.77,4.57,4.57,0,0,1,4.54,3.22c1.08,2.91.94,9-.77,11.87Zm-8.61-13.94-.12.08a2.48,2.48,0,0,0-.75,2.15c.08,1.3.9,1.78,2,2.44.32.19.66.38,1,.61a24.19,24.19,0,0,1,6.39,6.59,17.11,17.11,0,0,0,.3-10.19,3.54,3.54,0,0,0-3.54-2.56,2,2,0,0,0-1.36.55,4.56,4.56,0,0,1-1,.64,2.32,2.32,0,0,1-1.39,0c-.57-.1-.84-.12-1.06.11Z"/><path class="cls-1" d="M170.73,164.3c.58,4.16-1,7.18-3.15,10.84-1.82,3.09-3.72,5.81-5.67,8.82a23,23,0,0,0-3.4,16.63l-2-.25c-1.44-1,.61-8.86,1-10.46.85-3.6,3.44-7.12,5.67-10.09,2.52-3.36,5.21-6.58,6.8-10.45a10.71,10.71,0,0,0,.41-6.18,12.36,12.36,0,0,0-1-3c-.29-.62-.88-2.4-.88-2.4"/><path class="cls-2" d="M159.12,201.18l-2.82-.35-.1-.07c-1.15-.79-1-3.84.66-10.53l.11-.47c.89-3.79,3.7-7.54,5.76-10.28l1.1-1.44a40.22,40.22,0,0,0,5.64-8.89,10.12,10.12,0,0,0,.38-5.88,11.87,11.87,0,0,0-1-2.9c-.3-.64-.88-2.38-.9-2.45l1-.32s.59,1.76.86,2.34a12.76,12.76,0,0,1,1,3.14q.12.61.19,1.19l.2,0c.6,4.29-1,7.33-3.22,11.17-1.25,2.12-2.51,4-3.84,6-.61.92-1.22,1.84-1.84,2.8A22.36,22.36,0,0,0,159,200.5Zm-2.41-1.34,1.18.15a23.63,23.63,0,0,1,3.58-16.32c.62-1,1.23-1.89,1.84-2.81.75-1.13,1.47-2.22,2.18-3.33l-.86,1.13-1.09,1.44c-2,2.66-4.74,6.31-5.58,9.9l-.11.48C156.06,197.89,156.45,199.5,156.71,199.85Z"/><path class="cls-1" d="M159.26,191.14c-1.53-2.08.91-3.15,2.52-3.4,1.44-.22,3.49-.86,4.91.28,3,2.44,2,6.43.38,9.19-.48-1.4-3.06-1.46-4.26-2.32a11.26,11.26,0,0,1-3.68-4.12"/><path class="cls-2" d="M167,198.44l-.37-1.07c-.21-.62-1.2-.94-2.15-1.24a7.08,7.08,0,0,1-1.92-.83,13,13,0,0,1-3.64-3.88l0,0a2.23,2.23,0,0,1-.45-2.26c.47-1.14,2-1.76,3.3-2l.69-.12c1.44-.27,3.24-.61,4.62.51,2.64,2.13,2.83,5.81.5,9.85Zm-7.35-7.88a10.58,10.58,0,0,0,3.51,3.91,6.46,6.46,0,0,0,1.64.68,6.13,6.13,0,0,1,2.26,1.07c.9-1.83,2.18-5.53-.65-7.81-1-.82-2.49-.54-3.79-.3l-.72.13c-1,.16-2.22.64-2.51,1.34a1,1,0,0,0,.16,1Z"/><path class="cls-1" d="M160.9,180.93c-1.79-1.49-5.91.63-7.56,1.64a10.81,10.81,0,0,0-4.42,6.26c.68-2.18,6.33-2.9,8.2-3.49s5-1.55,4.51-4.26c-.65-.36-2.19-.71-2.75-.27"/><path class="cls-2" d="M149.41,189l-1-.31v0c1-3.09,2.51-5.23,4.63-6.51,1.27-.77,5.35-3,7.66-1.91a4.9,4.9,0,0,1,1.14.41l.22.12,0,.24c.55,3.13-2.94,4.23-4.82,4.82-.47.15-1.07.29-1.77.45-2.12.49-5.66,1.3-6.13,2.7Zm9.58-8a13.36,13.36,0,0,0-5.39,2.06,8.93,8.93,0,0,0-3.34,3.83,22.3,22.3,0,0,1,5.05-1.58c.67-.15,1.26-.29,1.65-.41,2.23-.7,4.34-1.54,4.19-3.43a3.9,3.9,0,0,0-.52-.17l-.06.08-.2-.14a1.89,1.89,0,0,0-1.17,0Z"/><path class="cls-1" d="M168.21,164.93c-2.4,0-4.87,0-7,1.48-1.63,1.17-3.51,3.59-3.6,5.57,2.07-.74,2.91-1.33,5.05-.65a6.71,6.71,0,0,0,5.17-.44,3.36,3.36,0,0,0,1.13-4.09c-.82-1.94-1.85-2.22-3.56-1.86"/><path class="cls-2" d="M157.09,172.71l0-.76c.09-2.08,2-4.67,3.81-6a8.6,8.6,0,0,1,4.4-1.5v-.07a4.21,4.21,0,0,1,2.13,0h.7l0,.36a4.18,4.18,0,0,1,1.29,1.81,3.88,3.88,0,0,1-1.32,4.72,7.18,7.18,0,0,1-5.6.5,4.75,4.75,0,0,0-3.85.32l-.88.33Zm10.19-7.27a9.55,9.55,0,0,0-5.74,1.38,9.26,9.26,0,0,0-3.25,4.36h0a5.74,5.74,0,0,1,4.52-.34,6.18,6.18,0,0,0,4.73-.38,2.84,2.84,0,0,0,.95-3.46A2.64,2.64,0,0,0,167.29,165.44Z"/><path class="cls-1" d="M153.72,165.81c1,.18,2.72-4.1,3.25-5,.89-1.6,1.7-3.07,3.44-3.78,2.69-1.1,7.59-1.69,8.42,2.11-5,1.81-11.74,3.58-15.61,7.21"/><path class="cls-2" d="M153.56,166.69l-.7-.75a14.88,14.88,0,0,1,1.42-1.17,27,27,0,0,0,1.74-3.25c.2-.43.37-.79.49-1,.92-1.67,1.79-3.23,3.69-4s5-1.36,7.09-.26a3.87,3.87,0,0,1,2,2.74l.1.44-.42.15c-.91.33-1.88.66-2.87,1-3.81,1.29-8,2.73-11.13,4.94a1.94,1.94,0,0,1-1,.79Zm10.89-10a10.61,10.61,0,0,0-3.86.8c-1.57.64-2.32,2-3.18,3.54-.11.21-.27.54-.47.95-.28.59-.54,1.12-.78,1.59a55.62,55.62,0,0,1,9.62-3.94l2.4-.83a2.76,2.76,0,0,0-1.38-1.61A5.11,5.11,0,0,0,164.45,156.67Z"/><path class="cls-1" d="M176.65,189.92c-1.33,2.51-2.82,4.34-3.11,7.22-.06.62-.71,3.62-.08,3.93,1,.5,1.8-2.26,2-2.76.51-1.69.79-3.28,1.26-5,.24-.86,2.22-4.23,1.49-4.88a7.13,7.13,0,0,0-2,2.53"/><path class="cls-2" d="M146.15,181a1.32,1.32,0,0,0-.45-1c-.69-.52-2.17-.22-3.35,0-.43.09-.83.17-1.17.21l-.12-1c.31,0,.68-.12,1.08-.2,1.39-.29,3.12-.65,4.18.16a2.31,2.31,0,0,1,.85,1.77Z"/><path class="cls-1" d="M192.19,188.24a36.38,36.38,0,0,1-2,4.54c-.71,1.13-1.42,2.22-2.15,3.36s-1.89,3,.24,3.28c1.65.21,2.13-.78,3.11-2,1.38-1.75,1.58-3.66,1.68-5.8.05-1.07.75-2,.32-2.94-.67-1.49-1.49-.59-1.66.67"/><path class="cls-2" d="M188.36,200.21a1.16,1.16,0,0,1-.49-.12,1.49,1.49,0,0,0-.25-.09,1.36,1.36,0,0,1-1.05-.83c-.28-.8.41-1.68,1-2.46.15-.19.28-.37.39-.52,1.33-2,3.12-5,3.38-7.74.29-3.08-.62-6.07-2.88-9.41-.38-.55-.79-1.11-1.21-1.67l-.18-.17c-.34-.32-.66-.63-1-.9l.17-.21-.7-.88a6.41,6.41,0,0,1-1.38-6.27,11.5,11.5,0,0,1,4.27-5.79A13.87,13.87,0,0,1,192.5,161c.24-.09.49-.2.74-.32a4.75,4.75,0,0,1,2.45-.63l-.12,1a4,4,0,0,0-1.9.54c-.28.13-.56.26-.82.35a12.66,12.66,0,0,0-3.79,2,10.57,10.57,0,0,0-3.93,5.3,5.39,5.39,0,0,0,1.15,5.25c.59.73,1.17,1.46,1.73,2.18a10.88,10.88,0,0,0,1,.82c.33.24.64.45.94.64a7,7,0,0,1,2.17,1.91c2,2.76,2,6.06,2,9.24,0,1.25-2.61,8.74-2.91,9.23a7.89,7.89,0,0,1-2.23,1.54A1.26,1.26,0,0,1,188.36,200.21Zm1.54-20.85a14.38,14.38,0,0,1,2.47,9.18c-.29,3-2.17,6.13-3.55,8.21-.11.17-.27.37-.43.58-.28.37-1,1.23-.86,1.5,0,0,.09.11.33.17a2.46,2.46,0,0,1,.42.15l.08,0,.1,0a7.56,7.56,0,0,0,1.8-1.16,65.2,65.2,0,0,0,2.76-8.67c0-3.18,0-6.17-1.77-8.67A5.08,5.08,0,0,0,189.9,179.36Z"/><path class="cls-2" d="M173.71,201.72a2.09,2.09,0,0,1-.77-.16l.09-.22h-.4v-1h0c.34-8.12,5-12.75,10.29-18.07.8-.8,1.61-1.61,2.43-2.46,3.94-4.07,5.84-7.93,5.66-11.47-.15-2.9-2-8.5-5.17-9.37l.27-1c3.81,1,5.76,7.32,5.91,10.29.2,3.79-1.76,7.86-5.82,12.1l.38.39c-2.62,2.54-5.85,5.86-7.66,9a34,34,0,0,0-2.79,6.2,9.8,9.8,0,0,0-.25,1.56c-.18,1.58-.38,3.37-1.41,4A1.47,1.47,0,0,1,173.71,201.72Zm-.07-1a.48.48,0,0,0,.32-.06c.6-.36.8-2.09.93-3.24a10.11,10.11,0,0,1,.29-1.76,34.57,34.57,0,0,1,2.88-6.39c.18-.31.37-.62.57-.93A19.4,19.4,0,0,0,173.63,200.71Z"/><path class="cls-1" d="M188.41,183.2c-1.16-.73-2.6-2.33-1.51-3.68,1-1.19,2.93-1.55,4.37-1.62a4.82,4.82,0,0,1,4,1.68,5.28,5.28,0,0,1,1.34,4.12c0,1.45.37,3.76-.4,4.95-.65-1.56-1.14-3.34-2.87-4-1.09-.39-2.32-.35-3.45-.67-.84-.24-1.34-.84-2.1-1.07"/><path class="cls-2" d="M196.14,189.75l-.37-.9-.24-.61c-.53-1.34-1-2.6-2.33-3.07a8.62,8.62,0,0,0-1.77-.36,11.73,11.73,0,0,1-1.64-.3,4.55,4.55,0,0,1-1.26-.63,3.54,3.54,0,0,0-.85-.45l0-.11a4.17,4.17,0,0,1-1.68-2.41,2.12,2.12,0,0,1,.47-1.72c1.1-1.35,3.19-1.73,4.75-1.81a5.28,5.28,0,0,1,4.43,1.85,5.76,5.76,0,0,1,1.48,4.47c0,.33,0,.7,0,1.09.08,1.45.16,3.09-.52,4.13Zm-7.47-7,.4.25a3.6,3.6,0,0,0,1,.5,10.78,10.78,0,0,0,1.5.27,9.46,9.46,0,0,1,2,.41,4.7,4.7,0,0,1,2.63,2.91,15.41,15.41,0,0,0,0-2.26c0-.41,0-.8,0-1.15a4.76,4.76,0,0,0-1.21-3.77,4.29,4.29,0,0,0-3.63-1.52c-1.1.06-3.09.31-4,1.43a1.09,1.09,0,0,0-.26.91,3.57,3.57,0,0,0,1.64,2Z"/><path class="cls-1" d="M182.11,159.93a6.25,6.25,0,0,1,4.2-2.94c1-.14,1.72-.24,2,.84a1.91,1.91,0,0,1-.93,2.27"/><path class="cls-2" d="M187.61,160.57l-.42-.94a1.4,1.4,0,0,0,.64-1.66c-.16-.57-.33-.63-1.45-.47a5.76,5.76,0,0,0-3.82,2.66l-.92-.46a6.72,6.72,0,0,1,4.59-3.21c1-.14,2.16-.31,2.59,1.21A2.41,2.41,0,0,1,187.61,160.57Z"/><path class="cls-1" d="M188.66,159.93a7.31,7.31,0,0,0-3.36-1.6,6.43,6.43,0,0,0-4.71,1.41,15.37,15.37,0,0,0-3.72,3.47c-.44.6-2.08,2.95-1.83,3.7,0,0,2.09-2,3.11-2.71a28.74,28.74,0,0,1,3.27-2,19.19,19.19,0,0,1,6.89-1.76"/><path class="cls-2" d="M175.07,167.44a.58.58,0,0,1-.21,0l-.22-.09-.08-.23c-.24-.7.4-2.1,1.9-4.16a15.77,15.77,0,0,1,3.85-3.59,7,7,0,0,1,5.07-1.5,7.36,7.36,0,0,1,3.38,1.55l.19.13-.59.85-.05,0,0,.63a18.68,18.68,0,0,0-6.7,1.71,28,28,0,0,0-3.21,2,31.47,31.47,0,0,0-2.53,2.19C175.42,167.28,175.25,167.44,175.07,167.44Zm9.46-8.65a6.36,6.36,0,0,0-3.64,1.38,14.77,14.77,0,0,0-3.6,3.35c-.45.62-.81,1.17-1.08,1.65a19.2,19.2,0,0,1,1.66-1.38,28.55,28.55,0,0,1,3.33-2,19.42,19.42,0,0,1,6.6-1.78,5.68,5.68,0,0,0-2.58-1.13A4.81,4.81,0,0,0,184.53,158.79Z"/><path class="cls-1" d="M178.83,173.54c.85-.52,2.19.31,2.92.77a5,5,0,0,1,1.79,2.34c.82,1.79.67,3.71.77,5.7,1.49.29,2.47-1.75,2.84-2.84a5.4,5.4,0,0,0-.15-4.37,6.36,6.36,0,0,0-7.16-2.43c-.61.18-1.16.53-1.74.75a7.24,7.24,0,0,0,2.16.17"/><path class="cls-2" d="M184.6,182.89a2,2,0,0,1-.39,0l-.4-.08,0-.4c0-.41,0-.81,0-1.22a10.75,10.75,0,0,0-.68-4.29,4.45,4.45,0,0,0-1.59-2.11,8.47,8.47,0,0,0-1.22-.67v.06h-.33a6.24,6.24,0,0,1-2-.2l-1.35-.46,1.33-.51c.23-.09.45-.2.67-.3a7.36,7.36,0,0,1,1.1-.46,6.89,6.89,0,0,1,7.75,2.65,5.83,5.83,0,0,1,.19,4.81C187.36,180.46,186.38,182.89,184.6,182.89Zm-4.1-9.82a8.42,8.42,0,0,1,1.53.81,5.48,5.48,0,0,1,2,2.56,11.69,11.69,0,0,1,.77,4.69c0,.23,0,.47,0,.7.8-.19,1.49-1.4,1.86-2.5a5,5,0,0,0-.1-3.94A5.8,5.8,0,0,0,180.5,173.07Z"/><path class="cls-1" d="M194.54,159.51c1-.81,3.32-.67,4.43-.19a5.15,5.15,0,0,1,2.88,3.13,8.29,8.29,0,0,1-.66,6.53c.15-3.47-4.91-4.09-7.07-5.43-1-.59-1.75-1.86-.86-2.86.7-.78,1.93-.81,2.87-1"/><path class="cls-2" d="M200.59,171.11l.09-2.16c.09-2.15-2.22-3-4.47-3.91a14.66,14.66,0,0,1-2.37-1.07,3.12,3.12,0,0,1-1.47-2,1.92,1.92,0,0,1,.5-1.59,3.06,3.06,0,0,1,1.62-.88l-.28-.34c1.17-1,3.72-.8,5-.27a5.69,5.69,0,0,1,3.17,3.46,8.84,8.84,0,0,1-.7,6.93Zm-4.49-11.63.14.7-.6.1a3.34,3.34,0,0,0-2,.74.9.9,0,0,0-.25.76,2.11,2.11,0,0,0,1,1.32,14.17,14.17,0,0,0,2.19,1c1.81.7,4,1.53,4.78,3.2a8,8,0,0,0,0-4.69,4.64,4.64,0,0,0-2.59-2.81A6,6,0,0,0,196.1,159.48Z"/><path class="cls-1" d="M185.3,166.65c-.78,0-1.59-.3-2.42-.34a6,6,0,0,0-3.89,1.09,12.66,12.66,0,0,0-3.17,2.85c-.6.77-.95,1.76-1.51,2.52,3.39-2.91,7.82-1,11.34-3.35.76-.51,2.41-2,1.22-3-.69-.56-3.76-.51-4.1.19"/><path class="cls-2" d="M171.19,176.15l2.72-3.68a9,9,0,0,0,.67-1.13,9.37,9.37,0,0,1,.84-1.39,13.13,13.13,0,0,1,3.3-3,6.5,6.5,0,0,1,4.19-1.17h.21l.39-.11c1.06-.24,3-.22,3.69.35a1.49,1.49,0,0,1,.6,1.27c-.06,1.29-1.68,2.4-1.87,2.53a11.38,11.38,0,0,1-5.57,1.51c-2.07.19-4,.36-5.71,1.81Zm11.29-9.33a5.52,5.52,0,0,0-3.21,1,12.09,12.09,0,0,0-3,2.73,5.7,5.7,0,0,0-.44.67,14,14,0,0,1,4.48-.91,10.44,10.44,0,0,0,5.1-1.34c.57-.38,1.38-1.16,1.41-1.72a.48.48,0,0,0-.22-.42,2.66,2.66,0,0,0-1.26-.26v.57a7.17,7.17,0,0,1-1.36-.18l-.68-.12,0,0-.1-.05-.26,0Z"/><path class="cls-1" d="M169.72,172.24a4.67,4.67,0,0,0-4.51,1.29c-1.47,1.61-.61,2.57,1,3.46a8.66,8.66,0,0,1,4.43,8l2.62-2c2.65-1.41,2.71-5,1.48-7.56a6.76,6.76,0,0,0-2.27-2.87c-.75-.45-3-1.21-3.63-.28"/><path class="cls-2" d="M170.1,186v-1.05a8.13,8.13,0,0,0-4.17-7.51c-.84-.47-1.82-1.14-2-2.13a2.58,2.58,0,0,1,.87-2.13,5.64,5.64,0,0,1,4-1.63c1.13-.7,3.3.16,3.91.53a7,7,0,0,1,2.47,3.09c1.34,2.82,1.21,6.65-1.67,8.21Zm-1.44-13.43a4.55,4.55,0,0,0-3.07,1.3,1.7,1.7,0,0,0-.61,1.28c.07.42.53.86,1.46,1.39a9.12,9.12,0,0,1,4.66,7.4l1.9-1.45c2.35-1.25,2.41-4.48,1.26-6.88A6.13,6.13,0,0,0,172.2,173a4.93,4.93,0,0,0-2.51-.64l-.15.4A2.52,2.52,0,0,0,168.66,172.58Z"/><path class="cls-2" d="M137.47,186.08l-.06-.06a3.44,3.44,0,0,0-2.31-1.38c-.55-.05-2.42-.15-3.27.76l-.75-.7c1.14-1.22,3.26-1.17,4.12-1.09a4.42,4.42,0,0,1,2.94,1.68l.06.06Z"/><path class="cls-1" d="M178.41,186.85c-1.34-1.34-5.83-.21-7.31.63-2.17,1.22-4.48,3.77-4.92,6.26,1.29-1.35,3.67-1.64,5.42-1.72a15.28,15.28,0,0,0,6.14-1.6c.78-.35,3.37-1.65,2.44-2.72-.48-.55-4-1.09-4.29-.59"/><path class="cls-2" d="M165.38,195.32l.3-1.67c.48-2.7,3-5.37,5.17-6.62,1.39-.79,6.27-2.19,7.93-.54l-.12.12a3.9,3.9,0,0,1,1.91.75,1.21,1.21,0,0,1,.3,1.09c-.25,1.14-2.12,2.08-2.91,2.43a15.73,15.73,0,0,1-6.33,1.64c-2.52.11-4.18.63-5.08,1.56Zm10.1-8.53a12,12,0,0,0-4.13,1.14,10.66,10.66,0,0,0-4.22,4.51,11.3,11.3,0,0,1,4.45-.94,14.68,14.68,0,0,0,6-1.56c1.23-.55,2.23-1.28,2.33-1.71,0-.05,0-.1-.07-.2a7.6,7.6,0,0,0-3.57-.56.31.31,0,0,0,.13-.14l-.92-.46Z"/><path class="cls-1" d="M191.52,187.74c-4.28-.5-6.27,3.54-6.76,7.14a9,9,0,0,1,3.49-1.88c1.64-.42,3-.33,4.31-1.63.62-.62,1.68-1.86,1.23-2.87s-1.55-.4-2.39-.76"/><path class="cls-2" d="M184.08,196.08l.17-1.27c.54-4,2.76-8.11,7.33-7.58v.1l0-.06a2.11,2.11,0,0,0,.81.09,1.74,1.74,0,0,1,1.85.93c.58,1.28-.59,2.71-1.33,3.45a5.81,5.81,0,0,1-3.43,1.53c-.36.07-.73.14-1.12.24a8.45,8.45,0,0,0-3.29,1.79Zm6.75-7.87c-3,0-4.65,2.6-5.33,5.48a8.37,8.37,0,0,1,2.62-1.2c.41-.1.8-.18,1.18-.25a4.85,4.85,0,0,0,2.9-1.25c.35-.35,1.46-1.53,1.12-2.29-.13-.29-.29-.34-.91-.32a3.08,3.08,0,0,1-1.18-.16Z"/><path class="cls-1" d="M58.84,90.46c3.41,2.19,5.84,8.19,6,12.05,0-.6,0-1.67,0-2.43-.21-3.93-2.59-9.92-6.05-12.14.37.24-.4,2.27,0,2.52Z"/><path class="cls-1" d="M111.14,82.72a9.56,9.56,0,0,1-1.8,9.15c-.35.37-.79,1.24-.07.48,2.65-2.81,4.25-7,2.86-10.76,0,0-1.13.78-1,1.14Z"/><path class="cls-2" d="M90.74,200.6c-.09-4.58-1.55-8.85-2-13.37.27,2.48-.27,5.06,0,7.56.45,4.16,1.92,8.13,2,12.34,0,1.44.05-1.23.05-1.36,0-1.72,0-3.45,0-5.17Z"/><path class="cls-2" d="M74.94,195.88a2.28,2.28,0,0,1,.94-1.25,3.42,3.42,0,0,1,2-.58c.56,0,.63-3,.21-3a3.6,3.6,0,0,0-2.53,1,5.21,5.21,0,0,0-1.2,3c-.05.38-.26,1.6.1,1.87s.47-.91.48-1Z"/><path class="cls-2" d="M76.39,198.44a3.68,3.68,0,0,1,3.15-1.89c.58,0,.6-3,.21-3A3.77,3.77,0,0,0,76,197.86c0,.23.12,1.12.42.57Z"/><path class="cls-2" d="M79,200.35a3.68,3.68,0,0,1,2-1.46c.4-.1.42-1.17.44-1.49,0-.12.05-1.61-.23-1.53A4,4,0,0,0,79,197.43a3.54,3.54,0,0,0-.36,1.84,2.94,2.94,0,0,0,.09.91c0,.07.14.34.25.17Z"/><path class="cls-2" d="M81.47,202.15a2,2,0,0,1,1.33-.69c.39-.09.42-1.19.44-1.49,0-.13.06-1.6-.23-1.53a2.41,2.41,0,0,0-1.69,1.08,2.68,2.68,0,0,0-.22.89,6.06,6.06,0,0,0,0,1.16c0,.25.1,1.1.42.57Z"/><path class="cls-2" d="M83.52,204.07c.2-.2.24-.3.54-.33s.42-1.23.44-1.49.1-1.56-.23-1.53a1,1,0,0,0-.72.43,1.53,1.53,0,0,0-.25.68,5.78,5.78,0,0,0-.11,1.16c0,.13.06,1.35.33,1.08Z"/><path class="cls-2" d="M139.9,65.61a.76.76,0,0,1-.71-.49c-3.32-9-14.63-23.16-22.82-28.6C93.1,21.05,56.4,16.42,32.84,26a.76.76,0,1,1-.57-1.4c24-9.71,61.29-5,84.94,10.69,8.56,5.68,19.93,19.94,23.4,29.34a.76.76,0,0,1-.45,1A.75.75,0,0,1,139.9,65.61Z"/><path class="cls-1" d="M75.11,20A153,153,0,0,1,89.66,4.31C95.12-.61,101.32.5,108.11,2.12c8.44,2,10.53,5.82,10.53,14.67,0,4.63.7,16.49-4.49,18.28"/><path class="cls-2" d="M114.39,35.79l-.49-1.43c4.18-1.44,4.05-11.31,4-16.05,0-.56,0-1.07,0-1.51,0-9-2.23-12.1-9.95-13.94-7-1.66-12.69-2.56-17.77,2A150.19,150.19,0,0,0,75.69,20.49l-1.16-1A151.35,151.35,0,0,1,89.15,3.75c5.62-5.06,12-4.07,19.13-2.36,8.41,2,11.11,5.75,11.11,15.41,0,.44,0,.94,0,1.49C119.48,23.78,119.6,34,114.39,35.79Z"/><path class="cls-2" d="M73.5,21.42c.73-4.65,8.3-3.49,12-3.53,5-.06,10.11,1.05,14.94,2.09a48.14,48.14,0,0,1,10.81,3.85c2.79,1.39,8.18,7.62,4.85,10.95-.83.83-2.86-.21-4.57-1.52A27.25,27.25,0,0,0,106,30.07a115.46,115.46,0,0,0-12.34-4.61c-3.37-.66-6.48-1.79-9.84-2.47a50.27,50.27,0,0,0-5-.93C77,21.88,73.5,21.42,73.5,21.42Z"/><path class="cls-2" d="M115.31,35.83c-1.4,0-3.14-1.14-4.23-2a26.28,26.28,0,0,0-5.4-3.1A115.8,115.8,0,0,0,93.51,26.2c-1.75-.34-3.45-.82-5.09-1.27s-3.14-.87-4.76-1.2l-1.27-.27a32.73,32.73,0,0,0-3.67-.65c-1.77-.17-5.18-.62-5.33-.64l-.77-.1.12-.76c.71-4.56,6.75-4.35,10.74-4.21.74,0,1.42,0,2,0h.38a69.3,69.3,0,0,1,14.41,2l.32.07a48.93,48.93,0,0,1,11,3.91c2.24,1.12,5.69,4.76,6.24,8.15a4.43,4.43,0,0,1-1.2,4A1.81,1.81,0,0,1,115.31,35.83Zm-40.85-15c1.16.15,3.2.41,4.41.52a33.83,33.83,0,0,1,3.85.68l1.25.27c1.67.34,3.29.79,4.86,1.23s3.28.91,5,1.24c2,.4,10.27,3.64,12.5,4.66A28,28,0,0,1,112,32.65c2,1.53,3.31,1.85,3.58,1.59a2.91,2.91,0,0,0,.77-2.7c-.46-2.83-3.57-6.11-5.43-7a47.3,47.3,0,0,0-10.63-3.79l-.32-.07c-4.72-1-9.62-2.07-14.46-2-.61,0-1.32,0-2.08,0C79.28,18.46,75.48,18.53,74.46,20.78Z"/><path class="cls-1" d="M67.15,31A99.07,99.07,0,0,0,57.68,41.9C43.11,35.26,31.4,28,32.27,25.68c1.34-3.69,26.52,2.1,56.25,12.92s52.73,22.58,51.39,26.26c-.83,2.29-11.41.92-26.06-3.05.51-4.44,1.11-10,.83-12.61"/><path class="cls-2" d="M136.15,66.73a35.47,35.47,0,0,1-4.19-.3,137.91,137.91,0,0,1-18.32-3.9l-.63-.17.08-.65c.35-3,1.06-9.19.86-12.12-7.67-3.4-16.45-6.93-25.7-10.29C80.91,36.63,73.72,34.22,67,32.18a112.56,112.56,0,0,0-8.74,10.17l-.36.5-.56-.26C54.55,41.3,29.92,29.92,31.56,25.42c1.36-3.75,17.81-.15,35.07,5.08l.06,0,.07.09c7.59,2.3,15.34,4.91,22,7.35,21.92,8,53.81,21.81,51.84,27.23C140.32,65.91,139.5,66.73,136.15,66.73Zm-21.48-5.48c17.7,4.75,24.17,4.32,24.52,3.35,0,0,.61-2.22-13.68-9.52-3-1.54-6.38-3.15-10-4.79A94.25,94.25,0,0,1,114.67,61.24ZM35.93,25.32c-2.68,0-3,.6-3,.61-.21,1.19,7,7,24.46,15a120.82,120.82,0,0,1,8-9.28C59.65,30,54.3,28.52,49.58,27.43,42.33,25.77,38.24,25.32,35.93,25.32Z"/><path class="cls-2" d="M135.52,149.5a7.56,7.56,0,0,0-3.34,3.45c-.06.13.42.15.49,0a7.31,7.31,0,0,1,3.21-3.35c.23-.11-.25-.17-.37-.12Z"/><path class="cls-2" d="M141.69,163.61a7.77,7.77,0,0,0-3,2.46,12.45,12.45,0,0,0-2.07,3.67c0,.1.46.14.5,0a12.35,12.35,0,0,1,1.83-3.29,7.51,7.51,0,0,1,3.14-2.68c.23-.11-.24-.18-.36-.13Z"/><path class="cls-2" d="M124.61,191.91a8.92,8.92,0,0,1,2.1-2.59,24.38,24.38,0,0,1,3-2.4c.15-.11-.32-.21-.43-.13a25,25,0,0,0-3.08,2.44,8.9,8.9,0,0,0-2.12,2.64c0,.1.44.19.5,0Z"/><path class="cls-2" d="M146.75,182.63a5.35,5.35,0,0,1,2.22,2.89c.06.21.15-.12.16-.17a1.43,1.43,0,0,0,0-.69,5.52,5.52,0,0,0-2.32-3s-.3.87-.07,1Z"/><path class="cls-2" d="M160,169.26c1.91-1.39,4.92-2.83,6.85-.71.1.11.57,0,.49-.06-2.14-2.35-5.62-.89-7.77.68-.15.11.33.18.44.1Z"/><path class="cls-2" d="M169.4,173.92a10.69,10.69,0,0,1,2.1,2.17c1.22,1.77,1,3.8.49,5.8,0,.17,0,1.14.11.72.43-1.66,1-3.35.63-5.07a8.69,8.69,0,0,0-3.21-4.59c-.07-.06-.31.82-.13,1Z"/><path class="cls-2" d="M175.15,187.55a12.11,12.11,0,0,0-4.68,2.34c-.09.09,0,.5,0,.49a12,12,0,0,1,4.65-2.32c.12,0,.06-.51,0-.5Z"/><path class="cls-2" d="M194.77,184a1.16,1.16,0,0,1-.22-.54,3.68,3.68,0,0,0-.11-.39,6.28,6.28,0,0,0-.87-1.56,5.21,5.21,0,0,0-3.82-2.14v-.25a5.44,5.44,0,0,1,4,2.24,6.56,6.56,0,0,1,.9,1.62,4.06,4.06,0,0,1,.12.41,1.54,1.54,0,0,0,.14.42Z"/><path class="cls-2" d="M200.19,163.76a1.48,1.48,0,0,1-.27-.63,2.89,2.89,0,0,0-.14-.42,2.71,2.71,0,0,0-.66-.92,3.38,3.38,0,0,0-2.24-1l0-.25a3.69,3.69,0,0,1,2.43,1,2.93,2.93,0,0,1,.72,1,2.88,2.88,0,0,1,.15.46,1.62,1.62,0,0,0,.2.51Z"/></svg>