<svg id="Icons" xmlns="http://www.w3.org/2000/svg" viewBox="0 0 202.79 291.61"><defs><style>.cls-1{fill:#fff;}.cls-2{fill:#eaecf2;}</style></defs><title>home-og-camping</title><rect class="cls-1" x="133.49" y="176.29" width="13.92" height="26.48" transform="translate(280.89 379.06) rotate(-180)"/><path class="cls-1" d="M122.23,10.51c-.28-2.22-2.64-6.12-4.66-7.16a3.24,3.24,0,0,0-3.89.56c-.83.9-.76,1,.28,1.53a4.8,4.8,0,0,0,1,.49"/><path class="cls-2" d="M123.3,10.87c-.55-3.35-3.38-7.94-6.93-8.72-1.34-.29-4,.15-4.3,1.89-.25,1.41,2.09,2.38,3.11,2.71,1.55.52.57-1.36-.35-1.67a5.72,5.72,0,0,1-.6-.28q-.42-.24.16.17a4.22,4.22,0,0,1,1.29-1c1.28-.47,2.21.26,3,1.16a10.67,10.67,0,0,1,2.49,5c.14.82,2.33,1.89,2.14.73Z"/><path class="cls-1" d="M53.15,216.21c1.24-7.43,1.65-14-7-16.93-7.43-2.48-14,.83-16.1,8.26-2.06,7.84-2.89,14-6.19,21.88-3.3,7.43-6.61,16.1-4.13,24.36,5,16.52,33,19.82,38.81,2.48,2.48-8.67-.83-16.52-2.48-24.77-.83-4.54,0-12-2.06-15.69"/><path class="cls-2" d="M54.23,216.77c.78-4.85,1.52-10.36-2-14.38-3.1-3.59-8.8-5.41-13.44-4.7-6.85,1.05-9.32,6.75-10.77,12.79-.93,3.84-1.73,7.71-2.86,11.5-1.48,4.92-3.82,9.5-5.44,14.37-3.94,11.83-1.57,24,10.2,29.69,8.11,4,19.38,4,25.94-3,5.77-6.09,5-14.93,3.26-22.49-1.06-4.67-2.28-9.11-2.5-13.92-.17-3.65-.16-7.36-1.71-10.74-.35-.76-2.58-1.58-2-.28,1.46,3.2,1.38,6.77,1.54,10.21a54.92,54.92,0,0,0,1.66,10.52c1.86,7.69,4.1,16.78-1,23.73-6.46,8.74-20.42,8.56-28.51,2.34-14.61-11.24-1.29-30.73,2-44.21,1.76-7.13,2.45-17.43,11.52-18.73,5.13-.74,11.19,1.68,12.32,7.17.6,2.92,0,6.07-.45,9-.14.87,2,2.1,2.16,1.13Z"/><path class="cls-1" d="M45,213.32c-31.38-1.24-18.92,48.93-1.24,48.93"/><path class="cls-2" d="M44.35,212.41c-15.1-.33-21.23,12.17-19.25,25.79,1.39,9.6,7.52,24.57,19.13,24.94,1.44,0,0-1.77-.88-1.8C32.44,261,27.65,245.2,27,236.43c-1-12.45,5.48-22.49,18.75-22.21,1.09,0-.53-1.79-1.35-1.81Z"/><path class="cls-1" d="M75.51,154.19c-7.8,11-6,36.24-3.21,48.63,1.84,8.72,6.88,20.64,7.34,28.9.46,9.18-4.13,17-10.55,6.88-4.13-6.88-13.76-49.09-16.52-57.34-2.75-10.09-1.84-22-2.29-32.57,0-3.67-.92-8.26.46-11.93"/><path class="cls-2" d="M74.49,153.45c-6.8,10.22-6.22,24.73-5.15,36.43a100.71,100.71,0,0,0,3.74,19.6c2.27,7.64,5.8,15.81,5.47,23.92-.16,4-1.82,12.58-7.57,6.63-1.32-1.37-2-3.56-2.66-5.3-1.79-4.86-3.15-9.9-4.52-14.89-3-10.84-5.62-21.78-8.55-32.63a91,91,0,0,1-3.58-20.62c-.2-5.22-.11-10.44-.25-15.66-.13-4.54-.9-9.19.4-13.6.24-.82-1.87-2.12-2.16-1.13-1.3,4.42-.53,9.07-.4,13.6.15,5.22.06,10.44.25,15.66A83.94,83.94,0,0,0,52.71,185c3.33,12,6.18,24.22,9.55,36.26,1.6,5.71,4.48,22.9,13,23,5.49.05,5.72-9.2,5.44-12.79-.69-8.78-4.49-17.1-6.65-25.57a103.74,103.74,0,0,1-3-25.95c0-8.39.73-17.84,5.51-25,.51-.77-1.52-2.23-2-1.47Z"/><path class="cls-1" d="M109.45,158.31c-1.83,13.3-.46,24.31-9.18,36.24-9.63,12.39-34.41,23.4-50,21.56-6.42-.92-13.76-9.63-6-14.22,5.5-3.21,14.22-2.75,20.19-5,14.68-4.59,15.6-17.89,17-29.82"/><path class="cls-2" d="M108.37,157.75c-2,15.12-1.62,30.36-14.09,41.26-10.34,9-25,15.52-38.77,16.33-4.48.27-9.21-.05-12.09-4.11-3.23-4.55,0-8,4.3-9.65,7.05-2.67,14.82-2,21.65-5.5,10.68-5.55,12-17.77,13.18-28.48.1-.88-2.05-2.09-2.16-1.13-1.37,12-3.09,24.73-16.06,29.29-6,2.1-29.19,2.22-23.61,14,4.3,9.07,15.84,8,23.93,6.27a72,72,0,0,0,31.65-15.55c12.57-11,12.25-26.3,14.23-41.6.11-.87-2-2.09-2.16-1.13Z"/><path class="cls-1" d="M71.71,276.37c-10.29,2.91-23.59,3.24-29.45-5.27-3.51-5.09-3.93-10.24-1.61-15.24C43.21,250.36,49,245,51.54,240.4c4.9-8.72,6-17.44,16.9-20.17,6-1.09,9.51.89,13.81,2.54l.36,1.27c7.63,6,3.33,17.57,3.87,25.75C87,262.88,80.66,273,71.71,276.37"/><path class="cls-2" d="M71,275.46c-6.5,1.75-13.81,2.84-20.38.78-11-3.43-12.42-15.2-6.57-23.74,3.79-5.54,8.07-10.17,11-16.31,2.44-5.2,4.76-10.81,10.16-13.59a16.29,16.29,0,0,1,12.85-.7,16.78,16.78,0,0,1,3.3,1.14c.19.14.16.86.4,1.09,5.42,5.15,4.41,12,3.85,18.79-.51,6.17.22,12.25-1.81,18.24a23.15,23.15,0,0,1-13,14.34c-.87.36.92,2,1.74,1.7a23.11,23.11,0,0,0,12-11.56c3-6.2,2.65-12.33,3-19,.42-8.55,2.31-18.85-5.5-24.73-4.24-3.19-11.92-3.66-16.68-1.88-5.77,2.16-8.75,6.92-11.27,12.26-3.19,6.76-7.25,12-11.58,18-3.8,5.31-5.82,11.27-3,17.54,5.71,12.73,21.34,12.47,32.85,9.38,1.16-.31-.55-2-1.35-1.81Z"/><path class="cls-1" d="M80.24,229.5c6.54,11.45,2.18,31.61-8.18,40.33-8.72,6.54-19.62,6-26.7-2.18a20.33,20.33,0,0,1-4.69-11.39"/><path class="cls-2" d="M79.25,229.36c5.5,10.32,3.11,24.31-3.08,33.82-3.49,5.35-8.83,9.46-15.36,10.11-10.24,1-18-6.84-19.06-16.66-.09-.82-2.27-1.91-2.14-.73,1.75,16.05,20.25,25.19,33.41,14.73,11.11-8.84,14.82-28.62,8.22-41-.39-.73-2.65-1.52-2-.28Z"/><path class="cls-1" d="M78,234.48c2.48-4.13,7-2.75,6.19-8.95-.83-7.84-15.69-8.67-21.88-7.84-4.54.83-7.43,2.06-7.43,6.19,0,1.65,2.89,6.81,3.72,7.64,1.26,1.05.72,1,8.67,1.34C69.22,232.94,78,234.48,78,234.48Z"/><path class="cls-2" d="M79,235.21c2.2-3.1,6.25-3.61,6.35-7.92.08-3.23-1.73-5.71-4.34-7.39-5.89-3.8-17.26-5.1-23.68-1.93-5.88,2.9-3.13,11.91,1.71,14.75,2.51,1.47,6.18.83,8.91,1.06,3.51.3,7,1,10.47,1.6,1.39.24-.06-1.65-.88-1.8a108.93,108.93,0,0,0-13.84-1.74c-2.71-.13-4,.22-5.47-2.16-1.9-3-3.48-6.58-.35-9.29,4.17-3.62,13.8-2.28,18.58-.93,3.77,1.07,9.24,4.92,6,9.49-1.4,2-4,2.72-5.51,4.79C76.41,234.49,78.43,236,79,235.21Z"/><path class="cls-1" d="M57.15,216.12c1.38,3.21,1.54,1.08,5.2,1.65,4.89.76,7,6.8,3.06,8-5.42,1.67-14.68,1.83-19.73-1.38-7.8-4.59-.31-7.8,0-10.55A25.65,25.65,0,0,0,57.15,216.12Z"/><path class="cls-2" d="M56.16,216c.74,1.58,1.58,2.77,3.41,2.86.53,0,1.1-.25,1.64-.25,1.94,0,5.49,1.77,5.17,4.18s-3.51,2.66-5.52,3c-4.39.63-12.61,1.08-16-2.6-3.66-4,1-5.15,1.85-8.7l-.91.27c3.73,1.48,7.91,2.67,12,2.32,1.14-.1-.52-1.88-1.35-1.81-3.74.31-7.54-.83-11-2.18-.32-.13-.81-.13-.91.27-.94,3.82-5.78,5.5-2,9.61,4,4.29,10.76,5.17,16.29,4.93,3.47-.15,11-.42,9.38-5.74a7.83,7.83,0,0,0-4.05-4.48c-1.34-.66-5.66-.39-6.12-1.36C57.79,215.5,55.56,214.69,56.16,216Z"/><path class="cls-1" d="M68.36,82.94c-8.06,3.61-16.4,3.61-21.69-5.56-3.06-5.56-2.22-10-9.45-11.68-6.12-1.67-10.29.56-15.85,3.89C10.25,76.26,3.57,83.49,1.9,96.84.51,106.57-.32,121,9.69,126.59c7,3.61,15.85,5.84,23.63,7.51,4.73.83,13.62,3.06,17.52.56"/><path class="cls-2" d="M67.48,82.08c-8.9,3.77-17,2.22-21.15-7.43C44.77,71,43.74,67.74,40,65.87c-10.23-5.08-22,3.18-29.22,10.05C2.48,83.76.14,94.79,0,105.81c-.12,10,2.89,18.61,12.46,22.86a104,104,0,0,0,21.84,6.42c5.35,1.07,12.24,3.06,17.41.41.87-.45-1-2.11-1.74-1.7-5.94,3.05-15.72-.21-21.86-1.68-8.14-1.94-19.78-4-23.73-12.32-5-10.45-2.43-28.09,4-37.37,3.86-5.55,9.53-9.53,15.32-12.86,3.83-2.2,7.75-4,12.31-3.33,5.74.89,6.66,4.35,8.54,8.69C49.18,85.58,59,88.11,69.23,83.79c.87-.37-.92-2.05-1.74-1.7Z"/><path class="cls-1" d="M57,90c3.61,5.84.42,9.94-.42,16.89-.83,6.39-5.4,12.53-10.63,16.89-3.75,3.13-10.48,6-12.09,6.88,6.88,3.75,22.38-6.33,26.27-15.5,4.45-10.84,3.27-22.73-4.24-31.07Z"/><path class="cls-2" d="M56,89.82C58.44,94.42,57,98.3,56,103c-1.07,5-2,9.34-5.1,13.6-4.73,6.43-11.12,9.6-18,13.14-.73.38.41,1.4.77,1.56,9,4.07,20.59-5.1,25.42-12,7.38-10.58,5.68-25.8-2.43-35.35-.26-.31-2.15-1.48-1.92-.27l1.11,5.91c.15.81,2.36,1.87,2.14.73l-1.11-5.91L55,84.14c7.55,8.89,8.91,22.6,2.76,32.71C54,123.07,42,133.57,33.92,129.91l.77,1.56c8-4.13,15.31-7.91,20-16,2.47-4.26,2.87-8.79,4-13.49,1.07-4.4,1.42-7.78-.77-11.86C57.56,89.37,55.3,88.58,56,89.82Z"/><path class="cls-1" d="M31.1,136c3.06,3.34,10.84,4.45,10.57-2.22,0-4.17-3.61-3.34-7-3.34"/><path class="cls-2" d="M30.45,136.36c2.55,2.62,9.1,5.32,11.6,1.18,1.15-1.91,1-5-.62-6.61-2-1.89-4.94-1.39-7.4-1.36-1.11,0,.53,1.82,1.35,1.81,1.43,0,4.51-.7,5.1,1A4.66,4.66,0,0,1,39.24,137c-2.18,1.73-5.76.5-7.49-1.28-.85-.87-2.46-.56-1.29.64Z"/><path class="cls-1" d="M22.2,134.65c1.95,3.34,9.18,3.06,11.68.28,5.56-6.12-2.5-7.79-7.23-7.79"/><path class="cls-2" d="M21.35,134.74c3.36,5,12.68,4.17,15.09-1.34,2.51-5.74-6.88-7.13-10.47-7.17-1.09,0,.53,1.8,1.35,1.81,2.93,0,9.3.51,6.57,4.83-1.86,2.94-8.46,5.24-10.85,1.68-.54-.81-2.6-1.17-1.69.18Z"/><path class="cls-1" d="M10.25,133c4.17,3.06,12.23,5.84,16.13.56,2.5-3.34,2.22-10.57-3.34-9.73-3.34.28-4.45,4.73-8.34,2.5"/><path class="cls-2" d="M9.86,133.52c5.65,4,17.28,6.92,19-2.77.48-2.77-.32-5.84-2.92-7.25a5.86,5.86,0,0,0-4.33-.45c-2.34.66-4,3.87-6.78,2.55-1.51-.72-1.32.9-.21,1.43,2.14,1,3.66,1,5.61-.37,1.08-.76,2.1-1.85,3.51-1.94,2.58-.16,3.25,2.1,3,4.28-.85,8.7-10.92,7.1-16.12,3.46-1.23-.86-2,.2-.78,1.07Z"/><path class="cls-1" d="M4.41,125.75c-3.89,7,5.28,14.18,10.29,6.67,6.67-9.73-3.34-13.9-10-6.67"/><path class="cls-2" d="M3.4,125a7.75,7.75,0,0,0,3.05,10.43c4.37,2.58,8.35-.1,10.4-4.21,1.7-3.4,1.52-7.42-2.19-9.3-3.9-2-8.22.21-11,3.08-.6.62,1.36,2.16,2,1.47,1.93-2,4.85-3.94,7.79-3.4,3.26.6,2.4,4.53,1.33,6.69-1.32,2.66-4,6-7.36,4.66-3.21-1.23-3.41-5.31-2-7.95.44-.85-1.63-2.24-2-1.47Z"/><path class="cls-1" d="M20.26,92.25c-.42,1.88-3.54,3.34-3.75,5.21a3.26,3.26,0,0,0,1.67,3.13c2.09.83,2.09-1,3.34-2.29,2.29-1.88,3.75-3.34,4.8-6.46.83-2.5,2.43-7-.9-7.37-2.92-2.92-8.69,3-9.73,4.24-2.92,3.34-3.54,5.42-4.8,9.8-.83,3.13-2.5,8.55.21,11.47,3.75,4.17,7.72-.42,10-2.71,2.92-3.13,6-4.59,7.92-8.55,1-1.88,1.46-3.54,2.29-5.21,1.25-2.09,1.88-3.13,2.09-5.42.63-5.42,1.46-16.27-6.67-15.64"/><path class="cls-2" d="M19.24,91.52c-1.38,3.08-6.76,6.63-1.46,9.61a3.05,3.05,0,0,0,3,.23C21.48,101,22,99.58,22.52,99c1.21-1.32,2.64-2.24,3.6-3.82C27.84,92.39,30,87,27,84.42c-2.68-2.26-5.73-1.83-8.47,0A21.61,21.61,0,0,0,10.24,96.4c-1.31,4.31-3.23,10.08.2,13.9,3.21,3.58,7,2.14,10.1-.73,2.29-2.13,4.78-4.23,6.92-6.49,2.66-2.8,4.08-6.79,5.68-10.24C36.31,86,36.48,71.41,26,71.53c-1.11,0,.53,1.82,1.35,1.81,2.14,0,4.42,2.44,4.87,4.29a15.6,15.6,0,0,1,.31,2,29.88,29.88,0,0,1,0,5.32c-.3,4.26-2.11,7.86-3.88,11.7-2,4.27-5.34,6.71-8.61,9.92-2,2-7.1,7.82-9.32.64-.57-1.86.33-4.73.78-6.54,1.05-4.2,2.37-8.11,5.3-11.37,1.63-1.82,5.61-5.94,8.31-4.17,2.91,1.91-.78,8.5-2.21,10.18-.35.41-3.52,3.88-3.56,3.88-1.42-.21-.37-3-.07-3.56.56-1,1.45-1.48,2-2.61.4-.88-1.68-2.23-2-1.47Z"/><path class="cls-1" d="M139.32,54.51c8.34-1,2.29-15.85.83-19.81A57.53,57.53,0,0,0,116.43,6.28c-5.31-3.1-12.71-6.51-19-5.17a30.38,30.38,0,0,0-8.76,3.4,9.48,9.48,0,0,0-3.33,2.71c-.83,1.44-.07,3-1.22,4.09,1.56-.27-2.11,3-1.28,1.7-3,2.65.94,0-1.93,3-1.49,1.54-3.79,4.23-3.7,6.42.12,2.85,2.87,1.84,5,1.62,7.35-.74,14.37,1.09,21.52,2.14,4.11.6,7.73,1.13,11.58,2.76a43.67,43.67,0,0,1,5.05,2.61c1.2.71,3.63,2.78,5,2.51,1.53-4.57,2.25-9,1.24-13.89a19,19,0,0,0-2.71-6C118.53,5.27,106.27,0,96.16,1.75c-9.59,1.67-15,9.38-20,17.31-1.25,2.09-5.42,8.13-1.88,9.59Z"/><path class="cls-2" d="M140,55.41c14.11-2.82-5.2-33.1-9-37.57-6.3-7.38-14.55-13.64-23.86-16.63A20.77,20.77,0,0,0,94.3.85a27,27,0,0,0-7.74,3.56c-2.71,1.92-2,3.22-3.48,6.16-.38.74.84,1.55,1.45,1.63l.36,0-1.52-1.47A2.94,2.94,0,0,1,82,12.39L83.71,14l.12-.28c.36-.86-1.32-2.12-2-1.47-.36.34-1.21.88-1.24,1.49s.71,1.24,1.25,1.4c-1.8-.52-.56-.69-2.34.5a9.45,9.45,0,0,0-2.38,3.12c-.76,1.37-1.44,3.07-.64,4.59,1.45,2.77,4.93,1.67,7.33,1.48,7.8-.62,16.13,1.33,23.79,2.72a36.78,36.78,0,0,1,13.23,5c1.62,1,3,2.12,4.95,2.32.3,0,.54,0,.64-.33,2.76-8.83,2-17-4.32-24.09A31.11,31.11,0,0,0,103.22.76a23.36,23.36,0,0,0-20.3,7.07,61,61,0,0,0-7.79,10.5c-1.32,2.11-3.42,4.9-3.32,7.51C72,30.47,81.68,32.36,85,33.66l32,12.72,22.55,9c1.51.6.53-1.32-.35-1.67l-52.75-21c-3.43-1.36-7.26-2.45-10.52-4.18-.34-.18-1.54-.36-1.77-.71-1.59-2.31,3.43-8.67,4.64-10.52C84.57,8.49,92,1.29,103.4,2.46c13.06,1.34,24.49,12.17,22.16,25.89-.13.75-.39,3-.8,3.4-1.61,1.76-2.48.18-4-.77a38.79,38.79,0,0,0-6.44-3.23c-5.22-2-10.91-2.46-16.38-3.38a97,97,0,0,0-9.82-1.32c-2.3-.15-5.59.7-7.7.21-1.15-.27-1.69,1.37-2-1.43-.14-1.26,1.86-3.28,2.7-4.26.68-.79,2-1.6,1.93-2.76,0-.55-.81-1-1.25-1.2l-.32-.1,1.25,1.4a4,4,0,0,1,1.11-1.16l-2-1.47-.12.28c-.32.76,1,1.82,1.69,1.64a3.16,3.16,0,0,0,2.16-2.27c0-.73-.87-1.38-1.52-1.47l-.36,0L85.11,12c1.21-2.33.7-3.81,3.2-5.93a19.48,19.48,0,0,1,5.45-2.78,20,20,0,0,1,14.47-.21c9.21,3.14,17.21,9.75,23.07,17.39,2.88,3.75,19,30.75,7.34,33.09C137.49,53.83,139.18,55.58,140,55.41Z"/><path class="cls-1" d="M102.42,1.26c2.85.07,6.39,1.53,9,2.71a32.79,32.79,0,0,1,9.24,5.77c5.42,5.14,7.09,12.16,5.28,19.25a13.67,13.67,0,0,1-.42,2.43c-.14.35-.42,2.36-.76,2.5-.63.35-4.24-2.92-5-3.27-3.48-1.67-6.67-3.41-10.5-4.17-9.45-1.88-19.11-1.95-28.64-3.13-1.53-.21-4-.7-3.48-2.78.28-1,1.46-1.39,1.95-2.22a6,6,0,0,0,.35-1.88c.28-1.67,1.53-3.27,2.29-4.8,1-1.81,2.57-2.57,3.82-4.1a8.16,8.16,0,0,1,4-3.2c1.67-.63,1.39-.9,4.66-2.22S102.42,1.26,102.42,1.26Z"/><path class="cls-2" d="M102.86,2.16c6.65.64,14.91,4.67,19,10s4.32,12,2.67,18.12c-.55,2-.28,2.47-2.28,1.45-1.1-.56-2.06-1.52-3.18-2.12A42.71,42.71,0,0,0,105,24.93c-6.33-1-12.74-1.29-19.12-1.87-1.48-.14-3.41,0-4.77-.49q-1.91.13-2.46-2.11l.77-.65a36,36,0,0,1,2-5c3.8-7.85,12.77-13.21,21.47-12.61,1.43.1,0-1.74-.88-1.8-5.5-.38-12,1.2-16.18,5-2.75,2.51-5.87,5.71-7.1,9.31a16.4,16.4,0,0,1-.89,2.92c-.46.83-1.42,1.33-1.71,2.25a2.43,2.43,0,0,0,.19,1.9c.9,2.06,3.8,2.38,5.69,2.63,6,.8,12.13,1,18.17,1.63,6.74.71,13.55,1.79,19.46,5.37,1.74,1.05,3.39,3.3,5.55,3.45.18,0,.46,0,.57-.16,1.62-2.64,1.91-7.43,1.93-10.38a19.77,19.77,0,0,0-3.23-11.09C119.87,6.26,110.14,1.15,102,.36,100.56.23,102,2.08,102.86,2.16Z"/><path class="cls-1" d="M129.11,39c-1.93-2.25-3.92-4.41-6-6.53-5.93-6.1-12.44-11.81-19.88-18.16C88.44,2,65.09-1.33,47.16,5.14c-4.17,1.46-6.88,4.38-6,9.18.83,4.59,6.46,6.88,10.43,8.76C59.67,26.62,69.26,31.2,78,28.91c8.55-2.5,17-1.36,26.2-.47,5.39.52,16.33,5.06,20.3,8.6,3.54,3.13,8.34,7.11,11.68,10.44C137.87,49.16,131.7,42,129.11,39Z"/><path class="cls-2" d="M130,38.91a198,198,0,0,0-18.24-18.15c-5.69-5-11.28-10.08-18.15-13.47A62.66,62.66,0,0,0,52,2.59c-5.09,1.22-11.68,2.91-12.1,9.14-.34,5.15,4,8.26,8,10.39,6.55,3.43,14,6.74,21.28,7.93a28.18,28.18,0,0,0,11.18-.68,53.65,53.65,0,0,1,15.26-.85c9,.59,17.3,2.13,25.21,6.79,4.17,2.46,7.78,6.13,11.35,9.37,1.26,1.14,2.85,3.58,4.69,3.94.75.15.7-.56.41-1A109.19,109.19,0,0,0,130,38.91c-.61-.71-2.75-1-1.69.18a109.07,109.07,0,0,1,7.37,8.71l.41-1q1.79.95-.23-.67-1.13-1.08-2.28-2.12c-1.61-1.46-3.26-2.88-4.9-4.3a54.53,54.53,0,0,0-6.5-5.23,48.61,48.61,0,0,0-17.39-6.83c-8.31-1.36-17.42-1.88-25.68-.11C68.35,29.84,58.91,26,49.35,21.28,44.48,18.89,39,13.46,44,8.35c2.9-3,8.36-3.85,12.22-4.56a61.46,61.46,0,0,1,26.23.95C92,7.18,99.59,12,107,18.38a212.39,212.39,0,0,1,21.3,20.72C128.87,39.81,131,40.14,130,38.91Z"/><path class="cls-1" d="M122.71,34.56c13.62,11.16,18.91,14.6,18.77,38.09-.07,11.12,0,20.3,2.22,31.42,1.67,7,.56,12.23-2.22,19.18-1.67,3.89-4.73,7.23-6.12,11.4-1.11,3.06-1.11,6.12-3.61,8.9-4.73,5.84-9.18,12.23-14.18,18.07-4.45,5.28-7.51,10.29-14.18,12-11.4,2.78-22,1.11-32.53-4.45-9.73-5-22.24-17.24-25.3-28.08-2.78-10.29,1.67-24.47,6.4-33.64,2.78-5.84,5-23.36,7.23-29.19,2.22-5.56,3.39-5.7,3.89-12,1.11-13.9,1.93-15.73,5.84-27.8C72,29,85.87,22.88,98.24,25.52,98.24,25.52,112.7,26.36,122.71,34.56Z"/><path class="cls-2" d="M122.32,35.09c7.63,6.25,14.9,11.92,17,22.07,2.74,13.43.39,27.52,2.4,41.12,1.2,8.15,2.4,14.78-.63,22.69-1.47,3.84-4,7-5.76,10.67-1.49,3.11-1.74,6.78-3.51,9.75-3.79,6.35-9.37,12.42-14.09,18.13s-8.9,11.86-16.69,13.53c-16,3.41-31.76-3.22-43.05-14.45-5.08-5-10.13-11.39-11.65-18.56-1.47-6.91.08-14.44,2.19-21.06,1.67-5.26,4.54-10,6-15.31S56.9,93,58,87.64a81.47,81.47,0,0,1,4.77-14.42C64.88,68,64.41,62,65.24,56.5A86.91,86.91,0,0,1,70,39c2.66-7,9.68-11,16.74-12.55,11.37-2.46,26.67,1.7,35.59,8.63,1.19.93,2-.15.78-1.07-8.35-6.49-19.17-9.35-29.62-10a30.22,30.22,0,0,0-17.8,4.43c-5.6,3.57-7.54,8.4-9.48,14.47a85.54,85.54,0,0,0-3.75,17.67C62.1,64,62.17,67.7,61.05,71c-.95,2.79-2.55,5.3-3.44,8.13C55.75,85,55,91.31,53.63,97.35c-1.39,6.25-4.08,11.57-6.27,17.53-2.5,6.8-4.31,14.31-3.6,21.6.64,6.58,4,12.37,8.1,17.43,8.64,10.72,20.83,19.12,34.59,21.34,6.74,1.09,15.1,1.06,21.29-2.14,6.39-3.31,11-10.75,15.33-16.26,2.72-3.48,5.34-7,8.07-10.51s3.67-6.18,5.07-10.35c1.47-4.36,4.46-7.82,6.29-12a35.07,35.07,0,0,0,3-11.29c.32-4.36-.86-8.52-1.53-12.79a124.71,124.71,0,0,1-1.36-16.07c-.21-8.26.47-16.65-1-24.83-2-11.5-9.94-17.94-18.54-25C121.93,33.06,121.16,34.15,122.32,35.09Z"/><path class="cls-1" d="M156.49,112.13A15,15,0,0,0,139,93.78c-22.24,4.17-30.79,25-44.49,30-9.71,3.55-16.13,1.74-17.24,4.24-1.67,3.61,11.12,3.61,13.35,3.34,5.56-.56,11.12-2.78,16.13-5.28a213,213,0,0,0,26.69-15.29c4.17-2.5,8.62-4.45,13.62-3.89,4.45.56,5.84,4.17,9.73,5.84"/><path class="cls-2" d="M157.57,112.7A16.8,16.8,0,0,0,138.3,92.87c-13.61,2.26-22.94,12.25-32.41,21.32-5.35,5.12-10.57,8.76-17.94,10.29-2.27.47-11.55-.08-11.92,3.44-.75,7.12,19.2,3.74,22.08,2.86,10-3.06,19.57-8.79,28.43-14.25,4.38-2.7,8.6-6.05,13.5-7.78s8.57-.94,12.82,2.12a29,29,0,0,0,3.8,2.52c1.49.76,1.3-.87.21-1.43-4.5-2.31-6.7-6.1-12.16-6.13-7.28,0-13.28,4.86-19.15,8.51-11.11,6.9-24.95,16.18-38.47,16.16-2.06,0-5,.18-6.94-.62-3.88-1.6.73-2.46,2.65-2.68,5.51-.65,11.14-1.45,16-4.26,8.46-4.86,14.38-13.32,22-19.3,5.44-4.28,11.92-7.87,18.84-9,10.36-1.64,17.58,6.93,15.76,16.88-.16.86,2,2.11,2.16,1.13Z"/><path class="cls-1" d="M56.75,84.12c-.79,3.53.59,11,1.35,14.5C59.34,104,62,109.5,64.39,114.3a39.37,39.37,0,0,0,2.91,5.28c1.09,1.36,3.2,3,3.49,4.61-4.26,3.86-11.62-8.26-13.11-11.1-2.58-5-3.87-10.75-4.84-16.23-.63-3.56-1.13-12.89,4-13.37"/><path class="cls-2" d="M55.67,83.55c-1,6.31.73,13.75,2.85,19.69a104.08,104.08,0,0,0,5.55,12.29,27,27,0,0,0,2.38,4.15c1,1.24,4.89,4.21,1.44,3.86-6.12-.63-10.82-13.32-12.16-18C54.46,101,50.18,86,57.54,84.39c1.16-.25-.53-2-1.35-1.81-10.3,2.19-2.32,24.56.14,29.6,1.93,4,9.36,17.15,15.34,12.86.27-.19.23-.43.12-.71-1-2.76-3.57-4.62-5-7.17A91,91,0,0,1,61.48,106C59,99.82,56.74,91.45,57.83,84.68c.14-.87-2-2.1-2.16-1.13Z"/><path class="cls-1" d="M77.39,129.23c.28,3.61,4.59,4,6.12,6.81s2.36,10.29-1.53,11.4c1-5.56-1.67-5.28-6-6.81a5.31,5.31,0,0,1-2.78-7.92"/><path class="cls-2" d="M76.32,128.87c.67,3.74,4.08,4.13,6,6.9s2.41,9.36-1.21,10.82l2,1.42c.33-2.33.29-4.48-1.71-6a9.78,9.78,0,0,0-2.81-1.33c-3.34-1.17-6.29-3.53-4.31-7.23.45-.84-1.61-2.24-2-1.47A6.29,6.29,0,0,0,73.7,140a11.25,11.25,0,0,0,4.11,2c2.86.92,3.55,1.67,3.09,4.88-.11.81,1.24,1.7,2,1.42,3.45-1.39,3.25-6.09,2.62-9.14a9.12,9.12,0,0,0-1.65-4c-1.63-2-4.85-2.75-5.36-5.59-.15-.82-2.35-1.88-2.14-.73Z"/><path class="cls-1" d="M72,132.71c-2.92,0-2.92,3.34-4.45,5.14-2.36,2.92-7,.7-9,4,2.78-3.48-1.53-8.06,1.25-11.4,3.2-4,7.09.83,10.43-.83"/><path class="cls-2" d="M71.29,131.8c-3.38.31-3.09,3.82-5.2,5.69-2.54,2.25-6.38.65-8.62,3.65l2,1.47c2.42-3.56-1.18-7.74,1.05-11.12,2.5-3.78,7,.37,10.49-1,.86-.34-.91-2-1.74-1.7-3.55,1.39-7.09-2.84-10.3.65s1,8.06-1.52,11.7c-.52.76,1.47,2.21,2,1.47,2-2.74,5.64-1.38,8.17-3.23,2.12-1.54,2-5.5,5-5.77,1.14-.1-.52-1.89-1.35-1.81Z"/><path class="cls-1" d="M80.45,126.17c-.63-2.92-3.61-4.59-6.67-1.39.56-3.48-6-3.34-7.23-1.95-2.22,2.5-.42,6.39,1.25,8.76,4.45,6.26,9.8,1.25,11.47-3.89l.42-1.25"/><path class="cls-2" d="M81.52,126.54c-1.27-4.37-5.42-5.55-8.76-2.49l2.09,1.3c.19-3-3-4.33-5.62-4.33-4.16,0-5.59,3.2-4.26,7,1.15,3.25,3.9,7.19,7.68,7.41,4.56.26,6.91-4.78,8.1-8.38.27-.8-1.83-2.12-2.16-1.13-1.49,4.46-6.43,11.73-10.58,4.66-1.09-1.86-2.4-5.17-.47-7,.92-.86,5.27-1.46,5.14.64-.05.8,1.4,1.93,2.09,1.3,1.26-1.16,3.66-2.9,4.59.29.23.79,2.46,1.81,2.14.73Z"/><path class="cls-2" d="M111.74,97.51C99,100.77,83.09,96.06,72.57,88.44c6.89,9.79-12.33,23.94,5.08,29.74,16,5.44,19.95-9,25.75-19.53"/><path class="cls-2" d="M111.06,96.6c-13.14,3-27.24-1.09-38.1-8.7-.71-.5-1.93-.48-1.24.63,3.85,6.17-1.7,13.06-2.54,19.27-.71,5.27,2.45,8.7,7.13,10.64C82,120.84,88.55,121.2,93.49,117c5.26-4.5,7.71-11.66,10.92-17.59.45-.84-1.61-2.24-2-1.47-2.63,4.85-4.7,10.14-8.08,14.54-4.76,6.18-13.17,8.09-20,3.46-5.74-3.91-2-10.54-.34-15.67,1.33-4.19,1.81-8.05-.59-11.9L72.18,89c11.43,8,26.35,12.65,40.23,9.44,1.16-.27-.54-2-1.35-1.81Z"/><path class="cls-1" d="M92.68,114.49c-3.34-2.64-9.18-3.2-12.51-.42,3.48-1.67-2.36-3.61-5-3.61-4.9,0-4.87,2.78-2.36,4.87s8.34,3.61,11.54,3.2c1-.14,8.9-2.36,8.2-3.61-.14-.14-.28,0-.42-.14"/><path class="cls-2" d="M93.07,114c-4-2.85-9.57-3.75-13.77-.73-.84.6,1,2.15,1.74,1.7,6.77-4.18-17.46-9.11-9.71-.09,2.91,3.38,9.38,5.18,13.68,4.59,1.81-.25,8.92-1.74,8.6-4.16-.07-.55-.77-1-1.25-1.2l-.42-.14c-1.55-.52-.57,1.36.35,1.67l.42.14-1.25-1.2c.18,1.36-7.51,3.09-8.66,3.13-2.08.09-11.23-1.42-10.58-4.73.32-1.62,2.95-1.63,4.09-1.55.68.05,5,.59,3,1.82l1.74,1.7a9.62,9.62,0,0,1,11.25.1c1.23.86,2-.2.78-1.07Z"/><path class="cls-1" d="M91.57,92.11c-6.12.42-15.15-5.84-17.79-11"/><path class="cls-2" d="M90.89,91.21c-6.16.14-13.17-4.66-16.13-9.94-.4-.72-2.67-1.5-2-.28,3.6,6.42,11.94,12.2,19.46,12,1.11,0-.53-1.83-1.35-1.81Z"/><path class="cls-1" d="M104.64,51.1c10,.83,16.68,23.91,7.65,29.05-4.45,2.64-16.4.28-19-4.31-2.92-5.14,1.39-13.9,3.61-18.35a13.24,13.24,0,0,1,5.28-5.42c.83-.42,3.75-1.25,3.75-.42"/><path class="cls-2" d="M105.08,52c9.63,1.37,15.74,24.36,4.84,27.89-3.2,1-7.17.42-10.29-.62-4.95-1.63-6.95-5.05-5.94-10.26a37.68,37.68,0,0,1,3.71-9.84c.85-1.66,6.5-8.58,7.85-7.2.85.87,2.47.56,1.29-.64-2.23-2.28-6,.06-7.85,1.75C94.74,56.66,91.92,64,91.31,69.23c-1.08,9.19,8.1,12.85,16,12.93,17.61.19,10.53-30-3.07-32-1.4-.2,0,1.68.88,1.8Z"/><path class="cls-1" d="M77.67,45.68c7.44,2.57,7.51,11.26,7.65,14.46.14,5.14,0,15.43-7.65,13.48a15.25,15.25,0,0,1-6.74-2.85c-4.17-2.92-4-6.46-3.13-9.8s2-12.5,6.67-15.29C75.17,45.26,75.61,45,77.67,45.68Z"/><path class="cls-2" d="M77.84,46.51c5.69,2.35,6.32,8.56,6.41,13.86.06,3.57.26,9.6-3.13,11.83C77.4,74.65,71.82,71,69.89,68s-1.3-5.16-.58-8.41c.86-3.84,2.65-14.78,8.53-13.11,1.57.44.59-1.4-.35-1.67C69.78,42.67,68,54.42,66.88,59.74c-.72,3.4-1.06,6.44,1.23,9.33a16.69,16.69,0,0,0,10.55,5.56c7.78,1,7.92-8.72,7.73-14.21-.24-6.79-2.22-12.82-8.89-15.57C76,44.23,77,46.15,77.84,46.51Z"/><ellipse class="cls-2" cx="106.59" cy="65.84" rx="5.42" ry="7.23"/><ellipse class="cls-2" cx="77.88" cy="59.23" rx="4.93" ry="6.56"/><path class="cls-2" d="M122.57,51.07c-.56-2.25-3.89-4.63-6-6s-5.84-1.88-7.79-3.38c-1.25-.88-1-1.63-1-3s-.56-2.13-1-3.5c-1.25-3.88,4.45.58,6.67,1.33C117.85,38.27,122.16,41,124,45c.28,1,1.39,6.8-1,5.17Z"/><path class="cls-2" d="M123.56,51.21c-1.12-3-4.19-5.29-6.86-6.86-1.79-1.05-3.91-1.3-5.68-2.29-1.95-1.09-2.51-3.34-2.68-5.43-.25-3.07,2.12-.89,3.54-.14,1.63.86,3.37,1.47,5,2.38,2.49,1.41,5.39,3.55,6.19,6.48.14.52.32,4.28,0,4.14s-.94-.39-1.12,0l-.42.88c-.41.87,1.66,2.23,2,1.47l.42-.88-1.12,0c3.82,2,2.68-4.33,1.84-6.19-2.58-5.77-9.37-7.94-14.5-10.69-.89-.48-3.22-2-4.27-1.08-.47.41-.31,1-.24,1.55a17.82,17.82,0,0,0,.72,2.14c.25,1,.12,1.93.3,2.87.38,1.94,1.72,2.91,3.47,3.74,4.07,1.93,9.55,2.84,11.37,7.67C121.88,51.73,124.07,52.56,123.56,51.21Z"/><path class="cls-2" d="M89.35,31.26c-6.81.88-13.9-.21-14.74,7.3,2.09.25,4.17-.38,6.26-.38,1.67,0,4.31,1,5.7,0s.83-1.54,1.25-3a7.24,7.24,0,0,1,1.67-3.38Z"/><path class="cls-2" d="M88.67,30.36c-6,.71-14-.07-15.14,7.64-.1.69.92,1.43,1.52,1.47,2.57.15,5.09-.51,7.65-.23,1.55.16,3.3.71,4.73-.19s1.16-1.95,1.46-3.33,1.9-2.7,1.52-4.08c-.22-.79-2.44-1.82-2.14-.73.2.7-1.11,2.12-1.38,3-.45,1.45,0,2.62-1.5,3.46s-3.34,0-5,0c-2.1-.07-4.14.5-6.26.38l1.52,1.47c1.06-7.19,8.76-6.3,14.33-7C91.17,32,89.5,30.26,88.67,30.36Z"/><path class="cls-1" d="M150.59,98.49c-8-3.53-25.52,7.84-29.43,11.92"/><path class="cls-2" d="M150.77,98.31c-4.62-1.83-9.92.13-14.22,2-5.44,2.4-11.37,5.68-15.54,10-.22.23.06.38.26.19,6.45-6.13,19.85-15.05,29.15-11.86.17.06.55-.28.35-.36Z"/><path class="cls-1" d="M144.37,96.26c-6.16-.36-10.15,2.18-14.87,5.08"/><path class="cls-2" d="M144.51,96.07c-5.73-.26-10.38,2.13-15.08,5.15-.19.12-.14.41.11.26,4.76-2.79,9-5.17,14.71-5,.17,0,.51-.36.27-.38Z"/><path class="cls-1" d="M190.41,182.2c6.12,3.61,7.51,10.57,7.51,17.52,0,3.61-2.5,27.25-8.62,23.63"/><path class="cls-2" d="M190,182.73c8,5.29,7.27,15.81,6.06,24.17-.32,2.2-2.53,17.72-6.67,15.73-1.51-.72-1.32.89-.21,1.43,6.8,3.26,8.42-11.86,9-15.56,1.44-9.62,1.66-20.84-7.37-26.84-1.24-.83-2,.23-.78,1.07Z"/><path class="cls-1" d="M188.12,179c1.88,5.84,1.25,13.35,1,19.18-.21,8.76,2.29,16.06,4.38,24.4s5,16.47,7.09,24.81c2.09,8.13,1,15.85-.83,23.77-1.67,7.72-6.88,13.14-14.6,15.85-7.51,2.92-24,4.73-31.9,3.06-4-.63-6.67-2.43-10.63-3.89-3.54-1.25-5.42-6-8.34-9-4.38-4.17-2.71-6.26-6.26-11.26-3.34-5-3.54-7.92-.21-12.93,1.46-2.29,4.17-5.21,4-7.92-.21-3.75-5-7.72-6.88-10.84-3.75-6.67,1-19,4.8-24.61,5.63-8.13,11.89-9.59,20.64-13.76,3.34-1.67,6.46.21,10-1,2.09-.63,10.84-.42,11.89-2.5.21-1-.21-.42-.42-.63"/><path class="cls-2" d="M187,178.63c2.88,10.25.14,21.09,2.37,31.54,2.41,11.27,6.15,22.19,9.2,33.29,2.87,10.44,3.47,24.77-2.88,34.26-5.07,7.58-14.37,9.88-22.86,11.12-9.65,1.41-19.57,1.84-28.48-2.74-4.14-2.13-9.31-7.82-11.7-12.08-.91-1.63-1.25-3.56-2.05-5.24-1.23-2.6-3.49-4.82-4-7.74-.89-5.18,4-8.29,5.63-12.63,1.35-3.54-.27-6.26-2.44-9.06-3.31-4.3-5.67-7.28-5-13.08a37,37,0,0,1,4.79-14,27.52,27.52,0,0,1,11.29-10.75c4.72-2.5,10.2-5.45,15.56-5.36,3.6.06,7.35-.68,10.95-1.11,1.75-.21,5.86-.32,6-2.72,0-.72-.87-1.39-1.52-1.47l-.45,0c-1.42-.13,0,1.72.88,1.8l.45,0-1.52-1.47c-.14,2.62-9.1,2.28-11,2.62-5.16.93-8.71.32-13.58,2.52-8.67,3.92-15.91,7.72-20.26,16.66-3.49,7.18-6.22,16.43-.91,23.32,1.53,2,3.8,4,4.71,6.37,1.49,3.92-1.46,6.62-3.37,9.6-2.27,3.55-3.17,6.77-1.39,10.74,1.18,2.63,3,4.85,4,7.57a20.28,20.28,0,0,0,2,4.42c1.36,2,3.21,3.68,4.66,5.64a23.93,23.93,0,0,0,4,4.77c6.19,4.93,15.41,6.34,23.08,6.18,8.76-.18,18.86-1.16,26.71-5.42,9-4.88,11.55-13.93,12.62-23.53,1.58-14.2-4.87-28-8.38-41.48-2-7.67-4.12-15.16-3.89-23.17.18-6.3.64-12.49-1.08-18.64-.22-.79-2.45-1.81-2.14-.73Z"/><path class="cls-1" d="M122.57,144.94c6,4.38,6.53,15.5,10.08,22.17,4,7.72,4.59,15.22,6.46,23.36.83,3.75,2.71,7.3,3.54,11.05.83,3.54.42,7.72.63,11.47.42,8.13-.63,16.47-1.67,24.61-1.25,8.34-4.8,16.68-3.75,25.44a65.81,65.81,0,0,0,2.92,12.3c.83,2.5,4.8,8.55,4,11.05-.21.42.21.63.21.83-3.75.83-7.92-1.88-11.68-2.29s-7.72,0-11.47-.21c-4.38-.21-8.76-1.46-11.89-4.59-2.92-2.71-4.38-3.34-6.26-6.88s-2.69-6.6-4-10.43c-1.25-4.17-1.46-10.43-1.88-14.6-1.25-9.18,2.29-11.68,4-20.64.31-1.68,3.59-9.88,4.38-13.76,1.36-6.71.67-14.61,1.46-17.52,1.67-5.84,1.88-11.47,1.88-17.1,0-5.21-1.67-11.68.42-16.27.83-1.67,2.29-24.81,2.08-25.23"/><path class="cls-2" d="M122.18,145.48c4.81,3.94,5.62,11,7.49,16.57,2,6.06,4.92,11.55,6.29,17.88,1.11,5.11,1.92,10.2,3.65,15.14,2.65,7.59,2.85,15,2.67,23A144.68,144.68,0,0,1,140.54,237c-1.05,6.78-3.5,13.34-3.88,20.23A44.61,44.61,0,0,0,139.71,275c.94,2.5,5.36,8.33,4,11.05-.61,1.18,2.92,1.36-2,.35-1.52-.31-2.75-.74-4.18-1.15a27.57,27.57,0,0,0-6.75-1.35c-3.59-.17-7.23.27-10.8-.17-4.72-.58-8.1-2.7-11.53-5.83-4.7-4.29-7.05-11.24-8.24-17.41C99.06,254.84,98,247.61,98.91,242c1.39-8.74,5.55-17.17,7.87-25.71,1.26-4.64,1.31-9.43,1.48-14.2.2-5.83,2-11.38,2.24-17.24.27-6.12-1.39-12.68-.29-18.67.58-3.17,1.39-6,1.7-9.23.55-5.85,2.07-13,1.18-18.87-.13-.82-2.32-1.89-2.14-.73.5,3.24-.32,7.15-.55,10.4-.31,4.36-.34,9-1.24,13.29a50.68,50.68,0,0,0-1.29,5.46c-.4,4,.49,8.12.56,12.16.13,7.44-2,14.36-2.31,21.67-.28,7.06-.88,13.36-3.19,20.06-1.92,5.59-3.53,11.25-5.29,16.89-1.95,6.27-.88,13-.09,19.46.77,6.25,2.84,14,6.82,19.06,3.69,4.68,9,8.55,15,9.53,4.76.79,9.62-.18,14.37.51,4.14.6,7.63,2.77,11.91,2.3.41,0,.49-.45.31-.77-.53-1-.39-3.46-.82-4.63-1-2.62-2.49-5-3.43-7.62a42.65,42.65,0,0,1-2.08-22.69c1.4-7.32,3.19-14.37,4-21.81a174.24,174.24,0,0,0,.68-22c-.11-6.49-2.55-11.57-4.11-17.75s-2.22-12.59-4.41-18.64c-2.11-5.81-4.4-11.43-6.37-17.32-1.36-4.08-3.08-7.71-6.45-10.47-1.17-1-1.94.12-.78,1.07Z"/><path class="cls-1" d="M117.85,207.57c2.71,1.88,3.34,11.05,3.34,14.6,0,4,5.84,10.64-3.75,9.8-2.91-.25-10.22-3.13-11.05-6-.63-1.88.63-5.21,1-7.09.21-2.29-.21-5.21.21-7.3a5.46,5.46,0,0,1,6.67-4.38c1.46.21,5.42,2.5,4.59,3.34"/><path class="cls-2" d="M117.2,207.89c3.26,3,2.52,9.77,2.9,13.71.2,2.12,2.52,6,1.69,8-1.05,2.52-5.37,1.54-7.37.92-4.16-1.28-7.63-4.18-6.51-8.84a30.07,30.07,0,0,0,.61-6.74c0-1.74,0-3.49,1.14-5,1.36-1.82,8.69-2.76,8.16,0-.17.86,2,2.11,2.16,1.13.41-2.09-3.08-3.76-4.62-4.33-3.21-1.19-6.85-.46-8.38,2.9-1.24,2.71-.21,5.81-.63,8.64-.31,2.08-1.41,4.09-1.2,6.25.31,3.1,3.35,4.89,5.88,6.15,4,2,14.61,5,12.63-2.87A67.07,67.07,0,0,1,122,217.58c-.35-3.45-.77-7.85-3.5-10.34-.89-.81-2.54-.49-1.29.64Z"/><path class="cls-1" d="M113.05,214c1.19,1.43-.05,4.66-1.46,5.91-1.05.93-2.06.29-2.92-.49-2-1.81,1.25-3.13,1-5"/><path class="cls-2" d="M112.2,214.12c.93,1.28-1,6.19-2.72,5.14-.87-.54,0-1.49.4-2a3.61,3.61,0,0,0,.91-2.2c0-.88-2.19-2-2.16-1.13.05,1.45-1.5,2.24-1.69,3.62-.23,1.68,1.9,3.24,3.29,3.66,3.46,1.05,5.34-4.9,3.66-7.22-.29-.4-1-.94-1.52-.81s-.44.62-.17,1Z"/><path class="cls-1" d="M124.31,188.8c6.88-.21,11.05,11.05,9.59,16.47-2.5,11.26-20.85,8.34-23.77-1-1.88-5.21,1.88-11.47,6.46-13.76,2.71-1.46,7.3-3.54,10-1.67"/><path class="cls-2" d="M124.75,189.7c6.35.31,9.31,9.72,8.07,15-1.13,4.85-5.6,7.07-10.28,6.92-5.82-.19-12.26-4-11.79-10.54.43-6,9.27-14.68,15.75-11.57,1.51.72,1.32-.89.21-1.43-7.79-3.74-18.59,5-18.14,13.22.37,6.71,7,11.07,13.11,12,6.88,1,13.54-2.52,13.59-10.07,0-6.42-4.22-15-11.4-15.31-1.43-.07,0,1.76.88,1.8Z"/><path class="cls-1" d="M120.35,208.82c5.63.83,13.14,1.67,13.14-6,0-7.51-7.3-17.31-13.35-8.13-2.09,3.13-1.88,7.51-2.09,11.05-.21,2.29,1,9-.21,10.43-2.5,2.71-9.18-1-10.63-3.13a17.14,17.14,0,0,1-3.34-10.84c0-5.84,1.46-20,10.43-17.1a100.23,100.23,0,0,0,11.26,3.34c4.8,1,7.09,3.34,9,7.92,3.13,8.55,1.67,15.85.63,24.81-.42,3.75-1,7.72-5,9.59-2.29,1-8.55,2.29-11.05,1-2.78-3-.63-10.63-.42-14.8,0-2.5.47-7.14-.21-8.45Z"/><path class="cls-2" d="M120.79,209.72c3.76.54,9.46,1.59,12.29-1.74,3.09-3.63,1.09-10-1.29-13.47-2-2.91-5.48-5.57-9.11-4-5.81,2.57-5.85,10.91-5.7,16.21.07,2.29,1.32,6.39-.24,8.3-1.69,2.09-5.31.63-7.22-.85a12.6,12.6,0,0,1-4.3-8.15c-.83-5.14-.26-12.1,2.28-16.72,1.8-3.28,4.11-4.15,7.8-3.18,3.84,1,9.33,2.06,12.83,3.84,9.73,4.94,7.23,20,6.16,28.8-.54,4.4-.81,9.18-5.41,11.24a18.83,18.83,0,0,1-6.15,1.3c-3.58.22-4-2.33-3.93-5.32.11-3.58.9-7.09,1-10.68,0-1.54-.12-3.21,0-4.74s-1.09-1.21.92-.87c1.39.23-.06-1.66-.88-1.8l-1.88-.31c-.32-.05-.76.13-.63.54,2.22,6.92-2.72,14.75-.33,21.57,1.73,4.95,8.2,3.72,12.16,2.48,8.05-2.52,7.51-12.92,8.07-19.84.58-7.13.18-16.44-5.51-21.66a15.11,15.11,0,0,0-6.66-3.21c-4.1-1.1-9.16-3.67-13.44-3.72-5.6-.07-7.51,6.29-8.3,10.8-1.07,6.13-1.18,13.45,3,18.52,2.14,2.61,8.65,6.92,12,4.16,1.93-1.59,1.06-5.21.92-7.41-.31-4.8-.69-11.07,2.35-15.11,5.82-7.72,12.42,3.88,10.48,9.86-1.64,5-8.16,3.91-12.2,3.33C118.51,207.72,120,209.6,120.79,209.72Z"/><path class="cls-1" d="M125.25,252.61c-.63-1.88-.52-4.59-2.4-5.63-1.46-.83-1.88-.31-2.71-2.09-.42-1-1.15-2.4-1-3.54A54.25,54.25,0,0,0,112,242c-.94.21-5,1.15-5.53,2.09-.21.42.63,1.88.73,2.5.1,1.36-.31,1.25-.94,2.19-1,1.88.21,3.86.63,5.94a20.13,20.13,0,0,0,1,4.48"/><path class="cls-2" d="M126.32,253c-.54-2-.65-4.22-2.13-5.77-1.93-2-3.78-2-4-5.49,0-.7-1.13-1.31-1.75-1.27-2.81.2-11.62-.11-13,3.29-.28.68.54,3,.4,3.6-.33,1.29-1.09,1.54-1,3.26A34.58,34.58,0,0,0,107,259c.3.8,2.48,1.63,2,.28a30.35,30.35,0,0,1-1-4.26c-.31-1.42-1.28-3.16-1-4.6.16-.79,1.12-1.55,1.26-2.37.18-1.11-.16-.93-.18-1.87-.06-2.67,1.9-2.72,4.21-3.24a50.16,50.16,0,0,1,7.51-.72L118,241a8.69,8.69,0,0,0,2.15,5.27c.41.4,1,.56,1.37.91,1.79,1.57,2.06,3,2.64,5.08.22.79,2.44,1.82,2.14.73Z"/><path class="cls-1" d="M132.86,247.19c.42,1.46-.21,2.92-.42,4.38-.63,3.34-.42,6.46-.63,10-.21,7.72,3.61,13.49,6.74,20.57-4-.83-11.75-.35-15.71-1-4.59-.63-6.26-1.25-9.38-5a87.85,87.85,0,0,1-7.09-10.84c-2.29-4-2.09-7.3-2.5-11.68-.21-1.25-.21-2.29-.42-3.54,1.46,5.63,10.43,6.88,15,5.42,4.38-1.46,10-9.59,14.81-8.13"/><path class="cls-2" d="M131.79,246.82c.33,3.91-.88,8.46-1,12.45a30.18,30.18,0,0,0,.75,8.61,54.3,54.3,0,0,0,3.79,9.4c.07.15,2,3.45,1.7,3.8s-4.09-.31-4.61-.33c-3-.11-6,0-9-.33-4.92-.5-8-2.58-10.84-6.61-2.64-3.7-5.78-7.88-6.87-12.39-.86-3.52-.81-7.36-1.23-10.94l-2.06-.5c1.81,5.06,7.5,7,12.49,7a12,12,0,0,0,7.64-2.53c3.13-2.3,6.81-6.92,11.13-6.17,1.39.24-.06-1.66-.88-1.8-4.48-.78-7.79,3-11,5.5-4.57,3.55-14.71,5.73-17.37-1.75-.21-.6-2.2-1.7-2.06-.5.63,5.32.52,10.59,3,15.45s5.69,10.26,9.8,13.76c6.32,5.39,16.29,2.82,23.82,4.11.52.09.76-.3.55-.76-2.71-6-6.21-11.83-6.57-18.53-.29-5.42,1.4-10.92,1-16.21-.07-.83-2.24-1.92-2.14-.73Z"/><path class="cls-1" d="M121.6,242.6c-2.4,2.92-8.13,3.86-11.68,4.17-2.29.21-4.07.52-4.48-2.09s-.63-4,1.88-4.9a32.9,32.9,0,0,1,9.49-2.09c1.25-.1,3.65-.21,4.48.94.73.83.63,3.13.63,4.27h0a.66.66,0,0,1-.63,0"/><path class="cls-2" d="M120.59,241.86c-2.09,2.24-5.22,3.08-8.14,3.59-2.32.4-6.12,1.52-6.15-1.93s4.77-4,7.46-4.45a19.46,19.46,0,0,1,4.32-.52c1.19.07,2.12,0,2.67,1.33.11.25.27,2.11-.14,2.11-1.1,0,.53,1.81,1.35,1.81h.63c.16,0,.4-.15.4-.34,0-3.94-1-6.64-5.34-6.74a29.18,29.18,0,0,0-8.17,1.19c-1.9.52-4.61,1-5.27,3.16a5.06,5.06,0,0,0,4.42,6.71c4.54.18,10.77-1,14-4.46.59-.63-1.37-2.17-2-1.47Z"/><path class="cls-1" d="M114,237.49a18.46,18.46,0,0,1,.1,2.4,11.2,11.2,0,0,1-4.17.52c0-.73-.21-1.46-.21-2.09-.31.1-1.15.1-.94-.63.1-.42.66-.76,1.08-1.08a13,13,0,0,1,3.51-.59c1-.1,2.4.21,1.25,1.25-.31.31-1.46.21-2,.52"/><path class="cls-2" d="M112.92,237.13c0,.4.3,1.45.09,1.79s-.5.34-.91.41a10.76,10.76,0,0,1-2.62.18l1.51,1.26c0-.7-.17-1.39-.21-2.09a1.81,1.81,0,0,0-1.75-1.27l-.25,0q.81,1.32,1.31.5a4.84,4.84,0,0,1,.9-.6,8.45,8.45,0,0,1,2.27-.36,9,9,0,0,0,1.07-.09l.34,0q-.57-1.14-1.08-.41a7.72,7.72,0,0,0-1.83.42c-.87.39.93,2.07,1.74,1.7.63-.28,1.39-.14,2-.52a1.21,1.21,0,0,0,.44-1.69c-.87-1.48-2.72-1.37-4.18-1.23-1.28.12-3.68.32-4.05,1.92-.32,1.35,1.55,2.37,2.7,2.1L108.64,238c0,.7.17,1.39.21,2.09s1,1.23,1.51,1.26a12.12,12.12,0,0,0,4.6-.57.37.37,0,0,0,.21-.29,24.54,24.54,0,0,0-.11-2.6c-.09-.82-2.27-1.91-2.14-.73Z"/><path class="cls-1" d="M193.54,246.56c-4.8-4.38-13.55-5.63-20-6.46-7.3-.83-19-1.67-23.77,4.8-4.38,5.84-5,15.85-5,22.94a31,31,0,0,0,2.09,11.47c1.67,4.8,4.59,7.72,9.38,8.55,6.46,1,13.14-1.46,19-3.75,3.13-1,12.09-7.09,10-10.63"/><path class="cls-2" d="M193.93,246c-4.73-3.91-10.8-5.32-16.74-6.26s-11.93-1.64-17.8-.84c-14.1,1.93-15.87,16.35-15.72,28.34C143.81,279,149,290,162.21,288.89a39.77,39.77,0,0,0,18.61-6.59c2.69-1.91,6.84-5,5.38-8.7-.31-.79-2.51-1.62-2-.28,1.42,3.6-5.4,7.67-7.78,8.95a43.9,43.9,0,0,1-14.69,4.7c-9.06,1.13-13.52-3.86-15.27-12.17-1.09-5.2-.78-10.9-.11-16.15.59-4.62,1.64-9.83,4.77-13.46s7.79-4.43,12.16-4.69c9.26-.55,22.55.55,29.86,6.59,1.17,1,1.93-.12.78-1.07Z"/><path class="cls-1" d="M196.25,251.57c-.83-6.67-9.38-9.59-15.22-10.63-7.51-1.46-15.64-1-22.52,2.92-6.26,3.54-7.09,15.43-7.3,22.31-.21,5.63-.63,20,5.63,21.69,6.88,1.88,17.72-.21,24.61-1.46,5-.83,7.09-1.67,9.18-6.46,1.67-4,2.09-7.92,3.34-12.09,1.46-5.63,2.92-11.68,2.29-17.52"/><path class="cls-2" d="M197.32,251.93c-1.93-9.74-15-12.37-23.28-12.65-5.8-.2-13.21.79-17.8,4.73-3.91,3.36-5,9.31-5.6,14.15-1,7.93-2.36,20.08,2.17,27.16,2.23,3.49,6,4,9.88,4.16,6.51.26,13.06-1,19.43-2.18,5.92-1.11,8.63-3.48,10.49-9.35,2.7-8.55,5.37-18.24,4.71-27.26-.06-.83-2.23-1.93-2.14-.73.56,7.77-1.81,15.12-3.62,22.58-1.71,7.06-3.3,11.54-10.8,13-5.82,1.1-11.77,2.22-17.71,2.21-4.44,0-8.35-.73-9.74-5.59a34,34,0,0,1-1.05-7.71c-.4-8.29-.91-20.61,4.56-27.39,4.5-5.58,14-6.37,20.57-5.76,6.42.6,16.3,2.47,17.78,10,.16.81,2.37,1.87,2.14.73Z"/><path class="cls-1" d="M180.4,253.44a32.82,32.82,0,0,0-14.18,1.67c-1.25.52-3.65,2.19-5.11,2s-2.29-2.82-2.4-4.17c8.13-3.86,19.6-4.8,28.26-1.88,1.24.47,6.69,2.58,7.89,4.62.94,1.6-1,2.64-1.95,2.05A36.53,36.53,0,0,0,180.4,253.44Z"/><path class="cls-2" d="M180,252.54c-5.25-.36-10.64,0-15.48,2.14-1,.43-4.44,2.9-4.54-.47,0-1,2.42-1.6,3-1.81a40.48,40.48,0,0,1,10.36-2.06,38.64,38.64,0,0,1,9.8.49c2,.38,6.68,1.29,8.25,2.92,4.6,4.77-3,1-4,.67a37,37,0,0,0-7.45-1.89c-1.4-.21,0,1.68.88,1.8,4.07.6,7.47,2.08,11.2,3.65,1,.44,2.32,1.31,3.43.37,2.62-2.23-2.33-5.18-3.88-6-10.23-5.58-23.31-4.93-33.75-.27a.43.43,0,0,0-.2.49c.36,2.27,1.48,5.17,4.15,5.44,1.92.19,3.65-1.34,5.3-2,4.23-1.78,9.26-1.93,13.75-1.62C182.27,254.44,180.81,252.6,180,252.54Z"/><path class="cls-1" d="M181,205.27c-1.39,3.34-3.61,7-4.17,10.57-.83,5,1.95,9.18,1.67,14.18-.28,3.34,3.41,13.14,5.56,12.79.78-.13,1.64.17,1.81-.35.7-2.15-4-10.23-4-13.28a55.81,55.81,0,0,1,1.39-11.68c.56-2.78,3.06-4.73,3.61-7.51"/><path class="cls-2" d="M179.95,204.54c-1.87,4.22-4.47,8.4-4.36,13.17.09,4.15,1.34,8.51,1.79,12.64.41,3.75,2.1,11.6,6.25,13.18,6,2.29,1.78-6.31,1-8.3-1.7-4.26-1.85-7.49-1.28-12a21.65,21.65,0,0,1,1.92-7.52,31.44,31.44,0,0,0,2.62-5.11c.26-.81-1.84-2.12-2.16-1.13-1,3.11-3.14,5.39-3.88,8.61a42.12,42.12,0,0,0-1.1,9.47c0,4.29,3.45,7.78,3.61,11.8,0,.84,1.53,3-1.3,2-.82-.27-1.8-3.57-2.09-4.37a27,27,0,0,1-1.43-8c-.26-3.67-1.93-7.2-1.81-10.9.14-4.33,2.55-8.17,4.26-12,.39-.88-1.69-2.23-2-1.47Z"/><path class="cls-1" d="M153.75,205c-1.39,3.34-3.23,13.1-3.79,16.72-.83,5,.73,3,.45,8-.28,3.34,4.83,15.6,8.17,14.91.77-.16,1.64.17,1.81-.35.7-2.15-5.8-12.35-5.8-15.4A55.81,55.81,0,0,1,156,217.19c.56-2.78,3.13-7.3,3.68-10.08"/><path class="cls-2" d="M152.67,204.39a78.24,78.24,0,0,0-3.31,13.91c-.71,4-.28,6.92,0,10.83.32,4.86,3,13.51,7.82,15.87,7.52,3.68,2.27-6.51,1.1-9a20.93,20.93,0,0,1-2.12-13.15c.68-5.44,3.23-10,4.61-15.2.22-.83-1.9-2.12-2.16-1.13-1.94,7.35-6,14-5.07,22,.27,2.37,1.51,4.62,2.51,6.74.64,1.35,4.95,8.44,1.88,8.46-2.5,0-4.77-7-5.42-8.91-.95-2.81-.9-5.57-1.33-8.45-.94-6.33,1.43-14.87,3.68-20.83.29-.78-1.79-2.12-2.16-1.13Z"/><path class="cls-1" d="M158.3,253.3a11.33,11.33,0,0,1,2.19,2c-.31,2.82-.83,7.72-1.15,8.76-.26,1.67-4.07.83-4.17-.42a61.44,61.44,0,0,1,.73-9.31A7.9,7.9,0,0,1,158.3,253.3Z"/><path class="cls-2" d="M157.8,265.43h-.14c-1.33,0-2.81-.72-2.89-1.73a61,61,0,0,1,.74-9.44l0-.16.13-.09a8.29,8.29,0,0,1,2.54-1.11l.18,0,.15.11a10.78,10.78,0,0,1,2.06,1.87l.32.34-.11,1c-.33,3-.77,7-1.07,8C159.63,265,158.9,265.43,157.8,265.43Zm-1.52-10.83a62.82,62.82,0,0,0-.69,9c0,.38,1,.91,2.09,1,.35,0,1.16,0,1.25-.58.29-1,.75-5.14,1.05-7.9l.07-.65-.06-.06a10,10,0,0,0-1.78-1.65A7.54,7.54,0,0,0,156.28,254.6Z"/><path class="cls-1" d="M170.4,140.21c5.42,2.09,10.22,10.84,12.72,15.85,4.17,7.51,7.3,15,8.55,23.36a59.44,59.44,0,0,1-5,33.36c-3.75-5.42-10.63-7.09-16.68-6.88-4.8.21-14.6,2.29-16.27,7.72-3.34-3.13-7.51-5-9.38-9.18-1.67-3.75.21-9-.83-12.93-2.5-9.8-8.76-17.52-12.3-26.9-1.46-3.54-6.88-9.38-9.18-12.72-2.29-2.92-5.63-10.22-7.09-12.93"/><path class="cls-2" d="M170.29,140.92c5.5,2.55,8.65,8.89,11.34,14,3.2,6.08,6.22,12.15,7.91,18.86A58.22,58.22,0,0,1,185.65,212l1.86.64c-4.22-5.49-10.73-7.83-17.55-7.7-5.85.11-14.77,1.81-17.25,7.89l1.66.41c-3.68-3.24-8.88-5.81-9.62-11.18-.47-3.42.52-6.81-.18-10.24-1.47-7.28-6-13.84-9.31-20.34-1.5-2.94-2.54-6.14-4.24-9a80.45,80.45,0,0,0-6-7.88c-3.8-4.82-6.3-10.18-9.14-15.59-.39-.73-2.64-1.53-2-.28,2.7,5.15,5.06,10.38,8.61,15,2.42,3.17,5.34,6.15,7.21,9.7s3.19,7.16,5,10.62,4,7.17,5.55,10.94c2.2,5.24,2,9.15,2.17,14.63.21,7.15,5.69,9.94,10.54,14.2.19.17,1.41,1,1.66.41,1.93-4.73,7.84-6.4,12.44-7.16,6.71-1.1,14.25,0,18.65,5.68.22.28,1.54,1.34,1.86.64a59.21,59.21,0,0,0,2.49-44.07,102.25,102.25,0,0,0-9-18.72c-2.64-4.43-5.83-9-10.64-11.23-1.52-.7-1.33.91-.21,1.43Z"/><path class="cls-1" d="M162.05,139.93c8.62,7.78,16.13,16.68,19.46,28.08a101.7,101.7,0,0,1,2.78,15.57c.28,2.22,1.11,5.84.28,7.79-.28.56-2.78,1.67-3.34,2.5-.83,1.11-.83,3.06-1.67,4.17-3.06,3.34-13.62.56-19.18,2.5a11.52,11.52,0,0,0-4.73-6.12c-1.67-1.39-4-1.11-4.87-2.5-.83-1.67-1.81-7.23-2.09-9.18-.56-2.78-1.67-5.56-2.5-8.34-4.17-13.62-13.35-25-22.8-35.31"/><path class="cls-2" d="M161.41,140.26c6,5.51,11.66,11.55,15.52,18.82,4.11,7.75,5.27,16.17,6.39,24.75.22,1.66,1,4.29.47,5.88-.65,1.85-1.81,1.72-3,2.85-2,2-1.31,4.75-4.34,5.82-5.31,1.88-11.49-.26-17,1.32l1.86,1a15,15,0,0,0-3.93-5.74c-1.75-1.5-5-2.31-6.15-4.26s-1-4.74-1.4-6.8a77.93,77.93,0,0,0-3.14-10.74c-4.55-13.23-13.38-24.17-22.7-34.37-.83-.9-2.42-.59-1.29.64,10.41,11.4,18.72,23.14,23.45,38,1.37,4.28,1.34,9.68,3.3,13.71a4.84,4.84,0,0,0,1.69,2.12c3.24,2.2,6.42,3.12,8.18,7.19a1.76,1.76,0,0,0,1.86,1c5.29-1.52,14.29,1.58,18.71-2.09,1.26-1,1.17-2.38,1.9-3.74.84-1.56,2.27-1.74,3.25-3,1.66-2.16.67-5.5.34-8-1.19-9-2.48-17.82-6.92-25.88-4-7.31-9.71-13.46-15.83-19.06-.88-.81-2.53-.49-1.29.64Z"/><path class="cls-1" d="M159.34,155.5a16.81,16.81,0,0,1-2.71-.21c2.4,3,5.53,6.15,3.54,9.59a6.58,6.58,0,0,0,2.82.1C164,163.95,164.56,159.88,159.34,155.5Z"/><path class="cls-2" d="M161.5,165.63a5.21,5.21,0,0,1-1.46-.24l-.65-.18.33-.58c1.59-2.76-.5-5.31-2.71-8l-.79-1-.73-.92,1.17.07a5.62,5.62,0,0,1,1.19.14,6.28,6.28,0,0,0,1.49.06h.19l.15.12c3.78,3.18,4.45,6,4.51,7.48a3.77,3.77,0,0,1-.83,2.78l-.15.15H163a5.89,5.89,0,0,0-.77.06A5.82,5.82,0,0,1,161.5,165.63Zm-.56-1.1a3.45,3.45,0,0,0,1.16,0c.2,0,.4,0,.64-.06a3.11,3.11,0,0,0,.4-1.85c-.05-1.24-.65-3.73-4-6.6a11.39,11.39,0,0,1-1.29,0C159.95,158.54,162.26,161.4,160.94,164.53Z"/><path class="cls-1" d="M160.33,165c.47.47,1.82,2.71,1.2,8a10.29,10.29,0,0,1,2.71-.1c1.56-2.29-.42-8-1.25-7.92A25.35,25.35,0,0,1,160.33,165Z"/><path class="cls-2" d="M160.93,173.64,161,173c.68-5.74-1-7.53-1-7.54l-.93-.93,1.32,0a25.26,25.26,0,0,0,2.58,0c.57-.08,1,.56,1.09.77.86,1.41,2.12,5.82.66,8l-.17.25-.3,0a9.78,9.78,0,0,0-2.5.09Zm.38-8.05c.53,1.06,1.15,3.16.81,6.83a10,10,0,0,1,1.83,0,6.26,6.26,0,0,0,.16-3.71,7.78,7.78,0,0,0-1.18-3.13A16.1,16.1,0,0,1,161.31,165.58Z"/><path class="cls-1" d="M161.64,173.3c-.28,1.11-.7,3.27-.21,3.89a2.39,2.39,0,0,0,2.57,1c1.32-.28,1.25-.21.7-1.39s-1.18-2.5-.63-3.48"/><path class="cls-2" d="M163.38,178.76a2.91,2.91,0,0,1-2.37-1.24c-.61-.78-.27-2.79.11-4.34l1,.25c-.5,2-.48,3.22-.3,3.44a1.87,1.87,0,0,0,2,.78l.16,0,.42-.09-.14-.31-.11-.22c-.61-1.3-1.3-2.75-.61-4l.91.52c-.42.73.14,1.93.64,3l.11.23c.27.56.43.91.25,1.28s-.57.46-1.26.6l-.16,0A3.55,3.55,0,0,1,163.38,178.76Z"/><path class="cls-1" d="M177.62,222.65a1.32,1.32,0,0,0-1.39,1.49,33.64,33.64,0,0,0,.38,3.86,1.52,1.52,0,0,0,1.29,1.32,13,13,0,0,0,4.59.14,2.22,2.22,0,0,0,1.25-1.81,15.13,15.13,0,0,0-.14-3.61c-.28-.56-.42-1.11-1.53-1.11S177.62,222.65,177.62,222.65Z"/><path class="cls-2" d="M181,230.24a15.27,15.27,0,0,1-3.25-.31,2.12,2.12,0,0,1-1.72-1.78,34.09,34.09,0,0,1-.4-4,1.94,1.94,0,0,1,2-2.12h.05s3.32.28,4.4.28a1.94,1.94,0,0,1,2,1.3l.08.16a8.94,8.94,0,0,1,.22,3.21c0,.27,0,.51,0,.69a2.84,2.84,0,0,1-1.6,2.37A5,5,0,0,1,181,230.24Zm-3.38-7c-.24,0-.74,0-.74.87a33.58,33.58,0,0,0,.37,3.71c.1.44.16.67.85.86a13.63,13.63,0,0,0,4.15.18,1.63,1.63,0,0,0,.89-1.24c0-.18,0-.43,0-.72a12.79,12.79,0,0,0-.09-2.62l-.09-.18c-.21-.45-.28-.59-.88-.59C181,223.55,177.94,223.3,177.6,223.28Z"/><path class="cls-1" d="M181.66,223.88c.52.05.78,0,.89.42a29.72,29.72,0,0,1,.31,3c0,.42-.05.94-.42.94a33.76,33.76,0,0,1-3.84-.19c-.57-.16-1.06-.12-1.11-.7s-.14-2.57-.14-3a.94.94,0,0,1,.82-.76c.21.05,3.28.26,3.28.26Z"/><path class="cls-2" d="M182.44,228.68a33.56,33.56,0,0,1-4-.21l-.3-.07c-.44-.09-1-.22-1.11-1-.05-.6-.14-2.61-.14-3a1.2,1.2,0,0,1,.51-.91,1.08,1.08,0,0,1,.82-.26c.17,0,1.78.15,3.21.25h.2l.23,0c.39,0,.88.07,1,.71a29.49,29.49,0,0,1,.32,3.13C183.27,228.44,182.82,228.68,182.44,228.68ZM178.06,224s-.3.25-.3.36c0,.39.09,2.38.14,3,0,.13,0,.16.46.25l.35.08a33.5,33.5,0,0,0,3.71.18s0-.16,0-.52-.21-2.57-.3-2.92c0-.06-.18-.08-.3-.08l-.39,0C180.26,224.22,178.27,224.08,178.06,224Z"/><path class="cls-1" d="M150.41,222.34a1.32,1.32,0,0,0-1.39,1.49,33.64,33.64,0,0,0,.38,3.86,1.52,1.52,0,0,0,1.29,1.32,13,13,0,0,0,4.59.14,2.22,2.22,0,0,0,1.25-1.81,15.13,15.13,0,0,0-.14-3.61c-.28-.56-.42-1.11-1.53-1.11S150.41,222.34,150.41,222.34Z"/><path class="cls-2" d="M153.76,229.93a15.26,15.26,0,0,1-3.24-.31,2.12,2.12,0,0,1-1.72-1.78,34.11,34.11,0,0,1-.4-4,1.94,1.94,0,0,1,2-2.12h.05s3.32.28,4.4.28a1.94,1.94,0,0,1,2,1.3l.08.16a9,9,0,0,1,.22,3.21c0,.27,0,.51,0,.68a2.84,2.84,0,0,1-1.6,2.37A5,5,0,0,1,153.76,229.93Zm-3.38-7c-.24,0-.74,0-.74.87a33.6,33.6,0,0,0,.37,3.71c.1.44.16.67.85.86a13.75,13.75,0,0,0,4.15.18,1.63,1.63,0,0,0,.89-1.24c0-.18,0-.43,0-.72a12.77,12.77,0,0,0-.09-2.62l-.09-.18c-.21-.45-.28-.59-.88-.59C153.77,223.24,150.73,223,150.39,223Z"/><path class="cls-1" d="M154.44,223.57c.52.05.78,0,.89.42a27.67,27.67,0,0,1,.12,2.94c0,.42-.05.94-.42.94a29.51,29.51,0,0,1-3.65-.1c-.57-.16-1.06-.12-1.11-.7s-.14-2.57-.14-3a.94.94,0,0,1,.82-.76c.21.05,3.28.26,3.28.26Z"/><path class="cls-2" d="M153.77,228.29a13.07,13.07,0,0,1-2.49-.13l-.3-.07c-.44-.09-1-.22-1.11-1-.05-.6-.14-2.61-.14-3a1.19,1.19,0,0,1,.51-.9,1.06,1.06,0,0,1,.82-.27c.17,0,1.79.15,3.21.25h.2l.23,0c.39,0,.88.07,1,.71a27.61,27.61,0,0,1,.13,3c0,1.12-.45,1.36-.83,1.36h-1.27Zm-2.92-4.57s-.3.25-.3.36c0,.39.09,2.38.14,3,0,.13,0,.15.46.25l.35.08a21.56,21.56,0,0,0,3.28.09H155s0-.16,0-.52a26.68,26.68,0,0,0-.11-2.84c0-.06-.18-.08-.29-.08l-.4,0C153,223.91,151.06,223.77,150.85,223.71Z"/><path class="cls-1" d="M159.6,255.84a9.85,9.85,0,0,0-1.41-1.51,10.11,10.11,0,0,0-1.68.79,8.91,8.91,0,0,1-.09.93c.52.1,2.82.42,3.08.42A3.6,3.6,0,0,1,159.6,255.84Z"/><path class="cls-2" d="M159.87,256.88h-.37c-.31,0-2.64-.32-3.16-.42l-.38-.08L156,256c.06-.44.06-.47.06-.54s0-.13,0-.37l0-.22.35-.19a9.57,9.57,0,0,1,1.58-.74l.23-.08.19.17a10.25,10.25,0,0,1,1.46,1.57l.13.17-.07.2a3.72,3.72,0,0,0-.09.54Zm-3-1.18c.63.1,1.69.24,2.25.31v-.08a9.16,9.16,0,0,0-1.05-1.13,9.05,9.05,0,0,0-1.19.57s0,.08,0,.1A2,2,0,0,1,156.89,255.71Z"/><circle class="cls-1" cx="157.41" cy="262.5" r="0.99"/><path class="cls-2" d="M157.41,263.9a1.41,1.41,0,1,1,1.41-1.41A1.41,1.41,0,0,1,157.41,263.9Zm0-2a.57.57,0,1,0,.57.57A.57.57,0,0,0,157.41,261.92Z"/><path class="cls-1" d="M193.23,255.48a1.19,1.19,0,0,1-.52,1"/><path class="cls-2" d="M192.76,255.87a2.34,2.34,0,0,1-.3.66c-.24.31-.15.46.19.2l-.12.08a4.18,4.18,0,0,0,.43-.32,3,3,0,0,0,.5-.56c.14-.2.45-.67.23-.88s-.87.68-.93.82Z"/><path class="cls-1" d="M192.19,254.43a1.85,1.85,0,0,1-.78,1.41"/><path class="cls-2" d="M191.74,254.81a1.56,1.56,0,0,1-.43,1c-.22.21-.39.57,0,.26l.1-.07a4,4,0,0,0,.62-.59,2.16,2.16,0,0,0,.57-1.34c0-.15-.37.17-.4.19s-.48.37-.5.57Z"/><path class="cls-1" d="M190.83,253.81c.21.52-.21,1.15-.42,1.62"/><path class="cls-2" d="M190.43,254.18c.08.61-.3,1.05-.45,1.61,0,.11.32-.14.32-.15a2.24,2.24,0,0,0,.5-.52c.3-.47.7-1.13.42-1.68,0,0-.82.56-.8.74Z"/><path class="cls-1" d="M189.53,253.18a3.06,3.06,0,0,1-.57,1.67"/><path class="cls-2" d="M189,253.59a4.05,4.05,0,0,1-.5,1.58c-.11.2.16,0,.22,0a2.2,2.2,0,0,0,.29-.24c.08-.07.21-.3.3-.32.24-.07.42-.6.49-.81a4.45,4.45,0,0,0,.21-1c0-.18-.43.17-.46.19s-.51.4-.53.63Z"/><path class="cls-1" d="M188.17,252.61a2.34,2.34,0,0,1-.47,1.67"/><path class="cls-2" d="M187.78,252.95c0,.27-.07.55-.14.81a6.18,6.18,0,0,1-.38.89c0,.12.29-.11.28-.1.14-.11.37-.47.52-.5s.47-.7.53-.95a1.45,1.45,0,0,0,0-.85s-.77.55-.79.71Z"/><path class="cls-1" d="M186.82,252a4.59,4.59,0,0,1-.31,1.72"/><path class="cls-2" d="M186.35,252.38c-.12.59-.24,1.17-.37,1.76,0,.15.29,0,.3,0a2.28,2.28,0,0,0,.58-.52,2.74,2.74,0,0,0,.43-2c0-.16-.39.16-.43.19s-.47.37-.51.6Z"/><path class="cls-1" d="M185.1,251.57a1.7,1.7,0,0,1-.16,1.62"/><path class="cls-2" d="M184.63,252a2.07,2.07,0,0,1-.19,1.53c-.11.19.13.12.22.07a1.88,1.88,0,0,0,.91-2.48c0-.09-1,.63-.94.88Z"/><path class="cls-1" d="M183.38,250.89c.26.47.21,1.72-.31,1.88"/><path class="cls-2" d="M183,251.17c-.16.27,0,.53,0,.82a2.89,2.89,0,0,1,0,.46c-.09.49-.32.3.36-.14-.24.15-.68.49-.73.79s.26.14.41,0a2.44,2.44,0,0,0,1.06-1.35,1.59,1.59,0,0,0-.14-1.29h0a1.6,1.6,0,0,0-.84.68Z"/><path class="cls-1" d="M181.6,250.68a4.65,4.65,0,0,1-.42,1.77"/><path class="cls-2" d="M181.1,251.1a7.94,7.94,0,0,1-.42,1.66c-.11.27.22.12.32.06a2.16,2.16,0,0,0,.72-.69,3.65,3.65,0,0,0,.39-1.86c0-.19-.43.16-.47.19s-.49.39-.54.64Z"/><path class="cls-1" d="M179.62,250.31c-.1.68,0,1.56-.42,2.09"/><path class="cls-2" d="M179.14,250.71a9.09,9.09,0,0,0-.17,1.09,5.12,5.12,0,0,1-.3,1c-.16.48,1.17-.51,1-.63.15.12.4-1,.41-1.11a9.06,9.06,0,0,0,0-1.11c0-.17-.4.16-.44.19a1.47,1.47,0,0,0-.52.61Z"/><path class="cls-1" d="M177.59,250.11c-.1.68.1,1.62-.42,2.14"/><path class="cls-2" d="M177.11,250.5c-.11.5-.08,1-.2,1.53-.06.27-.48.92.1.52a2.32,2.32,0,0,0,1.07-1.46,9.93,9.93,0,0,0,0-1.39c0-.17-.41.16-.44.19s-.47.37-.52.61Z"/><path class="cls-1" d="M175.3,250.16c.21.52.31,1.82-.16,2"/><path class="cls-2" d="M174.85,250.58a4.07,4.07,0,0,1,.06.92,3.46,3.46,0,0,1,0,.42c-.05.43-.27.39.32-.09-.14.11-.67.53-.59.75s.48-.11.57-.18l-.55.24c.1.13.49-.19.55-.24a2,2,0,0,0,.55-2.66c0-.07-1,.6-.9.84Z"/><path class="cls-1" d="M173.37,250.05c.1.57.47,1.93-.21,2.19"/><path class="cls-2" d="M172.85,250.48c0,.3.07.6.1.9a3.66,3.66,0,0,1,0,.47c0,.07,0,.15,0,.22,0,.27-.3.26.29-.18-.16.12-.62.5-.6.74s.28.1.43,0a2.15,2.15,0,0,0,1.07-1.55,4.54,4.54,0,0,0-.28-1.49c0-.07-1,.61-1,.89Z"/><path class="cls-1" d="M171.28,250.42c.16.63.36,1.67-.05,2.14"/><path class="cls-2" d="M170.76,250.84a3.45,3.45,0,0,1-.1,2.09c-.18.38.51,0,.56-.08a2,2,0,0,0,.84-1.44,4,4,0,0,0-.28-1.47c0-.09-1.07.62-1,.9Z"/><path class="cls-1" d="M169.25,250.68a2,2,0,0,1-.16,2.55"/><path class="cls-2" d="M168.74,251.15a2.28,2.28,0,0,1,.26,1.33c-.05.45-.36.77-.46,1.2,0,.15.23,0,.26,0a2.34,2.34,0,0,0,1-3.47c-.12-.15-1.13.7-1,.94Z"/><path class="cls-1" d="M167.16,251.15c.31.57.68,2.19,0,2.45"/><path class="cls-2" d="M166.62,251.66a3.23,3.23,0,0,1,.27,1,4.42,4.42,0,0,1,0,.52c0,.09,0,.17,0,.26,0,.29-.37.34.33-.24-.17.14-.64.51-.61.77s.3.1.46,0a2.14,2.14,0,0,0,1.1-1.69,3.46,3.46,0,0,0-.47-1.68c-.09-.17-1.25.69-1.1,1Z"/><path class="cls-1" d="M165,251.57a3.06,3.06,0,0,1,0,3.13"/><path class="cls-2" d="M164.53,252a4.07,4.07,0,0,1,.3,1.49,7.58,7.58,0,0,1-.37,1.63c-.05.25.79-.4.84-.45a2.84,2.84,0,0,0,.22-3.59c-.09-.13-1.09.67-1,.92Z"/><path class="cls-1" d="M163.15,252.24c.78.52.42,2.35-.21,2.92"/><path class="cls-2" d="M162.62,252.73a2,2,0,0,1-.08,2.48c-.14.17-.28.41,0,.48s.71-.43.83-.57c.67-.76,1.44-2.63.32-3.37-.25-.16-1.22.84-1.05,1Z"/><path class="cls-1" d="M161,252.82a3.31,3.31,0,0,1,.36,2.87"/><path class="cls-2" d="M160.49,253.31a3,3,0,0,1,.46,1.47,3.64,3.64,0,0,1,0,.73c0,.16-.16.49-.07.63s.3-.12.33-.14c1.28-.72,1.14-2.68.32-3.68-.14-.17-1.21.74-1,1Z"/><path class="cls-1" d="M46.11,84.19c0,15.29-2.5,31.56-18.63,36.84"/><path class="cls-2" d="M45,83.62c-.07,14.79-2.71,31-18.42,36.55-.86.3.9,2,1.74,1.7,15.94-5.67,18.76-22.07,18.84-37.13,0-.89-2.15-2-2.16-1.13Z"/><path class="cls-1" d="M118.26,131c3.34,1.67,12.93-1.25,17.93.83,6.67,2.5,12.93,10.43,19.18,11.68,2.92.83,7.09-.83,10.43-.83s7.51,2.5,10.43,2.09c9.59-1.25,5-13.76.42-17.93-8.76-7.92-21.69-11.68-28.36-21.69-2.29-1.46-4.45-.28-9.8,2.92"/><path class="cls-2" d="M118.44,131.87c5.11,1.92,10.87-.72,16.13.33,7.28,1.46,11.91,8.67,18.64,11.42,3,1.22,5.52,1.07,8.69.59a17.85,17.85,0,0,1,8.08.11c1.35.37,2.66.92,4,1.17,3.85.68,7.89-.62,8.77-4.82,2.14-10.15-8.9-17.24-16-21.56-3.41-2.07-6.91-4-10.12-6.44a35.52,35.52,0,0,1-5.08-4.46c-.7-.77-1.81-2.79-2.78-3.46-3.8-2.63-7.84.51-11.19,2.5-.86.51,1,2.15,1.74,1.7,2.52-1.5,5.85-4.39,8.91-2.51,1.8,1.11,3.45,3.91,5.11,5.33a84.71,84.71,0,0,0,11.31,7.63c5.12,3.09,11.29,6.21,14.18,11.71,1.88,3.57,3.51,9.72-1,12.09-3.14,1.66-6.52-.23-9.64-.94a16,16,0,0,0-6.14-.14c-4.71.67-8,.9-12.22-1.87-2.28-1.5-4.37-3.28-6.56-4.9-3.25-2.4-6.7-4.66-10.81-5.09-4.59-.47-10.07,1.58-14.44-.06-1.52-.57-.54,1.33.35,1.67Z"/><path class="cls-1" d="M170.19,124.36c-4.38-2.5-9.8-2.29-14.39-1.46-2.92.42-11.47,4.38-13.76,2.71"/><path class="cls-2" d="M170.29,123.65a23.32,23.32,0,0,0-15.5-1.59c-3.39.74-9.36,4.44-12.65,2.84-1.51-.73-1.32.89-.21,1.43,2.61,1.27,5.57.19,8.18-.6,6.68-2,13.18-4,20-.65,1.5.74,1.31-.88.21-1.43Z"/><path class="cls-1" d="M138.49,125.2c4-4.8,12.51.56,15.22,3.89,2.09,2.5,3.27,8.27,2.22,11.82-.63,1.88-4.73,4.93-6.19,2"/><path class="cls-2" d="M139.5,125.93c3.89-4.06,11.17,0,13.74,3.82a13.89,13.89,0,0,1,2,8.33,5.86,5.86,0,0,1-.94,3.19c-.41.56-2.81,2.79-3.68,1.56-.56-.79-2.63-1.15-1.69.18,1.89,2.69,5,2.43,7.14,0,2.69-3.06,1.28-9.19-.45-12.42-2.85-5.34-13-11.52-18.12-6.14-.6.62,1.36,2.16,2,1.47Z"/><path class="cls-1" d="M146.48,143.34c7.72-1.67,6.6-8.13,2.22-13.76-5.84-7.3-15.85-6.26-24-5.21-7.51,1-16.06,4.8-19,12.3a22.9,22.9,0,0,0-.83,10.63c.42,2.29,4.17,9.38,7.3,8.76a1.69,1.69,0,0,0,1.67-1.88c-1.46-5-4-7.3.21-15.22"/><path class="cls-2" d="M147.16,144.25c11-3,4.36-15-2.53-19-9.08-5.16-24.68-3-33.11,2.65-8.72,5.81-10.89,18.56-3.61,26.45,1.39,1.51,5.22,4.32,6.83,1.43.75-1.35-.44-3.12-.87-4.42-1.47-4.37-.81-7.54,1.24-11.7.42-.86-1.65-2.23-2-1.47-1.25,2.55-2.47,5.21-2.35,8.11a14,14,0,0,0,.76,3.66,7.24,7.24,0,0,1,.4,1.12l.6,1.67-3.77.35c-3.13-1.84-3.16-8.69-2.85-11.45A16,16,0,0,1,112.73,130c6.2-4.42,14.55-5.57,22-5.47,5.92.08,11.25,1.85,14.49,7.14,2.85,4.65,2.3,9.18-3.41,10.74-1.16.32.55,2,1.35,1.81Z"/><path class="cls-1" d="M121.39,127.91c-5.63,2.92-9.73,5.28-11.19,11.75-.42,2.29-4,13.62,3.06,16.68"/><path class="cls-2" d="M120.52,127.06c-7.14,3.74-10.79,7.82-12.21,15.81-1,5.53-.62,11.33,4.85,14.19,1.49.78,1.29-.86.21-1.43-5.1-2.66-3.32-10.09-2.28-14.52,1.53-6.51,5.52-9.39,11.18-12.35.87-.45-1-2.11-1.74-1.7Z"/><path class="cls-1" d="M127.44,130c-8.34,4.38-12.51,9.38-13.35,19-.42,4.17-.63,9.18,4.17,10.84,5.63,1.88,6.46-2.5,6.88-6.67.42-2.71.83-7.3,3.34-9.18,2.29-1.46,6.67-1.25,9.18-1,3.13,0,12.93,1.88,13.55-2.5"/><path class="cls-2" d="M126.57,129.14c-7.94,4.31-12.64,10.12-13.55,19.26-.56,5.59,1,13.46,8.55,12.76,3.32-.31,4.1-3.5,4.53-6.32a45.4,45.4,0,0,1,1-6c1.43-4.82,5.36-5.24,9.81-5.07,4,.16,13.84,2.62,15.37-2.75.23-.82-1.88-2.12-2.16-1.13-1.33,4.67-11.67,2.1-15.43,2-6.56-.12-9.16,2-10.29,8.38-.42,2.39-.16,6.26-2,8.11q-7.19.45-7.35-4.35a22.27,22.27,0,0,1,0-3.32,32.66,32.66,0,0,1,.71-5.18c1.59-7,6.41-11.35,12.54-14.67.87-.47-1-2.12-1.74-1.7Z"/><ellipse class="cls-1" cx="152.72" cy="202.32" rx="2.9" ry="3.63"/><path class="cls-2" d="M152.72,206.57c-1.94,0-3.53-1.91-3.53-4.25s1.58-4.25,3.53-4.25,3.53,1.91,3.53,4.25S154.66,206.57,152.72,206.57Zm0-7.25c-1.25,0-2.28,1.35-2.28,3s1,3,2.28,3,2.28-1.35,2.28-3S154,199.32,152.72,199.32Z"/><ellipse class="cls-1" cx="185.66" cy="199.81" rx="2.9" ry="3.63"/><path class="cls-2" d="M185.66,204.07c-1.94,0-3.53-1.91-3.53-4.25s1.58-4.25,3.53-4.25,3.53,1.91,3.53,4.25S187.61,204.07,185.66,204.07Zm0-7.25c-1.25,0-2.28,1.35-2.28,3s1,3,2.28,3,2.28-1.35,2.28-3S186.92,196.81,185.66,196.81Z"/><path class="cls-2" d="M72.21,124.9c-2.89,1.46-3.69,4-2.41,6.9.34.77,2.55,1.59,2,.28-1-2.42-.11-4.32,2.17-5.48.87-.44-1-2.1-1.74-1.7Z"/></svg>