<?xml version="1.0" encoding="utf-8"?>
<!-- Generator: Adobe Illustrator 19.0.0, SVG Export Plug-In . SVG Version: 6.00 Build 0)  -->
<svg version="1.1" id="Layer_1" xmlns="http://www.w3.org/2000/svg" xmlns:xlink="http://www.w3.org/1999/xlink" x="0px" y="0px"
	 viewBox="0 0 1041.9 647.9" style="enable-background:new 0 0 1041.9 647.9;" xml:space="preserve">
<style type="text/css">
	.st0{fill:#F2F4FA;}
</style>
<path class="st0" d="M451.4,207.7c0,0,0.1,0,0.2-0.1l-2.1-2.1c1.9-1.9,12.8-1.3,16.4-0.4l-0.7,2.9
	C461.1,206.9,452.6,207,451.4,207.7z M747.7,223.2c46.6,4.3,91.7,6.4,134.9,6.4c24.6,0,48.6-0.7,71.9-2.1
	c11.1-0.7,22.3-3.2,33.2-5.6c14.4-3.2,29.2-6.5,43.8-5.5c0.8,0.1,1.5-0.6,1.6-1.4c0.1-0.8-0.6-1.5-1.4-1.6
	c-15-1.1-30.1,2.3-44.7,5.5c-10.7,2.4-21.8,4.8-32.7,5.5c-63.9,3.8-133.3,2.4-206.4-4.3c-30.7-2.8-60.7-10.1-89.6-17.2
	c-21-5.1-42.8-10.5-64.8-14c-72.8-11.9-145.1-2.4-215,6.8c-21.6,2.8-43.9,5.8-66,8.1c-52.9,5.5-106.8,9.1-160.2,10.8
	c-17.6,0.6-35.8,0.2-53.4-0.2c-31.5-0.7-64.1-1.3-95.2,3.3c-0.8,0.1-1.4,0.9-1.3,1.7c0.1,0.8,0.9,1.4,1.7,1.3
	c30.9-4.5,63.3-3.9,94.7-3.2c17.6,0.4,35.9,0.7,53.5,0.2c53.4-1.7,107.4-5.4,160.4-10.8c22.2-2.3,44.5-5.2,66.1-8.1
	c72.9-9.6,141.7-18.6,214.1-6.8c21.9,3.6,43.6,8.9,64.6,14C686.7,213.1,716.7,220.4,747.7,223.2z M669.2,273.1c0.1,0,0.2,0,0.2,0
	c0.7,0,1.4-0.5,1.5-1.3c1.2-7.4-3.8-16.4-9-21.6c-0.6-0.6-1.5-0.6-2.1,0c-0.6,0.6-0.6,1.5,0,2.1c4.8,4.8,9.1,12.9,8.1,19
	C667.8,272.2,668.4,273,669.2,273.1z M638.7,222.7c1.7,1.1,3.4,2,5,2.8c1.6,0.8,3.1,1.6,4.6,2.6l1.7-2.5c-1.7-1.1-3.4-2-5-2.8
	c-1.6-0.8-3.1-1.6-4.6-2.6L638.7,222.7z M1039.6,301.2c-6,2.2-22.9-7-34.8-18.9c-7-7-10.4-13.2-9.2-16.6
	c2.8-8.5,17.7-16.5,28.5-22.4c4.8-2.6,8.9-4.8,11.5-6.8c0.7-0.5,0.8-1.4,0.3-2.1c-0.5-0.7-1.4-0.8-2.1-0.3c-2.4,1.8-6.5,4-11.2,6.5
	c-11.9,6.4-26.7,14.5-29.9,24.1c-2.3,6.2,5.2,15,9.9,19.7c9.2,9.2,25.2,20.1,34.8,20.1c1.2,0,2.2-0.2,3.2-0.5
	c0.8-0.3,1.2-1.1,0.9-1.9C1041.3,301.3,1040.4,300.9,1039.6,301.2z M499.7,193l-0.3-3c-8.2,0.7-16.8,0.9-25.8,1.2
	c-17.7,0.5-35.9,1-52.4,5.3l0.8,2.9c16.1-4.2,34.2-4.7,51.7-5.2C482.8,194,491.4,193.7,499.7,193z M712.6,306.6
	c-0.7,0.4-1,1.3-0.7,2c0.3,0.5,0.8,0.8,1.3,0.8c0.2,0,0.5-0.1,0.7-0.2c1.8-0.9,4.8-0.9,6.8-0.9c0.8,0,1.5-0.7,1.5-1.5
	c0-0.8-0.7-1.5-1.5-1.5C718.5,305.4,715,305.4,712.6,306.6z M960.8,312.6c0.1,0,0.2,0,0.3,0c0.7,0,1.3-0.5,1.5-1.2
	c0.2-0.8-0.3-1.6-1.2-1.8c-49-10.3-93.5-18.8-141.2-18.3c-42.4,0.5-85.1,5.5-126.5,10.3c-7.4,0.9-14.9,1.7-22.3,2.6
	c-0.8,0.1-1.4,0.8-1.3,1.7c0.1,0.8,0.8,1.4,1.7,1.3c7.4-0.8,14.9-1.7,22.3-2.6c41.3-4.9,83.9-9.9,126.2-10.3
	C867.7,293.9,912,302.4,960.8,312.6z M573.1,195.5c-11.4-1.7-22.1-3.2-31.5-5.5l-0.7,2.9c9.5,2.3,20.3,3.9,31.8,5.5
	c20.5,3,41.6,6.1,56.6,13.6l1.3-2.7C615.2,201.7,593.8,198.6,573.1,195.5z M235.8,217.8c-15.1,0-33.4,1.5-46.7,2.6
	c-2.8,0.2-5.5,0.4-7.8,0.6l0.2,3c2.4-0.2,5-0.4,7.9-0.6c13.3-1.1,31.5-2.6,46.5-2.6V217.8z M336.2,212.2v-3
	c-13.2,0-26.2,1.7-38.9,3.3c-14.5,1.9-28.3,3.7-42.3,3.1l-0.1,3c1.8,0.1,3.6,0.1,5.3,0.1c12.5,0,25.2-1.6,37.4-3.2
	C310.2,213.9,323.2,212.2,336.2,212.2z M234.9,241.7c18.2-0.6,36.9-1.1,51.8-9.3l-1.4-2.6c-14.2,7.8-32.6,8.4-50.4,8.9
	c-8.3,0.3-16.9,0.5-24.9,1.6l0.4,3C218.1,242.2,226.2,241.9,234.9,241.7z M165.2,234.9c-0.8,0-1.5,0.7-1.5,1.5s0.7,1.5,1.5,1.5
	c2,0,3.9,0,5.7,0.9c0.2,0.1,0.4,0.2,0.7,0.2c0.5,0,1.1-0.3,1.3-0.8c0.4-0.7,0.1-1.6-0.7-2C169.9,234.9,167.5,234.9,165.2,234.9z
	 M554.9,204.7c6.3,1.2,13.2,2.2,20.6,3.3c18.5,2.7,39.4,5.8,53.9,12.6l1.3-2.7c-14.9-7-36-10.1-54.7-12.9
	c-7.3-1.1-14.2-2.1-20.4-3.3c-23-5.5-56.4-0.9-78.5,2.1l0.4,3C499.3,203.9,532.4,199.4,554.9,204.7z M365.7,217.8l0.7,2.9
	c10.1-2.3,20.4-3.2,30.4-4.1c13-1.2,26.4-2.3,39.2-6.6l-0.9-2.8c-12.5,4.2-25.1,5.3-38.5,6.5C386.5,214.6,376.1,215.5,365.7,217.8z
	 M519.9,190c-2.3,0-4.6,0-7.1,1.2l1.3,2.7c1.8-0.9,3.7-0.9,5.7-0.9V190z M1,408.8c87-16.4,174.3-16.7,255.8-14.7
	c30.1,0.8,53,2.1,74.3,4.4c16,1.7,32.1,4.4,47.7,7c25.9,4.4,52.7,8.9,79.6,8.9c0.3,0,0.5,0,0.8,0c44.1-0.1,88.8-7.1,132.8-20.6
	c102.5-31.5,218-39.1,343.4-22.5c31.7,4.2,65.2,9.8,102.3,17.2l0.6-2.9c-37.3-7.4-70.8-13-102.5-17.2
	c-125.8-16.7-241.8-9.1-344.7,22.6c-43.7,13.4-88.1,20.3-131.9,20.5c-0.3,0-0.5,0-0.8,0c-26.7,0-53.3-4.5-79.1-8.8
	c-15.7-2.6-31.8-5.4-47.9-7.1c-21.3-2.3-44.3-3.6-74.5-4.4c-81.6-2.1-169.1-1.8-256.4,14.7L1,408.8z M24,435.7
	c-1,0.1-2.1,0.3-3.2,0.5c-6.9,0.9-14.7,2-18.6,4c-0.7,0.4-1,1.3-0.7,2c0.3,0.5,0.8,0.8,1.3,0.8c0.2,0,0.5-0.1,0.7-0.2
	c3.5-1.7,11-2.8,17.6-3.7c1.1-0.2,2.2-0.3,3.3-0.5c0.8-0.1,1.4-0.9,1.3-1.7C25.6,436.2,24.8,435.6,24,435.7z M43,431.5
	c-3,1-4.9,1-8.1,1c-0.8,0-1.5,0.7-1.5,1.5c0,0.8,0.7,1.5,1.5,1.5c3.2,0,5.6,0,9-1.1c0.8-0.3,1.2-1.1,0.9-1.9
	C44.6,431.7,43.8,431.3,43,431.5z M278.5,419.5v-3h-8.5v3H278.5z M236,415.7l1.7,2.5c2.1-1.4,10-1.3,19.2,0.2l0.5-3
	C253.4,414.8,240.2,412.9,236,415.7z M559.5,427.2l-0.2,3c1.3,0.1,2.5,0.1,3.8,0.1c8,0,15.4-1.9,22.6-3.7c4.1-1,8.2-2.1,12.5-2.8
	l-0.5-3c-4.3,0.7-8.6,1.8-12.7,2.9C576.5,425.8,568.5,427.9,559.5,427.2z M124.6,232.3c-6.1-0.8-12.5-1.7-19.2-1.7
	c-0.8,0-1.5,0.7-1.5,1.5s0.7,1.5,1.5,1.5c6.4,0,12.7,0.8,18.8,1.6c6,0.8,11.7,1.6,17.6,1.6c0.8,0,1.5-0.7,1.5-1.5
	c0-0.8-0.7-1.5-1.5-1.5C136.1,233.8,130.5,233.1,124.6,232.3z M495.6,435.2c3.8,0,7.9-0.4,9.7-0.8l-0.7-2.9c-4,1-13.4,0.9-14.8,0.3
	c0,0,0.1,0,0.2,0.1l-2.1,2.1C488.8,434.9,492,435.2,495.6,435.2z M356.4,429.1c6.8,0.5,13.6,1.5,20.2,2.6c8.7,1.4,17.7,2.8,26.9,2.8
	v-3c-9,0-17.9-1.4-26.4-2.8c-6.6-1-13.5-2.1-20.5-2.6L356.4,429.1z M435.1,434.6c-3.7-0.4-7.5-0.8-11.3-1.1l-0.2,3
	c3.7,0.3,7.5,0.7,11.2,1c6.7,0.7,13.4,1.4,20.1,1.4c4.8,0,9.6-0.4,14.1-1.4l-0.7-2.9C458.1,437,446.4,435.8,435.1,434.6z
	 M310.5,385.3v-3c-1.2,0-3.6,0-6,1.2l1.3,2.7C307.7,385.3,309.5,385.3,310.5,385.3z M111.3,403.8c-5.5,2.2-11.6,3-16.2,2.1l-0.6,2.9
	c1.5,0.3,3.1,0.5,4.8,0.5c4.2,0,8.8-0.9,13.1-2.7L111.3,403.8z M880.9,378c2.6,0.3,5,0.6,7.4,0.8l0.3-3c-2.4-0.2-4.8-0.5-7.4-0.8
	c-8.8-1.1-17.8-2.1-27.1-1.3l0.3,3C863.3,375.9,872.2,377,880.9,378z M912,378c-2.3,0-5.7,0-8.1,1.2l1.3,2.7
	c1.8-0.9,4.8-0.9,6.8-0.9V378z M273.4,383.1c6.2-1,12.5-1,18.7,0l0.5-3c-6.5-1.1-13.2-1.1-19.7,0L273.4,383.1z M408.4,398.8v1.1
	c0,0.8,0.7,1.5,1.5,1.5c0.8,0,1.5-0.7,1.5-1.5v-1.1c0-0.8-0.7-1.5-1.5-1.5C409,397.3,408.4,397.9,408.4,398.8z M743.2,381
	c0.1,0,0.2,0,0.3,0c10.6-2.5,21.6-2.4,32.2-2.2c11.7,0.1,23.8,0.3,35.2-3.1c0.8-0.2,1.2-1.1,1-1.9c-0.2-0.8-1.1-1.2-1.9-1
	c-10.9,3.3-22.3,3.1-34.3,3c-10.8-0.1-22-0.3-33,2.3c-0.8,0.2-1.3,1-1.1,1.8C741.9,380.6,742.5,381,743.2,381z M648.2,391.7
	c5.4-0.5,10.9-1.5,16.3-2.5c7.5-1.4,15.2-2.8,23.1-2.8c0.8,0,1.5-0.7,1.5-1.5c0-0.8-0.7-1.5-1.5-1.5c-8.2,0-16.1,1.5-23.7,2.9
	c-5.5,1-10.7,2-16,2.4c-0.8,0.1-1.4,0.8-1.4,1.6c0.1,0.8,0.7,1.4,1.5,1.4C648.1,391.7,648.2,391.7,648.2,391.7z M723.2,379.9
	c0.8-0.2,1.3-1,1.1-1.8c-0.2-0.8-1-1.3-1.8-1.1c-5.2,1.3-9.9,2.1-12.5,2.1c-0.8,0-1.5,0.7-1.5,1.5s0.7,1.5,1.5,1.5
	C714.1,382.1,720.6,380.6,723.2,379.9z M77.7,407.9c-6.4,0-12.9,0-19.5,1.1l0.5,3c6.3-1,12.7-1,19-1V407.9z M30.5,232.8
	c-0.8,0.1-1.4,0.8-1.4,1.6c0.1,0.8,0.7,1.4,1.5,1.4c0,0,0.1,0,0.1,0c12.8-1.1,32.9-1.1,49-1.1c0.8,0,1.5-0.7,1.5-1.5
	s-0.7-1.5-1.5-1.5C63.6,231.7,43.4,231.7,30.5,232.8z M955.2,260.2c6.5-2.2,13.1-5.5,19.4-8.6l-1.3-2.7c-6.3,3.1-12.7,6.4-19,8.5
	L955.2,260.2z M827.6,206c-4.1,0-9.3,0-13.2-2l-1.3,2.7c4.6,2.3,10.1,2.3,14.6,2.3V206z M884.4,202.9c-0.5-0.1-1.2-0.2-2-0.3
	c-14.5-2.5-24.8-3.7-27.6-1.3c-0.6,0.5-1,1.3-1,2h3c0,0.1-0.1,0.2-0.1,0.3c0.9-0.9,6.1-1.3,25.2,2c0.8,0.1,1.4,0.2,2.1,0.4
	c8.4,0.9,16.3,1.3,23.8,1.3c13.7,0,26-1.5,37.7-4.6l-0.8-2.9C927.1,204.3,907.9,205.3,884.4,202.9z M884.9,213.6
	c-0.8,0.2-1.3,1-1.1,1.8c0.2,0.8,1,1.3,1.8,1.1c3.9-1,7.9,0,12.1,1.1c0.1,0,0.2,0,0.4,0c0.7,0,1.3-0.5,1.5-1.1
	c0.2-0.8-0.3-1.6-1.1-1.8C894,213.5,889.5,212.4,884.9,213.6z M935,218.2c0,0.8,0.7,1.5,1.5,1.5c28.5,0,53.6-5.4,80.2-11.2
	c2.5-0.5,5.1-1.1,7.7-1.7c0.8-0.2,1.3-1,1.2-1.8c-0.2-0.8-1-1.3-1.8-1.2c-2.6,0.6-5.1,1.1-7.7,1.7c-26.5,5.7-51.5,11.1-79.6,11.1
	C935.7,216.7,935,217.4,935,218.2z M1004.3,196.1l-0.9-2.8c-3.8,1.3-6.4,2.5-6.4,4.6h3c0,0.1,0,0.2-0.1,0.3
	C1000,198.1,1000.5,197.4,1004.3,196.1z M983.5,199.6c-7.4,0-15,0-23.7,1.1l0.4,3c8.5-1.1,16-1.1,23.3-1.1V199.6z M985.1,259.1
	l-1.1-2.8c-3.1,1.2-5.3,3.4-6.2,6.2c-0.9,2.8-0.5,5.9,1.2,8.8l2.6-1.5c-1.3-2.1-1.6-4.3-1-6.3C981.3,261.6,982.9,260,985.1,259.1z
	 M850.6,285.9l0.9-2.8c-3.4-1.1-8.9-1.1-13.3-1.1v3C842.4,284.9,847.6,284.9,850.6,285.9z M677,295.6c6.5-0.5,12.9-1.5,19.1-2.6
	c8-1.4,16.2-2.7,24.6-2.7v-3c-8.6,0-17,1.4-25.1,2.8c-6.1,1-12.4,2.1-18.8,2.6L677,295.6z M693,277.6c-3.3,0-6.8,0-9.2,1.2l1.3,2.7
	c1.8-0.9,4.9-0.9,7.9-0.9V277.6z M872.1,262.7c-45.4,9.1-94.3-0.4-141.6-9.6c-22.3-4.3-43.3-8.4-64.1-10.7l-0.3,3
	c20.7,2.3,41.7,6.4,63.9,10.7c33.9,6.6,68.6,13.3,102.4,13.3c13.6,0,27.1-1.1,40.3-3.7L872.1,262.7z M1008.2,234.2
	c-5.1,4.2-12.2,7.6-21.9,10.4l0.8,2.9c10-2.9,17.6-6.5,23-11L1008.2,234.2z M939.3,273.1l0.9-2.8c-2.4-0.8-4.3-1.6-6.1-3.1
	c2-3.1,5.4-4.4,9.6-3.6l0.6-2.9c-5.9-1.2-10.9,1.1-13.4,6.1l-0.5,1l0.8,0.8C933.6,270.9,936.1,272,939.3,273.1z M976.7,292.3
	c6.9,2.1,13.9,4.8,20.7,7.4c6.9,2.6,13.9,5.4,20.9,7.5l0.9-2.9c-6.9-2.1-13.9-4.8-20.7-7.4c-6.9-2.6-13.9-5.4-20.9-7.5
	c-5-1.5-10.1-2.8-15.6-4.1c-9.5-2.3-19.3-4.6-28.1-8.7l-1.3,2.7c9.1,4.2,19,6.6,28.6,8.9C966.7,289.6,971.8,290.8,976.7,292.3z
	 M961.1,275.3c3.2,0,17.1,5.3,29.3,10.6l1.2-2.8c-5.9-2.5-25.6-10.8-30.5-10.8V275.3z M932.6,257.1c23.4-5.9,45.6-13.8,71.8-25.7
	l-1.2-2.7c-26.1,11.9-48.1,19.7-71.3,25.5c-13.2,2.9-26.4,8.7-26.1,15.2c0.3,4.7,7.3,7.8,20.9,9.1l0.3-3
	c-13.2-1.3-18.1-4.1-18.2-6.3C908.7,265.9,917.7,260.3,932.6,257.1z M753.9,286l-0.1-3c-14.1,0.6-27.2-3.8-39.9-8
	c-11.1-3.7-22.7-7.5-34.8-8l-0.1,3c11.7,0.5,23,4.2,34,7.9c12.2,4,24.8,8.2,38.3,8.2C752.2,286,753,286,753.9,286z M195.2,198.6
	c-2.2,0-5.6,0-9,1.1l0.9,2.8c3-1,6-1,8.1-1V198.6z M229.3,197.5v3h11.8v-3H229.3z M812.2,216.4c0.1,0.8,0.9,1.4,1.7,1.2
	c11-1.9,23.1-0.7,34.8,0.6c7.2,0.8,14.6,1.6,21.6,1.6c0.8,0,1.5-0.7,1.5-1.5s-0.7-1.5-1.5-1.5c-6.8,0-13.8-0.8-21.3-1.5
	c-11.9-1.3-24.1-2.6-35.6-0.6C812.6,214.8,812.1,215.5,812.2,216.4z M166.5,202.6l-0.4-3c-14.5,1.7-30.6,0.7-46.1-0.4
	c-3.8-0.2-7.6-0.5-11.3-0.7l-0.2,3c3.7,0.2,7.5,0.5,11.3,0.7c9.6,0.6,19.5,1.3,29.1,1.3C154.9,203.5,160.8,203.3,166.5,202.6z
	 M55.4,201.6l-0.4-3c-8,1.1-16.1,1.3-24.7,1.6c-8.3,0.3-16.9,0.5-25.5,1.6l0.4,3c8.4-1.1,17-1.3,25.2-1.6
	C39.1,202.9,47.3,202.6,55.4,201.6z M390.6,183.4c0.2,0,0.5-0.1,0.7-0.2c1.8-0.9,2.6-0.9,4.7-0.9c0.8,0,1.5-0.7,1.5-1.5
	s-0.7-1.5-1.5-1.5c-2.2,0-3.6,0-6,1.2c-0.7,0.4-1,1.3-0.7,2C389.6,183.1,390.1,183.4,390.6,183.4z M73.5,201.1
	c0.5-0.1,2.8-0.1,4.6-0.1c3.7,0,8.3,0,10.6-0.6l-0.7-2.9c-2,0.5-6.6,0.5-9.9,0.5c-5.5,0-6.4,0-6.6,1.5c-0.1,0.5,0,1.4,1.5,1.9
	l0.9-2.8c0.3,0.2,0.6,0.7,0.6,1.3C74.3,200.6,73.8,201.1,73.5,201.1z M378.4,186.5l-1.2-2.7c-15.4,6.7-37.6,9.1-55.4,11.1
	c-1.7,0.2-3.4,0.4-5.1,0.6l0.3,3c1.7-0.2,3.4-0.4,5.1-0.6C340.2,195.8,362.6,193.4,378.4,186.5z M763.5,212.5v3
	c4.7,0,9.6,0.5,14.3,1.1c4.8,0.5,9.7,1.1,14.6,1.1v-3c-4.7,0-9.6-0.5-14.3-1.1C773.3,213,768.4,212.5,763.5,212.5z M747.4,213.3v-3
	h-9.6v3H747.4z M657.3,193.8c-6.2-2.4-12.7-4.8-18.8-4.8v3c5.6,0,11.7,2.3,17.7,4.6c3.9,1.5,8,3,11.8,3.9c21.6,6,40.6,9.9,57.9,11.8
	l0.3-3c-17.2-1.9-36-5.7-57.5-11.7C665.1,196.7,661.3,195.3,657.3,193.8z M707.9,190l0.1,3c15.3-0.6,31.3,1.1,46.8,2.7
	c10.2,1.1,20.8,2.2,31.1,2.6l0.1-3c-10.2-0.4-20.7-1.5-30.9-2.6C739.5,191.1,723.4,189.4,707.9,190z M548.3,176.9l1-2.8
	c-21.9-7.7-54.1-3.3-77.6-0.1l0.4,3C495.2,173.8,527,169.5,548.3,176.9z M590.3,182.1c1.8,0.1,3.6,0.2,5.4,0.2v-3
	c-1.7,0-3.5-0.1-5.2-0.2c-3.6-0.2-7.3-0.5-11.1,0.3l0.6,2.9C583.4,181.6,586.7,181.9,590.3,182.1z M467.6,175.5l1.1-1.1
	c0.6-0.6,0.6-1.5,0-2.1c-0.6-0.6-1.5-0.6-2.1,0l-1.1,1.1c-0.6,0.6-0.6,1.5,0,2.1c0.3,0.3,0.7,0.4,1.1,0.4
	C466.9,175.9,467.3,175.8,467.6,175.5z M417.6,179.8c5.6,0,12.5-0.9,18.8-1.8c3.2-0.4,6.2-0.8,8.9-1.1c0.8-0.1,1.4-0.8,1.3-1.6
	c-0.1-0.8-0.8-1.4-1.6-1.3c-2.7,0.3-5.8,0.7-9,1.1c-9.1,1.2-19.4,2.6-24.7,1.1c-0.8-0.2-1.6,0.2-1.9,1c-0.2,0.8,0.2,1.6,1,1.9
	C412.5,179.6,414.9,179.8,417.6,179.8z M306.5,190.9l-0.5-3c-3.2,0.5-6.5,1.2-10,1.9c-10.4,2.1-21.1,4.2-31.3,3.4l-0.2,3
	c1.6,0.1,3.1,0.2,4.7,0.2c9.1,0,18.4-1.9,27.4-3.7C300,192,303.3,191.4,306.5,190.9z M580.8,107.6v-3h-4.3v3H580.8z M644.9,114v-3
	c-2.1,0-2.9,0-4.7-0.9l-1.3,2.7C641.3,114,642.7,114,644.9,114z M506.3,106.5c5.2-1,9.3-1,13.6-1v-3c-4.3,0-8.7,0-14.2,1.1
	L506.3,106.5z M1043.7,90.7c-0.2-0.8-1-1.3-1.8-1.1c-2.7,0.7-5,1.7-7,2.7c-1.3,0.6-2.6,1.2-3.9,1.6c-40.8,16.1-88.9,22.8-151.2,21.2
	c-55.7-1.4-112.2-8.4-166.8-15.2c-38-4.7-77.3-9.6-116.1-12.5c-114-8.7-208.2-6.8-296.4,5.7c-10.7,1.5-21.5,3.2-32,4.8
	c-37.5,5.8-76.3,11.8-115,11.8c0,0,0,0-0.1,0c-5.8,0-11.6,0-17.2,0c-44.8,0.1-87.2,0.3-133.1-9.6c-0.8-0.2-1.6,0.3-1.8,1.1
	c-0.2,0.8,0.3,1.6,1.1,1.8c46.2,10,88.7,9.8,133.7,9.7c5.5,0,11.1,0,16.8,0c0.2,0,0.3,0,0.5,0c38.9,0,77.8-6,115.5-11.9
	c10.5-1.6,21.3-3.3,32-4.8c87.9-12.5,181.9-14.4,295.7-5.7c38.6,2.9,77.9,7.8,115.9,12.5c54.7,6.8,111.3,13.8,167.1,15.2
	c5.8,0.1,11.6,0.2,17.2,0.2c54.6,0,97.9-7,135.2-21.6c1.4-0.5,2.7-1.1,4.1-1.7c2-0.9,4-1.9,6.4-2.5
	C1043.4,92.4,1043.9,91.5,1043.7,90.7z M1023.9,113.1c-41.6,6.2-86.6,9.2-141.6,9.4c-25.5,0.1-52.7-1-83.1-3.3
	c-35.2-2.7-71-7-105.6-11.1c-58.4-7-118.7-14.1-178.5-14c-66.8,0.1-134.3,7.2-199.6,14c-86.7,9-176.3,18.4-265,11.7
	c-12-0.9-37.5-4.1-47.9-9.7c-0.7-0.4-1.6-0.1-2,0.6c-0.4,0.7-0.1,1.6,0.6,2c10.9,5.9,36.9,9.2,49.1,10.1
	c88.9,6.8,178.7-2.6,265.5-11.7c65.2-6.8,132.7-13.8,199.3-14c0.5,0,1.1,0,1.6,0c59.1,0,118.8,7.1,176.5,14
	c34.6,4.1,70.4,8.4,105.8,11.1c29.2,2.2,55.5,3.3,80.2,3.3c1.1,0,2.1,0,3.2,0c55.2-0.2,100.3-3.2,141.9-9.5c4.1,0,8.2-1.2,11.7-2.3
	c1.2-0.4,2.4-0.7,3.5-1c0.8-0.2,1.3-1,1.1-1.8c-0.2-0.8-1-1.3-1.8-1.1c-1.1,0.3-2.3,0.6-3.6,1c-3.4,1-7.3,2.1-11,2.1
	C1024,113.1,1024,113.1,1023.9,113.1z M31.7,147.1v-3H21v3H31.7z M627,72.6c12.5,1.5,25.4,3.2,37.8,4.7
	c69.3,8.8,140.4,17.8,210.7,17.8c18.2,0,36.4-0.6,54.4-2c45.2-3.4,80.2-13.9,106.8-31.8c0.7-0.5,0.9-1.4,0.4-2.1
	c-0.5-0.7-1.4-0.9-2.1-0.4c-26.2,17.7-60.6,27.9-105.3,31.3c-87.4,6.6-177.4-4.8-264.5-15.8c-12.4-1.6-25.3-3.2-37.8-4.7
	c-142.6-17.5-285.2-16.4-436.1,3.4c-39.8,5.2-79.9,3.6-118.7,2c-21.7-0.9-44.2-1.8-66.5-1.5c-0.8,0-1.5,0.7-1.5,1.5
	c0,0.8,0.7,1.5,1.5,1.5c22.2-0.3,44.6,0.6,66.3,1.5c38.9,1.6,79.2,3.2,119.2-2C342.3,56.3,484.7,55.2,627,72.6z M926.4,130.3
	c-0.8,0.3-1.2,1.1-0.9,1.9c0.3,0.8,1.1,1.2,1.9,0.9c2.2-0.7,5.1-1.2,7,0.7c0.3,0.3,0.7,0.4,1.1,0.4s0.8-0.1,1.1-0.4
	c0.6-0.6,0.6-1.5,0-2.1C934.2,129.4,930.6,128.9,926.4,130.3z M998,129.2c-8.2,2.9-16.6,2.9-25.5,2.8c-6.9,0-14.1-0.1-21.2,1.4
	c-0.8,0.2-1.3,1-1.2,1.8c0.1,0.7,0.8,1.2,1.5,1.2c0.1,0,0.2,0,0.3,0c6.9-1.4,13.9-1.3,20.6-1.3c8.8,0,17.9,0.1,26.6-3
	c0.8-0.3,1.2-1.1,0.9-1.9C999.6,129.3,998.8,128.9,998,129.2z M1026.3,108.6c0.7,0,1.3-0.5,1.4-1.1c0.6-0.2,1.1-0.8,1.1-1.5
	c0-0.8-0.7-1.5-1.5-1.5c-1.7,0-2.6,1.3-2.6,2.6C1024.8,107.9,1025.4,108.6,1026.3,108.6C1026.2,108.6,1026.2,108.6,1026.3,108.6z
	 M295.6,73.4v-3c-4.2,0-7.8,1.6-9.2,2.3l1.3,2.7C290.2,74.1,293.1,73.4,295.6,73.4z M99.5,157.8c9.8-0.6,20-1.2,29.7-1.6
	c59-2.4,118.7-8.1,176.4-13.6c34.3-3.3,69.7-6.6,104.6-9.3c27.6-2.1,52.3-3.6,75.4-4.5c40.3-1.6,73.2-0.9,103.5,2.1
	c68.4,8.5,137.9,16.2,205.1,23.5c38.4,3.9,79.9,7.2,121.2,7.2c37.7,0,75.2-2.8,110-10.5c5.4-1.1,9.7-2.2,14-3.2
	c0.8-0.2,1.3-1,1.1-1.8c-0.2-0.8-1-1.3-1.8-1.1c-4.2,1-8.5,2.1-13.8,3.2c-72.6,16-157.1,10.6-230.3,3.2
	c-67.2-7.4-136.7-15-205.1-23.5c-30.5-3.1-63.6-3.7-104-2.2c-23.1,0.9-47.8,2.4-75.5,4.5c-34.9,2.6-70.4,6-104.7,9.3
	c-57.7,5.5-117.4,11.1-176.3,13.6c-9.8,0.4-20,1-29.8,1.6C64,157,27.6,159.2-6.5,152.7c-0.8-0.2-1.6,0.4-1.8,1.2
	c-0.2,0.8,0.4,1.6,1.2,1.8C27.4,162.2,64,160,99.5,157.8z M649.1,148.7c0.8-0.4,5.4-0.3,7.8,1.3l1.7-2.5c-3.2-2.2-9.1-2.5-10.9-1.5
	c-1,0.5-1.1,1.3-1.1,1.7h3C649.6,148.3,649.2,148.6,649.1,148.7z M1.4,87.7c-0.1,0.8,0.4,1.6,1.2,1.7c90.1,15.2,182.1,5.4,271-4.2
	c21.8-2.3,44.2-4.8,66.3-6.8c37.5-3.4,68.3-5.1,96.9-5.3c61.3-0.5,123.2,5,175.6,10.5c15.5,1.6,31.2,3.4,46.3,5
	c40.1,4.4,81.5,9,122.4,12c7,0.5,14,1,21.1,1.6c33.3,2.5,67.1,5.1,100.5,5.1c43.7,0,86.8-4.4,127.2-19c0.1,0,0.2-0.1,0.3-0.2
	c1.6-1.1,3.5-1.8,5.1-2.5c1.7-0.7,2.9-1.2,3.7-1.9c0.6-0.6,0.6-1.5,0-2.1c-0.6-0.6-1.5-0.6-2.1,0c-0.3,0.3-1.7,0.9-2.7,1.3
	c-1.6,0.7-3.7,1.5-5.5,2.7C958.1,111,879,105,802.5,99.2c-7.1-0.5-14.2-1.1-21.1-1.6c-40.8-3-82.2-7.5-122.3-11.9
	c-15.2-1.7-30.9-3.4-46.4-5c-52.5-5.5-114.4-11.1-175.9-10.6c-28.7,0.2-59.5,1.9-97.2,5.4c-22.1,2-44.6,4.4-66.3,6.8
	c-88.7,9.5-180.5,19.4-270.2,4.2C2.3,86.3,1.5,86.8,1.4,87.7z M603.9,141.7c8.3,2.5,15.8,3.1,23.8,3.7c2.4,0.2,5,0.4,7.5,0.6l0.3-3
	c-2.6-0.3-5.1-0.5-7.6-0.6c-7.8-0.6-15.2-1.2-23.1-3.6L603.9,141.7z M169.4,62.9l-28.8,3.2l0.3,3l28.8-3.2L169.4,62.9z M192,64
	c-0.9,0-1.7,0.4-2.3,0.7c-0.3,0.2-0.8,0.4-0.9,0.4v3c0.9,0,1.7-0.4,2.3-0.7c0.3-0.2,0.8-0.4,0.9-0.4V64z M1034,42.8
	c-45.1,28.8-100.4,35.4-148.5,38.1C810.7,85,735.7,74,663.1,63.4c-59.9-8.8-121.8-17.9-183.4-18.5c-82.8-0.8-166.9,3.6-248.3,7.9
	c-74.9,3.9-152.4,8-228.6,8c-0.8,0-1.5,0.7-1.5,1.5c0,0.8,0.7,1.5,1.5,1.5c76.3,0,153.8-4.1,228.7-8c81.3-4.3,165.4-8.6,248.1-7.9
	c61.4,0.6,123.2,9.6,183,18.4c62,9.1,125.8,18.5,189.7,18.5c11.1,0,22.1-0.3,33.2-0.9c48.5-2.7,104.3-9.3,150-38.5
	c0.7-0.4,0.9-1.4,0.5-2.1C1035.6,42.6,1034.7,42.4,1034,42.8z M0.7,80.9c0.8,0,1.5-0.6,1.5-1.5c0-0.7-0.5-1.3-1.1-1.5
	c-0.2-0.6-0.8-1.1-1.5-1.1c-0.8,0-1.5,0.7-1.5,1.5C-1.8,80-0.5,80.9,0.7,80.9z M75.5,22.2c13.9,0.4,27.8,0.8,41.8,0.8
	c40.4,0,80.9-3.4,119.1-20.2L235.1,0c-50.7,22.4-106,20.7-159.6,19.2c-23.6-0.7-48-1.4-71.7-0.1l0.2,3
	C27.6,20.8,51.9,21.5,75.5,22.2z M889.5,49.9v-3c-3.3,0-7.9,0-11.5,2.4l1.7,2.5C882.5,49.9,886.4,49.9,889.5,49.9z M702.9,40.5
	c44.8,9,102.4,19,161.7,19c6.7,0,13.4-0.1,20.1-0.4c27.7-1.1,53.5-5.9,76.6-14.4c12.4-4.5,24.5-10.3,36.2-15.9
	c13.2-6.3,26.8-12.8,40.9-17.5l-0.9-2.8c-14.3,4.8-28,11.3-41.3,17.6c-11.6,5.5-23.6,11.3-35.9,15.8C937.5,50.2,912,55,884.6,56.1
	c-65.9,2.6-131.4-8.5-181.1-18.5c-16.6-3.3-33.6-7.2-50.1-10.9c-35.3-8-71.8-16.3-107.7-20.3l-0.3,3c35.8,4.1,72.2,12.3,107.4,20.3
	C669.2,33.3,686.3,37.1,702.9,40.5z M925.8,47.7v-3c-8.5,0-17,1-24.8,2.2l0.4,3C909.2,48.8,917.5,47.7,925.8,47.7z M831.4,48.7
	c10.9,3.3,25.8,3.3,37.8,3.3v-3c-11.8,0-26.5,0-37-3.1L831.4,48.7z M765.4,36.6c31.1,3.6,64,6.6,97.1,6.6c54.1,0,109-8.3,158.1-36.3
	l-1.5-2.6C940.7,49.1,847.2,43,765.7,33.7c-28.5-3.3-57-9.2-84.6-15c-26-5.5-52.9-11.1-79.8-14.5l-0.4,3c26.7,3.3,53.6,9,79.5,14.4
	C708.1,27.4,736.7,33.4,765.4,36.6z M828.6,21.3c3.7-0.1,7.6-0.1,11.5-0.1c28.3-0.2,60.5-0.3,84.4-15.3l-1.6-2.5
	C899.7,17.8,868,18,840,18.2c-3.9,0-7.8,0-11.5,0.1c-30.8,0.5-66.7-0.6-99.8-13l-1,2.8c29.7,11.1,61.6,13.3,90.1,13.3
	C821.4,21.4,825,21.3,828.6,21.3z M49.9,149.2c5.5,0,9.8,0,15.2-1.1l-0.6-2.9c-5.2,1-9.4,1-14.7,1V149.2z M914.3,23.9
	c11.4-1.7,23-3.9,34.1-6c9.8-1.9,20-3.8,30-5.4l-0.5-3c-10.1,1.6-20.2,3.5-30.1,5.4c-11.1,2.1-22.6,4.3-34,6
	c-89,13.2-171,7.6-243.9-16.7L669,7.1c47.6,15.9,99,23.8,153.7,23.8C852.3,30.9,882.9,28.6,914.3,23.9z M63.4,37.5
	c2.4-0.1,4.8-0.2,7.2-0.3c30.3-1,60.2-3.1,82.8-4.8c16.8-1.3,33.8-2.7,50.2-4.1c38-3.2,77.3-6.5,116-8.2
	c86.3-3.7,162.8-2.1,233.9,4.8c41.3,4,84.2,12.4,125.8,20.6c60.6,11.8,122.5,23.9,183.7,23.9c31.2,0,62.2-3.1,92.7-11.1
	c35.1-9.1,70.2-26.4,93.8-46.2l-1.9-2.3c-23.3,19.6-57.9,36.6-92.6,45.6c-89.8,23.3-184,4.9-275.1-12.9
	C638.3,34.4,595.2,26,553.8,22c-71.3-7-147.9-8.6-234.3-4.9c-38.8,1.7-78.1,5-116.2,8.2c-16.5,1.4-33.5,2.8-50.2,4.1
	c-22.6,1.7-52.4,3.8-82.6,4.8c-2.4,0.1-4.8,0.2-7.2,0.3C42.5,35.3,21,36.1,2.4,28.8l-1.1,2.8C20.5,39.1,43.3,38.2,63.4,37.5z
	 M792.7,140.6c-11.1-1-22.6-2-34.3-4c-0.8-0.1-1.6,0.4-1.7,1.2c-0.1,0.8,0.4,1.6,1.2,1.7c11.8,2,23.4,3,34.6,4l2.9,0.3
	c0,0,0.1,0,0.1,0c0.8,0,1.4-0.6,1.5-1.4c0.1-0.8-0.5-1.6-1.4-1.6L792.7,140.6z M874.6,140c26.7,2.5,53.9,5,81,5
	c25.4,0,50.7-2.2,75.4-8.7c3.1-1,7.5-2.1,11.6-3.2c0.8-0.2,1.3-1,1.1-1.8c-0.2-0.8-1-1.3-1.8-1.1c-4.2,1.1-8.6,2.1-11.8,3.2
	c-50.6,13.3-103.8,8.4-155.3,3.6c-14.5-1.3-29.4-2.7-44-3.7c-35.4-2.7-70.5-5.4-105.6-8c-34.9-2.7-69.7-5.3-104.9-8l-4.7-0.3
	c-72.1-5.2-140.1-10.2-212.4-1.8c-117,13.6-218.9,20.4-311.6,20.8c-20,0.1-40-2-59.3-4c-10.7-1.1-21.7-2.2-32.6-3
	c-0.8-0.1-1.5,0.6-1.6,1.4c-0.1,0.8,0.6,1.5,1.4,1.6c10.9,0.8,21.9,1.9,32.5,3c19.4,2,39.5,4.1,59.6,4
	c92.8-0.5,194.8-7.3,311.9-20.9c72-8.3,139.9-3.4,211.9,1.8l4.7,0.3c35.1,2.7,70,5.3,104.9,8c35.1,2.7,70.2,5.4,105.6,8
	C845.2,137.3,860.1,138.7,874.6,140z M91.5,147.1v-3c-1.2,0-2.5,0-4.9,1.2l1.3,2.7C89.8,147.1,90.6,147.1,91.5,147.1z M807.9,143.1
	c-0.8,0.3-1.2,1.1-0.9,1.9c0.3,0.8,1.1,1.2,1.9,0.9c2.9-1,5.8-1,8.7,0c0.2,0.1,0.3,0.1,0.5,0.1c0.6,0,1.2-0.4,1.4-1
	c0.3-0.8-0.2-1.6-0.9-1.9C814.9,141.9,811.4,141.9,807.9,143.1z M419.5,25.3v-3h-6.4v3H419.5z M358.6,28.5v-3c-4.3,0-8.7,0-13.2,1.1
	l0.7,2.9C350.2,28.5,354.3,28.5,358.6,28.5z M93.3,50.9c17.6,0.3,35.8,0.6,53.4-0.2c38-1.6,76.4-4.1,113.7-6.5
	c86.2-5.5,175.3-11.3,263.6-6.9c50.5,2.5,101.8,10.8,151.4,18.9c59.7,9.7,120.8,19.6,182.1,19.6c28.4,0,56.8-2.1,85.1-7.4
	c37.7-7,75.2-20.8,105.8-39l-1.5-2.6c-30.3,18-67.5,31.7-104.9,38.7C852.9,82,762.9,67.3,675.8,53.2C626.1,45.1,574.8,36.8,524,34.3
	c-88.4-4.3-177.6,1.4-263.9,6.9c-37.2,2.4-75.7,4.9-113.6,6.5c-17.5,0.8-35.7,0.5-53.2,0.2c-31.4-0.5-63.9-1-95,4.3l0.5,3
	C29.7,49.9,62,50.4,93.3,50.9z M3.6,390.6c0.2,0.8,1.1,1.3,1.9,1c28.9-8.4,59.5-9.6,89.1-10.7c5.6-0.2,11.4-0.4,17.1-0.7
	c15.4-0.7,31.1-1.7,46.3-2.7c23.3-1.5,47.5-3,71.2-3.6c40.6-1.1,82.8,1.7,125.4,8.4c6.3,1,12.5,2,18.8,3
	c35.2,5.7,69,11.1,103.4,11.1c15.8,0,31.8-1.2,48-4c26-4.5,52.2-10.7,77.5-16.7c23.5-5.6,47.9-11.3,72.1-15.7
	c56.6-10.3,108.5-15.8,158.7-16.7c45.9-0.8,92,4.4,136.5,9.4c18.1,2,36.8,4.1,55.4,5.8c4.4,1.1,7.7,1.1,13.1,1.1
	c0.8,0,1.5-0.7,1.5-1.5c0-0.8-0.7-1.5-1.5-1.5c-5.2,0-8.4,0-12.5-1c-0.1,0-0.2,0-0.2,0c-18.5-1.7-37.3-3.8-55.4-5.8
	c-44.6-5-90.7-10.2-136.9-9.4c-50.4,0.9-102.5,6.4-159.2,16.7c-24.3,4.4-48.7,10.2-72.2,15.8c-25.2,6-51.3,12.1-77.3,16.7
	c-51,8.9-99.2,1.1-150.4-7.1c-6.3-1-12.5-2-18.8-3c-42.8-6.7-85.2-9.5-126-8.4c-23.8,0.6-48,2.1-71.3,3.6
	c-15.2,0.9-30.8,1.9-46.2,2.7c-5.7,0.3-11.5,0.5-17.1,0.7c-29.8,1.1-60.6,2.3-89.9,10.9C3.8,389,3.3,389.8,3.6,390.6z M65.9,370.3
	c0.1,0,0.1,0,0.2,0c9.9-1.1,20.4-2.1,29.7-2.1c0.8,0,1.5-0.7,1.5-1.5s-0.7-1.5-1.5-1.5c-9.5,0-20.1,1-30.1,2.1
	c-0.8,0.1-1.4,0.8-1.3,1.7C64.5,369.8,65.1,370.3,65.9,370.3z M52.9,187c-16.1-0.1-32.7-0.1-49-0.1c-0.8,0-1.5,0.7-1.5,1.5
	s0.7,1.5,1.5,1.5c16.2,0,32.9,0.1,48.9,0.1c84.5,0.4,171.8,0.8,255.7-9c12.1-1.4,24.4-2.9,36.2-4.4c70.4-8.7,136.9-16.8,207-9.9
	c24.1,2.4,48.5,5.7,72.1,8.8c22.5,3,45.8,6.1,68.7,8.5c66.9,6.9,127.1,10.3,182.7,10.3c51.6,0,99.2-2.9,144.7-8.8c0,0,0.1,0,0.1,0
	c5.2-1,10.5-2.1,15.7-2.1c0.8,0,1.5-0.7,1.5-1.5c0-0.8-0.7-1.5-1.5-1.5c-5.5,0-11,1.1-16.3,2.2c-94.3,12.2-198.1,11.7-326.7-1.5
	c-22.9-2.3-46.2-5.5-68.6-8.5c-23.6-3.2-48.1-6.5-72.2-8.8c-70.5-7-137.1,1.2-207.6,9.9c-11.8,1.5-24.1,3-36.2,4.4
	C224.5,187.7,137.3,187.3,52.9,187z M124.7,367.1c0.8,0,1.5-0.7,1.5-1.5s-0.7-1.5-1.5-1.5h-8.5c-0.8,0-1.5,0.7-1.5,1.5
	s0.7,1.5,1.5,1.5H124.7z M200.5,361.8c0.2,0,0.3,0,0.5-0.1c3.9-1.3,7.7-2.1,10.2-2.1c0.8,0,1.5-0.7,1.5-1.5c0-0.8-0.7-1.5-1.5-1.5
	c-4.1,0-9.2,1.5-11.2,2.2c-0.8,0.3-1.2,1.1-0.9,1.9C199.3,361.4,199.9,361.8,200.5,361.8z M617.1,420.6c3.9,0,9.8-0.9,13.7-3.5
	l-1.7-2.5c-3.1,2-8.2,3-12,3V420.6z M39.7,463.6l1.1,2.8c7.4-2.9,15-4.2,22.3-5.5c6.3-1.1,12.3-2.2,18.3-4.1l-0.9-2.8
	c-5.7,1.9-11.6,2.9-17.8,4C55.1,459.3,47.4,460.6,39.7,463.6z M674.2,348.3c3.1-0.9,6.4-1.9,9.5-2.6c0.8-0.2,1.3-1,1.1-1.8
	s-1-1.3-1.8-1.1c-3.3,0.7-6.5,1.7-9.7,2.6c-6.2,1.8-12.6,3.7-18.8,3.7c-0.8,0-1.5,0.7-1.5,1.5c0,0.8,0.7,1.5,1.5,1.5
	C661.1,352.2,667.8,350.2,674.2,348.3z M1040.1,422.9c-2,0-3.8-0.3-5.7-0.5c-1.9-0.3-3.8-0.5-6-0.5c-86.1-14-171.8-9.8-244.3-3.8
	c-38.5,3.2-77.5,7.4-115.3,11.6c-53,5.8-107.9,11.8-162,14.8c-55,3.1-108.9-2.4-159.4-8.2c-27.3-3.2-53.9-5.6-79.3-7.2
	c-48-3.1-94.6-3.2-138.7-0.4c-2.6,0.2-5.1,0.3-7.7,0.5c-39.9,2.5-85.1,5.3-121.7,22.9c-0.7,0.4-1.1,1.3-0.7,2
	c0.3,0.5,0.8,0.9,1.4,0.9c0.2,0,0.4,0,0.6-0.1c36-17.3,81-20.1,120.6-22.6c2.6-0.2,5.2-0.3,7.7-0.5c43.9-2.8,90.4-2.7,138.3,0.4
	c25.3,1.6,51.9,4.1,79.1,7.2c50.7,5.9,104.7,11.3,159.9,8.3c54.2-3,109.1-9,162.2-14.8c37.7-4.1,76.8-8.4,115.2-11.5
	c72.3-5.9,157.9-10.1,243.7,3.8c0.1,0,0.2,0,0.2,0c2,0,3.8,0.3,5.7,0.5c1.9,0.3,3.8,0.5,6.1,0.5c0.8,0,1.5-0.7,1.5-1.5
	C1041.6,423.6,1041,422.9,1040.1,422.9z M928.7,396.9c34.5,1.7,74.3,4.6,110.9,17.1c0.8,0.3,1.6-0.2,1.9-0.9
	c0.3-0.8-0.2-1.6-0.9-1.9c-37-12.6-77.1-15.5-111.8-17.3c-107.5-5.4-201.6-3-287.7,7.5c-14.2,1.7-28.7,3.7-42.6,5.7
	c-34.1,4.7-69.4,9.7-104.5,11c-51.5,1.9-103.5-2.4-148.1-6.6c-31-2.9-54.8-4.6-77-5.3c-47.9-1.5-96.1,3.4-142.8,8.2
	c-39,4-79.2,8.1-119.1,8.5c-0.8,0-1.5,0.7-1.5,1.5c0,0.8,0.7,1.5,1.5,1.5c0,0,0,0,0,0c40-0.3,80.3-4.5,119.4-8.5
	c46.5-4.8,94.7-9.7,142.4-8.2c22.2,0.7,45.9,2.3,76.8,5.3c44.7,4.2,96.7,8.6,148.5,6.6c35.2-1.3,70.6-6.2,104.8-11
	c13.9-1.9,28.4-3.9,42.6-5.7C727.5,394,821.4,391.5,928.7,396.9z M810.5,405.6v-3c-4.4,0-9.9,1.1-15.2,2.2l0.6,2.9
	C801,406.7,806.3,405.6,810.5,405.6z M743.2,407.7v-3c-1.2,0-2.5,0-4.9,1.2l1.3,2.7C741.4,407.7,742.2,407.7,743.2,407.7z M95.1,453
	l1.3,2.7c0.8-0.4,4.4-1.1,7.5-1.8c5-1,10.6-2.2,13.7-3.5l-1.1-2.8c-2.9,1.2-8.6,2.4-13.2,3.3C98.8,451.9,96.2,452.4,95.1,453z
	 M659.6,415.4l0.4,3c14-2,28.7-3,43-4.1l2.8-0.2l-0.2-3l-2.8,0.2C688.5,412.4,673.7,413.4,659.6,415.4z M929,336.2
	c0.8,0,1.5-0.7,1.5-1.5c0-0.8-0.7-1.5-1.5-1.5h-4.3c-0.8,0-1.5,0.7-1.5,1.5c0,0.8,0.7,1.5,1.5,1.5H929z M842.7,329.7
	c4.6-0.5,9.7,0,14.6,0.5c3.6,0.4,7.2,0.8,10.8,0.8c1.5,0,3-0.1,4.4-0.2c0.8-0.1,1.4-0.8,1.3-1.7c-0.1-0.8-0.8-1.4-1.7-1.3
	c-4.6,0.5-9.7,0-14.6-0.5c-5.1-0.5-10.3-1.1-15.3-0.5c-0.8,0.1-1.4,0.8-1.3,1.7C841.1,329.2,841.9,329.8,842.7,329.7z M712.2,340.4
	c0.8,0,1.5-0.7,1.5-1.5s-0.7-1.5-1.5-1.5h-5.3c-0.8,0-1.5,0.7-1.5,1.5s0.7,1.5,1.5,1.5H712.2z M901.3,334c0.8,0,1.5-0.7,1.5-1.5
	c0-0.8-0.7-1.5-1.5-1.5h-7.5c-0.8,0-1.5,0.7-1.5,1.5c0,0.8,0.7,1.5,1.5,1.5H901.3z M8.2,378.9c0.1,0,0.2,0,0.2,0
	c6.2-1,28.7-4.3,39.4-5.3c0.8-0.1,1.4-0.8,1.3-1.6c-0.1-0.8-0.8-1.4-1.6-1.3c-10.8,1.1-33.4,4.3-39.6,5.4c-0.8,0.1-1.4,0.9-1.2,1.7
	C6.9,378.4,7.5,378.9,8.2,378.9z M260.3,172.7c0.8,0,1.5-0.7,1.5-1.5s-0.7-1.5-1.5-1.5h-8.5c-0.8,0-1.5,0.7-1.5,1.5s0.7,1.5,1.5,1.5
	H260.3z M1007.8,474.4c7.5,1.3,14.9,2.5,22.4,3.8c3,1,7.6,2.2,12.1,2.2v-3c-4.2,0-8.5-1.1-11.3-2.1l-0.2-0.1
	c-7.5-1.3-15-2.5-22.5-3.8c-56-9.5-113.9-19.3-172.2-19.6c-1.1,0-2.2,0-3.4,0c-51.8,0-104,5.8-154.5,11.4
	c-58.7,6.5-119.4,13.2-179.6,10.9c-39.1-1.5-78.8-5.9-117.1-10.2c-61.9-6.8-125.9-13.9-189.2-9.2c-55,4.1-110,14-163.3,23.7
	c-8.1,1.5-16.1,2.9-24.2,4.4l0.5,3c8.1-1.4,16.1-2.9,24.2-4.4c53.2-9.6,108.2-19.6,163-23.6c63-4.7,126.9,2.4,188.6,9.2
	c38.4,4.3,78.2,8.6,117.4,10.2c60.4,2.4,121.2-4.4,180-10.9c51.5-5.7,104.8-11.6,157.5-11.4C894.1,455.2,951.9,465,1007.8,474.4z
	 M309.2,169.7c11.1,0,21.5-2.8,31.7-5.6c0.8-0.2,1.3-1,1.1-1.8c-0.2-0.8-1-1.3-1.8-1.1c-11.4,3.1-23.2,6.3-35.8,5.3
	c-0.8-0.1-1.6,0.5-1.6,1.4c-0.1,0.8,0.5,1.6,1.4,1.6C305.7,169.7,307.5,169.7,309.2,169.7z M687.3,471l0.6,2.9
	c2.6-0.5,5.3-0.8,7.9-1c2.7-0.3,5.4-0.5,8.2-1.1l-0.6-2.9c-2.6,0.5-5.3,0.8-7.9,1C692.8,470.2,690.1,470.4,687.3,471z M744.2,468.6
	v-3c-6.5,0-13.1,1.1-19.5,2.2l0.5,3C731.5,469.7,738,468.6,744.2,468.6z M123.6,172.9c-1.2,0-2.5,0-4.9,1.2l1.3,2.7
	c1.8-0.9,2.6-0.9,3.6-0.9V172.9z M197.3,177c0.1,0,0.2,0,0.2,0c6.8-1.1,13.8-1.1,20.5-1.1c7,0,13.6,0,20.1-1.1
	c0.8-0.1,1.4-0.9,1.2-1.7c-0.1-0.8-0.9-1.4-1.7-1.2c-6.3,1-12.8,1-19.6,1c-6.8,0-13.9,0-20.9,1.1c-0.8,0.1-1.4,0.9-1.3,1.7
	C195.9,176.5,196.6,177,197.3,177z M148.2,172.9v3h7.5v-3H148.2z M825.5,430.7c-54.7,1-109.8,6.9-163.2,12.5
	c-73.1,7.8-148.7,15.8-223.8,11.4c-31.9-1.8-64.2-4.8-95.5-7.7c-93.7-8.6-190.7-17.5-286.9,3.6c-6.7,1.5-13.5,3.4-20,5.3
	c-11.3,3.3-23,6.6-34.5,7.6l0.3,3c11.8-1,23.6-4.4,35.1-7.7c6.5-1.9,13.3-3.8,19.8-5.3c95.8-21,192.4-12.1,286-3.5
	c31.3,2.9,63.6,5.8,95.6,7.7c75.4,4.3,151.1-3.7,224.3-11.4c53.3-5.6,108.4-11.5,162.9-12.5c73.2-1.4,145.5,7.8,215.4,16.8l0.4-3
	C971.4,438.5,899,429.3,825.5,430.7z M161,448.3v-3c-3.5,0-5.9,1.2-9.4,3.5l1.7,2.5C156.3,449.2,158.2,448.3,161,448.3z
	 M780.6,447.3v-3c-2.3,0-4.6,0-7.1,1.2l1.3,2.7C776.6,447.3,778.5,447.3,780.6,447.3z M951.1,451.5c6.8,1.9,14.4,3,21.2,4l2.5,0.4
	l0.4-3l-2.5-0.4c-6.7-0.9-14.2-2-20.8-3.9L951.1,451.5z M569,466.5v-3h-16v3H569z M611.8,461.1v-3c-1.2,0-3.6,0-6,1.2l1.3,2.7
	C608.9,461.1,610.8,461.1,611.8,461.1z M933,429.1l0.7-2.9c-4.4-1.1-8.9-2.2-14.5-1.1l0.6,2.9C924.7,427,928.7,428,933,429.1z
	 M951.5,427.2v3h6.4v-3H951.5z M995.9,457.2l0.9,2.8c8.3-2.8,16.6,0.4,24.7,3.5c0.7,0.3,1.4,0.5,2.1,0.8l1.1-2.8
	c-0.7-0.3-1.4-0.5-2.1-0.8C1014.4,457.6,1005.2,454,995.9,457.2z M96.6,337.5c-6.3,1-17.8,1-22.2,1c-0.8,0-1.5,0.7-1.5,1.5
	c0,0.8,0.7,1.5,1.5,1.5c4.4,0,16.1,0,22.7-1.1c0.8-0.1,1.4-0.9,1.2-1.7C98.2,337.9,97.4,337.3,96.6,337.5z M1033.3,584.9
	c1.2-0.6,2.7-1.6,4.4-2.8c1.5-1,3.1-2.1,4.1-2.6l-1.3-2.7c-1.2,0.6-2.7,1.6-4.4,2.8c-1.5,1-3.1,2.1-4,2.5
	c-24,10.6-53.9,5.3-80.3,0.6c-7.3-1.3-14.2-2.5-20.9-3.4c-39.5-5.3-79.3-9.1-118.3-11.2c-44.6-2.4-89.8,0.6-133.5,3.6
	c-31.7,2.1-64.4,4.3-96.6,4.4c-23.2,0.1-47.9-1.4-77.5-4.5c-6.9-0.7-13.8-1.5-20.7-2.3c-36.6-4.1-74.4-8.3-112.4-7.3
	c-46.7,1.1-93.6,7.5-139,13.7c-50,6.8-101.7,13.8-153,13.8c-1.9,0-3.8,0-5.9,0c-21.2,0.1-53.3,0.2-72.6-8.4l-1.2,2.7
	c17.8,8,45.7,8.7,66.8,8.7c2.4,0,4.8,0,7,0c2.1,0,4,0,5.9,0c51.5,0,103.3-7,153.4-13.8c45.3-6.2,92.2-12.5,138.7-13.6
	c37.8-0.9,73.8,3.1,112,7.3c6.9,0.8,13.8,1.5,20.7,2.3c29.8,3.2,54.5,4.6,77.9,4.5c32.3-0.1,65.1-2.3,96.8-4.5
	c43.6-2.9,88.7-6,133.2-3.6c38.9,2.1,78.7,5.9,118.1,11.2c6.6,0.9,13.5,2.1,20.8,3.4C978,590.5,1008.4,595.9,1033.3,584.9z
	 M920,594.6l1.1-2.8c-11.7-4.4-21.3-6.5-29.4-6.5v3C899.3,588.3,908.8,590.4,920,594.6z M318.1,520.1l-0.2,3
	c2.6,0.2,5.2,0.2,7.8,0.2c5.1,0,10.2-0.2,15.2-0.5c9.3-0.4,18.9-0.9,28.2,0.3l0.4-3c-9.6-1.2-19.3-0.7-28.7-0.3
	C333.3,520.2,325.6,520.6,318.1,520.1z M172.5,474.7c82-11.9,164.8-2.4,244.7,6.8c20.7,2.4,42,4.8,63.1,6.9
	c56.2,5.5,107.9,6.1,158.3,2c25.6-2.1,50.8-4.7,78.7-7.6c69.7-7.2,161.5-13.6,253.4,1.9c24,4,48,9.4,71.2,15.9l0.8-2.9
	c-23.3-6.6-47.4-11.9-71.5-16c-92.2-15.5-184.3-9.2-254.2-1.9c-27.9,2.9-53.1,5.5-78.6,7.6c-50.1,4.1-101.7,3.5-157.7-2
	c-21-2-42.4-4.5-63.1-6.9c-80.2-9.2-163.1-18.7-245.5-6.8c-54,7.8-107.8,21.4-159.8,34.4c-5.8,1.4-11.5,2.9-17.3,4.3l0.7,2.9
	c5.8-1.4,11.5-2.9,17.3-4.3C64.9,496,118.6,482.5,172.5,474.7z M977.1,601.1v-3h-10.7v3H977.1z M-2.1,319
	c43-10.3,94.6-14.2,153.4-11.7c21.3,0.8,42.9,0.7,63.8,0.6c34.9-0.2,71-0.3,107.1,3.7c3.3,0.3,6.9,0.6,10.6,0.8
	c23.6,1.8,56,4.2,74.2,16l1.6-2.5c-18.8-12.2-51.6-14.7-75.6-16.5c-3.7-0.3-7.3-0.5-10.5-0.8c-36.1-4-72.4-3.8-107.4-3.7
	c-20.9,0.1-42.5,0.2-63.7-0.6c-59.1-2.5-111,1.5-154.2,11.8L-2.1,319z M-1,305.1c16.2-4.5,39.9-9.6,60.4-8.5l0.2-3
	c-20.9-1.2-44.9,4-61.4,8.6L-1,305.1z M278.8,357.5c25.3,2.9,50.8,7.8,75.4,12.5c25.3,4.8,51.5,9.8,77.6,12.7
	c15.9,1.8,30.7,2.7,44.7,2.7c15.1,0,29.2-1,42.5-3.1c28.1-4.4,55.4-13.5,81.9-22.3c11.1-3.7,22.5-7.5,33.8-10.9
	c39.1-11.8,80.3-20.3,116.6-27.9c51.3-10.7,104.9-6.1,145.9-1c20.3,2.6,40.9,5.8,60.8,9c3.9,0.6,7.8,1.2,11.7,1.9
	c3.9,0.6,7.8,1.3,11.7,2c19.1,3.3,38.9,6.8,58,3.1c0.8-0.2,1.3-0.9,1.2-1.8c-0.2-0.8-0.9-1.3-1.8-1.2c-18.6,3.6-38.1,0.2-56.9-3.1
	c-3.9-0.7-7.9-1.4-11.7-2c-3.9-0.6-7.8-1.2-11.7-1.9c-19.9-3.2-40.5-6.5-60.8-9c-41.2-5.2-95.1-9.7-146.8,1
	c-36.4,7.6-77.6,16.1-116.8,27.9c-11.4,3.4-22.8,7.2-33.9,10.9c-26.3,8.8-53.5,17.8-81.4,22.2c-25.4,4-53.7,4.1-86.4,0.4
	c-26-2.9-52.1-7.9-77.4-12.7c-24.7-4.7-50.2-9.5-75.7-12.5c-48.8-5.7-103-6.4-170.5-2.2c-37.1,2.3-79.2,4.9-115,20.5
	c-0.8,0.3-1.1,1.2-0.8,2c0.3,0.8,1.2,1.1,2,0.8c35.3-15.4,77.1-18,113.9-20.3C176.2,351.1,230.2,351.8,278.8,357.5z M50.1,322.3
	c28.7-4.3,58-4.3,86.3-4.3v-3c-28.4,0-57.8,0-86.7,4.3L50.1,322.3z M882.6,539.1l0.9-2.8c-3.4-1.1-5.8-1.1-9-1.1v3
	C877.7,538.1,879.7,538.1,882.6,539.1z M125.7,600v-3c-2.2,0-5.6,0-9,1.1l0.9,2.8C120.6,600,123.7,600,125.7,600z M442.7,530.6
	l0.6-2.9l-16-3.2l-0.6,2.9L442.7,530.6z M52.6,257c-17.4-0.6-37.2-1.2-52.4,4.7l1.1,2.8c14.7-5.7,34.1-5.1,51.3-4.5
	c5.1,0.2,9.9,0.3,14.4,0.3h75.8v-3H67C62.5,257.3,57.7,257.2,52.6,257z M394.9,524.2v-3c-3.2,0-5.6,0-9,1.1l0.9,2.8
	C389.8,524.2,391.7,524.2,394.9,524.2z M903.6,541.3c7.1-1,13.2,1,19.6,3.1l0.9-2.8c-6.5-2.2-13.2-4.4-21-3.3L903.6,541.3z
	 M80.6,601.8c-4.6-0.3-8.2-0.5-10.2,0.8l1.7,2.5c1.1-0.8,5-0.5,8.3-0.3c4.5,0.3,9.6,0.6,13.7-0.6l-0.8-2.9
	C89.7,602.4,84.9,602.1,80.6,601.8z M940.4,535.5c28.2,5.4,57.4,11.1,86.7,11.1c3.5,1.1,7.9,1.1,11.4-0.1l-0.9-2.8
	c-2.9,1-6.8,1-9.7,0l-0.2-0.1h-0.2c-29.1,0-58.2-5.6-86.4-11l-7.2-1.4c-21.7-4.2-44.3-6.9-69-8.3c-46.7-2.6-94-0.2-139.8,2.2
	c-39.3,2-79.9,4.2-119.9,3c-43.5-1.2-87.5-6.7-130.1-12c-60.7-7.5-123.6-15.3-186.1-11c-69.8,4.9-139,20.5-206,35.5l-6.2,1.4
	c-22.1,5-42.8,4.8-64.7,4.7c-3.7,0-7.5,0-11.3,0v3c3.8,0,7.6,0,11.3,0c3.6,0,7.3,0,10.8,0c18.1,0,35.8-0.6,54.5-4.8l6.2-1.4
	c66.9-15,136-30.6,205.5-35.4c62.2-4.3,124.9,3.4,185.5,10.9c42.6,5.3,86.7,10.8,130.4,12c40.1,1.1,80.8-1,120.1-3
	c45.7-2.4,93-4.8,139.5-2.2c24.6,1.4,47.1,4.1,68.6,8.2L940.4,535.5z M37.9,601.1c2.3,0.4,4.7,1,7.3,1.7c4.6,1.3,9.4,2.6,14.4,2.6
	v-3c-4.5,0-9.1-1.2-13.6-2.5c-2.6-0.7-5.1-1.4-7.5-1.8L37.9,601.1z M932.9,597.8c7.7,2.2,14.2,2.2,21.8,2.2v-3c-7.3,0-13.7,0-21-2.1
	L932.9,597.8z M315.1,257.1l-0.5-3c-5.8,1.1-11.7,1.3-17.4,1.6c-5.8,0.3-11.9,0.5-17.8,1.6l0.5,3c5.8-1,11.7-1.3,17.4-1.6
	C303.1,258.5,309.1,258.2,315.1,257.1z M261.4,268.9c31,0,66.6-1.5,96.9-19.4l-1.5-2.6c-29.6,17.5-64.8,19-95.4,19V268.9z
	 M87.7,294.8c-3.4-1.1-7.9-1.1-12.2-1.1v3c4.1,0,8.3,0,11.3,1L87.7,294.8z M283,286.2c-6.5-1.1-13-1.1-20.5-1.1v3
	c7.4,0,13.8,0,20.1,1L283,286.2z M237.9,269.5c-0.3,0.3-0.6,0.5-0.9,0.7c-0.6,0.4-1.7,1-1.7,2.5c0,0.8,0.7,1.5,1.5,1.5c0,0,0,0,0,0
	c0.7,0,1.4-0.6,1.5-1.3c0.1-0.1,0.2-0.1,0.3-0.2c0.4-0.2,0.9-0.6,1.4-1.1c0.6-0.6,0.6-1.5,0-2.1
	C239.4,268.9,238.5,268.9,237.9,269.5z M246.9,263.1V262c0-0.8-0.7-1.5-1.5-1.5s-1.5,0.7-1.5,1.5v1.1c0,0.8,0.7,1.5,1.5,1.5
	S246.9,263.9,246.9,263.1z M279.4,279.7c6.1,0.4,11.9,0.8,16.4-0.1c16-2.3,32.9-6.7,45.2-11.9l-1.2-2.8c-12.1,5-28.7,9.4-44.6,11.7
	c-4.2,0.8-9.8,0.5-15.7,0.1c-8.8-0.6-17.8-1.2-23.3,2.3l1.6,2.5C262.6,278.6,271.1,279.1,279.4,279.7z M305.5,299.6
	c6.6,0.7,12.9,1.3,18.9,1.3v-3c-5.9,0-12.1-0.6-18.6-1.3c-12.4-1.3-25.2-2.6-37.3,0.3l0.7,2.9C280.8,297.1,293.4,298.4,305.5,299.6z
	 M303.1,289.2v-3c-1.1,0-1.5,0-2.1-0.6l-2.1,2.1C300.3,289.2,301.9,289.2,303.1,289.2z M22.2,284.9c7.1-0.3,14.5-0.5,21.4-1.1
	c6-0.5,12.2-1.5,18.3-2.5c8.1-1.4,16.5-2.8,24.4-2.8v-3c-8.1,0-16.6,1.4-24.9,2.8c-6,1-12.1,2.1-18,2.5c-6.9,0.5-14.2,0.8-21.3,1.1
	c-7.1,0.3-14.5,0.5-21.4,1.1l0.2,3C7.8,285.4,15.1,285.2,22.2,284.9z M124,293.3c-3.5-0.3-7.1-0.7-11.1-0.7v3
	c3.8,0,7.4,0.4,10.8,0.7c3.5,0.3,6.8,0.7,10.3,0.7c1.8,0,3.7-0.1,5.7-0.3l-0.3-3C133.9,294.3,129.1,293.8,124,293.3z M241.1,281.2
	c4.2-4.2,8.5-7.4,12.7-10.5l-1.8-2.4c-4.2,3.2-8.6,6.5-13,10.8L241.1,281.2z M32.8,268.9v-3c-4.8,0-9.5,0.9-14,1.7
	c-5.7,1-11.6,2.1-17.9,1.5l-0.3,3c1.4,0.1,2.7,0.2,4,0.2c5.2,0,10.1-0.9,14.8-1.7C23.9,269.7,28.2,268.9,32.8,268.9z M407.2,238.3
	c-18.4,7.1-39.4,15.2-54.7,24.6l1.6,2.6c15.2-9.3,35.9-17.3,54.3-24.4c4.9-1.9,9.5-3.7,13.9-5.4l-1.1-2.8
	C416.7,234.6,412.1,236.4,407.2,238.3z M157.1,290.1c1.2,0.6,2.7,0.9,4.1,1.2c1.3,0.3,2.5,0.5,3.4,0.9l1.3-2.7
	c-1.2-0.6-2.7-0.9-4.1-1.2c-1.3-0.3-2.5-0.5-3.4-0.9L157.1,290.1z M369.7,236.9c-2.9,0.4-5.6,0.8-8.2,1.2
	c-60.1,11.8-121.2,15-180.3,18.1l0.2,3c59.2-3.1,120.4-6.3,180.7-18.2c2.5-0.4,5.2-0.8,8.1-1.2c12.8-1.8,28.8-4.1,40.3-8.5l-1.1-2.8
	C398.1,232.9,382.4,235.1,369.7,236.9z M166.5,282.7c9.1-1,23.1-1.1,33.7,1l0.6-2.9c-11.7-2.3-26-2.1-34.6-1.1L166.5,282.7z
	 M140.8,284c-17.1-1.1-33.5-1.1-49.2-1.1v3c15.7,0,32,0,49,1.1L140.8,284z M466.6,630.1l-3.9-0.2c-61.5-3.2-131.2-6.9-190,9.9
	l0.8,2.9c58.3-16.7,127.7-13,189-9.8l3.9,0.2c15.3,1,29.7,2.8,45,4.7l5.1,0.6l0.4-3l-5.1-0.6C496.5,632.9,482,631.1,466.6,630.1z
	 M439.1,637.7l-0.7,2.9c2.2,0.6,4.5,0.8,6.8,0.8c2.3,0,4.5-0.3,6.8-0.8l-0.7-2.9C447.2,638.7,443.1,638.7,439.1,637.7z M789.9,276.3
	l0.6-2.9c-10.1-2-21-2.4-31.6-2.8c-12-0.4-24.4-0.8-35.7-3.7c-17.1-3.2-34.1-8.5-50-13.8l-0.9,2.8c16,5.3,33.1,10.7,50.3,13.9
	c11.5,2.9,24.1,3.3,36.2,3.7C769.2,274,780,274.3,789.9,276.3z M567.2,639.6c-11,0.2-22.4,0.4-32.2-0.9l-0.4,3
	c9.9,1.2,21.5,1.1,32.6,0.9c8.1-0.1,15.7-0.3,22,0.2l0.2-3C583,639.3,575.4,639.4,567.2,639.6z M114.6,559.2
	c7.8-1.3,15.2-2.6,22.6-3.8c114.9-17.7,236.8-21.8,362.2-12.3c57.4,4.4,115.8,2.3,172.2,0.3c66.6-2.4,135.4-4.8,202.8,3.3
	c15.4,1.9,31.1,4.2,46.2,6.5c12.8,1.9,26,3.9,39.1,5.6c4.6,0.6,9.3,1.3,14.3,2.1c19.9,3.1,42.4,6.7,61.2,0.6l-0.9-2.9
	c-18.1,5.9-40.3,2.4-59.8-0.7c-5-0.8-9.8-1.5-14.4-2.1c-13-1.7-26.2-3.6-39-5.6c-15.2-2.3-30.8-4.6-46.3-6.5
	c-67.6-8.2-136.6-5.7-203.3-3.3c-56.4,2-114.7,4.1-171.9-0.3c-125.7-9.6-247.7-5.4-362.9,12.3c-7.4,1.1-14.8,2.4-22.6,3.8
	c-39.4,6.8-80.1,13.8-117.2,2.3l-0.9,2.9c14.6,4.5,29.7,6.2,45.1,6.2C65.4,567.7,90.2,563.4,114.6,559.2z M0.7,579.7h1.1v-3H0.7
	V579.7z M840.4,639.1l2.1,2.1l1.1-1.1l-2.1-2.1L840.4,639.1z M332.7,636.6l0.5,3c8.3-1.3,19.8-0.2,31,0.8c7.3,0.7,14.2,1.3,20.1,1.3
	v-3c-5.8,0-12.6-0.6-19.8-1.3C353.1,636.3,341.4,635.2,332.7,636.6z M817.5,634l-0.3,0c-22.2,1.9-43.4,2.5-64.9,1.9
	c-9.4-0.3-19-0.7-28.3-1.1c-38.2-1.7-77.6-3.4-115.8,5l0.6,2.9c37.8-8.3,77-6.6,115-4.9c9.3,0.4,18.9,0.8,28.3,1.1
	c21.6,0.6,43,0,65.3-1.9l0.3,0c20.8-1.8,42.2-3.6,60.2,7.7l1.6-2.5C860.7,630.3,838.8,632.2,817.5,634z M771.2,591.3
	c-28-0.9-56.4,0.3-83.9,1.5c-22.4,0.9-45.6,1.9-68.4,1.8c-38-0.2-76.6-2-114-3.6c-57.7-2.6-117.3-5.2-176.1-2.5
	c-54.9,2.5-107.8,12.8-156.8,23.4c-22.9,5-53.2,10.9-84.6,12.6c-14.1,0.8-28.4,0.5-42.5-0.8c-5.8-0.5-12.2-2.1-18.3-3.6
	c-7.7-1.9-15.6-3.8-22.8-3.8c-0.3,0-0.7-0.1-1.1-0.2c-1.7-0.8-2.3-1-3.1-0.4l-0.8,0.7l0.4,1c0.3,0.7,1.3,1.2,2.3,1.5
	c0.1,0.1,0.3,0.2,0.5,0.2l0.1-0.1c0.8,0.2,1.4,0.3,1.7,0.3c6.8,0,14.5,1.9,22,3.7c6.3,1.5,12.7,3.1,18.8,3.7c9,0.8,18,1.2,27,1.2
	c5.3,0,10.6-0.1,15.9-0.4c31.6-1.7,62-7.7,85.1-12.7c48.9-10.6,101.6-20.8,156.3-23.4c58.6-2.7,118.2,0,175.8,2.5
	c37.4,1.7,76,3.4,114.1,3.6c22.9,0.1,46.1-0.8,68.5-1.8c27.4-1.1,55.8-2.3,83.6-1.5c43.4,1.3,87,8.3,129.2,15
	c47,7.5,95.6,15.3,144,15.3v-3c-48.2,0-96.7-7.7-143.6-15.2C858.6,599.6,814.8,592.7,771.2,591.3z M1030.5,633.6
	c-1.3-0.1-2.7-0.3-4.2-0.3c0,0,0,0,0,0c-40.9-1.6-81.8-9.4-121.4-17c-47.7-9.2-97-18.6-146.8-17.2c-19.3,0.6-38.9,2.4-57.8,4.2
	c-28.7,2.7-58.3,5.5-87.6,3.8c-17.3-1-34.9-2.2-52-3.3c-9.3-0.6-18.5-1.2-27.8-1.8l-12.4-0.8c-83.4-5.3-169.6-10.9-252.2,6.4
	c-10.2,2.1-20.5,4.4-30.5,6.6c-49.7,10.8-101,22-152.9,23.2c-15.3,0.4-30.2-2.8-44.5-5.8c-13.5-2.9-27.5-5.8-41.7-5.8l0,3
	c13.9,0,27.7,2.9,41.1,5.7c13.8,2.9,28,5.9,42.7,5.9c0.9,0,1.7,0,2.6,0c52.2-1.3,103.7-12.5,153.5-23.3c10-2.2,20.3-4.4,30.5-6.6
	c82.2-17.2,168.2-11.7,251.4-6.4l12.4,0.8c9.3,0.6,18.5,1.2,27.8,1.8c17,1.1,34.7,2.3,52,3.3c29.5,1.7,59.3-1.1,88.1-3.8
	c18.9-1.8,38.4-3.6,57.6-4.2c49.4-1.4,98.6,8,146.2,17.1c39.7,7.6,80.7,15.5,121.9,17.1c1.4,0,2.7,0.1,4,0.2
	c2.5,0.2,5.1,0.5,8.1-0.3l-0.7-2.9C1035.1,634,1033,633.8,1030.5,633.6z M977.9,608.3c-25.9-0.9-51.5-6.8-76.3-12.4
	c-14.1-3.2-28.6-6.5-43-8.9c-38.2-6.3-78.2-7.8-122.2-4.7c-70.6,5-143,5-215.3,0l-1.3-0.1c-28.4-2-57.8-4-86.8-5.2
	c-60.6-2.6-109.7-0.9-154.3,5.1c-24.5,3.3-49.3,8-73.2,12.6c-24.7,4.7-50.2,9.5-75.5,12.9c-44.3,5.9-90.8,9.8-128.5-11.5L0,598.8
	c22.2,12.5,47.2,16.5,72.9,16.5c19,0,38.4-2.2,57.4-4.7c25.4-3.4,51-8.2,75.7-12.9c23.9-4.5,48.6-9.2,73-12.5
	c44.5-6,93.4-7.7,153.8-5.1c28.9,1.2,58.3,3.3,86.7,5.2l1.3,0.1c72.5,5,145,5,215.7,0c43.8-3.1,83.5-1.6,121.5,4.7
	c14.4,2.4,28.9,5.7,42.9,8.8c24.9,5.7,50.7,11.5,76.8,12.4c25.4,0.9,48.4-2.9,68.3-11.4l-1.2-2.8
	C1025.5,605.5,1002.9,609.2,977.9,608.3z M1047.3,161.2c-4,1-12.4,2.1-18.9,2.1c-0.1,0-0.1,0-0.2,0c-75.3,11.1-153.5,13.1-239,6.4
	c-63.9-4.2-132-9.5-197.5-20.3c-65.2-10.7-130.3-8.6-196.9-5.4c-17.1,1.4-34.1,3.7-50.5,5.9c-22.4,3.1-45.7,6.3-69.1,6.9
	c-22.7,0.7-45.6,2.5-67.7,4.2c-10.1,0.8-20.5,1.6-30.6,2.2c-56.3,4-115,5.4-179.3,4.3c-0.8,0-1.5,0.6-1.5,1.5c0,0.8,0.6,1.5,1.5,1.5
	c64.4,1.2,123.2-0.2,179.6-4.3c10.1-0.7,20.6-1.5,30.7-2.2c22.1-1.7,44.9-3.4,67.6-4.2c23.6-0.6,46.9-3.8,69.4-6.9
	c16.4-2.2,33.3-4.6,50.2-5.9c66.4-3.3,131.4-5.3,196.2,5.3c65.6,10.8,133.8,16.1,197.7,20.3c32.6,2.6,64.1,3.9,94.9,3.9
	c50,0,97.9-3.4,144.6-10.3c6.7,0,15.3-1.1,19.5-2.2c0.8-0.2,1.3-1,1.1-1.8C1048.9,161.5,1048.1,161,1047.3,161.2z M879.5,624.4
	c-28-6.2-57-12.7-86.5-14.3c-45.2-2.5-91.5,0.1-136.3,2.5c-48.1,2.6-97.8,5.4-145.9,1.8c-21.3-1.6-43-2.8-64-4
	c-9.8-0.6-19.5-1.1-29.3-1.7c-87.8-5.3-174.8,11.8-255.8,31l0.7,2.9c80.8-19.2,167.5-36.3,254.9-31c9.8,0.6,19.5,1.2,29.3,1.7
	c21,1.2,42.6,2.4,63.9,4c48.4,3.6,98.2,0.8,146.3-1.8c44.7-2.5,90.9-5,135.9-2.5c29.2,1.6,58.1,8,86,14.2
	c11.9,2.6,24.2,5.4,36.4,7.7c27.3,5.2,49.7,7.7,70.5,7.7l0-3c-20.6,0-42.8-2.4-69.9-7.6C903.6,629.8,891.3,627.1,879.5,624.4z
	 M754.9,631.2v3h8.5v-3H754.9z M188.4,570.4l0.7,2.9c2.1-0.5,3.8-0.8,5.7-1c1.9-0.3,3.8-0.5,6-1.1l-0.7-2.9c-2.1,0.5-3.8,0.8-5.7,1
	C192.5,569.5,190.6,569.8,188.4,570.4z M793.3,622.7c-39.6-1.1-79.9,0.6-118.9,2.2c-46,1.9-93.6,3.9-140.4,1.3
	c-15.3-0.8-30.8-1.9-45.8-3c-50.7-3.5-103.1-7.2-154.7-2.7c-40.9,3.6-82.1,10.8-122,17.9c-4.8,0.8-9.6,1.7-14.4,2.5l0.5,3
	c4.8-0.8,9.6-1.7,14.4-2.5c39.8-7,81-14.3,121.8-17.8c51.4-4.5,103.7-0.8,154.3,2.7c15,1,30.6,2.1,45.9,3
	c46.9,2.6,94.6,0.6,140.7-1.3c38.9-1.6,79.1-3.3,118.7-2.2l3.7,0.1c42.1,1.2,89.9,2.5,127.2,22.1l1.4-2.7
	c-37.9-20-86.1-21.3-128.5-22.5L793.3,622.7z M164.5,514.5c5.6-1.1,10-2.3,14.3-4.4l-1.3-2.7c-4,2-8,3-13.5,4.1L164.5,514.5z
	 M446.8,506c37.6,4.7,76.5,9.5,114.9,12.3c50.3,3.6,101.2-0.9,150.4-5.3c34.8-3.1,70.7-6.2,106.1-6.5c37.2-0.3,75.2,3.1,113,10.3
	c6.9,1.3,13.7,2.6,20.6,4c28.1,5.5,57.1,11.1,86,14.1l0.3-3c-28.8-3-57.8-8.7-85.8-14.1c-6.9-1.3-13.7-2.7-20.6-4
	c-37.9-7.2-76.1-10.6-113.5-10.3c-35.5,0.3-71.5,3.5-106.3,6.5c-49.1,4.3-99.9,8.8-150,5.3c-38.3-2.7-77.2-7.6-114.7-12.2
	c-70.2-8.8-142.7-17.8-214.7-13.4c-36.1,2.2-73.6,9.9-118.2,24.3c-8.2,2.6-16.6,5.7-24.7,8.7C61.3,532.9,32.1,543.5,2,540.4l-0.3,3
	c3.7,0.4,7.4,0.6,11.1,0.6c26.8,0,52.6-9.4,77.7-18.5c8.1-2.9,16.5-6,24.6-8.6c44.4-14.3,81.7-21.9,117.5-24.1
	C304.4,488.3,376.8,497.3,446.8,506z M94.7,491.3v3H99v-3H94.7z M195.2,508.2c1.9,0,2.6-0.7,2.6-2.6h-2.6V508.2z M216.9,565
	l-0.7,2.9c2.2,0.6,4.5,0.8,6.6,0.8c2.2,0,4.2-0.3,6-0.9l-0.9-2.8C224.9,566,220.9,566,216.9,565z M0.6,525.5l0.3,3
	c31.3-3.5,61.7-12.7,91-21.6c21.5-6.5,43.6-13.2,66-17.7c48.5-9.6,101.1-11.5,165.6-5.9c31.8,2.8,62.9,7,94.6,11.5
	c86.7,12.3,174.6,13.7,276.6,4.3c85.3-7.8,177-13,269.7,2.3c23.3,3.8,48.4,8.8,76.5,15.2l0.7-2.9c-28.2-6.4-53.3-11.4-76.7-15.3
	c-93-15.3-184.9-10.2-270.5-2.3c-101.8,9.3-189.5,8-275.9-4.3c-31.7-4.5-62.9-8.8-94.7-11.6c-64.7-5.6-117.6-3.8-166.4,5.9
	c-22.5,4.5-44.8,11.2-66.3,17.7C61.8,512.8,31.6,522,0.6,525.5z M176.5,538c22.6-8.6,58.7-12.7,80.6-11.7l0.1-3
	c-22.1-1.1-58.8,3.1-81.8,11.8L176.5,538z M76.1,551.2l0.9,2.8c1.2-0.4,4.2-0.7,7.3-1c4.7-0.4,10.6-1,15-2.2l-0.8-2.9
	c-4.2,1.2-9.9,1.7-14.5,2.1C80.5,550.4,77.6,550.7,76.1,551.2z M112.9,546.6c4.3,0,7.7,0,11.2-1.1l-0.9-2.8c-3,1-6,1-10.2,1V546.6z
	 M195.2,505.2v0.2c0.1-0.1,0.3-0.2,0.5-0.2C195.5,505.2,195.4,505.2,195.2,505.2z M958.4,506.3c-3.4-1.1-6.8-1.1-10.1-1.1v3
	c3.2,0,6.2,0,9.1,1L958.4,506.3z M977.1,511.6v3c3.1,0,10.3,0,14.3,2l1.3-2.7C988.2,511.6,980.4,511.6,977.1,511.6z M972.9,574.4
	c-8.6-1.5-17.3-3-25.7-4.5c-33.1-5.9-67.3-12-102.1-14c-42.7-2.5-85.1-2-135.7-0.5c-14,0.4-28,0.9-41.6,1.4
	c-18.1,0.7-36.8,1.4-55.2,1.8c-43,1.1-86.9-0.6-123.4-4.8c-22.6-2.6-45.6-2.6-67.8-2.6c-5.1,0-10.2,0-15.3,0
	c-16.4-0.1-33.1-0.7-49.3-1.3c-27.9-1-56.8-2-85.1-0.5c-26.5,1.4-53.1,6-78.8,10.5c-17.8,3.1-36.2,6.3-54.4,8.4
	c-45.9,5.3-91.9,6.4-136.7,3.2l-0.2,3c44.9,3.2,91.1,2.1,137.2-3.2c18.3-2.1,36.7-5.3,54.5-8.4c25.6-4.5,52.1-9.1,78.5-10.5
	c28.2-1.5,57-0.5,84.9,0.5c16.2,0.6,32.9,1.2,49.4,1.3c5.1,0,10.2,0,15.3,0c22.1,0,45,0,67.5,2.6c36.7,4.2,80.7,5.9,123.9,4.9
	c18.4-0.5,37.1-1.1,55.2-1.8c13.6-0.5,27.6-1,41.6-1.4c50.5-1.5,92.8-2,135.4,0.5c34.6,2.1,67.2,7.9,101.7,14
	c8.4,1.5,17.1,3,25.8,4.5c9,1.5,17.3,2.3,24.9,2.3c16.4,0,29.9-3.6,41.5-10.8l-1.6-2.5C1020.9,576.5,1000.5,579.1,972.9,574.4z
	 M574.4,571.2v-3c-3.3,0-5.7,0-8.1,1.2l1.3,2.7C569.4,571.2,571.3,571.2,574.4,571.2z M67.4,523l-0.9-2.8c-1.5,0.5-3.2,0.7-5.1,1
	c-1.9,0.3-3.9,0.6-5.6,1.1l0.9,2.8c1.5-0.5,3.2-0.7,5.1-1C63.7,523.9,65.7,523.6,67.4,523z M276.3,525.2h22.4v-3h-22.4V525.2z
	 M119,525.5l0.7,2.9c6.9-1.5,13.3-4.2,19.4-6.7c2.6-1.1,5-2.1,7.5-3l-1.1-2.8c-2.5,0.9-5.1,2-7.6,3C131.9,521.4,125.7,524,119,525.5
	z M194.9,505.6h-0.2c0,0.2,0,0.3,0,0.5C194.7,505.9,194.8,505.7,194.9,505.6z M402,637.7l0.8,2.9c7-2,14-1.1,20.7,0l0.5-3
	C417,636.5,409.6,635.5,402,637.7z M44.5,263.7v3c18.8,0,38,1.3,56.6,2.5c18.8,1.2,38,2.5,57.2,2.5c14.9,0,29.8-0.8,44.5-2.9
	c10.3-2.1,22.1-4.2,32.8-4.2v-3c-11,0-23,2.2-33.3,4.3c-33.4,4.8-67.8,2.5-101.1,0.3C82.7,265,63.4,263.7,44.5,263.7z M321.1,280.8
	c-0.8,0.1-1.4,0.8-1.3,1.6c0.1,0.8,0.8,1.4,1.6,1.3c24-2.5,46.1-13.4,67.5-24c16.2-8,32.9-16.3,50.3-20.9
	c30-8.5,79.4-3.1,105.2,18.3c13.3,11.1,19.4,25.2,17.8,42.1c-2.6,33.6-39.8,44.3-51.2,46.7c-0.8,0.2-1.3,1-1.1,1.8
	c0.2,0.7,0.8,1.2,1.5,1.2c0.1,0,0.2,0,0.3,0c11.9-2.6,50.8-13.8,53.5-49.4c1.6-17.9-4.8-32.9-18.9-44.7
	c-26.5-22-77.3-27.5-107.9-18.9c-17.7,4.6-34.5,13-50.8,21.1C366.4,267.6,344.5,278.4,321.1,280.8z M169.5,255.2
	c-6.6,0-14,0-20.5,1.1l0.5,3c6.3-1,13.6-1,20-1V255.2z M459,225.1v-3c-4.8,0-10.6,1.5-16.2,3c-4.5,1.2-8.8,2.3-11.6,2.3v3
	c3.2,0,7.6-1.2,12.4-2.4C449,226.5,454.6,225.1,459,225.1z M16.2,349.3c-0.8,0.3-1.2,1.1-0.9,1.9c0.2,0.6,0.8,1,1.4,1
	c0.2,0,0.3,0,0.5-0.1c11.8-4.3,24.4-8.4,36.8-7.4c0.8,0.1,1.6-0.5,1.6-1.4c0.1-0.8-0.5-1.6-1.4-1.6
	C41.3,340.6,28.4,344.9,16.2,349.3z M161.6,337.6c-0.7-0.4-1.6-0.1-2,0.7c-0.4,0.7-0.1,1.6,0.7,2c2.5,1.2,3.8,1.2,6,1.2
	c0.8,0,1.5-0.7,1.5-1.5c0-0.8-0.7-1.5-1.5-1.5C164.2,338.5,163.5,338.5,161.6,337.6z M125.3,336.5c-0.7-0.4-1.6-0.1-2,0.7
	c-0.4,0.7-0.1,1.6,0.7,2c2.3,1.1,4.6,2.3,7.1,2.3c0.8,0,1.5-0.7,1.5-1.5c0-0.8-0.7-1.5-1.5-1.5C129.3,338.5,127.4,337.5,125.3,336.5
	z M629.2,257.3c-4.6-11.7-17.6-19.2-36.5-21.3c-5.4-0.8-11-0.9-16.5-0.9c-9.9-0.1-19.3-0.3-28-4.3l-1.3,2.7
	c9.2,4.3,19.4,4.4,29.2,4.6c5.3,0.1,10.8,0.2,16.1,0.9c17.8,1.9,29.8,8.8,34,19.4c4.4,11.2,0,25.4-12.6,40
	c-6.6,7.1-18.1,13.6-28.3,19.3c-9.8,5.5-18.2,10.2-22,15l2.4,1.8c3.4-4.3,12-9.1,21.1-14.2c10.4-5.8,22.2-12.4,29.1-19.9
	C629.4,284.9,634.1,269.5,629.2,257.3z M583.6,279.1h3c0-10-3.3-22.3-10.4-25.9l-1.3,2.7C580.5,258.7,583.6,270,583.6,279.1z
	 M597.9,252.4l-2.1,2.1l3.2,3.2l2.1-2.1L597.9,252.4z M591.7,295.6c0.5,0,1.1-0.2,1.7-0.6c4.5-3.2,12.4-22.8,12.4-30.8h-3
	c0,8.1-8.6,27.4-11.2,28.5c0,0,0.2,0,0.4,0l-0.9,2.8C591.2,295.6,591.4,295.6,591.7,295.6z M590,273.6l3,0.4l0.1-0.5
	c1.1-8.4,2.1-16.4-4.8-23.2l-2.1,2.1c5.8,5.8,4.9,12.4,3.9,20.7L590,273.6z M371.2,360.8c-4-0.7-8.2-1.5-12.4-1.9
	c-0.8-0.1-1.6,0.5-1.6,1.3c-0.1,0.8,0.5,1.6,1.3,1.6c4.1,0.4,8,1.1,12.2,1.9c6.3,1.2,12.8,2.4,20,2.4c0.8,0,1.5-0.7,1.5-1.5
	c0-0.8-0.7-1.5-1.5-1.5C383.7,363.1,377.3,361.9,371.2,360.8z M610.9,287.3c4.9-8.6,11.1-24.9,2.8-30.8L612,259
	c6.1,4.4,1.2,18.5-3.6,26.9L610.9,287.3z M572.7,244.3c-3.1,0.1-6.1,0.2-9,0.2v3c3,0,6.1-0.1,9.1-0.2c12.4-0.3,25.1-0.7,35.1,4.3
	l1.3-2.7C598.6,243.6,585.5,244,572.7,244.3z M540.8,351.4l1,2.8c3.9-1.4,8-2.9,12-4.3c17-6,34.6-12.1,50.3-22.6l-1.7-2.5
	c-15.3,10.2-32.7,16.3-49.6,22.2C548.8,348.5,544.7,350,540.8,351.4z M610.7,318.2v3c1.6,0,5.1-1.3,7.5-3.6l-2.1-2.1
	C614.2,317.3,611.3,318.2,610.7,318.2z M1024.7,268.3c0.3-2.6,3.5-5.3,9.7-8.1l-1.2-2.7c-7.4,3.3-11,6.6-11.4,10.5
	c-0.6,5.8,6.4,10.9,13.9,16.3l0.4,0.3l1.8-2.4l-0.4-0.3C1030.9,277.2,1024.3,272.3,1024.7,268.3z M655.6,305.8
	c0.3,0.3,0.7,0.4,1.1,0.4c0.4,0,0.8-0.1,1.1-0.4c6.6-6.6,11-14.4,13.2-23.1c0.2-0.8-0.3-1.6-1.1-1.8c-0.8-0.2-1.6,0.3-1.8,1.1
	c-2.1,8.2-6.2,15.6-12.4,21.7C655,304.3,655,305.2,655.6,305.8z M888.7,245.4c-0.3-0.8-1.2-1.1-2-0.8c-27.2,12.3-58.8,6.2-86.7,0.9
	l-4-0.8c-47.7-9-89.5-14.4-127.5-16.3c-0.8,0-1.5,0.6-1.6,1.4c0,0.8,0.6,1.5,1.4,1.6c37.9,1.9,79.5,7.2,127.1,16.2l4,0.8
	c16,3.1,33.2,6.3,50.2,6.3c13.1,0,26.1-1.9,38.3-7.5C888.8,247,889.1,246.1,888.7,245.4z M860.7,241.6c2.2,0,4.4-0.1,6.7-0.5l-0.5-3
	c-4.1,0.7-8.2,0.5-12.5,0.2c-2.1-0.1-4.3-0.2-6.5-0.2v3c2.1,0,4.2,0.1,6.3,0.2C856.3,241.4,858.5,241.6,860.7,241.6z M886.4,240.7
	l-2.6,0c0,1.7,1.3,2.6,2.6,2.6L886.4,240.7z M801.9,234.9v3c7.8,0,23.5,1.1,31.7,3.2l0.7-2.9C825.1,235.8,808.7,234.9,801.9,234.9z
	 M786.2,287.5c11.5-0.2,23.4-0.5,34.2-2.6l-0.6-2.9c-10.6,2.1-22.3,2.4-33.7,2.6c-5.7,0.1-11.7,0.2-17.4,0.6l0.2,3
	C774.6,287.7,780.5,287.6,786.2,287.5z M688.9,241.1c7.1-1.2,14.3,0,21.8,1.3c5.6,0.9,11.4,1.9,17.4,1.9c0.8,0,1.5-0.7,1.5-1.5
	s-0.7-1.5-1.5-1.5c-5.8,0-11.5-1-17-1.9c-7.8-1.3-15.2-2.6-22.8-1.3c-0.8,0.1-1.4,0.9-1.2,1.7C687.3,240.7,688.1,241.2,688.9,241.1z
	 M746.4,246.9c0.9,0.3,1.8,0.6,3.1,0.6c0.8,0,1.5-0.7,1.5-1.5s-0.7-1.5-1.5-1.5c-0.8,0-1.5-0.2-2.2-0.5c-0.9-0.3-1.8-0.6-3.1-0.6
	c-0.8,0-1.5,0.7-1.5,1.5s0.7,1.5,1.5,1.5C745.1,246.4,745.7,246.6,746.4,246.9z M1022.6,251.8c4.9-2.3,9.9-4.6,13.2-8l-2.1-2.1
	c-3,3-7.5,5.1-12.4,7.4c-9.9,4.6-21.1,9.9-17.9,23.9c2.2,9.9,20.9,18.3,31.9,22.4l1.1-2.8c-17.4-6.5-28.7-14.1-30-20.3
	C1003.7,260.7,1012.9,256.4,1022.6,251.8z M643.5,315.8c-1.7,3.5-3.7,6.8-6.6,7.8c-0.8,0.3-1.2,1.1-0.9,1.9c0.2,0.6,0.8,1,1.4,1
	c0.2,0,0.3,0,0.5-0.1c3.7-1.2,6-4.6,8.3-9.3c0.4-0.7,0.1-1.6-0.7-2C644.8,314.8,643.9,315.1,643.5,315.8z M-6.1,251.5
	c0.1,0.8,0.8,1.4,1.6,1.3c40.5-4.3,82-3.2,122.1-2.1c40.2,1.1,81.8,2.1,122.5-2.1c34.4-3.7,68.9-9.8,102.1-15.7
	c61.4-10.8,124.9-22,189.2-18.5c1.7,0.1,3.5,0.2,5.3,0.3c36.8,2.1,98.4,5.7,116.3,40.5c4.5,9.1,5.1,18.6,1.7,28.4
	c-9.1,26-46.2,51-77.9,65.7c-54.1,25.1-115.1,16.7-173,6c-64.2-11.9-123.8-19.5-182.3-23.2c-32.4-2.1-67.4-3.5-110.4-4.5
	c-31.5-0.7-59.4,0.4-85,3.5l-28.8,3.2c-0.8,0.1-1.4,0.8-1.3,1.7c0.1,0.8,0.8,1.4,1.7,1.3l28.9-3.2c25.5-3,53.2-4.2,84.6-3.4
	c42.9,1,77.9,2.4,110.2,4.5c58.4,3.7,117.9,11.3,182,23.2c30.1,5.6,61,10.5,91.5,10.5c28.6,0,56.8-4.4,83.4-16.7
	c15.7-7.3,67.6-33.6,79.5-67.5c3.7-10.5,3.1-20.9-1.9-30.7c-18.7-36.4-81.4-40-118.8-42.2c-1.8-0.1-3.6-0.2-5.3-0.3
	c-64.7-3.5-128.4,7.7-189.9,18.6c-33.2,5.8-67.6,11.9-101.9,15.6c-40.5,4.3-82,3.2-122.1,2.1c-40.2-1.1-81.8-2.1-122.5,2.1
	C-5.6,249.9-6.2,250.7-6.1,251.5z M669.5,324.4c0.1,0,0.3,0,0.4-0.1c3.8-1.1,7.3-2.2,10.7-3.2c3.4-1,6.9-2.1,10.6-3.2
	c0.8-0.2,1.3-1.1,1-1.9c-0.2-0.8-1.1-1.3-1.9-1c-3.8,1.1-7.3,2.2-10.7,3.2c-3.4,1-6.9,2.1-10.7,3.2c-0.8,0.2-1.3,1.1-1,1.9
	C668.2,324,668.8,324.4,669.5,324.4z M428,372.7c-0.8,0-1.5,0.7-1.5,1.5c0,0.8,0.7,1.5,1.5,1.5h4.3c0.8,0,1.5-0.7,1.5-1.5
	c0-0.8-0.7-1.5-1.5-1.5H428z M474,374.2l-1.1,1.1c-0.6,0.6-0.6,1.5,0,2.1c0.3,0.3,0.7,0.4,1.1,0.4c0.4,0,0.8-0.1,1.1-0.4l1.1-1.1
	c0.6-0.6,0.6-1.5,0-2.1C475.5,373.6,474.6,373.6,474,374.2z M993.3,310c11.4,5.6,23.2,11.4,35.9,11.4c3.4,0,6.8-0.4,10.3-1.3
	c0.8-0.2,1.3-1,1.1-1.8c-0.2-0.8-1-1.3-1.8-1.1c-15.7,4.1-30.1-3-44.1-9.9c-3.6-1.8-7-3.5-10.4-5c-13.6-6.3-28.5-8.8-43-11.2
	c-15.6-2.6-31.8-5.3-46.2-12.8c-5.8-3-8.6-6.1-8.2-9.1c1.2-9.6,31.4-19.9,56.8-25.7c2.7-0.6,5.6-1.5,8.8-2.4
	c7.9-2.3,16.9-4.9,23.6-4.3c0.8,0.1,1.6-0.5,1.6-1.4c0.1-0.8-0.5-1.6-1.4-1.6c-7.3-0.7-16.5,2-24.7,4.4c-3.1,0.9-6,1.7-8.6,2.3
	c-13.4,3.1-57.3,14.2-59.1,28.3c-0.6,4.4,2.7,8.5,9.8,12.2c14.9,7.8,31.3,10.5,47.1,13.1c14.2,2.4,29,4.8,42.2,11
	C986.3,306.5,989.7,308.2,993.3,310z M403.5,367.3c-0.8,0-1.5,0.7-1.5,1.5s0.7,1.5,1.5,1.5h7.5c0.8,0,1.5-0.7,1.5-1.5
	s-0.7-1.5-1.5-1.5H403.5z M580.8,294.1l2.1,2.1c1.3-1.3,2.6-3.8,2.6-6.4h-3C582.5,291.5,581.6,293.3,580.8,294.1z M474.9,312
	c0.6,0.3,1.4,0.7,2.3,0.7c0.8,0,1.5-0.7,1.5-1.5c0-0.8-0.7-1.5-1.5-1.5c-0.2,0-0.6-0.2-0.9-0.4c-0.6-0.3-1.4-0.7-2.3-0.7
	c-0.8,0-1.5,0.7-1.5,1.5c0,0.8,0.7,1.5,1.5,1.5C474.2,311.6,474.6,311.8,474.9,312z M491.1,330.8c8.2,0,12.6-3.7,14.9-6.8
	c3.5-4.7,4.4-11.2,2.5-17.5c-3.1-14.2-11.3-22.2-23.2-22.7c-16.3-0.7-34.7,12.8-38.2,24.3c-1.7,5.4,0,10,4.7,12.9
	c0.7,0.4,1.6,0.2,2.1-0.5c0.4-0.7,0.2-1.6-0.5-2.1c-3.5-2.2-4.7-5.3-3.4-9.4c3.2-10.3,20.4-22.9,35.2-22.2
	c10.5,0.4,17.6,7.5,20.4,20.4c0,0,0,0.1,0,0.1c1.6,5.4,0.9,11-2.1,14.9c-2.7,3.7-7.1,5.6-12.5,5.6c-0.8,0-1.5,0.7-1.5,1.5
	C489.6,330.2,490.2,330.8,491.1,330.8z M220.6,283.4c3.2,0,6.5-0.9,9.6-3.1c0.7-0.5,0.8-1.4,0.3-2.1c-0.5-0.7-1.4-0.8-2.1-0.3
	c-7.1,5.1-15.4,1.5-21.9-2.2c-0.7-0.4-1.6-0.2-2,0.6c-0.4,0.7-0.2,1.6,0.6,2C209.7,280.9,215.1,283.4,220.6,283.4z M452,272.7
	c0-0.8-0.7-1.5-1.5-1.5c-2.8,0-4.8,0.7-7.2,1.6c-0.6,0.2-1.2,0.4-1.9,0.6c-0.8,0.3-1.2,1.1-0.9,1.9c0.2,0.6,0.8,1,1.4,1
	c0.2,0,0.3,0,0.5-0.1c0.7-0.2,1.3-0.5,1.9-0.7c2.2-0.8,3.9-1.4,6.2-1.4C451.3,274.2,452,273.5,452,272.7z M467.6,245.6
	c-4.2,0-8.3,0.2-12.7,0.5c-4.5,0.3-9.1,0.6-14.1,0.6c-0.8,0-1.5,0.7-1.5,1.5c0,0.8,0.7,1.5,1.5,1.5c5,0,9.7-0.3,14.2-0.6
	c4.3-0.3,8.4-0.5,12.5-0.5c0.8,0,1.5-0.7,1.5-1.5C469.1,246.2,468.4,245.6,467.6,245.6z M591.8,305.8c5.5-3.9,10.8-7.6,12.7-10.9
	l-2.6-1.5c-1.6,2.7-6.9,6.4-11.9,10c-4.2,3-8.5,6-11.4,8.9l2.1,2.1C583.5,311.6,587.7,308.7,591.8,305.8z M460.5,309.8
	c-0.2-0.8-1-1.3-1.8-1.2c-0.8,0.2-1.3,1-1.2,1.8c1.3,6.4,7.5,8.6,14.9,10.8c0,0,0.1,0,0.1,0c3.2,0.7,5.8,0.9,8.1,0.9
	c7.8,0,10.1-3.4,10.7-5.9c1.7-6.2-4.8-14.4-11-16.5c-5.3-1.8-9.7,0.6-12.1,6.6c-0.3,0.8,0.1,1.6,0.8,1.9c0.8,0.3,1.6-0.1,1.9-0.8
	c1.8-4.4,4.6-6.1,8.3-4.8c5.3,1.8,10.2,8.7,9.1,12.8c-1,3.6-6.5,4.6-15.2,2.8C465.6,316.1,461.3,314.1,460.5,309.8z M478.2,256.7
	c-0.8,0.1-1.4,0.8-1.4,1.6c0.1,0.8,0.8,1.4,1.6,1.4c13.4-1,28.1,7.4,37.3,15.6c0.3,0.3,0.6,0.4,1,0.4c0.4,0,0.8-0.2,1.1-0.5
	c0.6-0.6,0.5-1.6-0.1-2.1C508.1,264.5,492.6,255.6,478.2,256.7z M461.1,270.1c-0.8,0-1.5,0.7-1.4,1.6c0,0.8,0.8,1.5,1.6,1.4
	c19.4-1,35.1,1.6,49,17.6c0.3,0.3,0.7,0.5,1.1,0.5c0.3,0,0.7-0.1,1-0.4c0.6-0.5,0.7-1.5,0.2-2.1
	C496.9,270.8,478.6,269.2,461.1,270.1z M420.2,295.8c-0.8,0.2-1.3,1-1.1,1.8c1.9,7.7,6.7,17.2,13.1,26.1c0.3,0.4,0.8,0.6,1.2,0.6
	c0.3,0,0.6-0.1,0.9-0.3c0.7-0.5,0.8-1.4,0.3-2.1c-6.2-8.6-10.7-17.8-12.6-25.1C421.8,296.1,421,295.6,420.2,295.8z M516,306.5
	c-0.2-0.8-1-1.3-1.8-1.1c-0.8,0.2-1.3,1-1.1,1.8c3.1,11.4-1.1,22.3-11.1,28.2c-15.6,9.3-46.1,2.3-59.5-13.7
	c-5.9-7.1-10.5-18.4,1.6-32.1c0.5-0.6,0.5-1.6-0.1-2.1c-0.6-0.5-1.6-0.5-2.1,0.1c-10.5,12-11,24.7-1.6,36c9.9,11.9,28.1,19,44,19
	c7.2,0,14-1.5,19.3-4.7C514.6,331.5,519.4,319.1,516,306.5z M500.2,352.1c0.8-0.3,1.1-1.2,0.8-2c-0.3-0.8-1.2-1.1-2-0.8
	c-19.2,8.5-44.2-1.6-59.3-14.7c-0.6-0.5-1.6-0.5-2.1,0.2c-0.5,0.6-0.5,1.6,0.2,2.1c11.7,10.1,29.2,18.6,45.7,18.6
	C489.2,355.4,494.9,354.4,500.2,352.1z M386.8,296.3c0.6,0.5,1.2,0.6,2,0.6c0.5,0,1-0.1,1.5-0.1c0.5-0.1,1-0.1,1.5-0.1v-3
	c-0.7,0-1.3,0.1-1.9,0.2c-0.4,0.1-1,0.1-1.2,0.1c0.1,0,0.2,0.1,0.3,0.2h-2.9C385.9,295,386.2,295.8,386.8,296.3z M203.7,293.4
	c4.2,0,8.7-0.1,13-0.3c13.3-0.4,27.1-0.8,38.9,2.3l0.8-2.9c-12.3-3.3-26.3-2.9-39.8-2.4c-4.5,0.1-8.7,0.3-12.9,0.3V293.4z
	 M512.3,337.4c-0.8,0.1-1.4,0.8-1.3,1.7c0.1,0.8,0.7,1.3,1.5,1.3c0.1,0,0.1,0,0.2,0c9.3-1.1,16-6.1,19.5-14.4
	c5.9-14.2,0.7-35.1-7.8-45.7c-0.5-0.6-1.5-0.8-2.1-0.2c-0.6,0.5-0.8,1.5-0.2,2.1c7.9,9.9,12.8,29.5,7.3,42.7
	C526.2,332.3,520.5,336.5,512.3,337.4z M401.5,259.2c-4.2,1.6-9,3.4-13.7,5.8l1.3,2.7c4.6-2.3,9.3-4.1,13.4-5.6
	c1.6-0.6,3.2-1.2,4.7-1.8l-1.1-2.8C404.7,258,403.1,258.6,401.5,259.2z M403.2,293.9c-0.7-0.5-1.6-0.3-2.1,0.4
	c-0.5,0.7-0.3,1.6,0.4,2.1c3.4,2.3,6,5.3,6.9,7.8c0.2,0.6,0.8,1,1.4,1c0.2,0,0.3,0,0.5-0.1c0.8-0.3,1.2-1.1,0.9-1.9
	C410.2,300,407.2,296.6,403.2,293.9z M393.9,275.3c0.8,0,1.5-0.7,1.5-1.5c0-0.8-0.7-1.5-1.5-1.5c-0.7,0-1.4,0.3-2,0.5
	c-0.7,0.3-1.3,0.6-2.3,0.6c-0.8,0-1.5,0.7-1.5,1.5c0,0.8,0.7,1.5,1.5,1.5c1.5,0,2.6-0.5,3.4-0.8
	C393.3,275.4,393.7,275.3,393.9,275.3z M430,276.6c-9.7,0.8-19.6,3.5-29.1,6.1c-3.1,0.9-6.4,1.7-9.6,2.5c-0.8,0.2-1.3,1-1.1,1.8
	c0.2,0.7,0.8,1.1,1.5,1.1c0.1,0,0.2,0,0.4,0c3.2-0.8,6.5-1.7,9.6-2.5c9.4-2.5,19.1-5.2,28.6-6c0.8-0.1,1.4-0.8,1.4-1.6
	C431.6,277.1,430.9,276.5,430,276.6z M360,330c-4.1-0.8-8-1.2-11.7-1.5c-6.4-0.6-12.5-1.1-19-3.7l-1.1,2.8
	c6.9,2.8,13.5,3.4,19.8,3.9c3.7,0.3,7.5,0.7,11.4,1.5L360,330z M288.8,316.9l0.7-2.9c-4.5-1.1-10-1.1-15.6,0l0.6,2.9
	C279.6,315.9,284.7,315.9,288.8,316.9z M262.5,313.9c-18.1,0-36.2,0.5-53.7,1.1c-17.9,0.5-36.4,1.1-55.2,1.1v3
	c18.9,0,37.4-0.5,55.3-1.1c17.5-0.5,35.6-1.1,53.6-1.1V313.9z M491.3,247.7c-0.8-0.1-1.6,0.5-1.7,1.3c-0.1,0.8,0.5,1.6,1.3,1.7
	c14.2,2,39.8,12.5,45.9,22.8c0.3,0.5,0.8,0.7,1.3,0.7c0.3,0,0.5-0.1,0.8-0.2c0.7-0.4,0.9-1.3,0.5-2.1
	C532.5,260.5,505.9,249.8,491.3,247.7z M471.8,225.1c29.8,0,67.8,7.5,85.5,24.2c11.1,10.2,17.2,25.5,16.6,42.1
	c-0.6,18-8.8,34.9-21.9,45.4c-14.8,12.5-35.9,17.4-50.6,20l0.5,3c15-2.6,36.7-7.7,52-20.6c13.8-11,22.4-28.8,23-47.6
	c0.6-17.4-5.8-33.6-17.6-44.4c-18.3-17.3-57.1-25-87.6-25V225.1z M646.3,256.2c-8.3-25-44.1-28.3-70.2-30.6
	c-4.9-0.4-9.5-0.9-13.3-1.4c-6.5-0.8-12.8-1.7-19-2.6c-11.2-1.6-21.8-3.2-33.5-3.8l-0.2,3c11.6,0.7,22.1,2.2,33.2,3.8
	c6.1,0.9,12.5,1.8,19,2.6c3.9,0.5,8.5,1,13.4,1.4c25.3,2.3,59.9,5.4,67.6,28.6c6.1,18.3-6.9,39.9-21,54l2.1,2.1
	C639.4,298.5,652.8,275.8,646.3,256.2z M439.7,350.6c-31.9-28-79.6-31-121.8-33.6c-5.1-0.3-9.9-0.6-14.7-1l-0.2,3
	c4.8,0.3,9.6,0.6,14.8,1c41.7,2.6,88.9,5.5,120,32.9L439.7,350.6z M317.2,335.5c2.3,0.6,4.6,1.1,6.8,1.6c13.4,3.1,26.3,4.2,43,5.4
	l0.1,0c4.8,0,10,1.4,15,2.8c4.9,1.3,10,2.7,14.8,2.7c0.8,0,1.6,0,2.4-0.1l-0.3-3c-4.8,0.5-10.3-0.9-16.1-2.5
	c-5.2-1.4-10.6-2.8-15.8-2.9c-16.5-1.2-29.2-2.3-42.4-5.3c-2.3-0.5-4.5-1.1-6.8-1.6c-20.4-4.9-41.6-10-62-9.1l0.1,3
	C276.1,325.6,297,330.7,317.2,335.5z M387.4,335.7l2.1-2.1c-3.8-3.8-8.9-4.7-13.5-2.4l1.3,2.7C380.9,332.1,384.5,332.8,387.4,335.7z
	 M406.3,269.8c0.1,0.7,0.8,1.2,1.5,1.2c0.1,0,0.2,0,0.3,0c5.1-1,10-3.1,14.6-5c3.9-1.7,8-3.4,12.1-4.4c7.3-1.9,15-2.6,22.5-3.4
	c3.1-0.3,6.3-0.6,9.4-1c0.8-0.1,1.4-0.9,1.3-1.7c-0.1-0.8-0.9-1.4-1.7-1.3c-3.1,0.4-6.2,0.7-9.3,1c-7.6,0.8-15.4,1.5-22.9,3.5
	c-4.3,1.1-8.5,2.9-12.6,4.6c-4.5,1.9-9.2,3.9-14.1,4.9C406.6,268.2,406.1,269,406.3,269.8z M540.2,281.9c-0.8,0-1.5,0.7-1.5,1.5
	c0,0.8,0.7,1.5,1.5,1.5c1.3,0,2.8,1.5,2.8,2.8c0,0.8,0.7,1.5,1.5,1.5c0.8,0,1.5-0.7,1.5-1.5C546,284.7,543.2,281.9,540.2,281.9z
	 M422.7,250.3c-2,2-4.1,3-6.9,3.9l0.9,2.8c3.2-1.1,5.6-2.2,8.1-4.6L422.7,250.3z M544.1,299c-0.7,2.8-1.2,5.7-1.6,8.4
	c-1,5.6-1.9,11-4.6,15.8c-0.4,0.7-0.2,1.6,0.6,2c0.2,0.1,0.5,0.2,0.7,0.2c0.5,0,1-0.3,1.3-0.8c3-5.3,4-11.1,5-16.8
	c0.5-2.7,0.9-5.4,1.6-8.2c0.2-0.8-0.3-1.6-1.1-1.8C545.1,297.8,544.3,298.2,544.1,299z M365.6,292.3c1.7,0.6,3.4,0.9,5,1.1
	c1.6,0.3,3.1,0.5,4.6,1l0.9-2.8c-1.7-0.6-3.4-0.9-5-1.1c-1.6-0.3-3.1-0.5-4.6-1L365.6,292.3z M363.1,283.8l-0.4-3
	c-8.4,1.1-17.2,2.1-25.8,4.3l0.7,2.9C346.1,285.9,354.7,284.9,363.1,283.8z M378.9,280.2c0.6-0.6,0.6-1.5,0-2.1
	c-0.6-0.6-1.5-0.6-2.1,0c-0.7,0.7-3.5,1.7-5.3,1.7c-0.8,0-1.5,0.7-1.5,1.5c0,0.8,0.7,1.5,1.5,1.5
	C373.7,282.8,377.4,281.7,378.9,280.2z M335.8,293.9c-0.1,0.8,0.5,1.6,1.3,1.7c1.7,0.2,3.4,0.5,5.2,0.7c16.1,2.2,34.4,4.8,48.7,11
	c9.7,4.2,16.4,11.2,23.5,18.6c4.3,4.5,8.7,9.1,13.9,13.1c0.3,0.2,0.6,0.3,0.9,0.3c0.4,0,0.9-0.2,1.2-0.6c0.5-0.7,0.4-1.6-0.3-2.1
	c-5-3.9-9.3-8.5-13.5-12.8c-7-7.3-14.2-14.8-24.4-19.3c-14.6-6.4-33.1-9-49.4-11.2c-1.8-0.2-3.5-0.5-5.2-0.7
	C336.6,292.5,335.9,293,335.8,293.9z"/>
</svg>
