<svg id="Icons" xmlns="http://www.w3.org/2000/svg" viewBox="0 0 162.23 233.29"><defs><style>.cls-1{fill:#fff;}.cls-2{fill:#eaecf2;}</style></defs><title>home-og-camping-tablet</title><rect class="cls-1" x="106.79" y="141.03" width="11.14" height="21.19" transform="translate(224.71 303.25) rotate(-180)"/><path class="cls-1" d="M97.78,8.41c-.22-1.78-2.11-4.89-3.73-5.73a2.59,2.59,0,0,0-3.11.44c-.67.72-.61.78.22,1.22a3.84,3.84,0,0,0,.83.39"/><path class="cls-2" d="M98.64,8.7c-.44-2.68-2.71-6.35-5.54-7-1.07-.24-3.2.12-3.44,1.51-.2,1.13,1.67,1.9,2.48,2.17,1.24.41.45-1.09-.28-1.34a4.58,4.58,0,0,1-.48-.22q-.34-.19.13.14a3.37,3.37,0,0,1,1-.79,2.09,2.09,0,0,1,2.38.93,8.54,8.54,0,0,1,2,4c.11.65,1.87,1.51,1.71.58Z"/><path class="cls-1" d="M42.52,173c1-5.95,1.32-11.23-5.62-13.54-5.95-2-11.23.66-12.88,6.61-1.65,6.28-2.31,11.23-5,17.51-2.64,5.95-5.28,12.88-3.3,19.49,4,13.21,26.42,15.85,31,2,2-6.94-.66-13.21-2-19.82-.66-3.63,0-9.58-1.65-12.55"/><path class="cls-2" d="M43.38,173.42c.62-3.88,1.22-8.29-1.56-11.5a12.51,12.51,0,0,0-10.75-3.76c-5.48.84-7.45,5.4-8.62,10.23-.74,3.07-1.38,6.17-2.29,9.2-1.18,3.94-3.05,7.6-4.35,11.49-3.15,9.46-1.25,19.17,8.16,23.75,6.49,3.16,15.51,3.17,20.76-2.37,4.61-4.87,4-11.94,2.61-18a62.91,62.91,0,0,1-2-11.14c-.13-2.92-.13-5.89-1.37-8.59-.28-.61-2.06-1.26-1.59-.23,1.17,2.56,1.1,5.41,1.23,8.16a43.94,43.94,0,0,0,1.33,8.42c1.49,6.16,3.28,13.43-.83,19-5.17,7-16.34,6.85-22.81,1.87-11.68-9-1-24.59,1.63-35.37,1.41-5.7,2-13.94,9.22-15,4.11-.59,8.95,1.35,9.86,5.74.48,2.34,0,4.85-.36,7.17-.11.69,1.6,1.68,1.73.91Z"/><path class="cls-1" d="M36,170.65c-25.1-1-15.14,39.14-1,39.14"/><path class="cls-2" d="M35.48,169.93c-12.08-.26-17,9.74-15.4,20.63,1.11,7.68,6,19.66,15.3,20,1.15,0,0-1.42-.7-1.44-8.73-.28-12.56-12.92-13.11-19.93-.78-10,4.39-18,15-17.76.87,0-.43-1.44-1.08-1.45Z"/><path class="cls-1" d="M60.4,123.35c-6.24,8.81-4.77,29-2.57,38.9,1.47,7,5.51,16.52,5.87,23.12.37,7.34-3.3,13.58-8.44,5.51-3.3-5.51-11-39.27-13.21-45.88-2.2-8.07-1.47-17.62-1.84-26.06,0-2.94-.73-6.61.37-9.54"/><path class="cls-2" d="M59.59,122.76c-5.44,8.17-5,19.78-4.12,29.14a80.57,80.57,0,0,0,3,15.68c1.82,6.11,4.64,12.64,4.38,19.13-.13,3.18-1.45,10.06-6.06,5.3a12.19,12.19,0,0,1-2.13-4.24c-1.43-3.89-2.52-7.92-3.62-11.91-2.39-8.67-4.5-17.42-6.84-26.11a72.8,72.8,0,0,1-2.86-16.49c-.16-4.17-.09-8.35-.2-12.53-.1-3.63-.72-7.35.32-10.88.19-.66-1.5-1.7-1.73-.91-1,3.54-.42,7.26-.32,10.88.12,4.17,0,8.35.2,12.53A67.15,67.15,0,0,0,42.16,148c2.67,9.64,4.94,19.38,7.64,29,1.28,4.57,3.59,18.32,10.36,18.38,4.39,0,4.58-7.36,4.35-10.23-.55-7-3.59-13.68-5.32-20.45a83,83,0,0,1-2.4-20.76c0-6.71.59-14.27,4.41-20,.41-.62-1.22-1.78-1.62-1.18Z"/><path class="cls-1" d="M87.56,126.65c-1.47,10.64-.37,19.45-7.34,29-7.71,9.91-27.53,18.72-40,17.25-5.14-.73-11-7.71-4.77-11.38,4.4-2.57,11.38-2.2,16.15-4,11.74-3.67,12.48-14.31,13.58-23.86"/><path class="cls-2" d="M86.7,126.2c-1.56,12.1-1.3,24.29-11.27,33-8.27,7.23-20,12.41-31,13.06-3.59.21-7.37,0-9.67-3.29-2.58-3.64,0-6.43,3.44-7.72,5.64-2.13,11.85-1.56,17.32-4.4C64,152.42,65.06,142.65,66,134.08c.08-.7-1.64-1.67-1.73-.91-1.09,9.58-2.47,19.78-12.84,23.43-4.77,1.68-23.35,1.78-18.89,11.2,3.44,7.26,12.67,6.43,19.15,5A57.61,57.61,0,0,0,77,160.39c10.05-8.82,9.8-21,11.38-33.28.09-.7-1.63-1.68-1.73-.91Z"/><path class="cls-1" d="M57.36,221.1c-8.23,2.32-18.87,2.59-23.56-4.21-2.81-4.07-3.15-8.19-1.29-12.19,2-4.4,6.66-8.72,8.71-12.37,3.92-7,4.8-14,13.52-16.13,4.8-.87,7.61.71,11,2l.29,1c6.1,4.8,2.66,14.06,3.1,20.6.44,10.46-4.66,18.53-11.82,21.26"/><path class="cls-2" d="M56.82,220.37c-5.2,1.4-11,2.27-16.3.63-8.76-2.74-9.93-12.16-5.26-19,3-4.43,6.46-8.14,8.76-13.05,2-4.16,3.81-8.65,8.13-10.87a13,13,0,0,1,10.28-.56,13.42,13.42,0,0,1,2.64.91c.15.11.13.69.32.87,4.33,4.12,3.53,9.61,3.08,15-.41,4.94.17,9.8-1.45,14.59a18.52,18.52,0,0,1-10.37,11.47c-.69.29.74,1.64,1.4,1.36a18.49,18.49,0,0,0,9.61-9.25c2.38-5,2.12-9.86,2.38-15.19.33-6.84,1.85-15.08-4.4-19.79-3.39-2.55-9.53-2.93-13.34-1.5-4.61,1.73-7,5.54-9,9.81-2.55,5.4-5.8,9.6-9.26,14.43-3,4.25-4.66,9-2.41,14,4.56,10.18,17.08,10,26.28,7.5.93-.25-.44-1.62-1.08-1.45Z"/><path class="cls-1" d="M64.19,183.6c5.23,9.16,1.74,25.29-6.54,32.26-7,5.23-15.7,4.8-21.36-1.74A16.27,16.27,0,0,1,32.54,205"/><path class="cls-2" d="M63.4,183.49c4.4,8.26,2.49,19.45-2.47,27.05-2.79,4.28-7.07,7.57-12.29,8.09-8.19.81-14.39-5.47-15.25-13.33-.07-.66-1.82-1.53-1.71-.58,1.4,12.84,16.2,20.16,26.73,11.78,8.89-7.07,11.85-22.89,6.58-32.79-.31-.58-2.12-1.22-1.59-.23Z"/><path class="cls-1" d="M62.36,187.58c2-3.3,5.62-2.2,5-7.16-.66-6.28-12.55-6.94-17.51-6.28-3.63.66-5.95,1.65-5.95,5,0,1.32,2.31,5.45,3,6.11,1,.84.58.83,6.94,1.07C55.38,186.35,62.36,187.58,62.36,187.58Z"/><path class="cls-2" d="M63.17,188.17c1.76-2.48,5-2.89,5.08-6.34a6.79,6.79,0,0,0-3.47-5.91c-4.71-3-13.81-4.08-18.94-1.55-4.71,2.32-2.5,9.53,1.37,11.8,2,1.18,4.95.66,7.13.85,2.81.24,5.6.79,8.38,1.28,1.11.19,0-1.32-.7-1.44a87.14,87.14,0,0,0-11.07-1.39c-2.17-.1-3.18.18-4.37-1.73-1.52-2.43-2.79-5.26-.28-7.43,3.34-2.89,11-1.82,14.87-.74,3,.85,7.39,3.94,4.81,7.59-1.12,1.59-3.22,2.17-4.4,3.83C61.13,187.59,62.75,188.77,63.17,188.17Z"/><path class="cls-1" d="M45.72,172.89c1.1,2.57,1.24.86,4.16,1.32,3.92.61,5.63,5.44,2.45,6.42C48,182,40.59,182.1,36.55,179.53c-6.24-3.67-.24-6.24,0-8.44A20.52,20.52,0,0,0,45.72,172.89Z"/><path class="cls-2" d="M44.93,172.78c.59,1.26,1.27,2.21,2.73,2.29.43,0,.88-.2,1.31-.2,1.55,0,4.4,1.41,4.14,3.35s-2.81,2.13-4.42,2.36c-3.51.51-10.09.86-12.77-2.08-2.93-3.21.79-4.12,1.48-7l-.72.21a21.73,21.73,0,0,0,9.58,1.86c.91-.08-.42-1.51-1.08-1.45a19.88,19.88,0,0,1-8.77-1.74c-.25-.1-.65-.11-.72.21-.75,3.06-4.62,4.4-1.57,7.69,3.19,3.44,8.61,4.13,13,3.94,2.78-.12,8.79-.34,7.5-4.59a6.26,6.26,0,0,0-3.24-3.59c-1.07-.53-4.53-.32-4.89-1.09C46.23,172.4,44.45,171.75,44.93,172.78Z"/><path class="cls-1" d="M54.68,66.35c-6.45,2.89-13.12,2.89-17.35-4.45-2.45-4.45-1.78-8-7.56-9.34-4.89-1.33-8.23.44-12.68,3.11C8.2,61,2.86,66.79,1.52,77.47.41,85.26-.26,96.82,7.75,101.27c5.56,2.89,12.68,4.67,18.91,6,3.78.67,10.9,2.45,14,.44"/><path class="cls-2" d="M54,65.67c-7.12,3-13.63,1.78-16.92-5.94-1.25-2.93-2.08-5.53-5.1-7-8.19-4.06-17.59,2.55-23.38,8C2,67,.11,75.83,0,84.65c-.1,8,2.31,14.89,10,18.29a83.19,83.19,0,0,0,17.47,5.14c4.28.85,9.8,2.45,13.93.33.69-.36-.77-1.69-1.4-1.36-4.75,2.44-12.57-.17-17.49-1.34-6.51-1.55-15.82-3.21-19-9.86-4-8.36-1.94-22.48,3.22-29.9C9.81,61.49,14.34,58.31,19,55.65c3.06-1.76,6.2-3.23,9.85-2.66,4.59.71,5.33,3.48,6.83,7C39.34,68.47,47.21,70.49,55.38,67c.69-.29-.74-1.64-1.4-1.36Z"/><path class="cls-1" d="M45.57,72c2.89,4.67.33,8-.33,13.51-.67,5.12-4.32,10-8.51,13.51-3,2.5-8.38,4.8-9.68,5.51,5.51,3,17.91-5.06,21-12.4,3.56-8.67,2.61-18.18-3.39-24.86Z"/><path class="cls-2" d="M44.77,71.85c2,3.68.86,6.79.05,10.56-.86,4-1.57,7.47-4.08,10.88-3.78,5.15-8.9,7.68-14.4,10.51-.59.3.33,1.12.61,1.25,7.17,3.26,16.48-4.08,20.34-9.62,5.9-8.47,4.55-20.64-1.95-28.28-.21-.25-1.72-1.19-1.53-.22l.89,4.73c.12.65,1.89,1.5,1.71.58l-.89-4.73L44,67.31a23,23,0,0,1,2.21,26.17c-3,5-12.63,13.37-19.07,10.44l.61,1.25c6.4-3.3,12.25-6.33,16-12.82,2-3.41,2.3-7,3.21-10.79.86-3.52,1.13-6.22-.62-9.48C46,71.5,44.24,70.86,44.77,71.85Z"/><path class="cls-1" d="M24.88,108.83c2.45,2.67,8.67,3.56,8.45-1.78,0-3.34-2.89-2.67-5.56-2.67"/><path class="cls-2" d="M24.36,109.09c2,2.1,7.28,4.26,9.28.94a4.6,4.6,0,0,0-.49-5.28c-1.57-1.51-4-1.11-5.92-1.09-.88,0,.42,1.46,1.08,1.45,1.15,0,3.61-.56,4.08.77a3.73,3.73,0,0,1-1,3.72c-1.75,1.39-4.61.4-6-1-.68-.7-2-.45-1,.51Z"/><path class="cls-1" d="M17.76,107.72c1.56,2.67,7.34,2.45,9.34.22,4.45-4.89-2-6.23-5.78-6.23"/><path class="cls-2" d="M17.08,107.79c2.69,4,10.15,3.34,12.07-1.07,2-4.59-5.5-5.7-8.37-5.73-.87,0,.42,1.44,1.08,1.45,2.35,0,7.44.41,5.25,3.87-1.49,2.35-6.76,4.19-8.68,1.34-.43-.65-2.08-.94-1.36.15Z"/><path class="cls-1" d="M8.2,106.39c3.34,2.45,9.79,4.67,12.9.44,2-2.67,1.78-8.45-2.67-7.79-2.67.22-3.56,3.78-6.67,2"/><path class="cls-2" d="M7.89,106.82c4.52,3.17,13.82,5.54,15.18-2.22.39-2.21-.26-4.67-2.34-5.8a4.69,4.69,0,0,0-3.46-.36c-1.87.53-3.21,3.09-5.42,2-1.21-.58-1.06.72-.17,1.14a3.87,3.87,0,0,0,4.49-.29c.87-.61,1.68-1.48,2.81-1.55,2.07-.13,2.6,1.68,2.43,3.42-.68,7-8.74,5.68-12.9,2.76-1-.69-1.62.16-.62.86Z"/><path class="cls-1" d="M3.53,100.6c-3.11,5.56,4.23,11.34,8.23,5.34,5.34-7.79-2.67-11.12-8-5.34"/><path class="cls-2" d="M2.72,100a6.2,6.2,0,0,0,2.44,8.35c3.5,2.07,6.68-.08,8.32-3.37,1.36-2.72,1.22-5.94-1.76-7.44s-6.58.17-8.78,2.46c-.48.5,1.09,1.73,1.62,1.18,1.54-1.6,3.88-3.15,6.23-2.72,2.6.48,1.92,3.62,1.07,5.35-1.05,2.13-3.19,4.77-5.89,3.73s-2.73-4.25-1.64-6.36c.35-.68-1.3-1.79-1.62-1.18Z"/><path class="cls-1" d="M16.2,73.8c-.33,1.5-2.84,2.67-3,4.17a2.61,2.61,0,0,0,1.33,2.5c1.67.67,1.67-.83,2.67-1.84A10.13,10.13,0,0,0,21,73.47c.67-2,1.95-5.56-.72-5.89C18,65.24,13.37,70,12.53,71,10.2,73.63,9.7,75.3,8.7,78.81c-.67,2.5-2,6.84.17,9.18,3,3.34,6.17-.33,8-2.17,2.34-2.5,4.84-3.67,6.34-6.84.83-1.5,1.17-2.84,1.84-4.17a8.74,8.74,0,0,0,1.67-4.34c.5-4.34,1.17-13-5.34-12.51"/><path class="cls-2" d="M15.39,73.21c-1.11,2.46-5.41,5.3-1.17,7.69a2.44,2.44,0,0,0,2.38.18c.57-.28,1-1.42,1.41-1.86a20.52,20.52,0,0,0,2.88-3.05c1.38-2.27,3.14-6.57.69-8.64-2.14-1.81-4.58-1.47-6.77,0a17.29,17.29,0,0,0-6.62,9.54c-1,3.45-2.59,8.06.16,11.12,2.57,2.86,5.6,1.71,8.08-.59,1.83-1.7,3.82-3.38,5.54-5.19,2.13-2.24,3.27-5.43,4.54-8.19,2.54-5.48,2.67-17.14-5.68-17-.88,0,.42,1.46,1.08,1.45,1.71,0,3.54,1.95,3.89,3.43a12.48,12.48,0,0,1,.25,1.57,23.9,23.9,0,0,1,0,4.25c-.24,3.41-1.69,6.29-3.11,9.36-1.58,3.41-4.27,5.37-6.88,7.94-1.61,1.59-5.68,6.26-7.46.51-.46-1.49.27-3.78.63-5.23.84-3.36,1.9-6.48,4.24-9.1,1.31-1.46,4.49-4.75,6.65-3.33,2.33,1.52-.62,6.8-1.77,8.15-.28.33-2.82,3.11-2.85,3.1-1.13-.16-.29-2.41-.05-2.85.45-.81,1.16-1.19,1.56-2.09.32-.7-1.35-1.79-1.62-1.18Z"/><path class="cls-1" d="M111.46,43.61c6.67-.83,1.84-12.68.67-15.85A46,46,0,0,0,93.15,5C88.9,2.54,83-.19,77.93.89a24.3,24.3,0,0,0-7,2.72,7.58,7.58,0,0,0-2.67,2.16c-.66,1.15-.06,2.36-1,3.27,1.25-.22-1.69,2.38-1,1.36-2.4,2.12.75,0-1.54,2.37-1.2,1.23-3,3.38-3,5.13.1,2.28,2.29,1.47,4,1.3,5.88-.59,11.5.88,17.22,1.71a35.85,35.85,0,0,1,9.27,2.21,34.94,34.94,0,0,1,4,2.09c1,.57,2.91,2.22,4,2a20.65,20.65,0,0,0,1-11.11,15.16,15.16,0,0,0-2.17-4.84C94.83,4.21,85,0,76.93,1.4c-7.67,1.33-12,7.51-16,13.85-1,1.67-4.34,6.51-1.5,7.67Z"/><path class="cls-2" d="M112,44.33c11.29-2.26-4.16-26.48-7.22-30.06C99.75,8.37,93.15,3.36,85.7,1A16.61,16.61,0,0,0,75.44.68a21.56,21.56,0,0,0-6.19,2.85c-2.17,1.53-1.57,2.58-2.78,4.93-.31.59.67,1.24,1.16,1.31l.29,0L66.7,8.63a2.35,2.35,0,0,1-1.09,1.28L67,11.22l.09-.23c.29-.69-1.06-1.7-1.62-1.18-.29.27-1,.7-1,1.2s.57,1,1,1.12c-1.44-.41-.45-.55-1.87.4A7.56,7.56,0,0,0,61.67,15c-.61,1.09-1.15,2.45-.51,3.67C62.33,20.92,65.11,20,67,19.88c6.24-.49,12.91,1.06,19,2.18a29.42,29.42,0,0,1,10.59,4c1.29.81,2.4,1.7,4,1.85.24,0,.43,0,.51-.27,2.2-7.06,1.58-13.63-3.46-19.27A24.89,24.89,0,0,0,82.57.61,18.69,18.69,0,0,0,66.34,6.26a48.76,48.76,0,0,0-6.23,8.4c-1.05,1.69-2.74,3.92-2.65,6,.15,3.71,7.9,5.22,10.51,6.26L93.56,37.1l18,7.17c1.21.48.43-1.06-.28-1.34L69.12,26.17a84.11,84.11,0,0,1-8.42-3.35c-.27-.14-1.23-.29-1.42-.56C58,20.41,62,15.32,63,13.84,67.66,6.8,73.64,1,82.72,2,93.17,3,102.31,11.7,100.46,22.68a9.5,9.5,0,0,1-.64,2.72c-1.29,1.41-2,.15-3.23-.62a31,31,0,0,0-5.15-2.58c-4.17-1.6-8.73-2-13.1-2.71a77.58,77.58,0,0,0-7.85-1.06c-1.84-.12-4.47.56-6.16.17-.92-.21-1.35,1.1-1.6-1.14-.11-1,1.49-2.62,2.16-3.41.54-.64,1.6-1.28,1.55-2.21,0-.44-.65-.83-1-1l-.26-.08,1,1.12a3.22,3.22,0,0,1,.89-.93L65.44,9.82l-.09.23c-.25.61.77,1.46,1.35,1.31a2.53,2.53,0,0,0,1.73-1.82c0-.58-.7-1.1-1.22-1.17l-.29,0,1.16,1.31c1-1.87.56-3,2.56-4.74A15.59,15.59,0,0,1,75,2.66,16,16,0,0,1,86.58,2.5C94,5,100.35,10.3,105,16.41c2.3,3,15.21,24.6,5.87,26.47C110,43.07,111.34,44.46,112,44.33Z"/><path class="cls-1" d="M81.93,1c2.28.06,5.12,1.22,7.17,2.17a26.23,26.23,0,0,1,7.4,4.62,15.32,15.32,0,0,1,4.23,15.4,10.94,10.94,0,0,1-.33,1.95c-.11.28-.33,1.89-.61,2-.5.28-3.39-2.34-4-2.61-2.78-1.33-5.34-2.72-8.4-3.34-7.56-1.5-15.29-1.56-22.91-2.5-1.22-.17-3.17-.56-2.78-2.22.22-.83,1.17-1.11,1.56-1.78a4.77,4.77,0,0,0,.28-1.5c.22-1.33,1.22-2.61,1.84-3.84.78-1.45,2.06-2.06,3.06-3.28a6.53,6.53,0,0,1,3.17-2.56c1.33-.5,1.11-.72,3.73-1.78A17.65,17.65,0,0,1,81.93,1Z"/><path class="cls-2" d="M82.28,1.73c5.32.52,11.92,3.73,15.21,8s3.45,9.58,2.14,14.5c-.44,1.63-.22,2-1.82,1.16-.88-.45-1.65-1.21-2.54-1.7A34.17,34.17,0,0,0,84,19.95c-5.07-.78-10.19-1-15.29-1.49a15.46,15.46,0,0,1-3.82-.39q-1.53.1-2-1.69l.61-.52a28.78,28.78,0,0,1,1.58-4A18.38,18.38,0,0,1,82.28,1.73c1.14.08,0-1.39-.7-1.44-4.4-.3-9.6,1-12.94,4-2.2,2-4.69,4.57-5.68,7.45a13.12,13.12,0,0,1-.71,2.34c-.37.67-1.14,1.06-1.37,1.8A1.94,1.94,0,0,0,61,17.4c.72,1.65,3,1.9,4.55,2.1,4.82.64,9.7.8,14.54,1.31,5.39.57,10.84,1.43,15.57,4.29,1.39.84,2.71,2.64,4.44,2.76.14,0,.37,0,.46-.13,1.3-2.11,1.53-5.95,1.55-8.3a15.82,15.82,0,0,0-2.58-8.87C95.9,5,88.11.92,81.58.29,80.44.18,81.61,1.66,82.28,1.73Z"/><path class="cls-1" d="M103.29,31.21c-1.55-1.8-3.14-3.53-4.79-5.22-4.75-4.88-10-9.45-15.9-14.53C70.76,1.61,52.07-1.06,37.72,4.11c-3.34,1.17-5.51,3.5-4.84,7.34.67,3.67,5.17,5.51,8.34,7,6.51,2.84,14.18,6.51,21.19,4.67,6.84-2,13.58-1.08,21-.38,4.31.41,13.07,4,16.24,6.88,2.84,2.5,6.67,5.69,9.34,8.36C110.29,39.32,105.36,33.62,103.29,31.21Z"/><path class="cls-2" d="M104,31.13A158.42,158.42,0,0,0,89.37,16.61c-4.55-4-9-8.07-14.52-10.77A50.13,50.13,0,0,0,41.61,2.07c-4.07,1-9.34,2.33-9.68,7.31-.28,4.12,3.17,6.61,6.43,8.31,5.24,2.74,11.16,5.39,17,6.34a22.54,22.54,0,0,0,8.94-.55,42.92,42.92,0,0,1,12.21-.68c7.21.47,13.84,1.7,20.17,5.43,3.34,2,6.22,4.9,9.08,7.5,1,.91,2.28,2.87,3.75,3.15.6.12.56-.45.33-.79a87.35,87.35,0,0,0-5.89-7c-.49-.57-2.2-.84-1.36.15a87.25,87.25,0,0,1,5.89,7l.33-.79q1.43.76-.19-.54-.9-.86-1.83-1.69c-1.29-1.17-2.61-2.3-3.92-3.44a43.62,43.62,0,0,0-5.2-4.18,38.89,38.89,0,0,0-13.91-5.47C77.14,21,69.85,20.63,63.24,22c-8.56,1.83-16.11-1.26-23.76-5-3.9-1.92-8.27-6.26-4.29-10.34C37.52,4.3,41.89,3.61,45,3a49.17,49.17,0,0,1,21,.76c7.63,2,13.71,5.79,19.61,10.91a169.92,169.92,0,0,1,17,16.58C103.1,31.84,104.82,32.11,104,31.13Z"/><path class="cls-1" d="M98.17,27.65c10.9,8.93,15.13,11.68,15,30.47-.05,8.9,0,16.24,1.78,25.13,1.33,5.56.44,9.79-1.78,15.35-1.33,3.11-3.78,5.78-4.89,9.12-.89,2.45-.89,4.89-2.89,7.12-3.78,4.67-7.34,9.79-11.34,14.46-3.56,4.23-6,8.23-11.34,9.56-9.12,2.22-17.57.89-26-3.56-7.78-4-17.79-13.79-20.24-22.47-2.22-8.23,1.34-19.58,5.12-26.92,2.22-4.67,4-18.68,5.78-23.36C49.13,58.12,50.06,58,50.46,53c.89-11.12,1.55-12.59,4.67-22.24C57.58,23.2,68.7,18.3,78.6,20.42,78.6,20.42,90.16,21.09,98.17,27.65Z"/><path class="cls-2" d="M97.86,28.08c6.11,5,11.92,9.53,13.58,17.66,2.19,10.74.31,22,1.92,32.89,1,6.52,1.92,11.82-.51,18.16-1.18,3.08-3.2,5.6-4.61,8.54-1.19,2.49-1.39,5.42-2.8,7.8-3,5.08-7.5,9.94-11.28,14.5S87,137.11,80.81,138.44C68,141.17,55.4,135.87,46.36,126.88c-4.06-4-8.1-9.11-9.32-14.85-1.17-5.53.06-11.55,1.75-16.85,1.34-4.21,3.64-8,4.82-12.25s1.9-8.55,2.79-12.82a65.18,65.18,0,0,1,3.82-11.53c1.68-4.14,1.3-9,2-13.38a69.52,69.52,0,0,1,3.8-14c2.13-5.63,7.75-8.82,13.39-10,9.1-2,21.34,1.36,28.47,6.91,1,.74,1.58-.12.62-.86-6.68-5.19-15.33-7.48-23.7-8a24.18,24.18,0,0,0-14.24,3.54c-4.48,2.86-6,6.72-7.59,11.57a68.44,68.44,0,0,0-3,14.14c-.28,2.74-.22,5.67-1.11,8.3-.76,2.23-2,4.24-2.75,6.5C44.6,68,44,73,42.9,77.88c-1.11,5-3.26,9.26-5,14-2,5.44-3.45,11.45-2.88,17.28.51,5.26,3.22,9.9,6.48,13.95,6.91,8.58,16.66,15.29,27.67,17.07,5.39.87,12.08.85,17-1.72,5.11-2.65,8.82-8.6,12.27-13,2.18-2.78,4.27-5.63,6.45-8.41s2.93-4.95,4.05-8.28c1.17-3.49,3.56-6.26,5-9.6a28.05,28.05,0,0,0,2.41-9c.25-3.49-.69-6.81-1.22-10.23a99.77,99.77,0,0,1-1.09-12.86c-.17-6.61.38-13.32-.78-19.87-1.62-9.2-7.95-14.35-14.83-20C97.54,26.45,96.93,27.32,97.86,28.08Z"/><path class="cls-1" d="M125.19,89.7a12,12,0,0,0-14-14.68C93.39,78.36,86.55,95,75.59,99c-7.77,2.84-12.9,1.39-13.79,3.39-1.33,2.89,8.9,2.89,10.68,2.67a38.27,38.27,0,0,0,12.9-4.23,170.39,170.39,0,0,0,21.35-12.23c3.34-2,6.9-3.56,10.9-3.11,3.56.44,4.67,3.34,7.78,4.67"/><path class="cls-2" d="M126.06,90.16A13.44,13.44,0,0,0,110.64,74.3c-10.89,1.81-18.35,9.8-25.93,17.06-4.28,4.09-8.45,7-14.35,8.23-1.82.37-9.24-.07-9.54,2.76-.6,5.7,15.36,3,17.66,2.29,8-2.45,15.65-7,22.75-11.4,3.5-2.16,6.88-4.84,10.8-6.22s6.85-.75,10.26,1.7a23.24,23.24,0,0,0,3,2c1.19.61,1-.7.17-1.14-3.6-1.85-5.36-4.88-9.73-4.9-5.82,0-10.63,3.89-15.32,6.81-8.89,5.52-20,12.94-30.78,12.93-1.65,0-4,.14-5.55-.5-3.11-1.28.58-2,2.12-2.15,4.41-.52,8.91-1.16,12.83-3.41,6.77-3.89,11.5-10.65,17.59-15.44,4.35-3.42,9.54-6.3,15.07-7.17,8.29-1.31,14.06,5.54,12.61,13.5-.13.69,1.58,1.69,1.73.91Z"/><path class="cls-1" d="M45.4,67.29c-.63,2.82.47,8.77,1.08,11.6,1,4.34,3.12,8.71,5,12.55a31.5,31.5,0,0,0,2.33,4.22c.87,1.09,2.56,2.37,2.8,3.69-3.41,3.09-9.3-6.6-10.49-8.88a46,46,0,0,1-3.87-13c-.5-2.85-.9-10.31,3.21-10.7"/><path class="cls-2" d="M44.53,66.84c-.81,5,.59,11,2.28,15.75a83.27,83.27,0,0,0,4.44,9.83,21.63,21.63,0,0,0,1.91,3.32c.76,1,3.91,3.37,1.15,3.09-4.9-.5-8.66-10.66-9.73-14.43-1-3.56-4.44-15.64,1.45-16.88.93-.2-.43-1.59-1.08-1.45-8.24,1.75-1.85,19.65.11,23.68,1.54,3.16,7.48,13.72,12.27,10.29.22-.16.18-.34.1-.57-.83-2.2-2.86-3.7-4-5.74a72.76,72.76,0,0,1-4.21-8.89c-2-5-3.79-11.67-2.92-17.08.11-.69-1.6-1.68-1.73-.91Z"/><path class="cls-1" d="M61.91,103.38c.22,2.89,3.67,3.23,4.89,5.45s1.89,8.23-1.22,9.12c.78-4.45-1.33-4.23-4.78-5.45a4.25,4.25,0,0,1-2.22-6.34"/><path class="cls-2" d="M61.06,103.09c.53,3,3.27,3.3,4.8,5.52s1.93,7.49-1,8.66l1.56,1.13c.26-1.86.23-3.59-1.37-4.81a7.83,7.83,0,0,0-2.25-1.06c-2.68-.94-5-2.83-3.44-5.78.36-.67-1.29-1.79-1.62-1.18A5,5,0,0,0,59,112a9,9,0,0,0,3.29,1.57c2.29.73,2.84,1.34,2.47,3.9-.09.65,1,1.36,1.56,1.13,2.76-1.11,2.6-4.88,2.1-7.31a7.29,7.29,0,0,0-1.32-3.17c-1.31-1.63-3.88-2.2-4.28-4.47-.12-.65-1.88-1.5-1.71-.58Z"/><path class="cls-1" d="M57.58,106.16c-2.34,0-2.34,2.67-3.56,4.11-1.89,2.34-5.56.56-7.23,3.23,2.22-2.78-1.22-6.45,1-9.12,2.56-3.23,5.67.67,8.34-.67"/><path class="cls-2" d="M57,105.44c-2.71.25-2.47,3.06-4.16,4.55-2,1.8-5.11.52-6.89,2.92l1.62,1.18c1.93-2.85-.95-6.19.84-8.89,2-3,5.6.29,8.39-.8.69-.27-.73-1.62-1.4-1.36-2.84,1.12-5.67-2.27-8.24.52S48,110,46,112.92c-.41.61,1.18,1.77,1.62,1.18,1.63-2.19,4.51-1.11,6.54-2.59,1.69-1.23,1.61-4.4,4-4.62.91-.08-.42-1.51-1.08-1.45Z"/><path class="cls-1" d="M64.36,100.94c-.5-2.34-2.89-3.67-5.34-1.11.44-2.78-4.78-2.67-5.78-1.56-1.78,2-.33,5.12,1,7,3.56,5,7.84,1,9.18-3.11l.33-1"/><path class="cls-2" d="M65.22,101.23c-1-3.5-4.34-4.44-7-2l1.67,1c.16-2.42-2.44-3.46-4.5-3.47-3.33,0-4.47,2.56-3.4,5.58.92,2.6,3.12,5.75,6.14,5.92,3.65.21,5.53-3.83,6.48-6.7.21-.64-1.46-1.7-1.73-.91-1.19,3.57-5.15,9.38-8.46,3.73-.87-1.49-1.92-4.14-.37-5.58.74-.69,4.22-1.17,4.11.52,0,.64,1.12,1.55,1.67,1,1-.93,2.93-2.32,3.67.23.18.63,2,1.45,1.71.58Z"/><path class="cls-2" d="M89.39,78c-10.15,2.61-22.92-1.16-31.33-7.25,5.51,7.83-9.86,19.15,4.06,23.79,12.77,4.35,16-7.21,20.6-15.62"/><path class="cls-2" d="M88.85,77.28c-10.51,2.44-21.79-.87-30.48-7-.57-.4-1.54-.38-1,.5,3.08,4.94-1.36,10.45-2,15.42-.57,4.22,2,7,5.7,8.52,4.58,1.91,9.79,2.2,13.74-1.18C79,90,81,84.26,83.53,79.51c.36-.67-1.29-1.79-1.62-1.18-2.1,3.88-3.76,8.12-6.47,11.63a11.6,11.6,0,0,1-16,2.77c-4.59-3.13-1.57-8.43-.27-12.54,1.06-3.35,1.45-6.44-.47-9.52l-1,.5c9.15,6.41,21.08,10.12,32.19,7.55.93-.22-.43-1.6-1.08-1.45Z"/><path class="cls-1" d="M74.15,91.6c-2.67-2.11-7.34-2.56-10-.33,2.78-1.33-1.89-2.89-4-2.89-3.92,0-3.89,2.22-1.89,3.89a15.66,15.66,0,0,0,9.23,2.56c.78-.11,7.12-1.89,6.56-2.89-.11-.11-.22,0-.33-.11"/><path class="cls-2" d="M74.46,91.17c-3.23-2.28-7.65-3-11-.59-.67.48.82,1.72,1.4,1.36,5.42-3.35-14-7.29-7.77-.07C59.4,94.57,64.58,96,68,95.54c1.45-.2,7.14-1.39,6.88-3.32-.06-.44-.62-.83-1-1l-.33-.11c-1.24-.41-.45,1.09.28,1.34l.33.11-1-1c.15,1.09-6,2.47-6.93,2.51-1.66.07-9-1.14-8.46-3.79.25-1.29,2.36-1.31,3.27-1.24.55,0,4,.47,2.38,1.46l1.4,1.36a7.7,7.7,0,0,1,9,.08c1,.69,1.62-.16.62-.86Z"/><path class="cls-1" d="M73.26,73.69C68.36,74,61.14,69,59,64.9"/><path class="cls-2" d="M72.72,73c-4.93.11-10.54-3.73-12.9-7.95-.32-.57-2.13-1.2-1.59-.23,2.88,5.14,9.55,9.76,15.57,9.62.89,0-.42-1.46-1.08-1.45Z"/><path class="cls-1" d="M83.71,40.88c8,.67,13.35,19.13,6.12,23.24-3.56,2.11-13.12.22-15.24-3.45C72.26,56.56,75.7,49.56,77.48,46a10.59,10.59,0,0,1,4.23-4.34c.67-.33,3-1,3-.33"/><path class="cls-2" d="M84.06,41.6c7.7,1.09,12.59,19.49,3.88,22.31-2.56.83-5.73.33-8.24-.49-4-1.3-5.56-4-4.75-8.21a30.15,30.15,0,0,1,3-7.87c.68-1.33,5.2-6.86,6.28-5.76.68.7,2,.45,1-.51-1.79-1.83-4.79,0-6.28,1.4-3.16,2.86-5.41,8.73-5.9,12.91-.86,7.35,6.48,10.28,12.77,10.35,14.09.16,8.43-24-2.45-25.57-1.12-.16,0,1.34.7,1.44Z"/><path class="cls-1" d="M62.14,36.54c5.95,2.06,6,9,6.12,11.57.11,4.11,0,12.34-6.12,10.79a12.2,12.2,0,0,1-5.39-2.28c-3.34-2.34-3.17-5.17-2.5-7.84s1.61-10,5.34-12.23C60.13,36.21,60.49,36,62.14,36.54Z"/><path class="cls-2" d="M62.28,37.21c4.55,1.88,5.06,6.85,5.13,11.09,0,2.86.21,7.68-2.5,9.46-3,2-7.45-1-9-3.34s-1-4.13-.46-6.73c.68-3.08,2.12-11.82,6.83-10.49,1.26.36.47-1.12-.28-1.34-6.17-1.74-7.58,7.66-8.49,11.91-.58,2.72-.85,5.15,1,7.46a13.35,13.35,0,0,0,8.44,4.45c6.23.8,6.34-7,6.18-11.37C68.92,42.9,67.33,38.08,62,35.88,60.8,35.38,61.58,36.92,62.28,37.21Z"/><ellipse class="cls-2" cx="85.27" cy="52.67" rx="4" ry="5.45"/><path class="cls-2" d="M85.27,58.45c-2.39,0-4.34-2.59-4.34-5.78s1.95-5.78,4.34-5.78,4.34,2.59,4.34,5.78S87.66,58.45,85.27,58.45Zm0-10.9c-2,0-3.67,2.29-3.67,5.12s1.65,5.12,3.67,5.12,3.67-2.29,3.67-5.12S87.29,47.55,85.27,47.55Z"/><ellipse class="cls-2" cx="62.3" cy="47.39" rx="3.61" ry="4.92"/><path class="cls-2" d="M62.3,52.64c-2.18,0-3.95-2.36-3.95-5.25s1.77-5.25,3.95-5.25,3.95,2.36,3.95,5.25S64.48,52.64,62.3,52.64Zm0-9.84c-1.81,0-3.28,2.06-3.28,4.58S60.49,52,62.3,52s3.28-2.06,3.28-4.58S64.11,42.8,62.3,42.8Z"/><path class="cls-2" d="M98.06,40.86c-.44-1.8-3.11-3.7-4.78-4.8s-4.67-1.5-6.23-2.7c-1-.7-.78-1.3-.78-2.4a8.16,8.16,0,0,0-.78-2.8c-1-3.1,3.56.47,5.34,1.07,3.45,1.4,6.9,3.6,8.34,6.81.22.8,1.11,5.44-.78,4.14Z"/><path class="cls-2" d="M98.85,41c-.9-2.4-3.35-4.23-5.49-5.49-1.43-.84-3.13-1-4.54-1.83s-2-2.67-2.15-4.34c-.2-2.45,1.69-.71,2.83-.11,1.3.69,2.7,1.17,4,1.9,2,1.13,4.31,2.84,5,5.18.11.41.25,3.42,0,3.31s-.76-.31-.9,0l-.33.7c-.33.69,1.33,1.79,1.62,1.18l.33-.7-.9,0c3.06,1.61,2.14-3.46,1.47-5-2.07-4.61-7.5-6.35-11.6-8.55-.71-.38-2.57-1.6-3.42-.86-.38.33-.24.81-.19,1.24a14.25,14.25,0,0,0,.58,1.72c.2.77.09,1.54.24,2.3.31,1.56,1.38,2.33,2.78,3,3.25,1.54,7.64,2.27,9.09,6.14C97.5,41.38,99.26,42,98.85,41Z"/><path class="cls-2" d="M71.48,25c-5.45.7-11.12-.17-11.79,5.84,1.67.2,3.34-.3,5-.3,1.33,0,3.45.8,4.56,0s.67-1.23,1-2.44a5.79,5.79,0,0,1,1.33-2.7Z"/><path class="cls-2" d="M70.94,24.28c-4.82.57-11.2-.06-12.11,6.11-.08.55.73,1.15,1.22,1.17,2.06.12,4.07-.41,6.12-.19,1.24.13,2.64.57,3.79-.15s.93-1.56,1.17-2.66,1.52-2.16,1.22-3.26c-.18-.63-2-1.45-1.71-.58.16.56-.89,1.69-1.1,2.37-.36,1.16,0,2.1-1.2,2.77s-2.67,0-4,0c-1.68-.05-3.31.4-5,.3l1.22,1.17c.85-5.75,7-5,11.47-5.57C72.94,25.63,71.6,24.21,70.94,24.28Z"/><path class="cls-1" d="M120.47,78.79C114,76,100.05,85.06,96.93,88.32"/><path class="cls-2" d="M120.61,78.65c-3.7-1.47-7.93.1-11.37,1.61-4.36,1.92-9.09,4.54-12.43,8-.18.18.05.3.21.15,5.16-4.9,15.88-12,23.32-9.49.14,0,.44-.22.28-.28Z"/><path class="cls-1" d="M115.5,77c-4.93-.29-8.12,1.74-11.9,4.06"/><path class="cls-2" d="M115.61,76.86c-4.58-.2-8.31,1.7-12.07,4.12-.16.1-.11.33.08.21,3.81-2.23,7.19-4.13,11.77-4,.14,0,.41-.29.21-.3Z"/><path class="cls-1" d="M152.33,145.76c4.89,2.89,6,8.45,6,14,0,2.89-2,21.8-6.9,18.91"/><path class="cls-2" d="M152,146.19c6.37,4.23,5.82,12.65,4.85,19.34-.26,1.76-2,14.18-5.34,12.59-1.21-.58-1.06.72-.17,1.14,5.44,2.61,6.74-9.49,7.18-12.45,1.16-7.7,1.32-16.67-5.9-21.47-1-.66-1.64.18-.62.86Z"/><path class="cls-1" d="M150.5,143.2c1.5,4.67,1,10.68.83,15.35-.17,7,1.84,12.85,3.5,19.52s4,13.18,5.67,19.85c1.67,6.51.83,12.68-.67,19-1.33,6.17-5.51,10.51-11.68,12.68-6,2.34-19.18,3.78-25.52,2.45-3.17-.5-5.34-1.95-8.51-3.11-2.84-1-4.34-4.84-6.67-7.17-3.5-3.34-2.17-5-5-9-2.67-4-2.84-6.34-.17-10.34,1.17-1.84,3.34-4.17,3.17-6.34-.17-3-4-6.17-5.51-8.67-3-5.34.83-15.18,3.84-19.68,4.5-6.51,9.51-7.67,16.52-11,2.67-1.33,5.17.17,8-.83,1.67-.5,8.67-.33,9.51-2,.17-.83-.17-.33-.33-.5"/><path class="cls-2" d="M149.64,142.91c2.3,8.2.11,16.87,1.9,25.23,1.93,9,4.92,17.75,7.36,26.64,2.29,8.35,2.77,19.81-2.3,27.41-4.05,6.06-11.5,7.91-18.29,8.9-7.72,1.13-15.65,1.47-22.79-2.19-3.31-1.7-7.45-6.26-9.36-9.66-.73-1.3-1-2.84-1.64-4.19-1-2.08-2.79-3.86-3.19-6.19-.71-4.15,3.18-6.63,4.5-10.1,1.08-2.83-.22-5-1.95-7.25-2.65-3.44-4.53-5.82-4-10.46a29.63,29.63,0,0,1,3.83-11.21,22,22,0,0,1,9-8.6c3.78-2,8.16-4.36,12.45-4.29a67.22,67.22,0,0,0,8.76-.89c1.4-.16,4.69-.26,4.79-2.17,0-.58-.69-1.11-1.22-1.17l-.36,0c-1.14-.11,0,1.38.7,1.44l.36,0L137,153c-.11,2.09-7.28,1.83-8.78,2.1-4.13.74-7,.26-10.86,2-6.94,3.13-12.73,6.18-16.2,13.33-2.79,5.75-5,13.14-.73,18.66,1.23,1.59,3,3.19,3.76,5.1,1.2,3.14-1.17,5.3-2.69,7.68-1.82,2.84-2.54,5.42-1.12,8.59.94,2.1,2.41,3.88,3.23,6.06a16.22,16.22,0,0,0,1.6,3.53c1.09,1.61,2.57,2.94,3.73,4.51a19.14,19.14,0,0,0,3.18,3.81c5,3.94,12.33,5.07,18.46,4.95,7-.14,15.09-.93,21.37-4.34,7.2-3.91,9.24-11.15,10.1-18.83,1.27-11.36-3.9-22.38-6.71-33.18-1.6-6.14-3.29-12.12-3.11-18.54.14-5,.51-10-.86-14.91-.18-.63-2-1.45-1.71-.58Z"/><path class="cls-1" d="M98.06,116c4.84,3.5,5.23,12.4,8.06,17.74,3.17,6.17,3.67,12.18,5.17,18.68.67,3,2.17,5.84,2.84,8.84.67,2.84.33,6.17.5,9.18.33,6.51-.5,13.18-1.33,19.68-1,6.67-3.84,13.35-3,20.35a52.65,52.65,0,0,0,2.34,9.84c.67,2,3.84,6.84,3.17,8.84-.17.33.17.5.17.67-3,.67-6.34-1.5-9.34-1.84s-6.17,0-9.18-.17c-3.5-.17-7-1.17-9.51-3.67-2.34-2.17-3.5-2.67-5-5.51a50.15,50.15,0,0,1-3.17-8.34c-1-3.34-1.17-8.34-1.5-11.68-1-7.34,1.84-9.34,3.17-16.52.24-1.35,2.87-7.9,3.5-11,1.09-5.37.53-11.69,1.17-14a48.48,48.48,0,0,0,1.5-13.68c0-4.17-1.33-9.34.33-13,.67-1.33,1.83-19.85,1.67-20.19"/><path class="cls-2" d="M97.75,116.38c3.85,3.15,4.5,8.79,6,13.26,1.62,4.85,3.94,9.24,5,14.3a101.32,101.32,0,0,0,2.92,12.12c2.12,6.08,2.28,12,2.14,18.41a115.74,115.74,0,0,1-1.39,15.16c-.84,5.43-2.8,10.68-3.11,16.19A35.69,35.69,0,0,0,111.77,220c.75,2,4.29,6.66,3.17,8.84-.48.94,2.34,1.09-1.63.28-1.22-.25-2.2-.59-3.34-.92a22.06,22.06,0,0,0-5.4-1.08c-2.87-.14-5.78.22-8.64-.13-3.77-.46-6.48-2.16-9.23-4.66-3.76-3.43-5.64-9-6.59-13.93-.87-4.5-1.7-10.29-1-14.78,1.11-7,4.44-13.74,6.29-20.57,1-3.71,1.05-7.54,1.18-11.36.16-4.67,1.58-9.1,1.79-13.8.22-4.89-1.11-10.15-.23-14.93.47-2.53,1.11-4.77,1.36-7.39.44-4.68,1.66-10.41.94-15.1-.1-.66-1.86-1.51-1.71-.58.4,2.59-.26,5.72-.44,8.32a79.79,79.79,0,0,1-1,10.63,40.54,40.54,0,0,0-1,4.37c-.32,3.23.39,6.5.45,9.73.1,5.95-1.62,11.49-1.85,17.33-.23,5.65-.71,10.69-2.55,16-1.54,4.47-2.83,9-4.23,13.52-1.56,5-.7,10.44-.07,15.57s2.27,11.21,5.45,15.25c2.95,3.74,7.24,6.84,12,7.63,3.81.63,7.7-.14,11.5.41,3.31.48,6.11,2.22,9.53,1.84.33,0,.39-.36.25-.61-.43-.79-.31-2.77-.66-3.7-.78-2.1-2-4-2.74-6.1a34.12,34.12,0,0,1-1.66-18.16c1.12-5.86,2.55-11.5,3.2-17.45a139.4,139.4,0,0,0,.54-17.62c-.09-5.19-2-9.26-3.29-14.2s-1.77-10.07-3.53-14.91c-1.69-4.65-3.52-9.15-5.09-13.85-1.09-3.26-2.46-6.17-5.16-8.38-.94-.77-1.55.1-.62.86Z"/><path class="cls-1" d="M94.28,166.05c2.17,1.5,2.67,8.84,2.67,11.68,0,3.17,4.67,8.51-3,7.84-2.33-.2-8.17-2.5-8.84-4.84-.5-1.5.5-4.17.83-5.67.17-1.84-.17-4.17.17-5.84a4.37,4.37,0,0,1,5.34-3.5c1.17.17,4.34,2,3.67,2.67"/><path class="cls-2" d="M93.76,166.31c2.61,2.37,2,7.81,2.32,11,.16,1.7,2,4.77,1.35,6.38-.84,2-4.3,1.23-5.9.74-3.33-1-6.1-3.35-5.21-7.07a24.06,24.06,0,0,0,.49-5.4,6.45,6.45,0,0,1,.91-4c1.09-1.45,7-2.21,6.52,0-.13.68,1.57,1.69,1.73.91.33-1.67-2.47-3-3.69-3.46-2.57-1-5.48-.37-6.7,2.32-1,2.17-.17,4.65-.51,6.91-.25,1.66-1.13,3.27-1,5,.24,2.48,2.68,3.91,4.7,4.92,3.16,1.57,11.68,4,10.11-2.3a53.66,53.66,0,0,1-1.33-8.16c-.28-2.76-.61-6.28-2.8-8.27-.71-.65-2-.39-1,.51Z"/><path class="cls-1" d="M90.44,171.22c1,1.15,0,3.73-1.17,4.73-.84.75-1.65.23-2.34-.39-1.61-1.45,1-2.5.83-4"/><path class="cls-2" d="M89.76,171.3c.74,1-.83,4.95-2.17,4.11-.69-.43,0-1.19.32-1.64a2.89,2.89,0,0,0,.73-1.76c0-.71-1.75-1.61-1.73-.91,0,1.16-1.2,1.79-1.35,2.9-.18,1.34,1.52,2.59,2.63,2.93,2.77.84,4.27-3.92,2.93-5.78-.23-.32-.79-.76-1.22-.65s-.35.5-.14.8Z"/><path class="cls-1" d="M99.45,151c5.51-.17,8.84,8.84,7.67,13.18-2,9-16.68,6.67-19-.83-1.5-4.17,1.5-9.18,5.17-11,2.17-1.17,5.84-2.84,8-1.33"/><path class="cls-2" d="M99.8,151.76c5.08.24,7.45,7.78,6.46,12-.91,3.88-4.48,5.66-8.23,5.53-4.66-.15-9.81-3.18-9.43-8.43.35-4.8,7.41-11.75,12.6-9.26,1.21.58,1.06-.72.17-1.14-6.23-3-14.87,4-14.51,10.57.29,5.36,5.61,8.85,10.49,9.58,5.5.82,10.83-2,10.87-8.06,0-5.14-3.38-12-9.12-12.25-1.15-.06,0,1.41.7,1.44Z"/><path class="cls-1" d="M96.28,167.05c4.5.67,10.51,1.33,10.51-4.84,0-6-5.84-13.85-10.68-6.51-1.67,2.5-1.5,6-1.67,8.84-.17,1.84.83,7.17-.17,8.34-2,2.17-7.34-.83-8.51-2.5a13.71,13.71,0,0,1-2.67-8.67c0-4.67,1.17-16,8.34-13.68a80.18,80.18,0,0,0,9,2.67c3.84.83,5.67,2.67,7.17,6.34,2.5,6.84,1.33,12.68.5,19.85-.33,3-.83,6.17-4,7.67-1.84.83-6.84,1.84-8.84.83-2.22-2.39-.5-8.51-.33-11.84,0-2,.38-5.71-.17-6.76Z"/><path class="cls-2" d="M96.63,167.77c3,.43,7.56,1.28,9.83-1.39,2.47-2.9.87-8-1-10.77-1.59-2.33-4.39-4.45-7.28-3.17-4.65,2.05-4.68,8.73-4.56,13,.05,1.83,1.05,5.11-.19,6.64s-4.25.5-5.78-.68a10.08,10.08,0,0,1-3.44-6.52c-.67-4.11-.21-9.68,1.82-13.38,1.44-2.62,3.29-3.32,6.24-2.55s7.46,1.65,10.26,3.07c7.78,4,5.79,16,4.93,23-.43,3.52-.65,7.34-4.33,9a15.06,15.06,0,0,1-4.92,1c-2.86.18-3.22-1.87-3.14-4.25.09-2.86.72-5.68.81-8.55,0-1.23-.1-2.57,0-3.79s-.87-1,.73-.7c1.11.19,0-1.33-.7-1.44l-1.5-.25c-.26,0-.61.11-.5.43,1.78,5.54-2.17,11.8-.27,17.26,1.38,4,6.56,3,9.73,2,6.44-2,6-10.33,6.45-15.87.46-5.71.14-13.16-4.41-17.33A12.09,12.09,0,0,0,100.1,150c-3.28-.88-7.33-2.94-10.75-3-4.48-.05-6,5-6.64,8.64-.85,4.9-.94,10.76,2.38,14.82,1.71,2.09,6.92,5.53,9.6,3.33,1.55-1.27.85-4.17.74-5.93-.25-3.84-.55-8.86,1.88-12.08,4.66-6.18,9.94,3.11,8.38,7.89-1.31,4-6.53,3.13-9.76,2.67C94.81,166.17,96,167.68,96.63,167.77Z"/><path class="cls-1" d="M100.2,202.09c-.5-1.5-.42-3.67-1.92-4.5-1.17-.67-1.5-.25-2.17-1.67a7,7,0,0,1-.83-2.84,43.4,43.4,0,0,0-5.67.5c-.75.17-4,.92-4.42,1.67-.17.33.5,1.5.58,2,.08,1.08-.25,1-.75,1.75-.83,1.5.17,3.09.5,4.75a16.1,16.1,0,0,0,.83,3.59"/><path class="cls-2" d="M101.06,202.38c-.43-1.58-.52-3.38-1.71-4.62-1.54-1.61-3-1.62-3.21-4.39,0-.56-.9-1.05-1.4-1-2.25.16-9.29-.09-10.41,2.63-.22.55.44,2.42.32,2.88-.26,1-.87,1.23-.77,2.6a27.66,27.66,0,0,0,1.68,6.76c.24.64,2,1.3,1.59.23a24.28,24.28,0,0,1-.77-3.41c-.25-1.13-1-2.53-.79-3.68.13-.63.9-1.24,1-1.89.15-.89-.13-.75-.14-1.5,0-2.14,1.52-2.18,3.37-2.59a40.13,40.13,0,0,1,6-.58l-1.4-1A7,7,0,0,0,96.14,197c.33.32.77.44,1.09.73,1.43,1.25,1.65,2.38,2.11,4.06.17.63,2,1.46,1.71.58Z"/><path class="cls-1" d="M106.29,197.75c.33,1.17-.17,2.34-.33,3.5a62.54,62.54,0,0,0-.5,8c-.17,6.17,2.89,10.79,5.39,16.46-3.17-.67-9.4-.28-12.57-.78-3.67-.5-5-1-7.51-4a70.28,70.28,0,0,1-5.67-8.67c-1.84-3.17-1.67-5.84-2-9.34-.17-1-.17-1.84-.33-2.84,1.17,4.5,8.34,5.51,12,4.34,3.5-1.17,8-7.67,11.84-6.51"/><path class="cls-2" d="M105.43,197.46c.26,3.13-.71,6.77-.78,10a24.14,24.14,0,0,0,.6,6.89,43.44,43.44,0,0,0,3,7.52c.06.12,1.56,2.76,1.36,3a24,24,0,0,1-3.68-.26c-2.39-.09-4.8,0-7.18-.27-3.94-.4-6.37-2.06-8.67-5.29-2.12-3-4.62-6.31-5.5-9.91-.69-2.81-.65-5.89-1-8.75L82,200c1.44,4,6,5.62,10,5.62a9.56,9.56,0,0,0,6.11-2c2.51-1.84,5.45-5.54,8.9-4.94,1.11.19,0-1.32-.7-1.44-3.58-.62-6.23,2.39-8.81,4.4-3.65,2.84-11.76,4.58-13.9-1.4-.17-.48-1.76-1.36-1.65-.4.5,4.26.42,8.47,2.4,12.36s4.56,8.21,7.84,11c5.06,4.31,13,2.25,19.05,3.28.42.07.61-.24.44-.61-2.17-4.79-5-9.46-5.26-14.83-.23-4.34,1.12-8.73.76-13-.06-.66-1.79-1.54-1.71-.58Z"/><path class="cls-1" d="M97.28,194.08c-1.92,2.34-6.51,3.09-9.34,3.34-1.84.17-3.25.42-3.59-1.67s-.5-3.17,1.5-3.92a26.32,26.32,0,0,1,7.59-1.67c1-.08,2.92-.17,3.59.75.58.67.5,2.5.5,3.42h0a.53.53,0,0,1-.5,0"/><path class="cls-2" d="M96.47,193.49C94.8,195.28,92.3,196,90,196.36c-1.86.32-4.9,1.22-4.92-1.54s3.82-3.16,6-3.56a15.57,15.57,0,0,1,3.46-.42c1,.05,1.7,0,2.14,1.07.08.2.21,1.69-.11,1.69-.88,0,.42,1.45,1.08,1.45h.5c.13,0,.32-.12.32-.27,0-3.15-.76-5.31-4.27-5.39a23.35,23.35,0,0,0-6.54,1c-1.52.42-3.69.81-4.21,2.53a4.05,4.05,0,0,0,3.54,5.37c3.64.14,8.61-.83,11.18-3.57.47-.51-1.1-1.73-1.62-1.18Z"/><path class="cls-1" d="M91.19,190a14.77,14.77,0,0,1,.08,1.92,9,9,0,0,1-3.34.42c0-.58-.17-1.17-.17-1.67-.25.08-.92.08-.75-.5.08-.33.53-.61.86-.86a10.42,10.42,0,0,1,2.81-.47c.83-.08,1.92.17,1,1-.25.25-1.17.17-1.58.42"/><path class="cls-2" d="M90.33,189.7c0,.32.24,1.16.08,1.43s-.4.27-.73.33a8.61,8.61,0,0,1-2.1.15l1.21,1c0-.56-.14-1.11-.17-1.67a1.45,1.45,0,0,0-1.4-1l-.2,0q.65,1.05,1,.4a3.87,3.87,0,0,1,.72-.48,6.76,6.76,0,0,1,1.82-.29,7.19,7.19,0,0,0,.85-.07l.27,0q-.46-.91-.86-.33a6.17,6.17,0,0,0-1.46.34c-.69.31.75,1.65,1.4,1.36s1.12-.11,1.58-.42a1,1,0,0,0,.35-1.35c-.69-1.19-2.18-1.1-3.35-1s-2.94.26-3.24,1.54c-.25,1.08,1.24,1.9,2.16,1.68l-1.4-1c0,.56.14,1.11.17,1.67s.79,1,1.21,1a9.7,9.7,0,0,0,3.68-.46.3.3,0,0,0,.17-.23,19.63,19.63,0,0,0-.09-2.08c-.07-.66-1.82-1.53-1.71-.58Z"/><path class="cls-1" d="M154.83,197.25c-3.84-3.5-10.84-4.5-16-5.17-5.84-.67-15.18-1.33-19,3.84-3.5,4.67-4,12.68-4,18.35a24.81,24.81,0,0,0,1.67,9.18c1.33,3.84,3.67,6.17,7.51,6.84,5.17.83,10.51-1.17,15.18-3,2.5-.83,9.68-5.67,8-8.51"/><path class="cls-2" d="M155.15,196.82c-3.79-3.13-8.64-4.25-13.4-5s-9.54-1.31-14.24-.67c-11.28,1.54-12.69,13.08-12.58,22.67.11,9.42,4.27,18.23,14.83,17.3a31.82,31.82,0,0,0,14.89-5.27c2.15-1.53,5.47-4,4.3-7-.25-.63-2-1.29-1.59-.23,1.14,2.88-4.32,6.13-6.23,7.16a35.12,35.12,0,0,1-11.75,3.76c-7.25.9-10.82-3.09-12.21-9.73a39.69,39.69,0,0,1-.08-12.92c.47-3.7,1.31-7.86,3.81-10.77s6.23-3.54,9.73-3.75c7.4-.44,18,.44,23.89,5.27.94.77,1.55-.1.62-.86Z"/><path class="cls-1" d="M157,201.25c-.67-5.34-7.51-7.67-12.18-8.51-6-1.17-12.51-.83-18,2.34-5,2.84-5.67,12.34-5.84,17.85-.17,4.5-.5,16,4.5,17.35,5.51,1.5,14.18-.17,19.68-1.17,4-.67,5.67-1.33,7.34-5.17,1.33-3.17,1.67-6.34,2.67-9.68,1.17-4.5,2.34-9.34,1.84-14"/><path class="cls-2" d="M157.86,201.54c-1.54-7.79-12-9.89-18.62-10.12-4.64-.16-10.57.63-14.24,3.78-3.13,2.69-4,7.45-4.48,11.32-.79,6.34-1.88,16.07,1.73,21.73,1.78,2.79,4.79,3.2,7.9,3.33,5.21.21,10.45-.79,15.54-1.75,4.73-.89,6.9-2.79,8.39-7.48,2.16-6.84,4.29-14.59,3.77-21.81,0-.66-1.78-1.54-1.71-.58.45,6.21-1.45,12.1-2.89,18.06-1.37,5.65-2.64,9.24-8.64,10.36a76.68,76.68,0,0,1-14.17,1.77c-3.55,0-6.68-.59-7.79-4.47a27.19,27.19,0,0,1-.84-6.17c-.32-6.63-.73-16.49,3.65-21.91,3.6-4.46,11.17-5.1,16.45-4.6s13,2,14.23,8c.13.65,1.89,1.5,1.71.58Z"/><path class="cls-1" d="M144.32,202.75A26.26,26.26,0,0,0,133,204.09c-1,.42-2.92,1.75-4.09,1.58s-1.84-2.25-1.92-3.34c6.51-3.09,15.68-3.84,22.6-1.5,1,.38,5.35,2.06,6.31,3.7.75,1.28-.79,2.11-1.56,1.64A29.22,29.22,0,0,0,144.32,202.75Z"/><path class="cls-2" d="M144,202a25.62,25.62,0,0,0-12.39,1.71c-.77.35-3.55,2.32-3.63-.37,0-.8,1.94-1.28,2.42-1.45a32.39,32.39,0,0,1,8.29-1.64,30.91,30.91,0,0,1,7.84.39c1.64.31,5.34,1,6.6,2.34,3.68,3.82-2.44.8-3.18.53a29.57,29.57,0,0,0-6-1.51c-1.12-.16,0,1.34.7,1.44a36,36,0,0,1,9,2.92c.84.35,1.85,1.05,2.74.29,2.1-1.79-1.86-4.14-3.1-4.82-8.19-4.46-18.65-3.94-27-.22a.34.34,0,0,0-.16.39c.29,1.82,1.18,4.14,3.32,4.35,1.53.15,2.92-1.07,4.24-1.63,3.38-1.43,7.41-1.55,11-1.3C145.82,203.55,144.65,202.08,144,202Z"/><path class="cls-1" d="M144.77,164.22c-1.11,2.67-2.89,5.56-3.34,8.45-.67,4,1.56,7.34,1.33,11.34-.22,2.67,2.72,10.51,4.45,10.23.62-.1,1.31.14,1.45-.28.56-1.72-3.23-8.18-3.23-10.62a44.65,44.65,0,0,1,1.11-9.34c.44-2.22,2.45-3.78,2.89-6"/><path class="cls-2" d="M144,163.63c-1.49,3.38-3.58,6.72-3.49,10.54.07,3.32,1.07,6.81,1.43,10.12.33,3,1.68,9.28,5,10.54,4.8,1.83,1.43-5.05.79-6.64a17.43,17.43,0,0,1-1-9.63,17.32,17.32,0,0,1,1.53-6,25.15,25.15,0,0,0,2.1-4.09c.21-.65-1.48-1.7-1.73-.91-.79,2.49-2.51,4.31-3.11,6.89a33.69,33.69,0,0,0-.88,7.57c0,3.43,2.76,6.22,2.89,9.44,0,.67,1.22,2.36-1,1.61-.66-.22-1.44-2.86-1.67-3.5a21.6,21.6,0,0,1-1.15-6.41c-.21-2.94-1.54-5.76-1.45-8.72.11-3.47,2-6.54,3.41-9.63.31-.71-1.35-1.78-1.62-1.18Z"/><path class="cls-1" d="M123,164c-1.11,2.67-2.59,10.48-3,13.37-.67,4,.58,2.42.36,6.42-.22,2.67,3.86,12.48,6.53,11.93.62-.13,1.31.14,1.45-.28.56-1.72-4.64-9.88-4.64-12.32a44.65,44.65,0,0,1,1.11-9.34c.44-2.22,2.5-5.84,2.95-8.06"/><path class="cls-2" d="M122.13,163.51a62.6,62.6,0,0,0-2.65,11.13c-.57,3.18-.22,5.54,0,8.67.25,3.89,2.41,10.81,6.25,12.69,6,2.94,1.82-5.21.88-7.18a16.74,16.74,0,0,1-1.7-10.52c.55-4.35,2.59-8,3.69-12.16.18-.66-1.52-1.7-1.73-.91-1.55,5.88-4.78,11.17-4.05,17.57a17.88,17.88,0,0,0,2,5.39c.51,1.08,4,6.75,1.5,6.77-2,0-3.81-5.57-4.34-7.13-.76-2.25-.72-4.45-1.07-6.76-.75-5.06,1.14-11.9,2.95-16.66.24-.62-1.43-1.69-1.73-.91Z"/><path class="cls-1" d="M126.64,202.64a9.07,9.07,0,0,1,1.75,1.61c-.25,2.25-.67,6.17-.92,7-.21,1.33-3.25.67-3.34-.33a49.15,49.15,0,0,1,.58-7.45A6.32,6.32,0,0,1,126.64,202.64Z"/><path class="cls-2" d="M126.24,212.34h-.11c-1.06,0-2.25-.58-2.32-1.39a48.79,48.79,0,0,1,.59-7.55l0-.12.1-.07a6.6,6.6,0,0,1,2-.89l.15,0,.12.09a8.7,8.7,0,0,1,1.66,1.5l.25.26-.09.82c-.26,2.37-.62,5.61-.85,6.4C127.7,212,127.12,212.34,126.24,212.34ZM125,203.68a50.26,50.26,0,0,0-.55,7.23c0,.3.82.73,1.68.76.28,0,.93,0,1-.46.23-.77.6-4.11.84-6.32l.06-.52,0,0a8.1,8.1,0,0,0-1.43-1.33A6.06,6.06,0,0,0,125,203.68Z"/><path class="cls-1" d="M136.32,112.17c4.34,1.67,8.17,8.67,10.18,12.68a54.92,54.92,0,0,1,6.84,18.68,47.55,47.55,0,0,1-4,26.69c-3-4.34-8.51-5.67-13.35-5.51-3.84.17-11.68,1.84-13,6.17-2.67-2.5-6-4-7.51-7.34-1.33-3,.17-7.17-.67-10.34-2-7.84-7-14-9.84-21.52-1.17-2.84-5.51-7.51-7.34-10.18-1.84-2.34-4.5-8.17-5.67-10.34"/><path class="cls-2" d="M136.23,112.74c4.4,2,6.92,7.11,9.07,11.21,2.56,4.87,5,9.72,6.33,15.08a46.58,46.58,0,0,1-3.11,30.6l1.49.51c-3.38-4.39-8.58-6.26-14-6.16-4.68.09-11.82,1.45-13.8,6.31l1.33.33c-2.95-2.59-7.1-4.65-7.69-8.94-.38-2.73.41-5.45-.14-8.19-1.17-5.82-4.8-11.07-7.45-16.27-1.2-2.35-2-4.91-3.39-7.16a64.36,64.36,0,0,0-4.76-6.31c-3-3.86-5-8.15-7.31-12.47-.31-.59-2.11-1.22-1.59-.23,2.16,4.12,4,8.3,6.89,12,1.94,2.53,4.27,4.92,5.77,7.76s2.55,5.73,4,8.5,3.18,5.74,4.44,8.76c1.76,4.19,1.61,7.32,1.74,11.7.16,5.72,4.55,7.95,8.44,11.36.16.14,1.13.82,1.33.33,1.54-3.79,6.27-5.12,10-5.73,5.37-.88,11.4,0,14.92,4.55.17.22,1.23,1.07,1.49.51a47.37,47.37,0,0,0,2-35.25,81.8,81.8,0,0,0-7.22-15c-2.11-3.54-4.66-7.2-8.51-9-1.21-.56-1.06.73-.17,1.14Z"/><path class="cls-1" d="M129.64,111.95c6.9,6.23,12.9,13.35,15.57,22.47a81.36,81.36,0,0,1,2.22,12.46c.22,1.78.89,4.67.22,6.23-.22.44-2.22,1.33-2.67,2-.67.89-.67,2.45-1.33,3.34-2.45,2.67-10.9.44-15.35,2a9.22,9.22,0,0,0-3.78-4.89c-1.33-1.11-3.23-.89-3.89-2-.67-1.33-1.45-5.78-1.67-7.34-.44-2.22-1.33-4.45-2-6.67-3.34-10.9-10.68-20-18.24-28.25"/><path class="cls-2" d="M129.13,112.2c4.82,4.41,9.33,9.24,12.41,15.06,3.29,6.2,4.21,12.94,5.11,19.8.17,1.33.82,3.43.38,4.7-.52,1.48-1.44,1.37-2.36,2.28-1.6,1.57-1,3.8-3.47,4.66-4.25,1.5-9.19-.21-13.58,1.05l1.49.79A12,12,0,0,0,126,156c-1.4-1.2-4-1.84-4.92-3.41s-.81-3.79-1.12-5.44a62.35,62.35,0,0,0-2.52-8.59c-3.64-10.58-10.71-19.34-18.16-27.5-.66-.72-1.94-.47-1,.51,8.33,9.12,15,18.51,18.76,30.37,1.09,3.43,1.08,7.75,2.64,11a3.87,3.87,0,0,0,1.35,1.69c2.59,1.76,5.14,2.49,6.55,5.75a1.41,1.41,0,0,0,1.49.79c4.23-1.22,11.43,1.26,15-1.67,1-.84.94-1.9,1.52-3,.67-1.25,1.82-1.39,2.6-2.41,1.33-1.73.53-4.4.27-6.4-1-7.2-2-14.26-5.54-20.71-3.22-5.85-7.77-10.77-12.67-15.25-.71-.65-2-.4-1,.51Z"/><path class="cls-1" d="M127.47,124.4a13.44,13.44,0,0,1-2.17-.17c1.92,2.42,4.42,4.92,2.84,7.67a5.26,5.26,0,0,0,2.25.08C131.23,131.16,131.65,127.91,127.47,124.4Z"/><path class="cls-2" d="M129.2,132.5a4.19,4.19,0,0,1-1.17-.19l-.52-.15.27-.47c1.27-2.21-.4-4.25-2.17-6.42l-.64-.79-.58-.74.94.06a4.43,4.43,0,0,1,1,.11,5.07,5.07,0,0,0,1.19.05h.15l.12.1c3,2.54,3.56,4.84,3.61,6a3,3,0,0,1-.66,2.23l-.12.12h-.17a4.6,4.6,0,0,0-.61,0A4.69,4.69,0,0,1,129.2,132.5Zm-.44-.88a2.8,2.8,0,0,0,.93,0l.51,0a2.48,2.48,0,0,0,.32-1.48c0-1-.52-3-3.19-5.28a9.32,9.32,0,0,1-1,0C128,126.83,129.81,129.12,128.75,131.62Z"/><path class="cls-1" d="M128.27,132c.38.38,1.46,2.17,1,6.38a8.24,8.24,0,0,1,2.17-.08c1.25-1.84-.33-6.42-1-6.34A20.28,20.28,0,0,1,128.27,132Z"/><path class="cls-2" d="M128.83,138.9l0-.53c.54-4.59-.83-6-.84-6l-.74-.75,1.05,0a19.91,19.91,0,0,0,2.06,0c.45-.05.77.45.87.62.69,1.13,1.7,4.66.53,6.38l-.14.2-.24,0a7.64,7.64,0,0,0-2,.07Zm.22-6.43a10.16,10.16,0,0,1,.65,5.46,8.13,8.13,0,0,1,1.46,0,5,5,0,0,0,.12-3,6.23,6.23,0,0,0-.94-2.5C130,132.46,129.49,132.46,129,132.47Z"/><path class="cls-1" d="M129.31,138.64c-.22.89-.56,2.61-.17,3.11a1.92,1.92,0,0,0,2.06.78c1.06-.22,1-.17.56-1.11s-.95-2-.5-2.78"/><path class="cls-2" d="M130.7,143a2.33,2.33,0,0,1-1.89-1c-.49-.62-.22-2.23.09-3.47l.82.2a5.3,5.3,0,0,0-.24,2.75,1.5,1.5,0,0,0,1.64.63l.13,0,.33-.07-.11-.24-.08-.18c-.49-1-1-2.2-.49-3.17l.73.42c-.33.59.11,1.54.51,2.38l.09.19c.22.45.35.72.2,1s-.45.37-1,.48l-.13,0A2.84,2.84,0,0,1,130.7,143Z"/><path class="cls-1" d="M142.1,178.12a1.06,1.06,0,0,0-1.11,1.2,26.91,26.91,0,0,0,.31,3.09,1.21,1.21,0,0,0,1,1.06,10.37,10.37,0,0,0,3.67.11,1.78,1.78,0,0,0,1-1.45,12.1,12.1,0,0,0-.11-2.89c-.22-.44-.33-.89-1.22-.89S142.1,178.12,142.1,178.12Z"/><path class="cls-2" d="M144.78,184.19a12.25,12.25,0,0,1-2.6-.25,1.7,1.7,0,0,1-1.38-1.42,27.23,27.23,0,0,1-.32-3.2,1.55,1.55,0,0,1,1.61-1.7h0s2.66.22,3.52.22a1.55,1.55,0,0,1,1.61,1l.06.13a7.17,7.17,0,0,1,.17,2.57c0,.22,0,.41,0,.55a2.27,2.27,0,0,1-1.28,1.89A4,4,0,0,1,144.78,184.19Zm-2.7-5.57c-.19,0-.59,0-.59.69a26.85,26.85,0,0,0,.29,3c.08.35.13.53.68.69a10.86,10.86,0,0,0,3.32.14,1.3,1.3,0,0,0,.72-1c0-.15,0-.35,0-.57a10.25,10.25,0,0,0-.07-2.1l-.07-.14c-.17-.36-.22-.47-.71-.47C144.79,178.84,142.35,178.64,142.08,178.62Z"/><path class="cls-1" d="M145.32,179.11c.42,0,.63,0,.71.33a23.77,23.77,0,0,1,.25,2.42c0,.33,0,.75-.33.75a27,27,0,0,1-3.07-.15c-.46-.13-.85-.1-.89-.56s-.11-2.06-.11-2.39a.75.75,0,0,1,.65-.61c.17,0,2.63.21,2.63.21Z"/><path class="cls-2" d="M146,182.94a27,27,0,0,1-3.16-.17l-.24-.06c-.35-.08-.83-.18-.89-.79s-.11-2.09-.11-2.42a1,1,0,0,1,.41-.72.84.84,0,0,1,.66-.21c.14,0,1.43.12,2.57.2h.16l.18,0c.31,0,.71.05.83.57a23.47,23.47,0,0,1,.26,2.5C146.62,182.76,146.25,182.94,146,182.94Zm-3.5-3.72s-.24.2-.24.29c0,.31.07,1.9.11,2.36,0,.1,0,.12.37.2l.28.07a26.62,26.62,0,0,0,3,.14s0-.13,0-.42-.17-2.05-.24-2.34c0-.05-.15-.06-.24-.07h-.32C144.21,179.38,142.62,179.26,142.45,179.22Z"/><path class="cls-1" d="M120.33,177.87a1.06,1.06,0,0,0-1.11,1.2,26.91,26.91,0,0,0,.31,3.09,1.21,1.21,0,0,0,1,1.06,10.37,10.37,0,0,0,3.67.11,1.78,1.78,0,0,0,1-1.45,12.1,12.1,0,0,0-.11-2.89c-.22-.44-.33-.89-1.22-.89S120.33,177.87,120.33,177.87Z"/><path class="cls-2" d="M123,183.94a12.29,12.29,0,0,1-2.6-.25,1.7,1.7,0,0,1-1.38-1.42,27.23,27.23,0,0,1-.32-3.2,1.55,1.55,0,0,1,1.61-1.7h0s2.66.22,3.52.22a1.55,1.55,0,0,1,1.61,1l.06.13a7.16,7.16,0,0,1,.18,2.57c0,.22,0,.41,0,.55a2.27,2.27,0,0,1-1.28,1.89A4,4,0,0,1,123,183.94Zm-2.7-5.57c-.19,0-.59,0-.59.7a26.85,26.85,0,0,0,.29,3c.08.35.13.53.68.69a10.92,10.92,0,0,0,3.32.14,1.3,1.3,0,0,0,.72-1c0-.15,0-.35,0-.57a10.24,10.24,0,0,0-.07-2.1l-.07-.14c-.17-.36-.22-.47-.71-.47C123,178.59,120.58,178.39,120.31,178.37Z"/><path class="cls-1" d="M123.55,178.86c.42,0,.63,0,.71.33a22.13,22.13,0,0,1,.1,2.35c0,.33,0,.75-.33.75a23.61,23.61,0,0,1-2.92-.08c-.46-.13-.85-.1-.89-.56s-.11-2.06-.11-2.39a.75.75,0,0,1,.65-.61c.17,0,2.63.21,2.63.21Z"/><path class="cls-2" d="M123,182.63a10.4,10.4,0,0,1-2-.1l-.24-.06c-.35-.08-.84-.18-.89-.79s-.11-2.09-.11-2.42a1,1,0,0,1,.41-.72.85.85,0,0,1,.66-.21c.13,0,1.43.12,2.57.2h.16l.18,0c.31,0,.7.05.83.57a22,22,0,0,1,.11,2.43c0,.9-.36,1.08-.67,1.08h-1ZM120.68,179s-.24.2-.24.29c0,.31.07,1.9.11,2.36,0,.11,0,.12.37.2l.28.07a17.74,17.74,0,0,0,2.62.07H124s0-.13,0-.42a21.36,21.36,0,0,0-.09-2.27c0-.05-.15-.06-.24-.07h-.32C122.44,179.13,120.85,179,120.68,179Z"/><path class="cls-1" d="M127.68,204.67a7.88,7.88,0,0,0-1.13-1.21,8.09,8.09,0,0,0-1.35.64,7.13,7.13,0,0,1-.07.74c.42.08,2.25.33,2.46.33A2.88,2.88,0,0,1,127.68,204.67Z"/><path class="cls-2" d="M127.9,205.51h-.3c-.25,0-2.11-.26-2.53-.34l-.31-.06,0-.31a4.23,4.23,0,0,0,.05-.43s0-.1,0-.3l0-.18.29-.16a7.6,7.6,0,0,1,1.26-.59l.19-.07.15.13a8.19,8.19,0,0,1,1.17,1.26l.11.14-.05.16a3,3,0,0,0-.07.43Zm-2.39-.94c.5.08,1.35.2,1.8.25v-.06a7.26,7.26,0,0,0-.84-.9,7.28,7.28,0,0,0-1,.46s0,.06,0,.08A1.58,1.58,0,0,1,125.51,204.56Z"/><circle class="cls-1" cx="125.93" cy="210" r="0.79"/><path class="cls-2" d="M125.93,211.12a1.13,1.13,0,1,1,1.13-1.13A1.13,1.13,0,0,1,125.93,211.12Zm0-1.58a.46.46,0,1,0,.46.46A.46.46,0,0,0,125.93,209.54Z"/><path class="cls-1" d="M154.58,204.38a1,1,0,0,1-.42.79"/><path class="cls-2" d="M154.21,204.69a1.87,1.87,0,0,1-.24.53c-.19.25-.12.37.15.16l-.1.06a3.35,3.35,0,0,0,.34-.26,2.41,2.41,0,0,0,.4-.45c.11-.16.36-.54.19-.71s-.7.55-.74.66Z"/><path class="cls-1" d="M153.75,203.55a1.48,1.48,0,0,1-.63,1.13"/><path class="cls-2" d="M153.39,203.85a1.25,1.25,0,0,1-.34.79c-.17.17-.31.46,0,.2l.08-.06a3.23,3.23,0,0,0,.49-.47,1.72,1.72,0,0,0,.46-1.07c0-.12-.3.13-.32.15s-.38.29-.4.45Z"/><path class="cls-1" d="M152.66,203c.17.42-.17.92-.33,1.29"/><path class="cls-2" d="M152.35,203.34c.06.49-.24.84-.36,1.29,0,.09.25-.11.26-.12a1.79,1.79,0,0,0,.4-.42c.24-.37.56-.91.33-1.34,0,0-.66.45-.64.59Z"/><path class="cls-1" d="M151.62,202.55a2.44,2.44,0,0,1-.46,1.33"/><path class="cls-2" d="M151.22,202.87a3.24,3.24,0,0,1-.4,1.26c-.09.16.13,0,.17,0a1.76,1.76,0,0,0,.23-.19c.06-.06.17-.24.24-.26s.33-.48.39-.65a3.56,3.56,0,0,0,.17-.82c0-.15-.35.13-.37.15s-.4.32-.43.51Z"/><path class="cls-1" d="M150.54,202.09a1.87,1.87,0,0,1-.38,1.33"/><path class="cls-2" d="M150.22,202.36c0,.21-.06.44-.11.65a4.94,4.94,0,0,1-.3.71c0,.09.23-.09.22-.08s.3-.37.41-.4.37-.56.42-.76a1.16,1.16,0,0,0,0-.68s-.61.44-.63.57Z"/><path class="cls-1" d="M149.45,201.59a3.67,3.67,0,0,1-.25,1.38"/><path class="cls-2" d="M149.08,201.9c-.1.47-.19.94-.29,1.4,0,.12.23,0,.24,0a1.82,1.82,0,0,0,.46-.42,2.19,2.19,0,0,0,.34-1.58c0-.13-.31.13-.34.15s-.37.29-.41.48Z"/><path class="cls-1" d="M148.08,201.25a1.36,1.36,0,0,1-.13,1.29"/><path class="cls-2" d="M147.7,201.6a1.66,1.66,0,0,1-.15,1.22c-.09.16.1.1.17.06a1.51,1.51,0,0,0,.73-2c0-.07-.79.5-.75.7Z"/><path class="cls-1" d="M146.7,200.71c.21.38.17,1.38-.25,1.5"/><path class="cls-2" d="M146.41,200.94c-.12.21,0,.42,0,.66a2.31,2.31,0,0,1,0,.37c-.07.4-.25.24.29-.11-.19.12-.55.39-.59.63s.21.11.33,0a2,2,0,0,0,.85-1.08,1.27,1.27,0,0,0-.11-1h0a1.28,1.28,0,0,0-.67.54Z"/><path class="cls-1" d="M145.28,200.54a3.72,3.72,0,0,1-.33,1.42"/><path class="cls-2" d="M144.88,200.88a6.35,6.35,0,0,1-.34,1.33c-.09.21.18.1.26,0a1.73,1.73,0,0,0,.58-.56,2.92,2.92,0,0,0,.31-1.49c0-.15-.35.13-.38.15s-.39.32-.43.52Z"/><path class="cls-1" d="M143.7,200.25c-.08.54,0,1.25-.33,1.67"/><path class="cls-2" d="M143.32,200.57a7.27,7.27,0,0,0-.14.87,4.1,4.1,0,0,1-.24.78c-.13.38.93-.41.81-.5.12.1.32-.82.33-.89a7.25,7.25,0,0,0,0-.89c0-.13-.32.13-.35.15a1.17,1.17,0,0,0-.41.49Z"/><path class="cls-1" d="M142.07,200.08c-.08.54.08,1.29-.33,1.71"/><path class="cls-2" d="M141.69,200.4c-.09.4-.06.82-.16,1.22-.05.22-.38.74.08.42a1.85,1.85,0,0,0,.86-1.16,7.94,7.94,0,0,0,0-1.11c0-.14-.32.13-.35.15s-.37.3-.41.49Z"/><path class="cls-1" d="M140.24,200.13c.17.42.25,1.46-.13,1.58"/><path class="cls-2" d="M139.88,200.46a3.26,3.26,0,0,1,.05.74,2.77,2.77,0,0,1,0,.33c0,.35-.22.31.25-.07-.11.09-.53.42-.47.6s.39-.09.45-.14l-.44.19c.08.1.39-.15.44-.19a1.59,1.59,0,0,0,.44-2.12c0-.05-.76.48-.72.67Z"/><path class="cls-1" d="M138.69,200c.08.46.38,1.54-.17,1.75"/><path class="cls-2" d="M138.28,200.38c0,.24.05.48.08.72a2.93,2.93,0,0,1,0,.38c0,.06,0,.12,0,.18,0,.21-.24.21.23-.14-.13.1-.5.4-.48.59s.23.08.35,0a1.72,1.72,0,0,0,.85-1.24,3.63,3.63,0,0,0-.22-1.19c0-.06-.83.49-.81.71Z"/><path class="cls-1" d="M137,200.33c.13.5.29,1.33,0,1.71"/><path class="cls-2" d="M136.61,200.68a2.76,2.76,0,0,1-.08,1.67c-.14.3.41,0,.45-.07a1.58,1.58,0,0,0,.68-1.15,3.17,3.17,0,0,0-.22-1.17c0-.07-.85.5-.82.72Z"/><path class="cls-1" d="M135.4,200.54a1.63,1.63,0,0,1-.13,2"/><path class="cls-2" d="M135,200.92a1.82,1.82,0,0,1,.21,1.06c0,.36-.29.61-.37,1,0,.12.19,0,.21,0a1.87,1.87,0,0,0,.76-2.78c-.1-.12-.91.56-.81.75Z"/><path class="cls-1" d="M133.73,200.92c.25.46.54,1.75,0,2"/><path class="cls-2" d="M133.29,201.33a2.58,2.58,0,0,1,.22.82,3.54,3.54,0,0,1,0,.42c0,.07,0,.14,0,.21,0,.24-.29.27.26-.19-.14.11-.51.41-.49.62s.24.08.37,0a1.71,1.71,0,0,0,.88-1.35,2.77,2.77,0,0,0-.37-1.35c-.08-.13-1,.56-.88.82Z"/><path class="cls-1" d="M132,201.25a2.45,2.45,0,0,1,0,2.5"/><path class="cls-2" d="M131.63,201.62a3.26,3.26,0,0,1,.24,1.19,6.06,6.06,0,0,1-.3,1.31c0,.2.63-.32.67-.36a2.28,2.28,0,0,0,.18-2.87c-.07-.1-.87.53-.79.74Z"/><path class="cls-1" d="M130.52,201.79c.63.42.33,1.88-.17,2.34"/><path class="cls-2" d="M130.1,202.19a1.64,1.64,0,0,1-.06,2c-.11.14-.22.33,0,.38s.57-.34.67-.45c.53-.61,1.15-2.11.26-2.7-.2-.13-1,.67-.84.79Z"/><path class="cls-1" d="M128.81,202.25a2.65,2.65,0,0,1,.29,2.29"/><path class="cls-2" d="M128.39,202.64a2.4,2.4,0,0,1,.37,1.17,2.91,2.91,0,0,1,0,.59c0,.13-.13.39-.06.51s.24-.09.26-.11c1-.57.91-2.14.26-2.94-.11-.14-1,.59-.84.78Z"/><path class="cls-1" d="M36.89,67.35c0,12.23-2,25.25-14.9,29.47"/><path class="cls-2" d="M36,66.9C36,78.73,33.86,91.67,21.29,96.14c-.68.24.72,1.6,1.4,1.36C35.44,93,37.7,79.85,37.75,67.8c0-.71-1.72-1.63-1.73-.91Z"/><path class="cls-1" d="M94.61,104.83c2.67,1.33,10.34-1,14.35.67,5.34,2,10.34,8.34,15.35,9.34,2.34.67,5.67-.67,8.34-.67s6,2,8.34,1.67c7.67-1,4-11,.33-14.35-7-6.34-17.35-9.34-22.69-17.35-1.84-1.17-3.56-.22-7.84,2.34"/><path class="cls-2" d="M94.75,105.5c4.08,1.53,8.69-.58,12.9.27,5.83,1.17,9.53,6.94,14.91,9.14a12.06,12.06,0,0,0,7,.47,14.28,14.28,0,0,1,6.46.09c1.08.3,2.13.74,3.23.93,3.08.55,6.31-.5,7-3.86,1.71-8.12-7.12-13.79-12.8-17.25-2.73-1.66-5.53-3.24-8.1-5.15a28.42,28.42,0,0,1-4.06-3.57c-.56-.62-1.45-2.23-2.23-2.77-3-2.11-6.27.4-9,2-.69.41.79,1.72,1.4,1.36,2-1.2,4.68-3.51,7.13-2,1.44.89,2.76,3.13,4.09,4.26a67.77,67.77,0,0,0,9,6.11c4.1,2.47,9,5,11.34,9.37,1.5,2.86,2.81,7.77-.79,9.67-2.51,1.33-5.21-.18-7.71-.75a12.77,12.77,0,0,0-4.92-.12c-3.77.54-6.4.72-9.78-1.49-1.82-1.2-3.49-2.63-5.25-3.92-2.6-1.92-5.36-3.73-8.65-4.07-3.67-.38-8.06,1.26-11.55,0-1.22-.46-.44,1.07.28,1.34Z"/><path class="cls-1" d="M136.15,99.49c-3.5-2-7.84-1.84-11.51-1.17-2.34.33-9.18,3.5-11,2.17"/><path class="cls-2" d="M136.23,98.92a18.66,18.66,0,0,0-12.4-1.27c-2.71.59-7.49,3.55-10.12,2.27-1.2-.58-1.05.71-.17,1.14,2.09,1,4.45.15,6.55-.48,5.34-1.62,10.54-3.19,16-.52,1.2.59,1-.71.17-1.14Z"/><path class="cls-1" d="M110.79,100.16c3.17-3.84,10,.44,12.18,3.11,1.67,2,2.61,6.62,1.78,9.45-.5,1.5-3.78,3.95-4.95,1.61"/><path class="cls-2" d="M111.6,100.75c3.11-3.25,8.93,0,11,3.05a11.11,11.11,0,0,1,1.58,6.67,4.69,4.69,0,0,1-.75,2.55c-.32.45-2.25,2.23-2.94,1.25-.45-.63-2.11-.92-1.36.15,1.51,2.15,4,1.94,5.71,0,2.15-2.45,1-7.35-.36-9.94-2.28-4.27-10.36-9.22-14.5-4.91-.48.5,1.09,1.73,1.62,1.18Z"/><path class="cls-1" d="M117.19,114.67c6.17-1.33,5.28-6.51,1.78-11-4.67-5.84-12.68-5-19.18-4.17-6,.83-12.85,3.84-15.18,9.84a18.32,18.32,0,0,0-.67,8.51c.33,1.84,3.34,7.51,5.84,7a1.35,1.35,0,0,0,1.33-1.5c-1.17-4-3.17-5.84.17-12.18"/><path class="cls-2" d="M117.73,115.4c8.77-2.4,3.49-12-2-15.17-7.27-4.13-19.74-2.37-26.49,2.12-7,4.65-8.71,14.84-2.89,21.16,1.11,1.21,4.17,3.46,5.47,1.14.6-1.08-.35-2.5-.7-3.54-1.17-3.5-.65-6,1-9.36.34-.69-1.32-1.79-1.62-1.18-1,2-2,4.16-1.88,6.49a11.18,11.18,0,0,0,.61,2.93,5.79,5.79,0,0,1,.32.89l.48,1.33-3,.28c-2.5-1.48-2.53-7-2.28-9.16A12.78,12.78,0,0,1,90.18,104c5-3.54,11.64-4.45,17.6-4.37,4.73.06,9,1.48,11.59,5.71,2.28,3.72,1.84,7.34-2.73,8.59-.93.25.44,1.63,1.08,1.45Z"/><path class="cls-1" d="M97.11,102.33c-4.5,2.34-7.79,4.23-9,9.4-.33,1.84-3.23,10.9,2.45,13.35"/><path class="cls-2" d="M96.42,101.65c-5.71,3-8.63,6.25-9.77,12.65-.79,4.42-.5,9.07,3.88,11.35,1.19.62,1-.69.17-1.14-4.08-2.13-2.66-8.07-1.82-11.61,1.23-5.21,4.42-7.51,8.94-9.88.69-.36-.77-1.69-1.4-1.36Z"/><path class="cls-1" d="M102,104c-6.67,3.5-10,7.51-10.68,15.18-.33,3.34-.5,7.34,3.34,8.67,4.5,1.5,5.17-2,5.51-5.34.33-2.17.67-5.84,2.67-7.34,1.84-1.17,5.34-1,7.34-.83,2.5,0,10.34,1.5,10.84-2"/><path class="cls-2" d="M101.25,103.31c-6.35,3.45-10.11,8.09-10.84,15.41-.45,4.48.83,10.77,6.84,10.21,2.66-.25,3.28-2.8,3.63-5.05a36.32,36.32,0,0,1,.81-4.83c1.14-3.85,4.29-4.19,7.85-4.06,3.21.12,11.07,2.1,12.3-2.2.19-.66-1.5-1.7-1.73-.91-1.07,3.73-9.34,1.68-12.34,1.62-5.24-.1-7.33,1.57-8.23,6.7-.34,1.91-.13,5-1.63,6.48q-5.75.36-5.88-3.48a17.81,17.81,0,0,1,0-2.66,26.13,26.13,0,0,1,.57-4.14c1.27-5.6,5.13-9.08,10-11.74.69-.38-.78-1.7-1.4-1.36Z"/><ellipse class="cls-1" cx="122.17" cy="161.85" rx="2.32" ry="2.9"/><path class="cls-2" d="M122.17,165.25a3.46,3.46,0,1,1,2.82-3.4A3.16,3.16,0,0,1,122.17,165.25Zm0-5.8a2.49,2.49,0,1,0,1.82,2.4A2.17,2.17,0,0,0,122.17,159.45Z"/><ellipse class="cls-1" cx="148.53" cy="159.85" rx="2.32" ry="2.9"/><path class="cls-2" d="M148.53,163.25a3.46,3.46,0,1,1,2.82-3.4A3.16,3.16,0,0,1,148.53,163.25Zm0-5.8a2.49,2.49,0,1,0,1.82,2.4A2.17,2.17,0,0,0,148.53,157.45Z"/><path class="cls-2" d="M57.77,99.92c-2.32,1.17-2.95,3.17-1.93,5.52.27.62,2,1.27,1.59.23-.84-1.94-.09-3.46,1.74-4.38.69-.35-.76-1.68-1.4-1.36Z"/></svg>