<svg id="Icons" xmlns="http://www.w3.org/2000/svg" viewBox="0 0 262.94 287.25"><defs><style>.cls-1{fill:#fff;}.cls-2{fill:#eaecf2;}</style></defs><title>home-og-garden</title><path class="cls-1" d="M40.69,31.59C71.07,19.28,117.15,25.7,146,44.86c10.21,6.78,24.53,24.43,28.89,36.21"/><path class="cls-1" d="M86.31,162.54c-3.85,11.52,21.44,14.29,29.29,13.23,10-1.35,8.58-13-.62-20.24-4.87-3.81-14.42-5.83-20.25-3.63-3.28,1.24-11.32,7.15-7.16,11"/><path class="cls-2" d="M111.85,176.92c-7.72,0-20.56-1.93-25.14-7.47a7.13,7.13,0,0,1-1.3-7.21l.6.2a4,4,0,0,1-.48-2.88c.77-4,6.57-7.68,8.86-8.54,5.88-2.21,15.77-.45,21.17,3.77,5.81,4.54,8.93,11.16,7.59,16.09-.88,3.23-3.51,5.3-7.42,5.83A30,30,0,0,1,111.85,176.92ZM87,163.44a5.2,5.2,0,0,0,1.13,4.8c5,6,21.61,7.36,27.31,6.59,3.16-.43,5.18-2,5.85-4.45,1.14-4.22-1.71-10-6.93-14.11-4.87-3.81-14.08-5.47-19.34-3.49-2.39.9-7.12,4.29-7.67,7.13a2.26,2.26,0,0,0,.81,2.24Z"/><path class="cls-1" d="M67.72,166c.66,4.82-3.73,12.29-5.6,16.69-2.15,5.07-4.49,10-7,14.8-4.59,8.81-9.32,17.9-14.73,26.22-2.66,4.09-4.81,8.52-7.55,12.6-1.54,2.29-8,8.62-7.64,10.64l3.7-3.16c-2.76,3.49-5.1,9.3-9.06,11.35-4.93,2.55-10.37-1-9.05-6.29,1.1-4.38,3.13-8.66,5-12.94,3.44-8.07,7.46-15.85,11-23.94,3.85-8.74,6.24-16.87,8.74-25.88,2.79-10,7.87-22.94,8-33.53"/><path class="cls-2" d="M16.49,256.92a7.12,7.12,0,0,1-4.44-1.5,6.44,6.44,0,0,1-2.19-6.8,70.72,70.72,0,0,1,4-10.81c.33-.76.66-1.51,1-2.27,1.88-4.4,4-8.78,6-13,1.69-3.56,3.44-7.25,5.07-10.94,3.85-8.74,6.22-16.84,8.7-25.76.69-2.49,1.51-5.12,2.38-7.9,2.57-8.22,5.48-17.54,5.54-25.38h1.89c-.06,8.12-3,17.58-5.62,25.93-.86,2.77-1.68,5.38-2.36,7.84-2.5,9-4.88,17.15-8.79,26-1.63,3.71-3.39,7.41-5.09,11-2,4.22-4.07,8.58-5.94,12.95l-1,2.29a69.12,69.12,0,0,0-3.92,10.51,4.54,4.54,0,0,0,1.53,4.86,5.66,5.66,0,0,0,6.17.36c2-1,3.62-3.23,5.12-5.57l-.26-1.63c-.27-1.69,1.93-4.39,5.31-8.3,1-1.2,2-2.34,2.47-3,1.44-2.14,2.74-4.42,4-6.63,1.12-2,2.29-4,3.55-6,5.38-8.28,10.11-17.36,14.68-26.14,2.63-5,4.91-9.86,7-14.74.42-1,1-2.11,1.52-3.3,2-4.19,4.49-9.41,4-12.89l1.87-.26c.55,4-2.07,9.54-4.18,14-.56,1.18-1.09,2.29-1.49,3.23-2.09,4.92-4.39,9.79-7,14.87-4.59,8.82-9.34,17.94-14.77,26.29-1.23,1.9-2.38,3.91-3.49,5.86-1.28,2.24-2.59,4.55-4.07,6.75-.52.77-1.49,1.89-2.61,3.19-.69.8-1.71,2-2.63,3.13l1.26,1.22a41.66,41.66,0,0,0-2.52,3.77c-1.93,3.11-3.92,6.32-6.84,7.83A8.25,8.25,0,0,1,16.49,256.92Z"/><path class="cls-1" d="M102.06,157.18c1.94-2.78,18.08-3.52,21.44-2.52,4.45,1.33,7,5.61,8.49,9.76,3.21,8.79-1.74,18.46-7.17,25.51-2.65,3.44-4.94,7.06-7.54,10.47s-7,8.6-9.47,3.95c-2.29-4.25-.63-10.16-.39-14.73.26-5,.91-10.81-.31-15.44a25.49,25.49,0,0,0-1.9-5.35"/><path class="cls-2" d="M110.29,207.12H110A3.84,3.84,0,0,1,107,204.8c-1.86-3.45-1.33-7.8-.86-11.64.15-1.27.3-2.47.36-3.58,0-.79.09-1.6.14-2.42.27-4.21.57-9-.42-12.73a24.74,24.74,0,0,0-1.81-5.13l1.66-.91a26.41,26.41,0,0,1,2,5.56c1.07,4,.75,9,.48,13.33-.05.82-.1,1.62-.14,2.4-.06,1.18-.21,2.41-.37,3.71-.45,3.73-.92,7.6.65,10.52.68,1.26,1.33,1.31,1.54,1.33,1.41.09,3.53-1.71,6.34-5.4,1.24-1.63,2.44-3.35,3.6-5s2.55-3.66,3.93-5.46c5-6.45,10.21-15.95,7-24.61-1.86-5.09-4.51-8.18-7.87-9.18s-18.86,0-20.39,2.16l-1.55-1.08c2.3-3.29,19-3.91,22.48-2.88,4,1.18,7,4.67,9.11,10.35,3.46,9.47-2.06,19.59-7.31,26.41-1.35,1.76-2.64,3.6-3.88,5.38s-2.38,3.42-3.65,5.08C115.83,203.86,113,207.12,110.29,207.12Z"/><path class="cls-2" d="M1.57,262.39c0,7.43,5.37,8.28,11.66,9.21s11.31,1.19,17.3-1.41c-.18-.4-.52-.37-.92-.55"/><path class="cls-2" d="M20.53,273.2a51.12,51.12,0,0,1-7.44-.67C7,271.63.65,270.71.62,262.39H2.52c0,6.36,4.13,7.29,10.85,8.27s11,1.06,16.29-1.13l.34-.75.22.08a1.71,1.71,0,0,1,1.17.95l.39.87-.88.38A25.2,25.2,0,0,1,20.53,273.2Z"/><path class="cls-2" d="M8.5,267.75c1.49,9.32,14.13,11.33,21.42,12,4.57.45,21.74-1.33,18.27-9.52"/><path class="cls-2" d="M31.37,280.78c-.64,0-1.16,0-1.54-.06-5.08-.5-20.54-2-22.26-12.83l1.87-.3c1,6.32,7.74,10,20.58,11.25,3.69.36,14.25-.79,17-4.58a3.45,3.45,0,0,0,.28-3.63l1.74-.74a5.33,5.33,0,0,1-.49,5.49C45.35,279.76,35.72,280.78,31.37,280.78Z"/><path class="cls-2" d="M14.8,250.42c2.5-4.69-.69-10.72.31-15.75s6.51-5.78,11-6c4.77-.24,8.75.21,12.21,3.56,3.68,3.56,2.54,9.23-2.76,10.32"/><path class="cls-2" d="M15.63,250.87,14,250c1.29-2.42.88-5.33.45-8.4a21.28,21.28,0,0,1-.22-7.09c1.25-6.23,8.45-6.59,11.91-6.76,5.12-.25,9.27.3,12.91,3.82a7.34,7.34,0,0,1,2.17,7.25,6.74,6.74,0,0,1-5.4,4.67l-.38-1.85a4.91,4.91,0,0,0,4-3.34,5.46,5.46,0,0,0-1.67-5.37c-3.16-3.06-6.74-3.53-11.5-3.29-5.51.28-9.35,1.27-10.15,5.24a19.62,19.62,0,0,0,.24,6.45C16.74,244.55,17.22,247.9,15.63,250.87Z"/><path class="cls-2" d="M109.3,232.15c2.95-2.61,10.27-2.91,14.19-2.54,2.89.27,10,1.6,12.21,3.54,4.37,3.84-.4,7.78-3.64,9.47-4.35,2.26-8.79,3.64-13.94,3.09-3.35-.36-7.76-2.18-9.45-5.06-1.26-2.14-1.75-9.47,2.2-8.82"/><path class="cls-2" d="M120.41,246.78a22.37,22.37,0,0,1-2.39-.13c-3.55-.38-8.25-2.27-10.17-5.52-1-1.7-1.69-6.5-.05-8.89a3.19,3.19,0,0,1,1.2-1.07c3.54-2.72,11-2.83,14.58-2.5,3,.28,10.3,1.62,12.74,3.77a5.1,5.1,0,0,1,2,4.53c-.42,3.41-4.6,5.83-5.87,6.49A25.7,25.7,0,0,1,120.41,246.78Zm-10.5-13.95a1.28,1.28,0,0,0-.54.48c-1.07,1.56-.7,5.47.12,6.87,1.5,2.54,5.62,4.26,8.74,4.6,4.39.47,8.52-.46,13.4-3,2.09-1.09,4.63-3.06,4.87-5a3.31,3.31,0,0,0-1.42-2.88c-1.87-1.64-8.49-3-11.67-3.31-3.43-.33-9.49-.11-12.59,1.68l-.09.53a1.51,1.51,0,0,0-.72,0l-.07.06Z"/><path class="cls-1" d="M14.71,250.21c-2,.8-3.66.53-4.24-2.33-4.79.4-11.5,12.87-9,17.12,2,3.38,5.49,1,8.09,2.23,1.57.77,2.16,2.89,3.38,4.1a23.18,23.18,0,0,0,5.3,3.42c4.55,2.49,9,2.5,14.18,2.44,10-.12,20-4.46,18.28-16.38-1.2-8.46-5.82-16.16-14.5-18-4-.82-8.9.06-12.6,1.49-4.94,1.91-11.22,6.63-9.73,12.45,1.42,5.53,7.93,9.53,13.18,10.64,4.66,1,24.35,1.77,23.64-6.32"/><path class="cls-2" d="M30.26,278.16c-4.23,0-8.3-.29-12.46-2.57l-.8-.43A19.84,19.84,0,0,1,12.29,272a10,10,0,0,1-1.4-1.91,5.08,5.08,0,0,0-1.73-2,5.82,5.82,0,0,0-2.83-.27c-1.85.1-4.14.23-5.66-2.33s-.19-7.2,1.59-10.64,5-7.63,8.13-7.89l.84-.07.17.82a2.71,2.71,0,0,0,1,1.83,2.46,2.46,0,0,0,2-.18l.19.48a19.55,19.55,0,0,1,8.72-6.35c3.46-1.34,8.73-2.44,13.14-1.53,8.12,1.68,13.82,8.69,15.24,18.75.65,4.61-.3,8.45-2.84,11.41-3.27,3.81-9.08,6-16.36,6ZM7.42,265.87a5.76,5.76,0,0,1,2.57.5,6.59,6.59,0,0,1,2.51,2.72,8.48,8.48,0,0,0,1.12,1.56,18.39,18.39,0,0,0,4.27,2.82l.82.44c4.44,2.43,8.95,2.38,13.72,2.32,3.9,0,11-.81,14.95-5.39a10.57,10.57,0,0,0,2.42-5.34c-5.2,4.59-19.69,3.53-22.92,2.85C21.1,267.15,14.47,262.86,13,257a8,8,0,0,1,.59-5.53,3.35,3.35,0,0,1-2.08-.32A3.71,3.71,0,0,1,9.8,249c-1.81.71-4.11,3.29-5.86,6.69-1.91,3.71-2.57,7.25-1.64,8.81s2,1.51,3.93,1.41C6.61,265.9,7,265.87,7.42,265.87ZM32.9,243.49A26.1,26.1,0,0,0,24,245.23c-3.79,1.47-10.59,5.73-9.15,11.34,1.29,5,7.38,8.88,12.46,10,3.49.74,16.95,1.43,21.29-2.42a3.28,3.28,0,0,0,1.21-2.88h0l0-.26c-1.31-9.23-6.45-15.65-13.75-17.16A15.45,15.45,0,0,0,32.9,243.49Z"/><path class="cls-2" d="M101.74,217.5c2.33-2.65,2.71-6.5,2-9.92-.55-2.71-2.19-5,.36-7.21,4.1-3.51,11.15-3.84,15.44-.31,2.64,2.18,4.06,7.52,0,8.62"/><path class="cls-2" d="M102.45,218.13,101,216.88c1.88-2.14,2.54-5.46,1.8-9.11-.12-.57-.29-1.14-.46-1.69-.62-2-1.32-4.33,1.13-6.43,4.53-3.88,12.15-4,16.65-.32a7.94,7.94,0,0,1,2.77,7.07,4.13,4.13,0,0,1-3.13,3.19l-.5-1.82a2.24,2.24,0,0,0,1.78-1.76,6.09,6.09,0,0,0-2.13-5.22c-3.83-3.16-10.35-3-14.22.3-1.44,1.23-1.18,2.37-.55,4.44.18.6.37,1.21.5,1.87C105.54,211.62,104.73,215.53,102.45,218.13Z"/><path class="cls-1" d="M107.73,214.51c-5.36,1.19-9.64,6.19-12.06,11-2.14,4.23-5.51,12.2-4.59,17.05,8.76-4.68,16.79-12.4,26.8-13.45,5.37-.56,9.94.86,14.41,2.84,1.62.72,5.21,1.34,5.36,5.59,1.25-.79,2.47-8.87,2.54-10.06.34-5.75-8.89-11.32-13.56-13.33a19.92,19.92,0,0,0-10.08-1.8c-1.84.21-9.48,1.37-9.76,2.2"/><path class="cls-2" d="M90.39,244l-.24-1.26c-1.08-5.7,3.31-15,4.68-17.66,2.76-5.44,6.84-9.43,11.14-11,1-1.55,8.87-2.5,10.47-2.68A20.8,20.8,0,0,1,127,213.24c5,2.18,14.5,8,14.13,14.25,0,.09-1,9.58-3,10.81l-1.39.88-.06-1.64c-.11-3-2.24-3.79-3.94-4.43-.32-.12-.61-.23-.86-.34-3.81-1.69-8.45-3.35-13.93-2.77-6.71.71-12.68,4.63-18.45,8.42-2.59,1.7-5.28,3.47-8,4.92Zm17.43-29,.11.49c-4.31,1-8.58,4.87-11.42,10.46-2.41,4.75-4.74,11-4.64,15.11,2.23-1.27,4.45-2.73,6.61-4.15,6-3.92,12.13-8,19.29-8.72,5.92-.62,10.85,1.13,14.89,2.92.22.1.47.19.75.29,1.29.48,3.41,1.26,4.49,3.36a54.23,54.23,0,0,0,1.33-7.31c.29-4.83-7.82-10.17-13-12.41a18.71,18.71,0,0,0-9.6-1.73A57.58,57.58,0,0,0,107.82,214.94Z"/><path class="cls-1" d="M106.78,225.54c0-5-3.5-8.39,1.26-12,3.71-2.8,10.53-4.79,15.12-5,7.24-.39,19.22,6,17.4,15.19-.83,4.2-3.32,1.91-6.13.32-6.85-3.86-16.11-2.2-19.14-1.27-2.11.65-6.23,3.32-8.19,2.14"/><path class="cls-2" d="M138.72,227.05a7.83,7.83,0,0,1-3.62-1.51c-.37-.23-.75-.46-1.14-.68-6.21-3.5-14.75-2.31-18.4-1.19a19.59,19.59,0,0,0-2,.84c-2.38,1.08-5.08,2.31-6.92,1.2l.11-.18h-.88a17,17,0,0,0-.67-4.14c-.71-2.83-1.44-5.77,2.3-8.58,3.92-3,11-5,15.64-5.23,5.26-.29,12,2.64,15.57,6.8a11,11,0,0,1,2.8,9.52c-.31,1.59-.91,2.56-1.82,3A2.33,2.33,0,0,1,138.72,227.05Zm-14.94-6.39a22.79,22.79,0,0,1,11.1,2.55c.41.23.81.47,1.2.71,1,.63,2.32,1.42,2.82,1.2.1,0,.47-.3.72-1.59a9.23,9.23,0,0,0-2.37-7.92,19.42,19.42,0,0,0-14-6.15c-4.32.23-11,2.11-14.6,4.85-2.74,2.06-2.29,3.88-1.6,6.62a24.36,24.36,0,0,1,.64,3.19c1,.52,3.47-.59,5.11-1.33a20.83,20.83,0,0,1,2.26-.93A31.72,31.72,0,0,1,123.78,220.66Z"/><path class="cls-2" d="M105.73,235.93c8.24-2.88,15.62-4.57,24.06-1,4,1.72,8,3,3.22,7.17-2.84,2.49-7.95,2.34-10.06,4.7"/><path class="cls-2" d="M123.66,247.48l-1.41-1.26c1.25-1.4,3.2-2,5.26-2.6a13.16,13.16,0,0,0,4.88-2.18c1.73-1.52,1.9-2.33,1.84-2.68-.15-.94-2.24-1.82-4.09-2.6l-.73-.31c-7.73-3.31-14.42-2.15-23.37,1l-.62-1.78c7.5-2.62,15.58-4.85,24.74-.93l.72.3c2.52,1.06,4.9,2.07,5.22,4,.22,1.34-.56,2.74-2.46,4.4a14.51,14.51,0,0,1-5.58,2.57C126.25,246,124.55,246.48,123.66,247.48Z"/><path class="cls-1" d="M81.8,38.64c-5,6.76-10.73,15-14.83,20.89-5.61,8-9.88,17.11-13.64,26.13-5.85,14-13.09,29.36-15.23,44C36.33,141.79,41.13,153.4,52,162c8.19,6.51,15.76,10.42,27.4,5.88,8.78-3.42,31.61-14.57,36.95-22.25,2.57-3.7,4.82-7.81,7.48-11.37,1.94-2.6,4.49-3.12,6.72-5,4.72-4,3-12.55,3.86-18.4,1-6.3,7-30.79,8.75-36.61,1.95-6.39,1.07-13.87.82-20.6-.32-8.49-2.89-13.38-8.3-19.85C129.29,26.17,124.21,26,115,25.52c-4.51-.22-15.65-1.84-22.76.07"/><path class="cls-2" d="M69.9,170.8c-6.73,0-12.37-3.17-18.51-8.05-11-8.76-16.07-20.56-14.22-33.22s7.33-25.47,12.63-37.93c.91-2.13,1.8-4.23,2.67-6.31C55.68,77.59,60.15,67.63,66.2,59L68,56.4c3.9-5.57,8.75-12.5,13-18.32l1.52,1.12c-4.26,5.8-9.11,12.73-13,18.29l-1.81,2.59c-6,8.49-10.36,18.33-13.54,26-.87,2.08-1.77,4.19-2.67,6.32-5.26,12.34-10.69,25.1-12.5,37.46-1.75,12,3.05,23.14,13.52,31.46,8.59,6.83,15.67,10,26.47,5.74,8.59-3.35,31.3-14.41,36.52-21.91,1.11-1.6,2.18-3.3,3.22-5,1.36-2.16,2.76-4.4,4.28-6.44a12.78,12.78,0,0,1,4.31-3.48,16.57,16.57,0,0,0,2.56-1.69c3-2.56,3.11-7.41,3.2-12.09a44.58,44.58,0,0,1,.34-5.72c1-6.29,6.93-30.68,8.78-36.75,1.56-5.13,1.25-11,.95-16.73-.06-1.2-.13-2.39-.17-3.56-.33-8.52-3-13.18-8.08-19.29-6.05-7.25-10.65-7.47-19.79-7.93h-.21c-.93,0-2.15-.15-3.55-.27C106,25.73,98,25,92.46,26.51L92,24.68c5.82-1.57,14.09-.85,19.57-.37,1.37.12,2.56.22,3.48.27h.21c9.08.45,14.56.72,21.15,8.6,5.26,6.29,8.17,11.41,8.52,20.42,0,1.16.11,2.34.17,3.53.31,5.87.63,11.93-1,17.38-1.79,5.87-7.8,30.42-8.72,36.48a43.29,43.29,0,0,0-.32,5.47c-.09,4.87-.19,10.39-3.87,13.5a18.27,18.27,0,0,1-2.84,1.89,11.08,11.08,0,0,0-3.74,3c-1.48,2-2.86,4.18-4.19,6.31-1,1.67-2.13,3.4-3.27,5-5.77,8.29-29.76,19.62-37.38,22.59A26.91,26.91,0,0,1,69.9,170.8Z"/><path class="cls-2" d="M88.4,98.7a23.17,23.17,0,0,0-.52,5.67,42.81,42.81,0,0,0,.71,8.85c1.21,5.58,4.71,12,10,14.67,1.6.8,5.35,2.29,7.13,2.23,4.1-.16,3.38-.87,4.41-3.91,1.59-4.69,3.89-14.52,7.25-18.06"/><path class="cls-2" d="M105.62,131.06c-2.09,0-5.89-1.55-7.44-2.33-6-3-9.38-10.1-10.51-15.31a43.73,43.73,0,0,1-.74-9.05,24,24,0,0,1,.54-5.86l1.85.37a22.28,22.28,0,0,0-.51,5.48,42,42,0,0,0,.69,8.65c1,4.8,4.15,11.35,9.5,14,1.81.9,5.2,2.18,6.67,2.13,2.65-.1,2.67-.16,3.1-1.75.12-.43.25-.93.45-1.51.35-1,.74-2.34,1.16-3.74,1.57-5.24,3.53-11.75,6.29-14.67l1.37,1.3c-2.46,2.59-4.42,9.13-5.85,13.91-.42,1.41-.82,2.74-1.18,3.8-.18.54-.31,1-.42,1.4-.65,2.39-1.29,3-4.85,3.15Z"/><path class="cls-2" d="M120.8,109.62c-4.4,0-28.74-3.88-33.85-11.47a5.06,5.06,0,0,1-.58-5l1.75.72a3.17,3.17,0,0,0,.4,3.18c4.37,6.48,27.26,10.64,32.25,10.64h.07l0,1.89Z"/><path class="cls-1" d="M92.92,121.9c.5,4.23,11.85,9.93,15.28,6.88,2.66-2.37-.75-5.27-2.94-6a6.59,6.59,0,0,0-4.36,0c-2,.65-1.65.6-3.57-.27-1.24-.56-3.34-1.45-4.19,0,.4.2-.18-.13,0-.17"/><path class="cls-2" d="M105.37,130.59a13.86,13.86,0,0,1-4.82-1c-3.5-1.33-7.18-3.86-8.27-6.45l-.46-.22.24-.41A3.55,3.55,0,0,1,92,122l.23,0,.11-.44.46-.11c1.45-1.41,3.95-.27,5,.19l.61.29c.85.4.85.4,2,0l.27-.09a7.47,7.47,0,0,1,4.95,0c1.5.5,4,2.12,4.49,4.34a3.31,3.31,0,0,1-1.22,3.26A5.09,5.09,0,0,1,105.37,130.59Zm-11.16-7.82c1,1.73,3.81,3.81,7,5,2.87,1.1,5.31,1.2,6.35.28a1.45,1.45,0,0,0,.63-1.47c-.24-1.17-1.9-2.48-3.24-2.93a5.63,5.63,0,0,0-3.77,0l-.27.09c-1.65.54-1.92.58-3.39-.12l-.59-.28c-1.39-.63-2.27-.83-2.73-.61Z"/><path class="cls-1" d="M92.92,122.11c3.36-1.44,8.15-.23,9.66,3.15"/><path class="cls-2" d="M101.72,125.65c-1.33-3-5.62-3.87-8.42-2.67l-.75-1.74c3.67-1.58,9.11-.36,10.9,3.63Z"/><path class="cls-2" d="M108.2,101.45c4.55,2.54,11.24.94,15.66-1.26.84-.42,1.62-1.72.16-1-4,2-9.86,3.23-13.95.95-.55-.31-2.37,1-1.88,1.3Z"/><path class="cls-1" d="M133.66,62.05c-6.09-.16-12,9.58-13,12.71a22.42,22.42,0,0,0-.94,5.88c0,1.59-.12,3.1.81,4.52a8.58,8.58,0,0,0,8,3.67,10.2,10.2,0,0,0,7.72-6.46c2.68-6.93,2.52-15.35,1.57-17.32-.82-1.71-2.36-3.31-4.57-3"/><path class="cls-2" d="M127.52,89.84a9.57,9.57,0,0,1-7.8-4.16,7.5,7.5,0,0,1-1-4.52v-.51a23.33,23.33,0,0,1,1-6.17c.88-2.69,6.58-13,13.36-13.35h0c2.27-.32,4.34,1,5.55,3.52,1,2.15,1.24,10.87-1.54,18.08a11.16,11.16,0,0,1-8.47,7.05A8.32,8.32,0,0,1,127.52,89.84Zm6-26.84c-5.29,0-11,8.93-12,12.05a21.47,21.47,0,0,0-.9,5.59v.53a5.86,5.86,0,0,0,.66,3.47,7.65,7.65,0,0,0,7.09,3.25,9.22,9.22,0,0,0,7-5.86c2.61-6.76,2.4-14.93,1.61-16.58-.38-.8-1.47-2.62-3.32-2.49v0Z"/><path class="cls-1" d="M94.6,58.8c2.56-2.1,5.12-4.25,8.5-4.41,1.78-.08,3.46,0,4.83,1.16a7.38,7.38,0,0,1,2.12,4c1,4.54-1,13.17-1.57,14.75-1.39,4-2.23,6.17-5.17,6.8a8.53,8.53,0,0,1-4.83-.5c-6.1-1.91-11.11-8.42-8.74-14.75a.23.23,0,0,0,0-.19S92.35,60.65,94.6,58.8Z"/><path class="cls-2" d="M101.82,82.17a11.78,11.78,0,0,1-3.62-.72A15.1,15.1,0,0,1,89.37,74a10.56,10.56,0,0,1-.58-8.33l0-.13.17-.33C89,65,91.63,60,94,58.07l.1-.08c2.61-2.15,5.3-4.37,9-4.54a7.57,7.57,0,0,1,5.48,1.37A8.35,8.35,0,0,1,111,59.3c1.08,4.8-1.06,13.72-1.61,15.27C108,78.43,107,81.22,103.52,82A8,8,0,0,1,101.82,82.17Zm-11.21-16a8.77,8.77,0,0,0,.46,7,13.16,13.16,0,0,0,7.69,6.5,7.66,7.66,0,0,0,4.35.48c2.39-.52,3.1-2.27,4.47-6.19.49-1.4,2.53-9.89,1.54-14.23a6.66,6.66,0,0,0-1.8-3.44c-1.08-.89-2.46-1-4.19-.94-3,.14-5.37,2.07-7.85,4.11l-.1.08c-1.83,1.51-4,5.42-4.49,6.34A1.19,1.19,0,0,1,90.61,66.19Z"/><ellipse class="cls-2" cx="128.99" cy="83.47" rx="4.46" ry="5.15"/><path class="cls-2" d="M129,89.56c-3,0-5.41-2.73-5.41-6.09S126,77.38,129,77.38s5.41,2.73,5.41,6.09S132,89.56,129,89.56Zm0-10.29c-1.94,0-3.52,1.88-3.52,4.2s1.58,4.2,3.52,4.2,3.52-1.88,3.52-4.2S130.93,79.27,129,79.27Z"/><circle class="cls-2" cx="102.16" cy="76.86" r="4.41"/><path class="cls-2" d="M102.16,82.21a5.36,5.36,0,1,1,5.36-5.36A5.36,5.36,0,0,1,102.16,82.21Zm0-8.82a3.46,3.46,0,1,0,3.46,3.46A3.47,3.47,0,0,0,102.16,73.39Z"/><path class="cls-2" d="M96.09,49.25a1.16,1.16,0,0,1-.85-.37c-1-1.12.41-5.05,1.12-5.93l1.47,1.19a8.3,8.3,0,0,0-1.07,3.67.65.65,0,0,0-.37-.39.64.64,0,0,0-.54,0L96.92,49A1.45,1.45,0,0,1,96.09,49.25Z"/><path class="cls-2" d="M96.87,49l-1-1.63c3.11-1.83,7.51-1.26,11.4-.75.83.11,1.64.21,2.4.29l-.19,1.88c-.78-.08-1.61-.19-2.46-.3C103.48,48,99.41,47.5,96.87,49Z"/><path class="cls-2" d="M140.3,64.73a.91.91,0,0,1-.63-.24,69.29,69.29,0,0,0-7.25-5.62c-1-.68-1.88-1.33-2.73-2a.94.94,0,0,1,1.12-1.52c.84.62,1.76,1.27,2.7,1.94,2,1.43,4.25,3,6.16,4.63a2.84,2.84,0,0,0-.21-1.49.95.95,0,1,1,1.68-.87c.74,1.42.36,3.2.12,4.37a1,1,0,0,1-.65.73A1,1,0,0,1,140.3,64.73Z"/><path class="cls-1" d="M259,247.9l-66.15-3.36L154,249l2.94.84a211.38,211.38,0,0,0,42,6.3c3.74.14,7.35.92,11.18.64a98.65,98.65,0,0,0,11.5-1.89c6.2-1.21,12.56-2.16,18.74-3.11,3-.46,6-.63,9-.89,1.92-.16,4-.75,5.88-.63"/><path class="cls-2" d="M208.45,257.43a52.52,52.52,0,0,1-5.37-.36c-1.35-.14-2.75-.28-4.13-.33-13-.5-26.39-2.5-42.13-6.32l-6.08-1.74,42.13-4.78h.05l66.15,3.36-.06,1.28-66.1-3.36-35.55,4C172.89,253,186.13,255,199,255.45c1.42.05,2.84.2,4.22.34a39.87,39.87,0,0,0,6.89.3,78.91,78.91,0,0,0,9.59-1.51l1.84-.36c5.56-1.08,11.28-2,16.81-2.82l1.95-.3c2.34-.36,4.71-.55,7-.73l2-.16c.68-.06,1.38-.17,2.12-.29a17.5,17.5,0,0,1,3.86-.34l-.08,1.28a16.43,16.43,0,0,0-3.57.32c-.73.12-1.48.24-2.22.3l-2,.16c-2.28.18-4.63.36-6.92.72l-2,.3c-5.52.85-11.23,1.73-16.76,2.81l-1.83.36a79.66,79.66,0,0,1-9.75,1.54C209.61,257.41,209,257.43,208.45,257.43Z"/><path class="cls-2" d="M186.16,249a66.67,66.67,0,0,1,10.3-.63c1.08,0,8.41.13,7.4,2-.74,1.35-7.85.57-9.35.57-1.32,0-8-.37-7.51-1.26"/><path class="cls-2" d="M200,251.69c-1.12,0-2.45-.06-4-.15-.65,0-1.17-.07-1.46-.07-.07,0-7.33-.08-8.07-1.39a.8.8,0,0,1-.1-.52h-.09l-.2-1.24a67.87,67.87,0,0,1,10.4-.64c2.1,0,7.08.16,8,1.66a1.2,1.2,0,0,1,0,1.23C204,251.4,202.47,251.69,200,251.69Zm-12.45-2.29c.71.43,5.14.81,7,.81.31,0,.86,0,1.54.07,4.45.27,6.89.16,7.26-.32-.29-.53-3.5-1-6.85-1A72.38,72.38,0,0,0,187.51,249.4Zm-.67.09.7.42a.45.45,0,0,0,0-.51Z"/><path class="cls-1" d="M171.57,234.46c-1.26.94-1.75,3.27-2.18,4.72a22.36,22.36,0,0,0-.55,5.25c-.1,1.94-.54,3.51,1.68,4s3.09-.89,2.36-2.94a16.83,16.83,0,0,1-.58-5.78v-3.15a4.81,4.81,0,0,0-.16-1.57c-.3-.52-.78-.49-1,.21"/><path class="cls-2" d="M206.64,250.42c2.23-.68,5.8-.56,8.19-.63a30.77,30.77,0,0,1,8.58.79c-2.76,2.52-6,2-8.43,2a28.8,28.8,0,0,1-9.65-1.34,2.94,2.94,0,0,1,1.15-.55"/><path class="cls-2" d="M217.4,253.23l-1.31,0-1.11,0a29.24,29.24,0,0,1-9.86-1.38l-1-.36.82-.71a3.51,3.51,0,0,1,1.6-.7l-.06-.21a26.9,26.9,0,0,1,6.76-.63l1.6,0c2.15-.07,6.4,0,8.8.82l1,.34-.8.73A8.9,8.9,0,0,1,217.4,253.23ZM206.84,251a30.45,30.45,0,0,0,8.14.9l1.15,0c1.87.06,4,.13,5.86-1.07a36.19,36.19,0,0,0-7.15-.45l-1.62,0A26.76,26.76,0,0,0,206.84,251Zm-.34.26Zm-.06-.38.38.11-.26-.84Z"/><path class="cls-2" d="M163.32,248.06c3-1.08,7.69-.62,10.95-.95,1.09-.11,4.88.24,5.18,1,1.2,3-15.09.55-17.23,0"/><path class="cls-2" d="M175.18,250.21a86.78,86.78,0,0,1-13.11-1.49l.31-1.22.81.18-.08-.22a24.53,24.53,0,0,1,7.44-.83c1.32,0,2.57,0,3.66-.15.42,0,5.27,0,5.83,1.38a1.26,1.26,0,0,1-.21,1.36C179.19,250,177.4,250.21,175.18,250.21Zm-9.32-2.08c5,.72,12.46,1.28,13,.25-.39-.37-3.42-.76-4.55-.65s-2.42.13-3.77.16A43.4,43.4,0,0,0,165.86,248.13Z"/><path class="cls-2" d="M198.34,245.17c-2.27-.84-8.51-.73-10.48.58,2.52,1.18,5.46.75,8.17.89,2.17.11,4.95.71,6.75-.42-1.53-1.1-4.23-.63-6.12-.63"/><path class="cls-2" d="M199.79,247.52c-.8,0-1.6-.07-2.37-.15-.49,0-1-.09-1.42-.11-.69,0-1.39,0-2.1,0a14.38,14.38,0,0,1-6.31-.92l-1-.48.94-.62c2.28-1.51,8.74-1.5,11-.64l-.12.31c1.65-.08,3.45-.08,4.7.81l.77.55-.8.5A6.19,6.19,0,0,1,199.79,247.52Zm-1.72-1.35a13.37,13.37,0,0,0,2.82,0A15.19,15.19,0,0,0,198.08,246.17Zm-3.6-.2c.53,0,1.06,0,1.58,0l.6,0v-.62a21.21,21.21,0,0,0-7,.27,19.51,19.51,0,0,0,4.19.28Z"/><path class="cls-2" d="M220.6,246.85c-4,0-11-1.75-14.52.4,1.27,2.19,14.53,2.48,14.27.47a6.35,6.35,0,0,0-4,0"/><path class="cls-2" d="M214.61,249.7c-3.8,0-8.21-.64-9.07-2.13l-.31-.53.53-.32c2.7-1.65,7.07-1.2,10.93-.8,1.45.15,2.81.29,3.92.3v.93l.33.12,0,.38c.06.46-.13,1.09-1.36,1.51A18.08,18.08,0,0,1,214.61,249.7Zm-7.36-2.32a17.58,17.58,0,0,0,5.63,1,21.91,21.91,0,0,0,6.05-.34,5.46,5.46,0,0,0-2.31.23l-.42-1.15C213,246.81,209.57,246.49,207.25,247.38Z"/><path class="cls-2" d="M237.4,246.43c-2.32.76-13.7-1.08-13.2,3.33,3.69,1.06,8.1.88,11.94,1.08,2.17.11,6.16.53,7.16-1.89-1.4-1.63-3.65-1.48-5.65-1.69-1.56-.16-4-.9-5.29-.41"/><path class="cls-2" d="M238.51,251.57c-.7,0-1.36,0-1.93-.07l-.47,0c-.91,0-1.86-.07-2.82-.1a38,38,0,0,1-9.26-1l-.41-.12,0-.42a2.51,2.51,0,0,1,.62-2c1.59-1.78,5.89-1.78,9.34-1.77a17.49,17.49,0,0,0,3.67-.19l.25.78.26,0,1,.08c1.74.13,3.72.27,5,1.82l.25.29-.15.36C243.06,251.2,240.64,251.57,238.51,251.57Zm-13.68-2.29a39.75,39.75,0,0,0,8.49.83c1,0,1.93.05,2.85.1l.48,0c2,.12,4.88.29,5.88-1.18-1-.88-2.4-1-3.89-1.08l-1.06-.09c-.47,0-1-.15-1.59-.25a8.29,8.29,0,0,0-3.42-.2l-.06-.16c-2.88,0-6.31.14-7.39,1.35A1.2,1.2,0,0,0,224.83,249.28Z"/><path class="cls-1" d="M29.29,76.33c-4.09-.05-7.73,3.84-10.51,6.46a14.73,14.73,0,0,0-4.41,11.59c.76,8.3,9.79,14.4,17.64,10.66,5.59-2.66,8.95-7.66,10.92-13.38,1.42-4.11,2.39-8.32-1-11.29-1-.9-2.17-2.32-3.45-2.94s-3-.14-4.37-.89"/><path class="cls-2" d="M27.08,107.12a13.13,13.13,0,0,1-6.51-1.77,14.06,14.06,0,0,1-7.13-10.88,15.68,15.68,0,0,1,4.7-12.36l.78-.74c2.78-2.67,6.23-6,10.29-6h.1l0,1.89h-.07c-3.31,0-6.45,3-9,5.45l-.79.75A13.72,13.72,0,0,0,15.32,94.3a12.33,12.33,0,0,0,6.18,9.41,10.8,10.8,0,0,0,10.11.49C36.39,101.92,39.9,97.6,42,91.36c1.58-4.57,2-7.88-.73-10.27-.33-.29-.67-.62-1-1a9.56,9.56,0,0,0-2.22-1.83A4.73,4.73,0,0,0,36.29,78a5.73,5.73,0,0,1-2.63-.6l.94-1.64a4.14,4.14,0,0,0,1.81.35,6.32,6.32,0,0,1,2.51.51,11,11,0,0,1,2.73,2.19c.32.32.63.63.93.89C46.8,83.37,44.87,89,43.83,92c-2.32,6.74-6.16,11.43-11.41,13.93A12.4,12.4,0,0,1,27.08,107.12Z"/><path class="cls-1" d="M26.77,78.64c-2.11,1.74-4.84,3.47-6.15,6.73-1.24,3.08-1.94,7.82-.1,10.7,5,7.88,13.51,9.36,18.38,5.83"/><path class="cls-2" d="M33,104.65a13,13,0,0,1-2.44-.23,16.73,16.73,0,0,1-10.83-7.84c-2-3.09-1.4-8,0-11.56,1.19-3,3.42-4.72,5.38-6.27l1-.83,1.21,1.46-1.07.86c-1.87,1.47-3.79,3-4.8,5.49-1.2,3-1.77,7.34-.18,9.84a14.87,14.87,0,0,0,9.59,7,9.58,9.58,0,0,0,7.43-1.43l1.11,1.53A11,11,0,0,1,33,104.65Z"/><path class="cls-2" d="M64.9,93.85c6.47,8.17,13,14.47,17.06,24.47a53.62,53.62,0,0,1,4.2,24.39c-6.83,1.67-15.54-27.4-19-32.84-3.06-4.77-6.94,1.23-10.44,1-7.05-.45-15.36-1.35-16.71,7.4-2.11-9.82-1.88-19.73,6.17-28.07"/><path class="cls-2" d="M85.56,143.73c-4.9,0-9.56-10.47-15.08-24a79.19,79.19,0,0,0-4.14-9.31c-1.38-2.16-2.67-1.56-5.21-.12a8.54,8.54,0,0,1-4.49,1.56l-.8-.05c-8-.53-13.83-.37-14.92,6.66l-.78,5.06-1.07-5c-1.68-7.82-2.84-19.33,6.41-28.93l1.36,1.31c-6,6.17-8,13.54-6.59,23.55,2.93-5.38,9.92-4.92,15.72-4.53l.79.05c1,.08,2.25-.64,3.44-1.31,2.25-1.28,5.32-3,7.74.74a77.36,77.36,0,0,1,4.3,9.62c3.42,8.41,9,22.19,13,22.84a52.53,52.53,0,0,0-4.17-23.14c-3.11-7.61-7.7-13.1-12.56-18.91-1.43-1.71-2.91-3.48-4.37-5.33l1.48-1.17c1.45,1.83,2.92,3.59,4.34,5.29,5,5.93,9.64,11.53,12.86,19.41a54.44,54.44,0,0,1,4.27,24.8l0,.7-.68.17A3.48,3.48,0,0,1,85.56,143.73Z"/><polyline class="cls-1" points="61.73 114.34 98.59 242.23 106.15 236.56 68.67 109.93"/><polygon class="cls-2" points="98.06 243.81 60.83 114.6 62.64 114.08 99.12 240.65 105.06 236.2 67.76 110.2 69.57 109.66 107.24 236.92 98.06 243.81"/><path class="cls-1" d="M121.27,281.29a27.42,27.42,0,0,1-12.6,2.52c-9.74-.61-17.39-7.41-23.24-14.88-3.47-4.42-7.11-9.24-8.77-14.68-.72-2.35-1.39-5.58-.21-7.92,1.6-3.14,5.21-2.67,8.34-3.71a13.91,13.91,0,0,0,8-5.64,14.63,14.63,0,0,1,7.77-4.77c5.79-1.51,7,2.15,11,5.18,4.82,3.71,11.23-.25,14.27,4.51a31.85,31.85,0,0,1,4.92,17c0,8.49-2.43,13.85-5.67,21.11"/><path class="cls-2" d="M109.92,284.79q-.67,0-1.31,0c-8.48-.53-16.31-5.52-23.92-15.24-3.76-4.8-7.27-9.56-8.93-15-1.14-3.75-1.19-6.57-.14-8.62,1.35-2.66,3.84-3.12,6.26-3.57a20,20,0,0,0,2.63-.61A13,13,0,0,0,92,236.41a15.44,15.44,0,0,1,8.28-5.1c4.84-1.26,7,.86,9.29,3.1a27.54,27.54,0,0,0,2.5,2.25c2,1.54,4.41,1.6,6.73,1.65,2.88.07,5.87.14,7.76,3.1a32.87,32.87,0,0,1,5.08,17.52c0,8.6-2.5,14.19-5.66,21.27l-.1.22-1.73-.77.1-.22c3.19-7.14,5.49-12.3,5.49-20.5a31,31,0,0,0-4.78-16.5c-1.35-2.11-3.5-2.16-6.21-2.23-2.51-.06-5.35-.12-7.84-2a29.7,29.7,0,0,1-2.67-2.4c-2.22-2.17-3.69-3.61-7.49-2.62a13.71,13.71,0,0,0-7.26,4.43,14.84,14.84,0,0,1-8.43,6,21.4,21.4,0,0,1-2.88.68c-2.23.41-4,.74-4.92,2.56-.8,1.58-.71,4,.27,7.21,1.56,5.12,5,9.72,8.61,14.38,7.26,9.27,14.64,14,22.55,14.51a26.26,26.26,0,0,0,12.14-2.43l.81,1.71A28.87,28.87,0,0,1,109.92,284.79Z"/><path class="cls-1" d="M99.54,286.65c1.39-2.88,3.17-2.2,5.43-3.69.92-.61,1.36-2,2.43-2.62.89-.5,3,0,3.73-.68,1.54-1.3,1.49-4.87,4.78-4.67,2.21.14,1.72,2.9,3.26,3.52.69.28,2.32-.86,3.19-.88a13.57,13.57,0,0,1,3.64.83c2.32.6,9.23-.69,8.86,2.8,3.14-.15,4.21.94,5,3.83"/><path class="cls-2" d="M99.53,287.25c1.21-1.94,2.46-2,4.34-3.1,1.28-.75,1.52-1.57,2.62-2.41s2.08-.65,3.29-1.12c2.62-1,4.38-7.14,7.54-4.21.77.72.61,2.33,1.81,2.71.87.27,1.84-.63,2.66-.73a8.6,8.6,0,0,1,3,.32c2.21.43,9.75-.14,9.95,2.83,0,0,0,.32.1.32,2.87,0,4.06,1,4.93,3.74.07.22.3-.81.22-1.08a5.16,5.16,0,0,0-3.33-3.82c-.54-.26-1.35-.55-1.71-.79s-.25-.8-.91-1.14c-2-1-4.32-.57-6.47-.8-.95-.1-1.75-.35-2.68-.53a7.56,7.56,0,0,0-2.45-.47,11.25,11.25,0,0,0-2.25.78c-2.62-.16-1.8-3-4.2-3.42-2.12-.34-2.54,1.41-3.53,2.65-1.6,2-2,1.82-4.13,2.47a3.7,3.7,0,0,0-1.78,1.06,8.22,8.22,0,0,1-1.53,1.81,19.67,19.67,0,0,1-3,1.31A5.86,5.86,0,0,0,99.54,286c-.19.3,0,1.19,0,1.22Z"/><path class="cls-2" d="M128.3,283.91a2.14,2.14,0,0,0-1.42-1.07,4.16,4.16,0,0,0-3.19.49l-1.05-1.57a6,6,0,0,1,4.73-.75,4,4,0,0,1,2.63,2.06Z"/><path class="cls-2" d="M111.53,286.53a3.54,3.54,0,0,1,1.24-3.87,3.83,3.83,0,0,1,4.32.37L116,284.59a2,2,0,0,0-2.19-.35,1.73,1.73,0,0,0-.44,1.89Z"/><path class="cls-1" d="M136.39,101.11c6.88,5.92,10.94,14.65,13.21,23,1.22,4.46,3,9.79.56,14.4-2,3.8-6.23,6.36-9.75,8.5-9.14,5.56-20.72,10-31.11,10.47-4.65.23-10.79-8.06-5.36-11.34,3.92-2.37,8.64-2.87,12.6-5.67s14-6.69,16.38-10.71c1.9-3.26,2.64-9,1.57-12.29"/><path class="cls-2" d="M109.11,158.45c-3.38,0-6.94-3.5-7.93-6.74a5.18,5.18,0,0,1,2.28-6.36,31.78,31.78,0,0,1,5.88-2.55,26.72,26.72,0,0,0,6.66-3.08,56,56,0,0,1,5.49-3.12c4.1-2.16,9.19-4.84,10.62-7.29,1.75-3,2.47-8.5,1.49-11.52l1.8-.58c1.15,3.56.39,9.54-1.66,13.05-1.7,2.92-6.84,5.63-11.37,8a55,55,0,0,0-5.28,3,28.21,28.21,0,0,1-7.12,3.32,29.8,29.8,0,0,0-5.54,2.39,3.35,3.35,0,0,0-1.45,4.19c.85,2.78,3.84,5.4,6.13,5.4h.14c9.32-.46,20.79-4.33,30.67-10.34l.13-.08c3.49-2.12,7.44-4.52,9.27-8,2.06-4,.77-8.66-.38-12.79l-.26-.93c-1.86-6.81-5.6-16.24-12.92-22.54l1.23-1.43c6.08,5.23,10.75,13.35,13.51,23.48l.25.92c1.18,4.25,2.64,9.53.23,14.16-2.08,4-6.45,6.65-10,8.79l-.13.08c-10.29,6.26-21.8,10.13-31.56,10.61Z"/><path class="cls-2" d="M137.86,95.86c.34,1.26,1.93,1.64,2.66,2.81a10.63,10.63,0,0,1,1.65,3.74,31.39,31.39,0,0,1,.67,7.7c-.24,4.91-3.39,9.76-5.79,13.89-3.17,5.47-6.95,9.07-12.17,12.71a86.16,86.16,0,0,1-8,5.08c-2.06,1.12-4.51,3.34-6.81,3.7a6.28,6.28,0,0,0-.87.33,11.15,11.15,0,0,0-1.93-2.15c-.83-.66,3.64,1.71,2.89,1.12,1-.87,7.42-6.34,9.66-8.82,3.39-3.75,13.94-21.19,15.54-26.67C136.44,105.52,137.86,95.86,137.86,95.86Z"/><path class="cls-2" d="M108.81,146.92l-.4-.56a10.05,10.05,0,0,0-1.75-2,1,1,0,0,1-.32-1.35c.48-.77,1-.52,2.8.33l.76.36c1.51-1.29,7.13-6.13,9.19-8.41,3.2-3.54,13.78-21,15.33-26.3,1.07-3.67,2.48-13.22,2.49-13.31l.66-4.49,1.19,4.38c.1.37.45.65,1,1.07a5.62,5.62,0,0,1,1.53,1.49,11.43,11.43,0,0,1,1.78,4,32.35,32.35,0,0,1,.69,7.94c-.22,4.64-2.85,9.1-5.16,13l-.75,1.29c-3,5.16-6.6,8.93-12.44,13a88.3,88.3,0,0,1-8.12,5.14c-.62.34-1.29.79-2,1.27a13.6,13.6,0,0,1-5.12,2.53,2.12,2.12,0,0,0-.29.12,3.83,3.83,0,0,1-.45.18Zm29.67-48.87c-.48,3.07-1.43,8.75-2.23,11.51-1.64,5.63-12.38,23.31-15.75,27-1.18,1.31-3.47,3.41-5.54,5.25.49-.33,1-.63,1.44-.89a86.7,86.7,0,0,0,7.94-5c5.6-3.91,9-7.51,11.89-12.41l.76-1.3c2.2-3.74,4.7-8,4.9-12.16a30.15,30.15,0,0,0-.65-7.46,9.68,9.68,0,0,0-1.53-3.43,4.09,4.09,0,0,0-1.05-1Z"/><path class="cls-1" d="M35.75,101.43c-6.3-.16-8.66-3-10.25-5.08a15.36,15.36,0,0,1-2.67-8.5c-.27-5.41,2.67-11.28,6-15.4A30.68,30.68,0,0,1,45.32,61.7c5.51-1.46,11.87-2.38,17.52-1,5.35,1.35,9.09,3.42,11.7,8.5,2.16,4.2,4.37,8.25,4.37,13.12,0,7.94-11.39,21.52-18.79,12.17a8.38,8.38,0,0,0-8-3.2,18.69,18.69,0,0,0-4.84,1.14C45.9,93,45,94.3,43.49,94.36c.18,2.67,1.69,5.55-1.76,6.59A19.89,19.89,0,0,1,35.75,101.43Z"/><path class="cls-2" d="M37.28,102.42c-.84,0-1.44,0-1.58,0-7-.18-9.57-3.61-11-5.45a16.14,16.14,0,0,1-2.86-9c-.25-4.95,2.08-10.94,6.23-16a31.72,31.72,0,0,1,17-11.06c7-1.87,13.1-2.2,18-1,4.59,1.16,9.26,3.05,12.31,9l.33.63c2,4,4.15,8.06,4.15,12.92,0,5.4-5,13.65-11.14,15.79-3.51,1.22-6.82.14-9.33-3a7.48,7.48,0,0,0-7.19-2.84,17.7,17.7,0,0,0-4.58,1.08,6.52,6.52,0,0,0-1.23.74,6.75,6.75,0,0,1-1.85,1c0,.28.09.56.14.83.35,2,.84,4.84-2.66,5.9A17.47,17.47,0,0,1,37.28,102.42ZM56.69,61a43.73,43.73,0,0,0-11.13,1.63A29.89,29.89,0,0,0,29.59,73c-3.87,4.75-6,10.26-5.81,14.76a14.31,14.31,0,0,0,2.48,8c1.73,2.3,3.88,4.56,9.51,4.7h0a19.06,19.06,0,0,0,5.64-.44c1.74-.52,1.75-1.4,1.34-3.77a17.77,17.77,0,0,1-.25-1.86l-.06-1,1,0a3.49,3.49,0,0,0,1.83-.86,8.15,8.15,0,0,1,1.6-1A19.79,19.79,0,0,1,52,90.4,9.35,9.35,0,0,1,60.86,94c2,2.56,4.46,3.38,7.23,2.42C73.3,94.56,78,87,78,82.37,78,78,76,74.25,74,70.32l-.33-.63c-2.55-5-6.28-6.8-11.09-8A24.17,24.17,0,0,0,56.69,61Z"/><path class="cls-1" d="M47.56,97.33c2.62,3.69,10.53,2.18,13-1.06C63.4,92.42,64.57,87.63,65,83a36.67,36.67,0,0,0,.16-5.51,16.15,16.15,0,0,0-1.42-4.88"/><path class="cls-2" d="M52.73,100.43h-.15c-2.59,0-4.64-.94-5.79-2.55l1.54-1.09c1.06,1.5,3.13,1.74,4.27,1.76h.13c2.81,0,5.81-1.21,7-2.84,2.37-3.16,3.79-7.35,4.34-12.8a35.57,35.57,0,0,0,.15-5.37,10.74,10.74,0,0,0-.94-3.5c-.14-.37-.29-.74-.43-1.12l1.78-.64c.13.36.27.71.4,1.06a12.39,12.39,0,0,1,1.07,4.09A37.38,37.38,0,0,1,66,83.09c-.59,5.81-2.13,10.3-4.71,13.74C59.7,98.93,56.13,100.43,52.73,100.43Z"/><path class="cls-1" d="M49.92,73.55c.17,1.55,1,3.31,1.27,4.88.26,1.3.65,2.63.78,3.94a26,26,0,0,1-.35,7.68,13.6,13.6,0,0,1-2.84,6.29c-2.17,2.5-2.85.93-4.88-.71-1.16-.94-3-1.71-3.95-2.83-1.16-1.36-1.06-3.22-.89-4.93A32.88,32.88,0,0,0,38,76.38"/><path class="cls-2" d="M46.81,98.59a4.06,4.06,0,0,1-2.58-1.43c-.28-.25-.58-.52-.92-.8a14.49,14.49,0,0,0-1.5-1,10.7,10.7,0,0,1-2.57-1.95c-1.5-1.75-1.26-4.18-1.12-5.63A31.94,31.94,0,0,0,37,76.64l1.82-.51A33.94,33.94,0,0,1,40,88c-.16,1.62-.23,3.16.67,4.22a9.42,9.42,0,0,0,2.13,1.57,16.19,16.19,0,0,1,1.7,1.14c.37.3.7.6,1,.87.54.49,1.07,1,1.33.94s.49-.12,1.24-1a12.84,12.84,0,0,0,2.63-5.88A24.91,24.91,0,0,0,51,82.46a20.13,20.13,0,0,0-.47-2.51c-.1-.45-.21-.89-.29-1.33a20.22,20.22,0,0,0-.56-2A16.38,16.38,0,0,1,49,73.65l1.88-.21A15,15,0,0,0,51.51,76a21.73,21.73,0,0,1,.61,2.21c.08.42.18.85.28,1.27a21.34,21.34,0,0,1,.51,2.76,26.87,26.87,0,0,1-.37,8,14.54,14.54,0,0,1-3,6.71,3.83,3.83,0,0,1-2.55,1.63Z"/><path class="cls-1" d="M70.24,96.7c.95.91,6.47-7.08,6.93-7.87A17.86,17.86,0,0,1,74.81,101c-1.38,4.28-5.85,4.23-9.64,5.48-4.71,1.55-8,2.4-13.67,1.26-4.88-1-8.74-4.08-12-8.12A21.27,21.27,0,0,1,34.33,86l-.31.47c-.33-1-.28-2.88.95-3.16s1.34,1,1.69,1.9c.61,1.57,1,3.21,1.77,4.73,2.18,4.51,6,7.13,10.28,9.57s10.07,1.3,14.45.38a28,28,0,0,0,7.09-3.18"/><path class="cls-2" d="M56.31,109.16a25.27,25.27,0,0,1-5-.54c-4.59-.92-8.7-3.69-12.56-8.46a22.71,22.71,0,0,1-5.28-12.4l-.34-1a4.42,4.42,0,0,1,.19-3.29,2.16,2.16,0,0,1,1.44-1.1c1.93-.43,2.41,1.25,2.62,2,0,.17.1.34.16.5.24.61.45,1.23.66,1.85a24.44,24.44,0,0,0,1.08,2.81c2.15,4.45,6.07,7,9.9,9.16,4,2.31,10.38,1,13.79.28a27.33,27.33,0,0,0,6.76-3l.63-.42.21.2c1.4-1,5.19-6.29,5.79-7.34L77.69,86l.42,2.66a18.87,18.87,0,0,1-2.42,12.65c-1.26,3.75-4.68,4.58-7.69,5.32-.84.2-1.71.42-2.53.68A27.93,27.93,0,0,1,56.31,109.16Zm-21-24.95V86a20.2,20.2,0,0,0,4.94,13c3.57,4.41,7.32,7,11.46,7.79,5.47,1.1,8.63.27,13.19-1.23.88-.29,1.79-.51,2.67-.72,2.93-.71,5.46-1.33,6.37-4.15l.07-.16a17.39,17.39,0,0,0,2.48-9C74.75,94,72,97.5,70.63,97.7H70.4a28.4,28.4,0,0,1-7.05,3.09c-3.66.76-10.47,2.18-15.12-.49-3.91-2.24-8.27-5-10.66-10a26.06,26.06,0,0,1-1.17-3c-.2-.59-.4-1.19-.63-1.77-.08-.21-.15-.45-.22-.68a3.2,3.2,0,0,0-.24-.67Z"/><ellipse class="cls-1" cx="34.33" cy="79.85" rx="3.15" ry="6.46" transform="translate(-13.35 7.18) rotate(-10)"/><path class="cls-2" d="M35.17,87.18a3.89,3.89,0,0,1-3-1.89,11.64,11.64,0,0,1-1.87-4.73c-.73-4.16.45-7.59,2.75-8s4.59,2.42,5.32,6.58a11.64,11.64,0,0,1-.14,5.08c-.48,1.67-1.41,2.71-2.61,2.92A2.54,2.54,0,0,1,35.17,87.18ZM33.48,74.41h-.11c-.88.16-1.8,2.5-1.21,5.81a9.88,9.88,0,0,0,1.54,3.95c.55.75,1.14,1.18,1.59,1.1s.86-.68,1.12-1.58a9.85,9.85,0,0,0,.09-4.23C35.94,76.28,34.38,74.41,33.48,74.41Z"/><ellipse class="cls-1" cx="32.44" cy="79.85" rx="3.15" ry="6.46" transform="translate(-13.38 6.85) rotate(-10)"/><path class="cls-2" d="M33.28,87.18a3.89,3.89,0,0,1-3-1.89,11.64,11.64,0,0,1-1.87-4.73c-.73-4.16.45-7.59,2.75-8,1.2-.21,2.43.45,3.45,1.85a12.7,12.7,0,0,1,1.73,9.81c-.48,1.67-1.41,2.71-2.61,2.92A2.54,2.54,0,0,1,33.28,87.18ZM31.59,74.41h-.1c-.88.16-1.8,2.5-1.21,5.81a9.86,9.86,0,0,0,1.54,3.95c.55.75,1.15,1.18,1.59,1.1s.86-.68,1.12-1.58a9.87,9.87,0,0,0,.09-4.23h0a9.86,9.86,0,0,0-1.53-3.95A2.27,2.27,0,0,0,31.59,74.41Z"/><path class="cls-1" d="M59.37,111.82c-.31-.87-1.07-2.06-.94-3a9.91,9.91,0,0,1,3.65-4.68c1.83-.93,4.65-1.73,5.75.44.57,1.12.43,2.43.86,3.59a8.15,8.15,0,0,1,.73,3.16,12.71,12.71,0,0,0-5.17,1.87c-1,.55-3.53,3.35-3.89,1.09C60.37,114.29,59.78,113,59.37,111.82Z"/><path class="cls-2" d="M61.09,116.1a1.56,1.56,0,0,1-.58-.11,1.76,1.76,0,0,1-1.05-1.43c-.15-.34-.62-1.44-1-2.43h0c-.08-.22-.19-.46-.31-.72a5.11,5.11,0,0,1-.67-2.73c.19-1.37,2.5-4.55,4.16-5.39,3.29-1.66,5.91-1.34,7,.85a7.08,7.08,0,0,1,.6,2.26,6.92,6.92,0,0,0,.3,1.42,9,9,0,0,1,.79,3.51v.9l-.9,0a11.69,11.69,0,0,0-4.63,1.7l-.13.07a7.78,7.78,0,0,0-.83.61A5.21,5.21,0,0,1,61.09,116.1Zm4.3-12a7.25,7.25,0,0,0-2.88.84,9.39,9.39,0,0,0-3.14,4,4.08,4.08,0,0,0,.52,1.68c.14.31.27.6.37.87h0c.39,1.1,1,2.39,1,2.4l.07.24h0a10,10,0,0,0,1.39-1,8.13,8.13,0,0,1,1.12-.8l.13-.07a15.91,15.91,0,0,1,4.48-1.81,10,10,0,0,0-.59-1.95,8.52,8.52,0,0,1-.42-1.86A5.5,5.5,0,0,0,67,105,1.65,1.65,0,0,0,65.39,104.14Z"/><path class="cls-1" d="M99.85,144.9c1-2.95,6.69-1.59,8.58-.08,2.31,1.85,3.13,5,3.39,7.64.69,7.3-4.44,11.69-11.65,11"/><path class="cls-2" d="M101.59,164.49q-.74,0-1.52-.07l.18-1.88c3.42.32,6.37-.57,8.3-2.5a9,9,0,0,0,2.32-7.49c-.31-3.28-1.33-5.63-3-7a8.27,8.27,0,0,0-6-1.31,1.48,1.48,0,0,0-1.13,1L99,144.59a3.38,3.38,0,0,1,2.39-2.15c2.55-.75,6.19.46,7.67,1.65,2.12,1.7,3.38,4.48,3.74,8.29a10.84,10.84,0,0,1-2.87,9A11.47,11.47,0,0,1,101.59,164.49Z"/><path class="cls-1" d="M84,136.06c4.05,1.16,5.44,4.11,8.63,6.07,4.19,2.56,8.21,1.41,9.82,7.41,1.14,4.25,1.78,9.79-.94,13.63-2.29,3.23-6.39,6.1-9.91,7.79A15.4,15.4,0,0,1,85,172.62c-2.23,0-4.82-1-6.92.62-5.14,4-.48,3.12-2.21,6.82-.95,2,0,.72-1.89.42s-3,.54-3.54-1.19c-1.5-4.73-.71-10.17-2.14-14.87a39.46,39.46,0,0,1-1.25-14.5C68,140.57,73.69,133.11,84,136.06Z"/><path class="cls-2" d="M75.37,182.13a1.06,1.06,0,0,1-.8-.41c-.07-.08-.19-.22-.69-.3a6.81,6.81,0,0,0-1.31,0c-1,0-2.39.09-3-1.79a32.9,32.9,0,0,1-1.15-7.8,31.72,31.72,0,0,0-1-7.07,40.5,40.5,0,0,1-1.29-14.86c.59-6,3-10.86,6.74-13.37,3.1-2.11,7-2.56,11.37-1.32h0a13.66,13.66,0,0,1,5.87,3.74,18.4,18.4,0,0,0,3,2.43,17.15,17.15,0,0,0,3.65,1.57c2.76.93,5.36,1.81,6.6,6.41,1.15,4.26,1.89,10.23-1.09,14.42-2.5,3.53-6.95,6.5-10.28,8.09A16.32,16.32,0,0,1,85,173.57a18.64,18.64,0,0,1-2.07-.15c-1.59-.18-3.08-.36-4.29.58-2.39,1.84-2.22,2.17-1.94,2.72a3.71,3.71,0,0,1,0,3.75c-.15.33-.25.57-.33.73-.16.39-.35.82-.91.91Zm-2.28-2.65a6.92,6.92,0,0,1,1.07.08,3.84,3.84,0,0,1,.84.22l.05-.11a1.91,1.91,0,0,0,0-2.1c-.79-1.54-.62-2.69,2.46-5.08,1.81-1.4,3.86-1.16,5.66-1a14,14,0,0,0,1.83.14,14.47,14.47,0,0,0,6.15-1.57c3.11-1.5,7.26-4.25,9.55-7.48,2.55-3.6,1.84-9,.8-12.84-1-3.62-2.82-4.24-5.38-5.1a18.85,18.85,0,0,1-4-1.75,20,20,0,0,1-3.3-2.67,12,12,0,0,0-5.1-3.3c-3.83-1.1-7.13-.74-9.79,1.07-3.23,2.19-5.38,6.56-5.92,12a38.53,38.53,0,0,0,1.21,14.13,33.61,33.61,0,0,1,1.07,7.5A31.53,31.53,0,0,0,71.38,179c.16.51.16.51,1.12.48Z"/><path class="cls-1" d="M73.71,152.22c-10.63-.34-16.38,18.82-6,21.76"/><path class="cls-2" d="M67.46,174.89c-4.57-1.29-6.87-5.61-6-11.27,1-6.23,5.85-12.57,12.26-12.34l-.06,1.89c-5.42-.16-9.49,5.33-10.33,10.75-.27,1.76-.75,7.64,4.63,9.16Z"/><path class="cls-1" d="M81.58,161.59c-3.81-.59-9.2.89-11.13,4-2.45,3.94-3.82,9.14-.92,12.79,2.06,2.59,8.1,5.08,11,2.75-.42-2.31-2.14-3.12-.84-6.72.51-1.41,1.69-1.68,2.94-2.52"/><path class="cls-2" d="M77.51,183a8.9,8.9,0,0,1-1-.06,12.66,12.66,0,0,1-7.73-4c-2.73-3.44-2.41-8.63.86-13.88,2.14-3.44,8-5.06,12.08-4.42l-.29,1.87c-3.45-.53-8.46.79-10.18,3.56-1.06,1.7-4.26,7.58-1,11.7a10.7,10.7,0,0,0,6.46,3.27,5,5,0,0,0,2.72-.36,10,10,0,0,0-.43-1.06,6.31,6.31,0,0,1-.22-5.55,4.48,4.48,0,0,1,2.41-2.45c.29-.16.58-.33.89-.53l1.05,1.57c-.35.24-.69.43-1,.61-.88.49-1.31.76-1.56,1.44a4.51,4.51,0,0,0,.16,4.13,8.66,8.66,0,0,1,.72,2.1l.1.55-.44.35A5.66,5.66,0,0,1,77.51,183Z"/><path class="cls-1" d="M74.18,152.3c-3.75,1.14-8.23,2.41-10.17,5.83a18.29,18.29,0,0,0-2,5c-3.89.63-3.78-2.67-3.78-3.62,0-3.62,2.29-9.06,4.33-11.65,3.47-4.41,8.77-4.86,14.57-4.88"/><path class="cls-2" d="M61.13,164.19a3.71,3.71,0,0,1-2.49-.82,4.76,4.76,0,0,1-1.32-3.75c0-3.94,2.34-9.52,4.53-12.31,3.77-4.8,9.63-5.22,15.31-5.24V144c-5.43,0-10.57.38-13.83,4.52-1.95,2.48-4.13,7.74-4.13,11.07a3.27,3.27,0,0,0,.65,2.39,2,2,0,0,0,1.39.37,21.9,21.9,0,0,1,1.92-4.64c2.07-3.64,6.68-5,10.38-6.16l.34-.1.55,1.81-.34.1c-3.56,1.08-7.59,2.3-9.29,5.29a17.6,17.6,0,0,0-1.84,4.7l-.09.69-.69.11A6.64,6.64,0,0,1,61.13,164.19Z"/><path class="cls-1" d="M158.86,252.73c-.79,2.49-.2,6.41.41,8.83.79,3.14,1.88,4.29,5.05,5l-.84-.21c0,3.69,3.81,3.85,7.35,4,2,.08,7.53.13,7.57-3.06l.59-.12c5.32-1.39,2.69-9.21,3.81-13.2"/><path class="cls-2" d="M171.91,271l-1.11,0c-3.42-.13-7.63-.3-7.94-4.17-2.42-.82-3.47-2.18-4.21-5.12-.34-1.37-1.38-6.06-.4-9.18l1.2.38c-.7,2.22-.25,5.84.42,8.49s1.57,3.77,4.07,4.44l.52.13-.29,1.18c.46,2.16,3,2.44,6.67,2.58,3.15.13,5.43-.31,6.39-1.22a1.63,1.63,0,0,0,.53-1.21v-.51l1.09-.22c2.88-.75,3.06-3.62,3-7.9a18,18,0,0,1,.33-4.85l1.21.34a17.25,17.25,0,0,0-.28,4.49c.06,3.79.12,8.08-4,9.15l-.17,0a2.84,2.84,0,0,1-.87,1.59C177,270.49,174.91,271,171.91,271Z"/><path class="cls-1" d="M179,267.19c5.32-1.39,2.69-9.21,3.81-13.2"/><path class="cls-2" d="M179.15,267.8l-.32-1.22c2.92-.76,3.09-3.63,3-7.91a18,18,0,0,1,.33-4.85l1.21.34a17.25,17.25,0,0,0-.28,4.49C183.18,262.44,183.25,266.74,179.15,267.8Z"/><path class="cls-1" d="M181.54,255.25c-.79,2.49-.2,6.41.41,8.83.79,3.14,1.88,4.29,5.05,5l-.84-.21c0,3.69,3.81,3.85,7.35,4,2,.08,7.53.13,7.57-3.06l.59-.12c5.32-1.39,2.69-9.21,3.81-13.2"/><path class="cls-2" d="M194.59,273.54l-1.11,0c-3.42-.13-7.63-.3-7.94-4.16-2.42-.82-3.47-2.18-4.21-5.12-.34-1.37-1.38-6.06-.4-9.17l1.2.38c-.7,2.22-.24,5.84.42,8.49s1.56,3.77,4.06,4.44l.53.13-.29,1.18c.46,2.16,3,2.44,6.67,2.58,3.15.13,5.43-.31,6.39-1.22a1.63,1.63,0,0,0,.53-1.21v-.51l1.09-.22c2.88-.75,3.06-3.62,3-7.9a18,18,0,0,1,.33-4.85l1.21.34a17.25,17.25,0,0,0-.28,4.49c.06,3.79.12,8.08-4,9.15l-.17,0a2.84,2.84,0,0,1-.87,1.59C199.68,273,197.6,273.54,194.59,273.54Z"/><path class="cls-1" d="M225.64,254c-.79,2.49-.2,6.41.41,8.83.79,3.14,1.88,4.29,5.05,5l-.84-.21c0,3.69,3.81,3.85,7.35,4,2,.08,7.53.13,7.57-3.06l.59-.12c5.32-1.39,2.69-10.47,3.81-14.46"/><path class="cls-2" d="M238.69,272.28l-1.1,0c-3.42-.13-7.63-.3-7.94-4.16-2.42-.82-3.47-2.18-4.21-5.12-.34-1.37-1.38-6.06-.4-9.18l1.2.38c-.7,2.22-.25,5.84.42,8.49s1.57,3.77,4.06,4.44l.53.13-.29,1.18c.46,2.16,3,2.44,6.67,2.58,3.16.13,5.43-.31,6.39-1.22a1.62,1.62,0,0,0,.53-1.21v-.51l1.09-.22c3.11-.81,3-4.91,3-8.87a19.89,19.89,0,0,1,.33-5.15l1.21.34a19.21,19.21,0,0,0-.28,4.79c.06,4.24.13,9-4,10.11l-.17,0a2.86,2.86,0,0,1-.87,1.6C243.78,271.75,241.7,272.28,238.69,272.28Z"/><path class="cls-1" d="M202.72,257.61c-.81,2.54-.2,6.54.42,9,.8,3.21,1.92,4.37,5.15,5.13l-.86-.21c0,3.76,3.89,3.93,7.5,4.07,2,.08,7.68.13,7.72-3.12l.6-.12c5.42-1.41,2.74-12.61,3.88-16.68"/><path class="cls-2" d="M216,276.27l-1.13,0c-3.48-.14-7.79-.31-8.1-4.25-2.47-.84-3.54-2.23-4.29-5.22-.35-1.39-1.41-6.18-.41-9.36l1.22.39c-.72,2.27-.25,6,.43,8.66s1.6,3.84,4.16,4.53l.53.13-.29,1.21c.47,2.21,3.06,2.48,6.8,2.63,3.22.13,5.53-.32,6.51-1.25a1.66,1.66,0,0,0,.54-1.24V272l1.11-.22c3.17-.83,3.11-6,3.05-10.52a23.24,23.24,0,0,1,.34-5.7l1.24.35a22.67,22.67,0,0,0-.29,5.34c.06,4.77.13,10.7-4.05,11.79l-.17,0a2.91,2.91,0,0,1-.89,1.63C221.22,275.73,219.1,276.27,216,276.27Z"/><path class="cls-1" d="M215.77,259l-62.58-6.93a4.9,4.9,0,0,1-2.47-.79c-.1-.84,1.63-3,1.63-3l64.05,6.3,43.26-6.72s2.91,1.18,2.63,3.62l-.94.16L215.77,259"/><path class="cls-2" d="M215.79,259.67h-.08l-62.58-6.93a5.46,5.46,0,0,1-2.75-.89l-.24-.16,0-.29c-.12-1,1.19-2.76,1.76-3.46l.21-.27L216.38,254l43.35-6.74.16.07c.14.06,3.34,1.39,3,4.28l-.05.47-1.41.23ZM151.41,251a4.36,4.36,0,0,0,1.82.49l62.53,6.92L261.66,251c-.14-1.37-1.62-2.2-2.09-2.44l-43.15,6.7L152.63,249A9.58,9.58,0,0,0,151.41,251Z"/><path class="cls-2" d="M174.22,249.21l-5.1-.21-.18-.26a1.92,1.92,0,0,1-.37-1c0-.09,0-.2,0-.33-1-4.76,1-10.29,3-15.07.71-1.67,1.49-3.31,2.26-4.91,1-2.75,2.17-5.4,3.32-8,.55-1.24,1.11-2.5,1.66-3.77l.18-.5c1.45-3.88,2.95-7.9,3.13-11.73.38-8-1-13-4.13-15l.7-1.08c3.58,2.32,5.12,7.6,4.71,16.17a31.09,31.09,0,0,1-1.89,8.49l.11,0c-.5,1.39-1.05,2.76-1.62,4.11-.3.8-.59,1.58-.85,2.34a85.77,85.77,0,0,1-3.85,8.84l-.28.58-.12.35c-2.5,7.11-3.11,12.58-1.88,16.74.12.41.23.87.33,1.32a13.23,13.23,0,0,0,.55,2Zm-4.35-1.47,2.47.1c-.11-.4-.21-.82-.3-1.23s-.2-.86-.31-1.25a21,21,0,0,1-.27-9.45c-1.36,3.68-2.4,7.78-1.68,11.21,0,.18.05.32.07.44S169.86,247.7,169.87,247.75Z"/><path class="cls-1" d="M171.36,185.53c-6.42-2.16-10,6.72-9.74,11.6,3.61-2.9,8.51-3.21,12.57-5.3,1.74-.89,4.09-2.7,3.94-4.88-.17-2.46-3.59-2.64-5.52-2.37-.7.1-2.06.34-1.73,1.11"/><path class="cls-2" d="M161,198.41l-.07-1.25c-.2-3.56,1.53-8.89,4.68-11.29a6.08,6.08,0,0,1,4.89-1.22,3.65,3.65,0,0,1,2-.71c1.66-.23,3.9-.12,5.19.92a2.81,2.81,0,0,1,1.06,2c.21,2.95-3.23,5-4.29,5.5a32.82,32.82,0,0,1-5.31,2c-2.62.81-5.1,1.58-7.15,3.23Zm8.38-12.57a4.85,4.85,0,0,0-3,1.06c-2.4,1.83-4,5.82-4.16,9a26,26,0,0,1,6.52-2.7,31.84,31.84,0,0,0,5.11-1.91c1.73-.89,3.72-2.54,3.59-4.26a1.52,1.52,0,0,0-.58-1.13c-.91-.73-2.77-.85-4.21-.65-1,.15-1.25.34-1.26.36a.2.2,0,0,0,0-.15l-.09,0-.23.67a5.94,5.94,0,0,0-.81-.21l0,0v0A5,5,0,0,0,169.42,185.84Z"/><path class="cls-1" d="M179.39,203.64c-2.72-3.1-7.29-1-9.17,2-2,3.26-1.36,7.55-2.49,11.05,2.48-3.63,8.14-4,11.82-6.36,1.58-1,4.18-2.86,3.93-5s-3.86-2.7-5.36-1.73"/><path class="cls-2" d="M165.76,220.74l1.36-4.21a21.88,21.88,0,0,0,.76-4.36c.25-2.34.51-4.76,1.8-6.83a8.24,8.24,0,0,1,5.94-3.85,4.88,4.88,0,0,1,3.64,1.11,5.74,5.74,0,0,1,3.07.48,2.88,2.88,0,0,1,1.81,2.21c.32,2.74-3.1,4.91-4.23,5.62a25.19,25.19,0,0,1-4.84,2.15c-2.75,1-5.36,1.94-6.79,4Zm10.32-18-.37,0a7,7,0,0,0-5,3.24c-1.13,1.82-1.36,4-1.61,6.29-.08.76-.17,1.54-.29,2.31a20.72,20.72,0,0,1,5.74-2.76,23.89,23.89,0,0,0,4.6-2c2.56-1.62,3.79-3.09,3.64-4.38-.07-.63-.71-1-1.08-1.19A4.39,4.39,0,0,0,179,204l-.13.11-.05-.06a1.7,1.7,0,0,0-.37.18l-.64-1A3.59,3.59,0,0,0,176.08,202.76Z"/><path class="cls-2" d="M193.23,203.75l-.62-2.85c-.59-2.69-1.68-4.33-3.43-5.18a6.42,6.42,0,0,0-3.43-.58,8.48,8.48,0,0,0-.88.16c-1,.22-2.34.49-3.39-.47h-.06a2.78,2.78,0,0,1,1.39-2.46c2-1.28,5.56-.94,7.21-.14,3.4,1.65,4.73,4.65,3.84,8.67Zm-6.8-9.93a7.57,7.57,0,0,1,3.31.74,6.76,6.76,0,0,1,3,2.92,5.48,5.48,0,0,0-3.29-4.09c-1.49-.72-4.54-.83-6,.07a1.68,1.68,0,0,0-.66.7,3.92,3.92,0,0,0,1.76-.12,9.69,9.69,0,0,1,1-.18C185.9,193.83,186.17,193.82,186.43,193.82Z"/><path class="cls-1" d="M162.54,234c.06-1.12,1.06-1.74,1.93-2.17,2.92-1.44,4.5.05,3.86,3.08a6.84,6.84,0,0,1-3.78,4.88c-4.26,2.4-9.69,1.15-12.37,6a27.21,27.21,0,0,1,2.52-11.92,7.54,7.54,0,0,1,4.53-4c2.1-.51,3.67,1,5.61,1.14"/><path class="cls-2" d="M151.66,248l-.13-2.2c-.29-4.82,1.49-9.72,2.58-12.22a8.14,8.14,0,0,1,5-4.35,6.14,6.14,0,0,1,3.78.55,7.48,7.48,0,0,0,2,.58l-.05.61a3.19,3.19,0,0,1,3.23.18c.94.73,1.26,2.11.88,3.89a7.45,7.45,0,0,1-4.1,5.31,18.51,18.51,0,0,1-5.16,1.72c-2.9.65-5.41,1.21-7,4Zm8.44-17.6a3,3,0,0,0-.72.09,6.94,6.94,0,0,0-4.1,3.61,29.25,29.25,0,0,0-2.48,9.71c1.81-1.92,4.24-2.46,6.61-3a17.53,17.53,0,0,0,4.81-1.58,6.2,6.2,0,0,0,3.47-4.45c.26-1.25.11-2.2-.41-2.61s-1.43-.3-2.54.24-1.54,1-1.57,1.62l-1.28-.07a3.16,3.16,0,0,1,1.89-2.51,14,14,0,0,1-1.39-.48A6.47,6.47,0,0,0,160.1,230.44Z"/><path class="cls-1" d="M180.65,226.32c-2.55-.92-3.93,1.12-3.78,3.47s2.18,3,4.06,4.3a29.83,29.83,0,0,1,8.42,9c2-3.36,2.28-10.63.91-14.29a5.06,5.06,0,0,0-5-3.61c-1.7.07-1.9,1-3.19,1.54-1,.43-2.35-.67-3.26.35"/><path class="cls-2" d="M189.35,244.38l-.55-.94a29.34,29.34,0,0,0-8.23-8.83c-.39-.26-.78-.49-1.16-.71-1.49-.87-3-1.77-3.18-4.08a4.32,4.32,0,0,1,1.45-3.79,3.23,3.23,0,0,1,3.19-.32l-.15.41h.06a2,2,0,0,0,1,0,4.46,4.46,0,0,0,1-.63,3.75,3.75,0,0,1,2.45-1,5.71,5.71,0,0,1,5.68,4c1.36,3.64,1.18,11.2-1,14.84ZM178.59,227l-.15.1a3.1,3.1,0,0,0-.93,2.68c.1,1.62,1.13,2.22,2.54,3,.41.24.82.48,1.23.76a30.23,30.23,0,0,1,8,8.24c1.37-3.38,1.61-9.45.38-12.74a4.43,4.43,0,0,0-4.42-3.2,2.47,2.47,0,0,0-1.71.69,5.7,5.7,0,0,1-1.25.79,2.9,2.9,0,0,1-1.73,0c-.71-.13-1.05-.15-1.32.14Z"/><path class="cls-1" d="M213.41,205.38c.73,5.2-1.25,9-3.94,13.54-2.28,3.86-4.65,7.26-7.09,11a28.77,28.77,0,0,0-4.25,20.79l-2.52-.31c-1.8-1.23.76-11.08,1.23-13.07,1.06-4.5,4.3-8.9,7.09-12.61,3.15-4.2,6.51-8.22,8.5-13.06a13.39,13.39,0,0,0,.51-7.72,15.45,15.45,0,0,0-1.26-3.78c-.36-.77-1.1-3-1.1-3"/><path class="cls-2" d="M198.91,251.48l-3.53-.44-.13-.09c-1.44-1-1.2-4.8.82-13.16l.14-.58c1.11-4.74,4.63-9.43,7.2-12.85l1.37-1.81c2.76-3.63,5.38-7,7.05-11.11a12.65,12.65,0,0,0,.47-7.35,14.84,14.84,0,0,0-1.21-3.63c-.37-.8-1.1-3-1.13-3.06l1.22-.41s.73,2.2,1.07,2.93a16,16,0,0,1,1.31,3.92q.15.76.24,1.49l.25,0c.75,5.36-1.2,9.17-4,14-1.56,2.65-3.14,5-4.8,7.55-.76,1.15-1.52,2.3-2.3,3.5a28,28,0,0,0-4.16,20.33Zm-3-1.67,1.48.18a29.53,29.53,0,0,1,4.48-20.39c.77-1.2,1.54-2.36,2.3-3.51.93-1.41,1.84-2.78,2.72-4.17l-1.07,1.41-1.36,1.8c-2.5,3.33-5.92,7.89-7,12.37l-.14.59C195.08,247.37,195.56,249.38,195.89,249.81Z"/><path class="cls-1" d="M199.08,238.92c-1.92-2.6,1.14-3.94,3.15-4.26,1.8-.28,4.36-1.08,6.13.35,3.79,3.05,2.47,8,.48,11.49-.6-1.75-3.83-1.83-5.32-2.9a14.07,14.07,0,0,1-4.6-5.15"/><path class="cls-2" d="M208.69,248.05l-.46-1.34c-.27-.78-1.5-1.17-2.69-1.56a8.85,8.85,0,0,1-2.4-1,16.22,16.22,0,0,1-4.54-4.85l0,0a2.79,2.79,0,0,1-.56-2.82c.59-1.42,2.52-2.2,4.13-2.45l.86-.15c1.8-.34,4-.76,5.78.64,3.3,2.66,3.54,7.26.63,12.31Zm-9.18-9.85a13.22,13.22,0,0,0,4.39,4.89,8.07,8.07,0,0,0,2,.85,7.66,7.66,0,0,1,2.82,1.34c1.13-2.29,2.73-6.91-.81-9.76-1.27-1-3.11-.68-4.74-.37l-.9.16c-1.26.2-2.78.8-3.14,1.67a1.31,1.31,0,0,0,.21,1.27Z"/><path class="cls-1" d="M201.12,226.17c-2.24-1.86-7.38.79-9.45,2-2.91,1.77-4.52,4.69-5.52,7.83.85-2.73,7.91-3.63,10.25-4.37s6.24-1.94,5.64-5.32c-.81-.45-2.74-.89-3.44-.34"/><path class="cls-2" d="M186.76,236.24l-1.23-.39v0c1.25-3.87,3.14-6.53,5.79-8.14,1.59-1,6.69-3.8,9.58-2.39a6.12,6.12,0,0,1,1.43.51l.27.15.05.3c.69,3.91-3.68,5.29-6,6-.59.19-1.34.36-2.21.56-2.65.61-7.07,1.62-7.66,3.38Zm12-10.05a16.7,16.7,0,0,0-6.73,2.58,11.16,11.16,0,0,0-4.17,4.79,27.88,27.88,0,0,1,6.31-2c.84-.19,1.57-.36,2.06-.51,2.79-.88,5.43-1.92,5.24-4.28a4.88,4.88,0,0,0-.65-.22l-.08.1a1.74,1.74,0,0,0-.25-.17,2.36,2.36,0,0,0-1.46,0Z"/><path class="cls-1" d="M210.26,206.16c-3,0-6.09,0-8.71,1.85-2,1.46-4.39,4.49-4.5,7,2.58-.92,3.64-1.66,6.32-.81,1.86.59,4.73.59,6.46-.55a4.2,4.2,0,0,0,1.42-5.12c-1-2.42-2.31-2.77-4.45-2.32"/><path class="cls-2" d="M196.37,215.89l0-1c.11-2.6,2.51-5.83,4.77-7.45a10.75,10.75,0,0,1,5.5-1.87l0-.08a5.26,5.26,0,0,1,2.66,0h.87l0,.45a5.22,5.22,0,0,1,1.62,2.26,4.85,4.85,0,0,1-1.65,5.91c-1.91,1.26-5,1.27-7,.63s-3-.3-4.81.4l-1.1.41Zm12.74-9.09c-2.52,0-5.05.2-7.18,1.73a11.58,11.58,0,0,0-4.06,5.45l0,0c1.91-.73,3.17-1.21,5.65-.42,1.7.54,4.35.56,5.91-.48a3.55,3.55,0,0,0,1.18-4.33A3.31,3.31,0,0,0,209.11,206.8Z"/><path class="cls-1" d="M192.15,207.27c1.23.22,3.4-5.12,4.06-6.3,1.11-2,2.12-3.83,4.3-4.73,3.36-1.38,9.49-2.12,10.52,2.64-6.25,2.26-14.67,4.47-19.51,9"/><path class="cls-2" d="M192,208.36l-.88-.94a18.61,18.61,0,0,1,1.78-1.47A33.77,33.77,0,0,0,195,201.9c.26-.54.47-1,.61-1.24,1.15-2.08,2.24-4,4.62-5s6.25-1.7,8.86-.32a4.83,4.83,0,0,1,2.54,3.42l.12.55-.53.19c-1.14.41-2.34.82-3.59,1.24-4.76,1.61-10.06,3.41-13.91,6.17a2.42,2.42,0,0,1-1.26,1Zm13.61-12.52a13.26,13.26,0,0,0-4.82,1c-2,.81-2.9,2.48-4,4.43-.14.26-.34.68-.58,1.19-.35.74-.67,1.4-1,2a69.52,69.52,0,0,1,12-4.92c1-.35,2-.69,3-1a3.45,3.45,0,0,0-1.73-2A6.38,6.38,0,0,0,205.57,195.84Z"/><path class="cls-1" d="M220.81,237.4c-1.66,3.14-3.52,5.42-3.89,9-.08.77-.89,4.52-.1,4.92,1.24.62,2.26-2.83,2.44-3.44.64-2.12,1-4.1,1.57-6.2.3-1.08,2.78-5.28,1.87-6.1a8.91,8.91,0,0,0-2.52,3.16"/><path class="cls-2" d="M182.68,226.21a1.65,1.65,0,0,0-.56-1.28c-.87-.66-2.71-.27-4.19,0-.54.11-1,.21-1.46.26l-.15-1.28c.39,0,.85-.14,1.35-.25,1.74-.36,3.9-.81,5.23.2a2.89,2.89,0,0,1,1.07,2.22Z"/><path class="cls-1" d="M240.23,235.3a45.48,45.48,0,0,1-2.55,5.67c-.89,1.41-1.77,2.77-2.68,4.2s-2.36,3.76.29,4.09c2.07.26,2.66-1,3.89-2.52,1.73-2.18,2-4.57,2.1-7.24.07-1.34.93-2.47.4-3.67-.83-1.87-1.87-.74-2.08.84"/><path class="cls-2" d="M235.44,250.26a1.45,1.45,0,0,1-.61-.16,1.86,1.86,0,0,0-.32-.12,1.7,1.7,0,0,1-1.32-1c-.34-1,.51-2.1,1.27-3.08.18-.24.36-.46.48-.65,1.66-2.49,3.9-6.19,4.23-9.67.37-3.85-.78-7.59-3.6-11.76-.47-.69-1-1.39-1.52-2.09l-.22-.21c-.42-.4-.82-.78-1.25-1.13l.21-.27-.88-1.1a8,8,0,0,1-1.73-7.83,14.37,14.37,0,0,1,5.33-7.24,17.33,17.33,0,0,1,5.09-2.73c.3-.11.61-.25.93-.4a5.93,5.93,0,0,1,3.06-.79l-.15,1.28a5,5,0,0,0-2.38.68c-.35.16-.7.32-1,.44a15.83,15.83,0,0,0-4.73,2.52,13.22,13.22,0,0,0-4.91,6.63,6.74,6.74,0,0,0,1.44,6.56c.74.91,1.47,1.82,2.16,2.72a13.59,13.59,0,0,0,1.19,1c.41.31.8.56,1.18.8a8.8,8.8,0,0,1,2.71,2.39c2.45,3.46,2.45,7.57,2.45,11.56,0,1.56-3.26,10.93-3.64,11.54a9.87,9.87,0,0,1-2.79,1.92A1.58,1.58,0,0,1,235.44,250.26Zm1.93-26.06c2.47,4,3.45,7.67,3.09,11.48s-2.71,7.66-4.44,10.26c-.14.21-.33.46-.54.72-.36.46-1.19,1.53-1.07,1.87,0,0,.12.13.42.21a3.07,3.07,0,0,1,.52.19l.1,0,.12-.05a9.46,9.46,0,0,0,2.25-1.45c.45-.8,3.45-9.71,3.45-10.83,0-4,0-7.71-2.22-10.84A6.34,6.34,0,0,0,237.37,224.21Z"/><path class="cls-2" d="M217.13,252.15a2.61,2.61,0,0,1-1-.2l.11-.27h-.5v-1.25h0c.43-10.15,6.21-15.93,12.86-22.59,1-1,2-2,3-3.07,4.92-5.09,7.3-9.91,7.07-14.33-.19-3.62-2.52-10.63-6.47-11.71l.33-1.21c4.76,1.3,7.2,9.14,7.39,12.86.25,4.74-2.2,9.83-7.27,15.12l.47.48c-3.27,3.18-7.31,7.33-9.57,11.22a42.5,42.5,0,0,0-3.49,7.75,12.24,12.24,0,0,0-.31,2c-.22,2-.47,4.22-1.76,5A1.84,1.84,0,0,1,217.13,252.15Zm-.09-1.27a.6.6,0,0,0,.4-.08c.75-.45,1-2.61,1.16-4a12.64,12.64,0,0,1,.36-2.2,43.22,43.22,0,0,1,3.6-8c.22-.38.46-.77.72-1.16C219.73,239.71,217.23,244.39,217,250.89Z"/><path class="cls-1" d="M235.51,229c-1.45-.92-3.25-2.91-1.89-4.59,1.21-1.49,3.66-1.93,5.47-2a6,6,0,0,1,5,2.1c1.45,1.57,1.68,3,1.68,5.15,0,1.81.46,4.71-.5,6.18-.81-2-1.42-4.17-3.59-5-1.37-.49-2.9-.44-4.31-.84-1-.29-1.67-1-2.62-1.34"/><path class="cls-2" d="M245.18,237.19l-.47-1.13-.3-.76c-.66-1.67-1.29-3.26-2.91-3.84a10.78,10.78,0,0,0-2.22-.45,14.67,14.67,0,0,1-2.05-.37,5.69,5.69,0,0,1-1.58-.78,4.42,4.42,0,0,0-1.06-.56l0-.13a5.22,5.22,0,0,1-2.1-3,2.65,2.65,0,0,1,.59-2.15c1.37-1.69,4-2.16,5.93-2.26A6.6,6.6,0,0,1,244.6,224c1.55,1.68,1.85,3.26,1.85,5.58,0,.41,0,.87,0,1.37.09,1.81.2,3.86-.65,5.17Zm-9.33-8.72.5.31a4.5,4.5,0,0,0,1.23.63,13.47,13.47,0,0,0,1.87.34,11.83,11.83,0,0,1,2.48.51,5.87,5.87,0,0,1,3.29,3.64,19.26,19.26,0,0,0,0-2.83c0-.52-.05-1-.05-1.43,0-2.09-.23-3.32-1.51-4.71a5.37,5.37,0,0,0-4.53-1.89c-1.38.07-3.87.39-5,1.79a1.37,1.37,0,0,0-.32,1.13,4.46,4.46,0,0,0,2.05,2.51Z"/><path class="cls-1" d="M227.63,199.92a7.81,7.81,0,0,1,5.25-3.67c1.21-.18,2.15-.3,2.52,1a2.38,2.38,0,0,1-1.16,2.84"/><path class="cls-2" d="M234.51,200.71l-.53-1.17a1.75,1.75,0,0,0,.8-2.08c-.2-.71-.42-.79-1.81-.58a7.2,7.2,0,0,0-4.77,3.32l-1.15-.58a8.41,8.41,0,0,1,5.73-4c1.21-.18,2.7-.39,3.23,1.51A3,3,0,0,1,234.51,200.71Z"/><path class="cls-1" d="M235.82,199.92a9.14,9.14,0,0,0-4.19-2,8,8,0,0,0-5.88,1.76A19.22,19.22,0,0,0,221.1,204c-.55.75-2.6,3.69-2.28,4.62,0,.06,2.62-2.5,3.89-3.38a35.93,35.93,0,0,1,4.09-2.5,24,24,0,0,1,8.61-2.2"/><path class="cls-2" d="M218.84,209.29a.72.72,0,0,1-.26-.06l-.28-.11-.1-.28c-.3-.87.5-2.62,2.37-5.21a19.71,19.71,0,0,1,4.81-4.49,8.77,8.77,0,0,1,6.34-1.87,9.2,9.2,0,0,1,4.23,1.94l.24.17-.73,1.06-.07,0,.06.79a23.34,23.34,0,0,0-8.37,2.14,35,35,0,0,0-4,2.45,39.34,39.34,0,0,0-3.16,2.74C219.28,209.1,219.07,209.29,218.84,209.29Zm11.83-10.81a8,8,0,0,0-4.55,1.72,18.46,18.46,0,0,0-4.5,4.18c-.56.77-1,1.46-1.36,2.06a24,24,0,0,1,2.08-1.73,35.69,35.69,0,0,1,4.17-2.54,24.27,24.27,0,0,1,8.25-2.22,7.1,7.1,0,0,0-3.22-1.41A6,6,0,0,0,230.66,198.49Z"/><path class="cls-1" d="M223.54,216.93c1.06-.65,2.73.39,3.65,1a6.21,6.21,0,0,1,2.23,2.92c1,2.23.83,4.64,1,7.12,1.87.36,3.08-2.19,3.55-3.55a6.75,6.75,0,0,0-.18-5.47c-1.8-3-5.76-4-9-3-.76.23-1.45.66-2.17.94a9,9,0,0,0,2.7.21"/><path class="cls-2" d="M230.75,228.61a2.54,2.54,0,0,1-.49,0l-.49-.1,0-.5c0-.51,0-1-.05-1.52a13.44,13.44,0,0,0-.85-5.37,5.56,5.56,0,0,0-2-2.64,10.59,10.59,0,0,0-1.53-.83v.07h-.41a7.8,7.8,0,0,1-2.49-.25l-1.69-.57,1.66-.64c.28-.11.56-.25.84-.38a9.19,9.19,0,0,1,1.37-.57c3.7-1.11,7.86.32,9.68,3.32a7.29,7.29,0,0,1,.24,6C234.2,225.58,233,228.61,230.75,228.61Zm-5.13-12.28a10.52,10.52,0,0,1,1.91,1,6.85,6.85,0,0,1,2.47,3.2,14.61,14.61,0,0,1,1,5.87c0,.29,0,.58,0,.88,1-.24,1.86-1.75,2.33-3.12s.73-3.52-.12-4.92C231.59,216.61,228.24,215.81,225.62,216.34Z"/><path class="cls-1" d="M243.18,199.39c1.23-1,4.15-.84,5.54-.24a6.44,6.44,0,0,1,3.6,3.91,10.37,10.37,0,0,1-.82,8.16c.19-4.34-6.14-5.11-8.84-6.79-1.19-.74-2.19-2.33-1.07-3.57.87-1,2.41-1,3.59-1.26"/><path class="cls-2" d="M250.73,213.89l.12-2.7c.12-2.68-2.78-3.8-5.58-4.89a18.33,18.33,0,0,1-3-1.33,3.89,3.89,0,0,1-1.83-2.56,2.4,2.4,0,0,1,.62-2,3.83,3.83,0,0,1,2-1.1l-.35-.43c1.46-1.21,4.65-1,6.2-.33a7.11,7.11,0,0,1,4,4.32,11.05,11.05,0,0,1-.87,8.66Zm-5.61-14.54.17.88-.75.13a4.18,4.18,0,0,0-2.49.92,1.12,1.12,0,0,0-.31,1,2.63,2.63,0,0,0,1.24,1.65,17.72,17.72,0,0,0,2.74,1.22c2.26.87,4.94,1.91,6,4a10,10,0,0,0,0-5.86,5.8,5.8,0,0,0-3.24-3.51A7.43,7.43,0,0,0,245.12,199.36Z"/><path class="cls-1" d="M231.63,208.32c-1,0-2-.37-3-.42a7.53,7.53,0,0,0-4.86,1.37,15.83,15.83,0,0,0-4,3.56c-.75,1-1.18,2.2-1.88,3.15,4.24-3.64,9.77-1.28,14.17-4.19,1-.63,3-2.51,1.53-3.71-.87-.7-4.7-.64-5.13.24"/><path class="cls-2" d="M214,220.18l3.4-4.6a11.21,11.21,0,0,0,.83-1.41,11.71,11.71,0,0,1,1.05-1.74,16.41,16.41,0,0,1,4.12-3.71,8.13,8.13,0,0,1,5.24-1.47l.26,0a4.42,4.42,0,0,1,.49-.14c1.33-.3,3.73-.27,4.61.44a1.86,1.86,0,0,1,.76,1.58c-.07,1.61-2.1,3-2.33,3.16-2.19,1.46-4.62,1.67-7,1.89-2.59.23-5,.45-7.14,2.26Zm14.11-11.66a6.9,6.9,0,0,0-4,1.28,15.11,15.11,0,0,0-3.8,3.42,7.13,7.13,0,0,0-.55.84,17.46,17.46,0,0,1,5.6-1.14c2.29-.21,4.45-.4,6.37-1.68.71-.47,1.73-1.45,1.76-2.15a.6.6,0,0,0-.28-.52,3.33,3.33,0,0,0-1.57-.33V209a9,9,0,0,1-1.7-.22c-.29-.06-.57-.11-.84-.15l-.05,0-.13-.07-.33,0Z"/><path class="cls-1" d="M212.15,215.3a5.84,5.84,0,0,0-5.63,1.61c-1.84,2-.76,3.21,1.22,4.33a10.83,10.83,0,0,1,5.54,10l3.28-2.51c3.31-1.76,3.39-6.23,1.85-9.45a8.45,8.45,0,0,0-2.83-3.59c-.94-.56-3.79-1.51-4.53-.35"/><path class="cls-2" d="M212.62,232.5v-1.32a10.16,10.16,0,0,0-5.21-9.39c-1-.59-2.27-1.43-2.47-2.66a3.23,3.23,0,0,1,1.09-2.67,7.05,7.05,0,0,1,5-2c1.41-.87,4.12.2,4.88.66A8.77,8.77,0,0,1,219,219c1.68,3.52,1.51,8.31-2.09,10.26Zm-1.8-16.79a5.68,5.68,0,0,0-3.83,1.63,2.13,2.13,0,0,0-.77,1.59c.08.53.67,1.08,1.83,1.74a11.4,11.4,0,0,1,5.82,9.25l2.38-1.81c2.94-1.57,3-5.6,1.58-8.6a7.66,7.66,0,0,0-2.59-3.32,6.16,6.16,0,0,0-3.14-.8l-.19.5A3.15,3.15,0,0,0,210.82,215.72Z"/><path class="cls-2" d="M171.84,232.6l-.08-.08c-1-1-1.59-1.61-2.88-1.73-.69-.07-3-.19-4.09,1l-.94-.88c1.42-1.53,4.08-1.46,5.15-1.36a5.53,5.53,0,0,1,3.68,2.1l.08.08Z"/><path class="cls-1" d="M223,233.57c-1.68-1.67-7.29-.26-9.14.78-2.71,1.53-5.6,4.72-6.15,7.82,1.61-1.68,4.59-2.05,6.78-2.15a19.1,19.1,0,0,0,7.68-2c1-.43,4.21-2.07,3-3.4-.6-.69-5.06-1.36-5.37-.74"/><path class="cls-2" d="M206.72,244.15l.37-2.09c.6-3.37,3.71-6.71,6.47-8.27,1.74-1,7.84-2.74,9.91-.68l-.15.15a4.88,4.88,0,0,1,2.39.94,1.52,1.52,0,0,1,.37,1.37c-.31,1.42-2.65,2.6-3.64,3a19.67,19.67,0,0,1-7.91,2.05c-3.15.14-5.22.78-6.34,2Zm12.63-10.66a15,15,0,0,0-5.16,1.42,13.33,13.33,0,0,0-5.28,5.64,14.13,14.13,0,0,1,5.56-1.17,18.34,18.34,0,0,0,7.45-1.95c1.54-.68,2.79-1.6,2.91-2.14,0-.06,0-.13-.08-.25a9.5,9.5,0,0,0-4.47-.7.39.39,0,0,0,.16-.17l-1.15-.58Z"/><path class="cls-1" d="M239.4,234.67c-5.35-.62-7.84,4.42-8.45,8.93a11.22,11.22,0,0,1,4.36-2.35c2-.52,3.75-.42,5.39-2,.78-.77,2.1-2.33,1.53-3.59s-1.93-.5-3-.95"/><path class="cls-2" d="M230.1,245.1l.21-1.59c.68-5,3.45-10.14,9.16-9.48v.13l0-.08a2.63,2.63,0,0,0,1,.12,2.17,2.17,0,0,1,2.31,1.16c.72,1.6-.73,3.39-1.67,4.31a7.26,7.26,0,0,1-4.29,1.91c-.45.08-.91.17-1.4.29a10.56,10.56,0,0,0-4.12,2.23Zm8.43-9.83c-3.73,0-5.82,3.25-6.66,6.85a10.46,10.46,0,0,1,3.28-1.5c.51-.13,1-.22,1.47-.31a6.06,6.06,0,0,0,3.62-1.56c.44-.43,1.83-1.91,1.4-2.87-.16-.36-.37-.42-1.14-.4a3.85,3.85,0,0,1-1.47-.2Z"/><path class="cls-1" d="M73.55,113.08c4.26,2.73,7.3,10.23,7.56,15.06,0-.75.06-2.08,0-3-.26-4.92-3.24-12.4-7.56-15.18.46.3-.49,2.83,0,3.15Z"/><path class="cls-1" d="M138.92,103.4a12,12,0,0,1-2.25,11.43c-.44.47-1,1.56-.08.59,3.32-3.52,5.31-8.73,3.57-13.45,0,0-1.41,1-1.24,1.43Z"/><path class="cls-2" d="M113.42,250.75c-.11-5.73-1.93-11.06-2.54-16.71.33,3.1-.34,6.33,0,9.45.56,5.2,2.4,10.16,2.5,15.42,0,1.79.06-1.53.06-1.7,0-2.15,0-4.31,0-6.46Z"/><path class="cls-2" d="M93.68,244.85a2.85,2.85,0,0,1,1.18-1.56,4.28,4.28,0,0,1,2.49-.73c.69,0,.78-3.78.26-3.77A4.5,4.5,0,0,0,94.44,240,6.51,6.51,0,0,0,93,243.79c-.07.47-.32,2,.13,2.34s.58-1.14.6-1.28Z"/><path class="cls-2" d="M95.49,248a4.6,4.6,0,0,1,3.94-2.36c.72,0,.75-3.8.26-3.77A4.71,4.71,0,0,0,95,247.33c0,.29.15,1.4.52.72Z"/><path class="cls-2" d="M98.73,250.44a4.6,4.6,0,0,1,2.48-1.83c.49-.13.52-1.47.55-1.86,0-.15.06-2-.28-1.91a5,5,0,0,0-2.71,1.95,4.42,4.42,0,0,0-.45,2.3,3.67,3.67,0,0,0,.11,1.14c0,.09.17.43.31.21Z"/><path class="cls-2" d="M101.84,252.69a2.56,2.56,0,0,1,1.66-.86c.49-.11.52-1.48.55-1.86,0-.16.08-2-.28-1.91a3,3,0,0,0-2.12,1.35,3.34,3.34,0,0,0-.27,1.11,7.57,7.57,0,0,0-.06,1.46c0,.31.13,1.38.52.72Z"/><path class="cls-2" d="M104.4,255.08c.25-.24.31-.38.67-.41s.53-1.54.55-1.86.12-2-.28-1.91a1.3,1.3,0,0,0-.9.53,1.91,1.91,0,0,0-.31.85,7.22,7.22,0,0,0-.14,1.45c0,.16.07,1.69.42,1.35Z"/><path class="cls-2" d="M174.88,82a1,1,0,0,1-.89-.62c-4.16-11.24-18.28-29-28.52-35.75C116.37,26.32,70.5,20.53,41,32.46a.94.94,0,1,1-.71-1.75c30-12.14,76.61-6.28,106.17,13.36,10.69,7.1,24.91,24.93,29.25,36.67a1,1,0,0,1-.56,1.21A.93.93,0,0,1,174.88,82Z"/><path class="cls-1" d="M93.89,25c5.79-6.89,11.51-13.6,18.19-19.61C118.9-.76,126.66.62,135.14,2.65,145.69,5.16,148.3,9.92,148.3,21c0,5.78.87,20.62-5.61,22.85"/><path class="cls-2" d="M143,44.73l-.62-1.79c5.22-1.8,5.07-14.14,5-20.07,0-.7,0-1.34,0-1.89,0-11.22-2.79-15.13-12.43-17.42-8.7-2.07-15.86-3.2-22.21,2.52s-11.77,12-18.09,19.52l-1.45-1.22c6.37-7.58,11.76-13.85,18.28-19.71,7-6.33,15-5.08,23.92-3,10.51,2.5,13.88,7.18,13.88,19.26,0,.55,0,1.18,0,1.87C149.34,29.72,149.5,42.49,143,44.73Z"/><path class="cls-2" d="M91.87,26.77c.91-5.81,10.38-4.36,15-4.41,6.31-.07,12.64,1.32,18.68,2.61a60.18,60.18,0,0,1,13.51,4.81c3.48,1.74,10.22,9.53,6.06,13.69-1,1-3.58-.27-5.72-1.91a34.06,34.06,0,0,0-6.93-4c-2.71-1.24-12.94-5.27-15.42-5.76-4.22-.83-8.1-2.24-12.3-3.09a62.83,62.83,0,0,0-6.28-1.17C96.28,27.35,91.87,26.77,91.87,26.77Z"/><path class="cls-2" d="M144.14,44.78c-1.75,0-3.93-1.43-5.29-2.47a32.85,32.85,0,0,0-6.75-3.87c-2.67-1.22-12.83-5.23-15.21-5.69-2.19-.43-4.31-1-6.36-1.59s-3.92-1.09-5.95-1.5L103,29.32a40.91,40.91,0,0,0-4.59-.82c-2.21-.21-6.48-.78-6.66-.8l-1-.13.15-1c.89-5.7,8.44-5.44,13.43-5.26.92,0,1.77.06,2.51.05h.48c6.12,0,12.16,1.29,18,2.55l.39.08a61.16,61.16,0,0,1,13.74,4.89c2.79,1.4,7.12,6,7.8,10.19a5.54,5.54,0,0,1-1.5,5A2.27,2.27,0,0,1,144.14,44.78ZM93.08,26c1.45.19,4,.51,5.51.65a42.29,42.29,0,0,1,4.81.85l1.56.33c2.09.42,4.12,1,6.08,1.53s4.1,1.14,6.22,1.55c2.54.5,12.83,4.55,15.63,5.83A35,35,0,0,1,140,40.81c2.49,1.91,4.14,2.31,4.47,2a3.64,3.64,0,0,0,1-3.37c-.58-3.54-4.46-7.64-6.78-8.8a59.13,59.13,0,0,0-13.29-4.73l-.39-.08c-5.9-1.27-12-2.58-18.07-2.5-.76,0-1.64,0-2.6-.06C99.1,23.07,94.35,23.16,93.08,26Z"/><path class="cls-1" d="M83.94,38.8c-1.73,1.39-8.76,9.33-11.85,13.57-18.2-8.3-32.84-17.32-31.76-20.28,1.68-4.61,33.15,2.62,70.31,16.14s65.92,28.22,64.24,32.83c-1,2.87-14.26,1.15-32.57-3.81.64-5.55,1.38-12.48,1-15.77"/><path class="cls-2" d="M170.19,83.41A44.34,44.34,0,0,1,165,83a172.39,172.39,0,0,1-22.89-4.87l-.79-.21.09-.81c.44-3.78,1.33-11.49,1.07-15.15-9.58-4.25-20.56-8.66-32.12-12.86-9.19-3.34-18.17-6.36-26.53-8.91A140.7,140.7,0,0,0,72.86,52.93l-.45.63-.7-.32c-3.52-1.6-34.3-15.83-32.26-21.46,1.71-4.69,22.26-.18,43.84,6.35l.07-.06.08.11C92.93,41,102.61,44.31,111,47.35c27.4,10,67.27,27.26,64.8,34C175.41,82.38,174.38,83.41,170.19,83.41Zm-26.85-6.85c22.13,5.94,30.21,5.4,30.65,4.19,0,0,.76-2.78-17.1-11.91-3.77-1.93-8-3.94-12.52-6A117.81,117.81,0,0,1,143.34,76.55ZM44.92,31.65c-3.35,0-3.69.75-3.7.77C41,33.91,49.91,41.15,71.79,51.2a151,151,0,0,1,10-11.6c-7.18-2.16-13.87-4-19.77-5.31C52.92,32.21,47.8,31.65,44.92,31.65Z"/><path class="cls-2" d="M169.39,186.87a9.45,9.45,0,0,0-4.17,4.31c-.08.16.53.19.61,0a9.14,9.14,0,0,1,4-4.19c.29-.14-.31-.21-.46-.15Z"/><path class="cls-2" d="M177.11,204.51a9.71,9.71,0,0,0-3.81,3.07,15.56,15.56,0,0,0-2.58,4.58c0,.13.57.17.63,0a15.44,15.44,0,0,1,2.29-4.11,9.38,9.38,0,0,1,3.92-3.36c.29-.14-.31-.23-.45-.16Z"/><path class="cls-2" d="M155.76,239.89a11.15,11.15,0,0,1,2.63-3.24,30.47,30.47,0,0,1,3.78-3c.19-.14-.4-.27-.53-.17a31.23,31.23,0,0,0-3.85,3.05,11.13,11.13,0,0,0-2.65,3.31c0,.12.55.24.63,0Z"/><path class="cls-2" d="M183.44,228.29a6.69,6.69,0,0,1,2.77,3.61c.08.26.19-.15.2-.21a1.79,1.79,0,0,0,0-.86,6.9,6.9,0,0,0-2.9-3.79s-.38,1.09-.09,1.26Z"/><path class="cls-2" d="M200,211.58c2.38-1.74,6.15-3.53,8.56-.89.13.14.71,0,.61-.08-2.68-2.94-7-1.12-9.71.84-.18.13.41.22.55.12Z"/><path class="cls-2" d="M211.75,217.4a13.36,13.36,0,0,1,2.63,2.72c1.52,2.21,1.25,4.75.61,7.25-.05.21,0,1.42.13.9.53-2.07,1.31-4.18.79-6.34a10.86,10.86,0,0,0-4-5.74c-.09-.08-.39,1-.16,1.21Z"/><path class="cls-2" d="M218.94,234.44c-2,.71-4.26,1.38-5.85,2.92-.12.11,0,.63,0,.61,1.58-1.54,3.78-2.2,5.81-2.9.15-.05.07-.64,0-.63Z"/><path class="cls-2" d="M243.46,230a1.44,1.44,0,0,1-.27-.68,4.6,4.6,0,0,0-.14-.49,7.85,7.85,0,0,0-1.09-1.95,6.51,6.51,0,0,0-4.78-2.68v-.31a6.8,6.8,0,0,1,5,2.8,8.2,8.2,0,0,1,1.13,2,5.08,5.08,0,0,1,.15.52,1.92,1.92,0,0,0,.18.52Z"/><path class="cls-2" d="M250.24,204.71a1.85,1.85,0,0,1-.34-.79,3.61,3.61,0,0,0-.17-.52,3.38,3.38,0,0,0-.83-1.15,4.23,4.23,0,0,0-2.8-1.2l0-.31a4.61,4.61,0,0,1,3,1.28,3.66,3.66,0,0,1,.9,1.24,3.6,3.6,0,0,1,.19.57,2,2,0,0,0,.25.64Z"/></svg>