<svg id="Icons" xmlns="http://www.w3.org/2000/svg" viewBox="0 0 140 73.93"><defs><style>.cls-1{fill:#10069f;}.cls-2{fill:#ff671f;}</style></defs><title>logo</title><path class="cls-1" d="M62.67,16l-.07-.63-.63.06-1,.1L55.74,4.21l.25,0,.63-.06-.06-.63-.21-2.13L56.28.73l-.63.06-7.09.72-.63.07.07.63.22,2.13.06.63.63-.06.23,0L46.27,17l-1,.1-.63.06.07.63L45,20l.06.63.63-.06L51.29,20l.63-.06-.06-.63-.22-2.13-.06-.63-.63.06-.89.09.5-2.1L56.29,14l.91,2-.86.09-.63.06.06.63L56,18.84l.06.63.63-.06,5.63-.57.63-.06-.06-.63Zm-11.3-5,1.21-5.12,2.22,4.78Z"/><polygon class="cls-1" points="87.19 1.48 86.75 1.44 86.56 1.82 81.1 12.52 77.69 1.01 77.56 0.6 77.14 0.56 71.71 0.06 71.08 0 71.02 0.64 70.83 2.76 70.77 3.4 71.4 3.45 72.63 3.56 71.55 15.33 70.32 15.21 69.69 15.16 69.63 15.79 69.43 17.91 69.38 18.55 70.01 18.61 76.18 19.17 76.81 19.23 76.87 18.6 77.06 16.47 77.12 15.84 76.49 15.78 75.26 15.67 76.02 7.37 78.93 16.89 79.06 17.29 79.48 17.33 81.82 17.55 82.25 17.59 82.44 17.21 87.04 8.38 86.28 16.68 85.05 16.57 84.42 16.51 84.36 17.14 84.16 19.27 84.11 19.9 84.74 19.96 90.91 20.52 91.54 20.58 91.6 19.95 91.79 17.82 91.85 17.19 91.22 17.13 89.99 17.02 91.07 5.26 92.3 5.37 92.93 5.43 92.99 4.79 93.18 2.67 93.24 2.04 92.61 1.98 87.19 1.48"/><path class="cls-1" d="M118.23,13.23,116.7,9.5l-.1-.25-.25-.1-10-3.84-.59-.23-.23.59-.77,2-.23.59.59.23,1.15.44-4.25,11-1.15-.44-.59-.23-.23.59-.77,2-.23.59.59.23,6,2.32.59.23.23-.59.77-2,.23-.6-.59-.23-1.4-.54.89-2.3L111.75,21l.25.1.25-.12,3.65-1.74.23-.11.09-.24,2-5.23.09-.24ZM107.7,15.65l2-5.24L113.83,12l.65,1.53-1.16,3-1.53.69Z"/><polygon class="cls-1" points="36.17 22.85 36.43 22.76 36.55 22.52 38.24 18.84 38.34 18.62 38.26 18.38 37.19 15.19 36.99 14.59 36.38 14.79 34.36 15.47 33.76 15.67 33.96 16.28 34.6 18.18 33.77 19.9 29.9 21.2 28.63 20.54 25.62 11.62 26.25 10.31 30.12 9 31.8 9.87 32.44 11.77 32.65 12.38 33.25 12.17 35.27 11.49 35.87 11.29 35.67 10.69 34.59 7.5 34.52 7.26 34.29 7.14 30.72 5.24 30.48 5.12 30.22 5.2 23.84 7.35 23.59 7.44 23.47 7.69 21.78 11.36 21.67 11.59 21.75 11.83 25.42 22.71 25.5 22.95 25.73 23.07 29.3 24.96 29.54 25.09 29.8 25 36.17 22.85"/><polygon class="cls-1" points="14.61 48.84 10.23 42.75 14.34 37.03 15.56 37.03 16.2 37.03 16.2 36.39 16.2 34.26 16.2 33.62 15.56 33.62 9.9 33.62 9.27 33.62 9.27 34.26 9.27 36.39 9.27 37.03 9.9 37.03 10.02 37.03 6.99 41.23 5.6 41.23 5.6 37.03 6.83 37.03 7.47 37.03 7.47 36.39 7.47 34.26 7.47 33.62 6.83 33.62 0.64 33.62 0 33.62 0 34.26 0 36.39 0 37.03 0.64 37.03 1.87 37.03 1.87 48.84 0.64 48.84 0 48.84 0 49.48 0 51.61 0 52.25 0.64 52.25 6.83 52.25 7.47 52.25 7.47 51.61 7.47 49.48 7.47 48.84 6.83 48.84 5.6 48.84 5.6 44.64 7.28 44.64 10.29 48.84 10.17 48.84 9.53 48.84 9.53 49.48 9.53 51.61 9.53 52.25 10.17 52.25 15.83 52.25 16.46 52.25 16.46 51.61 16.46 49.48 16.46 48.84 15.83 48.84 14.61 48.84"/><polygon class="cls-1" points="19.76 33.62 19.12 33.62 19.12 34.26 19.12 36.39 19.12 37.03 19.76 37.03 21.26 37.03 21.26 48.84 19.76 48.84 19.12 48.84 19.12 49.48 19.12 51.61 19.12 52.25 19.76 52.25 26.48 52.25 27.12 52.25 27.12 51.61 27.12 49.48 27.12 48.84 26.48 48.84 24.98 48.84 24.98 37.03 26.48 37.03 27.12 37.03 27.12 36.39 27.12 34.26 27.12 33.62 26.48 33.62 19.76 33.62"/><polygon class="cls-1" points="48.09 33.62 41.89 33.62 41.26 33.62 41.26 34.26 41.26 36.39 41.26 37.03 41.89 37.03 43.13 37.03 43.13 46.43 36.53 33.96 36.35 33.62 35.97 33.62 30.41 33.62 29.78 33.62 29.78 34.26 29.78 36.39 29.78 37.03 30.41 37.03 31.65 37.03 31.65 48.84 30.41 48.84 29.78 48.84 29.78 49.48 29.78 51.61 29.78 52.25 30.41 52.25 36.61 52.25 37.24 52.25 37.24 51.61 37.24 49.48 37.24 48.84 36.61 48.84 35.37 48.84 35.37 39.46 41.97 51.91 42.15 52.25 42.53 52.25 46.22 52.25 46.85 52.25 46.85 51.61 46.85 37.03 48.09 37.03 48.72 37.03 48.72 36.39 48.72 34.26 48.72 33.62 48.09 33.62"/><polygon class="cls-1" points="63.5 33.62 62.86 33.62 62.86 34.26 62.86 36.39 62.86 37.03 63.5 37.03 64.73 37.03 64.73 46.43 58.13 33.96 57.95 33.62 57.57 33.62 52.02 33.62 51.38 33.62 51.38 34.26 51.38 36.39 51.38 37.03 52.02 37.03 53.25 37.03 53.25 48.84 52.02 48.84 51.38 48.84 51.38 49.48 51.38 51.61 51.38 52.25 52.02 52.25 58.21 52.25 58.84 52.25 58.84 51.61 58.84 49.48 58.84 48.84 58.21 48.84 56.98 48.84 56.98 39.46 63.58 51.91 63.76 52.25 64.14 52.25 67.82 52.25 68.46 52.25 68.46 51.61 68.46 37.03 69.69 37.03 70.33 37.03 70.33 36.39 70.33 34.26 70.33 33.62 69.69 33.62 63.5 33.62"/><polygon class="cls-1" points="73.62 33.62 72.98 33.62 72.98 34.26 72.98 36.39 72.98 37.03 73.62 37.03 74.85 37.03 74.85 48.84 73.62 48.84 72.98 48.84 72.98 49.48 72.98 51.61 72.98 52.25 73.62 52.25 86.33 52.25 86.96 52.25 86.96 51.61 86.96 46.38 86.96 45.74 86.33 45.74 84.19 45.74 83.56 45.74 83.56 46.38 83.56 48.84 78.58 48.84 78.58 44.64 84.19 44.64 84.83 44.64 84.83 44 84.83 41.87 84.83 41.23 84.19 41.23 78.58 41.23 78.58 37.03 83.56 37.03 83.56 39.49 83.56 40.13 84.19 40.13 86.33 40.13 86.96 40.13 86.96 39.49 86.96 34.26 86.96 33.62 86.33 33.62 73.62 33.62"/><path class="cls-1" d="M104.91,48.84h-1.06l-2-3.39L104.17,43l.18-.18V36.94l-.17-.18-2.77-2.94-.19-.2H89.62V37h1.87V48.84H89.62v3.41h7.2V48.84h-1.6V46.11h2.93l1.64,2.73h-.26v3.41h6V48.84Zm-9.7-11.65h4.41l1.16,1.2v3l-1.18,1.2H95.22Z"/><polygon class="cls-1" points="121.55 33.62 108.84 33.62 108.2 33.62 108.2 34.26 108.2 36.39 108.2 37.03 108.84 37.03 110.08 37.03 110.08 48.84 108.84 48.84 108.2 48.84 108.2 49.48 108.2 51.61 108.2 52.25 108.84 52.25 121.55 52.25 122.19 52.25 122.19 51.61 122.19 46.38 122.19 45.74 121.55 45.74 119.42 45.74 118.78 45.74 118.78 46.38 118.78 48.84 113.8 48.84 113.8 44.64 119.42 44.64 120.05 44.64 120.05 44 120.05 41.87 120.05 41.23 119.42 41.23 113.8 41.23 113.8 37.03 118.78 37.03 118.78 39.49 118.78 40.13 119.42 40.13 121.55 40.13 122.19 40.13 122.19 39.49 122.19 34.26 122.19 33.62 121.55 33.62"/><polygon class="cls-1" points="139.36 33.62 125.48 33.62 124.84 33.62 124.84 34.26 124.84 39.49 124.84 40.13 125.48 40.13 127.51 40.13 128.14 40.13 128.14 39.49 128.14 37.03 130.56 37.03 130.56 48.84 128.52 48.84 127.89 48.84 127.89 49.48 127.89 51.61 127.89 52.25 128.52 52.25 136.32 52.25 136.95 52.25 136.95 51.61 136.95 49.48 136.95 48.84 136.32 48.84 134.28 48.84 134.28 37.03 136.69 37.03 136.69 39.49 136.69 40.13 137.33 40.13 139.36 40.13 140 40.13 140 39.49 140 34.26 140 33.62 139.36 33.62"/><path class="cls-2" d="M22.83,69l1.69-.33c0,.17,0,.32,0,.45a3.29,3.29,0,0,0,0,.42,1.5,1.5,0,0,0,.1.37.67.67,0,0,0,.19.24.44.44,0,0,0,.29.1c.33,0,.49-.21.49-.63a2.37,2.37,0,0,0-1-1.72l-.52-.44-.39-.34a4.32,4.32,0,0,1-.35-.37,2.41,2.41,0,0,1-.31-.45,2.62,2.62,0,0,1-.19-.52,2.54,2.54,0,0,1-.08-.65,2,2,0,0,1,.64-1.59A2.4,2.4,0,0,1,25.16,63a2,2,0,0,1,1.49.62,2.06,2.06,0,0,1,.61,1.5v.2l-1.72.24s0-.09,0-.16,0-.13,0-.18a1.94,1.94,0,0,0,0-.32,1.87,1.87,0,0,0-.07-.3.51.51,0,0,0-.16-.24.4.4,0,0,0-.27-.09.46.46,0,0,0-.41.21.93.93,0,0,0-.14.51,1.45,1.45,0,0,0,.08.48,1.37,1.37,0,0,0,.24.42,3.46,3.46,0,0,0,.3.32l.37.31.33.27a7.34,7.34,0,0,1,.6.58,4.46,4.46,0,0,1,.46.62,2.81,2.81,0,0,1,.32.74,3.35,3.35,0,0,1,.11.86A1.82,1.82,0,0,1,26.66,71a2.18,2.18,0,0,1-1.5.55,2.33,2.33,0,0,1-1-.21,1.87,1.87,0,0,1-.72-.57A2.8,2.8,0,0,1,23,70,3.47,3.47,0,0,1,22.83,69Z"/><path class="cls-2" d="M29.31,68.34V63.16H31v5.13c0,.29,0,.51,0,.64s0,.29,0,.49a1.53,1.53,0,0,0,.06.4,1.62,1.62,0,0,0,.13.25.36.36,0,0,0,.21.17,1.2,1.2,0,0,0,.62,0,.37.37,0,0,0,.21-.17,1.52,1.52,0,0,0,.13-.25,1.36,1.36,0,0,0,.07-.4c0-.19,0-.35,0-.48s0-.34,0-.63V63.16h1.67v5.18c0,.26,0,.5,0,.71a6.64,6.64,0,0,1-.09.66,3.19,3.19,0,0,1-.18.61,2.35,2.35,0,0,1-.29.5,1.62,1.62,0,0,1-.43.4,2.15,2.15,0,0,1-.6.25,3.45,3.45,0,0,1-1.58,0,2.13,2.13,0,0,1-.6-.25,1.65,1.65,0,0,1-.43-.4,2.32,2.32,0,0,1-.29-.5,3.14,3.14,0,0,1-.18-.61,5.79,5.79,0,0,1-.09-.66C29.32,68.84,29.31,68.6,29.31,68.34Z"/><path class="cls-2" d="M36.47,71.4V63.16h2l.88,5.5.95-5.5h1.93V71.4H41l0-5.8c-.09.59-.25,1.56-.48,2.9s-.39,2.3-.48,2.9H38.75l-1-5.83,0,5.83Z"/><path class="cls-2" d="M44.61,71.4V63.16h2l.88,5.5.95-5.5h1.93V71.4H49.13l0-5.8q-.14.89-.48,2.9t-.48,2.9H46.89l-1-5.83,0,5.83Z"/><path class="cls-2" d="M52.75,71.4V63.16h3.44V64.3H54.42v2.24h1.25v1.17H54.42v2.54h1.77V71.4Z"/><path class="cls-2" d="M58.19,71.4V63.16H60a4.56,4.56,0,0,1,1.09.12,2.42,2.42,0,0,1,.82.37,1.57,1.57,0,0,1,.54.67,2.55,2.55,0,0,1,.18,1c0,.17,0,.32,0,.46a3,3,0,0,1-.08.46,1.78,1.78,0,0,1-.18.46,1.61,1.61,0,0,1-.33.39,1.85,1.85,0,0,1-.51.32q.74,2.36,1.29,4H61.08l-.94-3.8h-.27v3.8Zm1.67-4.81h.48a.46.46,0,0,0,.33-.13.72.72,0,0,0,.2-.32,2.46,2.46,0,0,0,.09-.36,1.87,1.87,0,0,0,0-.31,2.08,2.08,0,0,0,0-.3,2.81,2.81,0,0,0-.07-.35.72.72,0,0,0-.17-.31.41.41,0,0,0-.3-.12h-.56Z"/><path class="cls-2" d="M68,71.4V63.16h1.72a5.18,5.18,0,0,1,1.36.15,1.7,1.7,0,0,1,.84.49,1.88,1.88,0,0,1,.42.82,5.27,5.27,0,0,1,.12,1.22v2.7c0,.29,0,.55,0,.77a4.21,4.21,0,0,1-.1.64,2,2,0,0,1-.21.53,1.81,1.81,0,0,1-.34.41,1.57,1.57,0,0,1-.5.3,3.55,3.55,0,0,1-.68.17,6.27,6.27,0,0,1-.9.06Zm1.73-1.17h.37l.28,0a.4.4,0,0,0,.32-.22.53.53,0,0,0,.07-.22,2.13,2.13,0,0,0,0-.31V65a.56.56,0,0,0-.24-.54,1.85,1.85,0,0,0-.81-.14Z"/><path class="cls-2" d="M74.16,71.4l1.78-8.24h1.48L79.2,71.4H77.55l-.34-1.76H76.14l-.32,1.76Zm2.09-2.79h.85l-.42-3.06Z"/><path class="cls-2" d="M82,71.4V68.68l-1.55-5.52H82l.77,3.62L83.2,65l.42-1.81h1.52L83.6,68.68V71.4Z"/><path class="cls-2" d="M90.22,68.65V65.92q0-2.92,2.39-2.92a2.79,2.79,0,0,1,.9.13,1.93,1.93,0,0,1,.66.37,1.9,1.9,0,0,1,.44.59,2.82,2.82,0,0,1,.25.75,5,5,0,0,1,.08.9v.71H93.29V65.7c0-.15,0-.28,0-.39a2.61,2.61,0,0,0,0-.37,1.2,1.2,0,0,0-.1-.34.61.61,0,0,0-.2-.22.53.53,0,0,0-.31-.09q-.73,0-.72,1.22v3.56q0,1.21.72,1.21a.54.54,0,0,0,.36-.12.69.69,0,0,0,.21-.35,3.09,3.09,0,0,0,.09-.44c0-.15,0-.31,0-.5V68h1.63v.7a6,6,0,0,1-.08.87,3.31,3.31,0,0,1-.24.77,2.06,2.06,0,0,1-.42.63,1.86,1.86,0,0,1-.66.42,2.51,2.51,0,0,1-.92.16,2.72,2.72,0,0,1-1-.15A1.9,1.9,0,0,1,91,71a2.16,2.16,0,0,1-.44-.64,3.18,3.18,0,0,1-.24-.8A5.61,5.61,0,0,1,90.22,68.65Z"/><path class="cls-2" d="M96.66,71.4l1.78-8.24h1.48l1.78,8.24h-1.64l-.34-1.76H98.64l-.32,1.76Zm2.09-2.79h.85l-.42-3.06Z"/><path class="cls-2" d="M103.63,71.4V63.16h2l.88,5.5.95-5.5h1.93V71.4h-1.23l0-5.8q-.14.89-.48,2.9t-.48,2.9h-1.25l-1-5.83,0,5.83Z"/><path class="cls-2" d="M111.77,71.4V63.16h2a1.91,1.91,0,0,1,1.57.6,2.68,2.68,0,0,1,.49,1.74,3.91,3.91,0,0,1-.11,1,2.14,2.14,0,0,1-.3.68,1.42,1.42,0,0,1-.5.43,2.26,2.26,0,0,1-.66.23,4.68,4.68,0,0,1-.81.07V71.4Zm1.68-4.7.24,0,.18,0a.3.3,0,0,0,.14-.08l.1-.1a.35.35,0,0,0,.07-.13l0-.15a1.3,1.3,0,0,0,0-.19c0-.09,0-.16,0-.21v-.32c0-.12,0-.21,0-.27s0-.14,0-.23a.78.78,0,0,0,0-.21,1,1,0,0,0-.09-.16.35.35,0,0,0-.14-.13l-.21-.07a1.25,1.25,0,0,0-.29,0Z"/><rect class="cls-2" x="18.16" y="60.72" width="101.69" height="0.64"/><rect class="cls-2" x="18.16" y="73.29" width="101.69" height="0.64"/></svg>