<svg id="Icons" xmlns="http://www.w3.org/2000/svg" viewBox="0 0 119 62.84"><defs><style>.cls-1{fill:#10069f;}.cls-2{fill:#ff671f;}</style></defs><title>logo-mobile</title><path class="cls-1" d="M53.27,13.62l-.06-.54-.54.05-.84.08L47.38,3.58l.22,0,.54-.05L48.08,3l-.18-1.81L47.84.62,47.3.68l-6,.61-.54.06.06.54L41,3.69l.05.54.54-.05.19,0L39.33,14.49l-.81.08-.54.06.06.54.18,1.8.06.54.54-.06L43.6,17l.54-.05-.05-.54-.18-1.81L43.84,14l-.54.05-.76.08L43,12.38l4.88-.5.77,1.66-.73.07-.54.05.05.54L47.59,16l.06.54.54-.05L53,16,53.5,16l-.05-.54ZM43.66,9.4l1-4.36L46.57,9.1Z"/><polygon class="cls-1" points="74.11 1.26 73.74 1.23 73.58 1.55 68.94 10.64 66.03 0.86 65.93 0.51 65.56 0.47 60.95 0.05 60.42 0 60.37 0.54 60.2 2.35 60.15 2.88 60.69 2.94 61.73 3.03 60.81 13.03 59.77 12.93 59.23 12.88 59.19 13.42 59.02 15.23 58.97 15.77 59.51 15.82 64.75 16.3 65.29 16.35 65.34 15.81 65.5 14 65.55 13.46 65.02 13.41 63.97 13.32 64.62 6.26 67.09 14.35 67.2 14.7 67.56 14.73 69.55 14.91 69.91 14.95 70.08 14.63 73.98 7.12 73.34 14.18 72.29 14.08 71.75 14.03 71.7 14.57 71.54 16.38 71.49 16.92 72.03 16.96 77.27 17.45 77.81 17.5 77.86 16.96 78.02 15.15 78.07 14.61 77.53 14.56 76.49 14.47 77.41 4.47 78.45 4.57 78.99 4.62 79.04 4.08 79.21 2.27 79.26 1.73 78.72 1.68 74.11 1.26"/><path class="cls-1" d="M100.5,11.25,99.19,8.07l-.09-.21-.22-.08L90.42,4.5l-.5-.19-.2.5-.65,1.69-.19.5.5.19,1,.38L86.74,17l-1-.38-.5-.2-.2.5-.65,1.69-.19.5.5.2,5.12,2,.51.19.19-.5.65-1.69.2-.51-.5-.19-1.19-.46.75-2L95,17.88l.22.08.21-.1,3.1-1.48.19-.09.08-.2,1.72-4.45.08-.2Zm-9,2.06,1.72-4.45,3.5,1.35.55,1.3-1,2.55-1.3.59Z"/><polygon class="cls-1" points="30.75 19.42 30.97 19.35 31.06 19.14 32.5 16.02 32.59 15.82 32.52 15.62 31.61 12.91 31.44 12.4 30.93 12.57 29.2 13.15 28.69 13.32 28.87 13.84 29.41 15.45 28.7 16.91 25.42 18.02 24.33 17.46 21.77 9.88 22.31 8.76 25.6 7.65 27.03 8.39 27.57 10.01 27.75 10.52 28.26 10.35 29.98 9.77 30.49 9.59 30.32 9.08 29.41 6.37 29.34 6.17 29.15 6.07 26.11 4.46 25.91 4.35 25.69 4.42 20.27 6.25 20.05 6.33 19.95 6.54 18.51 9.66 18.42 9.85 18.49 10.06 21.61 19.3 21.68 19.51 21.87 19.61 24.9 21.22 25.11 21.33 25.33 21.25 30.75 19.42"/><polygon class="cls-1" points="12.41 41.51 8.7 36.34 12.19 31.47 13.23 31.47 13.77 31.47 13.77 30.93 13.77 29.12 13.77 28.58 13.23 28.58 8.41 28.58 7.88 28.58 7.88 29.12 7.88 30.93 7.88 31.47 8.41 31.47 8.52 31.47 5.94 35.05 4.76 35.05 4.76 31.47 5.8 31.47 6.35 31.47 6.35 30.93 6.35 29.12 6.35 28.58 5.8 28.58 0.54 28.58 0 28.58 0 29.12 0 30.93 0 31.47 0.54 31.47 1.59 31.47 1.59 41.51 0.54 41.51 0 41.51 0 42.05 0 43.87 0 44.41 0.54 44.41 5.8 44.41 6.35 44.41 6.35 43.87 6.35 42.05 6.35 41.51 5.8 41.51 4.76 41.51 4.76 37.94 6.19 37.94 8.75 41.51 8.64 41.51 8.1 41.51 8.1 42.05 8.1 43.87 8.1 44.41 8.64 44.41 13.45 44.41 13.99 44.41 13.99 43.87 13.99 42.05 13.99 41.51 13.45 41.51 12.41 41.51"/><polygon class="cls-1" points="16.79 28.58 16.25 28.58 16.25 29.12 16.25 30.93 16.25 31.47 16.79 31.47 18.07 31.47 18.07 41.51 16.79 41.51 16.25 41.51 16.25 42.05 16.25 43.87 16.25 44.41 16.79 44.41 22.51 44.41 23.05 44.41 23.05 43.87 23.05 42.05 23.05 41.51 22.51 41.51 21.24 41.51 21.24 31.47 22.51 31.47 23.05 31.47 23.05 30.93 23.05 29.12 23.05 28.58 22.51 28.58 16.79 28.58"/><polygon class="cls-1" points="40.87 28.58 35.61 28.58 35.07 28.58 35.07 29.12 35.07 30.93 35.07 31.47 35.61 31.47 36.66 31.47 36.66 39.47 31.05 28.87 30.9 28.58 30.57 28.58 25.85 28.58 25.31 28.58 25.31 29.12 25.31 30.93 25.31 31.47 25.85 31.47 26.9 31.47 26.9 41.51 25.85 41.51 25.31 41.51 25.31 42.05 25.31 43.87 25.31 44.41 25.85 44.41 31.12 44.41 31.66 44.41 31.66 43.87 31.66 42.05 31.66 41.51 31.12 41.51 30.07 41.51 30.07 33.54 35.67 44.12 35.83 44.41 36.15 44.41 39.29 44.41 39.83 44.41 39.83 43.87 39.83 31.47 40.87 31.47 41.41 31.47 41.41 30.93 41.41 29.12 41.41 28.58 40.87 28.58"/><polygon class="cls-1" points="53.97 28.58 53.43 28.58 53.43 29.12 53.43 30.93 53.43 31.47 53.97 31.47 55.02 31.47 55.02 39.47 49.41 28.87 49.26 28.58 48.93 28.58 44.21 28.58 43.67 28.58 43.67 29.12 43.67 30.93 43.67 31.47 44.21 31.47 45.26 31.47 45.26 41.51 44.21 41.51 43.67 41.51 43.67 42.05 43.67 43.87 43.67 44.41 44.21 44.41 49.48 44.41 50.02 44.41 50.02 43.87 50.02 42.05 50.02 41.51 49.48 41.51 48.43 41.51 48.43 33.54 54.04 44.12 54.19 44.41 54.52 44.41 57.65 44.41 58.19 44.41 58.19 43.87 58.19 31.47 59.24 31.47 59.78 31.47 59.78 30.93 59.78 29.12 59.78 28.58 59.24 28.58 53.97 28.58"/><polygon class="cls-1" points="62.58 28.58 62.04 28.58 62.04 29.12 62.04 30.93 62.04 31.47 62.58 31.47 63.62 31.47 63.62 41.51 62.58 41.51 62.04 41.51 62.04 42.05 62.04 43.87 62.04 44.41 62.58 44.41 73.38 44.41 73.92 44.41 73.92 43.87 73.92 39.42 73.92 38.88 73.38 38.88 71.56 38.88 71.02 38.88 71.02 39.42 71.02 41.51 66.79 41.51 66.79 37.94 71.56 37.94 72.1 37.94 72.1 37.4 72.1 35.59 72.1 35.05 71.56 35.05 66.79 35.05 66.79 31.47 71.02 31.47 71.02 33.57 71.02 34.11 71.56 34.11 73.38 34.11 73.92 34.11 73.92 33.57 73.92 29.12 73.92 28.58 73.38 28.58 62.58 28.58"/><path class="cls-1" d="M89.17,41.51h-.9l-1.74-2.88,2-2.11.15-.16v-5l-.15-.16-2.36-2.5L86,28.58H76.18v2.9h1.59v10H76.18v2.9H82.3v-2.9H80.93V39.19h2.49l1.39,2.32H84.6v2.9h5.12v-2.9Zm-8.24-9.9h3.75l1,1v2.51l-1,1H80.93Z"/><polygon class="cls-1" points="103.32 28.58 92.52 28.58 91.97 28.58 91.97 29.12 91.97 30.93 91.97 31.47 92.52 31.47 93.56 31.47 93.56 41.51 92.52 41.51 91.97 41.51 91.97 42.05 91.97 43.87 91.97 44.41 92.52 44.41 103.32 44.41 103.86 44.41 103.86 43.87 103.86 39.42 103.86 38.88 103.32 38.88 101.5 38.88 100.96 38.88 100.96 39.42 100.96 41.51 96.73 41.51 96.73 37.94 101.5 37.94 102.04 37.94 102.04 37.4 102.04 35.59 102.04 35.05 101.5 35.05 96.73 35.05 96.73 31.47 100.96 31.47 100.96 33.57 100.96 34.11 101.5 34.11 103.32 34.11 103.86 34.11 103.86 33.57 103.86 29.12 103.86 28.58 103.32 28.58"/><polygon class="cls-1" points="118.46 28.58 106.66 28.58 106.12 28.58 106.12 29.12 106.12 33.57 106.12 34.11 106.66 34.11 108.38 34.11 108.92 34.11 108.92 33.57 108.92 31.47 110.97 31.47 110.97 41.51 109.24 41.51 108.7 41.51 108.7 42.05 108.7 43.87 108.7 44.41 109.24 44.41 115.87 44.41 116.41 44.41 116.41 43.87 116.41 42.05 116.41 41.51 115.87 41.51 114.14 41.51 114.14 31.47 116.19 31.47 116.19 33.57 116.19 34.11 116.73 34.11 118.46 34.11 119 34.11 119 33.57 119 29.12 119 28.58 118.46 28.58"/><path class="cls-2" d="M19.41,58.69l1.44-.28c0,.14,0,.27,0,.38a2.8,2.8,0,0,0,0,.36,1.28,1.28,0,0,0,.09.32.57.57,0,0,0,.16.21.38.38,0,0,0,.24.08c.28,0,.42-.18.42-.54A2,2,0,0,0,21,57.75l-.44-.37-.33-.29a3.67,3.67,0,0,1-.3-.31,2,2,0,0,1-.27-.38,2.23,2.23,0,0,1-.16-.45,2.16,2.16,0,0,1-.07-.55A1.74,1.74,0,0,1,20,54a2,2,0,0,1,1.44-.5,1.71,1.71,0,0,1,1.27.53,1.75,1.75,0,0,1,.52,1.28v.17l-1.46.2s0-.07,0-.13,0-.11,0-.15a1.65,1.65,0,0,0,0-.27,1.59,1.59,0,0,0-.06-.26.43.43,0,0,0-.14-.2.34.34,0,0,0-.23-.08.39.39,0,0,0-.35.18.79.79,0,0,0-.12.43,1.24,1.24,0,0,0,.07.41,1.16,1.16,0,0,0,.21.36,2.94,2.94,0,0,0,.26.27l.31.27.28.23a6.24,6.24,0,0,1,.51.5,3.79,3.79,0,0,1,.39.52,2.39,2.39,0,0,1,.28.63,2.85,2.85,0,0,1,.09.73,1.55,1.55,0,0,1-.52,1.2,1.85,1.85,0,0,1-1.28.47,2,2,0,0,1-.86-.18,1.59,1.59,0,0,1-.61-.49,2.38,2.38,0,0,1-.36-.68A3,3,0,0,1,19.41,58.69Z"/><path class="cls-2" d="M24.91,58.09v-4.4h1.42V58c0,.25,0,.43,0,.54s0,.25,0,.41a1.3,1.3,0,0,0,.05.34,1.37,1.37,0,0,0,.11.21.3.3,0,0,0,.18.15,1,1,0,0,0,.53,0,.31.31,0,0,0,.18-.14,1.29,1.29,0,0,0,.11-.21,1.16,1.16,0,0,0,.06-.34c0-.16,0-.3,0-.4s0-.29,0-.53V53.69H29v4.4c0,.22,0,.43,0,.61a5.64,5.64,0,0,1-.07.56,2.71,2.71,0,0,1-.15.51,2,2,0,0,1-.25.43,1.38,1.38,0,0,1-.37.34,1.82,1.82,0,0,1-.51.21,2.93,2.93,0,0,1-1.35,0,1.81,1.81,0,0,1-.51-.21,1.4,1.4,0,0,1-.37-.34,2,2,0,0,1-.25-.43,2.67,2.67,0,0,1-.15-.51,4.93,4.93,0,0,1-.08-.56C24.92,58.51,24.91,58.31,24.91,58.09Z"/><path class="cls-2" d="M31,60.69v-7h1.7l.75,4.67.8-4.67h1.64v7h-1l0-4.93c-.08.51-.21,1.33-.41,2.46s-.33,2-.41,2.46H32.94l-.86-5,0,5Z"/><path class="cls-2" d="M37.92,60.69v-7h1.7l.75,4.67.81-4.67h1.64v7h-1l0-4.93q-.12.76-.41,2.46t-.41,2.46H39.86l-.86-5,0,5Z"/><path class="cls-2" d="M44.84,60.69v-7h2.92v1H46.25v1.91h1.07v1H46.25v2.16h1.51v1Z"/><path class="cls-2" d="M49.46,60.69v-7H51a3.87,3.87,0,0,1,.92.1,2.06,2.06,0,0,1,.7.31,1.33,1.33,0,0,1,.46.57,2.17,2.17,0,0,1,.16.86c0,.15,0,.28,0,.39a2.54,2.54,0,0,1-.07.39,1.51,1.51,0,0,1-.15.39,1.37,1.37,0,0,1-.28.33,1.58,1.58,0,0,1-.43.27q.63,2,1.1,3.39H51.91l-.8-3.23h-.23v3.23Zm1.42-4.09h.4a.39.39,0,0,0,.28-.11.61.61,0,0,0,.17-.28,2.09,2.09,0,0,0,.07-.31,1.59,1.59,0,0,0,0-.27,1.76,1.76,0,0,0,0-.26,2.39,2.39,0,0,0-.06-.29.61.61,0,0,0-.15-.26.35.35,0,0,0-.25-.1h-.47Z"/><path class="cls-2" d="M57.82,60.69v-7h1.46a4.4,4.4,0,0,1,1.15.13,1.45,1.45,0,0,1,.71.42,1.6,1.6,0,0,1,.36.69,4.48,4.48,0,0,1,.1,1v2.3c0,.25,0,.47,0,.65a3.58,3.58,0,0,1-.09.55,1.68,1.68,0,0,1-.18.45,1.53,1.53,0,0,1-.29.34,1.33,1.33,0,0,1-.42.25,3,3,0,0,1-.58.14,5.33,5.33,0,0,1-.76,0Zm1.47-1h.32l.23,0a.34.34,0,0,0,.27-.18.45.45,0,0,0,.06-.18,1.81,1.81,0,0,0,0-.27V55.26A.47.47,0,0,0,60,54.8a1.57,1.57,0,0,0-.69-.12Z"/><path class="cls-2" d="M63,60.69l1.51-7h1.25l1.51,7h-1.4l-.29-1.5h-.91l-.27,1.5Zm1.78-2.37h.72l-.35-2.6Z"/><path class="cls-2" d="M69.69,60.69V58.38l-1.32-4.69h1.34l.65,3.08.36-1.54.36-1.54h1.3l-1.32,4.69v2.32Z"/><path class="cls-2" d="M76.69,58.35V56q0-2.48,2-2.48a2.38,2.38,0,0,1,.76.11A1.64,1.64,0,0,1,80,54a1.62,1.62,0,0,1,.37.5,2.4,2.4,0,0,1,.21.64,4.27,4.27,0,0,1,.06.76v.6H79.29v-.65c0-.13,0-.24,0-.33a2.22,2.22,0,0,0,0-.32,1,1,0,0,0-.09-.29.51.51,0,0,0-.17-.19.45.45,0,0,0-.27-.08q-.62,0-.62,1v3q0,1,.62,1a.46.46,0,0,0,.31-.1.58.58,0,0,0,.18-.3,2.63,2.63,0,0,0,.07-.38c0-.12,0-.27,0-.42v-.72h1.39v.59a5.14,5.14,0,0,1-.07.74,2.82,2.82,0,0,1-.2.66,1.75,1.75,0,0,1-.36.54,1.58,1.58,0,0,1-.56.35,2.13,2.13,0,0,1-.79.13,2.32,2.32,0,0,1-.81-.13,1.62,1.62,0,0,1-.58-.35,1.84,1.84,0,0,1-.38-.54,2.7,2.7,0,0,1-.21-.68A4.77,4.77,0,0,1,76.69,58.35Z"/><path class="cls-2" d="M82.16,60.69l1.51-7h1.25l1.51,7H85l-.29-1.5h-.91l-.27,1.5Zm1.78-2.37h.72l-.35-2.6Z"/><path class="cls-2" d="M88.09,60.69v-7h1.7l.75,4.67.81-4.67H93v7h-1l0-4.93q-.12.76-.41,2.46t-.41,2.46H90l-.86-5,0,5Z"/><path class="cls-2" d="M95,60.69v-7H96.7a1.62,1.62,0,0,1,1.33.51,2.28,2.28,0,0,1,.42,1.48,3.32,3.32,0,0,1-.09.82,1.82,1.82,0,0,1-.26.58,1.21,1.21,0,0,1-.42.37,1.92,1.92,0,0,1-.56.2,4,4,0,0,1-.69.06v3Zm1.43-4,.2,0,.15,0a.26.26,0,0,0,.12-.06L97,56.5a.29.29,0,0,0,.06-.11l0-.13a1.1,1.1,0,0,0,0-.16c0-.08,0-.14,0-.18v-.27c0-.1,0-.18,0-.23s0-.12,0-.2a.66.66,0,0,0,0-.18A.84.84,0,0,0,97,54.9a.3.3,0,0,0-.12-.11l-.18-.06a1.06,1.06,0,0,0-.25,0Z"/><rect class="cls-2" x="15.43" y="51.61" width="86.43" height="0.54"/><rect class="cls-2" x="15.43" y="62.3" width="86.43" height="0.54"/></svg>