<svg id="Icons" xmlns="http://www.w3.org/2000/svg" viewBox="0 0 414.91 421.17"><defs><style>.cls-1{fill:#fff;}.cls-2{fill:#eaecf2;}</style></defs><title>maintenance</title><path class="cls-1" d="M342.55,40.66V77.51c0,7.51-1.16,21.15-12.76,23.2l-1.36,2.39c0,2.07-10.13,3.75-22.62,3.75s-22.62-1.68-22.62-3.75l-1.31-2.39c-11.6-2-12.76-15.69-12.76-23.2V40.66"/><path class="cls-2" d="M340.65,40.13c0,12.28.1,24.57,0,36.85,0,5.28-.42,11-3,15.72a12.79,12.79,0,0,1-7.32,6.09c-2.25.82-2,.91-3.34,2.83-2.52,3.48-11.4,3.25-15.71,3.44-8.09.36-16.66.33-24.57-1.61-2.15-.53-1.48-.63-2.74-2.51s-2.65-1.71-4.82-2.7c-5.9-2.71-7.45-10.08-7.93-15.92C270.08,68.76,271,54.77,271,41.2c0-2-3.8-3.22-3.8-1.07,0,13.72-.85,27.77.14,41.46.42,5.73,1.8,12,5.91,16.23a15,15,0,0,0,6,3.85c2,.66.52-.95,1.73.91a14.54,14.54,0,0,0,1,1.89c3.35,3.83,12.08,3.58,16.57,3.85,8.8.52,18.76.78,27.34-1.63a7.41,7.41,0,0,0,4.22-2.32c.41-.52.46-1.37,1-1.87.73-.73,2.13-.78,3.36-1.35,5.2-2.44,7.87-7.76,9.07-13.13,1.31-5.86.95-12,.95-17.93V41.2c0-2-3.8-3.22-3.8-1.07Z"/><path class="cls-2" d="M281.15,104.65V116L265,137.22l.07-1.18v64l-.07,1.36c0,7.73,18.48,14,41.28,14H305c22.8,0,41.28-6.26,41.28-14l-.07-1.36V136l.07,1.18L330.13,116V104.65"/><path class="cls-2" d="M279.25,104.12c0,3.29.22,6.66,0,9.94-.12,1.82-1.46,3.12-3.11,5.28l-12.92,16.94,3.67,1.47.07-1.18-3.8-1.07v61c0,4.33-.2,7.82,3.4,11,10,8.8,27.52,9.45,40,9.54l-.5-3.36h-1.26l.5,3.36c12.15-.09,26.62-.88,37.24-7.52,4.62-2.89,5.65-6,5.61-10.92-.1-15.44,0-30.88,0-46.32v-15.7l-3.8-.64.07,1.18,3.43-.62L334.9,119.55c-.78-1-1.63-2.72-2.67-3.5a2.87,2.87,0,0,1-.54-.71c.94,1.55.12,1.15.34.09.63-3.12,0-7,0-10.24,0-2-3.8-3.22-3.8-1.07,0,3.48-.29,7.07,0,10.54.19,2.26,1.27,3.3,2.67,5.13l13.85,18.16c.92,1.21,3.56,1.4,3.43-.62l-.07-1.18c-.11-1.71-3.8-2.65-3.8-.64v57.11c0,2.77.8,7.66-.42,10.26-2.11,4.49-9.32,6.51-13.6,7.7a97.41,97.41,0,0,1-25.54,3.1c-2.61,0-1.67,3.36.5,3.36h1.26c2.61,0,1.67-3.34-.5-3.36a105.33,105.33,0,0,1-22-2.19c-4.94-1.1-10.8-2.51-14.73-5.91-3.07-2.65-2.29-6.64-2.29-10.35V136.57c0-1.92-3.66-3.31-3.8-1.07l-.07,1.18c-.12,1.87,2.5,3,3.67,1.47l13.4-17.57c1.27-1.66,2.58-2.87,2.89-4.87.53-3.33,0-7.16,0-10.54,0-2-3.8-3.22-3.8-1.07Z"/><path class="cls-2" d="M346.29,137.22c0,5-18.48,9.09-41.28,9.09s-41.28-4.07-41.28-9.09"/><path class="cls-1" d="M344.39,136.68c-.38,3.77-9.5,5-12.19,5.58a136.53,136.53,0,0,1-26.5,2.36,149.42,149.42,0,0,1-25.9-1.85c-2.65-.45-13.8-1.73-14.18-5.45-.2-2-4-2.57-3.8-.21.49,4.78,7.67,6.59,11.36,7.56,10.06,2.65,20.77,3.26,31.13,3.31,10.58.05,21.5-.47,31.83-3,3.65-.88,11.56-2.45,12-7.27.2-2-3.58-3.26-3.8-1.07Z"/><path class="cls-2" d="M331.62,119c0,2.07-11.91,3.75-26.61,3.75s-26.61-1.68-26.61-3.75"/><path class="cls-1" d="M329.72,118.46c-.28,1.1-7.78,1.7-8.59,1.79a142,142,0,0,1-16.37.82c-4.9,0-9.81-.17-14.69-.63a62,62,0,0,1-6.5-.87c-.82-.17-3.45-1.17-3.27-.47-.48-1.91-4.36-2.48-3.8-.21.69,2.77,4.2,3.38,6.58,3.88,6.92,1.45,14.2,1.62,21.23,1.66a127.9,127.9,0,0,0,21.44-1.31c2.26-.37,7.06-.74,7.77-3.59.48-1.94-3.26-3.23-3.8-1.07Z"/><path class="cls-2" d="M330.5,100.94c-.32,1.31-7.62,2.11-8.6,2.26a108.65,108.65,0,0,1-16.37,1.14,117.4,117.4,0,0,1-14.69-.87,53.72,53.72,0,0,1-6.5-1.14c-.81-.21-3.41-1.3-3.27-.74-.47-1.91-4.35-2.48-3.8-.21.68,2.76,4.21,3.54,6.58,4.14,6.86,1.74,14.19,2.12,21.23,2.17a101.85,101.85,0,0,0,21.44-1.75c2.3-.48,7.07-1.07,7.77-3.93.48-1.95-3.27-3.23-3.8-1.07Z"/><path class="cls-2" d="M326.68,34.18c0,.94-12.47-4.57-27.84-4.57S271,35.12,271,34.18L243.74,44.35c0,2.64,26.49,4.78,59.16,4.78s59.16-2.14,59.16-4.78Z"/><path class="cls-2" d="M324.91,33.24c1.25-1.75,1.17-.12,0-.93a10.84,10.84,0,0,0-2.38-.66c-2.32-.64-4.65-1.25-7-1.76a79.46,79.46,0,0,0-17.85-2,82.5,82.5,0,0,0-17.35,2.2c-2.19.5-4.36,1.11-6.53,1.7a6.73,6.73,0,0,0-1.8.49c-1.61,1.12-1.33-1.49.54,1.11a2.34,2.34,0,0,0-2.68-.78L242.59,42.83a1.3,1.3,0,0,0-.75,1.41c.95,4.71,12.51,4.52,15.8,4.84,14.77,1.44,29.7,1.7,44.53,1.72s29.75-.26,44.55-1.53c3-.26,16.35,0,17.24-4.39.2-1-.81-1.89-1.65-2.13L326.92,32.58c-2.51-.72-2.73,2.55-.49,3.19l35.38,10.17-1.65-2.13c0,.25-6,1.18-7.21,1.34-5.58.76-11.22,1.15-16.85,1.46-15.56.87-31.18,1-46.76.72-12.32-.23-24.76-.54-37-2.14-1.79-.23-3.57-.73-5.36-.92-.31,0-1.25-.55-1.51-.44s-.93,1.69-.49,2c.63.43,6.06-2.26,6.83-2.55l20.33-7.58-2.68-.78c1.63,2.28,5.67.25,7.63-.28a74.58,74.58,0,0,1,44-.06c1.72.47,6,2.55,7.38.55C329.64,33.45,326.13,31.53,324.91,33.24Z"/><path class="cls-2" d="M335.75,35.75C324.15,24.49,318.65,13.26,303,13.26H301c-15.69,0-21.19,11.22-32.79,22.48"/><path class="cls-2" d="M335.4,36.11c-2.68-2.6-5-5.16-7.25-7.64-7.44-8.21-13.32-14.7-25.19-14.7H301c-11.87,0-17.75,6.49-25.19,14.7-2.25,2.48-4.57,5-7.25,7.64l-.7-.72c2.65-2.58,5-5.13,7.2-7.59,7.61-8.4,13.62-15,25.93-15H303c12.31,0,18.32,6.63,25.93,15,2.24,2.47,4.55,5,7.2,7.59Z"/><path class="cls-1" d="M343,73.8c2.68.31,3.52.66,3.52,1,0,1.3-18.52,2.35-41.35,2.35s-41.35-1.05-41.35-2.35c0-.42,1.94-.82,5.34-1.16"/><path class="cls-2" d="M343.23,75.48l1.9.31-.18-2.14c-.09-.07-.61.22-.74.18a9.62,9.62,0,0,0-2.64.39c-3.35.41-6.74.58-10.12.74-9.49.45-19,.57-28.51.55-8.88,0-17.78-.17-26.65-.65-3-.16-6-.32-8.94-.71a10.74,10.74,0,0,0-2.42-.42c-.58.4,1.12,1.9,1.5,2.05s3.08-.42,3.42-.45c2.48-.28.55-3.52-1.45-3.3-1.63.18-7.38.13-6.34,3.24.62,1.85,3.9,2,5.41,2.19,12.47,1.68,25.38,1.42,37.92,1.41S330.61,79,343,77.52c1.31-.16,4.6-.17,5.25-1.75,1.19-2.9-4-3.44-5.53-3.65-2.58-.35-1.6,3.07.5,3.36Z"/><path class="cls-2" d="M284.87,48c0,10-.28,20,.08,29.93a56.81,56.81,0,0,0,2.17,15.15,21.46,21.46,0,0,0,2.74,5.78c1.6,2.32,4.39,4.22,5.33,6.89.68,1.93,4.38,1.73,3.55-.65-1.54-4.37-5.94-6.78-7.61-11.25-1.84-4.93-2.21-10.49-2.39-15.71-.34-9.67-.08-19.4-.08-29.07,0-2-3.8-3.22-3.8-1.07Z"/><path class="cls-2" d="M332.22,48c0,10.11-.07,20.2.28,30.29.24,7-1.17,13.32-6.58,18.15-3.06,2.73-7,3.95-8.47,8-.72,2,2.82,3.81,3.53,1.88,1.59-4.32,7.18-6.17,10.12-9.61,3.69-4.32,5.14-9.53,5.25-15.14.21-10.81-.33-21.73-.33-32.55,0-2-3.8-3.22-3.8-1.07Z"/><path class="cls-1" d="M318.22,164.13c-1.65,5.08.21,10.24,4.17,11.52a6,6,0,0,0,2.35.27,7.06,7.06,0,0,0,2.46-.68,10.74,10.74,0,0,0,5.34-6.47c1.65-5.08-.21-10.24-4.17-11.52S319.87,159,318.22,164.13Z"/><path class="cls-2" d="M324.24,176.45a6.48,6.48,0,0,1-2-.32c-4.21-1.37-6.22-6.82-4.49-12.15h0a11.65,11.65,0,0,1,4.4-6.08,7.24,7.24,0,0,1,6.37-1.11c4.21,1.37,6.22,6.82,4.49,12.15a11.18,11.18,0,0,1-5.6,6.77,7.56,7.56,0,0,1-2.63.72Zm-5.54-12.16c-1.56,4.81.16,9.7,3.85,10.89a5.62,5.62,0,0,0,2.16.25,6.58,6.58,0,0,0,2.28-.63,10.32,10.32,0,0,0,5.07-6.17c1.56-4.81-.16-9.7-3.85-10.89a6.26,6.26,0,0,0-5.5,1,10.65,10.65,0,0,0-4,5.56Z"/><polyline class="cls-2" points="320.97 174.36 324.37 173.57 332.35 157.88 328.95 157.23"/><polygon class="cls-2" points="321.08 174.85 320.86 173.87 324.03 173.14 331.6 158.25 328.86 157.72 329.04 156.74 333.1 157.51 324.71 174.01 321.08 174.85"/><line class="cls-1" x1="328.9" y1="156.93" x2="320.61" y2="174.78"/><rect class="cls-2" x="314.92" y="165.36" width="19.68" height="1" transform="translate(37.43 390.4) rotate(-65.06)"/><path class="cls-1" d="M275.37,30.73c-5.75.86-5.07,1.15-7.38,2s-2.88.58-5.75,5.18S236.05,79.28,232.6,83.59c-3.45,5.75-2.39,7.85,1.53,9.15,3.11,1,29.7-5.55,35.57-6.8l-.26-5c-4.19,1.57-26.42,5.75-29.3,6.54s-3.4,0-.26-5.23c3.14-3.92,24.33-36.62,26.94-40.81s3.14-3.92,5.23-4.71,1-1,6.28-1.83c0,0,2.88-1.83,1.18-3.27A5.4,5.4,0,0,0,275.37,30.73Z"/><path class="cls-2" d="M274.64,29.08c-3.35.53-7.47,1.33-10.38,3.27-2.56,1.71-4,5-5.67,7.61q-7.51,11.88-15.13,23.7c-4.11,6.38-8.61,12.57-12.63,19-5.14,8.21.84,12.63,8.82,11.49,10.38-1.48,20.54-4.33,30.77-6.55a1.4,1.4,0,0,0,1.18-1.54l-.26-5c-.07-1.42-1.93-2-3-1.62-7.95,2.78-16.74,3.82-25,5.54-1,.21-2.75.24-3.61.79-.19.12-.51.05-.7.17-.87.55.88,1,.67,1.19.8-.51,1.51-3.19,2.13-4.15,1.48-2.25,3.11-4.42,4.62-6.66,5-7.45,9.9-15,14.79-22.49,3.15-4.85,6.83-13.47,12.3-15.7,2.59-1.05,7.59-1,8.33-4.46.79-3.72-4.49-5-7.22-4.61-2.48.37-.56,3.6,1.45,3.3.93-.14,1.41.54.94,1.14-.28.37-2.67.32-3.37.55a33.26,33.26,0,0,0-3.48,1.44c-3,1.37-4.32,3.77-6,6.46q-6.42,10-13,20c-4.16,6.34-8.45,12.58-12.68,18.87-1.27,1.89-4,5.61-1.78,7.77,1.72,1.66,4.57.43,6.55,0,9-2,18.57-3.07,27.32-6.13l-3-1.62.26,5L269,84.3c-9.69,2.1-19.3,4.67-29.09,6.28-1.44.24-4,1.06-5.41.59-4.05-1.32-.85-5.42.48-7.42,2-3,4.11-6,6.11-9.07,5.94-9.06,11.77-18.2,17.58-27.34,1.74-2.74,3.44-5.52,5.22-8.24,3.06-4.71,6.84-5.86,12.23-6.71C278.57,32,276.65,28.76,274.64,29.08Z"/><path class="cls-1" d="M367.37,254.2c-11.21-.7-28,18.22-28.73,28.73"/><path d="M367.2,252.69c-7.24-.37-13.71,4.66-18.6,9.48-5.36,5.3-11.21,12.64-11.5,20.51-.06,1.49,2.77,2.76,3.08.88,1.89-11.29,15.07-27.51,27.37-27.86,1.89-.05,1.23-2.93-.36-3Z"/><path class="cls-1" d="M285.34,158.91c-1.84,12.69-4.05,27.31-.62,39.88.33,1.19,2.85,2.54,2.79.49-.18-6.6-.8-13.11-.59-19.73s.87-13.09,1.38-19.63c.11-1.46-2.7-2.84-3-1Z"/><path class="cls-2" d="M74.31,189c-73.76,20.4,52.58,132.62,73,154.59,28.25,31.39,60.42,65.92,102.8,74.55,38.45,7.85,74.55-8.63,108.29-25.9,15.69-7.85,38.45-18,50.22-29.82,13.34-13.34-3.14-29-13.34-40-33-33-91-27.47-130.26-47.87-21.19-10.2-36.1-35.31-51-52.58-19.62-20.4-43.16-32.17-66.7-47.08C127.67,162.33,79,158.4,71.17,189c1.57,0,.78-1.57,1.57-2.35"/><path class="cls-2" d="M73.26,188c-50.45,14.35-3.88,72.8,14.69,94.68,14.88,17.54,31.07,33.88,47.41,50.05,21,20.75,39.45,43.89,63.19,61.71,15.07,11.31,32,20.42,50.52,24.47,21.1,4.62,42.69,1.81,63-4.83,20.83-6.8,40.21-17.24,59.79-26.94,9.17-4.54,18.34-9.22,26.84-14.94,6.17-4.16,14.29-9.5,15.88-17.3,1.48-7.26-2.86-14.39-7.08-19.9a109.65,109.65,0,0,0-16.87-17.83c-13-10.75-29.08-16.85-45.21-21.17-17.9-4.8-36.27-7.57-54.13-12.49a139.61,139.61,0,0,1-25-9.2c-9-4.46-16.52-10.73-23.34-18.07-13.4-14.42-23.48-31.48-38.53-44.36C188,197.77,168.89,187.42,150.59,176a75.06,75.06,0,0,0-36-11.43c-12.24-.72-26.07,1-35.75,9.22a28.6,28.6,0,0,0-9,14.52c-.27,1,1.57,1.95,2.34,1.7,1.47-.47,1.08-1.2,1.74-2.49.52-1-2-2.68-2.43-1.76-.28.55-.93,2.06-1.4,2.21l2.34,1.7c7.59-27.59,46-26.35,67.22-17.75,7.19,2.91,13.62,7.66,20.22,11.65,9.25,5.59,18.54,11.12,27.45,17.24,9.09,6.25,18.06,13.12,25.56,21.26,5.94,6.45,11,13.74,16.46,20.62C239.72,255.85,250.84,268.44,266,276c14.23,7.08,29.78,10.83,45.23,14.18,16.78,3.64,33.81,6.69,50,12.59a96.24,96.24,0,0,1,42.43,30.16c5.63,6.83,11.9,16.38,6.5,25.15-4.62,7.49-14,12.66-21.42,17-16.75,9.78-34.68,18.3-52.29,26.4-19.39,8.92-39.94,16.33-61.43,17.46-21.06,1.11-41.41-4.66-59.57-15.13C186.54,387.11,166.2,361.29,143,338c-13.78-13.82-27.74-27.43-40.91-41.84C86.36,279,70.46,260.57,59.93,239.58c-7-13.87-12.58-33.29,2.65-43.89A42.49,42.49,0,0,1,75.35,190c1-.29-1.06-2.34-2.09-2Z"/><path class="cls-1" d="M73.52,60.31C58.61,79.15,38.21,75.22,17,80.72c-5.49.78-15.69,3.92-15.69,11.77,0,8.63,11,8.63,15.69,14.12,9.42,10.2,7.06,28.25,8.63,40,.78,7.06,1.57,14.91,4.71,22S42.13,181.16,44.49,189c1.57,6.28-4.71,17.26,1.57,22,9.42,6.28,12.56-9.42,19.62-12.56S79,200,86.86,199.21s15.69-6.28,22.76-8.63c19.62-7.06,33.74-14.12,39.24-35.31,6.28-27.47-13.34-69.06-32.17-88.67-11-12.56-18-10.2-32.17-7.85C79.8,59.53,69.6,58,72.74,61.1"/><path class="cls-2" d="M72.31,59.43C58.42,76.35,37.24,74.94,17.69,79.26c-6,1.33-14.18,2.7-16.93,9.12C-1.67,94,2.11,98.69,6.81,101.33c3.79,2.13,7.72,3.34,10.47,6.94,3.34,4.36,4.72,9.88,5.46,15.23,1.27,9.18,1,18.49,2.2,27.69,1.31,10.35,3.93,18.48,10.81,26.35,3,3.38,7,7.38,7.64,12.05.64,4.91-1.74,9.78-1.46,14.71s4.18,9.61,9.44,9.22c5.81-.43,8.56-7.88,12.05-11.53s8.2-3.89,13.08-3c5.23,1,9.83,1.92,15.09.52,4.66-1.24,8.92-3.52,13.27-5.53,4.6-2.13,9.44-3.65,14.12-5.58,15.07-6.22,27.22-16,31.16-32.48,4.16-17.42-1.84-36.84-8.84-52.71a142.91,142.91,0,0,0-15.86-27.49c-5-6.77-11.1-14.85-19.06-18.29-7.42-3.2-15.1-.8-22.7.2-2,.26-15.85-1.13-12,3.55.72.87,3.28,1.28,2-.22-.42-.51,7.51-.9,8.12-.91,3.65-.1,7.19-.94,10.79-1.48,9.14-1.37,15.58.26,22.12,7.14,11.79,12.4,20.63,27.58,26.76,43.5,5.86,15.23,10.31,33.53,4.77,49.49-5.24,15.08-17.65,23.08-31.9,28.65-3.89,1.52-7.84,2.83-11.64,4.59-4.89,2.26-9.78,5-15.15,5.95-7.75,1.34-16.41-4.34-23.73-.12-4.81,2.77-6.51,8.79-10.82,12.1-5,3.87-8.81-1.51-8.49-6.69.24-3.81,1.58-7.54,1.46-11.38-.21-6.69-6.14-11.88-10.13-16.63-6.83-8.13-8-18.48-9-28.69-1.43-13.35,1-30.81-9.79-41-4.94-4.65-19.23-7.24-13.15-16.71,4.29-6.68,15.66-7.61,22.71-8.8,18-3,35.64-3.61,48.09-18.77.68-.83-1.71-2.63-2.43-1.76Z"/><path class="cls-2" d="M22.52,96.41c4.32.78,10.2,1.57,13.73,4.71,7.45,6.28,12.95,15.69,19.62,23.15,11,12.16,15.69,34.53,11.38,50.22-.78,2.75-2.75,10.59-4.71,12.56-4.32,3.53-10.2-4.32-13.34-7.85-6.67-7.85-7.85-19.62-10.59-29-4.71-15.69-10.2-30.6-11.77-47.08,0-.39-.13-5.23-.13-5.62"/><path class="cls-2" d="M23,97.49a48.91,48.91,0,0,1,8.82,2c4.52,1.71,8,6,11,9.68,4.24,5.16,8.14,10.57,12.45,15.68,8.62,10.2,12.55,24.38,12.24,37.6a58.27,58.27,0,0,1-2.59,15c-.66,2.29-1.3,6-2.93,7.77-3.37,3.75-8.06-1.88-10.4-4.55-9-10.25-10.18-25.26-14.12-37.89-4.55-14.58-9.24-29.28-9.49-44.67,0-1.06-2.61-2.43-2.59-1.36.28,16.8,5.68,32.7,10.59,48.61,4.52,14.62,5.89,29.77,18.18,40.37,3,2.61,7.73,5.19,10.48.89,3-4.63,4.34-11.93,5-17.31,1.87-14.29-1.77-30.43-10.33-42.12A253,253,0,0,0,41.5,105.07c-5.74-6.2-11.32-8.28-19.51-9.74-1.66-.3.07,2,1.06,2.16Z"/><path class="cls-1" d="M34.58,128.89c2.1-4.46,5.23-9.29,10.46-10.2,1.39-.24-.63-2.34-1.62-2.17-5.6,1-9,5.78-11.26,10.61-.49,1,2,2.68,2.43,1.76Z"/><path class="cls-1" d="M33.4,118.93a7.55,7.55,0,0,1,1.71-3.55,10.41,10.41,0,0,1,4.18-3.61c1-.45-1.11-2.47-2.09-2a11.38,11.38,0,0,0-4.52,3.89,8.47,8.47,0,0,0-1.87,4c-.06,1.06,2.52,2.48,2.59,1.36Z"/><path class="cls-1" d="M38.07,138.24c.82-7.19,5-13.68,12-16,1-.34-1.07-2.38-2.09-2-7.31,2.43-11.68,9.28-12.53,16.72-.12,1,2.46,2.5,2.59,1.36Z"/><path class="cls-1" d="M42.17,154.61c3.06-8.38,10.39-15.37,18.18-19.45,1-.54-1.15-2.53-2.09-2-8.1,4.24-15.5,11.45-18.67,20.13-.34.94,2.16,2.54,2.59,1.36Z"/><path class="cls-1" d="M46.94,171.67c3.14-9.67,13.11-14.52,21.59-18.76,1-.52-1.14-2.52-2.09-2-8.81,4.41-18.83,9.42-22.08,19.45-.31,1,2.2,2.54,2.59,1.36Z"/><path class="cls-1" d="M67.64,202.87c-3.89,7.27.61,16.89,3.88,23.54,4,8.22,9.27,15.68,14.57,23.11,14.21,19.93,31.23,40.33,52.24,53.35,1.71,1.06,1.47-1,.26-1.71-19.94-12.37-36.09-31.93-49.67-50.76a183.32,183.32,0,0,1-13.57-20.86c-3.57-6.7-9.33-17.32-5.27-24.9.54-1-1.94-2.68-2.43-1.76Z"/><path class="cls-1" d="M84.51,65.28c0,16.74,3.14,34,5.23,50.75,2.62,21.45-1,49.44,8.89,68.79,17.26,31.39,62.25,26.42,91.55,12.82,14.12-6.8,30.34-16.22,36.62-31.91,4.19-9.94,2.62-22,1.57-32.44-1-9.94-3.14-14.12-5.75-24.59a184.27,184.27,0,0,0-11.51-32.43c-4.94-11.68-19.77-31.7-28-37.93-10.92-8.27-35.63-13.27-50-18-.52,0-28,7.32-28.51,7.32"/><path class="cls-2" d="M83.22,64.6c.15,22.66,5.61,44.81,6.31,67.43.56,17.8-.59,38.41,8.88,54.29,15.71,26.34,50.86,26.08,76.86,18.36,15.37-4.56,31.44-12.22,42.91-23.63,6.58-6.55,11.16-14.76,12.3-24,1.16-9.53.07-20.09-1.73-29.48a248.24,248.24,0,0,0-7.95-29.34,160.44,160.44,0,0,0-11.23-27.27,142,142,0,0,0-14.06-20.75c-4-5-8.29-10.14-13.67-13.68-7.23-4.75-15.84-7.42-24-9.91-5-1.53-10.13-2.92-15.21-4.37-3-.87-7.09-3-10.25-3-1.5,0-3.35.82-4.79,1.19l-9.47,2.47c-4.67,1.22-9.48,3-14.26,3.66-1.38.2.63,2.32,1.62,2.17,8.43-1.24,16.88-4.38,25.14-6.5a13.46,13.46,0,0,1,3.3-.82c2.94.11,6.91,2.19,9.79,3,7.86,2.23,15.78,4.35,23.49,7.09,6.82,2.42,13.49,5.25,18.73,10.36A120,120,0,0,1,200.64,60c11.11,16.2,16.81,34.52,22,53.28a136.31,136.31,0,0,1,4.83,23.56c1,9.84,1.68,20.11-2.48,29.37-6.91,15.38-23.18,24.86-38,31.37-24.4,10.7-62.67,17.39-82.41-5.69-13.34-15.6-11.86-39.3-12.47-58.51C91.41,110.77,86,88.62,85.8,66c0-1.06-2.6-2.43-2.59-1.36Z"/><path class="cls-2" d="M186.52,116c7.38-2.55,12.38-10,15.34-16.88.46-1.06-2-2.67-2.43-1.76-2.91,6.75-7.76,14.09-15,16.6-1,.35,1.08,2.39,2.09,2Z"/><path class="cls-2" d="M118.06,63.45c3.14-4.32,1.77-3.53,5.3-7.45S141,44.62,135.52,39.91c-11-9.81-31,16.48-18.83,25.5Z"/><path class="cls-2" d="M119.27,64.33c2.67-3.78,4.72-7.25,8.44-10.17,3-2.38,6.9-4.71,9.09-8,3.47-5.19-2.48-9.49-7.51-9.51-12.73-.05-24,20.5-13.07,29.38.34.28,1.32.75,1.68.24l1.37-2c.63-.9-1.8-2.66-2.43-1.76l-1.37,2,1.68.24c-9.22-7.49,3.37-24.94,12.61-25.87,3.64-.37,7,1.92,4.62,5.52-1.74,2.59-4.59,4.5-7,6.38-4.53,3.48-7.25,7.16-10.51,11.77C116.21,63.47,118.64,65.23,119.27,64.33Z"/><path class="cls-2" d="M181.82,37.36c2,.39,5.1,6.47,5.89,8.44-5.49,1.57-12.95-1.18-17.66-4.71-2.75-1.57-7.06-7.45-11-7.06,7.85-1.7,3.4-5.23,13.21-2.62"/><path class="cls-2" d="M182,38.36c1.36.58,2.88,3.71,3.39,4.94.64,1.56.72,1,.17,1.7-1,1.23-6.76-.48-7.94-.87a25.87,25.87,0,0,1-6.57-3.28c-4-2.7-7.34-7.7-12.55-7.9l1.34,2.16a17.47,17.47,0,0,0,5.28-2.33c2.54-1.58,4.29-1.13,7.33-.37,1.9.48.73-1.71-.42-2-2.19-.55-5-1.59-7.26-.79s-3.86,2.64-6.55,3.32c-1.42.36.59,2.14,1.34,2.16,3.55.13,5.83,3.39,8.35,5.41a34.15,34.15,0,0,0,6.3,4c4.44,2.18,9.38,3.42,14.28,2.33.5-.11.56-.49.38-.92-1.5-3.5-3.58-8-7.28-9.6-1.79-.77-.62,1.56.42,2Z"/><path class="cls-2" d="M171.56,130.63c13.09,3.39,30.73-.65,37.36-13.46.53-1-2-2.68-2.43-1.76-6.24,12-22.89,16.45-35.35,13.22-1.9-.49-.72,1.71.42,2Z"/><path class="cls-1" d="M134.73,60.05c-10.2,4.71-9.42,23.8-6.54,32.44,2.09,6.28,4.45,9.94,11,10.72,5.49.52,10.2.78,15.69-.26,13.86-2.88,13.34-15.69,7.06-25.11-5-7.59-17.79-22-28.51-18a3.33,3.33,0,0,0-1.57,1"/><path class="cls-2" d="M133.69,59c-8.58,4.46-9.26,16.2-8.43,24.69C126.06,91.95,128.9,102,138,104c9,2,25.07,2.12,28.71-8.57,3-8.85-3.36-18-8.88-24.31C152.78,65.29,139,52.37,130.64,60c-.74.66,1.56,2.54,2.43,1.76,5.15-4.66,13.72,1.16,17.72,4.61a54.55,54.55,0,0,1,10.14,11.62c5.52,8.54,5.84,20.38-5.64,23.58-5.92,1.65-16.84,2.66-21.78-1.54-3.69-3.14-4.86-9.09-5.48-13.73-1.11-8.34-.8-20.72,7.77-25.18,1-.54-1.15-2.53-2.09-2Z"/><path class="cls-1" d="M198.29,90.39c14.68-4.3,5.58-17.33,0-26.44-27.33-45.54-27.7,30.36-6.51,27.22Z"/><path class="cls-2" d="M199.34,91.42c15.14-5,4.78-19.84-.72-28.66-3-4.75-9.57-16-16.86-14.36-5.62,1.25-6.22,10.07-6.32,14.54-.16,7.51,1.19,15.8,5.17,22.29a15.12,15.12,0,0,0,7,6.45c3.61,1.42,7.78.26,11.48-.18,1.38-.17-.63-2.29-1.62-2.17-5.87.7-10.66,2.07-14.36-3.55-3.35-5.09-4.63-11.7-5-17.68-.31-4.8-.39-11.58,2.74-15.61,4.28-5.5,10.06,2.31,12.56,5.74a91.3,91.3,0,0,1,9.66,16c3.15,7.08,1.94,12.56-5.82,15.12C196.23,89.71,198.32,91.75,199.34,91.42Z"/><path class="cls-2" d="M258.72,143.76c-4.18,0-6.8-1.57-10.46-3.14-11-3.14-23.28-1.31-34.27-3.4-23-3.66-40.28,1.7-61.21,12.16-12,5.75-25.37,6.93-32.17,19-5.23,10.46-3.79,23.67-9,33.61-10.46,20.93-2,38.58,3.27,59,3.14,12,11,22,16.74,33a139.72,139.72,0,0,0,27.2,35.57c11.51,10.46,20.93,21.45,30.34,33.48C198,374.46,209,381.26,220,390.16c9.42,7.32,25.93,15.63,38.19,16.74,11.51,1,8.89,1,19.36-.52C301,402.86,322,391.2,344,383.88a164.67,164.67,0,0,0,33.48-16.22c9.42-6.28,24.06-16.74,30.87-26.16,8.89-13.08.52-18-6.8-25.37-10.46-11-1.6-54-14.91-62-27.47-16.48-47.68,2.48-59.19-4.85-11.51-7.85-20.59-3.78-27.91-16.34-1.22-2-9.15-11.09-10.2-13.08-9.31-17.67-5.6-27.54-11.25-46.82-3.14-10.46-14.65-24.59-25.11-27.73"/><path class="cls-2" d="M258.19,142.68c-4.44-.24-7.92-2.58-12.12-3.57a72.75,72.75,0,0,0-13.73-1.59c-9.31-.39-18.42-1.79-27.69-2.36-16.93-1-32.84,3.66-48,10.83-7.33,3.46-14.89,6-22.31,9.23-6.57,2.84-12.54,7-15.6,13.7-3.39,7.4-3.54,15.81-5.37,23.63-2.07,8.87-7.1,16.25-7.87,25.55-.68,8.23.9,16.39,3,24.31,2.19,8.21,4.11,16.87,7.31,24.75,3.4,8.35,8.6,15.77,13,23.61a182.57,182.57,0,0,0,13.52,21.56c11.25,14.85,25.93,26.57,37.86,40.87,5.78,6.93,11,14.25,17.71,20.34,6.41,5.82,13.5,10.82,20.29,16.17,11.46,9,25.88,16.66,40.56,18.28,13.86,1.52,27.21-1.29,40.42-5.61,8.92-2.91,17.59-6.52,26.29-10,8.5-3.44,17.21-6.29,25.73-9.66a169.71,169.71,0,0,0,43.77-25.88c8.3-6.69,23.95-19,16.59-31.17-3-4.92-8.69-7.73-11.14-12.93-2.25-4.78-2.7-10.48-3.15-15.67-1-11.34-.18-23.57-3.83-34.49-3.52-10.53-15.25-14.66-25.47-16a60.54,60.54,0,0,0-19.43,1c-5.27,1-10.95,2.94-16.37,2.39-3.29-.33-5.6-2.32-8.46-3.75A54.38,54.38,0,0,0,315,242.9c-3.37-1-6.81-2-9.64-4.2s-4.26-5.25-6.35-7.93c-3.52-4.53-7.61-8.6-10-13.85-3.35-7.24-4.79-14.79-5.76-22.65-1.82-14.86-4.7-28-15.16-39.31-4.26-4.59-9.3-8.61-15.29-10.63-1.86-.62-.68,1.63.42,2,16.17,5.43,24,23.43,26.39,38.9,1.88,12.13,2.25,25.4,9.49,35.89,2.74,4,6.25,7.38,9,11.33,3,4.32,5.81,7.9,10.74,10.17,6,2.77,12.27,4,18.14,7.32a16.78,16.78,0,0,0,9.93,2.13c5.25-.36,10.38-1.92,15.55-2.8,7.31-1.24,14.79-1.47,22,.5,7,1.92,13.88,4.67,16.39,11.89,1.6,4.62,2.1,9.65,2.52,14.49.92,10.68.29,22,3.28,32.41a19.61,19.61,0,0,0,5,8.86c5,5,11.1,9.61,8.45,17.49-2.59,7.71-10,13.85-16.08,18.84a189,189,0,0,1-17.63,12.89c-14.36,9.26-30,14.54-45.76,20.71-16.82,6.58-33.39,14.34-51.3,17.5-13.43,2.37-25.81,1.64-38.6-3.71a93.64,93.64,0,0,1-21.67-12.73c-7-5.51-14.41-10.67-20.92-16.81-6.84-6.44-12.21-14.25-18.29-21.37a238.86,238.86,0,0,0-16.93-18,169.5,169.5,0,0,1-18.12-19.49c-5.42-7.06-9.71-14.68-14.09-22.39-4.16-7.32-9-14.32-12.24-22.1s-5.25-16.72-7.45-25-3.86-16.86-2.82-25.46,5.77-15.64,7.7-23.92c1.89-8.1,1.86-17.2,5.88-24.67,3.6-6.69,10.37-10.36,17.18-13s13.74-5.39,20.52-8.55a116,116,0,0,1,24.67-8.72A80.83,80.83,0,0,1,210,137.69c8.41.94,16.63,1.61,25.09,2.05,5.23.27,10.3.8,15.22,2.71,3,1.18,5.6,2.2,8.89,2.37,1.72.09,0-2.1-1.06-2.16Z"/><path class="cls-2" d="M193.06,48c-1.63-8.7-3.6-13-11.05-20.27-2.3-2.24-10.79-5.89-17.46-9.81C139.25,3.06,101.86-8,67.25,9.31,48.41,18.72,57,50.9,58.61,63.45s4.71,32.17,7.85,40.81.78,11,4.71,13.34c4.71,3.14,3.92-1.57,2.35-11s-4.32-15.69-.39-23.93c3.53-2,3.53,12.56,13.73,19.62C94.71,78,96.28,69.73,112,53.25s33.15-19.36,51.27-19.36C188.09,33.89,193.06,48,193.06,48Z"/><path class="cls-2" d="M73.45,119.06a5.19,5.19,0,0,1-2.56-1c-2.44-1.46-2.65-3-3-5.6a34.8,34.8,0,0,0-1.9-8c-3.32-9.13-6.51-30-7.87-40.91-.22-1.72-.56-3.79-1-6.19-2.5-15-6.7-40.18,9.86-48.46,40.53-20.26,81.89-.7,97.78,8.65,2.69,1.58,5.76,3.16,8.46,4.55,4.12,2.12,7.68,4,9.1,5.33,7.62,7.42,9.56,11.83,11.19,20.54l-1,.26c0-.14-5.19-13.79-29.35-13.79-16.94,0-34.84,2.33-50.91,19.2-14.18,14.89-16.76,23-23,42.56-.63,2-1.29,4.07-2,6.29l-.21.64-.55-.38c-5.92-4.1-8.5-10.72-10.21-15.1-.9-2.31-1.68-4.3-2.45-4.58a.54.54,0,0,0-.41,0c-3,6.33-1.89,11.49-.54,18,.36,1.73.73,3.52,1,5.46,1.21,7.26,1.88,11.26.28,12.3A1.53,1.53,0,0,1,73.45,119.06ZM105.09,1A83.18,83.18,0,0,0,67.47,9.75c-15.9,8-11.79,32.65-9.33,47.41.4,2.41.75,4.49,1,6.23,1.36,10.86,4.53,31.65,7.82,40.7a35.68,35.68,0,0,1,2,8.2c.34,2.51.49,3.66,2.54,4.89,1.54,1,2.12,1,2.32.82,1-.68.23-5.6-.72-11.29-.32-1.92-.69-3.7-1-5.42-1.4-6.76-2.5-12.11.69-18.81l.07-.14.14-.08a1.62,1.62,0,0,1,1.37-.15c1.2.43,1.93,2.31,3,5.16,1.7,4.37,4,10.31,9.3,14.25q1-3,1.8-5.64C94.68,76.13,97.28,68,111.61,52.91c16.33-17.15,34.47-19.51,51.63-19.51,17.91,0,25.7,7.4,28.68,11.61-1.53-6.54-3.8-10.61-10.26-16.9-1.31-1.28-4.81-3.08-8.86-5.16-2.71-1.4-5.79-3-8.51-4.58C153.54,12,131,1,105.09,1Z"/><path class="cls-1" d="M72,111.32c-14.12-.78-16.48,19.23-2,21.58,7.06.78,14.12-3.53,12.56-11.77-1.57-6.28-9.42-9-15.3-9"/><path class="cls-2" d="M71.14,110.23c-6.57-.15-12.17,4.25-12.26,11.11-.08,6.1,4.57,11,10.34,12.36,7.58,1.77,16.65-3.44,14.62-12.14-1.74-7.44-10.69-10.38-17.4-10.55-1.3,0,.64,2.15,1.62,2.17,7.05.18,16.91,5.18,12.45,13.65-2.8,5.33-11.21,6.72-15.82,3-3.48-2.79-4-8-2.14-11.89s5.92-5.67,10.21-5.58c1.3,0-.64-2.15-1.62-2.17Z"/><path class="cls-1" d="M191.62,43.83c-3.4-2.35-8-7.59-15.3-9.42-6.28-1.57-27.47-2.09-42.64,3.66-28,10.63-39.37,37.14-46.43,63.82C85.95,101.38,74,91.83,79.8,75.62S98,40.64,121.13,31c12.56-5.23,24-8.37,35.57-8.37,12,0,15.13.92,21.45,4.19C185.74,30.76,191.62,43.83,191.62,43.83Z"/><path class="cls-2" d="M192.79,42.87c-5-3.71-9.26-8-15.53-9.63a52.34,52.34,0,0,0-12.46-1.19c-13.42-.17-27.23,1.81-39.19,8.17C102.33,52.61,91.8,77.85,85.29,102.06l3.2-1.7c-3.18-1.58-5.6-5.91-6.83-9-2.8-7.11-.76-14.23,2.18-20.92,6.22-14.14,16.55-26.38,30.05-34,15.45-8.77,35-14,52.77-11.43,11.19,1.61,18.57,10,23.09,19.89.86,1.88,4.6-.07,3.72-2-3.95-8.64-9.43-16.26-18.56-19.77-12-4.6-27.28-2.37-39.23,1C109,31.67,85.18,49.68,77.29,77.33c-2.43,8.54-.2,21.7,8.73,26.12,1.26.62,2.87-.47,3.2-1.7,6-22.44,15.29-46.18,36.46-58.35,11.11-6.39,24-8.49,36.64-8.69,4.5-.07,9.3-.08,13.69,1.08,5.76,1.54,9.78,5.62,14.45,9C191.62,45.64,194.08,43.82,192.79,42.87Z"/><path class="cls-2" d="M409.91,337.32c-7.51,15-26.49,30.88-41.5,39.07-25.93,13-56.64,21.84-84.61,29.34-34.8,8.87-64.14-15-88-37.53-29.34-27.29-60.82-63.79-79.93-98.59-12.28-22.52-12.19-54.95-3.32-80.19,2.73-5.46,2-8.19,4.09-11.6"/><path class="cls-1" d="M408.69,336.44c-13.72,26.44-42.49,41-69.14,50.84-15.76,5.84-31.9,10.62-48.1,15.07-15,4.13-28.91,5.77-44,.59-14.5-5-27.18-14.2-38.72-24.08-11.28-9.66-22-20.1-32.25-30.83-22.21-23.21-43-48.65-58.66-76.81-8.11-14.6-10.9-31.42-10.23-48A117.3,117.3,0,0,1,111,199.68a94,94,0,0,1,3.58-11.14c1.24-3.23,1.66-6.78,3.29-9.84.54-1-1.94-2.68-2.43-1.76a28.69,28.69,0,0,0-2.14,6.34c-1,3.58-2.61,7-3.67,10.55a115.6,115.6,0,0,0-4.29,23.24c-1.17,14.37.1,29.23,5.08,42.83,5.26,14.37,14.8,27.66,23.66,40a441.69,441.69,0,0,0,31.84,39.15c11,12.16,22.68,23.75,34.81,34.8,10.87,9.89,22.43,19.34,35.56,26.07,12.42,6.37,26.29,10,40.3,8.37,7.73-.9,15.28-3.42,22.76-5.52,8.42-2.36,16.82-4.84,25.14-7.53,17.8-5.75,36.6-12,52.35-22.27,13.44-8.8,26.82-20.35,34.32-34.79.53-1-2-2.68-2.43-1.76Z"/><path class="cls-2" d="M162.54,144.48c15.21-8.77,39.93-12.38,58.72-9.55,3.13.47,6.1,3.41,8.83,4.09"/><path class="cls-1" d="M79.61,37c11.81,1.08,22.7-4.58,26.7-16.09.33-1-2.18-2.54-2.59-1.36C100,30.27,89.65,35.82,78.56,34.81c-1.7-.16,0,2.06,1.06,2.16Z"/><path class="cls-1" d="M239,375.12a36.61,36.61,0,0,0,26.33-13.17c.69-.8-1.68-2.62-2.43-1.76-6.94,8-15,12-25.53,12.76-1.36.1.63,2.25,1.62,2.17Z"/><path class="cls-1" d="M361.12,326.53a26.11,26.11,0,0,0,28.13-.3c1-.68-1.23-2.62-2.09-2-7.16,4.82-17.63,5.86-25.1,1.06-1.5-1-2.48.3-.93,1.29Z"/><path class="cls-1" d="M271.12,287.45c-3.78-5.37-11.26-7-17.38-7.76a69.82,69.82,0,0,0-23.59.68c-11.95,2.57-34.29,10.44-33.37,25.93a4.32,4.32,0,0,0,2.41,3.21c1,.51,3.79-.13,4.11.11-.15-.11,13.06-10.73,15.05-11.85a59.38,59.38,0,0,1,15.58-6c5.28-1.25,10.92-2.55,16.35-2.47,6.22.09,11.86,2,17.87,3.14,2.78.52,4.46-2.91,3-5Z"/><path class="cls-2" d="M200.45,312.21a5.07,5.07,0,0,1-2.41-.49,6.81,6.81,0,0,1-3.75-5.27c-.9-15.22,17.66-24.72,35.34-28.52a71.72,71.72,0,0,1,24.43-.72c6.61.84,14.75,2.6,19.11,8.8a5.88,5.88,0,0,1,.06,6.51,5.3,5.3,0,0,1-5.52,2.42c-1.91-.36-3.79-.8-5.61-1.22a55.46,55.46,0,0,0-11.84-1.88c-5.28-.08-11.07,1.3-15.74,2.41a57.13,57.13,0,0,0-14.93,5.7c-1.65.93-13.38,10.31-14.45,11.36a2.45,2.45,0,0,0,.66-1.86l-2.49.17-1.49,2a2.12,2.12,0,0,0,1.12.43,6.85,6.85,0,0,0-.75.05C201.57,312.17,201,312.21,200.45,312.21Zm-.25-5a12.72,12.72,0,0,0,1.57-.07l.57,0c1.08-1,3-2.44,6.2-5,2.64-2.09,7.26-5.72,8.59-6.47a62.18,62.18,0,0,1,16.23-6.21c4.94-1.17,11.08-2.62,17-2.54a60.12,60.12,0,0,1,12.9,2c1.77.41,3.59.83,5.4,1.17.11,0,.23,0,.4-.21a.9.9,0,0,0,.06-.92c-3.24-4.6-10.07-6-15.66-6.72a66.74,66.74,0,0,0-22.75.65c-3.31.71-32.34,7.43-31.4,23.34A2,2,0,0,0,200.2,307.21Zm-.1,0Z"/><path class="cls-1" d="M282.42,314.83c21.41,1.14,42.79-10.69,59.37-23.18,1-.75-1.28-2.65-2.09-2-16.22,12.22-37.37,24.18-58.34,23.06-1.72-.09,0,2.1,1.06,2.16Z"/><path class="cls-1" d="M274.42,322.8c15.68,14.69,35,27,57,28.16,1.72.09,0-2.1-1.06-2.16C309.33,347.72,291,336.09,276,322c-1.05-1-3-.61-1.55.77Z"/><path class="cls-1" d="M339.12,302.7c-3.81,8.83-9.36,16.37-15.69,23.54-.7.79,1.67,2.62,2.43,1.76,6.33-7.18,11.89-14.71,15.69-23.54.46-1.06-2-2.67-2.43-1.76Z"/><path class="cls-1" d="M200.73,320.08c-1.38,7.9-1.81,17.33-8.33,22.92-.74.64,1.54,2.52,2.43,1.76,6.62-5.68,7.09-15.31,8.49-23.32.18-1-2.38-2.53-2.59-1.36Z"/><path class="cls-1" d="M154.89,232.66c28.62-26.91,69.5-42.34,108.61-33.43,1.62.37-.09-1.94-1.06-2.16-39.63-9-81,6.57-110,33.83-.73.69,1.58,2.56,2.43,1.76Z"/><path class="cls-1" d="M193.43,257.18c19-26.66,57.51-31.93,87.88-32,1.32,0-.63-2.18-1.62-2.17-30.63.1-69.47,5.54-88.68,32.43-.64.9,1.79,2.66,2.43,1.76Z"/><path class="cls-1" d="M235.3,268.53c15.15-11.21,34.46-15.23,53-15.35,1.32,0-.63-2.18-1.62-2.17-18.67.12-38.23,4.19-53.48,15.48-1,.74,1.27,2.65,2.09,2Z"/><path class="cls-1" d="M375.62,252.48c-8.66-3.75-20.17.35-27.56,5.29s-15.54,15.47-11.38,24.93c2.11,4.82,9.37,4.46,10.41-1-.44,2.29-.16.62.16-.73a23,23,0,0,0,.42-2.81,15.36,15.36,0,0,1,.8-4.1,19.93,19.93,0,0,1,6.77-8.54A32.45,32.45,0,0,1,374.16,259c3.71-.13,5.17-4.95,1.46-6.55Z"/><path class="cls-2" d="M341.84,288.58a8.11,8.11,0,0,1-7.46-4.87c-4.93-11.24,4.65-22.91,12.29-28s20.23-9.71,29.95-5.51a5.68,5.68,0,0,1,3.56,6.37,6.16,6.16,0,0,1-5.93,5,29.79,29.79,0,0,0-17.48,6,17.37,17.37,0,0,0-6,7.44,12.47,12.47,0,0,0-.63,3.28l0,.21a25.36,25.36,0,0,1-.48,3.11l-.14.63h0c-.06.33-.12.63-.19.92l0,.11h0a3.07,3.07,0,0,1-.64,1.36,7.62,7.62,0,0,1-5.91,3.92A8.43,8.43,0,0,1,341.84,288.58Zm26.27-35c-6.3,0-13.38,2.79-18.66,6.31-6,4-14.15,13.48-10.48,21.85a3.12,3.12,0,0,0,3.25,1.86,2.65,2.65,0,0,0,2.32-1.91c.07-.36.17-.75.27-1.2a21.07,21.07,0,0,0,.37-2.51l0-.21a16.9,16.9,0,0,1,.93-4.51,22.25,22.25,0,0,1,7.59-9.64,34.68,34.68,0,0,1,20.35-7,1.18,1.18,0,0,0,1.19-.9c0-.16.1-.54-.63-.86h0A16.37,16.37,0,0,0,368.1,253.54Z"/><path class="cls-1" d="M192.76,309.25c-4,6-8.45,10.91-15.61,13-1,.29,1.06,2.34,2.09,2,7.29-2.14,11.83-7.15,15.95-13.28.62-.92-1.82-2.67-2.43-1.76Z"/><path class="cls-1" d="M68.6,53.84c1,6.47-4.89,28.47,6.94,27.78.82,0,2-2.32,1-2.36C66.17,78.84,71.73,59,70.6,52.39c-.23-1.31-2.14.51-2,1.45Z"/><path class="cls-1" d="M60.2,30.95c-2.34,2.41,3,9.55,4.17,11.58,3.4,5.86,7.64,11.71,9.69,18.22.29.91,2.83,1.16,2.63,0-.86-5.24-4.79-10.39-7.44-14.84-1.15-1.93-8.61-12-6.73-14.21.67-.78-1.71-1.34-2.32-.72Z"/><path class="cls-1" d="M108.05,196.07c-3.64-10.58-3.66-30.34,1.57-39.24,6.8-10.46,19.88-14.12,30.87-15.69,10.46-1.57,20.4,0,28.25,7.85,5.75,6.28,11.51,22,2.09,27.2-9.94,5.75-33-3.92-43.42-4.45-11.73-.9-13,5.55-16,14.22-.49,1.39-1.3,2.29-1.92,3.81Z"/><path class="cls-2" d="M109.33,196.51c-4-12.2-5.19-32,4.09-42.15,5.52-6.06,13.52-9.22,21.36-11,8.77-2,18.66-3.07,26.9,1.34a24.88,24.88,0,0,1,12.74,19.52c.75,7.76-4.16,12.27-11.63,12.63-13.16.65-25.39-6.49-38.44-6.31-6.4.09-10,3.32-12.27,9.09a104.39,104.39,0,0,0-5.32,15.71c-.23,1,2.32,2.54,2.59,1.36a80.87,80.87,0,0,1,6-17.34c3.75-7.73,11.54-7.16,18.92-5.64,7.78,1.61,15.4,4,23.31,5,5.48.65,12.42,1,16.61-3.31s3.12-11.62,1.2-16.85a27.92,27.92,0,0,0-12.79-15.2c-13.4-7.45-33.94-3.78-46.22,4.57-14.6,9.93-14.58,32.38-9.62,47.68C107.07,196.56,109.74,197.77,109.33,196.51Z"/><path class="cls-1" d="M147.81,151.08c10.46,2.09,20.4,13.6,20.93,24.06,1,15.17-19.36,13.6-27.73,6.28"/><path class="cls-2" d="M148.34,152.16c7.63,1.81,14,7.85,17.19,14.94,2,4.52,3.34,11-.3,15.13-5.77,6.51-18,3.32-23.76-1.45-1.4-1.16-2.32.14-.93,1.29,6.81,5.63,23.51,10.18,28.49-.19,2.82-5.86-.1-13.5-3.37-18.51A30.78,30.78,0,0,0,147.28,150c-1.62-.38.1,1.93,1.06,2.16Z"/><path class="cls-1" d="M126.88,159.45c9.42,1.57,25.11,20.4,17.26,29.82-10.46,12.56-23-12-30.87-14.12"/><path class="cls-2" d="M127.41,160.53c6.88,1.46,12.88,8.71,15.72,14.77,2.6,5.56,2.75,15-5.17,16.34-5.78,1-11.17-5.87-14.74-9.5-2.93-3-6-6.65-10.15-8-1.86-.61-.68,1.64.42,2,8.74,2.87,21.07,27.6,31.87,14,8.82-11.11-8.33-29.52-19-31.78-1.64-.35.09,2,1.06,2.16Z"/><path class="cls-1" d="M263.43,135.91c11,0,17.26,10.46,18.31,19.88,1,9.94-11,23-18.31,11"/><path class="cls-2" d="M264,137c9.86.41,16.44,9.93,16.51,19.37,0,7.42-9.19,20.44-16,10.31-.65-1-3.13-1.4-2,.22,2.5,3.71,6.39,6.88,11.12,5.41,5.29-1.64,8.86-7.78,9.46-13,1.34-11.68-8.33-24-20.09-24.46-1.72-.07,0,2.11,1.06,2.16Z"/><path class="cls-1" d="M247.73,128.06c12.56,5.23,23.54,7.32,23.54,24.06,0,12-9.42,26.16-19.88,12.56"/><path class="cls-2" d="M247.94,129.06c8.62,3.54,19,6.09,21.42,16.39a25.85,25.85,0,0,1-1.56,16.26c-3.26,7.17-9.39,10.1-15.39,2.86-.72-.87-3.27-1.28-2,.22,3.4,4.11,8.66,8.59,14.21,5.49,6.24-3.48,8.23-12.61,7.94-19.12-.66-15.06-13-19.15-25-24.1-1.8-.74-.63,1.57.42,2Z"/><path class="cls-1" d="M217.39,134.86c0-6.28,12-9.42,16.74-9.94,13.08-1.57,18.31,8.37,22,18.83,3.66,9.42,4.71,26.16-11,22.5-11-2.62-9.69-17.49-14.12-26.16-2.88-5.62-3.4-2.09-11.25-4.71Z"/><path class="cls-2" d="M218.68,135.54c.51-5.64,8.33-7.91,12.9-8.95,7.2-1.63,13.81-.33,18.22,6.06,4.75,6.87,11.17,22.28,5.14,30.09-4.63,6-14,2.3-16.77-3.47-2.4-5-2.86-10.71-4.7-15.9-1-2.78-2.38-6.36-5.39-7.52-1.41-.54-3-.36-4.47-.54-2.28-.28-4.51-1-6.76-1.54-1.63-.36.09,1.94,1.06,2.16,2.09.46,4.14,1.17,6.26,1.48,2.77.41,4.09-.22,5.62,2.51,2.76,4.91,3.07,11,4.91,16.3,2.66,7.58,10.38,14.25,19,11,7.85-3,6.45-14.17,4.58-20.49-2.54-8.56-6.84-18.74-15.91-22-7-2.54-25.37-.28-26.25,9.44C216,135.24,218.58,136.68,218.68,135.54Z"/><path class="cls-2" d="M324.11,173.44l3.08,1.81a11.36,11.36,0,0,1-2.94.68l3-.56,7.57-16.71-2.52-.85"/><path class="cls-2" d="M324.3,176.43l-.13-1,1.79-.33-2.1-1.23.51-.86,2.72,1.59L334.17,159l-2-.67.32-.95,3,1-7.59,16.74.34.2-.55.27-.11.24-1.24.23A13.72,13.72,0,0,1,324.3,176.43Z"/><rect class="cls-1" x="329.46" y="156.11" width="1" height="3.93" transform="translate(-13.68 283.67) rotate(-45.67)"/><rect class="cls-1" x="320.32" y="165.85" width="15.35" height="1" transform="translate(34.45 387.9) rotate(-63.94)"/><rect class="cls-1" x="322.58" y="167.29" width="15.94" height="1" transform="translate(38.94 396.65) rotate(-65.04)"/><rect class="cls-1" x="323.51" y="175.04" width="3.75" height="1" transform="translate(-36.06 97.79) rotate(-16.21)"/><line class="cls-2" x1="326.66" y1="174.56" x2="323" y2="175.73"/><rect class="cls-2" x="322.91" y="174.64" width="3.85" height="1" transform="translate(-38.01 107.78) rotate(-17.82)"/><rect class="cls-1" x="320.71" y="173.17" width="3.97" height="1" transform="translate(-29.78 73.39) rotate(-12.41)"/></svg>