<svg id="Icons" xmlns="http://www.w3.org/2000/svg" viewBox="0 0 196.93 275.62"><defs><style>.cls-1{fill:#10069f;}.cls-2{fill:#050050;}</style></defs><title>og-brochure</title><path class="cls-1" d="M93.4,56c0-4,.76-9.07-1.26-12.35C88.61,38.4,80,36.63,74.25,36.38,61.65,35.62,53.34,52,63.67,60.82c2.77,2.27,6.3,4,9.83,2.52"/><path class="cls-2" d="M94.11,55.49c.51-8,.3-14.43-8-17.88C79.88,35,71.76,34,65.84,37.71c-4.9,3.11-8.34,8.88-7.94,14.78.48,7.19,7.89,14.47,15.24,11.63.39-.15,1.75-1.8.89-1.61-15.87,3.5-18.88-23.1-2.64-25a27.32,27.32,0,0,1,15.4,3.13c6.4,3.58,5.68,9.48,5.89,15.9,0,.38,1.39-.62,1.42-1.09Z"/><path class="cls-1" d="M53.56,150.83c-2.21,4.64,7.29,8.81,10.61,9.27,4.86.7,11.27-.93,14.15-5.56,6.85-10.43-21.44-17.39-25.86-8.58-1.55,3,2.21,5.33,1.33,5.79"/><path class="cls-2" d="M52.71,151.31c-1.36,4.11,3.17,6.78,6.36,8.24a16.55,16.55,0,0,0,12.57.64c5.21-1.81,11.73-8,7.07-13.49-4.22-5-13.32-6.56-19.43-5.49-2.51.44-5.15,1.42-6.8,3.47a5.26,5.26,0,0,0-1.39,3.93c.12,1,2,3,1.82,3.64-.24.86,1.28-.19,1.42-.35.95-1.13,0-1.16,0-2.27-.13-3-1.26-4.71,2-5.92a12.57,12.57,0,0,1,2.88-.62,24.75,24.75,0,0,1,14.2,2.69c7.39,4,5.94,11.6-3.52,13.28-4.4.78-17.61-1.84-15.41-8.7.24-.74-1.52.4-1.71,1Z"/><path class="cls-1" d="M57.62,150.66c-2.21,4.64,8.76,9,12.07,9.45,4.86.7,11.27-.93,14.15-5.56C90.7,144.11,62.4,137.16,58,146c-1.55,3-.14,2.67-1,3.13"/><path class="cls-2" d="M56.77,151.14c-2.44,7.37,12.73,10.59,17.55,9.78,5.24-.88,14.2-6.32,10.92-12.8-2.91-5.73-12.36-7.45-18.08-7.16a13.68,13.68,0,0,0-7.83,2.47A8.45,8.45,0,0,0,57.11,146c-.07.12-1.36,3.66-.69,3-.3.32-.59,1.23.19.93a3.1,3.1,0,0,0,1.6-1.44c.67-1,.3-2.47,1.37-3.53a7.59,7.59,0,0,1,3.7-1.62,24,24,0,0,1,15.58,2.48c1.88,1,4.1,2.54,4.78,4.7,1.67,5.3-5.88,8.57-10.18,8.82s-16.9-3.13-15-9.13c.24-.74-1.52.4-1.71,1Z"/><path class="cls-1" d="M119.31,74.72c-9.45.09-22.4-11.39-28.9-18.5a19.49,19.49,0,0,0-11.31,7c5.3,7.08,10.1,15.11,16.49,21.86,3.81,4.77,15.78,13,17,17"/><path class="cls-2" d="M119.89,74.06c-11.26-.84-21.33-10.82-28.55-18.72-.14-.16-.4-.11-.58-.07A23,23,0,0,0,78.41,63c-.23.27-.52.77-.27,1.11,6,8.11,11.24,16.86,18.44,24,4.91,4.87,11.5,8.73,15.13,14.74.36.59,1.88-.92,1.76-1.46-1.17-5.11-8.7-9.42-12.37-12.69-6.57-5.86-11.63-13.05-16.65-20.22-1.18-1.69-3.57-3.89-3.14-5.91.57-2.66,6.45-5.84,8.94-4.61,1.27.63,2.59,2.62,3.64,3.61q2.36,2.21,4.86,4.26c5.59,4.57,12.42,9.59,20,9.58.47,0,1.53-1.29,1.17-1.32Z"/><path class="cls-1" d="M80.72,71.55c-5.68.12-4.65-9.84-2.24-12.7,2-2.83,9.64-6.91,13.13-6.08s5.8,5.57,3.77,8.4c-2.75-5.45-12.48-3.85-14.24,2-.56,2.32,4.34,10.62-3.14,7.48"/><path class="cls-2" d="M81.31,70.89c-5.3-1.2-4.71-9.38-1.59-12.63a17.16,17.16,0,0,1,8.57-4.42c3.83-.71,8.62,3.14,6.24,7.37l1.79-.92c-2.93-5-10-4-13.77-.5a6.63,6.63,0,0,0-2.45,5.06A22.35,22.35,0,0,0,80.82,68c.48,2.26.3,2.48-2.05,1.67-.73-.25-2.41,1.52-1.55,1.88,3.47,1.46,6.42.12,5.89-3.89-.42-3.18-2.22-5.6,1.48-7.82A7.16,7.16,0,0,1,94.43,62c.38.64,1.63-.64,1.79-.92,2-3.56.15-8.59-4.14-9.35-4-.71-9,2.32-12,4.71a11.62,11.62,0,0,0-4.41,8.44c-.27,3.11.58,7.63,4.56,7.26.32,0,1.5-1.2,1.05-1.3Z"/><polygon class="cls-1" points="100.25 138.41 38.22 155.39 1.43 22.95 63.47 5.97 100.25 138.41"/><path class="cls-2" d="M37.41,156.81,0,22.14,64.28,4.55l37.41,134.67ZM2.86,23.77,39,154,98.82,137.6,62.66,7.4Z"/><path class="cls-1" d="M116,164.13c.38,3.78.76,5.8,1,8.82.5,10.33.93,22.06,1,32.25s0,19.4-3.07,29.73c-.76,2.77-2.27,6.3-2,9.32.5,4,2.52,3.78,6.55,4,2.52,0,5.8.25,8.06-1.51,2.56-2,2.08-6,2-8.78-.07-4.32,8.53-41.72,11.37-47.09,1.48-2.79,3.52-4.15,3.68-7.12-.24-.06,3.87-19.65,5.76-19.65"/><path class="cls-2" d="M115.27,164.68c1.29,19.49,3.48,39.8,1.05,59.28a98.1,98.1,0,0,1-3.45,15c-.69,2.39-1.78,5.86-.29,8.2,2.38,3.73,11.77,2.55,14.84.37,3.75-2.66,2.89-6.83,3.18-10.83a88.38,88.38,0,0,1,2.17-11.86c2.27-10.64,4.24-22,8.24-32.2,1-2.61,3.09-4.63,4.07-7.22a29.89,29.89,0,0,0,.95-4.75c.51-2.6,1.12-5.18,1.78-7.75.21-.81,1.66-7.79,2.22-8s1.94-2,.71-1.68c-2.21.67-3,4.1-3.58,5.94a108,108,0,0,0-3.22,13.12c-.74,4.12-3.34,7.08-4.77,10.91a120.93,120.93,0,0,0-3.48,12,301.69,301.69,0,0,0-6.77,30.39,29.14,29.14,0,0,0-.32,3.08c-.16,3.57,1.18,7.18-4.41,8.55a18.6,18.6,0,0,1-5.4,0c-6.6-.49-4.77-6.32-3.36-11.19a84.42,84.42,0,0,0,2.71-12.26c1.32-9.85.88-20,.61-29.88-.27-10.16-.52-20.3-2-30.36-.07-.43-1.48.62-1.44,1.11Z"/><path class="cls-1" d="M133.28,168.05c-.19,1.22,17.13,33.34,22.09,41.7,4.85,8.18,5.9,7.91,11.71,15.33,1.33,1.71,14.66,14,16.56,13.75L182,227.73c-1.39-4.26-2.26-3.92-4-7.63-3.53-9-6.8-18-8.82-27.59-1.26-7.16-2.27-14.85-3.28-22.28a62.17,62.17,0,0,1-.19-10.83"/><path class="cls-2" d="M132.57,168.6c.08,1.56,1.38,3.43,2,4.78,1.66,3.4,3.41,6.75,5.16,10.1,4.19,8,8.45,16,12.92,23.89A100.07,100.07,0,0,0,167.24,227a110.13,110.13,0,0,0,8.62,7.89c1.74,1.48,4.55,4.64,7,4.87.71.07,1.82-.83,1.71-1.6-.51-3.52-.73-7.24-1.56-10.69a17.25,17.25,0,0,0-2.26-5,63.25,63.25,0,0,1-5-11.55,133.17,133.17,0,0,1-6.49-24.59c-1.41-9.08-3-18.25-2.52-27.46.07-1.2-2.1.2-2.15,1.07-.43,8.15.85,16.09,2,24.14a141.38,141.38,0,0,0,6.5,26.57,100,100,0,0,0,3.9,10.31c1.31,2.71,3.3,4.91,4,7.9.83,3.46,1.07,7.15,1.6,10.67l1.71-1.6c-2.55-.23-5.74-3.8-7.57-5.37a103.27,103.27,0,0,1-8.07-7.39,100.86,100.86,0,0,1-14.36-19.37c-4.2-7.37-8.25-14.83-12.27-22.3-1.87-3.47-3.72-6.95-5.51-10.46-.78-1.53-2.46-3.77-2.61-5.54,0-.38-1.45.59-1.43,1.1Z"/><path class="cls-1" d="M162.1,8.79c-.57-4.35-5.67-11.53-10-6"/><path class="cls-2" d="M162.84,8.23c-.38-2.86-1.89-6.09-4.4-7.67s-5.19-.13-7,2c-1.13,1.3.54,1.33,1.32.42,3.63-4.28,8.06,3.38,8.62,6.4.08.45,1.53-.62,1.47-1.12Z"/><path class="cls-1" d="M180.06,49.61c1.13-8.69.4-15.46-3.59-23.43-3.4-6.8-8.88-13.61-14.36-17.2-5-3.3-15.12-9.26-21.73-8.13-4.54.94-10.58,5.67-12.85,9.64-2.65,4.91-3,10.77-3,16.25"/><path class="cls-2" d="M180.7,49.11c3.69-20.3-9.52-38.32-27.4-46.55-7.81-3.59-14.12-3.73-21,1.71-7.4,5.86-8.87,14-9,23,0,1.32,2.27-.14,2.27-1.09,0-4.82.16-9.87,2.21-14.33,2.15-4.68,7.66-9.69,13-10.09,6.67-.5,14,4.06,19.36,7.53a44.35,44.35,0,0,1,14.52,16.28c4.32,7.95,5.11,15.65,4.63,24.53,0,.27,1.21-.61,1.28-1Z"/><path class="cls-2" d="M166.65,35.74c.65,0,2.07-1.74,1.11-1.74-.65,0-2.07,1.74-1.11,1.74Z"/><path class="cls-1" d="M161.54,30.15c.38-9.64-4.35-21.73-12.66-27.4a13,13,0,0,0-10.58-1.13c-2.46.76-8.5,4.72-8.13,6.61"/><path class="cls-2" d="M162.2,29.63c.46-10-4.11-24.57-14.32-28.7-4.25-1.72-8.77-.89-12.6,1.38-2.19,1.3-6,3.54-6.12,6.44-.05,1.15,1.93-.31,2-1,.24-1.92,3.82-3.84,5.38-4.56a12.32,12.32,0,0,1,7.8-1c3.74.77,6.65,3.53,9,6.43a36.54,36.54,0,0,1,7.55,22c0,.3,1.31-.58,1.33-1Z"/><path class="cls-1" d="M178.73,41.68C163.81,26,145.29,13.33,124.88,6.34c-6.61-2.27-14.17-4.35-21-2.65-4.54,1.13-10,4-6.61,9.26,2.83,4.72,9.26,8.13,13.42,11.53,1.32,1.13,10.2,7.18,10.39,6.24"/><path class="cls-2" d="M179.49,41a138.92,138.92,0,0,0-34.12-26.8A122.16,122.16,0,0,0,124,4.79C117.52,2.67,110.45,1,103.69,2.86c-3.08.86-7.05,2.58-8.22,5.88-1.74,4.9,4.43,9.44,7.68,11.84,2.16,1.6,15.2,13.23,18.15,10.87,1-.79,1-2.61-.39-1.47.13-.1-6.23-4.25-7.24-5-3.09-2.18-6.17-4.44-9.19-6.73a27.79,27.79,0,0,1-5-4.55c-.82-1-2.64-3.26-2.17-4.85.59-2,3.88-3.56,5.64-4.05,6.72-1.88,13.86.07,20.27,2.2,21,7,39.2,19.74,54.74,35.34.4.4,1.89-1,1.51-1.4Z"/><path class="cls-1" d="M188.56,102.9c0,18.24-1.26,37.76-12.49,52.72-9.31,12.39-27.51,16.83-42.69,16.07-11.72-.59-20.74-5.66-26.27-16.65-5.11-10.14-5.48-23.33-5.48-34.75a251.62,251.62,0,0,1,3-36.28c1.6-11,12.13-14.09,12.09-27.21,0-10.46-.91-19.71,5.48-27.95,5.85-7.54,19.26-6.66,28.54-4.38,13.36,3.28,27.06,9.68,29.41,23.73C183.22,66.3,188.56,84.42,188.56,102.9Z"/><path class="cls-2" d="M187.76,103.5c0,13.84-.63,28.22-6.06,41.17-5.8,13.83-16.6,22-31.11,24.93-10.49,2.15-23,2.58-32.35-3.47-10.17-6.58-13.87-18.85-15.06-30.3-1.48-14.2-.57-28.7,1.12-42.83.74-6.14,1.07-12.24,4.53-17.53C111.1,72,114,69,115.72,65.26c5.07-10.94-1.1-23.86,5.89-34.52,7.23-11,24.68-7,35.07-3.47,5.84,2,11.63,4.74,16,9.14,5.14,5.13,6.24,11.23,7.53,18.08,3.07,16.3,7.2,32.41,7.36,49.1,0,.66,1.9-.58,1.9-1.37-.18-17.94-4.89-35.29-8.06-52.84-2.27-12.54-11-19.57-22.63-23.65-9.72-3.4-22.86-6.37-32.44-1-9.78,5.46-10.66,18-10.59,27.88,0,4.15.28,8.27-1.31,12.19-1.34,3.29-3.6,6-5.68,8.85a27,27,0,0,0-5.32,12.77c-2.34,16.17-3.68,32.79-2.27,49.12,1.08,12.48,4.93,26.15,16.46,32.88,10.12,5.9,23.78,5,34.72,2.18,12.34-3.17,22.27-10.18,28.38-21.43,7.74-14.26,8.56-31,8.59-46.86C189.36,101.86,187.76,102.88,187.76,103.5Z"/><path class="cls-1" d="M105.92,124.07c-2.39.76-5.42,2.9-5.67,5.8-.38,5,8.19-2.65,9.7-3.28"/><path class="cls-2" d="M106.49,123.43c-2.62.17-5.37,2.58-6.55,4.82-.63,1.2-1.42,4,.63,4.26,1.66.2,3.59-1.24,4.89-2.09,1.58-1,3.07-2.18,4.59-3.29.19-.14,1.28-1.57.45-1.36-2.42.62-4.42,3-6.59,4.14-.79.43-2.16,1.28-2.63.11-.4-1,.44-2.41,1.06-3.12a14.47,14.47,0,0,1,3.43-2.33c.13-.08,1.12-1.15.73-1.12Z"/><path class="cls-1" d="M180.25,150.71c4.54-4.91,12.66-16.25,14.55-22.68a37.25,37.25,0,0,0,.76-14.36c-.38-1.89-1.51-4.16-1.51-6-.38-2.65.76-3.4.76-5.67,0-9.83-10.2-14-19.28-12.09-7.94,1.51-14.74,7.94-21.54,12.47-6.43,4.54-13.61,9.45-20.79,12.47-5.29,1.89-17,1.13-20,5.67-6,9.07,12.09,5.29,16.25,3.78,7.94-2.27,14-6.8,21.16-11a44.64,44.64,0,0,1,18.14-7.18c7.56-1.13,13.64-1.22,16.25,6.43s.38,25.7-2.27,32.5"/><path class="cls-2" d="M180.65,150.77c5.82-6.2,11.88-14,14.71-22.08a33.07,33.07,0,0,0,1.5-12.74c-.2-3.12-1.7-5.94-1.84-9-.11-2.42.93-4.56.7-7-.79-8.4-9.6-12.07-17.11-11.43-10.37.89-18.75,8.93-26.88,14.61-5.36,3.74-10.85,7.64-16.87,10.27-4.72,2.06-10.05,1.78-15,3-3.17.75-10.52,4-8.66,8.72,1.64,4.12,11.07,1.73,14,1.08,9.43-2.11,17.39-7.34,25.55-12.26,8.4-5.07,29.8-14.5,33.66.7,2.37,9.31.65,21.84-2.62,30.75-.48,1.32,1.65.16,1.92-.59,2.54-7,3.4-14.79,3.48-22.15.06-5.81-.13-14.08-6.26-17s-15.41-.11-21.3,2.21c-9.95,3.93-18,11.55-28.14,15.06-4.34,1.5-12.42,4.29-16.85,2.08-1.53-.76-1.92-1.5-1.46-3.21.89-3.36,6.51-3.94,9.27-4.35,3.46-.52,7.1-.65,10.44-1.8,9.06-3.12,17.47-9.76,25.14-15.32,8.25-6,18.19-13.26,28.77-8.36,6,2.77,7.14,7.55,6.48,13.49-.57,5.09,1.91,9.76,1.74,15-.38,11.63-7.74,21.74-15.12,30.26-.85,1,.28.68.8.12Z"/><path class="cls-1" d="M117.32,116.89c-.76-2.27-2.65-2.83-4.54-3.4-3-.76-5.67-.57-7,2.83-1.13,2.83-1.32,7.18.94,9.45,2.27,2.65,6.43,2.65,7.37-1.13"/><path class="cls-2" d="M118.17,116.26c-1.2-3.14-5.46-4.6-8.63-3.93-3.42.72-5.09,4.2-5.51,7.39-.46,3.5.77,7.78,4.6,8.79,3,.79,5.63-1.39,6.5-4.15.45-1.44-1.78-.26-2,.58-.83,2.67-3.77,1.56-5.18.15a7.51,7.51,0,0,1-1.79-6.42,5.9,5.9,0,0,1,1.41-3.53c1.11-1.28,2.27-1.2,3.88-.9,2.12.39,4.15,1.21,5.07,3.29.29.65,1.91-.7,1.7-1.26Z"/><path class="cls-1" d="M103.31,89.85c-.47,4-2.34,11-1.49,14.94.86,4.52,2.46,10.77,5.29,14.55,1.72,2.29,2.33,6.09-2.44,4.31-5.34-2-7.06-10.8-7.36-15.52A27.71,27.71,0,0,1,102.75,90"/><path class="cls-2" d="M102.61,90.28c-1,5.24-2.65,10.52-1.69,15.88a45.64,45.64,0,0,0,2.51,9c.51,1.27,3.57,5.33,3.49,6.4-.24,2.92-4.26-.77-5.28-2.35a21.67,21.67,0,0,1-2.73-7.7c-1.47-7.75.38-15,4.77-21.5,1-1.46-1.28-.79-1.84,0A30.09,30.09,0,0,0,96.9,113.6c.85,4.08,4.32,13.6,10.37,11.33,4.88-1.83,0-7.42-1.15-9.89a35.32,35.32,0,0,1-3.45-13.34c-.1-4.15,1-8.28,1.35-12.4,0-.34-1.34.57-1.42,1Z"/><path class="cls-1" d="M115.49,126c5.42,1.13,5,10,3.9,13.73-.76-1-1.13-2-2.27-2.65-1.64-1-3.53-1.39-5-3-2.39-2.14-1.26-4.54.25-7.06"/><path class="cls-2" d="M114.88,126.65c5.07,2.14,4.81,9,3.55,13.55l1.87-1.35c-1.49-2.15-2.69-2.79-5-4-1.37-.73-3.14-1.89-3.55-3.51s.73-3.22,1.31-4.66c.4-1-1-.1-1.23.19-1.52,1.9-3,4.69-1.5,7a9,9,0,0,0,3.81,3,9.84,9.84,0,0,1,4.33,3.66c.5.72,1.76-1,1.87-1.35,1.16-4.16,1.61-13.12-4.26-13.92-.43-.06-1.75,1.17-1.23,1.39Z"/><path class="cls-1" d="M124.14,6.17c-2.52-.69-5.12-1.78-7.64-2.29a44.33,44.33,0,0,0-12.85-1c-3.53.25-7.81,1.76-8.57,5.8s2.52,5,5,7.31"/><path class="cls-2" d="M124.72,5.51c-7.47-2.73-18.68-6.28-26.28-2A8.35,8.35,0,0,0,94.1,9.08c-.72,4,2.43,5.58,5.09,7.77.7.58,2.5-1.23,1.87-1.75-1.58-1.3-4.12-2.57-4.85-4.63-2.22-6.24,6.17-6.7,9.21-6.76,6.45-.13,12,1.65,18.13,3.11.43.1,1.61-1.16,1.17-1.32Z"/><path class="cls-1" d="M148.58,39.68c-3.4-2.14-3.1-1.78-5.37-3.67-3-1.89-3,.76-4.16-2.65-.38-1.13.76-4.16.76-5.67,4.54-.38,12.09,7.94,9.07,12.09Z"/><path class="cls-2" d="M149.29,39c-1.25-.82-2.57-1.58-3.76-2.49s-2.11-1.91-3.61-2.13c-1.26-.18-1.74-.26-2-1.87s.69-3.6.79-5.33l-1.47,1.37c4.91-.14,10.84,6.83,8.86,11.52L149.56,39l-.36,0c-.34,0-1.75,1-1.33,1.37l.22.18c.38.31,1.08-.4,1.28-.62,4.39-4.83-4-13.23-9-13.08a1.91,1.91,0,0,0-1.47,1.37c-.11,1.92-2.19,6.84.61,7.9a7.45,7.45,0,0,0,1.32.05,6.44,6.44,0,0,1,2.66,1.46c1.4,1,2.9,1.85,4.38,2.73C148.36,40.63,149.62,39.23,149.29,39Z"/><path class="cls-1" d="M127.71,28.82a41.08,41.08,0,0,0-.38,6.8,12.4,12.4,0,0,0-7.18,1.51C118.64,33,127.71,28.82,127.71,28.82Z"/><path class="cls-2" d="M127.07,29.33a43.38,43.38,0,0,0-.58,6.93L128,34.83a13.74,13.74,0,0,0-7.73,1.63l.74,0c-.7-2.3,1.59-4,3.25-5.11.74-.5,1.52-.94,2.31-1.37a5.06,5.06,0,0,0,.9-.56,3.63,3.63,0,0,0,.49-.53c.39-.5.25.05-.58.44.32-.15,1.34-1.41.62-1.08.44-.2-.24-.07-.38,0a6.4,6.4,0,0,0-1.3.64,25.79,25.79,0,0,0-3.48,2.28c-1.88,1.49-4.42,3.93-3.58,6.6.11.34.53.14.74,0a11.88,11.88,0,0,1,6.63-1.4A1.72,1.72,0,0,0,128.18,35a47.37,47.37,0,0,1,.17-6.68C128.38,28.12,127.15,28.88,127.07,29.33Z"/><path class="cls-1" d="M179.85,106.64c-6.17-3.35-17.41,0-28.38,6.79-9.26,5.7-17.53,13-27.35,17.74-4.67,2.27-25.34,3.63-18,12.18,2.16,2.51,6.08,3,9.13,3.48,8.14,1.17,15.46-1.23,23.12-2.95,7.36-1.65,14.62-2.9,21.46-5.51,6.2-2.37,13.71-3.87,18.6-8.79"/><path class="cls-2" d="M180.37,106.15c-4.07-2.76-9.66-1.6-14.07-.29-6.67,2-12.81,5.46-18.58,9.28-6.59,4.36-12.82,9.29-19.71,13.2-3.94,2.24-7.73,3.11-12.07,4.19-3.85,1-13.33,3-12.36,8.84.81,4.82,7.17,6,11.09,6.5,7.41.94,14.44-.9,21.6-2.57,8.81-2.05,17.39-3.93,25.95-6.87,6-2.07,12-3.88,16.72-8.32,1.19-1.12.25-2.13-1-1-5.64,5.11-14.07,7.22-21.22,9.49-7.31,2.33-14.94,3.58-22.4,5.36s-16.42,3.78-23.87.72c-2.68-1.1-6.6-4.21-3.66-7.1,1.45-1.42,4.17-1.94,6.08-2.49,3.33-1,6.87-1.41,10.12-2.63,5.14-1.93,10-5.51,14.42-8.62,11.6-8.1,26.67-21.26,41.92-16.65.25.08,1.16-.88,1-1Z"/><path class="cls-2" d="M141.85,171.36c.54,0,1.52-1.36,1.21-1.36-.54,0-1.52,1.36-1.21,1.36Z"/><path class="cls-1" d="M182.68,236a44.59,44.59,0,0,1-3.83-6.7c-1.13-3,1.78-7.47.38-10.46-1.89-4-12.77-1-16.95,2.66-6.64,6.14-.49,11.31,4.92,15.73,2.21,2,3.19,2.95,6.64,2.46,2-.25,5.16-.74,6.88-2.21,1.23-.74,2.46-1.72,1.72-2.95"/><path class="cls-2" d="M183.36,235.33c-1.26-2.27-3.52-5.1-3.81-7.69s1.14-4.9,1.08-7.41c-.07-2.73-1.61-4-4.26-4.32-6-.62-14.89,3-17.42,8.73-1.38,3.14-.26,6,1.83,8.52s5.86,6.55,9.18,7.49,15.46-1.62,13.47-6.88c-.36-.94-2.09.71-2,1.42.37,2.91-8.08,3.83-9.79,3.36-2.05-.57-3.79-2.54-5.36-3.9-2.09-1.81-4.79-4.05-5.54-6.85-1.18-4.37,3.72-7.33,7.16-8.59,2.33-.86,5.34-1.77,7.86-1.2,3,.69,3,3.25,2.5,6-.37,2-.95,3.95-.34,6,.75,2.44,2.62,4.65,4.07,6.67.24.33,1.6-.83,1.36-1.27Z"/><path class="cls-1" d="M121.93,250.18c-11.59-2,5.85-23.75-6.17-25.37-18.27-2.93-1.67,17.25-4.19,24.19"/><path class="cls-2" d="M122.55,249.46c-12.17-3.43,9.15-26.56-9.67-26-14.23.44-1.29,19.13-2.24,26-.14,1,1.6-.45,1.76-.79,1.79-4.05-1.33-9.53-2.63-13.33-.72-2.1-2.34-5.7-1.51-7.93,1.08-2.91,7.63-2.4,9.66-.37,5.47,5.48-7.83,21.89,3.37,23.82.5.09,1.77-1.29,1.26-1.44Z"/><path class="cls-1" d="M129.71,243.86c-2.25,4.5-7,4.68-11.64,4.64-8-.16-10.68-10.72-19.27-12.22-15-2.83-29.65,22-11,28.26,9.6,3.19,33.89,5.59,42.76-2.36,3.77-3.38,1.27-11.52-.18-17.58"/><path class="cls-2" d="M129.13,244c-2.49,3.7-9.48,4.63-13.43,3-2.79-1.16-4.83-3.64-6.9-5.74-3.31-3.37-6.83-6.15-11.77-6.17-7.6,0-14.57,6-17.52,12.68-9.83,22.29,28.94,22.34,41.29,19.59,3.89-.87,8.79-2.46,11.24-5.88,3.48-4.85.61-12.42-.63-17.53-.19-.79-2.1.62-1.92,1.38.91,3.74,2.67,8.37,2.15,12.27-.62,4.65-4.83,6.66-8.88,7.71-6,1.53-12.32,1.54-18.41,1.09-9.11-.68-26.34-2.41-24-15.53a17.56,17.56,0,0,1,11.54-13.14c6.6-2.06,11.41,1.59,15.87,6.06,3.84,3.85,7,5.93,12.54,5.6,4.48-.27,7.89-1.76,10.1-5.77.48-.88-1.08.11-1.28.4Z"/><path class="cls-1" d="M183,227.37c8.55,4.67,6.79,21.14,6.13,30-1.31,15.73-20.82,22.61-31.33,12.53-8.55-8.36-1.53-24.33,7-28,4.82-2.21,8.55-1.72,13.37-2.46,5.48-.74,4.82-6.39,4.16-11.31"/><path class="cls-2" d="M182.24,228.08c8.74,5.63,6.74,20,6,28.81-1.1,12.35-13.94,20.75-25.51,14.87-14.09-7.16-6.84-27.77,6.71-30.37,4-.76,9.56.25,12.59-3.11,2.66-2.95,1.84-7.25,1.12-10.76-.11-.52-1.55.66-1.52,1.15.11,1.83.69,4.35.06,6.08-1.65,4.56-6.09,3.82-9.54,4.28a22.36,22.36,0,0,0-9,2.91,22.76,22.76,0,0,0-8.81,11.31c-4.22,11.19,2.4,22.22,14.71,22.38,9.64.12,18.83-6.89,20.81-16.39a66.78,66.78,0,0,0,.78-17.89c-.41-5.57-1.68-11.63-6.81-14.7-.56-.34-1.94,1.17-1.53,1.43Z"/><path class="cls-1" d="M106.82,134.33c5.58-4.75,14.11,6.1,9.65,13.19-7.21,11.25-17.5-11.33-9.76-13.69"/><path class="cls-2" d="M106.66,134.88c4.18-2.5,8.2,1.71,9.49,5.52,1.05,3.11.19,10.65-4.7,9-2.74-.91-4.53-4.16-5.47-6.68-.63-1.69-2.19-7,.36-7.88.83-.29,2.14-2.56.72-2-7.23,2.59-3.86,13.1.28,17a5.47,5.47,0,0,0,7.79.26,10.13,10.13,0,0,0,2.44-12.26c-2-4.18-7-7.6-11-3.72-.36.35-.81,1.34.08.81Z"/><path class="cls-1" d="M84.51,137.39c-1.23-.22-2.17-1.21-3.31-1.68-2-.83-4.23-.65-6.19-1.79-3.83-2.23-5-8.22-2.39-12A7.44,7.44,0,0,1,81,118.8c4.79,1.15,9.4,6.34,13.85,8.74,4,2.17,9.56,4,12.81,7.42,9.2,10.09-2.48,15.64-13,20.05-6.37,2.67-19.54,7-25.2,2.32-2.41-2-4.39-4.36-3.76-7.65.8-4.14,8.78-4.46,12.16-4.63,2.63-.14,8.35-2.85,10.38-4.87Z"/><path class="cls-2" d="M85.16,136.64c-2.68-1.07-5.27-1.88-8-2.87a7.76,7.76,0,0,1-5-7.7c.37-10.74,10.31-6,14.45-3.06A81,81,0,0,0,94,128.32c5.14,2.89,11.44,4.5,14.63,9.9,4.49,7.58-4.83,11.94-10.59,14.5-8,3.54-24.11,10.66-30.3.87-4.67-7.39,6.94-7,10.62-7.73a22.31,22.31,0,0,0,10.17-5.37c.13-.12.81-.85.49-1.07l-3.91-2.64c-.38-.26-1.58,1-1.29,1.21l3.61,2.92.71-1.25c-5.42,4.43-10.78,3.63-17,5.21-3.31.84-6.75,2.85-6.69,6.7.08,5.17,5.51,8.44,10.1,8.83,6.16.52,12.59-1.59,18.24-3.81,6.55-2.57,22.38-8.28,18.56-18.2-2.58-6.69-10.07-8.57-15.72-11.72-5.4-3-11.18-10.45-18.15-8.76a9.77,9.77,0,0,0-7.16,9.28,8.66,8.66,0,0,0,3.84,7.47c1.51.9,3.14.91,4.77,1.37s3.16,1.51,4.88,2.11C84.37,138.32,85.71,136.86,85.16,136.64Z"/><path class="cls-1" d="M129.77,243c-2.25,4.5-7.1,4-11.77,4-8-.15-10.68-10.72-19.27-12.22-15-2.83-29.65,22-11,28.26,9.6,3.19,33.89,5.59,42.76-2.36,3.77-3.38.67-11.6-.77-17.66"/><path class="cls-2" d="M129.19,243.11c-2.34,3.41-8.85,3.77-12.59,2.68-2.93-.85-5-3.17-7.09-5.26-3.45-3.51-6.87-6.79-12.08-7-7.73-.29-14.9,5.79-17.94,12.55-10,22.33,28.72,22.47,41.12,19.74,3.91-.86,8.89-2.44,11.34-5.91,3.44-4.89,0-12.56-1.22-17.62-.2-.79-2.11.62-1.92,1.38.92,3.67,2.24,7.4,2.5,11.2.37,5.29-4.23,7.72-8.65,8.86-6,1.53-12.32,1.54-18.41,1.09-9.11-.68-26.34-2.41-24-15.53a17.57,17.57,0,0,1,11.54-13.14c6.6-2.07,11.41,1.59,15.87,6.05,3.91,3.92,7,5.76,12.56,5.66,4.5-.08,7.93-1.12,10.22-5.18.49-.88-1.08.11-1.28.4Z"/><path class="cls-1" d="M181.81,226.19c9.3,4.84,7.31,21.31,6.42,30.14-.76,6.86-4.2,12.39-9.52,15.07-6.86,3.45-16.36,2.46-22.13-3.36-8.32-8.58-.89-24.36,7.75-27.82,4.88-2.08,8.59-1.49,13.43-2.1,5.5-.59,5-6.26,4.46-11.19"/><path class="cls-2" d="M181,226.91c8.58,5.22,7.33,17.87,6.53,26.44-.63,6.75-2.08,13.79-8.76,17.19a19.05,19.05,0,0,1-20.21-2.43c-4.82-4.07-5.45-10.51-3.48-16.2,2.75-8,8.74-11.7,16.94-12.37,3.61-.3,7.84.13,10.16-3.24,2-2.89,1.32-6.75.76-10-.09-.52-1.54.66-1.52,1.15a24,24,0,0,1,0,4.91c-.77,4.3-4.76,4.76-8.2,5a25.35,25.35,0,0,0-9.81,2.31,21.93,21.93,0,0,0-9.13,9.8c-5.67,11.33-.15,23.45,13,24.74,11.71,1.15,20.42-7.28,21.92-18.48,1.25-9.32,3.06-24.83-6.67-30.33-.57-.32-1.93,1.19-1.53,1.43Z"/><path class="cls-1" d="M150.2,66.24c0-6-2.08-15.87-8.69-19.65-8.31-4.54-9.45,12.47-9.64,17.76-.19,6,3.4,8.13,9.07,7.56,3-.38,8.88-2.46,9.26-6"/><path class="cls-2" d="M150.88,65.71c.21-6.38-2.52-20.37-11.08-20.76-5.2-.23-7.1,6.73-7.85,10.62-1,5.17-3,14.84,3.68,16.91,4.79,1.48,14.84-1.18,15.33-7.21,0-.5-1.35.63-1.44.87-2.9,6.94-16,7-16.76-1.11A38,38,0,0,1,134,53.15c.52-2.11,1.35-5.89,3.86-6.42s5.16,2.24,6.53,3.95c3.6,4.48,4.68,10.51,5.09,16.09,0,.37,1.35-.61,1.37-1.06Z"/><path class="cls-1" d="M122.8,70c1.89-2.83,1.51-9.07,1.13-12.09-.19-2.46-1.51-11.72-4.35-12.66-5.1-1.7-7.37,8.31-7.75,11.15-.38,4-.94,8.69,2.65,11.53,1.7,1.51,6.24,2.27,8.13.76"/><path class="cls-2" d="M123.36,69.75c3.08-4.77,1.41-32.23-7.74-24-3.75,3.38-4.82,9.79-5,14.56-.18,6.27,5.12,13,11.81,9.08.63-.37,1.6-2.17.26-1.45-2.7,1.45-6.51.39-8.45-1.84-2.21-2.55-2-6.45-1.6-9.54.31-2.74,1.9-12.06,6.17-10.46,2.91,1.09,3.54,7.7,3.92,10.29.67,4.59,1.26,9.62-.6,14-.2.48,1.06-.49,1.18-.67Z"/><path class="cls-2" d="M133.57,52.26c3.21-1.13,5.48,4,5.1,6.24-1.32,6.61-9.12,2.85-5.29-3.4"/><path class="cls-2" d="M133,52.87c2.12-.19,3.51,1.42,4.22,3.25.5,1.28,1,3.72-.36,4.71-1,.69-2.36-.2-2.93-1-1.18-1.61-.45-3.42.19-5.06.39-1-1-.11-1.26.18-1.5,1.81-2.27,4.84-.55,6.79a3.6,3.6,0,0,0,5.09.12,5.94,5.94,0,0,0,1.86-6.6c-.77-2.23-2.78-4.91-5.4-3.57-.16.08-1.21,1.19-.86,1.15Z"/><path class="cls-2" d="M113.16,50.93c2.83-.19,4.54,4.72,3.78,6.61-1.7,3.78-6.28.77-4.72-1.51"/><path class="cls-2" d="M112.59,51.57c2.33.31,3.67,3.42,3.59,5.52-.05,1.26-1,1.59-2,1a2,2,0,0,1-1.07-2.56c.24-.72-1,0-1.15.15-1.29,1.31-1.36,3.08.32,4.11a3.68,3.68,0,0,0,4.71-1.14,4.93,4.93,0,0,0,.65-5.22c-.66-1.75-1.92-3.46-4-3.16-.31,0-1.43,1.21-1,1.27Z"/><path class="cls-2" d="M138.29,90.58c-1.89-.33-4.35.5-6.24.66a53.13,53.13,0,0,1-8.88.17,29,29,0,0,1-6.61-1.32c-2.83-.83-4.54-2.65-7-3.81-2.46,6.46-3.59,13.74.38,20.2,6.8,11.26,20.79-8.44,24-13.41.19-.5.38-.83.57-1.32"/><path class="cls-2" d="M138.89,89.91c-5-.52-9.95,1-15,.5-5.39-.5-8.86-2.74-13.53-5.07-.59-.29-1.55.77-1.7,1.23-2.21,6.85-3.89,15.3,1.07,21.51,2.21,2.77,5.19,3.2,8.39,1.87,6.91-2.87,14.61-11.6,17.27-18.5.46-1.2-1.44.05-1.69.59-2.7,5.73-8.75,13.36-14.54,16.09-3.5,1.65-6.28.74-8.37-2.41-3.88-5.87-2.7-13.6-.26-19.74l-1.7,1.23c4.3,2.45,7.73,4.55,12.85,5.06,5.52.55,10.64-.91,16.05-1,.44,0,1.59-1.29,1.19-1.33Z"/><path class="cls-1" d="M123,86.46c-3.59-.38-8.61-.38-10.69-3.22"/><path class="cls-2" d="M123.64,85.71c-3.76-.41-7.72-.39-10.65-3.12-.36-.34-1.66.88-1.4,1.31,2,3.28,7.4,3,10.74,3.32.59.05,1.79-1.46,1.31-1.51Z"/><path class="cls-2" d="M123,104.53c.65,0,2.07-1.74,1.11-1.74-.65,0-2.07,1.74-1.11,1.74Z"/><path class="cls-1" d="M124.31,105a7.29,7.29,0,0,0-7.82-.74c-2.22-2.24-11.09-5.49-7.32.61,3.11,4.68,9.25,5.69,13.15,2.24Z"/><path class="cls-2" d="M125,104.3a8.47,8.47,0,0,0-3.8-1.67c-1.25-.17-2.33.37-3.5.37-1.37,0-2.78-1.3-4.21-1.86-2-.79-5.64-1.41-6.22,1.58-.8,4.07,5.45,7.28,8.65,7.38,4.07.13,6.43-2.16,8.8-5,.72-.88,0-.95-.69-.35a15.18,15.18,0,0,1-3.52,2.8c-3.11,1.45-6.78.35-9.14-1.94-.84-.82-2-2.11-2.1-3.33,0-.28-.69,0,.07.06a6,6,0,0,1,1.41.26,11.75,11.75,0,0,1,4.85,2.5c.21.19.53,0,.75-.06,2.5-1.16,4.94-.62,7.21.68C124.08,105.95,125.41,104.56,125,104.3Z"/><path class="cls-1" d="M114.86,116.38c-2-.63-5.29,2.14-5.92,3.91"/><path class="cls-2" d="M115.46,115.7c-1.54-.41-3.2.57-4.38,1.48-1,.79-2.75,2.23-2.83,3.64,0,.45,1.12-.57,1.19-.65,1.16-1.47,2.59-3.62,4.82-3.1.48.11,1.64-1.25,1.21-1.36Z"/><path class="cls-1" d="M102.26,93.08c-2.65,4.66-2.65,8.82-2.65,14.24"/><path class="cls-2" d="M101.83,93.32c-2.63,4.56-2.77,9.27-2.75,14.42,0,.14,1.06-.49,1.06-.86,0-5,.34-9.62,2.6-14.15.14-.28-.81.39-.92.58Z"/><path class="cls-1" d="M194,106.93c.94-5-6.17-8.44-9.07-10.08"/><path class="cls-2" d="M194.61,106.44c.89-5.25-5.26-8.19-9.08-10.16-.4-.21-1.47,1-1.23,1.15,3.59,2.18,9.62,4.93,9.06,10,0,.21,1.19-.56,1.26-1Z"/><path class="cls-1" d="M111.08,129.74c-.76-1.13-1.51-1.89-2.27-3"/><path class="cls-2" d="M111.75,129.11c-.71-1-1.55-2-2.3-3-.21-.28-1.51.81-1.27,1.19.67,1.07,1.53,2,2.24,3.05.21.31,1.62-.83,1.33-1.24Z"/><path class="cls-1" d="M141.32,113.11c-5.67,3.91-13.61,6.8-20.41,6.43"/><path class="cls-2" d="M141.48,112.66a36.25,36.25,0,0,1-20,6.27c-.43,0-1.36,1.19-1.09,1.2,7.38.45,14.75-2.55,20.8-6.58.35-.23,1.2-1.48.32-.9Z"/><path class="cls-1" d="M127.71,14.46a36.7,36.7,0,0,0-14,2.65"/><path class="cls-2" d="M128.18,14a38.8,38.8,0,0,0-14,2.61c-.31.12-1.17,1.19-.83,1.07A42.45,42.45,0,0,1,127.24,15c.37,0,1-1,.93-1Z"/><path class="cls-1" d="M118.81,247.11c1.53.34,2.72,4.73,1.28,6.24-2.85,3.64-9.82,5.37-14.59,6-8,1-18.7-.59-25.54-6.29"/><path class="cls-2" d="M118.22,247.66c8.17,7.39-11.7,11-16.11,11-7.56.11-15.17-1.83-21.21-6.49-.73-.57-2.53,1.25-1.88,1.76,8.27,6.5,19.83,7.95,29.9,5.6,3.79-.88,8.17-2.24,10.9-5.2,1.87-2,2.88-6.6-.5-7.82-.28-.1-1.34.91-1.11,1.12Z"/><path class="cls-1" d="M181.49,236.95c12.85,14-6.43,41.2-26.46,27.59"/><path class="cls-2" d="M180.72,237.67c5.63,6.68,4.93,16.14-.42,22.83-6.7,8.38-15.92,7.52-24.54,3.18-.54-.27-2.09,1.25-1.58,1.66,17.43,13.87,42.58-12.54,28.08-29.1-.38-.43-1.93,1-1.54,1.44Z"/><path class="cls-1" d="M90.37,41.92c-1,1-2-.76-3-2-2-2.27-2.77-5.54-4.79-7.81-2.27-2.77-3-5.29-6.55-6.55-6-2.27-13.35,1-15.12,5-1.85,4.24-2.77,8.06,3.78,9.32,2.77.5,9.83,1.51,10.33.5"/><path class="cls-2" d="M90.89,41.36c-3.27,0-5.72-7.74-7.39-10.14-2-2.91-3.84-5.82-7.38-6.91-5.37-1.65-12.41.44-15.58,5.23-2.6,3.93-3.42,9.24,1.8,11,3.12,1.08,10.79,3,13.22,0,.47-.58.44-1.28-.43-.87-2.33,1.08-8-.39-10.36-1-8.36-2.25-1.87-11.23,3.73-12.53,6.4-1.48,9.76,2.28,13.12,6.82,2.32,3.14,3.73,8.12,7.28,10.08.22.12.67-.17.82-.29l.65-.54c.05,0,.84-.87.52-.87Z"/></svg>