<svg id="Icons" xmlns="http://www.w3.org/2000/svg" viewBox="0 0 147.7 206.82"><defs><style>.cls-1{fill:#10069f;}.cls-2{fill:#050050;}</style></defs><title>og-brochure-mobile</title><path class="cls-1" d="M70,42.13c0-3,.57-6.8-.94-9.26-2.65-4-9.07-5.29-13.42-5.48C46.24,26.82,40,39.11,47.75,45.72c2.08,1.7,4.72,3,7.37,1.89"/><path class="cls-2" d="M70.58,41.72c.39-6,.23-10.82-6-13.41-4.65-1.93-10.74-2.74-15.18.08a12.6,12.6,0,0,0-6,11.08c.36,5.4,5.92,10.85,11.43,8.72.29-.11,1.31-1.35.67-1.21-11.9,2.62-14.16-17.33-2-18.72a20.49,20.49,0,0,1,11.55,2.35c4.8,2.69,4.26,7.11,4.42,11.92,0,.29,1-.47,1.07-.82Z"/><path class="cls-1" d="M40.17,113.23c-1.66,3.48,5.47,6.61,8,7,3.65.52,8.45-.7,10.61-4.17,5.14-7.82-16.08-13-19.4-6.43-1.16,2.26,1.66,4,1,4.35"/><path class="cls-2" d="M39.53,113.59c-1,3.08,2.38,5.08,4.77,6.18a12.41,12.41,0,0,0,9.43.48c3.91-1.36,8.8-6,5.3-10.12-3.16-3.74-10-4.92-14.57-4.12a8.24,8.24,0,0,0-5.1,2.6,3.94,3.94,0,0,0-1,2.94c.09.76,1.5,2.25,1.36,2.73-.18.65,1-.14,1.06-.26.71-.85,0-.87,0-1.7-.1-2.22-.95-3.53,1.47-4.44a9.43,9.43,0,0,1,2.16-.47,18.56,18.56,0,0,1,10.65,2c5.54,3,4.46,8.7-2.64,10-3.3.58-13.2-1.38-11.56-6.53.18-.55-1.14.3-1.28.72Z"/><path class="cls-1" d="M43.22,113.1c-1.66,3.48,6.57,6.74,9.06,7.08,3.65.52,8.45-.7,10.61-4.17,5.14-7.82-16.08-13-19.4-6.43-1.16,2.26-.1,2-.77,2.35"/><path class="cls-2" d="M42.58,113.46c-1.83,5.53,9.55,7.94,13.16,7.34,3.93-.66,10.65-4.74,8.19-9.6-2.18-4.3-9.27-5.59-13.56-5.37a10.26,10.26,0,0,0-5.87,1.85,6.34,6.34,0,0,0-1.66,1.93c-.05.09-1,2.75-.52,2.22-.22.24-.45.93.14.7a2.33,2.33,0,0,0,1.2-1.08c.5-.75.23-1.85,1-2.65a5.69,5.69,0,0,1,2.78-1.21,18,18,0,0,1,11.69,1.86c1.41.76,3.07,1.91,3.58,3.52,1.25,4-4.41,6.43-7.63,6.62s-12.68-2.35-11.24-6.84c.18-.55-1.14.3-1.28.72Z"/><path class="cls-1" d="M89.48,56.14c-7.09.07-16.8-8.54-21.67-13.88a14.61,14.61,0,0,0-8.49,5.23c4,5.31,7.57,11.33,12.37,16.4,2.86,3.58,11.83,9.75,12.74,12.73"/><path class="cls-2" d="M89.92,55.65c-8.44-.63-16-8.11-21.41-14-.11-.12-.3-.08-.43-.05a17.24,17.24,0,0,0-9.27,5.77c-.17.2-.39.58-.2.83,4.48,6.08,8.43,12.65,13.83,18,3.68,3.65,8.62,6.55,11.35,11.05.27.44,1.41-.69,1.32-1.09-.88-3.83-6.53-7.07-9.28-9.52-4.92-4.39-8.72-9.79-12.49-15.17C62.45,50.17,60.67,48.52,61,47c.43-2,4.84-4.38,6.7-3.46,1,.47,1.94,2,2.73,2.71q1.77,1.66,3.65,3.2c4.19,3.43,9.32,7.19,15,7.19.35,0,1.15-1,.88-1Z"/><path class="cls-1" d="M60.54,53.77c-4.26.09-3.49-7.38-1.68-9.53,1.52-2.12,7.23-5.18,9.85-4.56s4.35,4.17,2.83,6.3c-2.06-4.09-9.36-2.88-10.68,1.5-.42,1.74,3.25,8-2.36,5.61"/><path class="cls-2" d="M61,53.27c-4-.9-3.53-7-1.19-9.47a12.87,12.87,0,0,1,6.42-3.32c2.87-.53,6.46,2.36,4.68,5.53l1.34-.69c-2.2-3.72-7.53-3-10.33-.38a5,5,0,0,0-1.83,3.79,16.77,16.77,0,0,0,.54,2.39c.36,1.69.23,1.86-1.54,1.25-.55-.19-1.81,1.14-1.16,1.41,2.6,1.1,4.82.09,4.42-2.92-.31-2.39-1.67-4.2,1.11-5.87a5.37,5.37,0,0,1,7.38,1.62c.28.48,1.22-.48,1.34-.69a4.76,4.76,0,0,0-3.11-7c-3-.53-6.76,1.74-9,3.54a8.72,8.72,0,0,0-3.31,6.33c-.2,2.33.43,5.72,3.42,5.45.24,0,1.13-.9.79-1Z"/><polygon class="cls-1" points="75.19 103.91 28.66 116.65 1.07 17.32 47.6 4.58 75.19 103.91"/><path class="cls-2" d="M28.06,117.72,0,16.71,48.21,3.52l28.06,101ZM2.15,17.93l27.12,97.65L74.12,103.3,47,5.65Z"/><path class="cls-1" d="M87,123.2c.28,2.83.57,4.35.76,6.61.38,7.75.7,16.54.76,24.19s0,14.55-2.3,22.3c-.57,2.08-1.7,4.72-1.51,7,.38,3,1.89,2.83,4.91,3,1.89,0,4.35.19,6-1.13,1.92-1.49,1.56-4.5,1.53-6.58-.05-3.24,6.39-31.29,8.53-35.32,1.11-2.09,2.64-3.11,2.76-5.34-.18,0,2.91-14.74,4.32-14.74"/><path class="cls-2" d="M86.46,123.62c1,14.62,2.61,29.85.79,44.46a73.58,73.58,0,0,1-2.59,11.27c-.51,1.79-1.33,4.4-.22,6.15,1.79,2.8,8.83,1.91,11.13.28,2.81-2,2.17-5.12,2.38-8.12a66.28,66.28,0,0,1,1.63-8.9c1.7-8,3.18-16.53,6.18-24.15.77-2,2.32-3.47,3.05-5.42a22.42,22.42,0,0,0,.71-3.56c.39-1.95.84-3.89,1.33-5.81.16-.61,1.24-5.84,1.67-6s1.45-1.53.53-1.26c-1.66.5-2.25,3.07-2.69,4.45a81,81,0,0,0-2.42,9.84c-.56,3.09-2.5,5.31-3.58,8.18a90.7,90.7,0,0,0-2.61,9,226.27,226.27,0,0,0-5.08,22.79,21.85,21.85,0,0,0-.24,2.31c-.12,2.68.89,5.39-3.31,6.41a14,14,0,0,1-4,0c-5-.37-3.58-4.74-2.52-8.4a63.32,63.32,0,0,0,2-9.2c1-7.39.66-15,.46-22.41a186.39,186.39,0,0,0-1.52-22.77c0-.33-1.11.46-1.08.83Z"/><path class="cls-1" d="M100,126.14c-.15.91,12.85,25,16.57,31.28s4.43,5.93,8.78,11.5c1,1.28,11,10.49,12.42,10.32l-1.23-8.33c-1-3.2-1.69-2.94-3-5.72a131.13,131.13,0,0,1-6.61-20.69c-.95-5.37-1.7-11.14-2.46-16.71a46.63,46.63,0,0,1-.14-8.12"/><path class="cls-2" d="M99.42,126.56c.06,1.17,1,2.57,1.53,3.58,1.25,2.55,2.56,5.06,3.87,7.58,3.14,6,6.34,12,9.69,17.92a75.05,75.05,0,0,0,10.91,14.71,82.6,82.6,0,0,0,6.47,5.92c1.31,1.11,3.41,3.48,5.26,3.65.53,0,1.37-.62,1.28-1.2-.38-2.64-.55-5.43-1.17-8a12.94,12.94,0,0,0-1.7-3.74,47.44,47.44,0,0,1-3.75-8.67A99.88,99.88,0,0,1,127,139.85c-1.06-6.81-2.27-13.69-1.89-20.59,0-.9-1.57.15-1.61.8-.32,6.11.64,12.07,1.53,18.1a106,106,0,0,0,4.88,19.93,75,75,0,0,0,2.92,7.74c1,2,2.48,3.69,3,5.93.63,2.59.8,5.37,1.2,8l1.28-1.2c-1.92-.17-4.31-2.85-5.68-4a77.45,77.45,0,0,1-6.05-5.55,75.65,75.65,0,0,1-10.77-14.53c-3.15-5.53-6.19-11.12-9.2-16.72-1.4-2.6-2.79-5.21-4.13-7.84-.59-1.15-1.84-2.83-2-4.16,0-.29-1.09.44-1.07.82Z"/><path class="cls-1" d="M121.58,6.7c-.43-3.26-4.25-8.65-7.51-4.54"/><path class="cls-2" d="M122.13,6.28a8.23,8.23,0,0,0-3.3-5.75c-2-1.25-3.89-.1-5.26,1.48-.84,1,.41,1,1,.31,2.72-3.21,6,2.54,6.47,4.8.06.34,1.15-.46,1.1-.84Z"/><path class="cls-1" d="M135,37.31c.85-6.52.3-11.59-2.69-17.57-2.55-5.1-6.66-10.2-10.77-12.9C117.8,4.36,110.24-.1,105.28.75,101.88,1.46,97.34,5,95.64,8c-2,3.68-2.27,8.08-2.27,12.19"/><path class="cls-2" d="M135.52,36.94C138.29,21.72,128.39,8.19,115,2,109.12-.67,104.38-.77,99.24,3.3c-5.55,4.4-6.65,10.47-6.72,17.27,0,1,1.7-.11,1.7-.82,0-3.62.12-7.41,1.66-10.75,1.61-3.51,5.74-7.27,9.79-7.57,5-.37,10.48,3,14.52,5.65a33.26,33.26,0,0,1,10.89,12.21c3.24,6,3.83,11.74,3.48,18.4,0,.2.9-.46,1-.75Z"/><path class="cls-2" d="M125,26.91c.49,0,1.55-1.3.83-1.3-.49,0-1.55,1.3-.83,1.3Z"/><path class="cls-1" d="M121.15,22.72c.28-7.23-3.26-16.3-9.5-20.55a9.72,9.72,0,0,0-7.94-.85c-1.84.57-6.38,3.54-6.09,5"/><path class="cls-2" d="M121.65,22.33C122,14.86,118.57,3.9,110.91.8a10.59,10.59,0,0,0-9.45,1c-1.64,1-4.49,2.65-4.59,4.83,0,.86,1.45-.24,1.51-.78.18-1.44,2.87-2.88,4-3.42a9.24,9.24,0,0,1,5.85-.71c2.81.57,5,2.65,6.72,4.82a27.4,27.4,0,0,1,5.67,16.53c0,.23,1-.43,1-.78Z"/><path class="cls-1" d="M134.05,31.36C122.85,19.6,109,10.1,93.66,4.86c-5-1.7-10.63-3.26-15.73-2-3.4.85-7.51,3-5,6.94,2.13,3.54,6.94,6.09,10.06,8.65,1,.85,7.65,5.39,7.8,4.68"/><path class="cls-2" d="M134.62,30.84A104.19,104.19,0,0,0,109,10.74a91.62,91.62,0,0,0-16-7C88.14,2.11,82.84.84,77.77,2.25c-2.31.64-5.29,1.94-6.17,4.41-1.3,3.68,3.33,7.08,5.76,8.88C79,16.74,88.76,25.47,91,23.69c.74-.59.77-2-.29-1.1.1-.08-4.67-3.18-5.43-3.72-2.32-1.64-4.63-3.33-6.89-5a20.84,20.84,0,0,1-3.73-3.41C74,9.65,72.64,8,73,6.78c.45-1.5,2.91-2.67,4.23-3,5-1.41,10.4.05,15.2,1.65,15.78,5.24,29.4,14.8,41.06,26.5.3.3,1.42-.74,1.13-1.05Z"/><path class="cls-1" d="M141.42,77.28c0,13.68-.94,28.32-9.37,39.54-7,9.29-20.63,12.62-32,12.05-8.79-.44-15.55-4.25-19.7-12.49-3.83-7.61-4.11-17.5-4.11-26.06a188.71,188.71,0,0,1,2.27-27.21c1.2-8.28,9.1-10.57,9.07-20.41,0-7.85-.68-14.79,4.11-21,4.39-5.65,14.44-5,21.4-3.29,10,2.46,20.29,7.26,22.06,17.79C137.42,49.83,141.42,63.42,141.42,77.28Z"/><path class="cls-2" d="M140.82,77.73c0,10.38-.47,21.17-4.54,30.88-4.35,10.37-12.45,16.47-23.33,18.7-7.87,1.61-17.26,1.93-24.26-2.6-7.62-4.94-10.4-14.14-11.3-22.72-1.11-10.65-.43-21.52.84-32.12.55-4.6.8-9.18,3.4-13.14,1.69-2.58,3.85-4.84,5.16-7.67,3.8-8.2-.83-17.89,4.42-25.89,5.42-8.27,18.51-5.26,26.3-2.61,4.38,1.49,8.72,3.55,12,6.86,3.86,3.85,4.68,8.42,5.65,13.56,2.31,12.22,5.4,24.31,5.52,36.82,0,.49,1.43-.44,1.42-1-.13-13.45-3.66-26.47-6-39.63-1.7-9.4-8.22-14.68-17-17.74-7.29-2.55-17.14-4.78-24.33-.76s-8,13.47-7.94,20.91c0,3.11.21,6.2-1,9.14a31.92,31.92,0,0,1-4.26,6.63,20.23,20.23,0,0,0-4,9.58c-1.76,12.13-2.76,24.6-1.7,36.84.81,9.36,3.69,19.61,12.35,24.66,7.59,4.43,17.83,3.74,26,1.64,9.25-2.38,16.7-7.63,21.29-16.08,5.81-10.7,6.42-23.23,6.44-35.14C142,76.5,140.82,77.27,140.82,77.73Z"/><path class="cls-1" d="M79.44,93.16c-1.79.57-4.06,2.17-4.25,4.35-.28,3.78,6.14-2,7.28-2.46"/><path class="cls-2" d="M79.87,92.68c-2,.12-4,1.93-4.92,3.61-.47.9-1.07,3,.47,3.19,1.25.15,2.69-.93,3.67-1.57,1.18-.77,2.3-1.63,3.44-2.47.15-.11,1-1.18.34-1-1.82.46-3.32,2.22-4.94,3.11-.6.32-1.62,1-2,.08s.33-1.81.79-2.34a10.85,10.85,0,0,1,2.58-1.75c.09-.06.84-.86.55-.84Z"/><path class="cls-1" d="M135.18,113.14c3.4-3.68,9.5-12.19,10.91-17a27.94,27.94,0,0,0,.57-10.77c-.28-1.42-1.13-3.12-1.13-4.54-.28-2,.57-2.55.57-4.25,0-7.37-7.65-10.49-14.46-9.07-6,1.13-11.05,6-16.16,9.35-4.82,3.4-10.2,7.09-15.59,9.35-4,1.42-12.76.85-15,4.25-4.54,6.8,9.07,4,12.19,2.83,6-1.7,10.49-5.1,15.87-8.22a33.48,33.48,0,0,1,13.61-5.39c5.67-.85,10.23-.92,12.19,4.82s.28,19.27-1.7,24.38"/><path class="cls-2" d="M135.48,113.19c4.36-4.65,8.91-10.49,11-16.56a24.8,24.8,0,0,0,1.12-9.55c-.15-2.34-1.27-4.46-1.38-6.77-.08-1.82.7-3.42.53-5.23-.59-6.3-7.2-9.05-12.83-8.57-7.77.66-14.06,6.7-20.16,11-4,2.8-8.14,5.73-12.65,7.7-3.54,1.54-7.54,1.33-11.26,2.22-2.38.56-7.89,3-6.5,6.54,1.23,3.09,8.3,1.29,10.47.81,7.07-1.58,13-5.5,19.16-9.2,6.3-3.8,22.35-10.87,25.25.52,1.78,7,.49,16.38-2,23.06-.36,1,1.23.12,1.44-.44a50.8,50.8,0,0,0,2.61-16.61c0-4.36-.1-10.56-4.7-12.72s-11.56-.08-16,1.66c-7.46,2.94-13.47,8.66-21.1,11.29-3.25,1.12-9.32,3.22-12.63,1.56a1.72,1.72,0,0,1-1.1-2.41c.67-2.52,4.88-3,7-3.26,2.6-.39,5.33-.48,7.83-1.35,6.8-2.34,13.1-7.32,18.86-11.49,6.19-4.49,13.64-9.95,21.58-6.27,4.49,2.08,5.35,5.66,4.86,10.12-.43,3.82,1.43,7.32,1.31,11.21-.29,8.72-5.81,16.3-11.34,22.7-.64.74.21.51.6.09Z"/><path class="cls-1" d="M88,87.77c-.57-1.7-2-2.13-3.4-2.55-2.27-.57-4.25-.43-5.24,2.13-.85,2.13-1,5.39.71,7.09,1.7,2,4.82,2,5.53-.85"/><path class="cls-2" d="M88.63,87.3c-.9-2.36-4.09-3.45-6.47-2.95-2.57.54-3.82,3.15-4.13,5.54-.34,2.63.58,5.84,3.45,6.59,2.26.59,4.22-1,4.87-3.11.34-1.08-1.34-.2-1.54.44-.62,2-2.83,1.17-3.89.11a5.63,5.63,0,0,1-1.34-4.81,4.42,4.42,0,0,1,1.05-2.64c.83-1,1.7-.9,2.91-.68,1.59.3,3.11.91,3.8,2.47.22.49,1.43-.52,1.27-.94Z"/><path class="cls-1" d="M77.48,67.49c-.36,3-1.75,8.25-1.12,11.21.65,3.39,1.84,8.08,4,10.91,1.29,1.72,1.75,4.56-1.83,3.23-4-1.47-5.29-8.1-5.52-11.64a20.79,20.79,0,0,1,4.08-13.56"/><path class="cls-2" d="M77,67.81c-.72,3.93-2,7.89-1.27,11.91a34.23,34.23,0,0,0,1.88,6.77c.38,1,2.68,4,2.62,4.8-.18,2.19-3.2-.58-4-1.77a16.25,16.25,0,0,1-2-5.77,21.09,21.09,0,0,1,3.57-16.13c.74-1.1-1-.59-1.38,0a22.57,22.57,0,0,0-3.7,17.65c.64,3.06,3.24,10.2,7.78,8.5,3.66-1.37,0-5.56-.86-7.42a26.49,26.49,0,0,1-2.58-10c-.07-3.11.72-6.21,1-9.3,0-.26-1,.43-1.06.74Z"/><path class="cls-1" d="M86.62,94.57c4.06.85,3.78,7.47,2.93,10.3-.57-.76-.85-1.51-1.7-2-1.23-.76-2.65-1-3.78-2.27-1.8-1.61-.95-3.4.19-5.29"/><path class="cls-2" d="M86.16,95.09c3.8,1.61,3.61,6.79,2.66,10.16l1.4-1a8.5,8.5,0,0,0-3.72-3c-1-.55-2.36-1.41-2.66-2.63s.55-2.42,1-3.49c.3-.73-.75-.07-.92.14-1.14,1.43-2.24,3.52-1.13,5.27a6.74,6.74,0,0,0,2.86,2.24,7.38,7.38,0,0,1,3.25,2.74c.37.54,1.32-.73,1.4-1,.87-3.12,1.21-9.84-3.2-10.44-.32,0-1.31.88-.92,1Z"/><path class="cls-1" d="M93.1,4.73C91.21,4.21,89.26,3.39,87.37,3a33.25,33.25,0,0,0-9.64-.76c-2.65.19-5.86,1.32-6.42,4.35s1.89,3.78,3.78,5.48"/><path class="cls-2" d="M93.54,4.24c-5.6-2-14-4.71-19.71-1.47a6.26,6.26,0,0,0-3.26,4.15c-.54,3,1.82,4.18,3.82,5.83.53.44,1.88-.92,1.4-1.31-1.19-1-3.09-1.93-3.64-3.47-1.66-4.68,4.63-5,6.91-5.07,4.83-.1,9,1.23,13.6,2.33.32.08,1.21-.87.88-1Z"/><path class="cls-1" d="M111.43,29.86a24.19,24.19,0,0,1-4-2.75c-2.27-1.42-2.27.57-3.12-2-.28-.85.57-3.12.57-4.25,3.4-.28,9.07,6,6.8,9.07Z"/><path class="cls-2" d="M112,29.37c-.94-.61-1.93-1.18-2.82-1.87a6,6,0,0,0-2.71-1.6c-.95-.14-1.31-.19-1.49-1.41s.52-2.7.59-4l-1.1,1c3.68-.1,8.13,5.12,6.65,8.64l1.09-.82-.27,0c-.25,0-1.32.77-1,1l.17.14c.28.23.81-.3,1-.47,3.29-3.62-3-9.92-6.76-9.81a1.43,1.43,0,0,0-1.1,1c-.08,1.44-1.65,5.13.45,5.93a5.58,5.58,0,0,0,1,0,4.83,4.83,0,0,1,2,1.1c1,.76,2.18,1.38,3.29,2.05C111.27,30.58,112.22,29.53,112,29.37Z"/><path class="cls-1" d="M95.78,21.72a30.81,30.81,0,0,0-.28,5.1A9.3,9.3,0,0,0,90.11,28C89,24.84,95.78,21.72,95.78,21.72Z"/><path class="cls-2" d="M95.3,22.1a32.54,32.54,0,0,0-.44,5.2L96,26.23a10.31,10.31,0,0,0-5.8,1.22l.55,0c-.52-1.72,1.19-3,2.44-3.83.56-.38,1.14-.7,1.73-1a3.79,3.79,0,0,0,.68-.42,2.72,2.72,0,0,0,.37-.4c.29-.37.19,0-.43.33.24-.11,1-1.06.46-.81.33-.15-.18,0-.29,0a4.8,4.8,0,0,0-1,.48,19.34,19.34,0,0,0-2.61,1.71c-1.41,1.12-3.32,2.94-2.69,4.95.08.26.4.11.55,0a8.91,8.91,0,0,1,5-1,1.29,1.29,0,0,0,1.15-1.07,35.53,35.53,0,0,1,.13-5C96.28,21.2,95.36,21.77,95.3,22.1Z"/><path class="cls-1" d="M134.89,80.09c-4.63-2.52-13.06,0-21.29,5.1-6.94,4.27-13.15,9.73-20.51,13.31-3.5,1.7-19,2.72-13.47,9.13,1.62,1.88,4.56,2.28,6.85,2.61,6.1.88,11.59-.92,17.34-2.21,5.52-1.24,11-2.17,16.09-4.13,4.65-1.78,10.28-2.91,14-6.59"/><path class="cls-2" d="M135.28,79.72c-3.05-2.07-7.25-1.2-10.55-.22a52.75,52.75,0,0,0-13.93,7c-4.94,3.27-9.61,7-14.78,9.9A33.42,33.42,0,0,1,87,99.5c-2.89.72-10,2.26-9.27,6.63.61,3.62,5.38,4.5,8.32,4.88,5.56.7,10.83-.67,16.2-1.92a194.08,194.08,0,0,0,19.46-5.15c4.5-1.55,9-2.91,12.54-6.24.89-.84.19-1.6-.72-.77-4.23,3.83-10.56,5.41-15.91,7.12s-11.21,2.69-16.8,4-12.31,2.83-17.9.54c-2-.83-5-3.15-2.75-5.32,1.09-1.07,3.13-1.46,4.56-1.87,2.5-.71,5.15-1.06,7.59-2C96.13,98,99.74,95.29,103.09,93c8.7-6.08,20-15.94,31.44-12.49.19.06.87-.66.75-.75Z"/><path class="cls-2" d="M106.39,128.63c.41,0,1.14-1,.9-1-.41,0-1.14,1-.9,1Z"/><path class="cls-1" d="M137,177.08a33.44,33.44,0,0,1-2.87-5c-.85-2.27,1.33-5.6.28-7.84-1.42-3-9.58-.77-12.71,2-5,4.61-.37,8.48,3.69,11.8,1.66,1.47,2.4,2.21,5,1.84,1.47-.18,3.87-.55,5.16-1.66.92-.55,1.84-1.29,1.29-2.21"/><path class="cls-2" d="M137.52,176.6c-.95-1.7-2.64-3.82-2.85-5.77s.85-3.68.81-5.56c-.05-2-1.21-3-3.19-3.24-4.47-.47-11.17,2.22-13.06,6.55-1,2.35-.19,4.51,1.37,6.39s4.39,4.91,6.89,5.62,11.59-1.21,10.1-5.16c-.27-.71-1.57.53-1.5,1.07.28,2.18-6.06,2.87-7.34,2.52-1.54-.43-2.84-1.91-4-2.92-1.57-1.35-3.59-3-4.16-5.14-.88-3.28,2.79-5.5,5.37-6.44,1.75-.64,4-1.33,5.89-.9,2.26.52,2.26,2.44,1.88,4.47-.28,1.5-.71,3-.25,4.47.56,1.83,2,3.49,3.05,5,.18.25,1.2-.62,1-1Z"/><path class="cls-1" d="M91.44,187.74c-8.69-1.5,4.39-17.81-4.63-19-13.71-2.19-1.25,12.94-3.14,18.15"/><path class="cls-2" d="M91.92,187.2c-9.13-2.57,6.86-19.92-7.25-19.48C74,168,83.7,182.06,83,187.22c-.11.78,1.2-.33,1.32-.59,1.34-3-1-7.15-2-10-.54-1.57-1.75-4.28-1.13-5.95.81-2.18,5.72-1.8,7.25-.27,4.11,4.11-5.87,16.42,2.53,17.87.37.06,1.33-1,.94-1.08Z"/><path class="cls-1" d="M97.28,183c-1.69,3.38-5.23,3.51-8.73,3.48-6-.12-8-8-14.45-9.17-11.22-2.12-22.23,16.54-8.21,21.2,7.2,2.39,25.42,4.19,32.07-1.77,2.83-2.53,1-8.64-.13-13.18"/><path class="cls-2" d="M96.84,183.08c-1.87,2.78-7.11,3.47-10.07,2.24-2.1-.87-3.62-2.73-5.17-4.3-2.48-2.52-5.12-4.61-8.83-4.63-5.7,0-10.93,4.49-13.14,9.51-7.38,16.71,21.7,16.75,31,14.69,2.92-.65,6.59-1.84,8.43-4.41,2.61-3.64.46-9.32-.47-13.15-.14-.59-1.58.47-1.44,1,.68,2.81,2,6.28,1.61,9.2-.47,3.49-3.62,5-6.66,5.78a43,43,0,0,1-13.81.82c-6.83-.51-19.75-1.81-18-11.64a13.17,13.17,0,0,1,8.65-9.85c5-1.55,8.56,1.19,11.9,4.54,2.88,2.88,5.24,4.45,9.41,4.2,3.36-.2,5.92-1.32,7.57-4.33.36-.66-.81.08-1,.3Z"/><path class="cls-1" d="M137.26,170.63c6.41,3.5,5.09,15.85,4.6,22.49-1,11.8-15.61,17-23.5,9.4-6.41-6.27-1.15-18.25,5.26-21,3.62-1.66,6.41-1.29,10-1.84,4.11-.55,3.62-4.79,3.12-8.48"/><path class="cls-2" d="M136.68,171.17c6.55,4.22,5.06,15,4.47,21.61-.82,9.26-10.45,15.56-19.14,11.15-10.57-5.37-5.13-20.83,5-22.78,3-.57,7.17.18,9.44-2.33,2-2.21,1.38-5.44.84-8.07-.08-.39-1.16.49-1.14.87.08,1.37.51,3.26,0,4.56-1.23,3.42-4.57,2.87-7.15,3.21a16.77,16.77,0,0,0-6.76,2.18,17.07,17.07,0,0,0-6.61,8.48c-3.17,8.39,1.8,16.66,11,16.78a16,16,0,0,0,15.6-12.29,50.08,50.08,0,0,0,.58-13.41c-.31-4.18-1.26-8.72-5.11-11-.42-.25-1.45.88-1.15,1.07Z"/><path class="cls-1" d="M80.11,100.85c4.19-3.56,10.59,4.58,7.24,9.89-5.41,8.44-13.13-8.49-7.32-10.27"/><path class="cls-2" d="M80,101.27c3.14-1.87,6.15,1.28,7.12,4.14.79,2.33.14,8-3.52,6.77-2.05-.69-3.4-3.12-4.1-5-.47-1.27-1.64-5.23.27-5.91.63-.22,1.6-1.92.54-1.54-5.42,1.94-2.9,9.82.21,12.74a4.11,4.11,0,0,0,5.84.19,7.6,7.6,0,0,0,1.83-9.19c-1.5-3.13-5.27-5.7-8.26-2.79-.27.26-.61,1,.06.6Z"/><path class="cls-1" d="M63.38,103.15c-.92-.16-1.62-.91-2.48-1.26-1.52-.62-3.17-.49-4.65-1.34-2.87-1.67-3.73-6.17-1.8-9a5.58,5.58,0,0,1,6.31-2.34c3.6.87,7,4.75,10.39,6.55,3,1.63,7.17,3,9.6,5.57,6.9,7.57-1.86,11.73-9.75,15-4.77,2-14.66,5.26-18.9,1.74-1.81-1.5-3.29-3.27-2.82-5.74.6-3.1,6.59-3.34,9.12-3.47,2-.1,6.26-2.14,7.79-3.66Z"/><path class="cls-2" d="M63.87,102.59c-2-.8-4-1.41-6-2.16a5.82,5.82,0,0,1-3.78-5.77c.28-8.05,7.73-4.54,10.84-2.3a60.78,60.78,0,0,0,5.56,4c3.86,2.17,8.58,3.37,11,7.42,3.37,5.68-3.62,9-7.94,10.87-6,2.66-18.08,8-22.72.65-3.51-5.54,5.21-5.23,8-5.79a16.73,16.73,0,0,0,7.63-4c.1-.09.61-.64.37-.8l-2.93-2c-.29-.19-1.18.73-1,.91l2.71,2.19.54-.94c-4.06,3.33-8.08,2.72-12.74,3.91-2.49.63-5.06,2.14-5,5,.06,3.88,4.13,6.33,7.57,6.62,4.62.39,9.44-1.19,13.68-2.86,4.91-1.93,16.79-6.21,13.92-13.65-1.93-5-7.56-6.43-11.79-8.79-4.05-2.26-8.39-7.83-13.61-6.57a7.33,7.33,0,0,0-5.37,7,6.49,6.49,0,0,0,2.88,5.61,13.66,13.66,0,0,0,3.58,1c1.33.38,2.37,1.13,3.66,1.58C63.28,103.84,64.28,102.75,63.87,102.59Z"/><path class="cls-1" d="M97.33,182.35c-1.69,3.38-5.33,3-8.83,3-6-.12-8-8-14.45-9.17-11.22-2.12-22.23,16.54-8.21,21.19,7.2,2.39,25.42,4.19,32.07-1.77,2.83-2.53.5-8.7-.58-13.25"/><path class="cls-2" d="M96.89,182.44c-1.75,2.56-6.64,2.83-9.44,2-2.2-.64-3.77-2.38-5.32-3.95-2.59-2.63-5.15-5.09-9.06-5.24-5.8-.22-11.17,4.34-13.45,9.41-7.53,16.75,21.54,16.85,30.84,14.8,2.93-.64,6.67-1.83,8.5-4.43,2.58-3.67,0-9.42-.91-13.21-.15-.59-1.58.47-1.44,1,.69,2.76,1.68,5.55,1.88,8.4.28,4-3.17,5.79-6.49,6.64a43,43,0,0,1-13.81.82c-6.83-.51-19.75-1.81-18-11.64a13.17,13.17,0,0,1,8.65-9.85c5-1.55,8.56,1.19,11.9,4.54,2.93,2.94,5.22,4.32,9.42,4.25,3.38-.06,5.95-.84,7.66-3.89.37-.66-.81.08-1,.3Z"/><path class="cls-1" d="M136.36,169.75c7,3.63,5.49,16,4.82,22.6-.57,5.14-3.15,9.29-7.14,11.3-5.15,2.59-12.27,1.85-16.6-2.52-6.24-6.43-.67-18.27,5.81-20.87,3.66-1.56,6.44-1.12,10.07-1.58,4.12-.44,3.74-4.69,3.35-8.39"/><path class="cls-2" d="M135.78,170.29c6.43,3.91,5.5,13.4,4.9,19.83-.48,5.06-1.56,10.35-6.57,12.89a14.29,14.29,0,0,1-15.16-1.82c-3.62-3.05-4.09-7.88-2.61-12.15,2.06-6,6.55-8.78,12.7-9.28,2.71-.22,5.88.1,7.62-2.43,1.49-2.17,1-5.06.57-7.47-.07-.39-1.15.49-1.14.87a18,18,0,0,1,0,3.68c-.57,3.22-3.57,3.57-6.15,3.78a19,19,0,0,0-7.36,1.73,16.45,16.45,0,0,0-6.85,7.35c-4.26,8.5-.11,17.59,9.75,18.56,8.78.86,15.31-5.46,16.44-13.86.93-7,2.29-18.62-5-22.75-.43-.24-1.45.89-1.15,1.07Z"/><path class="cls-1" d="M112.65,49.79c0-4.54-1.56-11.91-6.52-14.74C99.89,31.65,99,44.4,98.9,48.37c-.14,4.54,2.55,6.09,6.8,5.67,2.27-.28,6.66-1.84,6.94-4.54"/><path class="cls-2" d="M113.16,49.39c.16-4.79-1.89-15.28-8.31-15.57-3.9-.18-5.33,5-5.89,8-.74,3.88-2.26,11.13,2.76,12.69,3.59,1.11,11.13-.89,11.5-5.4,0-.37-1,.48-1.08.65-2.17,5.2-12,5.25-12.57-.84a28.46,28.46,0,0,1,1-8.91c.39-1.58,1-4.42,2.9-4.81s3.87,1.68,4.9,3c2.7,3.36,3.51,7.89,3.82,12.07,0,.27,1-.46,1-.8Z"/><path class="cls-1" d="M92.1,52.62c1.42-2.13,1.13-6.8.85-9.07-.14-1.84-1.13-8.79-3.26-9.5-3.83-1.28-5.53,6.24-5.81,8.36-.28,3-.71,6.52,2,8.65,1.28,1.13,4.68,1.7,6.09.57"/><path class="cls-2" d="M92.52,52.42c2.31-3.58,1.06-24.17-5.8-18C83.91,37,83.1,41.78,83,45.36c-.14,4.7,3.84,9.78,8.86,6.81.47-.28,1.2-1.62.19-1.08a5.5,5.5,0,0,1-6.33-1.38c-1.66-1.91-1.47-4.84-1.2-7.15.23-2.05,1.43-9,4.63-7.85,2.18.82,2.65,5.77,2.94,7.72.5,3.45.95,7.22-.45,10.5-.15.36.79-.37.88-.5Z"/><path class="cls-2" d="M100.18,39.3c2.41-.85,4.11,3,3.83,4.68-1,5-6.84,2.14-4-2.55"/><path class="cls-2" d="M99.76,39.76c1.59-.14,2.63,1.07,3.17,2.44.38,1,.75,2.79-.27,3.53-.71.52-1.77-.15-2.2-.73-.88-1.2-.33-2.56.14-3.79.29-.76-.77-.08-.95.14C98.54,42.7,98,45,99.25,46.43a2.7,2.7,0,0,0,3.82.09,4.46,4.46,0,0,0,1.39-4.95c-.57-1.67-2.09-3.68-4-2.68-.12.06-.91.89-.65.87Z"/><path class="cls-2" d="M84.87,38.31c2.13-.14,3.4,3.54,2.83,5-1.28,2.83-4.71.58-3.54-1.13"/><path class="cls-2" d="M84.44,38.79c1.75.24,2.75,2.57,2.69,4.14,0,.95-.73,1.19-1.53.77a1.53,1.53,0,0,1-.8-1.92c.18-.54-.76,0-.86.11A1.84,1.84,0,0,0,84.17,45a2.76,2.76,0,0,0,3.53-.85,3.7,3.7,0,0,0,.49-3.91c-.49-1.31-1.44-2.6-3-2.37-.23,0-1.07.91-.77.95Z"/><path class="cls-2" d="M103.72,68c-1.42-.25-3.26.37-4.68.5a39.85,39.85,0,0,1-6.66.12,21.77,21.77,0,0,1-5-1c-2.13-.62-3.4-2-5.24-2.86-1.84,4.84-2.69,10.31.28,15.15,5.1,8.44,15.59-6.33,18-10.06.14-.37.28-.62.43-1"/><path class="cls-2" d="M104.16,67.54c-3.72-.39-7.46.73-11.26.37-4-.38-6.64-2.05-10.15-3.81-.44-.22-1.17.57-1.28.92-1.66,5.14-2.92,11.48.8,16.13,1.66,2.08,3.89,2.4,6.29,1.4,5.18-2.15,11-8.7,13-13.87.35-.9-1.08,0-1.27.44-2,4.3-6.56,10-10.91,12.07-2.62,1.24-4.71.56-6.28-1.81-2.91-4.4-2-10.2-.19-14.8l-1.28.92c3.23,1.84,5.8,3.41,9.64,3.79,4.14.41,8-.68,12-.77.33,0,1.19-1,.89-1Z"/><path class="cls-1" d="M92.24,65c-2.69-.28-6.46-.29-8-2.41"/><path class="cls-2" d="M92.73,64.39c-2.82-.31-5.79-.29-8-2.34-.27-.25-1.25.66-1.05,1,1.52,2.46,5.55,2.27,8.05,2.49.44,0,1.34-1.09,1-1.13Z"/><path class="cls-2" d="M92.25,78.5c.49,0,1.55-1.3.83-1.3-.49,0-1.55,1.3-.83,1.3Z"/><path class="cls-1" d="M93.23,78.84a5.46,5.46,0,0,0-5.87-.56c-1.66-1.68-8.32-4.12-5.49.46a6.6,6.6,0,0,0,9.87,1.68Z"/><path class="cls-2" d="M93.78,78.33a6.35,6.35,0,0,0-2.85-1.25,18.45,18.45,0,0,0-2.63.28c-1,0-2.09-1-3.16-1.39-1.51-.59-4.23-1.06-4.67,1.19-.6,3,4.09,5.46,6.48,5.54,3.05.1,4.82-1.62,6.6-3.78.54-.66,0-.71-.52-.26a11.39,11.39,0,0,1-2.64,2.1,6.25,6.25,0,0,1-6.86-1.46A4.73,4.73,0,0,1,82,76.78c0-.21-.51,0,.05,0a4.51,4.51,0,0,1,1.05.2,8.82,8.82,0,0,1,3.64,1.88c.16.15.4,0,.56,0a5.69,5.69,0,0,1,5.41.51C93.06,79.57,94.06,78.53,93.78,78.33Z"/><path class="cls-1" d="M86.15,87.39c-1.51-.47-4,1.61-4.44,2.93"/><path class="cls-2" d="M86.6,86.88A4.11,4.11,0,0,0,83.32,88c-.77.59-2.06,1.67-2.12,2.73,0,.34.84-.43.89-.49C83,89.12,84,87.52,85.69,87.9c.36.08,1.23-.94.9-1Z"/><path class="cls-1" d="M76.7,69.91c-2,3.5-2,6.61-2,10.68"/><path class="cls-2" d="M76.37,70.09c-2,3.42-2.08,6.95-2.06,10.82,0,.1.8-.37.8-.65,0-3.73.26-7.21,2-10.61.1-.21-.61.3-.69.44Z"/><path class="cls-1" d="M145.48,80.31c.71-3.78-4.63-6.33-6.8-7.56"/><path class="cls-2" d="M146,79.93c.67-3.93-3.95-6.14-6.81-7.62-.3-.16-1.1.76-.93.86,2.69,1.63,7.21,3.7,6.79,7.5,0,.15.89-.42.95-.75Z"/><path class="cls-1" d="M83.31,97.41c-.57-.85-1.13-1.42-1.7-2.27"/><path class="cls-2" d="M83.81,96.94c-.53-.78-1.16-1.49-1.72-2.25-.16-.21-1.13.61-1,.89.5.8,1.15,1.5,1.68,2.29.16.23,1.21-.62,1-.93Z"/><path class="cls-1" d="M106,84.94c-4.25,2.93-10.2,5.1-15.31,4.82"/><path class="cls-2" d="M106.11,84.6a27.19,27.19,0,0,1-15,4.7c-.32,0-1,.89-.82.9,5.54.34,11.06-1.91,15.6-4.93.26-.18.9-1.11.24-.67Z"/><path class="cls-1" d="M95.78,11a27.52,27.52,0,0,0-10.49,2"/><path class="cls-2" d="M96.13,10.58a29.1,29.1,0,0,0-10.53,2c-.24.09-.88.9-.62.8a31.84,31.84,0,0,1,10.45-2c.28,0,.79-.75.7-.75Z"/><path class="cls-1" d="M89.11,185.44c1.15.25,2,3.54,1,4.68-2.14,2.73-7.37,4-10.94,4.51-6,.76-14-.44-19.15-4.71"/><path class="cls-2" d="M88.67,185.85c6.13,5.54-8.78,8.23-12.08,8.28a25.25,25.25,0,0,1-15.91-4.87c-.55-.43-1.9.94-1.41,1.32,6.2,4.88,14.88,6,22.43,4.2,2.84-.66,6.13-1.68,8.18-3.9,1.4-1.52,2.16-5-.37-5.87-.21-.08-1,.68-.83.84Z"/><path class="cls-1" d="M136.12,177.82c9.64,10.49-4.82,30.9-19.84,20.69"/><path class="cls-2" d="M135.54,178.36c4.22,5,3.7,12.1-.32,17.12-5,6.28-11.94,5.64-18.4,2.38-.4-.2-1.57.94-1.18,1.24,13.08,10.4,31.93-9.4,21.06-21.82-.28-.32-1.45.73-1.15,1.08Z"/><path class="cls-1" d="M67.78,31.55C67,32.3,66.27,31,65.51,30c-1.51-1.7-2.08-4.16-3.59-5.86-1.7-2.08-2.27-4-4.91-4.91C52.47,17.56,47,20,45.67,23c-1.39,3.18-2.08,6,2.83,7,2.08.38,7.37,1.13,7.75.38"/><path class="cls-2" d="M68.17,31.13c-2.45,0-4.29-5.8-5.54-7.61-1.51-2.18-2.88-4.36-5.53-5.18-4-1.24-9.31.33-11.68,3.92-1.95,2.94-2.56,6.93,1.35,8.28,2.34.81,8.09,2.22,9.91,0,.35-.43.33-1-.33-.65-1.75.81-6-.29-7.77-.76-6.27-1.69-1.4-8.42,2.8-9.4,4.8-1.11,7.32,1.71,9.84,5.12C63,27.19,64,30.93,66.68,32.4c.16.09.5-.13.61-.22l.49-.4s.63-.65.39-.65Z"/></svg>