<svg id="Icons" xmlns="http://www.w3.org/2000/svg" viewBox="0 0 158.27 280"><defs><style>.cls-1{fill:#10069f;}.cls-2{fill:#050050;}</style></defs><title>og-chat</title><path class="cls-1" d="M95.24,135.31c6.15-7.13,18.36-25.35,22.31-30.48C121.67,99.17,124,92.41,128,86.74A85.28,85.28,0,0,0,132.26,79c1.93-3.66,2.36-5.67-.81-8.64-1.4-1.2-2.8-2.85-4.7-2.55l-4.21,1.57c-.17,2.16-2.5,4-3.46,5.85a83.71,83.71,0,0,1-4.62,8.48A55.49,55.49,0,0,1,107,92.14c-2.8,2.64-4.77,5.2-8.18,7-2,1.07-5.06,3.68-7.36,3.5"/><path class="cls-2" d="M95.74,135.34c7.27-8.09,13.31-17.21,19.67-26a102.86,102.86,0,0,0,8.05-12.48c3.53-6.74,9-13.48,11.38-20.77,1.28-4-1.81-9.16-6.17-9.64-2.18-.24-5.54,1.19-7.08,2.74S119,73.5,117.84,75.4c-2.15,3.6-3.59,7.41-6.3,10.7a85.88,85.88,0,0,1-8.47,8.69c-2.38,2.17-7.24,6.05-10.67,6.32-1.12.09-3.5,3.11-1.91,3,3.44-.27,6.68-2.73,9.47-4.56,3.72-2.43,6.78-5.87,9.88-9a46.09,46.09,0,0,0,7.66-9.89c2.15-3.85,5.46-7.79,6.59-12.07l-2.16,2.26c2.89-1.08,4.24-2.21,7,0,5.15,4.08,2.28,8.29-.39,13-4.14,7.36-8.11,15.33-13,22.16-7.05,9.78-13.45,20.13-21,29.54-1,1.24.82.25,1.22-.2Z"/><path class="cls-1" d="M129.65,70.81c12.3-.65,26.46-14.23,18.94-27.49-1.4-3-6.28-8.26-10.44-7.37-5.41,1.2-3.78,6.44-6.1,9.93-2.35,3.9-4.58,1.06-7.34,4.93-1.38,1.93-2.34,8.8-2.53,11.23-.16,2,1.27,4.59,1.51,6.66"/><path class="cls-2" d="M129.19,71.51c8.62-.66,17.19-6.19,20.83-14.17,3.44-7.56.4-19.21-8.27-22a6.69,6.69,0,0,0-7.68,2.71,11.21,11.21,0,0,0-1.31,3.41c-1,3.52-2.91,5.05-6,6.68-2.62,1.39-3.66,4-4.33,6.72a39.76,39.76,0,0,0-1.14,6.85c-.17,2.72.91,5,1.45,7.61.18.87,2.07-.48,1.9-1.31-.72-3.49-1.63-6.24-1.09-9.84a25.9,25.9,0,0,1,1-5.15c.86-2.28,2.93-3,4.76-4.14,4-2.54,3.61-5.15,5.48-9.11,3.18-6.74,9.59-.69,11.85,2.48a15.88,15.88,0,0,1,3,10.64c-1,9.59-10.63,16.29-19.6,17.16-.51,0-1.67,1.47-.93,1.41Z"/><path class="cls-1" d="M123.34,66.35a12.47,12.47,0,0,1-1.87-3.83c-1-2.67.94-5,.6-7.58s-2.79-5.94-4-8.21c-1.27-2.82-3-5.2-1.83-8.24,2-4.88,9.41-4.77,9.63,1,.07,2.59.74,9.45,4.92,8.29"/><path class="cls-2" d="M123.92,65.81c-2-3.87-1.36-5.66-1-9.76a9.45,9.45,0,0,0-1.31-5.26c-1-2.06-2.3-4-3.3-6a9.09,9.09,0,0,1-1.36-3.94c0-2.12,2.89-5.5,5.4-4.76,5.14,1.53.71,13.56,8,12.47.58-.09,1.78-1.66,1-1.54-5.92.84-3.12-9-6.08-11.65-2.31-2.07-5.83-1.11-7.89.79-3.63,3.36-2,7.53,0,11.35s4,6.37,3.56,10.95c-.37,3.54-.36,5.5,1.88,8.48.22.29,1.36-.72,1.17-1.09Z"/><path class="cls-1" d="M135.11,69.32c1.15-.73,5.13.15,6.26-.3a12.74,12.74,0,0,0,7-6.25c.77-1.16,1-2.51,2.31-3.36,1.72-1.09,3.18-.56,4.44-2.78a30.74,30.74,0,0,0,2.3-8.39c.47-4.18-.84-10-6.58-8-4.75,1.53-2.76,9-6.67,12"/><path class="cls-2" d="M134.74,69.81c2.92-.66,5.1.55,7.88-.8A14.53,14.53,0,0,0,148.26,64a18.6,18.6,0,0,1,5.07-5,12.7,12.7,0,0,0,1.52-1.12c2-2,2.72-5.89,3.18-8.6.69-4,.22-10.9-5.5-10.07-6.89,1-4.81,8.88-8.66,12.73-.89.89-.28,1.55.67.72,2.39-2.06,2.53-4.54,3.54-7.33.81-2.24,4.35-5.62,6.85-3.69a5.16,5.16,0,0,1,1.45,2.73,14.86,14.86,0,0,1-.21,7.2c-.73,3.34-1.72,5-4.35,6.81a9.84,9.84,0,0,0-2.74,2.17c-2.54,3.31-3.11,7.57-8.78,8-1.75.12-3.29-.3-4.93.45-.19.09-1.06,1-.63.94Z"/><path class="cls-1" d="M142.29,38.73c-1-3.34-9.34-11-12.19-5.87-1.57,2.6,1.31,5.82,1.91,8.46.37,2.21,0,7.35-3.06,7.65"/><path class="cls-2" d="M142.89,38.27c-1-3.84-7.07-9.58-11.33-7.46a5,5,0,0,0-2.66,5.29c.34,2,1.68,3.56,2.14,5.46s.43,5.89-1.8,6.82c-.24.1-1.44,1.24-.72,1.22,4.85-.15,5-7.6,3.66-10.77-.67-1.56-3.45-6,0-6.85,1.3-.33,3.28.88,4.27,1.54a14.83,14.83,0,0,1,5.26,5.75c.11.26,1.27-.65,1.17-1Z"/><path class="cls-1" d="M150.3,40.6c1.87-4.62-8-10.44-9.27-5-1,3.6-.72,10.7-3.81,13.58"/><path class="cls-2" d="M150.85,40.25c1.63-4.09-4.14-8.87-8-7.32-2,.81-2.62,2.83-3,4.8-.67,3.87-.6,8.13-3.15,11.34-.75.94.14,1.12.85.51,3.57-3.1,3.25-8.78,4-13,.26-1.44.64-2.55,2.35-2.32A7.08,7.08,0,0,1,147,35.57c1.67,1.2,3.31,3.19,2.77,5.37-.11.46,1-.43,1.09-.7Z"/><path class="cls-1" d="M135.63,55.63c-4.47-.22-8.31,5.19-8.62,9.11"/><path class="cls-2" d="M136.59,54.56c-2.84-.2-5.36,1.59-7.22,3.58s-3.72,4.84-3.57,7.53c0,.81,2.26-1.19,2.39-1.66.9-3.43,2.39-7.1,6.48-7.32.7,0,2.48-2.09,1.92-2.13Z"/><path class="cls-1" d="M133.91,75.5c-3.44.59-7-.83-10-2.7-1.82-1.1-5.6-4.94-3.1-7.19s4.68,1.75,8.6,3.14c3.14,1.11,8.09.13,8.17,2.59C137.57,71.34,138.63,74.69,133.91,75.5Z"/><path class="cls-2" d="M134.36,74.82a14.89,14.89,0,0,1-11.64-4.43,6.22,6.22,0,0,1-1.27-1.77c-.35-.85-.62-2.42.86-2.64,1-.15,3,1.84,3.82,2.37,2.49,1.58,4.79,1.65,7.6,2,3.63.5,3.83,2.91.47,4.47-.24.11-1.58,1.35-.75,1.33,2.68-.06,5.85-2.45,5.05-5.47-.47-1.78-2.08-1.93-3.72-2.13a20,20,0,0,1-9.23-3.41c-1.59-1-3-1.52-4.63-.39a3.83,3.83,0,0,0-1.77,3.85c1.07,5.53,9.64,8.22,14.3,7.55C133.91,76.12,135.09,74.75,134.36,74.82Z"/><path class="cls-1" d="M16.88,259.29c-1.67,4.48,1.89,6.47,4.2,9.55s4.29,5.57,7.82,7C32,277.2,37.09,279,41.18,279a35.38,35.38,0,0,0,12.95-2.19c5.11-1.95,6-3.23,6-7s-3-5.74-7.37-5.24"/><path class="cls-2" d="M41.14,280c-4.12,0-9.14-1.74-12.63-3.2-3.68-1.54-5.82-4.13-8.23-7.36-.5-.67-1.09-1.31-1.66-1.93-2-2.13-4.17-4.55-2.68-8.56l1.86.69c-1.07,2.87.33,4.4,2.28,6.53a27.15,27.15,0,0,1,1.78,2.09c2.3,3.08,4.18,5.37,7.4,6.72s8.08,3,11.87,3h0a34.62,34.62,0,0,0,12.59-2.13c4.83-1.84,5.35-2.85,5.34-6a4,4,0,0,0-1.28-3.12,6.35,6.35,0,0,0-5-1.14l-.23-2a8.29,8.29,0,0,1,6.53,1.62,6,6,0,0,1,1.94,4.6c0,4.32-1.28,5.87-6.61,7.9A36.54,36.54,0,0,1,41.18,280Z"/><path class="cls-1" d="M62.16,253c.22,1-.52,2.06-.27,3.19a4,4,0,0,0,1.46,2c1.49,1.11,3.74,1.16,5.35,2.06a56.5,56.5,0,0,0,11.38,5.31c4,1.22,9.6,1.38,13.87,1.11,6.37-.4,9.34-1.36,13-3.38,2.64-1.44,3.17-1.74,4.42-3.55s.41-2,.4-4.24c0-3.15-2.76-5.91-5.2-7.68a23.14,23.14,0,0,0-15.11-4.15c-1.7.09-3.24.92-4.92,1.07a31.86,31.86,0,0,0-5.35.93,59.25,59.25,0,0,0-8.06,2.52,37.58,37.58,0,0,0-4.9,2.26c-1.11.68-2.27,2-3.59,2.12"/><path class="cls-2" d="M90.35,267.85a38.57,38.57,0,0,1-10.56-1.27,55.23,55.23,0,0,1-11.13-5.15l-.45-.25a10.09,10.09,0,0,0-2.2-.78,9.52,9.52,0,0,1-3.26-1.35,5,5,0,0,1-1.84-2.61,4.72,4.72,0,0,1,.14-2.16,2.76,2.76,0,0,0,.13-1l1.94-.45a4.14,4.14,0,0,1-.13,1.93,2.1,2.1,0,0,0,.95,2.71,8,8,0,0,0,2.6,1,11.68,11.68,0,0,1,2.64,1l.45.25a52.92,52.92,0,0,0,10.73,5,41.85,41.85,0,0,0,13.52,1.07c6.39-.4,9.16-1.37,12.62-3.26,2.55-1.39,2.94-1.61,4.08-3.25a1.78,1.78,0,0,0,.42-1.82,9.8,9.8,0,0,1-.2-1.85c0-3-3-5.59-4.79-6.88a22.29,22.29,0,0,0-14.47-4,10.58,10.58,0,0,0-2.36.51,13.26,13.26,0,0,1-2.52.56,30.68,30.68,0,0,0-5.19.9l-.66.17a53.11,53.11,0,0,0-7.27,2.3l-1.2.5a25,25,0,0,0-3.57,1.7,11.19,11.19,0,0,0-1,.7,6.25,6.25,0,0,1-3,1.56l-.21-2a4.86,4.86,0,0,0,2-1.15,12.8,12.8,0,0,1,1.15-.83,26.83,26.83,0,0,1,3.85-1.84l1.17-.49A54.69,54.69,0,0,1,80.33,245l.66-.17a32.82,32.82,0,0,1,5.52-1,11.42,11.42,0,0,0,2.15-.49,12.17,12.17,0,0,1,2.81-.59,24.19,24.19,0,0,1,15.75,4.34c2.08,1.51,5.58,4.62,5.61,8.48a8,8,0,0,0,.16,1.51,3.64,3.64,0,0,1-.74,3.31c-1.41,2-2.12,2.41-4.76,3.85-3.64,2-6.73,3.07-13.45,3.49C93.16,267.79,91.87,267.85,90.35,267.85Z"/><path class="cls-1" d="M57.11,167.67a92.76,92.76,0,0,1,6.78,17.93c1.54,5.85,1.82,11.76,2.76,17.94s.88,12.2,1.22,18.7c.16,3.2,0,6.93,2.68,9.26s6.61,3.42,8.39-.1c1.3-2.58.22-6.8.08-9.56-.17-3.25.67-6.15.81-9.15.3-6.5.4-12.82,1.59-19.13a130.1,130.1,0,0,1,12-35.44c2.6-5.07,6.86-9.56,9.16-14.66,2.16-4.78-.75-5.41-5.25-7.25-3.91-1.59-7.42-3.31-11.64-3.6-4-.28-7.89,1-11.88.8"/><path class="cls-2" d="M75.44,234.67a8.73,8.73,0,0,1-5.56-2.42c-2.69-2.39-2.84-5.91-3-9l0-.94c-.09-1.77-.15-3.51-.22-5.24a116.52,116.52,0,0,0-1-13.36c-.32-2.07-.56-4.13-.79-6.12a84.52,84.52,0,0,0-1.94-11.71,91.9,91.9,0,0,0-6.71-17.75l1.78-.88a93.78,93.78,0,0,1,6.85,18.12,85.93,85.93,0,0,1,2,12c.23,2,.47,4,.79,6.05a117.89,117.89,0,0,1,1,13.59c.06,1.71.13,3.45.22,5.21l0,1c.12,2.84.24,5.79,2.3,7.61,1.6,1.41,3.44,2.13,4.83,1.87a2.82,2.82,0,0,0,2-1.67c.83-1.64.51-4.28.22-6.61-.11-.87-.21-1.7-.25-2.44a29.16,29.16,0,0,1,.42-5.72c.17-1.21.33-2.36.39-3.53q.06-1.4.12-2.79a112.55,112.55,0,0,1,1.49-16.48,131.63,131.63,0,0,1,12.12-35.71,60,60,0,0,1,4.4-6.91,48.42,48.42,0,0,0,4.74-7.7c.61-1.36.78-2.34.52-3-.41-1-2-1.65-4.12-2.48L97,137.14l-1.65-.68c-3.2-1.34-6.23-2.61-9.69-2.85a29.12,29.12,0,0,0-5.89.39,32.1,32.1,0,0,1-6,.42l.1-2a29.72,29.72,0,0,0,5.6-.4,31.46,31.46,0,0,1,6.29-.4c3.79.26,7,1.59,10.32,3l1.63.68,1.1.44c2.52,1,4.5,1.79,5.23,3.58.49,1.2.31,2.65-.55,4.56a50.82,50.82,0,0,1-4.92,8,58.61,58.61,0,0,0-4.26,6.68,129.65,129.65,0,0,0-11.94,35.17,111.15,111.15,0,0,0-1.46,16.2q-.06,1.39-.12,2.79c-.06,1.26-.23,2.51-.41,3.72a27.56,27.56,0,0,0-.4,5.34c0,.68.13,1.47.23,2.31.32,2.61.68,5.57-.42,7.75a4.81,4.81,0,0,1-3.42,2.73A5.14,5.14,0,0,1,75.44,234.67Z"/><path class="cls-1" d="M67.07,235c-5.19,2.44-6.68,11.7-6,16.73,1,6.88,6.69,6.08,11.66,9.05,9.07,5.41,28,6.84,37.33-1.88,4.24-4,1.53-7.52,1.59-13.14.08-6.84-5.13-7.62-11.24-10.67S88.7,235.2,83,236.69c-3,.78-5.22,1.44-8.36.69-2.93-.7-5.47-3-8.39-1.59"/><path class="cls-2" d="M91.08,266.14c-7.23,0-14.33-1.82-18.84-4.51a23.69,23.69,0,0,0-4.37-1.88c-3.45-1.22-7-2.47-7.77-7.88-.67-4.81.56-15,6.54-17.77l.2.43c2-.52,3.88.27,5.54,1a16.19,16.19,0,0,0,2.5.91c2.78.67,4.78.14,7.54-.59l.34-.09c1.16-.3,2.34-.69,3.49-1.06,4.64-1.5,9.44-3.06,14.62-.48,1.09.54,2.15,1,3.18,1.47,4.66,2.07,8.69,3.85,8.62,10.1a26,26,0,0,0,.43,4.5c.51,3.22,1,6.26-2.34,9.36C105.76,264.29,98.36,266.14,91.08,266.14Zm-24.5-29.7c-3.74,2.73-5.17,10.37-4.5,15.15.59,4.21,3.05,5.08,6.46,6.28a25.27,25.27,0,0,1,4.73,2.05c8.32,5,27,6.8,36.15-1.76,2.55-2.39,2.23-4.46,1.73-7.6a28,28,0,0,1-.46-4.83c.06-4.94-2.92-6.26-7.44-8.26-1-.46-2.13-.94-3.26-1.51-4.45-2.22-8.66-.85-13.12.59-1.18.38-2.39.77-3.6,1.09l-.34.09c-2.81.74-5.23,1.39-8.51.6a17.66,17.66,0,0,1-2.82-1c-1.77-.76-3.31-1.41-4.91-.65Z"/><path class="cls-1" d="M68.66,238.84c-1.48-2-2.76-5.29-3.88-7.53-1.46-2.93-2.53-4.19.2-7.18,3.8-4.16,11.15-5.47,16.43-5.47,3.09,0,5.12.4,6.67,3.27,2.26,4.18,1.4,9.44-1.49,11.07-4.82,2.73-9.2,1.85-14.24,4.08-1.66.74-.33.95-2.09,1.5Z"/><path class="cls-2" d="M68.22,239.92l-.36-.49a34.17,34.17,0,0,1-3-5.57c-.35-.75-.68-1.47-1-2.11l-.37-.73c-1.29-2.52-2.23-4.33.73-7.57,4.91-5.37,14.35-5.79,17.15-5.79h0c3,0,5.65.29,7.55,3.79,2.46,4.55,1.56,10.46-1.88,12.41a22.71,22.71,0,0,1-7.93,2.44A25.75,25.75,0,0,0,72.75,238a1.76,1.76,0,0,0-.49.27c-.27.64-.7,1-1.71,1.26l-.13,0Zm13.17-20.27c-5.31,0-12.21,1.35-15.68,5.15-2,2.21-1.65,2.93-.43,5.32l.38.75c.33.65.67,1.39,1,2.17a39.17,39.17,0,0,0,2.43,4.73l.9-.15a3,3,0,0,0,.43-.16,2.53,2.53,0,0,1,1.49-1.27,27.34,27.34,0,0,1,6.87-1.83,20.82,20.82,0,0,0,7.29-2.21c2.26-1.28,3.23-5.81,1.11-9.74-1.28-2.36-2.75-2.74-5.8-2.74Z"/><path class="cls-1" d="M72.11,238c-3.05,4.65.13,11.3,3.82,14.77,4.58,4.31,12.12,4.85,18.22,4.48,5.06-.31,12.81-1.72,15.46-6.86,2.77-5.36.12-12.55-3.8-16.33-4.91-4.74-10.9-6.35-17.64-5.89C78.62,228.88,72.11,238,72.11,238Z"/><path class="cls-2" d="M91.09,258.39c-7.1,0-12.41-1.63-15.84-4.85-5.82-5.48-6.39-12.35-4-16l0,0c.28-.39,6.89-9.55,16.81-10.24,7.54-.52,13.56,1.49,18.39,6.16,4.27,4.13,6.93,11.8,4,17.5S99,258,94.21,258.29C93.14,258.35,92.09,258.39,91.09,258.39ZM72.93,238.61c-2.79,4.28.47,10.46,3.68,13.48,3.49,3.29,9.37,4.71,17.48,4.21,3.53-.21,12-1.26,14.63-6.32,2.52-4.88.15-11.54-3.6-15.16-4.41-4.26-9.92-6.1-16.88-5.61C79.42,229.82,73.21,238.23,72.93,238.61Z"/><path class="cls-1" d="M32,146.7c.54,2.58,0,5.31.27,8,.19,1.92.88,3.9,1.08,5.83a38,38,0,0,1-1,13.08c-2,8.21-2.64,16.9-4.31,25.17-1.57,7.74-2.73,15.83-3.92,23.63-.64,4.19-1.16,8.18-2.17,12.22-1,3.82-2.75,8.69-2.1,12.7,3.57,1.24,9,.4,12.72,0C36,247,36,245.81,36.2,242.5c.21-4.39.21-9,1.18-13.22,2.24-9.7,7-19.48,10.76-28.67,4.09-10.09,8.24-20.18,14.21-29.42a142.15,142.15,0,0,1,8.49-12.27c2.73-3.38,4.57-4.66-.57-6.64-3.45-1.33-7.35-1.39-10.92-2.4-3.39-1-6.18-1.9-9.76-1.39-4.3.62-6.53,4.18-10.35,4.83-.55-1.46-2-2.34-2.44-3.69"/><path class="cls-2" d="M24.7,248.94a16.07,16.07,0,0,1-5.19-.71L19,248l-.1-.59c-.56-3.44.53-7.34,1.49-10.77.22-.81.44-1.59.63-2.33.84-3.33,1.33-6.62,1.84-10.09l.82-5.4c1-6.72,2.07-13.66,3.42-20.31.73-3.6,1.28-7.36,1.81-11,.69-4.7,1.4-9.56,2.51-14.21a37,37,0,0,0,1-12.76,23.6,23.6,0,0,0-.52-2.8,25.35,25.35,0,0,1-.56-3,27.58,27.58,0,0,1-.05-3.55,18.59,18.59,0,0,0-.2-4.31l1.94-.41a20.29,20.29,0,0,1,.24,4.77,25.79,25.79,0,0,0,0,3.3,23.71,23.71,0,0,0,.52,2.79,25.06,25.06,0,0,1,.56,3,38.91,38.91,0,0,1-1,13.41c-1.09,4.57-1.79,9.38-2.47,14-.53,3.66-1.09,7.45-1.83,11.1-1.34,6.6-2.39,13.52-3.4,20.22l-.82,5.39c-.53,3.53-1,6.86-1.88,10.29-.19.76-.41,1.55-.64,2.38-.84,3-1.79,6.43-1.52,9.32,2.84.76,6.81.33,10,0l1.68-.17c2.57-.24,2.59-.58,2.74-3.76v-.13c0-.8.07-1.61.1-2.42a59.42,59.42,0,0,1,1.1-11c1.71-7.42,4.88-14.84,7.95-22,1-2.35,1.95-4.57,2.86-6.8,3.81-9.39,8.12-20,14.3-29.59l.7-1.08a129.78,129.78,0,0,1,7.85-11.27l.81-1c.86-1,1.76-2.11,1.65-2.54,0-.19-.4-.72-2.61-1.57a30,30,0,0,0-6-1.4,43,43,0,0,1-4.82-1l-.84-.24c-2.92-.84-5.44-1.56-8.51-1.12a12.27,12.27,0,0,0-5.14,2.37,13.27,13.27,0,0,1-5.19,2.45l-.81.14-.29-.77a5.76,5.76,0,0,0-1.08-1.6,6.62,6.62,0,0,1-1.37-2.12l1.88-.64a5.12,5.12,0,0,0,1,1.48,10.34,10.34,0,0,1,1,1.39,13.82,13.82,0,0,0,3.71-2,14,14,0,0,1,6-2.69c3.49-.5,6.2.28,9.34,1.18l.83.24a41.36,41.36,0,0,0,4.6.93,32,32,0,0,1,6.42,1.51c2.41.93,3.52,1.78,3.82,2.93.37,1.42-.64,2.63-2,4.31l-.79,1a127.81,127.81,0,0,0-7.73,11.1l-.7,1.08c-6.08,9.4-10.35,19.95-14.13,29.26-.91,2.25-1.91,4.58-2.87,6.84-3,7.1-6.16,14.44-7.84,21.69a57.87,57.87,0,0,0-1.05,10.6c0,.82-.06,1.63-.1,2.44v.13c-.16,3.27-.25,5.24-4.54,5.65L31,248.5A60.45,60.45,0,0,1,24.7,248.94Z"/><path class="cls-1" d="M19.27,247.07c-.72-.53,1.06-1.05,1.92-1.8a10.59,10.59,0,0,0,2.12-2.38c1-1.72,1.46-3.25.4-5.1s-3.42-2.08-4.44-3.51c-1.33-1.86-.33-4,1.06-5.53,5.45-6.09,16.23-6.7,23.57-4.71,3.84,1,7.13,4.42,4.91,8.51-.94,1.74-2.76,2.91-3.58,4.7-1,2.09-.67,4.31-1.32,6.37-1.41,4.45-6.55,8.59-11.37,8-4.31-.56-6.25-4.07-10.62-4.51a16.46,16.46,0,0,0-3.37-.27c.24,0,.48,0,.72,0"/><path class="cls-2" d="M33.54,252.64a8.82,8.82,0,0,1-1.12-.07,13.17,13.17,0,0,1-5.62-2.4,11.07,11.07,0,0,0-5-2.11l-1-.13a12.25,12.25,0,0,0-1.59-.16v0h-.5l-.05.07-.09-.07,0,0a1.26,1.26,0,0,1-.44-1,1.3,1.3,0,0,1,.35-.81v-.11h.12a5.47,5.47,0,0,1,1-.7,6.44,6.44,0,0,0,.92-.59,9.45,9.45,0,0,0,1.91-2.13c1-1.8,1.13-2.84.4-4.12a5,5,0,0,0-2-1.63,6.59,6.59,0,0,1-2.33-1.8c-1.39-1.95-1-4.41,1.13-6.77,5.51-6.16,16.53-7.18,24.57-5a8.74,8.74,0,0,1,5.9,4.61,6,6,0,0,1-.38,5.34,12.22,12.22,0,0,1-1.86,2.4,9.24,9.24,0,0,0-1.69,2.24,10.62,10.62,0,0,0-.74,3.33,15.18,15.18,0,0,1-.53,2.92C43.48,248.26,38.64,252.64,33.54,252.64ZM21.8,246.06l.22,0a12.82,12.82,0,0,1,5.85,2.42,11.42,11.42,0,0,0,4.8,2.1c4.39.56,9.05-3.38,10.29-7.29a13.53,13.53,0,0,0,.45-2.55,12.31,12.31,0,0,1,.91-3.94,10.86,10.86,0,0,1,2-2.75,10.55,10.55,0,0,0,1.58-2,4,4,0,0,0,.3-3.6A6.85,6.85,0,0,0,43.65,225c-7.45-2-17.59-1.14-22.57,4.42-.84.94-2.09,2.75-1,4.29a5.15,5.15,0,0,0,1.68,1.22,6.61,6.61,0,0,1,2.81,2.38c1.35,2.37.61,4.32-.4,6.09A11.4,11.4,0,0,1,21.85,246Z"/><path class="cls-1" d="M18.74,245.35c-1.73,2-2.18,7-2.39,11-.27,5.2,1.17,6.64,4.44,9.63,1.76,1.61,5,6.13,6.71,7.1,3.92,2.17,6.74,3.59,11.15,4s13.37-.78,17.26-3.19c3.57-2.21,3.31-2.07,4.45-6.11,2.7-9.61-.79-21-10.82-24.43-5.72-2-10.09-1.05-15.87-.74C31,242.77,20.46,243.36,18.74,245.35Z"/><path class="cls-2" d="M40.55,278.15c-.73,0-1.4,0-2-.08C34,277.66,31,276.18,27,274c-1.21-.67-2.75-2.5-4.38-4.43a34.62,34.62,0,0,0-2.52-2.8c-3.42-3.13-5.06-4.87-4.76-10.41.24-4.52.74-9.43,2.63-11.62h0c.5-.58,2-2.33,15.63-3.07,1.11-.06,2.17-.14,3.2-.23,4.42-.35,8.24-.65,13.05,1,8.24,2.86,15.06,12.81,11.45,25.64l-.21.76c-1,3.52-1.15,3.75-4.67,5.92C52.76,277,45.35,278.15,40.55,278.15Zm1.37-35c-1.62,0-3.23.13-4.95.26-1,.08-2.12.17-3.25.23-12.15.66-14,2.1-14.23,2.39h0c-1.7,2-2,8.11-2.15,10.42-.26,4.85,1,6,4.12,8.84a35.45,35.45,0,0,1,2.7,3,23,23,0,0,0,3.83,4c3.89,2.15,6.55,3.49,10.76,3.86,4.65.41,13.11-.85,16.65-3,3-1.85,3-1.85,3.8-4.76l.21-.77c2.44-8.7-.3-19.8-10.19-23.22A21.5,21.5,0,0,0,41.92,243.12Z"/><path class="cls-1" d="M21.13,253.71c-1.1-9.64,11.77-15.44,19.39-16.2,8.56-.85,14.51,4,17.33,11.95,1.25,3.55,2.64,7.85,2.6,11.68-.05,4.91-5.66,7.46-9.83,8.49-9.19,2.27-17.23,1.59-24.16-5.56C23.14,260.66,20.87,253.76,21.13,253.71Z"/><path class="cls-2" d="M42,271.79a21.51,21.51,0,0,1-16.27-7c-2.84-2.93-5.5-9.13-5.6-11a11.32,11.32,0,0,1,2.69-8.58c4-5,11.88-8.12,17.59-8.69,8.53-.84,15.23,3.75,18.36,12.61,1.4,4,2.7,8.17,2.65,12-.07,6.18-7.43,8.66-10.59,9.44A36.94,36.94,0,0,1,42,271.79ZM22.16,254c.39,1.46,2.38,6.65,5,9.35,6,6.15,13.13,7.79,23.21,5.29,2.12-.52,9-2.61,9.08-7.54,0-3.54-1.2-7.54-2.54-11.34-2.84-8-8.62-12.06-16.29-11.29-5.3.53-12.58,3.43-16.24,8a9.4,9.4,0,0,0-2.26,7.14Z"/><path class="cls-1" d="M40,41.53c-6.11,4.12-8.79,16.65-10.77,23.37-2.52,8.56-3.33,17.07-4.1,26-1.65,19.09-7.71,35-.68,53.64,3.14,8.32,6.44,14.75,15.55,17.66s18.77,4.44,28.15,2.52c7.82-1.6,17.66-3.73,24.43-8,5.73-3.58,10.45-12.35,12.76-18.58,6-16.08,4.1-33.61,1.45-51.26-1.26-8.36-4.75-16-5.18-24.7a120.29,120.29,0,0,0-4.13-24c-2.59-10-12.87-12.46-22.42-12.1-6,.22-26.88.86-29.21,6.37"/><path class="cls-2" d="M59.56,166.58a65.82,65.82,0,0,1-19.88-3.4c-9.77-3.12-13.11-10.11-16.18-18.25-5.25-13.93-3.33-26.33-1.3-39.46.73-4.7,1.48-9.57,1.92-14.62C25,81.08,25.81,73,28.26,64.62c.27-.91.55-1.92.85-3,2-7.23,4.73-17.14,10.32-20.91l1.11,1.65c-5,3.36-7.71,13.25-9.51,19.79-.3,1.09-.59,2.12-.85,3C27.76,73.34,26.94,81.37,26.1,91c-.44,5.12-1.2,10-1.93,14.75-2,12.86-3.87,25,1.19,38.46,2.88,7.65,6,14.21,14.92,17.06,10.33,3.3,19.63,4.14,27.65,2.5,8.69-1.78,17.72-3.84,24.1-7.83,5.42-3.39,10-11.86,12.36-18.08,5.93-16,3.94-33.84,1.39-50.77a90.68,90.68,0,0,0-2.36-10.22A68.3,68.3,0,0,1,100.6,62.3c-.34-6.9-1.61-14.24-4.1-23.82C93.77,28,81.9,26.87,75.07,27.13l-.46,0c-21.36.79-26.95,3.56-27.87,5.75l-1.83-.78c1.08-2.56,5.34-6.06,29.63-7l.46,0C87.82,24.66,96.14,29.22,98.42,38c2.53,9.71,3.81,17.18,4.16,24.22a66.77,66.77,0,0,0,2.76,14.16,92.08,92.08,0,0,1,2.41,10.44c2.59,17.19,4.6,35.35-1.5,51.76-2.53,6.83-7.33,15.42-13.17,19.07-6.67,4.17-15.89,6.28-24.76,8.1A43.75,43.75,0,0,1,59.56,166.58Z"/><path class="cls-2" d="M68.66,89.9c-.2,3,2.09,7.63,3.45,10.32,1.55,3.08,4.16,5.07,6.9,7.17s5.6,1.85,9,1.86c1.76,0,3.24-1.46,4.72-2.47,1.77-1.22,1-1.63.59-3.44a33.16,33.16,0,0,1-.83-11.28,56.56,56.56,0,0,1-13.71.32C76.94,92.22,68.66,89.9,68.66,89.9Z"/><path class="cls-2" d="M86.18,109.84c-2.72,0-5.12-.16-7.51-2-2.68-2-5.45-4.15-7.07-7.37-1.3-2.58-3.73-7.39-3.51-10.62l0-.71.68.19c.08,0,8.25,2.31,10.05,2.47a55.83,55.83,0,0,0,13.58-.32l.75-.11-.09.75a32.42,32.42,0,0,0,.82,11.08c.09.39.19.7.28,1,.38,1.16.53,1.93-1.11,3.06-.3.21-.6.43-.9.66-1.26.94-2.56,1.92-4.14,1.92H86.18ZM69.24,90.66c.16,2.92,2.24,7,3.39,9.3,1.5,3,4,4.92,6.74,7,2.33,1.78,4.69,1.76,7.67,1.74h1c1.2,0,2.35-.86,3.45-1.69.31-.23.62-.47.94-.68,1-.7,1-.82.67-1.75-.1-.3-.21-.66-.31-1.08a34.47,34.47,0,0,1-.92-10.73A57.13,57.13,0,0,1,78.77,93C77.17,92.82,71.32,91.23,69.24,90.66Z"/><path class="cls-1" d="M65.67,86.41c4.36,4.17,10.24,5.37,16.13,6a27.09,27.09,0,0,0,8-.15c1.76-.35,4.28-1.59,5.78-1.44"/><path class="cls-2" d="M85.63,93.6a38.41,38.41,0,0,1-3.93-.22c-5.92-.61-12.05-1.78-16.71-6.24l1.37-1.44c4.23,4,10,5.13,15.54,5.7a26.67,26.67,0,0,0,7.68-.14,19.06,19.06,0,0,0,2.11-.62,10.68,10.68,0,0,1,4-.83l-.2,2a10.12,10.12,0,0,0-3.13.74,20.24,20.24,0,0,1-2.35.69A22.42,22.42,0,0,1,85.63,93.6Z"/><path class="cls-1" d="M85,86c4,0,8.19-.24,11.35-3"/><path class="cls-2" d="M85,87V85c3.81,0,7.78-.21,10.7-2.74l1.3,1.5C93.56,86.76,89,87,85,87Z"/><path class="cls-1" d="M33,47.58c.9-1.34.24-3.43.4-5a41.43,41.43,0,0,1,1-4.58,38.15,38.15,0,0,1,3.37-9.56A61.4,61.4,0,0,1,52.18,10.14c4.88-4.33,9.52-8,15.88-9,6.9-1,11.14,2.52,15.19,7.52s5.12,13.06,3.54,19.08c-2.8-.2-5.68-1.58-8.56-1.72A24.3,24.3,0,0,0,69,27.62c-6.09,1.94-11.41,5-17.27,7.86A91,91,0,0,0,42.53,41c-2.82,1.84-6.78,4.22-8.72,7"/><path class="cls-2" d="M34.62,48.54,33.9,48l-.06.09L32.19,47a4.63,4.63,0,0,0,.26-2.63,11.27,11.27,0,0,1,0-1.9,20.33,20.33,0,0,1,.64-3.13c.13-.51.27-1,.38-1.56A39,39,0,0,1,36.9,28,62.1,62.1,0,0,1,51.52,9.39c4.82-4.27,9.69-8.19,16.4-9.2C75.55-1,80.17,3.3,84,8.07,88,13,89.54,21.2,87.75,28l-.21.8-.82-.06a22.84,22.84,0,0,1-4.28-.87,20.22,20.22,0,0,0-4.25-.84,23.38,23.38,0,0,0-8.87,1.51,89.28,89.28,0,0,0-13.46,6c-1.21.62-2.43,1.24-3.68,1.85a89.25,89.25,0,0,0-9.12,5.41l-.85.55C39.57,44,36.26,46.17,34.62,48.54ZM70.38,2a14.38,14.38,0,0,0-2.16.17C62,3.09,57.6,6.66,52.84,10.88a60.11,60.11,0,0,0-14.16,18,37.15,37.15,0,0,0-3.29,9.33c-.12.56-.26,1.11-.4,1.64a18.6,18.6,0,0,0-.59,2.83,9.74,9.74,0,0,0,0,1.56c0,.45.06.91.06,1.38a40.44,40.44,0,0,1,6.66-5l.84-.54a90.89,90.89,0,0,1,9.32-5.53c1.24-.61,2.45-1.23,3.65-1.84a90.93,90.93,0,0,1,13.76-6.08,25.35,25.35,0,0,1,9.56-1.6A21.94,21.94,0,0,1,83,26a28.21,28.21,0,0,0,3.07.71c1.28-6-.16-13.18-3.55-17.37C78.93,4.93,75.44,2,70.38,2Z"/><path class="cls-1" d="M59.94,57.49a25.32,25.32,0,0,1,2.8-8.92c1-1.92,2.69-4.45,4.92-5.18C74,41.28,76.56,49.12,77,53.75c.32,3.21,1.2,15.94-1.4,17.48s-6.8,1.67-9.75,1.09c-2.78-.55-5.65-2-6.17-4.81A32.63,32.63,0,0,1,59.94,57.49Z"/><path class="cls-2" d="M69.29,73.63a19,19,0,0,1-3.62-.34c-3.91-.78-6.45-2.82-7-5.61A33.38,33.38,0,0,1,59,57.36h0a26.19,26.19,0,0,1,2.91-9.25c1.66-3.1,3.5-5,5.48-5.66A6.28,6.28,0,0,1,73,43c3.13,2,4.65,6.82,5,10.63.27,2.73,1.46,16.46-1.88,18.43A13.9,13.9,0,0,1,69.29,73.63ZM69.7,44a5.48,5.48,0,0,0-1.72.3c-1.48.49-2.95,2.08-4.36,4.71a24.29,24.29,0,0,0-2.69,8.58h0a31.75,31.75,0,0,0-.25,9.7c.49,2.66,3.58,3.66,5.39,4,2.67.53,6.65.45,9.06-1,1.43-.84,1.63-9.38.92-16.52-.34-3.45-1.76-7.62-4.13-9.16A4,4,0,0,0,69.7,44Z"/><path class="cls-1" d="M89.64,44.72c-3.08,3.4-3.63,8.22-3.72,12.61-.08,4-.08,9.87,1.73,13.54a19.56,19.56,0,0,0,2.52.27c3.22-.18,5.59-.76,7.83-3.32,2-2.27,1.73-5,1.33-8.23-.27-2.19-1.9-11-4.58-14.8C93.36,42.83,91.86,42.27,89.64,44.72Z"/><path class="cls-2" d="M89.91,72.15A7.48,7.48,0,0,1,88.53,72a8,8,0,0,0-.94-.13l-.58,0-.26-.52c-1.78-3.63-1.92-9.11-1.83-14,.09-4.48.63-9.56,4-13.26h0c1.25-1.38,2.43-2,3.59-2a4.31,4.31,0,0,1,3.07,2.11c2.87,4,4.48,13.06,4.76,15.26.37,3,.79,6.33-1.57,9s-5.08,3.47-8.53,3.66Zm-1.59-2.2.56.09a5,5,0,0,0,1.24.11c3.08-.17,5.13-.69,7.14-3,1.65-1.87,1.5-4.17,1.09-7.45-.33-2.65-2-11-4.4-14.35-.58-.82-1.11-1.25-1.56-1.28s-1.21.42-2,1.3h0c-2.91,3.21-3.38,7.85-3.46,12C86.86,60.28,86.74,66.21,88.32,69.95Z"/><circle class="cls-2" cx="72.64" cy="59.93" r="4.58"/><path class="cls-2" d="M72.65,65.08a5.16,5.16,0,1,1,5.16-5.16A5.16,5.16,0,0,1,72.65,65.08Zm0-9.16a4,4,0,1,0,4,4A4,4,0,0,0,72.65,55.92Z"/><ellipse class="cls-2" cx="95.05" cy="59.23" rx="3.62" ry="4.02"/><path class="cls-2" d="M95.05,63.82a4.61,4.61,0,1,1,4.2-4.59A4.41,4.41,0,0,1,95.05,63.82Zm0-8a3.47,3.47,0,1,0,3,3.44A3.26,3.26,0,0,0,95.05,55.79Z"/><path class="cls-1" d="M60.69,30.65c-3-.87,2.07-16.07,2.94-18.53C65.83,5.92,68.46-.61,76.23,3c4.11,1.91,6.61,5.28,8.61,9.27C86.45,15.5,87.71,22.92,86,26.43c-4.57.31-6.9-1-11.52-.56s-9.83,3-13.54,5.38"/><path class="cls-2" d="M61.43,32.08l-.78-1.22-.23.74a2,2,0,0,1-1.22-1.06c-1.81-3.52,3-17.21,3.5-18.76C64.32,7.2,66.07,3,69.56,1.49c2-.84,4.4-.64,7.1.62,3.8,1.77,6.6,4.77,9.08,9.73,1.72,3.44,3,11.18,1.11,15l-.25.51-.57,0a26.17,26.17,0,0,1-5.75-.32,22.24,22.24,0,0,0-5.74-.25C69.25,27.38,63.61,30.69,61.43,32.08ZM72.18,3a4.72,4.72,0,0,0-1.85.36c-2.74,1.15-4.29,5-5.76,9.13C61.7,20.55,60,28.78,61,29.72l-.11.35c3-1.86,8.26-4.68,13.44-5.19a24.46,24.46,0,0,1,6.21.26,25.26,25.26,0,0,0,4.74.33c1.23-3.35.11-9.85-1.33-12.74-2.27-4.53-4.78-7.25-8.14-8.82A8.76,8.76,0,0,0,72.18,3Z"/><path class="cls-1" d="M106.7,88.61c1.08.54,2.51,2.64,3.58,3.63a14,14,0,0,1,3.19,4.93,13.85,13.85,0,0,1,.25,9.76,36.18,36.18,0,0,1-12.59,16.52c-3.79,2.6-6.57,3.5-10.56,6,2.27-1.48-1.28,1.27.2-1s4.58-5,8.76-9.36,7.37-8.36,8.56-14.14a25.29,25.29,0,0,0,0-8.41c-.39-2.37-.85-4.74-1.24-7.13"/><path class="cls-2" d="M90.53,130.37a1.1,1.1,0,0,1-.72-.25c-.87-.7-.15-1.81.13-2.22A40.48,40.48,0,0,1,95,122.24c1.13-1.13,2.39-2.39,3.78-3.85,4.32-4.53,7.22-8.39,8.31-13.66a24.09,24.09,0,0,0,0-8c-.19-1.16-.4-2.33-.61-3.49s-.43-2.42-.63-3.63l.36-.06h0l.88-1.78a10,10,0,0,1,2.57,2.43A17.28,17.28,0,0,0,111,91.5a15.47,15.47,0,0,1,3.7,15.77,37.2,37.2,0,0,1-13,17,49.29,49.29,0,0,1-5.83,3.37c-1.22.63-2.48,1.28-3.87,2.09a3.27,3.27,0,0,1-.83.5l-.07,0h0A1.68,1.68,0,0,1,90.53,130.37Zm17.74-38.86.24,1.34c.21,1.18.42,2.35.61,3.52a26.25,26.25,0,0,1-.05,8.77c-1.18,5.73-4.25,9.84-8.82,14.63-1.4,1.47-2.68,2.74-3.81,3.88s-2.07,2.07-2.89,3l1.4-.73a47.89,47.89,0,0,0,5.61-3.24,35.09,35.09,0,0,0,12.22-16A13.5,13.5,0,0,0,109.61,93,17.86,17.86,0,0,1,108.27,91.51Z"/><path class="cls-1" d="M25.64,82c-1.32-.08-6.1,2.5-7.14,3.4a14.89,14.89,0,0,0-3.38,4.17c-1.53,2.91-1.63,6.1-1.63,9.36,0,6.4.71,11.84,3.78,17.33A15.85,15.85,0,0,0,21,120.85c.44-6.72-1.11-13.1,2.43-19.1,3.68-6.24,10.49-4.81,16.13-2.79,2.61.93,5.42,3,7.77,4.44,2.64,1.63,5.48,5,7.67,7.12,4.55,4.34,7.05,8.25,12,12a46,46,0,0,0,7.58,5.08c2,.94,5.63,2.95,7.56,2.43l-.4-2.79c-2.92-.46-8.46-7.21-10.16-9.76S60.12,102.25,57.81,99.83a57.18,57.18,0,0,0-5.48-5.05,33.93,33.93,0,0,0-6.77-4C37.75,87.17,32.71,87,24.25,89.6c.7.17.37.42.8.2"/><path class="cls-2" d="M81.52,131.11c-2,0-4.53-1.25-6.48-2.21l-.83-.4A39.85,39.85,0,0,1,67.39,124l-.93-.71A51.24,51.24,0,0,1,58.9,116c-1.4-1.55-2.84-3.15-4.57-4.8-.64-.61-1.34-1.34-2.07-2.1a32.21,32.21,0,0,0-5.44-4.9c-.58-.36-1.18-.75-1.81-1.15a30.88,30.88,0,0,0-5.77-3.2c-5.54-2-11.64-3.24-14.94,2.36-2.4,4.07-2.32,8.39-2.24,13,0,1.84.07,3.75-.06,5.69l-.12,1.84-1.47-1.12a16.94,16.94,0,0,1-4-4.87C13,110.63,12.5,104.58,12.5,99c0-3.43.13-6.76,1.75-9.82a16,16,0,0,1,3.61-4.46c1-.85,5.9-3.64,7.75-3.64h.1l-.12,2c-.9,0-5.36,2.24-6.42,3.16A13.92,13.92,0,0,0,16,90.06c-1.4,2.67-1.52,5.61-1.52,8.9,0,5.35.44,11.1,3.66,16.84a17.56,17.56,0,0,0,2,2.8c0-1.12,0-2.24,0-3.34-.09-4.65-.17-9.47,2.51-14,4.58-7.77,13.84-4.47,17.32-3.22a32.24,32.24,0,0,1,6.19,3.4c.61.39,1.2.78,1.77,1.12a33.56,33.56,0,0,1,5.83,5.21c.71.74,1.39,1.44,2,2,1.79,1.71,3.25,3.33,4.67,4.91a49.65,49.65,0,0,0,7.28,7l.94.71a38.34,38.34,0,0,0,6.47,4.27l.85.41a20.32,20.32,0,0,0,5.15,2L80.91,128c-3.73-1.39-9.12-8.53-10.09-10-1.9-2.83-11.54-15.22-13.73-17.52a55.9,55.9,0,0,0-5.38-5,32.12,32.12,0,0,0-6.57-3.86C38,88.38,33.25,88,25.31,90.33l.2.36a1.17,1.17,0,0,1-1.45-.11s0,0-.05,0l-3.52-.87,3.47-1c8.86-2.68,14.21-2.38,22,1.24A34,34,0,0,1,53,94a58.09,58.09,0,0,1,5.57,5.14c2.41,2.52,12.23,15.22,13.95,17.79,2.06,3.09,7.23,9,9.49,9.33l.72.12.63,4.39-.85.23A3.65,3.65,0,0,1,81.52,131.11Z"/><path class="cls-1" d="M81,131.23c-3.51.74-8.41,3.88-6.37,8.16.92,1.93,1.86,2.82,2,5.18s-.84,3.46-2,5.15c5,.86,9.77-4.33,8.19-9-.7-2-2.06-4.23-1.1-6.38.37-.84,2.13-1.27,1.22-2.74-.68-1.09-2.61-.56-3.55-.19"/><path class="cls-2" d="M75.74,150.81a7.37,7.37,0,0,1-1.26-.11L73,150.44l1.11-1.64c1-1.47,1.67-2.44,1.56-4.16a6.84,6.84,0,0,0-1.14-3.35c-.25-.44-.51-.91-.77-1.46a5.26,5.26,0,0,1,0-4.74,9.79,9.79,0,0,1,5.42-4.35l-.09-.23c2.24-.87,4-.66,4.75.59a2.34,2.34,0,0,1-.75,3.29,2.62,2.62,0,0,0-.4.39c-.59,1.31,0,2.77.62,4.3.18.46.36.91.52,1.35a7.52,7.52,0,0,1-1.63,7.31A8.54,8.54,0,0,1,75.74,150.81ZM81.17,132l0,.22c-2.13.45-4.78,1.89-5.71,3.76a3.25,3.25,0,0,0,0,3c.24.5.48.93.71,1.34a8.75,8.75,0,0,1,1.39,4.21,6.87,6.87,0,0,1-1.15,4.26,6.68,6.68,0,0,0,4.17-2.33,5.56,5.56,0,0,0,1.26-5.38c-.14-.41-.31-.82-.48-1.25-.71-1.77-1.52-3.77-.59-5.86a3.19,3.19,0,0,1,.92-1.08,2.25,2.25,0,0,0,.47-.49h0a.71.71,0,0,0-.11-.24C82,132,81.68,131.92,81.17,132Z"/><path class="cls-1" d="M91.57,130.23c3.22.75,5.84,2.83,5.33,6.33-.48,3.34-1.52,6.19-.3,9.59.74,2.08,1.24,2.71-1.24,2.8-1.57.05-4.37-.24-5.59-1.35-2.31-2.11-.72-6.45.61-8.61.84-1.37,1.57-2.25,1.39-4"/><path class="cls-2" d="M95,150c-1.7,0-4.49-.33-5.88-1.61-2.85-2.6-1-7.59.43-9.87l.3-.49a4,4,0,0,0,.95-2.87l2-.2A5.92,5.92,0,0,1,91.51,139l-.29.47c-1.23,2-2.52,5.77-.79,7.36.83.76,3.13,1.15,4.88,1.09a6.25,6.25,0,0,0,.84-.07c-.07-.23-.19-.56-.29-.84l-.2-.56c-1-2.92-.56-5.51-.1-8,.12-.67.25-1.35.35-2.06.52-3.62-3-4.86-4.58-5.22l.45-1.94c4.27,1,6.61,3.85,6.09,7.44-.11.73-.24,1.44-.37,2.14-.46,2.45-.85,4.56,0,7l.2.53c.4,1.08.71,1.93.2,2.69a3,3,0,0,1-2.54.9Z"/><path class="cls-1" d="M86,128c4.74-5.3,11.6,7.45,4,10.51-6.26,2.52-13.79-4.68-9.36-10.71,2.55-3.47,4.76-.79,7.17.59"/><path class="cls-2" d="M87.32,140.06A9.58,9.58,0,0,1,80,136.41a7.35,7.35,0,0,1-.17-9.15c2.38-3.23,4.83-2.06,6.62-.89a3.83,3.83,0,0,1,3.47-.33c2.47.93,4.43,4.16,4.47,7.36a6.18,6.18,0,0,1-4,6.07A8.08,8.08,0,0,1,87.32,140.06Zm-4-12.93c-.62,0-1.18.38-1.86,1.31a5.36,5.36,0,0,0,.14,6.76,7.14,7.14,0,0,0,8,2.43,4.19,4.19,0,0,0,2.79-4.2c0-2.36-1.48-4.89-3.18-5.53a1.92,1.92,0,0,0-1.06-.11l-.87,1.51c-.46-.27-.92-.58-1.37-.89A5.5,5.5,0,0,0,83.27,127.13Z"/><path class="cls-1" d="M26,99.56c-14.59,5.61-25.3,76.68-10,75.72,5.12-.32,5.51-10.81,6.87-14a142.84,142.84,0,0,1,6.68-13.13c2.78-5,5.12-10.25,7.89-15.23,2.35-4.21,5.52-7.48,8.05-11.46"/><path class="cls-2" d="M15.76,176.29c-2.47,0-5.59-1.61-7.16-8.78-2-9-1-24.51,2.42-39.61,1.77-7.78,6.73-26.22,14.66-29.26l.71,1.86c-10.72,4.12-19.83,48.34-15.85,66.59.74,3.4,2.34,7.42,5.46,7.21s4.13-5.52,5-9.41a24.52,24.52,0,0,1,1.05-4,144.67,144.67,0,0,1,6.73-13.23c1.38-2.47,2.66-5.05,3.91-7.55s2.58-5.16,4-7.68a55.68,55.68,0,0,1,4.6-6.67c1.18-1.55,2.41-3.15,3.49-4.84L46.4,122c-1.12,1.76-2.37,3.4-3.58,5a54.11,54.11,0,0,0-4.44,6.43c-1.38,2.48-2.68,5.08-3.94,7.6s-2.56,5.12-4,7.63a142.57,142.57,0,0,0-6.64,13,24.44,24.44,0,0,0-.94,3.62c-1,4.51-2.29,10.7-6.78,11Z"/><path class="cls-1" d="M7.72,170.86c-1.56-9.63,16.55-13.87,17.13-2.79"/><path class="cls-2" d="M6.74,171A8.29,8.29,0,0,1,10.23,163c3.3-2.5,8.09-3.19,11.39-1.65A7.41,7.41,0,0,1,25.84,168l-2,.1a5.43,5.43,0,0,0-3.08-5c-2.67-1.24-6.61-.64-9.35,1.44A6.38,6.38,0,0,0,8.7,170.7Z"/><path class="cls-1" d="M61.09,30.78c4.25-3.19,19.26-9.25,24.43-12.08,4.8-2.63,10.39-5.05,15.14-7.7,4.3-2.4,17.35-8.09,20-.66,2.19,6.07-4.83,12.44-9.55,15.34-3.1,1.9-6.53,3.46-9.82,5.12-2.19,1.11-4.88,2.84-7.12,3.21.09-3.11-6.45-6.12-9-6.75a57.73,57.73,0,0,0-13-1.39h.43"/><path class="cls-2" d="M93.16,35.18l0-1.2c.06-2.14-5.38-5.05-8.24-5.75a56.33,56.33,0,0,0-12.74-1.37V26c-4.45,2.06-8.64,4.11-10.53,5.53L60.5,30C63.21,28,70,24.86,76,22.12c3.64-1.66,7.09-3.23,9-4.29,2.34-1.28,4.89-2.53,7.36-3.74,2.62-1.28,5.33-2.61,7.77-4,.46-.26,11.4-6.29,17.71-3.93A6.08,6.08,0,0,1,121.62,10c2.42,6.72-5.13,13.55-10,16.53-2.33,1.44-4.87,2.68-7.32,3.89l-2.57,1.27c-.51.26-1.05.55-1.61.86A20.28,20.28,0,0,1,94.35,35ZM74.67,24.92A55.72,55.72,0,0,1,85.43,26.3c2.27.56,8.36,3.1,9.55,6.5a26.13,26.13,0,0,0,4.22-2c.57-.31,1.13-.62,1.66-.88l2.59-1.28c2.41-1.19,4.9-2.41,7.16-3.8,4.33-2.66,11.12-8.64,9.14-14.16a4.11,4.11,0,0,0-2.55-2.61c-4.37-1.64-12.41,1.77-16,3.8-2.48,1.38-5.22,2.72-7.86,4-2.45,1.2-5,2.43-7.28,3.69-2,1.1-5.49,2.68-9.16,4.36Z"/><path class="cls-1" d="M65.87,41.4c-.52.16-.5.62-1.13.34C62.12,35.14,72.21,24.53,79,27.53c.13,2.59.67,6.12-.81,8.23-6-.24-8.88,6.26-14.27,6.44"/><path class="cls-2" d="M63.91,43.19l0-.94-.06-.15C62.21,38,64.76,33.08,68,30c3.68-3.53,8-4.81,11.35-3.34l.56.25,0,.61c0,.38,0,.79.08,1.2.17,2.48.39,5.57-1.06,7.64l-.31.44-.54,0c-2.79-.1-4.87,1.45-7.06,3.11S66.79,43.1,63.91,43.19Zm1.67-2.74.12.39a16.36,16.36,0,0,0,4.15-2.56c2.13-1.61,4.53-3.43,7.74-3.52.76-1.53.6-3.86.45-5.94l0-.59c-2.95-.92-6.34,1-8.61,3.16-2.95,2.83-4.48,6.43-4,9.12Z"/><path class="cls-1" d="M7,208.88c-3.75-2.12-5.06-12.12-5.66-16.52-.76-5.61-.34-12.6,2.39-17.3a17,17,0,0,1,27.58-2.59c5.64,6.46,9.55,21.29,7.49,29.88-1.36,5.67-7.17,6.94-9.89,1.55-1.11-2.2-1.24-4.47-2.37-6.62-1.31-2.5-2.33-2.68-3.82-4.91"/><path class="cls-2" d="M6.51,209.74c-3.62-2.05-5.09-9.42-6.13-17.07l0-.18c-.94-6.9,0-13.6,2.51-17.94a17.76,17.76,0,0,1,13.79-8.88,17.93,17.93,0,0,1,15.4,6.13c6,6.84,9.79,22.08,7.71,30.76-.77,3.22-2.9,5.41-5.55,5.72-2.49.29-4.8-1.19-6.19-4a18.53,18.53,0,0,1-1.23-3.45,16,16,0,0,0-1.13-3.15,9.71,9.71,0,0,0-1.91-2.57,14.88,14.88,0,0,1-1.86-2.25l1.66-1.1a12.72,12.72,0,0,0,1.63,2,11.67,11.67,0,0,1,2.24,3,17.75,17.75,0,0,1,1.28,3.53,16.88,16.88,0,0,0,1.09,3.1c1,2,2.54,3.07,4.19,2.88s3.28-1.86,3.84-4.21c1.93-8-1.74-22.66-7.27-29a16,16,0,0,0-13.71-5.46,15.79,15.79,0,0,0-12.26,7.9c-2.71,4.67-2.94,11.67-2.26,16.67l0,.18c.51,3.76,1.87,13.76,5.14,15.61Z"/><path class="cls-1" d="M6.87,193c-.94,6-.63,11.41,2.37,16.71,1.26,2.22,2.84,5.29,5.21,6.11,2.14.74,6.29-.5,5.59-3.06"/><path class="cls-2" d="M15.86,217a5.34,5.34,0,0,1-1.74-.27c-2.57-.89-4.19-3.78-5.49-6.1l-.26-.47c-2.81-5-3.58-10.33-2.49-17.36l2,.3c-1,6.56-.33,11.51,2.25,16.07l.27.47c1.14,2,2.55,4.55,4.41,5.19a4.65,4.65,0,0,0,4-.78,1,1,0,0,0,.35-1.08l1.92-.52a3,3,0,0,1-.91,3.05A6.5,6.5,0,0,1,15.86,217Z"/><path class="cls-1" d="M13.36,193.6a23.35,23.35,0,0,0,1.83,15.34c1.73,3.42,5.74,9.61,10,8.12,6-2.09,2.65-8.05.66-11.76-2.07-3.86-4.22-10.32-3-15.06"/><path class="cls-2" d="M23.89,218.29c-4.69,0-8.45-6.66-9.58-8.9a24.41,24.41,0,0,1-1.92-16l1.95.39a22.44,22.44,0,0,0,1.74,14.69c.77,1.52,4.81,9,8.82,7.63a3.78,3.78,0,0,0,2.52-2.06c.86-2.2-1-5.58-2.28-8l-.13-.25c-2.23-4.16-4.37-10.8-3-15.78l1.92.51c-1.1,4.14.65,10.18,2.87,14.33l.13.24c1.51,2.81,3.57,6.65,2.38,9.71A5.69,5.69,0,0,1,25.55,218,5,5,0,0,1,23.89,218.29Z"/><path class="cls-1" d="M87.78,36.23c.45-3.3-1.88-9.86,3.68-6.47,3.52,2.14,5.15,6.7,4.95,10.32C93.66,41.65,90.53,36.85,87.78,36.23Z"/><path class="cls-2" d="M95.24,41.39c-1.66,0-3.26-1.24-4.72-2.37a9.44,9.44,0,0,0-3-1.82l-.89-.2.12-.9a15.76,15.76,0,0,0,0-2.82c-.15-2.21-.29-4.3,1.12-5.15s2.94.08,4.1.78c4,2.45,5.63,7.53,5.42,11.23l0,.54-.47.27A3.29,3.29,0,0,1,95.24,41.39Zm-6.41-5.86a14.46,14.46,0,0,1,2.91,1.92c1.58,1.23,2.76,2.06,3.69,1.93,0-3-1.39-6.89-4.48-8.78-1.59-1-2-.78-2-.78-.37.23-.23,2.4-.17,3.32S88.86,34.77,88.83,35.53Z"/><path class="cls-1" d="M86.19,104.34c2.78-4.19,9.86,2.3.8,4-3.23.6-10.47.25-9.9-4.71,3.09-.67,7.61-2,10.3.33"/><path class="cls-2" d="M84.36,109.54c-2.42,0-5.22-.5-6.87-2a4.54,4.54,0,0,1-1.4-4l.08-.71.69-.15.94-.21c2.72-.62,6.3-1.45,9,0a3.87,3.87,0,0,1,3.06-.21,3.44,3.44,0,0,1,2.52,3.32c-.08,1.07-.87,3-5.27,3.8A15.71,15.71,0,0,1,84.36,109.54Zm-6.31-5.13a2.42,2.42,0,0,0,.79,1.63c1.71,1.6,5.68,1.72,8,1.3,2.62-.49,3.61-1.37,3.65-2s-.48-1.06-1.18-1.3a1.86,1.86,0,0,0-2.26.83l-1.21-.8c-2.08-1-5.08-.29-7.55.27Z"/><path class="cls-1" d="M36.26,91.46c5.18.27,7.19.47,12.08,3.58,3.5,2.23,9.61,8.46,11.15,12.48"/><path class="cls-2" d="M36.66,91.92A21,21,0,0,1,50,97c3.32,2.8,6.85,6.38,8.54,10.44.23.55,2.11.75,1.91.27-2-4.73-6.25-9-10.32-12-4.41-3.25-8.89-4.38-14.27-4.67-1.27-.07.2.88.8.91Z"/><path class="cls-1" d="M89.37,129a4,4,0,0,1,1.19,3.58"/><path class="cls-2" d="M89.12,130.94a4.52,4.52,0,0,1,.8,1.06c.08.16.12.46.22.58l0,.1a4.71,4.71,0,0,1,0-.61,8.15,8.15,0,0,0-.06,1.53c0,.14,0,.8.2.93.43.33.61-1.2.63-1.35.27-2.11.24-4.43-1.33-6-.39-.4-.61,1.2-.63,1.35a7.91,7.91,0,0,0-.06,1.53c0,.26,0,.73.2.93Z"/><path class="cls-1" d="M110.29,97.43c2.39,5,2.12,9.43-1.73,13.28"/><path class="cls-2" d="M110,99.34c1.61,3.6,1.25,6.57-1.46,9.45-.72.77-.11,3.92,0,3.84,4.47-4.75,4.56-11.37,2-17.1-.22-.49-.62,1.29-.63,1.35a4.63,4.63,0,0,0,.13,2.46Z"/><ellipse class="cls-1" cx="43.57" cy="67.69" rx="7.17" ry="8.76"/><path class="cls-2" d="M51.35,67.69A10.65,10.65,0,0,1,49.47,74a7.15,7.15,0,0,1-12,.13,11,11,0,0,1,0-12.89,7.6,7.6,0,0,1,6.07-3.16,7.48,7.48,0,0,1,5.88,3.3A10.86,10.86,0,0,1,51.35,67.69Zm-1.22,0a9.1,9.1,0,0,0-1.83-5.45,5.93,5.93,0,0,0-4.73-2.47A5.84,5.84,0,0,0,39,62.38,9.41,9.41,0,0,0,39,73a5.49,5.49,0,0,0,9.25.13A9.3,9.3,0,0,0,50.13,67.69Z"/><path class="cls-2" d="M46.79,75.76c.37-.14.49-.1.55,0l.16.24.33.48.65,1,1.3,1.93,2.6,3.87L55,87.1a23,23,0,0,0,2.81,3.48,20.18,20.18,0,0,0,7.5,4.76,20.59,20.59,0,0,0,4.37,1.07L74.3,97l-.12,1.05-4.65-.39a22,22,0,0,1-4.72-.93,21.71,21.71,0,0,1-11.37-8.63L50.81,84.3l-2.64-3.84-1.32-1.92-.66-1-.33-.48-.16-.24c-.05-.08,0-.21.22-.5Z"/><rect class="cls-1" x="74.24" y="95.18" width="7.97" height="4.78" rx="2.39" ry="2.39"/><path class="cls-1" d="M79.81,101H76.63a3.38,3.38,0,0,1,0-6.77h3.19a3.38,3.38,0,0,1,0,6.77Zm-3.19-4.78a1.4,1.4,0,0,0,0,2.79h3.19a1.4,1.4,0,0,0,0-2.79Z"/><path class="cls-1" d="M41.74,59.23s-1-5.48.63-18.22"/><path class="cls-2" d="M40.92,59.37a30.79,30.79,0,0,1-.43-4.69c0-1.55,0-3.09.07-4.63s.2-3.07.36-4.6.38-3,.62-4.56l1.64.21-.37,4.53c-.1,1.51-.22,3-.28,4.52s-.13,3-.13,4.51,0,3,.14,4.42Z"/><path class="cls-1" d="M45.41,59.23S46.7,44,49.71,36.54"/><path class="cls-2" d="M44.48,59.15c.15-1.95.36-3.87.6-5.8s.51-3.85.85-5.77.7-3.83,1.17-5.73a40,40,0,0,1,1.75-5.66l1.74.7A43.57,43.57,0,0,0,49,42.3c-.44,1.85-.79,3.73-1.11,5.61-.65,3.77-1.13,7.59-1.53,11.39Z"/></svg>