<svg id="Icons" xmlns="http://www.w3.org/2000/svg" viewBox="0 0 118.7 210"><defs><style>.cls-1{fill:#10069f;}.cls-2{fill:#050050;}</style></defs><title>og-chat-mobile</title><path class="cls-1" d="M71.43,101.48c4.61-5.35,13.77-19,16.73-22.86C91.25,74.38,93,69.31,96,65.05a64,64,0,0,0,3.22-5.77c1.44-2.74,1.77-4.25-.61-6.48-1.05-.9-2.1-2.14-3.52-1.91l-3.16,1.18c-.13,1.62-1.87,3-2.6,4.39a62.78,62.78,0,0,1-3.47,6.36,41.61,41.61,0,0,1-5.61,6.29c-2.1,2-3.58,3.9-6.13,5.23-1.49.8-3.79,2.76-5.52,2.62"/><path class="cls-2" d="M71.81,101.5c5.45-6.07,10-12.91,14.75-19.52a77.15,77.15,0,0,0,6-9.36c2.64-5.06,6.78-10.11,8.54-15.57,1-3-1.36-6.87-4.63-7.23a7.87,7.87,0,0,0-5.31,2.05c-1.11,1.11-2,3.25-2.81,4.68-1.61,2.7-2.69,5.56-4.73,8A64.41,64.41,0,0,1,77.3,71.1c-1.79,1.62-5.43,4.54-8,4.74-.84.07-2.62,2.33-1.43,2.24,2.58-.2,5-2,7.1-3.42,2.79-1.83,5.08-4.4,7.41-6.76a34.57,34.57,0,0,0,5.75-7.41c1.61-2.88,4.1-5.84,4.94-9l-1.62,1.69c2.16-.81,3.18-1.65,5.25,0,3.86,3.06,1.71,6.22-.29,9.77-3.11,5.52-6.08,11.5-9.78,16.62-5.29,7.33-10.09,15.1-15.75,22.15-.75.93.61.19.92-.15Z"/><path class="cls-1" d="M97.24,53.1c9.23-.49,19.84-10.67,14.2-20.62-1-2.23-4.71-6.2-7.83-5.53-4.05.9-2.84,4.83-4.58,7.45-1.76,2.92-3.43.8-5.5,3.7-1,1.45-1.75,6.6-1.9,8.43-.12,1.52,1,3.45,1.13,5"/><path class="cls-2" d="M96.89,53.64A19.16,19.16,0,0,0,112.51,43c2.58-5.67.3-14.41-6.2-16.49a5,5,0,0,0-5.76,2,8.41,8.41,0,0,0-1,2.56c-.73,2.64-2.18,3.79-4.49,5-2,1-2.74,3-3.25,5A29.82,29.82,0,0,0,91,46.3c-.13,2,.68,3.74,1.09,5.71.13.65,1.55-.36,1.42-1-.54-2.62-1.22-4.68-.82-7.38a19.42,19.42,0,0,1,.78-3.86c.65-1.71,2.2-2.24,3.57-3.1,3-1.9,2.71-3.86,4.11-6.83,2.38-5.05,7.2-.51,8.89,1.86a11.91,11.91,0,0,1,2.27,8c-.71,7.19-8,12.22-14.7,12.87-.38,0-1.25,1.1-.69,1.06Z"/><path class="cls-1" d="M92.5,49.77a9.35,9.35,0,0,1-1.4-2.87c-.76-2,.71-3.72.45-5.68s-2.1-4.46-3-6.16c-1-2.12-2.27-3.9-1.38-6.18,1.52-3.66,7.06-3.58,7.22.72,0,1.94.56,7.09,3.69,6.22"/><path class="cls-2" d="M92.94,49.36c-1.51-2.91-1-4.25-.77-7.32a7.09,7.09,0,0,0-1-3.94c-.77-1.54-1.73-3-2.48-4.52a6.82,6.82,0,0,1-1-3c0-1.59,2.17-4.13,4-3.57,3.85,1.15.53,10.17,6,9.35.43-.06,1.33-1.24.73-1.16-4.44.63-2.34-6.75-4.56-8.74-1.74-1.55-4.37-.83-5.92.6-2.73,2.52-1.51,5.65,0,8.51s3,4.78,2.67,8.21c-.28,2.65-.27,4.13,1.41,6.36.17.22,1-.54.88-.82Z"/><path class="cls-1" d="M101.33,52c.86-.54,3.85.11,4.69-.23a9.55,9.55,0,0,0,5.27-4.68c.58-.87.76-1.88,1.73-2.52,1.29-.82,2.38-.42,3.33-2.08a23.06,23.06,0,0,0,1.73-6.29c.35-3.14-.63-7.5-4.93-6-3.56,1.15-2.07,6.78-5,9"/><path class="cls-2" d="M101.05,52.36c2.19-.5,3.82.42,5.91-.6A10.9,10.9,0,0,0,111.2,48a14,14,0,0,1,3.8-3.78,9.53,9.53,0,0,0,1.14-.84c1.52-1.54,2-4.42,2.38-6.45.52-3,.17-8.18-4.13-7.55-5.17.76-3.61,6.66-6.49,9.55-.66.66-.21,1.16.5.54,1.79-1.55,1.9-3.4,2.66-5.5.6-1.68,3.26-4.21,5.14-2.76a3.87,3.87,0,0,1,1.09,2,11.15,11.15,0,0,1-.16,5.4,7.13,7.13,0,0,1-3.26,5.11,7.38,7.38,0,0,0-2.05,1.63c-1.91,2.48-2.33,5.67-6.58,6-1.31.09-2.47-.22-3.7.34-.14.06-.8.78-.47.7Z"/><path class="cls-1" d="M106.71,29c-.72-2.51-7-8.22-9.14-4.41C96.39,26.59,98.55,29,99,31c.28,1.66,0,5.51-2.3,5.74"/><path class="cls-2" d="M107.16,28.7c-.76-2.88-5.3-7.18-8.5-5.59a3.73,3.73,0,0,0-2,4c.26,1.47,1.26,2.67,1.61,4.1s.33,4.42-1.35,5.11c-.18.07-1.08.93-.54.91,3.64-.11,3.77-5.7,2.75-8.08-.51-1.17-2.59-4.49,0-5.14,1-.25,2.46.66,3.2,1.15a11.12,11.12,0,0,1,3.95,4.31c.09.19.95-.49.88-.75Z"/><path class="cls-1" d="M112.73,30.45c1.4-3.46-6-7.83-7-3.72-.73,2.7-.54,8-2.85,10.19"/><path class="cls-2" d="M113.14,30.19c1.22-3.06-3.11-6.66-6-5.49-1.53.61-2,2.12-2.22,3.6-.51,2.9-.45,6.1-2.36,8.51-.56.71.11.84.64.38,2.68-2.32,2.44-6.58,3-9.77.2-1.08.48-1.91,1.76-1.74a5.31,5.31,0,0,1,2.29,1c1.25.9,2.48,2.39,2.08,4-.08.35.74-.32.82-.52Z"/><path class="cls-1" d="M101.72,41.72c-3.36-.17-6.23,3.89-6.47,6.84"/><path class="cls-2" d="M102.44,40.92c-2.13-.15-4,1.19-5.41,2.69s-2.79,3.63-2.68,5.65c0,.61,1.7-.89,1.79-1.25.67-2.57,1.79-5.33,4.86-5.49.52,0,1.86-1.57,1.44-1.6Z"/><path class="cls-1" d="M100.43,56.63c-2.58.44-5.26-.62-7.5-2-1.36-.82-4.2-3.7-2.33-5.39s3.51,1.31,6.45,2.35c2.36.83,6.07.1,6.12,1.94C103.18,53.5,104,56,100.43,56.63Z"/><path class="cls-2" d="M100.77,56.11A11.16,11.16,0,0,1,92,52.79a4.67,4.67,0,0,1-1-1.33c-.26-.64-.46-1.81.65-2,.75-.11,2.24,1.38,2.86,1.78,1.87,1.19,3.59,1.24,5.7,1.53,2.72.37,2.87,2.18.35,3.35-.18.08-1.18,1-.56,1,2,0,4.38-1.84,3.79-4.1-.35-1.33-1.56-1.44-2.79-1.6a15,15,0,0,1-6.92-2.56c-1.19-.74-2.24-1.14-3.47-.29a2.87,2.87,0,0,0-1.32,2.89c.8,4.15,7.23,6.16,10.72,5.66C100.43,57.09,101.32,56.07,100.77,56.11Z"/><path class="cls-1" d="M12.66,194.47c-1.25,3.36,1.42,4.85,3.15,7.16s3.22,4.17,5.86,5.28c2.36,1,6.15,2.35,9.21,2.34a26.53,26.53,0,0,0,9.71-1.64c3.83-1.46,4.49-2.42,4.48-5.23s-2.29-4.31-5.53-3.93"/><path class="cls-2" d="M30.86,210c-3.09,0-6.86-1.3-9.48-2.4s-4.36-3.1-6.17-5.52c-.38-.51-.82-1-1.24-1.45-1.47-1.6-3.13-3.41-2-6.42l1.4.52c-.8,2.15.25,3.3,1.71,4.89a20.36,20.36,0,0,1,1.34,1.56c1.73,2.31,3.14,4,5.55,5s6.06,2.28,8.9,2.28h0a26,26,0,0,0,9.45-1.59c3.62-1.38,4-2.14,4-4.53a3,3,0,0,0-1-2.34,4.77,4.77,0,0,0-3.74-.85l-.17-1.48a6.21,6.21,0,0,1,4.9,1.22,4.49,4.49,0,0,1,1.46,3.45c0,3.24-1,4.4-5,5.93a27.41,27.41,0,0,1-10,1.69Z"/><path class="cls-1" d="M46.62,189.79c.17.72-.39,1.55-.2,2.39a3,3,0,0,0,1.1,1.52c1.12.83,2.8.87,4,1.54a42.37,42.37,0,0,0,8.54,4,32.48,32.48,0,0,0,10.4.84c4.78-.3,7-1,9.78-2.53,2-1.08,2.38-1.31,3.32-2.66s.31-1.53.3-3.18c0-2.36-2.07-4.43-3.9-5.76a17.36,17.36,0,0,0-11.33-3.12c-1.28.07-2.43.69-3.69.81a23.89,23.89,0,0,0-4,.7,44.44,44.44,0,0,0-6,1.89,28.18,28.18,0,0,0-3.68,1.7c-.83.51-1.7,1.49-2.69,1.59"/><path class="cls-2" d="M67.76,200.89a28.92,28.92,0,0,1-7.92-1,41.42,41.42,0,0,1-8.34-3.86l-.34-.19a7.56,7.56,0,0,0-1.65-.58,7.14,7.14,0,0,1-2.45-1,3.73,3.73,0,0,1-1.38-2,3.54,3.54,0,0,1,.1-1.62,2.07,2.07,0,0,0,.1-.76l1.45-.34a3.11,3.11,0,0,1-.1,1.45,1.58,1.58,0,0,0,.71,2,6,6,0,0,0,2,.77,8.76,8.76,0,0,1,2,.72l.34.19a39.69,39.69,0,0,0,8,3.73,31.39,31.39,0,0,0,10.14.81c4.8-.3,6.87-1,9.47-2.44,1.91-1,2.21-1.2,3.06-2.43a1.34,1.34,0,0,0,.31-1.36,7.35,7.35,0,0,1-.15-1.39c0-2.23-2.26-4.19-3.59-5.16a16.72,16.72,0,0,0-10.85-3,7.93,7.93,0,0,0-1.77.38,10,10,0,0,1-1.89.42,23,23,0,0,0-3.89.68l-.49.13a39.83,39.83,0,0,0-5.45,1.72l-.9.38a18.74,18.74,0,0,0-2.68,1.27,8.39,8.39,0,0,0-.73.53,4.68,4.68,0,0,1-2.28,1.17l-.16-1.48a3.64,3.64,0,0,0,1.52-.86,9.6,9.6,0,0,1,.86-.62,20.12,20.12,0,0,1,2.89-1.38l.88-.37a41,41,0,0,1,5.66-1.79l.49-.13a24.62,24.62,0,0,1,4.14-.72,8.57,8.57,0,0,0,1.61-.37,9.13,9.13,0,0,1,2.11-.44,18.14,18.14,0,0,1,11.81,3.26c1.56,1.13,4.19,3.47,4.2,6.36a6,6,0,0,0,.12,1.13,2.73,2.73,0,0,1-.55,2.48c-1.06,1.52-1.59,1.81-3.57,2.89-2.73,1.49-5,2.31-10.09,2.62C69.87,200.84,68.91,200.89,67.76,200.89Z"/><path class="cls-1" d="M42.83,125.76a69.57,69.57,0,0,1,5.09,13.45c1.15,4.38,1.36,8.82,2.07,13.45s.66,9.15.91,14c.12,2.4,0,5.2,2,6.95s5,2.57,6.3-.07c1-1.93.17-5.1.06-7.17-.13-2.43.5-4.61.6-6.86a101.58,101.58,0,0,1,1.19-14.35,97.58,97.58,0,0,1,9-26.58c2-3.8,5.15-7.17,6.87-11,1.62-3.59-.56-4.06-3.93-5.44-2.93-1.2-5.57-2.48-8.73-2.7s-5.92.76-8.91.6"/><path class="cls-2" d="M56.58,176a6.55,6.55,0,0,1-4.17-1.82c-2-1.79-2.13-4.43-2.23-6.76l0-.7c-.07-1.33-.12-2.64-.16-3.93a87.39,87.39,0,0,0-.74-10c-.24-1.55-.42-3.1-.6-4.59a63.39,63.39,0,0,0-1.45-8.78,68.92,68.92,0,0,0-5-13.31l1.34-.66A70.34,70.34,0,0,1,48.64,139a64.45,64.45,0,0,1,1.49,9c.17,1.48.36,3,.59,4.54a88.41,88.41,0,0,1,.76,10.19c0,1.29.09,2.59.16,3.91l0,.72c.09,2.13.18,4.34,1.73,5.71a4.66,4.66,0,0,0,3.62,1.4,2.12,2.12,0,0,0,1.52-1.25c.62-1.23.38-3.21.17-5-.08-.65-.16-1.27-.19-1.83a21.87,21.87,0,0,1,.31-4.29c.13-.91.25-1.77.29-2.65q0-1,.09-2.09A84.42,84.42,0,0,1,60.33,145a98.72,98.72,0,0,1,9.09-26.78,45,45,0,0,1,3.3-5.19,36.31,36.31,0,0,0,3.55-5.77,3.08,3.08,0,0,0,.39-2.25c-.3-.75-1.53-1.24-3.09-1.86l-.84-.34-1.23-.51a22.74,22.74,0,0,0-7.27-2.13,21.84,21.84,0,0,0-4.42.29,24.07,24.07,0,0,1-4.48.31l.08-1.49a22.29,22.29,0,0,0,4.2-.3,23.6,23.6,0,0,1,4.72-.3A23.91,23.91,0,0,1,72.08,101l1.22.51.82.33c1.89.75,3.38,1.34,3.92,2.68a4.31,4.31,0,0,1-.41,3.42,38.11,38.11,0,0,1-3.69,6,44,44,0,0,0-3.19,5,97.24,97.24,0,0,0-9,26.38,83.37,83.37,0,0,0-1.09,12.15q0,1-.09,2.1c0,.95-.18,1.88-.3,2.79a20.67,20.67,0,0,0-.3,4c0,.51.1,1.1.18,1.73.24,2,.51,4.18-.32,5.81a3.61,3.61,0,0,1-2.57,2A3.86,3.86,0,0,1,56.58,176Z"/><path class="cls-1" d="M50.3,176.24c-3.89,1.83-5,8.77-4.48,12.55.72,5.16,5,4.56,8.75,6.79,6.8,4.06,21,5.13,28-1.41,3.18-3,1.15-5.64,1.19-9.86.06-5.13-3.85-5.71-8.43-8s-8.8.09-13.06,1.21c-2.22.58-3.91,1.08-6.27.51-2.2-.53-4.1-2.24-6.29-1.19"/><path class="cls-2" d="M68.31,199.6c-5.42,0-10.75-1.37-14.13-3.38a17.77,17.77,0,0,0-3.28-1.41c-2.59-.91-5.26-1.86-5.83-5.91-.5-3.61.42-11.22,4.9-13.33l.15.32a6.39,6.39,0,0,1,4.16.74,12.14,12.14,0,0,0,1.88.68c2.09.5,3.58.1,5.65-.44l.26-.07c.87-.23,1.76-.52,2.62-.8,3.48-1.13,7.08-2.29,11-.36.82.41,1.61.76,2.38,1.1,3.5,1.55,6.52,2.89,6.46,7.58a19.46,19.46,0,0,0,.32,3.37c.38,2.41.74,4.69-1.75,7C79.32,198.22,73.77,199.6,68.31,199.6ZM49.94,177.32c-2.81,2-3.88,7.78-3.38,11.36.44,3.16,2.29,3.81,4.85,4.71a19,19,0,0,1,3.54,1.54c6.24,3.73,20.24,5.1,27.11-1.32,1.92-1.79,1.67-3.34,1.3-5.7A21,21,0,0,1,83,184.3c0-3.71-2.19-4.7-5.58-6.19-.78-.35-1.59-.71-2.44-1.13-3.34-1.66-6.49-.64-9.84.44-.88.29-1.79.58-2.7.82l-.26.07a11.9,11.9,0,0,1-6.38.45,13.25,13.25,0,0,1-2.11-.76c-1.33-.57-2.48-1.06-3.68-.48Z"/><path class="cls-1" d="M51.5,179.13a42.83,42.83,0,0,1-2.91-5.65c-1.1-2.2-1.9-3.14.15-5.38C51.58,165,57.1,164,61.06,164c2.32,0,3.84.3,5,2.45,1.69,3.13,1,7.08-1.12,8.31-3.62,2-6.9,1.39-10.68,3.06-1.25.55-.25.71-1.57,1.12Z"/><path class="cls-2" d="M51.17,179.94l-.27-.37a25.63,25.63,0,0,1-2.23-4.18c-.26-.56-.51-1.1-.75-1.58l-.28-.55c-1-1.89-1.67-3.25.54-5.68,3.68-4,10.76-4.34,12.86-4.34h0c2.26,0,4.24.22,5.66,2.84,1.84,3.41,1.17,7.85-1.41,9.31a17,17,0,0,1-6,1.83,19.31,19.31,0,0,0-4.8,1.26,1.32,1.32,0,0,0-.37.2c-.2.48-.53.71-1.28.95l-.1,0ZM61,164.74c-4,0-9.16,1-11.76,3.86-1.52,1.66-1.24,2.2-.32,4l.29.56c.25.49.5,1,.77,1.62a29.38,29.38,0,0,0,1.82,3.55l.68-.11a2.23,2.23,0,0,0,.32-.12,1.89,1.89,0,0,1,1.12-1,20.5,20.5,0,0,1,5.15-1.37,15.62,15.62,0,0,0,5.47-1.66c1.69-1,2.42-4.36.83-7.3-1-1.77-2.07-2.06-4.35-2.06Z"/><path class="cls-1" d="M54.09,178.53c-2.29,3.49.1,8.48,2.86,11.08,3.43,3.23,9.09,3.64,13.67,3.36,3.8-.23,9.6-1.29,11.59-5.14,2.07-4,.09-9.41-2.85-12.25-3.68-3.55-8.18-4.77-13.23-4.41C59,171.66,54.09,178.53,54.09,178.53Z"/><path class="cls-2" d="M68.31,193.79c-5.32,0-9.31-1.22-11.88-3.63-4.37-4.11-4.79-9.26-3-12l0,0c.21-.29,5.17-7.16,12.61-7.68,5.66-.39,10.17,1.12,13.8,4.62,3.2,3.09,5.2,8.85,3,13.13s-8.61,5.33-12.21,5.55C69.85,193.77,69.07,193.79,68.31,193.79ZM54.7,179c-2.1,3.21.35,7.85,2.76,10.11,2.62,2.47,7,3.53,13.11,3.16,2.65-.16,9-.94,11-4.74s.11-8.65-2.7-11.37c-3.31-3.19-7.44-4.57-12.66-4.21C59.57,172.37,54.91,178.67,54.7,179Z"/><path class="cls-1" d="M24,110c.4,1.94,0,4,.2,6,.14,1.44.66,2.93.81,4.37a28.52,28.52,0,0,1-.76,9.81c-1.47,6.16-2,12.68-3.23,18.88-1.17,5.8-2,11.87-2.94,17.73-.48,3.14-.87,6.14-1.63,9.16-.72,2.87-2.06,6.51-1.57,9.53,2.68.93,6.75.3,9.54,0,2.61-.25,2.62-1.14,2.73-3.63A56.8,56.8,0,0,1,28,172c1.68-7.27,5.27-14.61,8.07-21.51,3.07-7.57,6.18-15.13,10.66-22.07a106.61,106.61,0,0,1,6.37-9.2c2-2.53,3.42-3.5-.43-5-2.59-1-5.51-1-8.19-1.8s-4.64-1.42-7.32-1c-3.22.46-4.9,3.14-7.76,3.62-.41-1.09-1.49-1.76-1.83-2.77"/><path class="cls-2" d="M18.52,186.71a12.05,12.05,0,0,1-3.89-.53l-.42-.15-.07-.44c-.42-2.58.4-5.5,1.12-8.08.17-.6.33-1.19.47-1.75.63-2.5,1-5,1.38-7.57l.61-4c.76-5,1.55-10.25,2.56-15.23.55-2.7,1-5.52,1.36-8.25.52-3.52,1-7.17,1.88-10.66a27.75,27.75,0,0,0,.75-9.57,17.7,17.7,0,0,0-.39-2.1,19,19,0,0,1-.42-2.27,20.68,20.68,0,0,1,0-2.66,13.94,13.94,0,0,0-.15-3.23l1.46-.3a15.22,15.22,0,0,1,.18,3.58,19.34,19.34,0,0,0,0,2.47,17.78,17.78,0,0,0,.39,2.09,18.79,18.79,0,0,1,.42,2.28A29.18,29.18,0,0,1,25,130.35c-.82,3.42-1.35,7-1.86,10.52-.4,2.75-.82,5.59-1.37,8.33-1,5-1.79,10.14-2.55,15.16l-.61,4c-.4,2.65-.77,5.15-1.41,7.71-.14.57-.31,1.17-.48,1.78-.63,2.27-1.34,4.82-1.14,7,2.13.57,5.11.25,7.53,0l1.26-.13c1.93-.18,1.94-.43,2.05-2.82v-.1c0-.6.05-1.21.08-1.82a44.57,44.57,0,0,1,.83-8.23c1.29-5.56,3.66-11.13,6-16.52.75-1.76,1.46-3.43,2.14-5.1,2.85-7,6.09-15,10.72-22.19l.52-.81a97.33,97.33,0,0,1,5.89-8.45l.6-.73c.65-.78,1.32-1.58,1.24-1.91,0-.14-.3-.54-2-1.18a22.5,22.5,0,0,0-4.52-1,32.25,32.25,0,0,1-3.61-.73l-.63-.18a14.46,14.46,0,0,0-6.38-.84,9.2,9.2,0,0,0-3.85,1.78,10,10,0,0,1-3.89,1.83l-.61.1-.22-.58a4.32,4.32,0,0,0-.81-1.2,5,5,0,0,1-1-1.59L28.3,112a3.84,3.84,0,0,0,.75,1.11,7.75,7.75,0,0,1,.78,1,10.36,10.36,0,0,0,2.78-1.48,10.5,10.5,0,0,1,4.47-2,15.65,15.65,0,0,1,7,.88l.62.18a31,31,0,0,0,3.45.69A24,24,0,0,1,53,113.51c1.81.7,2.64,1.33,2.86,2.2.28,1.06-.48,2-1.53,3.24l-.59.72a95.86,95.86,0,0,0-5.8,8.32l-.53.81c-4.56,7.05-7.76,15-10.59,21.94-.68,1.69-1.43,3.44-2.15,5.13-2.27,5.32-4.62,10.83-5.88,16.27a43.4,43.4,0,0,0-.79,8c0,.61,0,1.22-.08,1.83v.1c-.12,2.45-.19,3.93-3.4,4.23l-1.24.13A45.34,45.34,0,0,1,18.52,186.71Z"/><path class="cls-1" d="M14.45,185.31c-.54-.4.8-.79,1.44-1.35a7.94,7.94,0,0,0,1.59-1.79c.74-1.29,1.09-2.44.3-3.83s-2.56-1.56-3.33-2.64c-1-1.4-.25-3,.8-4.15,4.09-4.57,12.17-5,17.68-3.54,2.88.78,5.35,3.31,3.68,6.38-.71,1.3-2.07,2.18-2.69,3.52-.72,1.57-.5,3.23-1,4.78-1.06,3.34-4.91,6.45-8.52,6-3.23-.42-4.69-3.05-8-3.39a12.34,12.34,0,0,0-2.53-.2h.54"/><path class="cls-2" d="M25.15,189.48a6.61,6.61,0,0,1-.84-.05,9.88,9.88,0,0,1-4.21-1.8A8.3,8.3,0,0,0,16.37,186l-.76-.1a9.19,9.19,0,0,0-1.19-.12v0H14l0,.05-.07-.05,0,0a.94.94,0,0,1-.33-.77,1,1,0,0,1,.26-.61v-.08h.09a4.11,4.11,0,0,1,.78-.52,4.83,4.83,0,0,0,.69-.44,7.09,7.09,0,0,0,1.43-1.59c.77-1.35.85-2.13.3-3.09a3.72,3.72,0,0,0-1.54-1.22,4.94,4.94,0,0,1-1.75-1.35c-1-1.46-.73-3.31.85-5.08,4.13-4.62,12.4-5.39,18.43-3.76a6.56,6.56,0,0,1,4.43,3.46,4.47,4.47,0,0,1-.28,4,9.16,9.16,0,0,1-1.4,1.8,6.93,6.93,0,0,0-1.27,1.68,8,8,0,0,0-.56,2.5,11.39,11.39,0,0,1-.4,2.19C32.61,186.2,29,189.48,25.15,189.48Zm-8.8-4.94.17,0a9.62,9.62,0,0,1,4.39,1.81,8.57,8.57,0,0,0,3.6,1.57c3.29.42,6.79-2.53,7.72-5.46a10.14,10.14,0,0,0,.34-1.91,9.23,9.23,0,0,1,.69-3,8.15,8.15,0,0,1,1.53-2.07,7.91,7.91,0,0,0,1.18-1.5,3,3,0,0,0,.22-2.7,5.14,5.14,0,0,0-3.44-2.61c-5.59-1.51-13.2-.86-16.93,3.31-.63.71-1.57,2.06-.74,3.22a3.86,3.86,0,0,0,1.26.91A5,5,0,0,1,18.44,178a4.22,4.22,0,0,1-.3,4.57,8.55,8.55,0,0,1-1.75,2Z"/><path class="cls-1" d="M14.05,184c-1.29,1.49-1.63,5.25-1.79,8.27-.21,3.9.87,5,3.33,7.22,1.32,1.2,3.72,4.6,5,5.33,2.94,1.63,5.05,2.69,8.36,3s10-.58,12.95-2.39c2.67-1.66,2.48-1.55,3.34-4.58,2-7.21-.59-15.72-8.12-18.32-4.29-1.49-7.57-.79-11.91-.55C23.21,182.07,15.35,182.52,14.05,184Z"/><path class="cls-2" d="M30.41,208.61c-.55,0-1,0-1.49-.06-3.44-.31-5.66-1.42-8.66-3.08A16.23,16.23,0,0,1,17,202.15a26,26,0,0,0-1.89-2.1c-2.57-2.34-3.79-3.66-3.57-7.81.18-3.39.55-7.08,2-8.71h0c.37-.43,1.52-1.75,11.72-2.3.84,0,1.63-.11,2.4-.17,3.32-.26,6.18-.49,9.79.76C43.58,184,48.69,191.42,46,201l-.16.57c-.73,2.64-.86,2.81-3.5,4.44S34,208.61,30.41,208.61Zm1-26.27c-1.21,0-2.43.1-3.71.2-.78.06-1.59.13-2.44.17-9.11.49-10.49,1.58-10.67,1.79h0c-1.28,1.47-1.52,6.08-1.61,7.82-.19,3.64.77,4.51,3.09,6.63a26.59,26.59,0,0,1,2,2.24,17.28,17.28,0,0,0,2.87,3c2.92,1.62,4.92,2.62,8.07,2.9,3.49.31,9.83-.64,12.49-2.28,2.25-1.39,2.25-1.39,2.85-3.57l.16-.58c1.83-6.52-.22-14.85-7.64-17.42A16.12,16.12,0,0,0,31.44,182.34Z"/><path class="cls-1" d="M15.85,190.28c-.83-7.23,8.82-11.58,14.54-12.15,6.42-.64,10.88,3,13,9a27.14,27.14,0,0,1,1.95,8.76c0,3.68-4.24,5.59-7.37,6.37-6.89,1.71-12.92,1.19-18.12-4.17A19.16,19.16,0,0,1,15.85,190.28Z"/><path class="cls-2" d="M31.5,203.84a16.13,16.13,0,0,1-12.2-5.27c-2.13-2.19-4.12-6.84-4.2-8.23a8.49,8.49,0,0,1,2-6.43c3-3.72,8.91-6.09,13.19-6.52,6.4-.63,11.42,2.81,13.77,9.46a27.47,27.47,0,0,1,2,9c-.05,4.63-5.57,6.5-7.94,7.08A27.71,27.71,0,0,1,31.5,203.84ZM16.62,190.52a20.08,20.08,0,0,0,3.75,7c4.48,4.62,9.84,5.84,17.4,4,1.59-.39,6.77-2,6.81-5.65a26.21,26.21,0,0,0-1.9-8.5c-2.13-6-6.46-9-12.22-8.47-4,.39-9.44,2.57-12.18,6a7.05,7.05,0,0,0-1.69,5.36Z"/><path class="cls-1" d="M30,31.15c-4.58,3.09-6.59,12.49-8.08,17.53C20,55.1,19.41,61.48,18.83,68.2,17.6,82.51,13,94.44,18.32,108.43c2.35,6.24,4.83,11.06,11.66,13.24S44.07,125,51.1,123.56c5.86-1.2,13.24-2.8,18.32-6,4.3-2.69,7.84-9.26,9.57-13.93,4.48-12.06,3.08-25.2,1.08-38.45-.94-6.27-3.56-12-3.88-18.52a90.21,90.21,0,0,0-3.1-18c-1.94-7.47-9.65-9.34-16.82-9.07-4.5.17-20.16.65-21.91,4.78"/><path class="cls-2" d="M44.67,124.93a49.36,49.36,0,0,1-14.91-2.55c-7.33-2.34-9.83-7.58-12.13-13.69-3.94-10.45-2.5-19.75-1-29.6.55-3.53,1.11-7.17,1.44-11,.63-7.32,1.26-13.41,3.11-19.66.2-.68.41-1.44.63-2.25,1.5-5.43,3.55-12.86,7.74-15.68l.83,1.24c-3.73,2.52-5.78,9.94-7.14,14.84-.23.82-.44,1.59-.64,2.28C20.82,55,20.2,61,19.58,68.26c-.33,3.84-.9,7.51-1.45,11.06-1.49,9.65-2.9,18.76.9,28.84,2.16,5.74,4.5,10.66,11.19,12.79,7.75,2.47,14.73,3.1,20.74,1.87C57.47,121.5,64.24,120,69,117c4.07-2.54,7.53-8.89,9.27-13.56,4.45-12,3-25.38,1-38.08a68,68,0,0,0-1.77-7.66,51.23,51.23,0,0,1-2.12-10.94,87.35,87.35,0,0,0-3.08-17.86c-2-7.86-10.94-8.71-16.07-8.52H56c-16,.59-20.21,2.67-20.91,4.31l-1.37-.58c.81-1.92,4-4.55,22.22-5.22h.34c9.62-.36,15.86,3.06,17.57,9.63a88.77,88.77,0,0,1,3.12,18.16A50.08,50.08,0,0,0,79,57.27a69.06,69.06,0,0,1,1.8,7.83c1.94,12.89,3.45,26.51-1.12,38.82-1.9,5.12-5.49,11.57-9.87,14.3-5,3.13-11.92,4.71-18.57,6.07A32.81,32.81,0,0,1,44.67,124.93Z"/><path class="cls-2" d="M51.5,67.43c-.15,2.27,1.57,5.72,2.59,7.74,1.17,2.31,3.12,3.8,5.18,5.38s4.2,1.39,6.77,1.39c1.32,0,2.43-1.09,3.54-1.86,1.33-.91.76-1.22.44-2.58A24.87,24.87,0,0,1,69.4,69a42.42,42.42,0,0,1-10.28.24C57.7,69.17,51.5,67.43,51.5,67.43Z"/><path class="cls-2" d="M64.64,82.38c-2,0-3.84-.12-5.63-1.49-2-1.53-4.08-3.12-5.3-5.53-1-1.94-2.8-5.54-2.63-8l0-.53.51.14c.06,0,6.19,1.73,7.54,1.85a41.87,41.87,0,0,0,10.18-.24l.56-.08-.07.56a24.32,24.32,0,0,0,.61,8.31c.07.29.14.53.21.73.29.87.4,1.45-.83,2.3l-.67.49A5.39,5.39,0,0,1,66,82.37h-1.4ZM51.93,68c.12,2.19,1.68,5.26,2.55,7,1.13,2.23,3,3.69,5.05,5.23,1.75,1.33,3.51,1.32,5.75,1.31H66a4.78,4.78,0,0,0,2.59-1.27l.7-.51c.76-.53.73-.62.5-1.31-.07-.23-.16-.49-.23-.81a25.85,25.85,0,0,1-.69-8,42.85,42.85,0,0,1-9.83.17C57.88,69.62,53.49,68.42,51.93,68Z"/><path class="cls-1" d="M49.26,64.81c3.27,3.13,7.68,4,12.1,4.48a20.32,20.32,0,0,0,6-.11c1.32-.26,3.21-1.19,4.33-1.08"/><path class="cls-2" d="M64.22,70.2A28.81,28.81,0,0,1,61.27,70c-4.44-.46-9-1.34-12.53-4.68l1-1.08c3.17,3,7.48,3.85,11.66,4.27a20,20,0,0,0,5.76-.1A14.29,14.29,0,0,0,68.77,68a8,8,0,0,1,3-.62l-.15,1.48a7.59,7.59,0,0,0-2.35.55,15.18,15.18,0,0,1-1.76.51A16.81,16.81,0,0,1,64.22,70.2Z"/><path class="cls-1" d="M63.74,64.51c3,0,6.14-.18,8.51-2.24"/><path class="cls-2" d="M63.74,65.26V63.77c2.86,0,5.84-.16,8-2.06l1,1.13C70.17,65.07,66.75,65.26,63.74,65.26Z"/><path class="cls-1" d="M24.76,35.68c.67-1,.18-2.57.3-3.73a31.08,31.08,0,0,1,.76-3.44,28.61,28.61,0,0,1,2.53-7.17A46,46,0,0,1,39.14,7.6C42.8,4.35,46.28,1.6,51,.88,56.22.1,59.41,2.77,62.44,6.52s3.84,9.8,2.65,14.31c-2.1-.15-4.26-1.19-6.42-1.29a18.22,18.22,0,0,0-6.91,1.17c-4.57,1.45-8.55,3.72-13,5.9a68.22,68.22,0,0,0-6.91,4.1c-2.12,1.38-5.09,3.17-6.54,5.27"/><path class="cls-2" d="M26,36.41,25.42,36l0,.07-1.24-.83a3.48,3.48,0,0,0,.2-2,8.46,8.46,0,0,1,0-1.42,15.25,15.25,0,0,1,.48-2.35c.1-.38.2-.77.29-1.17A29.28,29.28,0,0,1,27.68,21a46.58,46.58,0,0,1,11-14C42.25,3.84,45.91.9,50.94.14,56.66-.72,60.12,2.47,63,6s4.14,9.85,2.8,15l-.16.6-.62,0a17.13,17.13,0,0,1-3.21-.66,15.16,15.16,0,0,0-3.19-.63A17.54,17.54,0,0,0,52,21.42a67,67,0,0,0-10.09,4.46l-2.76,1.39a66.94,66.94,0,0,0-6.84,4.06l-.63.41C29.68,33,27.2,34.63,26,36.41ZM52.78,1.49a10.78,10.78,0,0,0-1.62.13c-4.63.7-8,3.38-11.53,6.54A45.08,45.08,0,0,0,29,21.68a27.86,27.86,0,0,0-2.47,7c-.09.42-.2.83-.3,1.23A14,14,0,0,0,25.8,32a7.31,7.31,0,0,0,0,1.17c0,.33,0,.69,0,1a30.33,30.33,0,0,1,5-3.73l.63-.41a68.16,68.16,0,0,1,7-4.15l2.74-1.38A68.2,68.2,0,0,1,51.54,20a19,19,0,0,1,7.17-1.2,16.45,16.45,0,0,1,3.51.68,21.16,21.16,0,0,0,2.3.54c1-4.5-.12-9.88-2.66-13S56.58,1.49,52.78,1.49Z"/><path class="cls-1" d="M45,43.12a19,19,0,0,1,2.1-6.69c.77-1.44,2-3.33,3.69-3.89,4.76-1.58,6.68,4.29,7,7.77.24,2.41.9,12-1,13.11s-5.1,1.26-7.32.82-4.24-1.47-4.63-3.61A24.47,24.47,0,0,1,45,43.12Z"/><path class="cls-2" d="M52,55.22A14.24,14.24,0,0,1,49.26,55c-2.93-.58-4.84-2.12-5.22-4.21A25,25,0,0,1,44.22,43h0a19.64,19.64,0,0,1,2.18-6.94c1.24-2.32,2.63-3.75,4.11-4.24a4.71,4.71,0,0,1,4.23.43c2.35,1.52,3.49,5.12,3.77,8,.2,2,1.09,12.34-1.41,13.82A10.42,10.42,0,0,1,52,55.22Zm.3-22.2a4.11,4.11,0,0,0-1.29.23c-1.11.37-2.21,1.56-3.27,3.53a18.21,18.21,0,0,0-2,6.44h0a23.81,23.81,0,0,0-.19,7.28c.36,2,2.69,2.74,4,3,2,.4,5,.34,6.79-.73,1.07-.63,1.22-7,.69-12.39-.26-2.59-1.32-5.71-3.1-6.87A3,3,0,0,0,52.27,33Z"/><path class="cls-1" d="M67.23,33.54c-2.31,2.55-2.72,6.17-2.79,9.46-.06,3-.06,7.4,1.29,10.16a14.67,14.67,0,0,0,1.89.2c2.41-.13,4.19-.57,5.88-2.49,1.49-1.7,1.29-3.78,1-6.17-.2-1.64-1.42-8.28-3.44-11.1C70,32.12,68.89,31.7,67.23,33.54Z"/><path class="cls-2" d="M67.43,54.11a5.61,5.61,0,0,1-1-.11,6,6,0,0,0-.71-.09l-.43,0-.19-.39c-1.34-2.72-1.44-6.84-1.37-10.5.07-3.36.47-7.17,3-9.95h0a3.53,3.53,0,0,1,2.69-1.46,3.23,3.23,0,0,1,2.3,1.58c2.15,3,3.36,9.79,3.57,11.44.28,2.22.59,4.74-1.18,6.76S70.26,54,67.67,54.1Zm-1.19-1.65.42.07a3.72,3.72,0,0,0,.93.09c2.31-.13,3.85-.52,5.36-2.24,1.23-1.41,1.13-3.13.82-5.59-.25-2-1.49-8.22-3.3-10.76-.44-.62-.83-.94-1.17-1s-.9.31-1.5,1h0c-2.18,2.41-2.54,5.89-2.59,9C65.14,45.21,65.06,49.66,66.24,52.46Z"/><circle class="cls-2" cx="54.48" cy="44.94" r="3.44"/><path class="cls-2" d="M54.48,48.81a3.87,3.87,0,1,1,3.87-3.87A3.87,3.87,0,0,1,54.48,48.81Zm0-6.87a3,3,0,1,0,3,3A3,3,0,0,0,54.48,41.94Z"/><ellipse class="cls-2" cx="71.29" cy="44.42" rx="2.71" ry="3.01"/><path class="cls-2" d="M71.29,47.87a3.46,3.46,0,1,1,3.15-3.45A3.31,3.31,0,0,1,71.29,47.87Zm0-6a2.6,2.6,0,1,0,2.28,2.58A2.45,2.45,0,0,0,71.29,41.84Z"/><path class="cls-1" d="M45.52,23c-2.24-.65,1.55-12.05,2.2-13.9,1.65-4.66,3.62-9.55,9.45-6.83,3.08,1.43,5,4,6.46,7,1.21,2.41,2.15,8,.83,10.61-3.42.24-5.17-.76-8.64-.42s-7.37,2.25-10.16,4"/><path class="cls-2" d="M46.07,24.06l-.59-.91-.17.55a1.49,1.49,0,0,1-.92-.79C43,20.27,46.61,10,47,8.84c1.22-3.44,2.53-6.63,5.15-7.72a6.48,6.48,0,0,1,5.32.47c2.85,1.33,4.95,3.58,6.81,7.3,1.29,2.58,2.28,8.39.83,11.28l-.19.38-.43,0a19.63,19.63,0,0,1-4.31-.24,16.68,16.68,0,0,0-4.3-.19C51.94,20.54,47.71,23,46.07,24.06ZM54.13,2.23a3.54,3.54,0,0,0-1.39.27c-2.05.86-3.21,3.73-4.32,6.84C46.28,15.41,45,21.58,45.76,22.29l-.08.26c2.24-1.39,6.2-3.51,10.08-3.89a18.34,18.34,0,0,1,4.65.19A18.94,18.94,0,0,0,64,19.1c.93-2.51.08-7.39-1-9.56-1.7-3.4-3.58-5.44-6.1-6.61A6.57,6.57,0,0,0,54.13,2.23Z"/><path class="cls-1" d="M80,66.45c.81.4,1.88,2,2.69,2.72a10.51,10.51,0,0,1,2.39,3.7,10.38,10.38,0,0,1,.19,7.32,27.14,27.14,0,0,1-9.44,12.39c-2.84,1.95-4.93,2.63-7.92,4.49,1.71-1.11-1,1,.15-.75s3.44-3.73,6.57-7S80.18,83,81.07,78.7a19,19,0,0,0,0-6.31c-.29-1.77-.64-3.56-.93-5.34"/><path class="cls-2" d="M67.9,97.78a.83.83,0,0,1-.54-.19c-.65-.53-.11-1.36.09-1.67a30.36,30.36,0,0,1,3.82-4.24c.85-.85,1.79-1.79,2.84-2.89,3.24-3.4,5.42-6.29,6.23-10.24a18.07,18.07,0,0,0,0-6c-.14-.87-.3-1.74-.46-2.62s-.33-1.82-.47-2.72l.27,0h0l.66-1.34a7.51,7.51,0,0,1,1.93,1.82,13,13,0,0,0,.93,1A11.61,11.61,0,0,1,86,80.45,27.9,27.9,0,0,1,76.27,93.2a37,37,0,0,1-4.37,2.52c-.92.47-1.86,1-2.9,1.57a2.45,2.45,0,0,1-.62.38l-.06,0h0A1.26,1.26,0,0,1,67.9,97.78ZM81.2,68.63l.18,1c.16.88.32,1.76.46,2.64a19.69,19.69,0,0,1,0,6.58c-.89,4.3-3.19,7.38-6.61,11-1.05,1.1-2,2.06-2.86,2.91s-1.55,1.55-2.17,2.21l1.05-.55A35.92,35.92,0,0,0,75.43,92a26.32,26.32,0,0,0,9.16-12,10.12,10.12,0,0,0-2.38-10.22A13.4,13.4,0,0,1,81.2,68.63Z"/><path class="cls-1" d="M19.23,61.52c-1-.06-4.58,1.88-5.35,2.55a11.17,11.17,0,0,0-2.54,3.13c-1.15,2.18-1.22,4.58-1.22,7,0,4.8.54,8.88,2.84,13a11.89,11.89,0,0,0,2.81,3.42c.33-5-.83-9.82,1.82-14.32,2.76-4.68,7.86-3.61,12.1-2.1a34.92,34.92,0,0,1,5.82,3.33c2,1.22,4.11,3.77,5.75,5.34,3.41,3.26,5.29,6.19,9,9A34.5,34.5,0,0,0,56,95.7c1.49.71,4.22,2.21,5.67,1.83l-.3-2.09C59.17,95.08,55,90,53.74,88.11S45.09,76.69,43.36,74.87a42.89,42.89,0,0,0-4.11-3.79,25.45,25.45,0,0,0-5.08-3c-5.86-2.72-9.64-2.82-16-.9.53.13.28.32.6.15"/><path class="cls-2" d="M61.14,98.33c-1.48,0-3.4-.94-4.86-1.66l-.62-.3A29.89,29.89,0,0,1,50.54,93l-.7-.53A38.43,38.43,0,0,1,44.18,87c-1-1.16-2.13-2.36-3.43-3.6-.48-.46-1-1-1.55-1.57a24.16,24.16,0,0,0-4.08-3.67c-.43-.27-.89-.56-1.35-.86a23.16,23.16,0,0,0-4.33-2.4c-4.15-1.48-8.73-2.43-11.2,1.77-1.8,3-1.74,6.29-1.68,9.73,0,1.38.05,2.81,0,4.27l-.09,1.38-1.1-.84a12.7,12.7,0,0,1-3-3.65C9.73,83,9.37,78.44,9.37,74.22c0-2.57.1-5.07,1.31-7.37a12,12,0,0,1,2.71-3.34c.73-.63,4.43-2.73,5.81-2.73h.08l-.09,1.49a17.14,17.14,0,0,0-4.82,2.37A10.44,10.44,0,0,0,12,67.55c-1.05,2-1.14,4.21-1.14,6.67,0,4,.33,8.32,2.74,12.63A13.17,13.17,0,0,0,15.08,89c0-.84,0-1.68,0-2.51-.06-3.49-.13-7.1,1.88-10.51,3.44-5.83,10.38-3.35,13-2.42a24.18,24.18,0,0,1,4.64,2.55l1.32.84a25.17,25.17,0,0,1,4.37,3.91c.53.55,1,1.08,1.51,1.53,1.34,1.28,2.44,2.5,3.5,3.68a37.24,37.24,0,0,0,5.46,5.26l.71.53A28.76,28.76,0,0,0,56.3,95l.64.31a15.24,15.24,0,0,0,3.86,1.49L60.69,96c-2.8-1-6.84-6.4-7.57-7.49-1.42-2.13-8.65-11.41-10.3-13.14a41.92,41.92,0,0,0-4-3.72,24.09,24.09,0,0,0-4.93-2.89C28.5,66.28,24.94,66,19,67.74l.15.27A.88.88,0,0,1,18,67.93s0,0,0,0l-2.64-.65,2.6-.79c6.65-2,10.66-1.79,16.51.93a25.52,25.52,0,0,1,5.23,3.08,43.57,43.57,0,0,1,4.18,3.86c1.81,1.89,9.17,11.41,10.46,13.34,1.55,2.31,5.42,6.73,7.12,7l.54.09.47,3.29-.64.17A2.74,2.74,0,0,1,61.14,98.33Z"/><path class="cls-1" d="M60.76,98.42c-2.63.55-6.3,2.91-4.78,6.12.69,1.45,1.39,2.11,1.5,3.88S56.85,111,56,112.29c3.74.65,7.33-3.25,6.14-6.73-.52-1.53-1.55-3.17-.82-4.79.28-.63,1.6-1,.91-2.06-.51-.82-2-.42-2.66-.14"/><path class="cls-2" d="M56.81,113.1a5.53,5.53,0,0,1-.94-.08l-1.14-.2.83-1.23a4.55,4.55,0,0,0,1.17-3.12,5.13,5.13,0,0,0-.85-2.51c-.19-.33-.38-.68-.58-1.1a3.94,3.94,0,0,1,0-3.55,7.34,7.34,0,0,1,4.07-3.26l-.07-.18c1.68-.66,3-.5,3.57.44a1.75,1.75,0,0,1-.56,2.46,2,2,0,0,0-.3.29c-.44,1,0,2.08.46,3.23.14.34.27.68.39,1a5.64,5.64,0,0,1-1.22,5.48A6.4,6.4,0,0,1,56.81,113.1ZM60.88,99l0,.16c-1.6.34-3.58,1.41-4.28,2.82a2.44,2.44,0,0,0,0,2.25c.18.38.36.7.53,1a6.56,6.56,0,0,1,1,3.15,5.15,5.15,0,0,1-.86,3.2,5,5,0,0,0,3.12-1.75,4.17,4.17,0,0,0,.95-4c-.1-.31-.23-.62-.36-.93-.53-1.33-1.14-2.83-.44-4.4a2.39,2.39,0,0,1,.69-.81,1.68,1.68,0,0,0,.36-.36h0a.51.51,0,0,0-.08-.18C61.52,99,61.26,98.94,60.88,99Z"/><path class="cls-1" d="M68.67,97.67c2.41.56,4.38,2.12,4,4.75s-1.14,4.65-.23,7.2c.56,1.56.93,2-.93,2.1-1.17,0-3.28-.18-4.19-1-1.73-1.58-.54-4.83.46-6.46.63-1,1.18-1.69,1-3"/><path class="cls-2" d="M71.23,112.46c-1.27,0-3.36-.25-4.41-1.21-2.13-2-.72-5.69.32-7.4l.23-.37a3,3,0,0,0,.71-2.16l1.48-.15a4.44,4.44,0,0,1-.93,3.1l-.22.35c-.92,1.5-1.89,4.33-.59,5.52a6.34,6.34,0,0,0,3.66.81,4.69,4.69,0,0,0,.63-.05c0-.17-.14-.42-.22-.63l-.15-.42a10.87,10.87,0,0,1-.07-6c.09-.5.19-1,.27-1.55.39-2.72-2.27-3.64-3.43-3.92l.34-1.45c3.21.75,5,2.89,4.57,5.58-.08.55-.18,1.08-.28,1.61a9.43,9.43,0,0,0,0,5.23l.15.4c.3.81.53,1.45.15,2a2.27,2.27,0,0,1-1.91.67Z"/><path class="cls-1" d="M64.49,96c3.55-4,8.7,5.59,3,7.88-4.7,1.89-10.34-3.51-7-8,1.91-2.61,3.57-.59,5.38.44"/><path class="cls-2" d="M65.49,105a7.18,7.18,0,0,1-5.5-2.73,5.52,5.52,0,0,1-.13-6.87c1.78-2.43,3.62-1.55,5-.67a2.88,2.88,0,0,1,2.61-.25c1.85.7,3.32,3.12,3.35,5.52a4.64,4.64,0,0,1-3,4.55A6.06,6.06,0,0,1,65.49,105Zm-3-9.7c-.47,0-.89.29-1.4,1a4,4,0,0,0,.11,5.07,5.35,5.35,0,0,0,6,1.83,3.14,3.14,0,0,0,2.09-3.15c0-1.77-1.11-3.67-2.38-4.15a1.44,1.44,0,0,0-.79-.08L65.46,97c-.35-.2-.69-.43-1-.67A4.13,4.13,0,0,0,62.45,95.35Z"/><path class="cls-1" d="M19.53,74.67C8.59,78.87.56,132.18,12,131.46c3.84-.24,4.13-8.11,5.15-10.49a107.13,107.13,0,0,1,5-9.85c2.09-3.75,3.84-7.69,5.92-11.42,1.76-3.16,4.14-5.61,6-8.6"/><path class="cls-2" d="M11.82,132.21c-1.86,0-4.19-1.2-5.37-6.59C5,118.91,5.7,107.25,8.27,95.92c1.33-5.84,5-19.66,11-21.95l.53,1.39c-8,3.09-14.88,36.26-11.89,49.95.56,2.55,1.75,5.56,4.09,5.41s3.1-4.14,3.72-7.06a18.39,18.39,0,0,1,.79-3,108.5,108.5,0,0,1,5-9.92c1-1.85,2-3.79,2.93-5.66s1.93-3.87,3-5.76a41.76,41.76,0,0,1,3.45-5c.89-1.16,1.81-2.36,2.61-3.63l1.26.8C34,92.82,33,94.05,32.11,95.24a40.58,40.58,0,0,0-3.33,4.82c-1,1.86-2,3.81-3,5.7s-1.92,3.84-3,5.72a106.93,106.93,0,0,0-5,9.78,18.33,18.33,0,0,0-.7,2.71c-.72,3.39-1.71,8-5.09,8.23Z"/><path class="cls-1" d="M5.79,128.15c-1.17-7.22,12.41-10.4,12.85-2.09"/><path class="cls-2" d="M5.05,128.26a6.22,6.22,0,0,1,2.62-6A8.85,8.85,0,0,1,16.21,121a5.55,5.55,0,0,1,3.17,5l-1.49.08a4.07,4.07,0,0,0-2.31-3.76,7.29,7.29,0,0,0-7,1.08,4.78,4.78,0,0,0-2,4.61Z"/><path class="cls-1" d="M45.82,23.09C49,20.7,60.26,16.15,64.14,14c3.6-2,7.79-3.79,11.35-5.78,3.23-1.8,13-6.07,15-.5,1.64,4.55-3.62,9.33-7.16,11.51C81,20.69,78.44,21.86,76,23.1c-1.64.83-3.66,2.13-5.34,2.4.07-2.33-4.84-4.59-6.75-5.06a43.3,43.3,0,0,0-9.73-1h.32"/><path class="cls-2" d="M69.87,26.39l0-.9c0-1.61-4-3.79-6.18-4.31a42.25,42.25,0,0,0-9.55-1v-.61a55.72,55.72,0,0,0-7.9,4.15l-.89-1.19c2-1.52,7.14-3.85,11.64-5.9,2.73-1.24,5.31-2.42,6.77-3.22,1.75-1,3.67-1.9,5.52-2.8s4-2,5.82-3c.35-.19,8.55-4.72,13.29-2.94A4.56,4.56,0,0,1,91.21,7.5c1.81,5-3.85,10.16-7.48,12.4-1.75,1.08-3.65,2-5.49,2.92l-1.92,1-1.21.64a15.21,15.21,0,0,1-4.35,1.83ZM56,18.69a41.79,41.79,0,0,1,8.07,1c1.7.42,6.27,2.33,7.16,4.87a19.6,19.6,0,0,0,3.17-1.5c.43-.23.85-.46,1.25-.66l1.94-1c1.81-.89,3.68-1.81,5.37-2.85,3.25-2,8.34-6.48,6.85-10.62A3.09,3.09,0,0,0,87.9,6c-3.28-1.23-9.31,1.33-12,2.85-1.86,1-3.91,2-5.9,3s-3.74,1.83-5.46,2.77c-1.51.83-4.11,2-6.87,3.27Z"/><path class="cls-1" d="M49.4,31.05c-.39.12-.38.46-.84.25-2-4.95,5.6-12.91,10.66-10.66.1,1.94.5,4.59-.6,6.17-4.51-.18-6.66,4.7-10.7,4.83"/><path class="cls-2" d="M47.94,32.4l0-.7,0-.11c-1.21-3,.71-6.77,3.14-9.11,2.76-2.65,6-3.61,8.51-2.5l.42.19,0,.46c0,.29,0,.59.06.9.13,1.86.29,4.17-.8,5.73l-.23.33-.41,0c-2.09-.08-3.65,1.09-5.3,2.33S50.09,32.32,47.94,32.4Zm1.25-2.06.09.29a12.27,12.27,0,0,0,3.11-1.92c1.6-1.21,3.4-2.57,5.8-2.64.57-1.15.45-2.9.34-4.45l0-.44c-2.21-.69-4.75.73-6.46,2.37-2.21,2.12-3.36,4.83-3,6.84Z"/><path class="cls-1" d="M5.25,156.66c-2.81-1.59-3.79-9.09-4.24-12.39-.57-4.21-.26-9.45,1.79-13a12.76,12.76,0,0,1,20.69-1.94c4.23,4.84,7.17,16,5.62,22.41-1,4.25-5.37,5.21-7.41,1.16-.83-1.65-.93-3.35-1.78-5-1-1.88-1.75-2-2.86-3.68"/><path class="cls-2" d="M4.88,157.31c-2.72-1.54-3.81-7.07-4.59-12.81l0-.14c-.7-5.17,0-10.2,1.88-13.45a13.32,13.32,0,0,1,10.34-6.66A13.45,13.45,0,0,1,24,128.85c4.48,5.13,7.35,16.56,5.78,23.07-.58,2.41-2.17,4.06-4.16,4.29s-3.6-.89-4.65-3a13.9,13.9,0,0,1-.93-2.59,12,12,0,0,0-.85-2.36,7.29,7.29,0,0,0-1.43-1.92,11.16,11.16,0,0,1-1.39-1.69l1.24-.83a9.54,9.54,0,0,0,1.22,1.48,8.75,8.75,0,0,1,1.68,2.27,13.31,13.31,0,0,1,1,2.65,12.66,12.66,0,0,0,.82,2.32c.76,1.51,1.9,2.3,3.14,2.16s2.46-1.39,2.88-3.16c1.45-6-1.31-17-5.46-21.74a12,12,0,0,0-10.28-4.09,11.84,11.84,0,0,0-9.2,5.92c-2,3.5-2.21,8.75-1.7,12.5l0,.14c.38,2.82,1.4,10.32,3.85,11.71Z"/><path class="cls-1" d="M5.15,144.76c-.7,4.51-.47,8.56,1.78,12.54.94,1.67,2.13,4,3.91,4.58,1.6.56,4.72-.37,4.2-2.29"/><path class="cls-2" d="M11.9,162.78a4,4,0,0,1-1.3-.2c-1.93-.67-3.14-2.83-4.12-4.57l-.2-.35c-2.11-3.73-2.69-7.75-1.87-13l1.47.23c-.77,4.92-.24,8.64,1.69,12.05l.2.35c.85,1.52,1.91,3.41,3.31,3.89a3.49,3.49,0,0,0,3-.59.74.74,0,0,0,.26-.81l1.44-.39a2.22,2.22,0,0,1-.68,2.29A4.88,4.88,0,0,1,11.9,162.78Z"/><path class="cls-1" d="M10,145.2a17.51,17.51,0,0,0,1.37,11.5c1.3,2.56,4.3,7.21,7.53,6.09,4.51-1.56,2-6,.5-8.82s-3.16-7.74-2.22-11.29"/><path class="cls-2" d="M17.92,163.71c-3.51,0-6.34-5-7.19-6.67a18.31,18.31,0,0,1-1.44-12l1.46.29a16.83,16.83,0,0,0,1.31,11c.58,1.14,3.61,6.77,6.61,5.72a2.83,2.83,0,0,0,1.89-1.54c.64-1.65-.72-4.19-1.71-6l-.1-.18c-1.68-3.12-3.28-8.1-2.28-11.84l1.44.38c-.83,3.11.49,7.64,2.15,10.75l.1.18c1.13,2.11,2.68,5,1.79,7.28a4.27,4.27,0,0,1-2.79,2.41A3.78,3.78,0,0,1,17.92,163.71Z"/><path class="cls-1" d="M65.84,27.17c.34-2.47-1.41-7.39,2.76-4.85,2.64,1.61,3.86,5,3.71,7.74C70.25,31.23,67.9,27.64,65.84,27.17Z"/><path class="cls-2" d="M71.43,31c-1.25,0-2.45-.93-3.54-1.78a7.08,7.08,0,0,0-2.22-1.37L65,27.75l.09-.68a11.82,11.82,0,0,0,0-2.12c-.11-1.66-.22-3.22.84-3.86s2.21.06,3.07.59c3,1.83,4.22,5.65,4.07,8.42l0,.4-.35.2A2.47,2.47,0,0,1,71.43,31Zm-4.81-4.4a10.85,10.85,0,0,1,2.18,1.44c1.18.92,2.07,1.55,2.77,1.45A7.91,7.91,0,0,0,68.21,23c-1.2-.73-1.52-.59-1.53-.59-.28.17-.17,1.8-.13,2.49S66.64,26.08,66.62,26.65Z"/><path class="cls-1" d="M64.64,78.25c2.08-3.15,7.4,1.72.6,3-2.42.45-7.85.19-7.42-3.53,2.32-.51,5.7-1.53,7.72.25"/><path class="cls-2" d="M63.27,82.15c-1.82,0-3.92-.38-5.15-1.53a3.4,3.4,0,0,1-1-3l.06-.53.52-.11.71-.16c2-.47,4.73-1.09,6.78,0a2.9,2.9,0,0,1,2.3-.16,2.58,2.58,0,0,1,1.89,2.49c-.06.8-.65,2.23-4,2.85A11.78,11.78,0,0,1,63.27,82.15Zm-4.73-3.84a1.82,1.82,0,0,0,.59,1.22c1.29,1.2,4.26,1.29,6,1,2-.37,2.71-1,2.74-1.49s-.36-.8-.88-1a1.39,1.39,0,0,0-1.7.62l-.9-.6c-1.56-.74-3.81-.22-5.66.21Z"/><path class="cls-1" d="M27.2,68.59c3.88.2,5.39.35,9.06,2.69,2.63,1.67,7.21,6.34,8.36,9.36"/><path class="cls-2" d="M27.5,68.94a15.77,15.77,0,0,1,10,3.78c2.49,2.1,5.14,4.78,6.41,7.83.17.41,1.58.56,1.43.2-1.48-3.54-4.69-6.75-7.74-9a18.5,18.5,0,0,0-10.7-3.5c-1-.05.15.66.6.69Z"/><path class="cls-1" d="M67,96.78a3,3,0,0,1,.9,2.69"/><path class="cls-2" d="M66.84,98.2a3.39,3.39,0,0,1,.6.79c.06.12.09.35.17.43l0,.07a3.54,3.54,0,0,1,0-.46,6.11,6.11,0,0,0,0,1.15c0,.11,0,.6.15.7.32.25.46-.9.48-1,.2-1.59.18-3.32-1-4.53-.29-.3-.46.9-.48,1a5.93,5.93,0,0,0,0,1.15c0,.2,0,.55.15.7Z"/><path class="cls-1" d="M82.72,73.08c1.79,3.78,1.59,7.07-1.29,10"/><path class="cls-2" d="M82.53,74.5c1.21,2.7.94,4.93-1.09,7.09-.54.58-.09,2.94,0,2.88,3.35-3.56,3.42-8.53,1.5-12.83-.16-.36-.47,1-.48,1a3.47,3.47,0,0,0,.1,1.85Z"/><ellipse class="cls-1" cx="32.68" cy="50.77" rx="5.38" ry="6.57"/><path class="cls-2" d="M38.51,50.77a8,8,0,0,1-1.41,4.74,5.36,5.36,0,0,1-9,.1,8.26,8.26,0,0,1,0-9.67,5.7,5.7,0,0,1,4.55-2.37A5.61,5.61,0,0,1,37.09,46,8.15,8.15,0,0,1,38.51,50.77Zm-.92,0a6.83,6.83,0,0,0-1.37-4.09,4.44,4.44,0,0,0-3.55-1.85,4.38,4.38,0,0,0-3.41,2,7.06,7.06,0,0,0,0,8,4.12,4.12,0,0,0,6.94.1A7,7,0,0,0,37.59,50.77Z"/><path class="cls-2" d="M35.1,56.82c.28-.1.37-.07.41,0l.12.18.24.36.49.73,1,1.45,2,2.9,2,2.9a17.24,17.24,0,0,0,2.11,2.61A15.14,15.14,0,0,0,49,71.5a15.44,15.44,0,0,0,3.28.8l3.47.48-.09.79-3.49-.29a16.51,16.51,0,0,1-3.54-.7,16.28,16.28,0,0,1-8.52-6.47l-2-2.88-2-2.88-1-1.44-.49-.72-.25-.36-.12-.18c0-.06,0-.15.16-.38Z"/><rect class="cls-1" x="55.68" y="71.38" width="5.97" height="3.58" rx="1.79" ry="1.79"/><path class="cls-1" d="M59.86,75.71H57.47a2.54,2.54,0,0,1,0-5.08h2.39a2.54,2.54,0,0,1,0,5.08Zm-2.39-3.58a1,1,0,0,0,0,2.09h2.39a1,1,0,0,0,0-2.09Z"/><path class="cls-1" d="M31.3,44.42s-.72-4.11.47-13.67"/><path class="cls-2" d="M30.69,44.53A23.09,23.09,0,0,1,30.37,41c0-1.16,0-2.32.05-3.47s.15-2.3.27-3.45.28-2.28.46-3.42l1.23.15-.28,3.39c-.07,1.13-.17,2.26-.21,3.39s-.1,2.26-.1,3.38,0,2.27.1,3.32Z"/><path class="cls-1" d="M34.06,44.42s1-11.4,3.23-17"/><path class="cls-2" d="M33.36,44.36c.11-1.46.27-2.9.45-4.35s.38-2.89.63-4.32.53-2.87.88-4.3a30,30,0,0,1,1.31-4.25l1.3.52a32.68,32.68,0,0,0-1.2,4.06c-.33,1.39-.59,2.8-.83,4.21-.49,2.83-.85,5.69-1.15,8.54Z"/></svg>