<svg id="Icons" xmlns="http://www.w3.org/2000/svg" viewBox="0 0 287.98 509.48"><defs><style>.cls-1{fill:#10069f;}.cls-2{fill:#0d0487;}</style></defs><title>og-full-width</title><path class="cls-1" d="M173.29,246.21c11.19-13,33.41-46.13,40.59-55.47,7.51-10.3,11.71-22.6,19-32.92a155.18,155.18,0,0,0,7.8-14c3.5-6.66,4.29-10.31-1.47-15.72-2.55-2.19-5.1-5.18-8.55-4.65L223,126.32c-.31,3.94-4.55,7.32-6.3,10.64-2.63,5-5,10.5-8.41,15.43-3.94,5.88-8.76,10.45-13.6,15.26-5.09,4.8-8.68,9.46-14.88,12.68-3.62,1.94-9.2,6.7-13.39,6.36"/><path class="cls-2" d="M174.21,246.26c13.23-14.72,24.22-31.32,35.78-47.35,5.32-7.38,10.41-14.61,14.65-22.71,6.41-12.26,16.45-24.53,20.71-37.79,2.32-7.23-3.29-16.66-11.24-17.54-4-.44-10.08,2.16-12.89,5s-4.75,7.88-6.82,11.35c-3.91,6.56-6.53,13.49-11.46,19.48a156.27,156.27,0,0,1-15.41,15.8c-4.33,3.94-13.17,11-19.41,11.5-2,.16-6.36,5.66-3.47,5.43,6.26-.49,12.16-5,17.24-8.3,6.77-4.43,12.33-10.68,18-16.41a83.86,83.86,0,0,0,13.94-18c3.91-7,9.94-14.18,12-22l-3.93,4.11c5.25-2,7.72-4,12.74,0,9.37,7.43,4.15,15.08-.7,23.69-7.54,13.38-14.76,27.89-23.72,40.33-12.83,17.79-24.47,36.63-38.2,53.75-1.82,2.26,1.49.46,2.22-.36Z"/><path class="cls-1" d="M235.91,128.84c22.39-1.19,48.14-25.89,34.46-50-2.54-5.4-11.43-15-19-13.41-9.84,2.19-6.88,11.71-11.1,18.06-4.28,7.09-8.33,1.94-13.35,9-2.51,3.52-4.25,16-4.6,20.44-.29,3.69,2.31,8.36,2.75,12.11"/><path class="cls-2" d="M235.07,130.12c15.69-1.21,31.29-11.27,37.89-25.78,6.26-13.76.72-34.95-15-40a12.18,12.18,0,0,0-14,4.94,20.4,20.4,0,0,0-2.39,6.21c-1.78,6.4-5.29,9.19-10.9,12.16-4.77,2.52-6.66,7.28-7.87,12.23a72.35,72.35,0,0,0-2.08,12.47c-.31,4.94,1.65,9.06,2.64,13.85.33,1.59,3.77-.88,3.45-2.39-1.32-6.36-3-11.36-2-17.91.46-3,.81-6.5,1.89-9.36,1.57-4.16,5.34-5.44,8.66-7.52,7.36-4.62,6.57-9.37,10-16.57,5.78-12.26,17.46-1.25,21.56,4.52a28.89,28.89,0,0,1,5.52,19.37c-1.73,17.45-19.35,29.64-35.65,31.23-.92.09-3,2.68-1.69,2.57Z"/><path class="cls-1" d="M224.42,120.74a22.69,22.69,0,0,1-3.41-7c-1.84-4.85,1.71-9,1.1-13.78-.63-4.51-5.08-10.81-7.23-14.94-2.31-5.14-5.51-9.46-3.34-15,3.68-8.87,17.12-8.69,17.52,1.75.12,4.72,1.35,17.2,9,15.08"/><path class="cls-2" d="M225.48,119.74c-3.66-7.05-2.48-10.31-1.87-17.76.29-3.57-.79-6.38-2.39-9.57-1.87-3.74-4.19-7.2-6-11-1.09-2.27-2.51-4.55-2.48-7.17,0-3.85,5.25-10,9.82-8.65,9.35,2.78,1.29,24.67,14.57,22.69,1-.16,3.23-3,1.77-2.81-10.77,1.53-5.68-16.38-11.07-21.2-4.21-3.77-10.61-2-14.36,1.45-6.61,6.11-3.67,13.71,0,20.64,3.78,7.17,7.36,11.6,6.48,19.92-.68,6.44-.66,10,3.42,15.43.4.54,2.48-1.3,2.13-2Z"/><path class="cls-1" d="M245.84,126.14c2.09-1.32,9.33.27,11.38-.55,6.14-2.48,9.62-5.67,12.8-11.37,1.41-2.12,1.85-4.56,4.2-6.11,3.13-2,5.78-1,8.08-5.05a55.94,55.94,0,0,0,4.19-15.27c.85-7.61-1.52-18.2-12-14.58-8.64,2.78-5,16.44-12.14,21.82"/><path class="cls-2" d="M245.17,127c5.31-1.21,9.28,1,14.33-1.45a26.44,26.44,0,0,0,10.27-9.19c2.81-4.17,5.15-6.12,9.22-9.17a23.11,23.11,0,0,0,2.77-2c3.7-3.73,4.94-10.73,5.78-15.64,1.25-7.36.4-19.84-10-18.32C265,73,268.78,87.37,261.78,94.38c-1.61,1.61-.52,2.81,1.22,1.31,4.35-3.76,4.61-8.26,6.44-13.35,1.46-4.07,7.91-10.22,12.47-6.71,1.48,1.14,2.15,3.26,2.63,5,1.21,4.28.56,8.83-.38,13.1-1.33,6.07-3.13,9-7.92,12.4-1.93,1.35-3.44,1.94-5,3.94-4.63,6-5.66,13.77-16,14.47-3.18.22-6-.54-9,.82-.34.16-1.94,1.89-1.15,1.71Z"/><path class="cls-1" d="M258.9,70.48c-1.74-6.08-17-19.93-22.18-10.69-2.85,4.73,2.38,10.59,3.48,15.39.67,4-.08,13.37-5.57,13.92"/><path class="cls-2" d="M260,69.63c-1.83-7-12.86-17.43-20.62-13.57a9,9,0,0,0-4.84,9.62c.62,3.56,3,6.47,3.9,9.94s.79,10.72-3.28,12.41c-.44.18-2.61,2.25-1.32,2.22,8.82-.27,9.16-13.84,6.67-19.59-1.23-2.84-6.28-10.89,0-12.47,2.37-.6,6,1.61,7.78,2.8,3.75,2.49,7.72,6.29,9.58,10.47.21.47,2.3-1.19,2.14-1.82Z"/><path class="cls-1" d="M273.49,73.87c3.4-8.4-14.59-19-16.87-9-1.76,6.55-1.3,19.47-6.93,24.71"/><path class="cls-2" d="M274.48,73.24c3-7.43-7.53-16.15-14.61-13.33-3.71,1.48-4.77,5.14-5.39,8.73-1.23,7-1.09,14.8-5.73,20.64-1.37,1.72.26,2,1.55.92,6.5-5.64,5.91-16,7.32-23.69.48-2.62,1.16-4.64,4.28-4.23a12.87,12.87,0,0,1,5.56,2.44c3,2.18,6,5.81,5,9.78-.21.84,1.79-.78,2-1.27Z"/><path class="cls-1" d="M246.78,101.22c-8.14-.4-15.12,9.45-15.69,16.58"/><path class="cls-2" d="M248.53,99.28c-5.17-.37-9.76,2.88-13.13,6.52-3.17,3.41-6.77,8.82-6.5,13.7.08,1.48,4.12-2.16,4.35-3,1.63-6.24,4.35-12.92,11.8-13.31,1.27-.07,4.51-3.81,3.49-3.88Z"/><path class="cls-1" d="M243.65,137.38c-6.26,1.08-12.76-1.51-18.19-4.92-3.31-2-10.18-9-5.64-13.08,4.27-3.87,8.51,3.19,15.65,5.71,5.72,2,14.72.25,14.86,4.72C250.33,129.8,252.25,135.9,243.65,137.38Z"/><path class="cls-2" d="M244.48,136.13a27.09,27.09,0,0,1-21.18-8.06,11.32,11.32,0,0,1-2.31-3.22c-.63-1.54-1.12-4.4,1.57-4.8,1.83-.27,5.42,3.35,6.95,4.32,4.54,2.88,8.71,3,13.84,3.71,6.61.91,7,5.3.85,8.13-.44.2-2.87,2.45-1.37,2.42,4.88-.11,10.64-4.46,9.19-9.94-.85-3.24-3.79-3.5-6.77-3.88-6.89-.86-10.91-2.52-16.8-6.2-2.89-1.8-5.44-2.77-8.42-.71a7,7,0,0,0-3.21,7c1.94,10.06,17.53,15,26,13.73C243.66,138.51,245.8,136,244.48,136.13Z"/><path class="cls-1" d="M30.71,471.79c-3,8.15,3.44,11.77,7.64,17.38,4.06,5.44,7.81,10.13,14.22,12.81,5.73,2.4,14.92,5.7,22.35,5.68a64.38,64.38,0,0,0,23.56-4c9.29-3.55,10.9-5.88,10.87-12.68s-5.54-10.45-13.41-9.54"/><path class="cls-2" d="M74.86,509.48c-7.5,0-16.63-3.16-23-5.82-6.69-2.8-10.58-7.52-15-13.4-.92-1.23-2-2.39-3-3.52-3.55-3.88-7.58-8.28-4.87-15.58l3.39,1.26c-1.95,5.23.61,8,4.14,11.87a49.4,49.4,0,0,1,3.24,3.79c4.19,5.61,7.61,9.77,13.47,12.23,6,2.53,14.7,5.54,21.59,5.54h.06A63,63,0,0,0,97.84,502c8.78-3.35,9.73-5.19,9.71-11a7.28,7.28,0,0,0-2.32-5.68c-2-1.78-5.22-2.51-9.07-2.07l-.41-3.59c4.89-.56,9.11.49,11.89,3a10.89,10.89,0,0,1,3.54,8.38c0,7.86-2.33,10.68-12,14.38a66.49,66.49,0,0,1-24.19,4.11Z"/><path class="cls-1" d="M113.1,460.44c.41,1.74-.94,3.75-.49,5.8a7.25,7.25,0,0,0,2.66,3.68c2.72,2,6.8,2.11,9.74,3.74,6.92,3.85,13.1,7.37,20.71,9.67,7.36,2.22,17.47,2.51,25.24,2,11.6-.72,17-2.47,23.72-6.14,4.8-2.62,5.76-3.17,8-6.46s.75-3.71.72-7.72c0-5.72-5-10.76-9.45-14-8.07-5.85-17.65-8.09-27.49-7.56-3.1.17-5.89,1.67-9,2a58,58,0,0,0-9.74,1.69,107.82,107.82,0,0,0-14.67,4.58,68.37,68.37,0,0,0-8.92,4.12c-2,1.23-4.13,3.6-6.54,3.86"/><path class="cls-2" d="M164.4,487.37c-5.63,0-13-.44-19.22-2.31-7.49-2.26-13.69-5.71-20.24-9.36l-.82-.46a18.35,18.35,0,0,0-4-1.41,17.33,17.33,0,0,1-5.94-2.46,9.06,9.06,0,0,1-3.34-4.74,8.58,8.58,0,0,1,.25-3.93,5,5,0,0,0,.24-1.86l3.52-.82a7.53,7.53,0,0,1-.24,3.51,3.83,3.83,0,0,0,1.72,4.93,14.46,14.46,0,0,0,4.74,1.88,21.25,21.25,0,0,1,4.8,1.74l.82.46c6.66,3.71,12.41,6.91,19.53,9.06,6,1.81,15.2,2.54,24.61,2,11.63-.73,16.67-2.49,23-5.92,4.64-2.53,5.36-2.92,7.43-5.9,1.08-1.55,1-1.92.76-3.3a17.84,17.84,0,0,1-.35-3.37c0-5.42-5.47-10.17-8.71-12.52-7.26-5.26-16.37-7.75-26.33-7.22a19.24,19.24,0,0,0-4.29.93,24.13,24.13,0,0,1-4.59,1,55.82,55.82,0,0,0-9.44,1.64l-1.2.32a96.64,96.64,0,0,0-13.23,4.18l-2.18.91a45.47,45.47,0,0,0-6.5,3.08,20.36,20.36,0,0,0-1.76,1.28c-1.58,1.22-3.36,2.61-5.53,2.83l-.38-3.6c1.14-.12,2.43-1.12,3.69-2.1a23.3,23.3,0,0,1,2.1-1.51,48.81,48.81,0,0,1,7-3.34l2.14-.89a99.5,99.5,0,0,1,13.73-4.35l1.19-.32a59.73,59.73,0,0,1,10-1.74,20.78,20.78,0,0,0,3.91-.89,22.15,22.15,0,0,1,5.11-1.07c10.81-.6,20.72,2.15,28.65,7.9,3.79,2.75,10.15,8.41,10.2,15.42a14.46,14.46,0,0,0,.29,2.74c.37,2,.46,3.42-1.35,6-2.56,3.68-3.85,4.39-8.67,7-6.63,3.62-12.24,5.59-24.48,6.36C169.51,487.26,167.17,487.37,164.4,487.37Z"/><path class="cls-1" d="M103.92,305.09a168.78,168.78,0,0,1,12.34,32.63c2.8,10.64,3.3,21.39,5,32.64,1.68,11,1.61,22.2,2.21,34,.3,5.82.09,12.6,4.88,16.85s12,6.23,15.27-.18c2.37-4.69.41-12.37.14-17.39-.31-5.91,1.22-11.18,1.47-16.65.54-11.82.73-23.32,2.9-34.81A236.73,236.73,0,0,1,170,287.72c4.73-9.22,12.49-17.4,16.66-26.67,3.92-8.7-1.36-9.85-9.55-13.19-7.11-2.9-13.5-6-21.18-6.55-7.32-.51-14.36,1.84-21.61,1.46"/><path class="cls-2" d="M137.27,427c-3.26,0-6.92-1.57-10.11-4.4-4.9-4.34-5.17-10.75-5.41-16.41l-.08-1.7c-.16-3.22-.28-6.39-.39-9.53a212,212,0,0,0-1.8-24.32c-.58-3.77-1-7.51-1.45-11.14-.87-7.37-1.7-14.34-3.53-21.31a167.21,167.21,0,0,0-12.22-32.29l3.24-1.6a170.65,170.65,0,0,1,12.47,33c1.9,7.22,2.74,14.3,3.63,21.81.42,3.59.86,7.3,1.43,11a214.5,214.5,0,0,1,1.84,24.73c.11,3.12.23,6.27.39,9.48l.08,1.74c.22,5.18.44,10.53,4.19,13.85,2.9,2.57,6.26,3.87,8.78,3.4a5.14,5.14,0,0,0,3.68-3c1.51-3,.92-7.79.4-12-.19-1.59-.38-3.09-.45-4.45a53.05,53.05,0,0,1,.76-10.41c.31-2.21.61-4.29.7-6.42q.12-2.54.22-5.07c.43-10.3.83-20,2.71-30a239.51,239.51,0,0,1,22.06-65,109.25,109.25,0,0,1,8-12.58c3.32-4.73,6.45-9.19,8.62-14,1.12-2.48,1.43-4.26.94-5.45-.74-1.83-3.72-3-7.49-4.51l-2-.81-3-1.24c-5.83-2.44-11.33-4.74-17.63-5.18a53,53,0,0,0-10.73.7,58.4,58.4,0,0,1-10.86.76l.19-3.61a54.08,54.08,0,0,0,10.19-.73,57.25,57.25,0,0,1,11.45-.73c6.89.48,12.66,2.89,18.78,5.45l3,1.23,2,.8c4.58,1.82,8.19,3.25,9.51,6.51.88,2.19.57,4.82-1,8.29-2.31,5.13-5.69,9.95-9,14.6a106.64,106.64,0,0,0-7.74,12.15,235.91,235.91,0,0,0-21.72,64c-1.83,9.7-2.23,19.31-2.65,29.47q-.1,2.53-.22,5.08c-.1,2.3-.43,4.57-.74,6.76a50.14,50.14,0,0,0-.73,9.72c.06,1.23.24,2.67.43,4.2.58,4.75,1.24,10.14-.76,14.11a8.75,8.75,0,0,1-6.23,5A9.36,9.36,0,0,1,137.27,427Z"/><path class="cls-1" d="M122,427.58c-9.44,4.44-12.15,21.28-10.87,30.44,1.75,12.52,12.16,11.07,21.22,16.47,16.51,9.85,50.94,12.45,67.93-3.43,7.71-7.21,2.78-13.68,2.9-23.92.14-12.44-9.33-13.86-20.46-19.41s-21.35.22-31.69,2.94c-5.38,1.42-9.49,2.62-15.22,1.25-5.33-1.28-9.95-5.44-15.26-2.9"/><path class="cls-2" d="M165.73,484.25c-13.15,0-26.07-3.31-34.27-8.21a43.1,43.1,0,0,0-7.95-3.43c-6.27-2.21-12.76-4.5-14.13-14.34-1.22-8.75,1-27.22,11.89-32.33l.37.78c3.68-.94,7.05.49,10.08,1.79a29.46,29.46,0,0,0,4.55,1.66c5.06,1.21,8.69.25,13.72-1.08l.62-.16c2.1-.55,4.27-1.25,6.36-1.93,8.45-2.73,17.18-5.56,26.6-.87,2,1,3.91,1.84,5.78,2.67,8.48,3.76,15.81,7,15.68,18.38a47.22,47.22,0,0,0,.78,8.18c.92,5.85,1.79,11.38-4.26,17C192.44,480.89,179,484.25,165.73,484.25Zm-44.58-54c-6.81,5-9.41,18.86-8.19,27.57,1.07,7.67,5.55,9.25,11.76,11.43a46,46,0,0,1,8.6,3.74c15.14,9,49.1,12.37,65.77-3.19,4.65-4.34,4.05-8.11,3.15-13.83a51,51,0,0,1-.83-8.79c.1-9-5.32-11.39-13.53-15-1.9-.84-3.87-1.71-5.93-2.74-8.09-4-15.75-1.55-23.87,1.08-2.14.69-4.35,1.41-6.55,2l-.62.16c-5.11,1.35-9.52,2.52-15.48,1.1a32.14,32.14,0,0,1-5.12-1.85c-3.23-1.38-6-2.57-8.93-1.18Z"/><path class="cls-1" d="M124.93,434.59c-2.69-3.68-5-9.63-7.07-13.71-2.67-5.33-4.6-7.63.37-13.06,6.91-7.56,20.29-10,29.9-10,5.63,0,9.32.72,12.14,5.94,4.11,7.6,2.55,17.17-2.72,20.15-8.77,5-16.74,3.37-25.91,7.43-3,1.34-.6,1.73-3.8,2.72Z"/><path class="cls-2" d="M124.13,436.56l-.66-.9a62.17,62.17,0,0,1-5.42-10.14c-.63-1.36-1.23-2.68-1.81-3.83l-.67-1.32c-2.35-4.58-4.05-7.88,1.32-13.77,8.93-9.77,26.1-10.54,31.21-10.54h0c5.48,0,10.29.52,13.73,6.89,4.47,8.28,2.84,19-3.42,22.58-5,2.84-9.81,3.66-14.44,4.44A46.85,46.85,0,0,0,132.37,433a3.21,3.21,0,0,0-.89.5c-.5,1.16-1.28,1.73-3.11,2.3l-.23.06Zm24-36.88c-9.66,0-22.22,2.46-28.53,9.36-3.68,4-3,5.34-.77,9.68l.69,1.36c.6,1.19,1.21,2.54,1.86,3.94a71.28,71.28,0,0,0,4.42,8.6l1.64-.27a5.41,5.41,0,0,0,.78-.3,4.6,4.6,0,0,1,2.71-2.31,49.74,49.74,0,0,1,12.49-3.32c4.52-.77,8.79-1.49,13.26-4,4.1-2.32,5.88-10.57,2-17.72-2.32-4.3-5-5-10.55-5Z"/><path class="cls-1" d="M131.22,433.14c-5.56,8.46.24,20.57,6.94,26.88,8.33,7.84,22,8.83,33.16,8.15,9.21-.56,23.3-3.14,28.12-12.48,5-9.75.22-22.84-6.91-29.72-8.93-8.62-19.83-11.56-32.09-10.71C143.05,416.47,131.22,433.14,131.22,433.14Z"/><path class="cls-2" d="M165.74,470.15c-12.91,0-22.59-3-28.82-8.82-10.6-10-11.63-22.48-7.22-29.19l0-.05c.5-.71,12.54-17.38,30.58-18.64,13.72-.94,24.67,2.71,33.47,11.21,7.77,7.51,12.61,21.47,7.26,31.85S180.17,469.44,171.43,470C169.47,470.09,167.57,470.15,165.74,470.15Zm-33-36c-5.09,7.79.85,19,6.69,24.54,6.36,6,17.05,8.57,31.81,7.66,6.42-.39,21.87-2.29,26.63-11.5,4.58-8.88.26-21-6.56-27.59-8-7.75-18.06-11.1-30.71-10.2C144.51,418.18,133.21,433.47,132.71,434.16Z"/><path class="cls-1" d="M58.25,266.92c1,4.7,0,9.67.48,14.49.35,3.49,1.61,7.1,2,10.61a69.19,69.19,0,0,1-1.85,23.81c-3.57,14.94-4.8,30.75-7.84,45.8-2.85,14.08-5,28.81-7.14,43-1.17,7.62-2.1,14.89-3.95,22.23-1.75,7-5,15.8-3.82,23.11,6.49,2.26,16.37.72,23.14.08,6.33-.6,6.34-2.77,6.63-8.8.38-8,.38-16.39,2.15-24.05C72.11,399.55,80.82,381.74,87.6,365c7.44-18.36,15-36.72,25.86-53.54,4.83-7.46,9.75-15.27,15.45-22.32,5-6.15,8.31-8.48-1-12.09-6.28-2.42-13.37-2.53-19.88-4.38-6.17-1.75-11.25-3.46-17.76-2.52-7.82,1.12-11.88,7.61-18.83,8.78-1-2.65-3.61-4.26-4.44-6.72"/><path class="cls-2" d="M44.94,453a29.24,29.24,0,0,1-9.44-1.29l-1-.35-.17-1.06c-1-6.27,1-13.35,2.71-19.6.41-1.47.81-2.89,1.14-4.24,1.52-6.06,2.41-12,3.36-18.37L43,398.23c1.85-12.22,3.77-24.86,6.22-37,1.33-6.55,2.33-13.39,3.29-20,1.25-8.55,2.54-17.39,4.56-25.85A67.33,67.33,0,0,0,58.9,292.2a42.94,42.94,0,0,0-.94-5.09,46.12,46.12,0,0,1-1-5.51,50.18,50.18,0,0,1-.09-6.46,33.83,33.83,0,0,0-.36-7.84l3.54-.74a36.92,36.92,0,0,1,.44,8.68,46.93,46.93,0,0,0,.08,6,43.13,43.13,0,0,0,.94,5.07,45.59,45.59,0,0,1,1,5.53,70.79,70.79,0,0,1-1.89,24.41c-2,8.31-3.26,17.07-4.5,25.53-1,6.66-2,13.55-3.33,20.2-2.43,12-4.34,24.61-6.19,36.78l-1.49,9.81c-1,6.42-1.86,12.48-3.43,18.71-.35,1.38-.75,2.83-1.17,4.33-1.53,5.51-3.26,11.7-2.76,17,5.16,1.38,12.39.61,18.28,0l3.05-.31c4.68-.44,4.71-1,5-6.85v-.25c.07-1.46.13-2.93.18-4.4.26-6.66.52-13.55,2-20,3.12-13.5,8.89-27,14.46-40.07,1.82-4.28,3.55-8.32,5.2-12.38,6.92-17.08,14.77-36.45,26-53.84l1.27-2A236.14,236.14,0,0,1,127.5,288c.51-.63,1-1.22,1.47-1.78,1.57-1.89,3.2-3.84,3-4.63-.09-.34-.73-1.31-4.75-2.86a54.58,54.58,0,0,0-11-2.55,78.23,78.23,0,0,1-8.76-1.78L106,274c-5.31-1.52-9.9-2.84-15.49-2-3.66.53-6.42,2.37-9.34,4.32s-5.73,3.83-9.45,4.45l-1.47.25-.52-1.4a10.49,10.49,0,0,0-2-2.9,12.05,12.05,0,0,1-2.49-3.87l3.42-1.17a9.32,9.32,0,0,0,1.83,2.69,18.81,18.81,0,0,1,1.9,2.53,25.14,25.14,0,0,0,6.74-3.6c3.13-2.09,6.36-4.25,10.84-4.89,6.36-.91,11.29.5,17,2.14l1.51.43a75.26,75.26,0,0,0,8.36,1.68,58.21,58.21,0,0,1,11.68,2.74c4.39,1.7,6.41,3.24,6.95,5.33.67,2.58-1.17,4.79-3.72,7.85-.45.54-.93,1.12-1.43,1.74a232.56,232.56,0,0,0-14.06,20.19l-1.27,2c-11.06,17.1-18.84,36.3-25.7,53.23-1.66,4.09-3.47,8.33-5.22,12.44-5.51,12.92-11.22,26.28-14.26,39.46-1.41,6.09-1.67,12.8-1.92,19.29-.06,1.49-.11,3-.19,4.44v.25c-.28,5.95-.45,9.53-8.26,10.27l-3,.31A110,110,0,0,1,44.94,453Z"/><path class="cls-1" d="M35.06,449.57c-1.3-1,1.94-1.91,3.5-3.28A19.27,19.27,0,0,0,42.43,442c1.79-3.13,2.65-5.91.73-9.29s-6.21-3.78-8.08-6.39c-2.42-3.39-.6-7.23,1.93-10.06,9.91-11.08,29.53-12.19,42.88-8.58,7,1.89,13,8,8.94,15.49-1.72,3.16-5,5.29-6.52,8.55-1.76,3.8-1.21,7.83-2.41,11.6-2.57,8.1-11.92,15.64-20.68,14.51-7.84-1-11.38-7.4-19.33-8.21a30,30,0,0,0-6.14-.48c.43,0,.87,0,1.3,0"/><path class="cls-2" d="M61,459.7a16,16,0,0,1-2-.13c-4.25-.55-7.29-2.49-10.22-4.36s-5.45-3.48-9.06-3.85c-.63-.06-1.24-.15-1.84-.24a22.29,22.29,0,0,0-2.89-.29v0h-.9L34,451l-.16-.13-.07-.06A2.29,2.29,0,0,1,33,449a2.37,2.37,0,0,1,.64-1.48v-.2l.22,0a10,10,0,0,1,1.9-1.27,11.71,11.71,0,0,0,1.67-1.07,17.2,17.2,0,0,0,3.48-3.87c1.87-3.28,2.05-5.17.73-7.49-.75-1.31-2.2-2.11-3.73-3a12,12,0,0,1-4.25-3.28c-2.53-3.54-1.78-8,2.05-12.32,10-11.21,30.08-13.07,44.7-9.12,5.06,1.37,9.07,4.5,10.74,8.39a10.84,10.84,0,0,1-.69,9.71A22.23,22.23,0,0,1,87,428.36a16.8,16.8,0,0,0-3.08,4.08,19.33,19.33,0,0,0-1.35,6.07,27.62,27.62,0,0,1-1,5.32C79.12,451.73,70.3,459.7,61,459.7Zm-21.35-12,.41,0c4.47.46,7.61,2.46,10.64,4.4,2.72,1.74,5.28,3.37,8.73,3.82,8,1,16.47-6.15,18.73-13.26a24.61,24.61,0,0,0,.82-4.64,22.4,22.4,0,0,1,1.66-7.17,19.77,19.77,0,0,1,3.7-5,19.19,19.19,0,0,0,2.87-3.65,7.25,7.25,0,0,0,.54-6.56c-1.21-2.84-4.42-5.26-8.36-6.32-13.55-3.66-32-2.08-41.07,8-1.53,1.71-3.81,5-1.81,7.81a9.36,9.36,0,0,0,3.06,2.21c1.81,1,3.87,2.14,5.12,4.34,2.46,4.31,1.1,7.87-.73,11.08a20.75,20.75,0,0,1-4.25,4.8Z"/><path class="cls-1" d="M34.09,446.43c-3.14,3.62-4,12.74-4.35,20.05-.5,9.45,2.12,12.08,8.08,17.52,3.2,2.92,9,11.16,12.21,12.92,7.13,4,12.26,6.54,20.29,7.25,8.21.73,24.33-1.42,31.41-5.8,6.49-4,6-3.76,8.09-11.11,4.91-17.49-1.43-38.13-19.69-44.46-10.41-3.61-18.36-1.91-28.88-1.34C56.32,441.73,37.23,442.8,34.09,446.43Z"/><path class="cls-2" d="M73.79,506.11c-1.33,0-2.54,0-3.61-.14-8.34-.74-13.74-3.44-21-7.47-2.21-1.22-5-4.55-8-8.07a63,63,0,0,0-4.58-5.1c-6.23-5.69-9.2-8.87-8.67-18.95.44-8.22,1.34-17.17,4.79-21.14h0c.91-1,3.68-4.24,28.43-5.59,2-.11,4-.26,5.83-.41,8.05-.64,15-1.18,23.75,1.85,15,5.2,27.4,23.31,20.84,46.65l-.39,1.38c-1.78,6.41-2.09,6.81-8.5,10.78C96,504.05,82.53,506.11,73.79,506.11Zm2.49-63.74c-2.94,0-5.88.23-9,.48-1.9.15-3.86.3-5.92.41-22.11,1.2-25.45,3.83-25.9,4.35h0c-3.1,3.57-3.69,14.75-3.91,19-.47,8.82,1.86,10.95,7.49,16.09A64.51,64.51,0,0,1,44,488.1c2.38,2.82,5.34,6.33,7,7.23,7.08,3.92,11.92,6.35,19.58,7,8.46.75,23.86-1.55,30.29-5.54,5.45-3.37,5.45-3.37,6.92-8.67l.39-1.4c4.45-15.83-.54-36-18.54-42.26A39.11,39.11,0,0,0,76.28,442.37Z"/><path class="cls-1" d="M38.44,461.65c-2-17.55,21.41-28.1,35.27-29.48,15.57-1.54,26.4,7.24,31.53,21.74,2.28,6.45,4.8,14.28,4.72,21.25-.1,8.94-10.3,13.57-17.89,15.45-16.72,4.14-31.34,2.89-44-10.12C42.11,474.29,38,461.73,38.44,461.65Z"/><path class="cls-2" d="M76.43,494.54c-11.78,0-21.24-4.17-29.6-12.79-5.16-5.32-10-16.61-10.18-20a20.6,20.6,0,0,1,4.89-15.61c7.28-9,21.61-14.78,32-15.81,15.53-1.54,27.71,6.82,33.41,22.94,2.55,7.22,4.91,14.86,4.83,21.87-.13,11.24-13.51,15.76-19.26,17.19A67.22,67.22,0,0,1,76.43,494.54Zm-36.1-32.33c.7,2.65,4.33,12.11,9.09,17,10.86,11.2,23.88,14.17,42.22,9.63,3.85-1,16.42-4.76,16.52-13.71.07-6.45-2.18-13.72-4.62-20.63C98.37,439.89,87.86,432.57,73.9,434c-9.65,1-22.89,6.24-29.55,14.48a17.11,17.11,0,0,0-4.11,13Z"/><path class="cls-1" d="M72.75,75.57c-11.11,7.5-16,30.29-19.59,42.52-4.59,15.58-6.06,31.06-7.46,47.35-3,34.73-14,63.66-1.24,97.61,5.7,15.13,11.72,26.84,28.29,32.13,16.39,5.23,34.16,8.08,51.22,4.59,14.23-2.91,32.13-6.79,44.45-14.49,10.43-6.52,19-22.46,23.22-33.8,10.87-29.26,7.46-61.15,2.63-93.28C192,143,185.63,129,184.85,113.26c-.75-14.92-3.9-29.8-7.52-43.7-4.72-18.12-23.41-22.66-40.8-22-10.91.41-48.9,1.57-53.15,11.6"/><path class="cls-2" d="M108.37,303.1c-11.14,0-23.25-2.07-36.18-6.19-17.78-5.68-23.85-18.4-29.43-33.21-9.56-25.35-6.06-47.91-2.36-71.81,1.32-8.56,2.69-17.41,3.49-26.59,1.54-17.76,3.07-32.54,7.53-47.71.49-1.65,1-3.49,1.54-5.46,3.64-13.16,8.62-31.19,18.77-38l2,3c-9.05,6.11-14,24.11-17.31,36-.55,2-1.06,3.85-1.56,5.52-4.37,14.84-5.88,29.45-7.4,47-.8,9.31-2.18,18.22-3.52,26.84-3.63,23.41-7,45.52,2.17,70,5.25,13.92,10.91,25.86,27.15,31,18.79,6,35.72,7.53,50.31,4.55,15.82-3.23,32.24-7,43.86-14.25,9.87-6.17,18.28-21.58,22.48-32.9,10.79-29.06,7.17-61.57,2.54-92.38a165,165,0,0,0-4.29-18.59c-2.3-8.47-4.69-17.22-5.15-26.53-.63-12.55-2.93-25.92-7.46-43.34-5-19.06-26.55-21.12-39-20.66l-.83,0C96.9,50.83,86.73,55.87,85,59.85l-3.33-1.41c2-4.65,9.71-11,53.92-12.67l.83,0c23.34-.88,38.47,7.42,42.62,23.36,4.6,17.67,6.93,31.26,7.57,44.07.44,8.92,2.78,17.48,5,25.76a167.54,167.54,0,0,1,4.38,19c4.7,31.28,8.37,64.31-2.72,94.18-4.61,12.42-13.33,28.06-24,34.7-12.13,7.58-28.91,11.44-45.05,14.73A79.61,79.61,0,0,1,108.37,303.1Z"/><path class="cls-2" d="M124.93,163.58c-.37,5.52,3.8,13.87,6.28,18.78,2.83,5.6,7.56,9.23,12.56,13s10.18,3.37,16.43,3.38c3.2,0,5.9-2.65,8.59-4.5,3.22-2.22,1.83-3,1.08-6.25a60.33,60.33,0,0,1-1.51-20.52,102.91,102.91,0,0,1-24.95.59C140,167.8,124.93,163.58,124.93,163.58Z"/><path class="cls-2" d="M156.81,199.86c-4.94,0-9.31-.29-13.67-3.61-4.87-3.72-9.91-7.56-12.86-13.41-2.37-4.7-6.79-13.44-6.39-19.33l.09-1.29,1.24.35c.15,0,15,4.2,18.29,4.5a101.58,101.58,0,0,0,24.7-.58l1.37-.2-.17,1.37a59,59,0,0,0,1.49,20.16c.16.7.35,1.28.52,1.78.69,2.11,1,3.51-2,5.57-.54.37-1.09.78-1.63,1.2-2.29,1.72-4.65,3.49-7.54,3.49h-3.4ZM126,165c.3,5.3,4.07,12.77,6.18,16.93,2.74,5.42,7.36,8.95,12.26,12.68,4.24,3.24,8.53,3.21,14,3.17h1.84c2.19,0,4.27-1.56,6.28-3.07.57-.43,1.14-.85,1.7-1.24,1.85-1.27,1.78-1.49,1.22-3.19-.18-.55-.39-1.19-.57-2a62.73,62.73,0,0,1-1.67-19.52,104,104,0,0,1-23.86.4C140.42,168.89,129.77,166,126,165Z"/><path class="cls-1" d="M119.5,157.24c7.94,7.59,18.63,9.76,29.35,10.86a49.29,49.29,0,0,0,14.5-.27c3.2-.63,7.8-2.88,10.51-2.62"/><path class="cls-2" d="M155.81,170.31a69.9,69.9,0,0,1-7.15-.41c-10.78-1.11-21.93-3.25-30.41-11.36l2.5-2.61c7.69,7.36,18.14,9.33,28.28,10.37a48.53,48.53,0,0,0,14-.25,34.68,34.68,0,0,0,3.83-1.13c2.53-.84,5.14-1.72,7.2-1.51l-.36,3.6c-1.3-.12-3.64.65-5.7,1.34a36.83,36.83,0,0,1-4.28,1.25A40.79,40.79,0,0,1,155.81,170.31Z"/><path class="cls-1" d="M154.65,156.51c7.22,0,14.9-.44,20.66-5.44"/><path class="cls-2" d="M154.65,158.32V154.7c6.94,0,14.16-.38,19.47-5l2.37,2.73C170.24,157.87,161.94,158.32,154.65,158.32Z"/><path class="cls-1" d="M60.07,86.57c1.63-2.43.44-6.24.72-9.06s1.21-5.46,1.83-8.34a69.42,69.42,0,0,1,6.14-17.4C75.13,39,84.36,27.84,94.95,18.44c8.88-7.88,17.32-14.56,28.9-16.31C136.4.24,144.13,6.72,151.48,15.81s9.31,23.77,6.44,34.73c-5.09-.36-10.34-2.88-15.57-3.13-6.32-.3-11,1-16.77,2.84-11.08,3.53-20.75,9-31.43,14.31a165.52,165.52,0,0,0-16.77,10C72.24,77.86,65,82.2,61.52,87.3"/><path class="cls-2" d="M63,88.32l-1.32-.91-.11.17-3-2c.73-1.09.6-3,.48-4.79a20.51,20.51,0,0,1,0-3.45,37,37,0,0,1,1.17-5.69c.24-.93.49-1.86.7-2.84A71,71,0,0,1,67.14,51c6.09-12.22,15-23.62,26.6-33.88,8.76-7.77,17.64-14.9,29.83-16.74,13.89-2.1,22.29,5.65,29.31,14.33,7.25,9,10,23.9,6.79,36.32l-.38,1.45-1.5-.11A41.56,41.56,0,0,1,150,50.75a36.79,36.79,0,0,0-7.73-1.53c-6.06-.29-10.51,1-16.13,2.75-8.59,2.74-16.31,6.67-24.49,10.83-2.2,1.12-4.42,2.25-6.69,3.37A162.4,162.4,0,0,0,78.36,76l-1.54,1C72,80.14,66,84,63,88.32ZM128.06,3.62a26.16,26.16,0,0,0-3.94.31c-11.23,1.69-19.31,8.19-28,15.87-11.22,10-19.89,21-25.76,32.79a67.59,67.59,0,0,0-6,17c-.22,1-.48,2-.73,3a33.84,33.84,0,0,0-1.06,5.15,17.73,17.73,0,0,0,.06,2.83c.06.81.11,1.66.11,2.52,3.49-3.5,8.17-6.52,12.11-9.06l1.53-1a165.37,165.37,0,0,1,17-10.06c2.25-1.12,4.46-2.24,6.65-3.36,8.31-4.23,16.16-8.23,25-11.05,5.8-1.85,10.76-3.23,17.4-2.92a39.92,39.92,0,0,1,8.51,1.66,51.33,51.33,0,0,0,5.59,1.3c2.33-10.92-.28-24-6.46-31.61C143.63,9,137.26,3.62,128.06,3.62Z"/><path class="cls-1" d="M109.07,104.61a46.07,46.07,0,0,1,5.09-16.23c1.87-3.5,4.9-8.09,9-9.43,11.55-3.83,16.2,10.42,17,18.85.58,5.84,2.18,29-2.55,31.8s-12.38,3-17.75,2c-5.05-1-10.29-3.58-11.23-8.76C107.55,116.92,108.27,110.51,109.07,104.61Z"/><path class="cls-2" d="M126.09,134a34.55,34.55,0,0,1-6.58-.62c-7.12-1.41-11.73-5.13-12.66-10.2-1.12-6.14-.4-12.65.43-18.79h0a47.66,47.66,0,0,1,5.29-16.84c3-5.64,6.37-9.1,10-10.3a11.43,11.43,0,0,1,10.26,1C138.5,82,141.26,90.69,142,97.63c.49,5,2.65,29.95-3.43,33.54C135.11,133.18,130.48,134,126.09,134Zm.73-53.87a10,10,0,0,0-3.14.55c-2.7.89-5.36,3.78-7.93,8.57a44.19,44.19,0,0,0-4.89,15.61h0c-.79,5.86-1.48,12-.46,17.66.88,4.84,6.52,6.66,9.8,7.31,4.87,1,12.1.82,16.48-1.77,2.59-1.53,3-17.07,1.67-30.07-.63-6.27-3.19-13.86-7.52-16.67A7.22,7.22,0,0,0,126.82,80.12Z"/><path class="cls-1" d="M163.11,81.38c-5.6,6.19-6.61,15-6.76,23-.14,7.29-.14,18,3.14,24.64,1.74.1,2.82.58,4.59.48,5.86-.32,10.17-1.38,14.25-6,3.62-4.13,3.14-9.18,2.42-15-.5-4-3.45-20.08-8.34-26.94C169.87,77.94,167.14,76.92,163.11,81.38Z"/><path class="cls-2" d="M163.6,131.27a13.62,13.62,0,0,1-2.51-.27,14.61,14.61,0,0,0-1.71-.23l-1.05-.06-.46-.95c-3.24-6.61-3.5-16.58-3.33-25.47.16-8.16,1.14-17.4,7.23-24.13h0c2.27-2.51,4.42-3.65,6.54-3.55,2.66.16,4.46,2.26,5.58,3.83,5.22,7.33,8.16,23.76,8.66,27.76.67,5.39,1.44,11.51-2.85,16.4-4.45,5.08-9.24,6.31-15.51,6.65Zm-2.9-4,1,.16a9,9,0,0,0,2.26.21c5.61-.31,9.34-1.26,13-5.43,3-3.41,2.73-7.59,2-13.56-.6-4.81-3.62-19.94-8-26.11-1.06-1.49-2-2.27-2.84-2.32s-2.19.76-3.64,2.36h0c-5.29,5.84-6.15,14.29-6.3,21.77C158,109.68,157.83,120.48,160.7,127.28Z"/><circle class="cls-2" cx="132.18" cy="109.04" r="8.34"/><path class="cls-2" d="M132.18,118.43a9.39,9.39,0,1,1,9.39-9.39A9.4,9.4,0,0,1,132.18,118.43Zm0-16.67a7.28,7.28,0,1,0,7.28,7.28A7.29,7.29,0,0,0,132.18,101.76Z"/><ellipse class="cls-2" cx="172.95" cy="107.77" rx="6.58" ry="7.31"/><path class="cls-2" d="M173,116.13c-4.21,0-7.63-3.75-7.63-8.36s3.42-8.36,7.63-8.36,7.64,3.75,7.64,8.36S177.16,116.13,173,116.13Zm0-14.62c-3.05,0-5.53,2.81-5.53,6.26S169.9,114,173,114s5.53-2.81,5.53-6.26S176,101.51,173,101.51Z"/><path class="cls-1" d="M110.44,55.77c-5.44-1.58,3.76-29.24,5.35-33.71,4-11.29,8.78-23.16,22.93-16.57,7.47,3.48,12,9.6,15.66,16.87,2.92,5.84,5.22,19.36,2,25.74-8.31.57-12.55-1.86-21-1s-17.89,5.46-24.64,9.78"/><path class="cls-2" d="M111.78,58.38l-1.42-2.22-.42,1.34a3.62,3.62,0,0,1-2.23-1.92c-3.28-6.4,5.38-31.31,6.37-34.13,3-8.35,6.15-16.07,12.49-18.73,3.66-1.54,8-1.16,12.91,1.13,6.91,3.22,12,8.68,16.52,17.7,3.13,6.25,5.53,20.35,2,27.36l-.46.92-1,.07a47.62,47.62,0,0,1-10.46-.57,40.46,40.46,0,0,0-10.44-.45C126,49.82,115.74,55.84,111.78,58.38Zm19.55-53a8.58,8.58,0,0,0-3.36.65c-5,2.09-7.8,9-10.48,16.61-5.21,14.73-8.3,29.7-6.47,31.41l-.2.64c5.44-3.38,15-8.51,24.46-9.44a44.5,44.5,0,0,1,11.29.47,46,46,0,0,0,8.63.61c2.25-6.09.2-17.93-2.42-23.18-4.12-8.24-8.69-13.19-14.81-16A15.94,15.94,0,0,0,131.33,5.4Z"/><path class="cls-1" d="M194.15,161.22c2,1,4.57,4.81,6.52,6.6a25.5,25.5,0,0,1,5.8,9,25.19,25.19,0,0,1,.45,17.77c-4.1,11.36-13,23.26-22.91,30.05-6.89,4.73-12,6.37-19.22,10.89,4.14-2.7-2.33,2.31.36-1.81s8.34-9.06,15.95-17c7.37-7.72,13.41-15.22,15.58-25.73a46,46,0,0,0,.08-15.3c-.71-4.3-1.55-8.63-2.26-13"/><path class="cls-2" d="M164.72,237.21a2,2,0,0,1-1.3-.46c-1.58-1.28-.27-3.29.23-4,1.92-2.94,5-6,9.27-10.29,2.05-2.05,4.35-4.35,6.88-7,7.87-8.24,13.14-15.27,15.12-24.85a43.84,43.84,0,0,0,.07-14.64c-.35-2.11-.73-4.23-1.11-6.36s-.79-4.4-1.15-6.61l.65-.11h0l1.6-3.24c1.56.77,3.15,2.62,4.68,4.41a31.43,31.43,0,0,0,2.26,2.48,28.16,28.16,0,0,1,6.73,28.69c-4.29,11.9-13.55,24-23.59,30.93a89.69,89.69,0,0,1-10.6,6.13c-2.22,1.14-4.51,2.32-7,3.81a6,6,0,0,1-1.51.91l-.14.08,0,0A3.07,3.07,0,0,1,164.72,237.21ZM197,166.51l.43,2.43c.38,2.14.76,4.28,1.11,6.41a47.76,47.76,0,0,1-.09,16c-2.16,10.42-7.74,17.91-16,26.61-2.55,2.67-4.87,5-6.94,7.06s-3.76,3.76-5.25,5.37l2.56-1.32A87.13,87.13,0,0,0,183,223.13c9.45-6.48,18.18-17.94,22.23-29.17a24.56,24.56,0,0,0-5.77-24.8A32.5,32.5,0,0,1,197,166.51Z"/><path class="cls-1" d="M46.66,149.26c-2.4-.15-11.11,4.55-13,6.18A27.09,27.09,0,0,0,27.52,163c-2.79,5.29-3,11.1-3,17,0,11.65,1.3,21.55,6.89,31.53a28.83,28.83,0,0,0,6.81,8.3c.8-12.22-2-23.83,4.42-34.75,6.69-11.35,19.08-8.75,29.35-5.08,4.76,1.7,9.86,5.45,14.13,8.07,4.81,3,10,9.15,14,13,8.28,7.9,12.84,15,21.91,21.83,4.35,3.27,8.83,6.89,13.8,9.25,3.61,1.72,10.25,5.37,13.76,4.43l-.72-5.07c-5.31-.85-15.38-13.12-18.48-17.76-3.26-4.87-21-27.72-25.18-32.12a104,104,0,0,0-10-9.19,61.74,61.74,0,0,0-12.32-7.25c-14.21-6.6-23.38-6.83-38.78-2.17,1.28.31.67.77,1.45.36"/><path class="cls-2" d="M148.33,238.56c-3.6,0-8.25-2.28-11.78-4l-1.5-.73a72.51,72.51,0,0,1-12.41-8.16l-1.7-1.29c-5.7-4.29-9.61-8.63-13.75-13.23-2.54-2.82-5.16-5.73-8.31-8.74-1.17-1.12-2.44-2.43-3.77-3.81-3.12-3.25-6.67-6.93-9.89-8.91-1.05-.65-2.15-1.36-3.29-2.09-3.33-2.16-7.11-4.6-10.51-5.82-10.07-3.6-21.17-5.9-27.18,4.3-4.36,7.4-4.22,15.27-4.07,23.6.06,3.36.12,6.83-.11,10.35l-.22,3.35-2.68-2a30.82,30.82,0,0,1-7.3-8.86c-6.25-11.17-7.12-22.18-7.12-32.41,0-6.24.24-12.3,3.18-17.87a29,29,0,0,1,6.57-8.11c1.77-1.54,10.74-6.63,14.1-6.63h.18l-.22,3.61c-1.64,0-9.76,4.07-11.69,5.74a25.33,25.33,0,0,0-5.74,7.07c-2.55,4.85-2.76,10.2-2.76,16.19,0,9.74.81,20.19,6.66,30.64a32,32,0,0,0,3.58,5.09c0-2,0-4.08,0-6.08-.16-8.47-.31-17.22,4.57-25.5,8.34-14.14,25.17-8.13,31.51-5.87,3.8,1.36,7.76,3.92,11.26,6.19,1.11.72,2.19,1.42,3.21,2,3.62,2.22,7.33,6.08,10.61,9.48,1.29,1.34,2.52,2.62,3.66,3.71,3.25,3.1,5.92,6.07,8.5,8.94,4,4.46,7.82,8.68,13.24,12.76l1.71,1.3a69.76,69.76,0,0,0,11.78,7.77l1.55.75c2.61,1.28,6.66,3.27,9.37,3.61l-.28-2c-6.79-2.53-16.59-15.52-18.36-18.17-3.45-5.16-21-27.68-25-31.88a101.71,101.71,0,0,0-9.79-9,58.45,58.45,0,0,0-12-7c-13-6-21.63-6.69-36.09-2.5l.37.65a2.14,2.14,0,0,1-2.63-.2s0,0-.09,0l-6.4-1.58,6.31-1.91c16.13-4.88,25.86-4.33,40.06,2.26A61.91,61.91,0,0,1,96.35,171a105.7,105.7,0,0,1,10.14,9.35c4.38,4.59,22.25,27.69,25.38,32.36,3.75,5.61,13.15,16.32,17.26,17l1.32.21,1.14,8-1.55.41A6.65,6.65,0,0,1,148.33,238.56Z"/><path class="cls-1" d="M147.4,238.78c-6.38,1.34-15.29,7.07-11.6,14.86,1.67,3.52,3.38,5.13,3.64,9.42.24,4-1.53,6.29-3.61,9.37,9.07,1.57,17.78-7.88,14.9-16.34-1.27-3.71-3.75-7.69-2-11.61.68-1.53,3.88-2.32,2.22-5-1.24-2-4.75-1-6.46-.35"/><path class="cls-2" d="M137.82,274.4a13.41,13.41,0,0,1-2.29-.19l-2.76-.48,2-3c1.82-2.68,3-4.44,2.84-7.58a12.44,12.44,0,0,0-2.07-6.1c-.45-.8-.93-1.66-1.4-2.66a9.57,9.57,0,0,1,0-8.62c1.84-3.72,5.9-6.45,9.87-7.91l-.17-.43c4.08-1.59,7.24-1.2,8.65,1.07,1.95,3.13-.38,5.12-1.37,6a4.76,4.76,0,0,0-.73.71c-1.07,2.39,0,5,1.12,7.83.34.83.66,1.65.94,2.45a13.68,13.68,0,0,1-3,13.3A15.54,15.54,0,0,1,137.82,274.4Zm9.87-34.25.08.4c-3.88.82-8.7,3.43-10.39,6.85a5.92,5.92,0,0,0,.06,5.46c.44.92.88,1.7,1.29,2.44a15.91,15.91,0,0,1,2.52,7.65,12.51,12.51,0,0,1-2.09,7.75,12.15,12.15,0,0,0,7.58-4.24,10.12,10.12,0,0,0,2.3-9.78c-.25-.75-.56-1.5-.87-2.27-1.3-3.22-2.77-6.86-1.07-10.67a5.8,5.8,0,0,1,1.67-2,4.09,4.09,0,0,0,.86-.88h0a1.29,1.29,0,0,0-.2-.44C149.25,240.16,148.62,240,147.69,240.15Z"/><path class="cls-1" d="M166.61,237c5.85,1.37,10.62,5.15,9.7,11.52-.88,6.08-2.76,11.27-.55,17.46,1.35,3.78,2.25,4.94-2.26,5.09-2.85.1-8-.43-10.16-2.45-4.19-3.83-1.31-11.73,1.1-15.67,1.53-2.5,2.85-4.1,2.54-7.25"/><path class="cls-2" d="M172.82,272.85c-3.09,0-8.16-.61-10.71-2.93-5.18-4.73-1.75-13.81.78-18l.55-.89c1.21-1.92,1.94-3.08,1.72-5.23l3.6-.36c.34,3.39-.93,5.39-2.26,7.52l-.53.85c-2.23,3.64-4.59,10.5-1.43,13.39,1.5,1.38,5.7,2.08,8.88,2a11.37,11.37,0,0,0,1.53-.13c-.12-.42-.34-1-.53-1.53l-.37-1c-1.9-5.31-1-10-.18-14.57.23-1.22.46-2.47.64-3.75,1-6.59-5.51-8.84-8.33-9.5l.82-3.52c7.78,1.82,12,7,11.08,13.54-.19,1.33-.43,2.63-.67,3.9-.83,4.45-1.54,8.3,0,12.7l.36,1c.72,2,1.3,3.51.36,4.9s-2.88,1.58-4.62,1.64Z"/><path class="cls-1" d="M156.46,233c8.62-9.64,21.11,13.56,7.25,19.13-11.4,4.58-25.09-8.51-17-19.48,4.64-6.32,8.66-1.44,13,1.08"/><path class="cls-2" d="M158.88,254.84a17.43,17.43,0,0,1-13.35-6.63,13.38,13.38,0,0,1-.31-16.66c4.32-5.89,8.79-3.76,12.05-1.62a7,7,0,0,1,6.32-.6c4.49,1.69,8.06,7.57,8.13,13.4a11.25,11.25,0,0,1-7.34,11A14.7,14.7,0,0,1,158.88,254.84Zm-7.36-23.52c-1.13,0-2.15.7-3.39,2.38a9.74,9.74,0,0,0,.26,12.3c3,3.91,9,6.68,14.64,4.43a7.62,7.62,0,0,0,5.07-7.65c0-4.29-2.7-8.9-5.78-10.06a3.49,3.49,0,0,0-1.92-.2l-1.58,2.74c-.84-.49-1.68-1.05-2.5-1.62C154.26,232.24,152.82,231.32,151.52,231.32Z"/><path class="cls-1" d="M47.38,181.16c-26.54,10.2-46,139.53-18.16,137.78,9.31-.58,10-19.67,12.5-25.46a259.9,259.9,0,0,1,12.16-23.9c5.07-9.1,9.31-18.66,14.36-27.7,4.28-7.67,10-13.61,14.65-20.86"/><path class="cls-2" d="M28.67,320.76c-4.5,0-10.17-2.92-13-16-3.56-16.31-1.83-44.6,4.4-72.07,3.22-14.16,12.25-47.7,26.68-53.25l1.3,3.38c-19.5,7.5-36.09,88-28.84,121.17,1.35,6.19,4.26,13.5,9.93,13.12,5.45-.34,7.52-10,9-17.12a44.61,44.61,0,0,1,1.91-7.24A263.24,263.24,0,0,1,52.3,268.7c2.5-4.49,4.85-9.19,7.12-13.73s4.69-9.39,7.24-14A101.31,101.31,0,0,1,75,228.85c2.16-2.82,4.38-5.73,6.34-8.81L84.42,222c-2,3.21-4.32,6.18-6.52,9.06a98.46,98.46,0,0,0-8.08,11.7c-2.52,4.51-4.88,9.24-7.17,13.82s-4.65,9.32-7.19,13.88a259.41,259.41,0,0,0-12.08,23.73,44.47,44.47,0,0,0-1.7,6.58c-1.76,8.21-4.16,19.46-12.35,20Z"/><path class="cls-1" d="M14,310.89c-2.83-17.53,30.12-25.23,31.17-5.07"/><path class="cls-2" d="M12.26,311.18c-.9-5.58,1.41-10.92,6.35-14.65,6-4.54,14.71-5.8,20.72-3C44,295.69,46.72,300,47,305.72l-3.61.19c-.23-4.36-2.16-7.52-5.6-9.12-4.86-2.26-12-1.17-17,2.62-2.25,1.7-5.89,5.42-5,11.19Z"/><path class="cls-1" d="M111.16,56c7.73-5.8,35-16.82,44.45-22,8.74-4.79,18.91-9.2,27.54-14,7.83-4.37,31.56-14.73,36.42-1.21,4,11.05-8.79,22.64-17.38,27.92-5.64,3.47-11.89,6.3-17.86,9.32-4,2-8.87,5.17-13,5.83.16-5.66-11.74-11.14-16.37-12.27a105,105,0,0,0-23.61-2.54h.78"/><path class="cls-2" d="M169.51,64l.06-2.19c.11-3.9-9.79-9.19-15-10.47a102.5,102.5,0,0,0-23.17-2.48V47.39c-8.1,3.76-15.72,7.49-19.16,10.06l-2.17-2.89c4.93-3.7,17.31-9.34,28.23-14.31,6.63-3,12.89-5.87,16.43-7.81,4.26-2.33,8.9-4.6,13.4-6.8,4.77-2.33,9.71-4.74,14.13-7.21C183.12,18,203,7,214.51,11.29a11.06,11.06,0,0,1,6.78,6.9c4.4,12.23-9.33,24.66-18.14,30.07-4.25,2.61-8.86,4.88-13.32,7.08-1.56.77-3.13,1.54-4.67,2.32-.93.47-1.91,1-2.92,1.56-3.35,1.82-7.14,3.89-10.56,4.45ZM135.86,45.35a101.38,101.38,0,0,1,19.58,2.5c4.13,1,15.22,5.65,17.38,11.82A47.55,47.55,0,0,0,180.5,56c1-.57,2.06-1.12,3-1.61,1.55-.79,3.13-1.56,4.7-2.34,4.39-2.16,8.92-4.39,13-6.91,7.88-4.84,20.24-15.72,16.63-25.77a7.48,7.48,0,0,0-4.64-4.74c-8-3-22.58,3.22-29.2,6.92-4.51,2.51-9.49,4.95-14.31,7.3-4.46,2.18-9.07,4.43-13.25,6.72-3.66,2-10,4.88-16.67,7.93Z"/><path class="cls-1" d="M119.86,75.34c-.95.28-.92,1.13-2,.61-4.77-12,13.58-31.31,25.86-25.85.24,4.72,1.21,11.14-1.47,15-10.95-.43-16.16,11.4-26,11.72"/><path class="cls-2" d="M116.3,78.59l-.06-1.7-.11-.27c-2.93-7.38,1.71-16.42,7.62-22.1,6.69-6.43,14.6-8.76,20.65-6.07l1,.45.06,1.11c0,.7.09,1.43.14,2.19.32,4.51.71,10.13-1.93,13.91l-.57.81-1,0c-5.08-.19-8.87,2.65-12.85,5.66C125.47,75.43,121.52,78.42,116.3,78.59Zm3-5,.21.71a29.77,29.77,0,0,0,7.55-4.66c3.87-2.94,8.24-6.24,14.08-6.4,1.39-2.79,1.09-7,.83-10.81l-.07-1.07c-5.36-1.67-11.53,1.78-15.67,5.75-5.36,5.15-8.15,11.71-7.22,16.59Z"/><path class="cls-1" d="M12.73,380.07C5.92,376.21,3.53,358,2.44,350c-1.39-10.21-.62-22.92,4.34-31.48A31,31,0,0,1,57,313.8c10.26,11.75,17.38,38.73,13.63,54.36-2.47,10.32-13,12.63-18,2.81-2-4-2.26-8.13-4.31-12-2.38-4.56-4.25-4.87-6.94-8.93"/><path class="cls-2" d="M11.84,381.64C5.25,377.9,2.59,364.5.7,350.58l0-.33c-1.71-12.55,0-24.75,4.57-32.64a32.31,32.31,0,0,1,25.1-16.15,32.63,32.63,0,0,1,28,11.15c10.87,12.45,17.82,40.17,14,56-1.41,5.86-5.27,9.84-10.09,10.4-4.52.53-8.73-2.16-11.27-7.2a33.72,33.72,0,0,1-2.24-6.28,29.08,29.08,0,0,0-2.06-5.74,17.68,17.68,0,0,0-3.47-4.67,27.08,27.08,0,0,1-3.38-4.1l3-2a23.15,23.15,0,0,0,3,3.59,21.24,21.24,0,0,1,4.07,5.5,32.29,32.29,0,0,1,2.33,6.43,30.71,30.71,0,0,0,2,5.63c1.85,3.67,4.62,5.58,7.62,5.23,3.22-.37,6-3.38,7-7.65,3.51-14.61-3.17-41.23-13.24-52.75a29.08,29.08,0,0,0-24.95-9.93A28.73,28.73,0,0,0,8.35,319.42C3.42,327.92,3,340.66,4.23,349.76l0,.33c.93,6.85,3.4,25,9.35,28.41Z"/><path class="cls-1" d="M12.5,351.2c-1.7,10.95-1.14,20.77,4.31,30.41,2.29,4,5.16,9.62,9.49,11.12,3.89,1.35,11.45-.91,10.18-5.56"/><path class="cls-2" d="M28.87,394.93a9.71,9.71,0,0,1-3.16-.49c-4.67-1.62-7.62-6.87-10-11.09l-.48-.85c-5.12-9.05-6.52-18.79-4.53-31.58l3.57.55c-1.86,11.93-.59,20.95,4.1,29.24l.48.86c2.07,3.69,4.64,8.27,8,9.45a8.46,8.46,0,0,0,7.2-1.42,1.79,1.79,0,0,0,.64-2l3.49-1a5.39,5.39,0,0,1-1.66,5.55A11.83,11.83,0,0,1,28.87,394.93Z"/><path class="cls-1" d="M24.32,352.27c-1.94,9.64-1,19.28,3.33,27.91,3.15,6.22,10.44,17.49,18.26,14.78,10.94-3.8,4.82-14.66,1.2-21.4-3.76-7-7.68-18.79-5.38-27.4"/><path class="cls-2" d="M43.47,397.19c-8.53,0-15.38-12.12-17.44-16.19-4.37-8.66-5.58-18.71-3.49-29.08l3.55.71a40.82,40.82,0,0,0,3.17,26.74c1.4,2.77,8.76,16.42,16,13.89,2.44-.85,3.94-2.07,4.59-3.74,1.56-4-1.74-10.16-4.15-14.64l-.24-.45c-4.06-7.58-8-19.64-5.53-28.72l3.49.93c-2,7.54,1.18,18.53,5.23,26.07l.24.44c2.74,5.11,6.5,12.1,4.33,17.67-1,2.68-3.33,4.65-6.78,5.84A9.18,9.18,0,0,1,43.47,397.19Z"/><path class="cls-1" d="M159.72,65.91c.82-6-3.42-17.94,6.7-11.78,6.41,3.9,9.36,12.2,9,18.78C170.43,75.78,164.73,67,159.72,65.91Z"/><path class="cls-2" d="M173.3,75.32c-3,0-5.94-2.26-8.59-4.32-1.88-1.46-3.82-3-5.38-3.32l-1.62-.37.22-1.64a28.67,28.67,0,0,0-.06-5.13c-.27-4-.52-7.82,2-9.37,2.29-1.39,5.36.14,7.46,1.43C174.67,57,177.6,66.3,177.23,73l-.05,1-.85.49A6,6,0,0,1,173.3,75.32ZM161.64,64.66a26.32,26.32,0,0,1,5.29,3.49c2.87,2.23,5,3.75,6.72,3.51-.05-5.53-2.53-12.54-8.16-16-2.9-1.77-3.7-1.43-3.7-1.43-.68.41-.41,4.36-.3,6C161.58,61.77,161.68,63.27,161.64,64.66Z"/><path class="cls-1" d="M156.82,189.85c5.06-7.63,17.94,4.18,1.45,7.24-5.88,1.09-19.05.46-18-8.57,5.62-1.23,13.84-3.72,18.74.6"/><path class="cls-2" d="M153.51,199.31c-4.41,0-9.5-.92-12.5-3.72a8.26,8.26,0,0,1-2.54-7.27l.15-1.28,1.26-.28,1.72-.39c4.94-1.14,11.47-2.64,16.45-.07a7,7,0,0,1,5.57-.38c2.89,1,4.77,3.47,4.58,6-.14,1.94-1.58,5.42-9.59,6.91A28.58,28.58,0,0,1,153.51,199.31ZM142,190a4.41,4.41,0,0,0,1.44,3c3.12,2.91,10.34,3.14,14.47,2.37,4.77-.89,6.56-2.5,6.64-3.61.07-.89-.88-1.93-2.14-2.36a3.38,3.38,0,0,0-4.11,1.51l-2.19-1.45c-3.79-1.79-9.24-.54-13.73.5Z"/><path class="cls-1" d="M66,166.42c9.42.48,13.08.86,22,6.52,6.37,4.05,17.49,15.39,20.29,22.71"/><path class="cls-2" d="M66.71,167.25c9.42.5,17,3,24.27,9.16,6,5.09,12.47,11.6,15.55,19,.41,1,3.83,1.36,3.47.5-3.58-8.6-11.38-16.37-18.78-21.83-8-5.92-16.17-8-26-8.49-2.32-.12.36,1.61,1.46,1.66Z"/><path class="cls-1" d="M162.62,234.79a7.23,7.23,0,0,1,2.17,6.52"/><path class="cls-2" d="M162.17,238.25a8.22,8.22,0,0,1,1.46,1.92c.15.28.21.85.4,1.05l0,.18a8.58,8.58,0,0,1,0-1.11,14.83,14.83,0,0,0-.11,2.79c0,.26.05,1.46.36,1.69.78.59,1.12-2.18,1.15-2.45.49-3.85.44-8.06-2.42-11-.71-.73-1.12,2.18-1.15,2.45a14.39,14.39,0,0,0-.11,2.79c0,.47,0,1.33.36,1.69Z"/><path class="cls-1" d="M200.68,177.29c4.35,9.18,3.86,17.15-3.14,24.16"/><path class="cls-2" d="M200.22,180.75c2.93,6.54,2.28,12-2.65,17.2-1.32,1.4-.21,7.14-.06,7,8.14-8.64,8.3-20.69,3.63-31.12-.4-.88-1.14,2.34-1.15,2.45a8.43,8.43,0,0,0,.24,4.48Z"/><ellipse class="cls-1" cx="79.27" cy="123.17" rx="13.05" ry="15.95"/><path class="cls-1" d="M75.95,107.77s-1.75-10,1.15-33.16"/><path class="cls-1" d="M82.63,107.77S85,80.11,90.46,66.49"/></svg>