<svg id="Icons" xmlns="http://www.w3.org/2000/svg" viewBox="0 0 132.17 275.68"><defs><style>.cls-1{fill:#10069f;}.cls-2{fill:#050050;}</style></defs><title>og-question</title><path class="cls-1" d="M28.37,76.18s10.26.55,12.79-6S38.8,62.29,33.91,66"/><path class="cls-2" d="M29,76.78h-.69l.06-1.16c.1,0,9.87.45,12.22-5.66.92-2.39.86-4.21-.17-5-1.25-.94-3.8-.33-6.2,1.47l-.7-.93c2.91-2.19,5.89-2.76,7.6-1.47.86.65,2.09,2.34.55,6.33C39.42,76.31,31.46,76.78,29,76.78Z"/><path class="cls-1" d="M34.58,68.64C36.82,65,36.87,59,39,55.23c1.24-2.4,8.71-10.9,3.65-15-3.71-3-9.44,7.4-11.37,10.39C29.63,53.21,30.69,58.51,28,60"/><path class="cls-2" d="M35.12,68.52c3.22-5.07,3.45-11.21,6.79-16.31,2-3,6.27-10,1.72-12.94-3.34-2.19-7,2.27-8.77,4.58a56.19,56.19,0,0,0-4.15,6.27c-1.71,3-1.13,7.11-3.25,9.72-.45.55-.44,1.38.45.9,2.76-1.49,2.89-3.9,3.47-6.77C32,50.88,37,40,41.2,41c5.8,1.36-1,10.82-2.4,13.2-2.74,4.59-2.74,9.92-4.85,14.75-.38.87,1-.14,1.17-.4Z"/><path class="cls-1" d="M34.19,127.13c-5.91-6.84-28,6.1-30.85-2.28-3.41-10-2.66-21-1.1-31.32.72-4.78,2-10,5.49-13.76,4.15-4.44,12-1.77,10.56,4.48-1.3,5.5-4.64,13.4-4,19.32,1.78,15.61,21.85-6.67,30.63.08"/><path class="cls-2" d="M34.7,126.65c-5-5.14-15.12-1-21-.1-3.88.58-8.16,1.1-9.72-3.2C1.33,116.07,1.54,107.57,2.29,100a87.24,87.24,0,0,1,1.4-9.87,29.71,29.71,0,0,1,1.69-5.56c1.29-3,5-6.87,8.53-5.78,6.66,2.08,1.84,11.1.68,15.49-1.42,5.35-3.4,17.1,5.58,15.79C27.29,109,37,99.76,44,104.52c.75.51,2.45-1.3,1.84-1.71-6.68-4.53-15.81,2.61-22.16,4.69-6,2-8.78-1.11-8.44-7.29.23-4.14,1.63-8.16,2.79-12.11.66-2.25,1.8-4.81,1.24-7.18-.91-3.83-5.33-5-8.69-3.74-4.39,1.66-6.79,6.76-8.05,10.93C.48,95-.07,102.81,0,110c.05,4.63-.29,15.22,4.47,17.91,3.62,2.05,9.41.17,13.11-.6,4.62-1,12.21-3.45,16.09.32.19.18,1.19-.78,1-1Z"/><path class="cls-1" d="M32.29,71.93a58.19,58.19,0,0,1-4.39,4.73c-2.7,2.7-8.44,3.88-12.32,2-4.39-2-9.62-6.75-7.6-12,1.86-4.73,5.23-7.26,10.3-7.43,4.73-.17,9.79-.17,13.34,3.38,2.87,2.87,4.39,7.26,0,9.28"/><path class="cls-2" d="M31.8,71.81c-4.18,4.49-8.94,8.52-15.38,5.83-4.21-1.76-8.84-6.25-7.32-11.23,1.89-6.21,9-6.55,14.27-5.89,3.22.4,14.63,6.19,8,10.64-.77.52-1.38,2.49.14,1.71,6.19-3.17,4.11-10-1.34-13.07-5.81-3.25-15.69-2.71-20.37,2.33C4.35,68,6.33,75,13.07,78.84c8.08,4.63,15-.64,19.88-7,.8-1.06-.77-.44-1.16,0Z"/><path class="cls-1" d="M23.68,81.72c1.69,1-1.69,3.71-3.71,4.73-3.38,1-9.45.68-12.15-1.35-2.36-1.69-5.91-6.75-.34-6.41"/><path class="cls-2" d="M23.17,82.2c1,2.67-4.07,3.78-5.8,3.88a16.89,16.89,0,0,1-6.44-.73c-1.4-.48-8-5.51-4-5.84.48,0,1.9-1.6,1.25-1.66-2-.2-4.59.66-4.62,3.05,0,3,3.73,5.61,6.28,6.34,3.39,1,8.07,1.25,11.12-.75.75-.49,5.9-4.47,3.18-5.28-.26-.08-1.08.72-1,1Z"/><path class="cls-1" d="M22.17,53.86c4.9-.34,11.14-.84,13.67,4.73,2.36,5.4-5.4,12.66-8.61,6.92"/><path class="cls-2" d="M21.63,54.67c4.52-.16,10.29-.52,12.81,4.09a5.46,5.46,0,0,1-.94,6.53c-2.06,2-3.59.86-5.42-.58-.58-.46-1.91.86-1.77,1.46.62,2.66,3.57,3,5.72,2a9.62,9.62,0,0,0,5.19-6.55A7.15,7.15,0,0,0,33.45,54c-3.19-1.77-7.28-1.32-10.75-1-.54.06-1.94,1.64-1.07,1.61Z"/><path class="cls-1" d="M13.72,54.71c4.39-1.52,11.48-1.35,13.5,4.73,1.86,5.74-6.08,12.49-8.44,5.74"/><path class="cls-2" d="M13.21,55.45c4-1,9.08-1.24,11.82,2.45A6,6,0,0,1,25.38,65a3.22,3.22,0,0,1-3.13,1.75c-1.32-.24-1.85-1.39-2.56-2.39-.49-.69-2,1-1.87,1.54.49,3,3.3,3.92,5.84,2.68a9.22,9.22,0,0,0,4.88-7c.88-7.86-8.8-9.9-14.48-7.57-.33.14-1.57,1.61-.85,1.44Z"/><path class="cls-1" d="M27.9,77.16c-2.36,7.26-12.49,8.61-18.4,4.9-6.58-4.22-7.93-19.41-2-25.15,4.22-4.22,11.82-1.18,12.32,4.73.17,3.88-4.9,8.27-8.1,4.73"/><path class="cls-2" d="M27.06,77.46c-2.32,5.63-9.62,6.72-14.72,4.56-3.89-1.65-5.85-5.22-6.8-9.19S4.53,64,6.3,60.2c1.41-3.08,5.11-4.95,8.35-3.4A7.73,7.73,0,0,1,17,58.59a5.24,5.24,0,0,1,1.24,2.16q1.54,3.67-5.49,4.61c-.88-.74-2.94,1.28-2.12,2,5.74,4.87,12.79-4.28,9.16-9.88-4.68-7.21-13.43-2.73-15.95,3.62-2.76,7-1.7,18.79,5.78,22.56,7,3.52,16.29.63,19.12-6.79.45-1.17-1.45,0-1.69.59Z"/><path class="cls-1" d="M73.83,167.64c-1.59,14.85,3.12,31.41,7.34,44.82,2.23,7.09,5.49,13.71,8,20.5,1.17,3.2,0,13.48,3.42,14.7,5.76,2,12.37,1.13,12.15-3.29-.37-7.52-7.91-27.21-8.61-34.44a137,137,0,0,1-.51-22c.51-10.38,2.38-15.2,3.52-22.79.86-5.77,1.2-7.91-3-12.65-4.85-5.48-15.82-8.26-20.8-.52-.8,1.25-1.27,1.91-1,3.54Z"/><path class="cls-2" d="M98.34,249.69a18.65,18.65,0,0,1-6.1-1.09c-2.88-1-3.16-5.74-3.43-10.32a22.54,22.54,0,0,0-.6-5c-1-2.75-2.17-5.54-3.29-8.24-1.65-4-3.36-8.07-4.7-12.3-4.74-15-8.91-30.91-7.39-45.19l.5-12a5,5,0,0,1,1.08-4l.08-.12a11.09,11.09,0,0,1,8.79-5.2,17.3,17.3,0,0,1,13.59,5.59c4.5,5.08,4.13,7.52,3.25,13.42-.4,2.67-.89,5-1.36,7.25a89.23,89.23,0,0,0-2.16,15.48,136.64,136.64,0,0,0,.5,21.88c.32,3.29,2.11,9.29,4,15.65,2.16,7.24,4.4,14.72,4.6,18.83a4.39,4.39,0,0,1-1.83,3.89A9.4,9.4,0,0,1,98.34,249.69Zm-14-101.52q-.45,0-.88,0a9.18,9.18,0,0,0-7.26,4.28l-.08.12c-.73,1.13-1,1.52-.77,2.71l0,.11-.52,12.33c-1.49,13.92,2.63,29.57,7.3,44.41,1.31,4.15,3,8.21,4.63,12.13,1.13,2.72,2.3,5.53,3.33,8.32a22.62,22.62,0,0,1,.71,5.55c.19,3.18.47,8,2.1,8.55,3.8,1.34,7.92,1.29,9.79-.11a2.41,2.41,0,0,0,1-2.19c-.19-3.87-2.39-11.24-4.52-18.36-1.93-6.45-3.75-12.55-4.09-16a138.42,138.42,0,0,1-.51-22.17,91,91,0,0,1,2.2-15.79c.47-2.23.95-4.53,1.33-7.1.86-5.74,1.12-7.46-2.76-11.84A15.56,15.56,0,0,0,84.32,148.17Z"/><path class="cls-1" d="M70.79,169.16c.42,5-4.68,12.44-6.46,17.72-2.13,6.32-4.05,12.27-4.68,18.74s-1.86,13-2.53,19.25.28,16-9.55,14.1c-2.24-7-1.08-16.4-2.1-23.73-1.05-7.53-2.5-15.39-2.53-23.3-.05-12.79-1.31-38,16.2-38.49,4-.1,8.72.36,10.62,4.06.88,1.71,2.17,10.82,1.53,12.14"/><path class="cls-2" d="M49.88,240.22a13,13,0,0,1-2.51-.26l-.58-.12-.18-.56c-1.41-4.41-1.51-9.65-1.62-14.72a80,80,0,0,0-.52-9.17c-.21-1.47-.43-3-.65-4.46a132.87,132.87,0,0,1-1.89-19c0-.72,0-1.47,0-2.26-.12-13.76-.32-36.79,17.2-37.24,3.88-.09,9.31.27,11.54,4.61,1,1.85,2.39,11.28,1.55,13l-.38-.19c-.06,3.4-2,7.45-3.93,11.39a55.07,55.07,0,0,0-2.6,5.9c-2.26,6.69-4,12.3-4.64,18.51-.35,3.57-.87,7.12-1.37,10.54-.44,3-.86,5.86-1.16,8.71-.09.83-.15,1.74-.21,2.67-.27,4.17-.59,8.89-3.62,11.22A7,7,0,0,1,49.88,240.22Zm-1.53-2.12a6,6,0,0,0,4.71-.81c2.32-1.78,2.6-6,2.85-9.77.06-1,.13-1.9.22-2.76.31-2.88.73-5.75,1.17-8.79.5-3.41,1-6.93,1.36-10.45.63-6.43,2.43-12.15,4.73-19a56.26,56.26,0,0,1,2.7-6.14c1.95-4,4-8.18,3.71-11.19l.62-.05c.38-1.32-.75-9.68-1.54-11.21-1.71-3.33-6.36-3.61-9.71-3.52-15.55.4-15.36,22.19-15.25,35.22,0,.79,0,1.55,0,2.27a131.48,131.48,0,0,0,1.87,18.69c.22,1.5.45,3,.65,4.47a82.57,82.57,0,0,1,.54,9.41C47.1,229.22,47.2,234.07,48.35,238.1Z"/><path class="cls-1" d="M38.13,237.28c-2.14-2.1-5.06-6.36-5.58-9.36-.8-4.58,3-6.49,6.61-7.35,3.37-.79,8.65-1.57,11.2,1.2,3.6,3.92,0,5.8-1.59,9.44-1,2.26-.11,7-2,8.67s-10.29.63-9.89-2.6"/><path class="cls-2" d="M43.45,241.66A12.42,12.42,0,0,1,38,240.46c-2.06-1.1-2.21-2.55-2.12-3.31l.86.11c-2-2.21-4.64-6.12-5.17-9.17s.34-6.84,7.37-8.5c5.89-1.39,10-.88,12.16,1.5,3.15,3.43,1.51,5.86.06,8a15.43,15.43,0,0,0-1.47,2.5,11.69,11.69,0,0,0-.5,3.25c-.16,2.22-.32,4.52-1.78,5.78A6.35,6.35,0,0,1,43.45,241.66Zm-5.6-4.1c0,.49.6.89,1.08,1.14,2.34,1.25,6.29,1.18,7.17.42s1-2.67,1.09-4.4a12.62,12.62,0,0,1,.66-3.9A17.32,17.32,0,0,1,49.49,228c1.42-2.11,2.2-3.27.12-5.54-1.64-1.78-5.18-2.1-10.23-.91-6.67,1.57-6.06,5.06-5.85,6.2.46,2.62,3.11,6.67,5.3,8.82Z"/><path class="cls-1" d="M89,243.86c-2.69-.58-8.9-8.65-8.27-11.9.8-4.1,3.53-4.75,6.75-5.06,3.58-.35,11.6-.48,12.83,3.71,1,3.46-4.39,8.78-3,14.26.9,3.45,2.23,5-2.27,4.57-3.33-.34-7.54-3.57-8.62-6.6"/><path class="cls-2" d="M96.43,250.52c-.43,0-.91,0-1.42-.08-3.74-.38-8.25-3.84-9.46-7.26l.37-.13c-3.19-2.88-6.71-8.44-6.15-11.28.94-4.82,4.43-5.56,7.64-5.87,2.87-.28,12.36-.79,13.89,4.43.56,1.9-.37,4-1.35,6.3-1.13,2.6-2.3,5.3-1.59,8,.14.54.29,1,.43,1.49.46,1.5.83,2.68.08,3.59A3,3,0,0,1,96.43,250.52Zm-7.59-5.78a11.22,11.22,0,0,0,6.38,3.71,5.18,5.18,0,0,0,2.07,0,8,8,0,0,0-.42-1.73c-.15-.47-.31-1-.46-1.57-.88-3.36.49-6.51,1.69-9.29.83-1.92,1.62-3.74,1.27-4.94-.87-3-6.89-3.47-11.77-3-3.48.34-5.25,1.06-5.87,4.26-.5,2.59,5.25,10.25,7.5,10.73Z"/><path class="cls-1" d="M67.25,267.91C60.5,274,82,276.4,89.37,273.43c4.25-1.7,8.31-5.58,12.34-7.23,4.94-2,4.87-2.42,4.71-5.8-12.1-3.4-26.54-2.17-35.79,4.47"/><path class="cls-2" d="M80.29,275.68c-6.31,0-13.18-1.29-14.89-4.05-.51-.81-1-2.47,1.19-4.46l1.34,1.49c-1.29,1.17-1,1.71-.83,1.92,1.84,3,16.18,4.23,21.91,1.93a34.94,34.94,0,0,0,6.19-3.62,35.88,35.88,0,0,1,6.14-3.61c3.92-1.61,4.22-1.73,4.12-4.1-12.25-3.24-25.93-1.46-34.24,4.51L70,264.06c9.08-6.52,23.46-8.33,36.64-4.62l.69.2,0,.72c.2,3.89-.15,4.65-5.33,6.77a33.87,33.87,0,0,0-5.77,3.41,36.45,36.45,0,0,1-6.57,3.82A28,28,0,0,1,80.29,275.68Z"/><path class="cls-1" d="M33.82,254.49c5.42-3.25,21.27-10.34,25-3.29,1.69,3.21-2.52,4.54-5.25,6-3.44,1.82-5,3.32-7.34,4.63a33.49,33.49,0,0,1-10.36,3.84c-3.76.63-19.28,1.85-20.26-4.33.68-2.36.76-4.14,2.62-5.65"/><path class="cls-2" d="M28.37,267.19c-4.21,0-9-.52-11.62-2.42a4.94,4.94,0,0,1-2.14-3.28l0-.22.06-.21c.13-.45.23-.87.34-1.28.44-1.77.86-3.44,2.61-4.87l1.27,1.55c-1.24,1-1.52,2.13-1.94,3.81-.09.36-.18.73-.29,1.11a3,3,0,0,0,1.29,1.78c3.79,2.73,13.79,2.19,17.78,1.53a32.18,32.18,0,0,0,10-3.73c.93-.53,1.77-1.1,2.65-1.71a44.29,44.29,0,0,1,4.71-2.93c.42-.22.87-.44,1.33-.66,1.58-.77,3.38-1.64,3.72-2.68a1.65,1.65,0,0,0-.21-1.3,4.34,4.34,0,0,0-2.86-2.17c-5.66-1.58-16.41,3.26-20.72,5.86l-1-1.71c3.89-2.33,15.47-8,22.29-6.07a6.32,6.32,0,0,1,4.09,3.17,3.58,3.58,0,0,1,.34,2.85c-.61,1.85-2.81,2.91-4.75,3.86-.44.21-.87.42-1.26.63a41.92,41.92,0,0,0-4.52,2.81c-.92.63-1.79,1.23-2.8,1.81a34.22,34.22,0,0,1-10.69,4A52.33,52.33,0,0,1,28.37,267.19Z"/><path class="cls-1" d="M105.4,242.42c-.82-1.21-.48.71-1.6,1.43a11,11,0,0,1-3.14,1.6c-2.58.73-5.09.82-7.77,1.7-6.06,2-13.09,2.71-18.46,6.16-3.26,2.1-7.53,5.54-9,9.28-2.06,5.39,2.45,8.62,6.85,9.54,4.87,1,10.72,1.78,15.5,0,4.41-1.64,7.67-4.23,11.59-6.66,5-3.07,8.35-2.49,8.35-9.55,0-2.56,1.47-14.89-3.39-14.21-.25,0-.35.13-.32.37"/><path class="cls-2" d="M81.15,274.2a44.79,44.79,0,0,1-9-1.1c-3.36-.7-6.11-2.48-7.36-4.77a7.11,7.11,0,0,1-.22-6.11c1.65-4.31,6.57-8,9.35-9.76,3.78-2.44,8.32-3.56,12.7-4.64,2-.5,4.08-1,6-1.63a30.4,30.4,0,0,1,4.41-1,32.71,32.71,0,0,0,3.4-.71,9.77,9.77,0,0,0,2.8-1.43,1.63,1.63,0,0,0,.54-.87l0-.07-.69.09a1.32,1.32,0,0,1,.29-1.07,1.31,1.31,0,0,1,.94-.44,3.15,3.15,0,0,1,2.6.81c2.31,2.12,2.21,7.72,1.94,12.8,0,.69-.07,1.24-.07,1.6,0,6-2.5,7.2-5.66,8.72a32.22,32.22,0,0,0-3.16,1.67c-1,.62-2,1.26-2.92,1.88a42.69,42.69,0,0,1-8.85,4.86A20.19,20.19,0,0,1,81.15,274.2ZM105.56,243a3.25,3.25,0,0,1-1.22,1.68,11.87,11.87,0,0,1-3.41,1.72,34.56,34.56,0,0,1-3.6.76,28.57,28.57,0,0,0-4.12.93c-2,.65-4.09,1.17-6.13,1.67-4.23,1-8.6,2.13-12.1,4.38-2.08,1.34-7.07,4.87-8.57,8.79a5.12,5.12,0,0,0,.11,4.43c1,1.78,3.22,3.18,6,3.77,4.15.86,10.21,1.81,15,0a41.19,41.19,0,0,0,8.45-4.66c1-.64,1.94-1.28,3-1.91a34,34,0,0,1,3.35-1.78c3-1.45,4.53-2.17,4.53-6.92,0-.38,0-1,.07-1.71C107,251.37,107.34,244.7,105.56,243Zm-.93-.06a.85.85,0,0,0,.49.07.86.86,0,0,0,.32-.11,1.06,1.06,0,0,0-.45-.2Z"/><path class="cls-1" d="M87.84,241.75c-8.27-.83-20.52,2.35-23.31,11.8-1.51,5.13-.55,10.29,4.39,12.53,4.08,1.85,10.41,3.33,15.21,2.36,6.79-1.36,10.71-8,12.14-13.87,1.89-7.8-1.71-11.76-9.44-13.16"/><path class="cls-2" d="M80.84,269.74A32,32,0,0,1,68.51,267c-4.89-2.21-6.78-7.47-4.93-13.72,1.35-4.56,4.87-8.16,10.17-10.39A30.59,30.59,0,0,1,87,240.67l0-.25c4.58.83,7.63,2.48,9.31,5.07,1.54,2.37,1.85,5.5.93,9.31-1.48,6.11-5.65,13.16-12.92,14.61A17.8,17.8,0,0,1,80.84,269.74Zm4.48-27.11c-7.54,0-17.46,3.18-19.83,11.2-1.57,5.3-.13,9.54,3.84,11.33s10,3.21,14.6,2.29c6.35-1.27,10-7.61,11.37-13.12.8-3.3.58-5.84-.66-7.75s-3.49-3.2-6.88-4v.13C87,242.67,86.16,242.63,85.32,242.63Z"/><path class="cls-1" d="M58.55,231.54c2.11,3.12,1.91,11.86,1.6,15.61-.49,6-4.75,6.82-9.37,9.54-4,2.34-7.28,5.62-11.89,6.68-4.44,1-10.79,1.81-15.28,1.08-3.82-.63-8.8-2.82-10-7.17-1.76-6.5,1.69-9.25,7.35-10.47,2.64-.57,5.49-.25,8.12-1,2.44-.71,4.33-2.79,6.32-4.13,1.62-1.08,3.47-2.53,5.39-3,2.43-.65,5.13-.16,7.51-1a14.72,14.72,0,0,0,5-2.71c1.34-1.3,2.67-3.8,4.3-4.81Z"/><path class="cls-2" d="M27.61,265.73a25.86,25.86,0,0,1-4.15-.3c-4.37-.72-9.5-3.17-10.78-7.89-.8-3-.62-5.44.54-7.34,1.29-2.12,3.77-3.55,7.57-4.36a25.61,25.61,0,0,1,3.8-.43,19.52,19.52,0,0,0,4.25-.57,12.72,12.72,0,0,0,4.09-2.52c.63-.51,1.28-1,2-1.47l.87-.59a16.48,16.48,0,0,1,4.82-2.59,17.38,17.38,0,0,1,3.68-.45,13.23,13.23,0,0,0,3.75-.53,13.39,13.39,0,0,0,4.62-2.49,16.72,16.72,0,0,0,1.48-1.79,12.3,12.3,0,0,1,3-3.15l.83-.51L59.39,231c2.69,4,1.87,15,1.77,16.25-.44,5.37-3.78,7.1-7.31,8.94-.83.43-1.68.87-2.54,1.38-1.2.71-2.37,1.52-3.49,2.31-2.61,1.82-5.31,3.71-8.68,4.48A54.87,54.87,0,0,1,27.61,265.73Zm29.78-34.16a18.94,18.94,0,0,0-1.69,2,18,18,0,0,1-1.68,2,15.6,15.6,0,0,1-5.34,2.94,14.87,14.87,0,0,1-4.32.65,15.74,15.74,0,0,0-3.26.38,15.09,15.09,0,0,0-4.2,2.3l-.9.61c-.59.4-1.19.87-1.81,1.37a14.17,14.17,0,0,1-4.79,2.88,21.28,21.28,0,0,1-4.68.64,23.87,23.87,0,0,0-3.51.39c-3.23.69-5.29,1.82-6.28,3.45-.88,1.44-1,3.33-.32,5.78,1,3.81,5.59,5.85,9.17,6.44,4.38.72,10.57-.08,14.89-1.07,3-.68,5.42-2.38,8-4.17,1.16-.81,2.36-1.65,3.62-2.39.91-.54,1.79-1,2.64-1.43,3.42-1.78,5.89-3.06,6.24-7.33.38-4.6.31-12.39-1.43-15Z"/><path class="cls-1" d="M38.89,236c3.78.66,8.39-.35,9.12,4.56.58,3.88-1.82,7.42-4.3,10.13-5.06,5.51-14.67,8.26-22,6.82-3.3-.64-8.22-1.31-8.61-5.05a16,16,0,0,1,3.29-10.89c4.64-6.07,12.87-9.13,20.24-6.83a11.83,11.83,0,0,1,5.84,4.3"/><path class="cls-2" d="M25.77,258.9a22.44,22.44,0,0,1-4.29-.4l-.67-.13c-3.3-.63-8.3-1.57-8.74-5.8A17.07,17.07,0,0,1,15.56,241c5-6.58,13.8-9.53,21.34-7.18a11.41,11.41,0,0,1,2.81,1.32c.59.07,1.2.12,1.8.16,3,.23,6.81.51,7.5,5.14.52,3.47-1,7.05-4.56,11C40.18,256,32.71,258.9,25.77,258.9ZM31.54,235a18.35,18.35,0,0,0-14.39,7.2,15,15,0,0,0-3.09,10.18c.26,2.54,3.38,3.33,7.12,4l.69.13C29,257.94,38.32,255.08,43,250c3.15-3.43,4.47-6.47,4.05-9.3-.39-2.61-2-3.11-4.7-3.36q.47.51.91,1.08l-1.58,1.22A12.53,12.53,0,0,0,39,237l-.26,0,0-.12a9.47,9.47,0,0,0-2.44-1.17A16,16,0,0,0,31.54,235Z"/><path class="cls-1" d="M111,78a18.21,18.21,0,0,1,10.47,7.77c2,3,3.71,10.63,1.52,20.59s-3.71,15.7-5.4,21.95"/><path class="cls-2" d="M118.11,128.46l-1.12-.3c1.73-6.41,3.23-12.09,5.39-21.92,2-9.29.69-17-1.44-20.15a17.55,17.55,0,0,0-10.16-7.54l.36-1.11a18.85,18.85,0,0,1,10.77,8c2.33,3.5,3.74,11.37,1.6,21C121.35,116.34,119.85,122,118.11,128.46Z"/><path class="cls-1" d="M48.34,34.11c-7.47,9-7.1,18.82-8.7,29.79-1.54,10.51-3.41,21.3-4.47,32-1.08,10.9-4,21.26-4.05,32.41,0,10.51,4.51,20.32,11.47,28,15.27,16.89,37.77,16,55.81,5.83,7.53-4.24,13.56-13.74,17.12-21,4.24-8.67,3-21.94,3-31.74,0-5.79-4.26-34.75-4.39-37.81-.5-12.38-4.13-26.72-11.82-37.14-7.15-9.69-16.27-13.33-28.27-13.84-6.88-.29-11.66,3.38-17,7.1C53.9,29.94,49.72,32,48,35.46"/><path class="cls-2" d="M72.24,170.47q-1.43,0-2.84-.09A39.91,39.91,0,0,1,41.85,157c-7.57-8.37-11.74-18.56-11.73-28.68,0-6.89,1.14-13.55,2.23-20,.69-4.08,1.41-8.3,1.83-12.52.78-7.87,2-15.86,3.19-23.59.43-2.83.87-5.65,1.28-8.45.3-2,.53-4.08.76-6,1-8.58,1.92-16.69,8.17-24.24l.31.26c1.61-2.26,4.12-3.88,6.56-5.46.72-.46,1.43-.92,2.09-1.39l.94-.66c5.06-3.55,9.83-6.9,16.65-6.62,13.22.56,22.17,5,29,14.25,7,9.55,11.43,23.29,12,37.69,0,1.11.7,6.07,1.45,11.8,1.31,10,2.94,22.38,2.94,26.05,0,1.7,0,3.5.07,5.37.18,9.11.39,19.43-3.22,26.82-2.91,6-9.07,16.67-17.52,21.44A54.57,54.57,0,0,1,72.24,170.47ZM48.39,35.66c-5.22,6.83-6,14-7,22.29-.23,2-.46,4-.77,6.1-.41,2.8-.84,5.63-1.28,8.46-1.18,7.7-2.41,15.67-3.18,23.49-.42,4.29-1.15,8.54-1.84,12.66-1.08,6.36-2.2,12.94-2.2,19.66,0,9.63,4,19.34,11.21,27.34,10.54,11.66,30.42,19.26,54.58,5.63,8.29-4.67,14.45-15.95,16.71-20.58,3.4-6.95,3.2-17,3-25.9,0-1.88-.07-3.7-.07-5.41,0-3.54-1.69-16.4-2.92-25.79-.79-6-1.42-10.78-1.46-12-.57-14-4.81-27.35-11.62-36.58C95.09,26.29,86.61,22.14,74,21.61c-6.12-.27-10.43,2.76-15.42,6.26l-.95.66c-.68.48-1.41.95-2.15,1.43-2.65,1.71-5.4,3.49-6.63,6Z"/><path class="cls-1" d="M74.67,49.31C67.15,52.06,68.31,73.15,76,74.65c5.21,1,10.58-.71,12.17-6.08,1-3.28-.36-11.72-2-14.89A9.09,9.09,0,0,0,81,49c-1.7-.44-7-.5-7,.94"/><path class="cls-2" d="M78.75,75.91a15.36,15.36,0,0,1-2.91-.28c-4.62-.89-6.74-7.25-7.15-12.42-.47-5.89.92-12.51,5-14.57,1.65-1.23,6.24-.9,7.55-.56a10.12,10.12,0,0,1,5.88,5.15c1.73,3.45,3.06,12.11,2,15.63C87.67,73.87,83.23,75.91,78.75,75.91ZM75,50.18l0,.07C71.6,51.5,70.24,57.63,70.68,63c.39,4.83,2.25,10,5.54,10.62,4.11.8,9.46-.14,11-5.38.9-3-.38-11.14-1.89-14.16A8.07,8.07,0,0,0,80.76,50C79.2,49.61,75.78,49.72,75,50.18ZM74.91,50l.06.16A.46.46,0,0,0,75,50Z"/><path class="cls-1" d="M51.38,51c-4.7-.24-6.26,8.93-6.41,12.15C44.7,68.59,43.38,74.61,49,76.3,60.46,79.72,62.63,62.58,59.14,55c-1-2.09-1.82-3.26-4-4.07-1.49-.54-6-.91-5.42,1"/><path class="cls-2" d="M51.87,77.75a10.93,10.93,0,0,1-3.14-.49c-5.66-1.69-5.26-7.16-4.9-12,.05-.73.11-1.45.14-2.17C44.08,60.74,45,54,48.09,51.26a5.29,5.29,0,0,1,.93-.68,1.81,1.81,0,0,1,.19-.2c1.39-1.32,5-.77,6.25-.33,2.5.91,3.55,2.32,4.6,4.59,2.56,5.52,2.26,15.34-2,20.22A8,8,0,0,1,51.87,77.75ZM51.2,52a2.58,2.58,0,0,0-1.77.75c-2.34,2.12-3.35,8-3.47,10.46,0,.73-.09,1.48-.14,2.22-.39,5.41-.36,8.78,3.48,9.92,3,.9,5.46.29,7.27-1.81,3.62-4.18,3.87-13.3,1.66-18.07-.9-1.94-1.58-2.86-3.47-3.55a9.09,9.09,0,0,0-3.42-.33l0,.41Z"/><path class="cls-2" d="M52.73,94.55c-.18,2.74,1.1,5.13,1.35,7.77.23,2.46-.86,6.15,0,8.45,1.59,4.28,8.79,5.32,12.85,4.4C75.48,113.22,79.33,101,81.17,94a9.34,9.34,0,0,1,1.22-2c-7.8,1.51-21.73,8.72-29.67,3.65"/><path class="cls-2" d="M63.89,116.05c-4.21,0-9-1.56-10.36-5.09-.56-1.5-.36-3.45-.17-5.33a18.1,18.1,0,0,0,.15-3.27,18.84,18.84,0,0,0-.65-3.08,14.45,14.45,0,0,1-.71-4.78l1.16.08c0,.21,0,.43,0,.64,5.62,3.33,14.5.49,21.66-1.8a69.82,69.82,0,0,1,7.34-2.08l1.33-.26-.73,1.14c-.09.14-.21.31-.34.5a5.8,5.8,0,0,0-.81,1.39c-1.26,4.81-5.08,19.45-14.68,21.62A14.49,14.49,0,0,1,63.89,116.05ZM53.43,96.62c.13.79.34,1.56.55,2.37a19.92,19.92,0,0,1,.68,3.27,18.74,18.74,0,0,1-.15,3.49,11.88,11.88,0,0,0,.11,4.81c1.42,3.83,8.17,4.94,12.18,4,8.91-2,12.6-16.14,13.81-20.78a3.82,3.82,0,0,1,.48-1c-1.74.43-3.72,1.07-5.79,1.73C68.21,96.8,59.48,99.6,53.43,96.62Z"/><path class="cls-1" d="M49.69,93.87c9.14,6,26.28,2,34.77-3.38"/><path class="cls-2" d="M61.63,97.46c-4.59,0-8.92-.89-12.26-3.1l.64-1c9.06,6,25.94,1.8,34.14-3.38l.62,1A47.34,47.34,0,0,1,61.63,97.46Z"/><path class="cls-1" d="M64.55,109.4c-2.48-1-8-.68-8.25,3.18a15.15,15.15,0,0,0,10.78,1.72c2.74-.73,5.44-3.11,7.07-5.36-3-1.16-9.77-1.56-11.29,2"/><path class="cls-2" d="M64.08,115.26A16.88,16.88,0,0,1,56,113.08l-.31-.18,0-.35a3.92,3.92,0,0,1,1.93-3.22,8.76,8.76,0,0,1,6.54-.67c2.84-1.66,7.69-1.24,10.17-.26l.7.27-.44.61c-1.57,2.17-4.34,4.77-7.39,5.59A12.31,12.31,0,0,1,64.08,115.26Zm-7.16-3a14.49,14.49,0,0,0,10,1.48,13.41,13.41,0,0,0,6.26-4.51c-3.12-.9-8.6-.88-9.8,1.92l-1.07-.46a4,4,0,0,1,.71-1.11,7.38,7.38,0,0,0-4.77.73A2.77,2.77,0,0,0,56.92,112.26Z"/><circle class="cls-2" cx="80.67" cy="64.08" r="4.98"/><path class="cls-2" d="M80.67,69.64a5.56,5.56,0,1,1,5.56-5.56A5.57,5.57,0,0,1,80.67,69.64Zm0-10a4.4,4.4,0,1,0,4.4,4.4A4.4,4.4,0,0,0,80.67,59.68Z"/><ellipse class="cls-2" cx="54.42" cy="66.95" rx="4.05" ry="5.32"/><path class="cls-2" d="M54.42,72.85c-2.55,0-4.63-2.65-4.63-5.9S51.86,61,54.42,61s4.63,2.65,4.63,5.9S57,72.85,54.42,72.85Zm0-10.63c-1.91,0-3.47,2.13-3.47,4.74s1.56,4.74,3.47,4.74,3.47-2.12,3.47-4.74S56.33,62.21,54.42,62.21Z"/><path class="cls-1" d="M51.42,136c-4.81,0-8.87,3-8.61,8.23a10.38,10.38,0,0,0,3.9,7.46c-.09-2.74,2.6-3.58,4.32-5.05,1.41-1.2,4.94-3.94,3.93-6.08"/><path class="cls-2" d="M47.78,153.67l-1.65-1.18a11.4,11.4,0,0,1-4.32-8.22A8.38,8.38,0,0,1,44,137.9,10.13,10.13,0,0,1,51.42,135v2a8.13,8.13,0,0,0-5.92,2.29,6.43,6.43,0,0,0-1.69,4.89,9.78,9.78,0,0,0,2.27,5.58,7.54,7.54,0,0,1,3-2.92,14.25,14.25,0,0,0,1.34-1l.33-.27c1.08-.91,4-3.32,3.35-4.62l1.81-.86c1.27,2.69-2.07,5.5-3.87,7l-.31.26a15.85,15.85,0,0,1-1.53,1.11c-1.55,1-2.49,1.73-2.45,3.15Z"/><path class="cls-1" d="M36.19,85.6c-3.89.36-7.24,9.26-7.43,12.32a39.28,39.28,0,0,0,2.57,16C33,118.49,37,122,40.79,125.06c2.05,1.66,4.25,2.93,6.41,4.39,2,1.33,4.43,2.35,6.17,3.73,1.75-3,2.26-2.94.38-4.19-2.52-1.68-11-8.43-12.83-10.8-3.27-4.2-4.1-4.65-5.53-9.79A22.81,22.81,0,0,1,35,97.25c.7-3.44.66-7.6,1.29-11.58-.51-.17-.32.16-.61.44"/><path class="cls-2" d="M53.64,134.68l-.9-.72a23.29,23.29,0,0,0-3.29-2c-.95-.52-1.92-1.05-2.81-1.65-.65-.44-1.31-.86-2-1.28a51,51,0,0,1-4.52-3.16c-3.81-3.09-8-6.78-9.77-11.57a40.39,40.39,0,0,1-2.63-16.41c.19-3,3.54-12.81,8.33-13.26v0a1.71,1.71,0,0,1,.52.1l.8.27-.13.83c-.28,1.8-.43,3.67-.58,5.47A52.46,52.46,0,0,1,36,97.45a21.77,21.77,0,0,0,.37,10.67,16.46,16.46,0,0,0,4,7.79l1.31,1.66c1.69,2.17,9.9,8.79,12.59,10.59,2.18,1.45,1.94,2.28.68,4.29-.21.34-.47.75-.76,1.24ZM35.09,87.07c-2.67,1.81-5.17,8.27-5.33,10.92a38.42,38.42,0,0,0,2.51,15.59c1.58,4.31,5.39,7.65,9.15,10.71a48.64,48.64,0,0,0,4.34,3c.67.43,1.33.86,2,1.31.81.55,1.75,1.06,2.65,1.56s1.82,1,2.66,1.55l.22-.35a11.68,11.68,0,0,0,.61-1.05,7.69,7.69,0,0,0-.71-.52c-2.54-1.69-11.14-8.55-13.06-11l-1.3-1.64a18.32,18.32,0,0,1-4.41-8.5A23.7,23.7,0,0,1,34,97a50.74,50.74,0,0,0,.69-5.92C34.82,89.8,34.92,88.43,35.09,87.07Zm1.07-.46h0Z"/><path class="cls-1" d="M59.65,128.65c-2.07-3.49-7-.09-7.92,2.54-1,3-.34,8.34,3.16,9.42.83-1.49,1.58-.63,2.44-.18a6.61,6.61,0,0,0,3.34,1.05c2.57-.26,5.48-3.63,6.08-5.91A9,9,0,0,0,65.56,129c-1.22-2.26-3.69-2-5.61-.37-.55.46-1.49,1.49-1.31,1.73"/><path class="cls-2" d="M60.41,142.49a8.13,8.13,0,0,1-3.54-1.18c-.17-.09-.33-.18-.49-.28a4.42,4.42,0,0,0-.42-.24,1.7,1.7,0,0,0-.2.3l-.39.71-.77-.24a5.53,5.53,0,0,1-3.28-2.91,10.84,10.84,0,0,1-.53-7.79,7.83,7.83,0,0,1,5.89-4.68,3.78,3.78,0,0,1,3.27,1.18,5.13,5.13,0,0,1,3.78-1,3.89,3.89,0,0,1,2.72,2.1c1.44,2.67,1.86,5.07,1.27,7.31-.64,2.43-3.73,6.32-6.94,6.65Zm-4.5-3.72a2.94,2.94,0,0,1,1.52.56l.36.21a6,6,0,0,0,2.77.94c2-.21,4.68-3.13,5.21-5.17a7.94,7.94,0,0,0-1.09-5.85,1.93,1.93,0,0,0-1.33-1.08,3.55,3.55,0,0,0-2.75,1,5.59,5.59,0,0,0-1,1.13.82.82,0,0,0-.13-.77l-1.6,1.2c-.5-.67-.08-1.5.6-2.25a1.78,1.78,0,0,0-1.56-.51,6,6,0,0,0-4.2,3.33,8.83,8.83,0,0,0,.42,6.24,3.85,3.85,0,0,0,1.45,1.63,2,2,0,0,1,.91-.55A1.75,1.75,0,0,1,55.91,138.77Z"/><path class="cls-1" d="M119.92,99.27c-.15-2-4.3-1.78-5.74-1.69-12.84.8-16.31,15.33-23.59,23.34C81.43,131,73.5,133.53,70.79,134c-2.1.4-5.81,1.32-7.9.48-.39-2.61,1.22-3.16,3.18-3.68C73,129,80,121.3,82.27,119c6.41-6.41,9.94-17.78,13-22.28,2.77-4.08,8.44-10.63,13.88-13.46,2.58-1.34,5.17-1,7.89-.55"/><path class="cls-2" d="M65.1,135.87a7,7,0,0,1-2.59-.42l-.53-.21-.08-.57c-.54-3.61,2.14-4.32,3.91-4.8,6-1.62,12.33-8.06,15-10.81l.74-.75c4.08-4.08,7-10.33,9.36-15.37a54.22,54.22,0,0,1,3.51-6.77c2.49-3.67,8.29-10.69,14.25-13.79,2.85-1.48,5.66-1.15,8.53-.65l-.35,2c-2.61-.46-5-.74-7.26.45C104.74,86.7,99.19,92.75,96.1,97.3a53.28,53.28,0,0,0-3.36,6.5C90.32,109,87.3,115.41,83,119.73l-.72.73c-2.8,2.87-9.37,9.58-15.93,11.34-1.84.49-2.5.85-2.5,2,1.65.34,4.21-.18,6-.54l.81-.16c2.16-.41,9.93-2.56,19.25-12.81a55.78,55.78,0,0,0,5.85-8.42c4.41-7.21,9-14.66,18.41-15.25,1.8-.11,6.58-.41,6.8,2.61l-2,.14c0-.11-.2-1-4.68-.76-8.41.52-12.5,7.21-16.83,14.29a58.15,58.15,0,0,1-6.08,8.72c-9.73,10.71-18,13-20.35,13.43l-.79.16A26.72,26.72,0,0,1,65.1,135.87Z"/><path class="cls-1" d="M61.3,136.62c-1.13.52-1.67,3.29-1.49,4.46A6.42,6.42,0,0,0,63.44,146c1.59.84,3.67,1.09,4.82,2.56a5.14,5.14,0,0,1,.62,4.61c4.25-2.58,6.92-9.13,4.9-13.91-1.12-2.64-5.09-3.68-7.68-3.14-1.59.33-3.59,1.7-5.19,1"/><path class="cls-2" d="M66.76,155.62l1.2-2.84a4.16,4.16,0,0,0-.49-3.61,5.83,5.83,0,0,0-2.69-1.53,14.81,14.81,0,0,1-1.8-.76,7.43,7.43,0,0,1-4.16-5.65c-.19-1.27.27-4.69,2.06-5.52l.34.73.1-.23c.71.31,1.79-.1,2.82-.5a11.77,11.77,0,0,1,1.77-.58c2.78-.57,7.39.4,8.8,3.73,2.3,5.44-.9,12.48-5.3,15.15Zm-5.53-17.36a5.93,5.93,0,0,0-.44,2.67,5.39,5.39,0,0,0,3.12,4.18,13,13,0,0,0,1.56.65,7.48,7.48,0,0,1,3.58,2.18,5.8,5.8,0,0,1,1.09,2.91c2.66-2.78,4.27-7.53,2.71-11.21-.86-2-4.23-3-6.55-2.55a10.18,10.18,0,0,0-1.46.48A6.91,6.91,0,0,1,61.23,138.26Z"/><path class="cls-1" d="M61.51,1.7C73.78-1.34,89,6,97.9,14.21a37.3,37.3,0,0,1,9,11.78c1.85,3.9,1.59,12.76.76,16.52-.09,0-3.69-6.9-8.54-9a63.08,63.08,0,0,0-14-4.4C79,28,73.57,25.37,67.33,23.56c-7.06-2-8.79-6.69-7.18-13.43.46-1.91.55-8.37,2.71-8.09"/><path class="cls-2" d="M107.68,43.51c-.56,0-.8-.39-1.08-.85-3.27-5.41-6.07-7.46-7.85-8.22A62,62,0,0,0,85,30.11,70.63,70.63,0,0,1,74,26.85c-2.25-.8-4.57-1.63-7-2.33-7.15-2.07-9.73-6.85-7.88-14.62.1-.41.19-1.14.28-1.91.38-3.06.76-5.49,2-6.5L61.27.73C74-2.42,89.52,5.13,98.58,13.48a37.88,37.88,0,0,1,9.25,12.09c2,4.32,1.62,13.6.83,17.16l-.17.75-.77,0ZM62.81,2.44,62.73,3c-.69.32-1.14,4-1.29,5.21-.11.86-.2,1.61-.32,2.13-1.6,6.71.4,10.48,6.49,12.24,2.46.71,4.81,1.55,7.08,2.36a69.1,69.1,0,0,0,10.63,3.18A64,64,0,0,1,99.54,32.6c2.55,1.1,5.09,3.5,7.56,7.14.44-4.29.26-10.5-1.08-13.32a36,36,0,0,0-8.8-11.47C88.8,7.18,74.6.12,62.81,2.44Z"/><path class="cls-1" d="M44,29c1-8.71,7.92-26.55,18.23-27.69C73.41.12,81.39,11.7,83.78,21.29a21.9,21.9,0,0,1,.63,6.7c-7.58-2-13.59-2.87-21.55-2-3.39.38-17,5.81-18.91,3"/><path class="cls-2" d="M46.38,30.84c-1.55,0-2.66-.36-3.25-1.22l-.21-.31,0-.37C44,19.33,51.31,1.55,62.07.36c5.41-.6,10.57,1.55,15,6.22A33.63,33.63,0,0,1,84.75,21a22.91,22.91,0,0,1,.66,7l-.06,1.23L84.16,29C77,27.09,71,26.11,63,27a43.57,43.57,0,0,0-5.05,1.31C53.07,29.75,49.07,30.84,46.38,30.84ZM45,28.68c1.62.88,9.07-1.31,12.36-2.27A41.78,41.78,0,0,1,62.75,25a54.27,54.27,0,0,1,20.7,1.69,20.63,20.63,0,0,0-.64-5.18C80.29,11.41,72.26,1.25,62.29,2.35c-5.33.59-9.39,6-11.86,10.5A49,49,0,0,0,45,28.68Z"/><path class="cls-1" d="M44.12,38.67c-3.66.12-14.86-3.3-21.69-7.77-6.58-4.3-1.87-11.79-.76-13.42,4.81-7.09,9.56-8.18,19.17-9.28,9.23-1.05,19.11-.73,25.9,4.46,3.15,2.41,12.77,9.75,15.7,12.41a58.67,58.67,0,0,0,5.32,4.05c-13.82.81-35.16-2.12-44.26,11-.15.11,1-.59,1.3-.79"/><path class="cls-2" d="M43.46,41.16a.85.85,0,0,1-.37-.09l-.59-.81.28-.62-.06,0c-4.7-.53-14.41-3.65-20.83-7.85a8,8,0,0,1-3.73-5.21c-.79-3.94,1.62-8,2.69-9.61,5-7.3,9.86-8.56,19.88-9.71,12-1.37,20.72.15,26.62,4.66l.27.21c3.45,2.63,12.61,9.64,15.49,12.25a24.13,24.13,0,0,0,3.11,2.45c.58.4,1.24.85,2.14,1.55L90.47,30l-2.65.16c-2.66.16-5.55.17-8.62.2-12.59.08-26.81.17-34.13,9.38l.33.44C44.3,41,43.78,41.16,43.46,41.16Zm.63-3.49v.08c8.09-9.25,23-9.35,35.09-9.43,2,0,3.85,0,5.64-.07a25.42,25.42,0,0,1-3.05-2.43C79,23.26,69.84,16.3,66.41,13.68l-.28-.21C60.66,9.29,52.43,7.9,41,9.2,31.36,10.3,27,11.41,22.5,18c-.93,1.37-3,4.9-2.38,8.1A6,6,0,0,0,23,30.07C29.52,34.35,40.59,37.76,44.09,37.67Z"/><path class="cls-1" d="M73.66,32.76c-1.32,1.9-1.73,5.2-.46,7.22,1.57,2.5,4.25,1.6,6.88,1.73s4.41,1.82,6.92,2.41c2.83.67,2.11-4.06,1.06-5.6a17.34,17.34,0,0,0-6.62-5.62c-1.94-1-6.61-1.72-8.11.21"/><path class="cls-2" d="M87.49,45.18a3.2,3.2,0,0,1-.73-.09,14.6,14.6,0,0,1-3.08-1.2A9.31,9.31,0,0,0,80,42.71c-.57,0-1.17,0-1.76,0-2.06.09-4.41.19-5.92-2.22s-1-5.83.26-8l-.08-.06c1.88-2.42,7.08-1.61,9.34-.5a18.35,18.35,0,0,1,7,6c.85,1.24,1.69,4.55.53,6.24A2.24,2.24,0,0,1,87.49,45.18Zm-8-4.48.65,0a11.05,11.05,0,0,1,4.43,1.38,12.8,12.8,0,0,0,2.66,1.05c.42.1.49,0,.54-.08.5-.72.09-3.06-.54-4A16.31,16.31,0,0,0,81,33.79c-1.78-.87-5.23-1.3-6.57-.36-1,1.55-1.42,4.36-.38,6,.85,1.36,2.06,1.37,4.14,1.28C78.61,40.71,79,40.7,79.48,40.7Z"/><path class="cls-1" d="M44.8,51.67a18.11,18.11,0,0,1,5.73-5.44c2-1.19,4-2.38,4.7-4.72s.95-6.22-2.16-6.21c-2.65,0-5.1,2.39-6.41,4.56-.77,1.27-5.48,12.39-1,11.31"/><path class="cls-2" d="M45.08,52.24a2.13,2.13,0,0,1-1.78-.87c-2.09-2.85,2.45-12,2.5-12,1.4-2.32,4.14-5,7.27-5h0a3.24,3.24,0,0,1,2.71,1.24c1.4,1.83.74,5,.39,6.23-.75,2.71-3.06,4.08-5.1,5.29a17,17,0,0,0-5.26,4.88l0,.2-.22,0,0,.05-.06,0A3.11,3.11,0,0,1,45.08,52.24Zm8-15.94h0c-2.15,0-4.34,2.05-5.56,4.07-.92,1.52-3.28,7.92-2.71,9.6A18.63,18.63,0,0,1,50,45.37c1.93-1.14,3.71-2.19,4.24-4.13s.52-3.74-.05-4.48A1.26,1.26,0,0,0,53.09,36.3Z"/><path class="cls-1" d="M101.5,93.53c2-5.6,13.35-12.22,18.42-8"/><path class="cls-2" d="M101.5,94.28c2.39-5.84,12.48-12.29,18.42-8-.23-.17.25-1.32,0-1.5-5.94-4.34-16,2.12-18.42,8-.18.43.17,1.08,0,1.5Z"/><path class="cls-1" d="M61.8,129.45A3.48,3.48,0,0,0,58,133.64"/><path class="cls-2" d="M61.53,128.75a3.56,3.56,0,0,0-3.77,4.19c.06.48.48.92.54,1.4a3.56,3.56,0,0,1,3.77-4.19c-.18,0-.33-1.39-.54-1.4Z"/><path class="cls-1" d="M66.91,138.1c-.31,3,4.53,2.46,4.55,5.51.72-1.35,1.38-3.23,0-4.28s-3.36-.62-4.66-1.54c-.15.44.16.16.31.31"/><path class="cls-2" d="M70.89,145.92v-2.31c0-1.08-.78-1.57-2-2.24-1.12-.59-2.49-1.31-2.52-3l0,0a.82.82,0,0,1-.06-.77l.25-.74.64.45a5.23,5.23,0,0,0,2.07.65,6,6,0,0,1,2.61.9c.94.7,1.73,2.13.19,5Zm-3.36-7.13c.19.66.84,1,1.84,1.56A5.85,5.85,0,0,1,71.53,142c.45-1.5-.2-2-.45-2.17a5.07,5.07,0,0,0-2.12-.69A11.42,11.42,0,0,1,67.53,138.79Zm-.3-.84.09,0a.61.61,0,0,0,0-.1Z"/><path class="cls-1" d="M55.26,128.31a4.17,4.17,0,0,0-2.53,4.39"/><path class="cls-2" d="M55,127.61A4.28,4.28,0,0,0,52.46,132c0,.48.5.93.54,1.4A4.28,4.28,0,0,1,55.53,129s-.56-1.39-.54-1.4Z"/><path class="cls-1" d="M35.85,87.25c-2.92,1-4.84,6.26-5.19,8.86a8.37,8.37,0,0,0,.38,4.18"/><path class="cls-2" d="M35.58,86.55c-4.29,1.87-6.13,9-4.8,13.07.14.43.41,1,.52,1.35-1.31-4.08.57-11.17,4.82-13,0,0-.55-1.4-.54-1.4Z"/><path class="cls-1" d="M51.38,87.29c2.15-3.29,8.24-5.17,11.82-5.06"/><path class="cls-2" d="M51.38,88C53.91,84.53,59,83,63.2,83c0,0,0-1.5,0-1.5-4.16,0-9.29,1.56-11.82,5.06-.24.33.23,1.18,0,1.5Z"/><path class="cls-1" d="M109.88,111.09c12.4,4.77,21.5,65.17,8.48,64.35-4.35-.27-4.68-9.19-5.84-11.89a121.39,121.39,0,0,0-5.68-11.16c-2.37-4.25-4.35-8.72-6.71-12.94-2-3.58-4.69-6.36-6.84-9.74"/><path class="cls-2" d="M118.62,176.45h-.32c-3.94-.25-5.08-5.57-5.91-9.45a20.66,20.66,0,0,0-.79-3A120.79,120.79,0,0,0,106,152.87c-1.19-2.13-2.29-4.34-3.36-6.48s-2.17-4.35-3.35-6.46a46,46,0,0,0-3.76-5.45c-1-1.35-2.1-2.74-3.05-4.24l1.69-1.07c.91,1.43,2,2.79,3,4.1A47.49,47.49,0,0,1,101,139c1.2,2.14,2.31,4.38,3.39,6.54s2.15,4.31,3.32,6.4a122.53,122.53,0,0,1,5.73,11.26,20.9,20.9,0,0,1,.9,3.41c.7,3.26,1.65,7.72,4.08,7.88s3.86-3.17,4.47-6c3.38-15.47-4.32-52.94-13.38-56.42l.72-1.87c6.81,2.62,11,18.34,12.56,25,2.92,12.85,3.72,26.09,2.06,33.73C123.5,175.06,120.78,176.45,118.62,176.45Z"/><path class="cls-1" d="M125.45,171.68c1.32-8.19-14.07-11.79-14.56-2.37"/><path class="cls-2" d="M126.44,171.84l-2-.32a5.27,5.27,0,0,0-2.26-5.08c-2.29-1.73-5.57-2.24-7.79-1.2a4.42,4.42,0,0,0-2.53,4.12l-2-.1a6.44,6.44,0,0,1,3.68-5.83c2.9-1.35,6.95-.76,9.84,1.42A7.2,7.2,0,0,1,126.44,171.84Z"/><path class="cls-1" d="M126.06,204c3.18-1.8,4.3-10.3,4.81-14,.65-4.77.29-10.71-2-14.71A14.46,14.46,0,0,0,105.4,173c-4.79,5.49-8.12,18.09-6.37,25.39,1.16,4.82,6.09,5.9,8.4,1.31.94-1.87,1.06-3.8,2-5.62,1.11-2.13,2-2.28,3.24-4.17"/><path class="cls-2" d="M126.56,204.87l-1-1.74c2.71-1.54,3.86-10,4.29-13.15l0-.15c.58-4.22.38-10.14-1.9-14.07a13.27,13.27,0,0,0-10.3-6.64,13.43,13.43,0,0,0-11.52,4.59c-4.67,5.35-7.78,17.71-6.15,24.5.46,1.93,1.69,3.29,3.13,3.46s2.57-.71,3.41-2.36a14.18,14.18,0,0,0,.92-2.6,15.14,15.14,0,0,1,1.1-3,10.07,10.07,0,0,1,1.93-2.61,10.67,10.67,0,0,0,1.37-1.66l1.67,1.11a12.7,12.7,0,0,1-1.59,1.94,8.15,8.15,0,0,0-1.6,2.15,13.45,13.45,0,0,0-.95,2.65,15.9,15.9,0,0,1-1.06,3c-1.22,2.41-3.24,3.7-5.42,3.45s-4.17-2.18-4.85-5c-1.78-7.42,1.48-20.44,6.59-26.28a15.41,15.41,0,0,1,13.22-5.26,15.24,15.24,0,0,1,11.84,7.62c2.15,3.71,3,9.45,2.15,15.34l0,.15C130.95,196.79,129.69,203.09,126.56,204.87Z"/><path class="cls-1" d="M126.17,190.51c.8,5.11.53,9.7-2,14.2-1.07,1.89-2.41,4.49-4.43,5.19-1.82.63-5.35-.42-4.75-2.6"/><path class="cls-2" d="M118.53,211.09a5.7,5.7,0,0,1-3.71-1.29A2.67,2.67,0,0,1,114,207l1.93.53a.68.68,0,0,0,.25.76,3.77,3.77,0,0,0,3.21.63c1.52-.53,2.71-2.64,3.66-4.34l.23-.4c2.17-3.84,2.76-8,1.9-13.56l2-.31c.93,6,.28,10.59-2.13,14.85l-.22.4c-1.12,2-2.51,4.47-4.75,5.25A4.66,4.66,0,0,1,118.53,211.09Z"/><path class="cls-1" d="M120.65,191a19.85,19.85,0,0,1-1.56,13c-1.47,2.91-4.88,8.17-8.53,6.9-5.11-1.77-2.25-6.85-.56-10s3.58-8.77,2.51-12.8"/><path class="cls-2" d="M111.71,212.15a4.45,4.45,0,0,1-1.46-.25,5,5,0,0,1-3.26-2.82c-1-2.67.74-6,2-8.38l.11-.21c1.88-3.5,3.35-8.59,2.43-12.07l1.93-.52c1.14,4.28-.69,10-2.6,13.53l-.11.21c-1,2-2.63,4.9-1.93,6.71A3.07,3.07,0,0,0,110.9,210c2.57.88,5.53-2.9,7.31-6.41a18.92,18.92,0,0,0,1.47-12.39l2-.39A20.9,20.9,0,0,1,120,204.5C119,206.42,115.78,212.15,111.71,212.15Z"/></svg>