<svg id="Icons" xmlns="http://www.w3.org/2000/svg" viewBox="0 0 99.12 206.76"><defs><style>.cls-1{fill:#10069f;}.cls-2{fill:#050050;}</style></defs><title>og-question-mobile</title><path class="cls-1" d="M21.28,57.14s7.7.42,9.59-4.52-1.77-5.9-5.44-3.14"/><path class="cls-2" d="M21.77,57.58h-.52l0-.87c.07,0,7.4.34,9.16-4.24.69-1.79.64-3.16-.13-3.74-.94-.71-2.85-.25-4.65,1.1l-.52-.7c2.18-1.64,4.42-2.07,5.7-1.1.65.49,1.56,1.76.41,4.75C29.56,57.24,23.59,57.58,21.77,57.58Z"/><path class="cls-1" d="M25.94,51.48c1.68-2.7,1.72-7.19,3.34-10.06.93-1.8,6.53-8.17,2.74-11.21C29.23,28,24.94,35.76,23.49,38,22.22,39.91,23,43.88,21,45"/><path class="cls-2" d="M26.34,51.39c2.41-3.8,2.59-8.41,5.09-12.23,1.49-2.28,4.7-7.47,1.29-9.71-2.51-1.64-5.24,1.7-6.58,3.44A42.14,42.14,0,0,0,23,37.58c-1.28,2.23-.84,5.33-2.44,7.29-.34.42-.33,1,.34.67,2.07-1.12,2.17-2.93,2.61-5.08S27.75,30,30.9,30.73c4.35,1-.74,8.12-1.8,9.9C27,44.06,27,48.06,25.46,51.69c-.28.65.75-.1.88-.3Z"/><path class="cls-1" d="M25.64,95.35c-4.43-5.13-21,4.58-23.14-1.71-2.56-7.52-2-15.74-.83-23.49.54-3.58,1.5-7.51,4.12-10.32,3.11-3.33,9-1.33,7.92,3.36-1,4.13-3.48,10-3,14.49,1.34,11.71,16.39-5,23,.06"/><path class="cls-2" d="M26,95c-3.72-3.86-11.34-.73-15.75-.07-2.91.43-6.12.83-7.29-2.4C1,87.05,1.16,80.68,1.72,75a65.43,65.43,0,0,1,1.05-7.4A22.28,22.28,0,0,1,4,63.42c1-2.22,3.78-5.15,6.4-4.33,5,1.56,1.38,8.32.51,11.61-1.06,4-2.55,12.83,4.19,11.84,5.34-.78,12.63-7.72,17.9-4.16.56.38,1.84-1,1.38-1.29-5-3.4-11.86,2-16.62,3.52-4.49,1.47-6.59-.83-6.33-5.47.17-3.11,1.22-6.12,2.09-9.08.5-1.69,1.35-3.61.93-5.38-.68-2.88-4-3.76-6.51-2.81-3.29,1.25-5.09,5.07-6,8.2A55.94,55.94,0,0,0,0,82.48C0,86-.21,93.89,3.36,95.92c2.71,1.54,7.05.12,9.83-.45,3.46-.71,9.16-2.59,12.07.24.14.14.89-.58.77-.71Z"/><path class="cls-1" d="M24.22,53.95a43.65,43.65,0,0,1-3.29,3.55A9,9,0,0,1,11.69,59C8.39,57.49,4.47,53.95,6,50a8,8,0,0,1,7.72-5.57c3.54-.13,7.34-.13,10,2.53,2.15,2.15,3.29,5.44,0,7"/><path class="cls-2" d="M23.85,53.86c-3.14,3.37-6.7,6.39-11.53,4.37-3.16-1.32-6.63-4.69-5.49-8.42,1.42-4.66,6.71-4.91,10.7-4.42,2.41.3,11,4.64,6,8-.58.39-1,1.87.1,1.28,4.64-2.38,3.08-7.52-1-9.8-4.36-2.44-11.77-2-15.28,1.74C3.27,51,4.75,56.23,9.8,59.13c6.06,3.48,11.28-.48,14.91-5.26.6-.79-.57-.33-.87,0Z"/><path class="cls-1" d="M17.76,61.29C19,62,16.5,64.07,15,64.83c-2.53.76-7.09.51-9.12-1C4.09,62.55,1.43,58.76,5.61,59"/><path class="cls-2" d="M17.38,61.65c.75,2-3.06,2.83-4.35,2.91A12.67,12.67,0,0,1,8.2,64c-1-.36-6-4.13-3-4.38.36,0,1.43-1.2.94-1.25-1.48-.15-3.44.49-3.46,2.29,0,2.28,2.8,4.21,4.71,4.75,2.54.72,6.05.93,8.34-.56.57-.37,4.43-3.35,2.39-4-.19-.06-.81.54-.74.74Z"/><path class="cls-1" d="M16.62,40.4c3.67-.25,8.36-.63,10.26,3.55s-4.05,9.5-6.46,5.19"/><path class="cls-2" d="M16.22,41c3.39-.12,7.72-.39,9.61,3.07a4.1,4.1,0,0,1-.7,4.9c-1.54,1.52-2.69.64-4.06-.44-.43-.34-1.43.64-1.33,1.1.46,2,2.68,2.24,4.29,1.52a7.21,7.21,0,0,0,3.89-4.91,5.36,5.36,0,0,0-2.83-5.72c-2.39-1.33-5.46-1-8.06-.72-.41,0-1.46,1.23-.8,1.21Z"/><path class="cls-1" d="M10.29,41c3.29-1.14,8.61-1,10.13,3.55,1.39,4.3-4.56,9.37-6.33,4.3"/><path class="cls-2" d="M9.91,41.59c3-.72,6.81-.93,8.86,1.84A4.5,4.5,0,0,1,19,48.73,2.42,2.42,0,0,1,16.69,50c-1-.18-1.38-1-1.92-1.79-.37-.52-1.47.73-1.4,1.15.36,2.26,2.47,2.94,4.38,2a6.92,6.92,0,0,0,3.66-5.22c.66-5.89-6.6-7.42-10.86-5.68-.25.1-1.18,1.21-.64,1.08Z"/><path class="cls-1" d="M20.93,57.87c-1.77,5.44-9.37,6.46-13.8,3.67C2.19,58.38,1.18,47,5.61,42.68c3.17-3.17,8.86-.89,9.24,3.55.13,2.91-3.67,6.2-6.08,3.54"/><path class="cls-2" d="M20.29,58.09c-1.74,4.23-7.22,5-11,3.42-2.92-1.24-4.39-3.92-5.1-6.9a15,15,0,0,1,.57-9.47A4.78,4.78,0,0,1,11,42.6a5.8,5.8,0,0,1,1.78,1.35,3.93,3.93,0,0,1,.93,1.62Q14.85,48.32,9.57,49c-.66-.56-2.21,1-1.59,1.49,4.3,3.65,9.6-3.21,6.87-7.41-3.51-5.41-10.08-2-12,2.72C.82,51.06,1.62,59.91,7.22,62.74c5.24,2.64,12.22.47,14.34-5.09.34-.88-1.09,0-1.27.44Z"/><path class="cls-1" d="M55.37,125.73c-1.2,11.14,2.34,23.56,5.51,33.61,1.68,5.32,4.12,10.28,6,15.37.88,2.4,0,10.11,2.56,11,4.32,1.52,9.28.85,9.12-2.47-.27-5.64-5.94-20.41-6.46-25.83a102.74,102.74,0,0,1-.38-16.52c.38-7.79,1.79-11.4,2.64-17.09.65-4.33.9-5.93-2.25-9.49-3.63-4.11-11.87-6.2-15.6-.39a3.11,3.11,0,0,0-.74,2.66Z"/><path class="cls-2" d="M73.75,187.27a14,14,0,0,1-4.57-.82c-2.16-.76-2.37-4.31-2.57-7.74a16.9,16.9,0,0,0-.45-3.74c-.76-2.06-1.63-4.16-2.47-6.18-1.24-3-2.52-6.05-3.52-9.23-3.55-11.28-6.68-23.18-5.54-33.9l.38-9a3.74,3.74,0,0,1,.81-3l.06-.09a8.32,8.32,0,0,1,6.6-3.9,13,13,0,0,1,10.19,4.19c3.37,3.81,3.1,5.64,2.44,10.06-.3,2-.67,3.75-1,5.44A66.92,66.92,0,0,0,72.46,141a102.48,102.48,0,0,0,.38,16.41c.24,2.47,1.58,7,3,11.74,1.62,5.43,3.3,11,3.45,14.13a3.3,3.3,0,0,1-1.37,2.92A7,7,0,0,1,73.75,187.27ZM63.24,111.13l-.66,0a6.89,6.89,0,0,0-5.45,3.21l-.06.09c-.55.85-.73,1.14-.58,2v.08l-.39,9.24c-1.12,10.44,2,22.18,5.48,33.31,1,3.11,2.25,6.16,3.48,9.1.85,2,1.73,4.14,2.49,6.24a17,17,0,0,1,.54,4.16c.14,2.38.35,6,1.57,6.41,2.85,1,5.94,1,7.35-.08a1.81,1.81,0,0,0,.77-1.64c-.14-2.91-1.79-8.43-3.39-13.77-1.45-4.84-2.81-9.41-3.06-12A103.82,103.82,0,0,1,71,140.89,68.23,68.23,0,0,1,72.6,129c.35-1.67.71-3.4,1-5.32.64-4.3.84-5.59-2.07-8.88A11.67,11.67,0,0,0,63.24,111.13Z"/><path class="cls-1" d="M53.09,126.87c.31,3.75-3.51,9.33-4.84,13.29a62.67,62.67,0,0,0-3.51,14.05c-.48,4.95-1.4,9.78-1.9,14.43s.21,12-7.16,10.58c-1.68-5.27-.81-12.3-1.58-17.79-.79-5.65-1.87-11.54-1.9-17.47,0-9.59-1-28.53,12.15-28.87,3-.08,6.54.27,8,3,.66,1.28,1.63,8.12,1.15,9.1"/><path class="cls-2" d="M37.41,180.16a9.74,9.74,0,0,1-1.88-.2l-.43-.09-.13-.42c-1.06-3.31-1.14-7.24-1.21-11a60,60,0,0,0-.39-6.88c-.15-1.11-.32-2.22-.49-3.34A99.65,99.65,0,0,1,31.46,144c0-.54,0-1.1,0-1.69-.09-10.32-.24-27.59,12.9-27.93,2.91-.07,7,.2,8.65,3.46.71,1.39,1.79,8.46,1.16,9.77l-.29-.14c0,2.55-1.52,5.59-2.95,8.54a41.31,41.31,0,0,0-2,4.43c-1.69,5-3,9.22-3.48,13.89-.26,2.68-.65,5.34-1,7.91-.33,2.26-.64,4.4-.87,6.53-.07.63-.11,1.3-.16,2-.21,3.13-.44,6.67-2.72,8.42A5.27,5.27,0,0,1,37.41,180.16Zm-1.15-1.59a4.48,4.48,0,0,0,3.53-.6c1.74-1.34,1.95-4.52,2.13-7.33,0-.72.09-1.42.16-2.07.23-2.16.55-4.31.88-6.59.37-2.55.76-5.2,1-7.84.47-4.82,1.83-9.11,3.55-14.22a42.19,42.19,0,0,1,2-4.6c1.46-3,3-6.13,2.78-8.39l.46,0c.28-1-.56-7.26-1.15-8.41-1.29-2.5-4.77-2.71-7.28-2.64-11.66.3-11.52,16.65-11.43,26.41,0,.59,0,1.16,0,1.7a98.61,98.61,0,0,0,1.4,14c.17,1.13.33,2.24.49,3.35a61.93,61.93,0,0,1,.41,7.06C35.32,171.91,35.4,175.55,36.26,178.57Z"/><path class="cls-1" d="M28.6,178c-1.61-1.58-3.79-4.77-4.19-7-.6-3.43,2.22-4.87,5-5.51,2.53-.6,6.49-1.18,8.4.9,2.7,2.94,0,4.35-1.19,7.08-.73,1.69-.08,5.27-1.51,6.5s-7.72.47-7.42-2"/><path class="cls-2" d="M32.59,181.24a9.32,9.32,0,0,1-4.1-.9,2.45,2.45,0,0,1-1.59-2.48l.65.08c-1.49-1.66-3.48-4.59-3.88-6.88s.25-5.13,5.52-6.37c4.42-1,7.48-.66,9.12,1.13,2.36,2.57,1.13,4.4,0,6a11.57,11.57,0,0,0-1.1,1.88,8.77,8.77,0,0,0-.38,2.44c-.12,1.67-.24,3.39-1.33,4.33A4.76,4.76,0,0,1,32.59,181.24Zm-4.2-3.07c0,.37.45.66.81.86,1.76.94,4.72.88,5.37.31s.72-2,.82-3.3a9.46,9.46,0,0,1,.5-2.93A13,13,0,0,1,37.12,171c1.07-1.58,1.65-2.45.09-4.15-1.23-1.34-3.88-1.57-7.67-.68-5,1.18-4.54,3.79-4.39,4.65.34,2,2.33,5,4,6.61Z"/><path class="cls-1" d="M66.77,182.89c-2-.44-6.68-6.49-6.2-8.93.6-3.08,2.64-3.56,5.06-3.8,2.69-.26,8.7-.36,9.62,2.79.76,2.6-3.29,6.58-2.22,10.7.68,2.59,1.67,3.77-1.7,3.43a8.9,8.9,0,0,1-6.47-4.95"/><path class="cls-2" d="M72.32,187.89c-.32,0-.68,0-1.06-.06a9.57,9.57,0,0,1-7.1-5.44l.28-.1c-2.39-2.16-5-6.33-4.61-8.46.7-3.62,3.33-4.17,5.73-4.4,2.15-.21,9.27-.59,10.42,3.32.42,1.42-.28,3-1,4.72-.85,2-1.72,4-1.2,6,.11.41.22.78.32,1.11.35,1.12.62,2,.06,2.69A2.21,2.21,0,0,1,72.32,187.89Zm-5.7-4.34a8.41,8.41,0,0,0,4.79,2.78,3.88,3.88,0,0,0,1.55,0,6,6,0,0,0-.31-1.3c-.11-.35-.23-.75-.34-1.18-.66-2.52.37-4.89,1.27-7,.63-1.44,1.22-2.8,1-3.71-.65-2.23-5.16-2.61-8.83-2.25-2.61.25-3.93.8-4.4,3.19-.38,1.95,3.94,7.69,5.63,8Z"/><path class="cls-1" d="M50.44,200.94c-5.06,4.56,11,6.36,16.59,4.14,3.18-1.28,6.23-4.19,9.25-5.42,3.71-1.52,3.66-1.82,3.53-4.35-9.07-2.55-19.91-1.62-26.84,3.36"/><path class="cls-2" d="M60.22,206.76c-4.74,0-9.88-1-11.17-3-.38-.61-.77-1.85.89-3.34l1,1.11c-1,.87-.72,1.28-.62,1.44,1.38,2.22,12.13,3.17,16.43,1.45a26.21,26.21,0,0,0,4.64-2.72A26.91,26.91,0,0,1,76,199c2.94-1.2,3.16-1.3,3.09-3.07-9.19-2.43-19.45-1.09-25.68,3.38L52.53,198c6.81-4.89,17.59-6.25,27.48-3.47l.52.15,0,.54c.15,2.92-.11,3.49-4,5.08a25.4,25.4,0,0,0-4.33,2.56,27.34,27.34,0,0,1-4.93,2.87A21,21,0,0,1,60.22,206.76Z"/><path class="cls-1" d="M25.37,190.87c4.07-2.44,16-7.76,18.74-2.47,1.27,2.41-1.89,3.41-3.94,4.49-2.58,1.37-3.77,2.49-5.51,3.47a25.12,25.12,0,0,1-7.77,2.88c-2.82.47-14.46,1.39-15.2-3.25.51-1.77.57-3.1,2-4.24"/><path class="cls-2" d="M21.28,200.39c-3.16,0-6.73-.39-8.72-1.82a3.71,3.71,0,0,1-1.6-2.46l0-.16,0-.16c.1-.34.18-.66.25-1a6,6,0,0,1,2-3.65l1,1.16a4.55,4.55,0,0,0-1.45,2.86c-.07.27-.14.55-.22.84a2.29,2.29,0,0,0,1,1.33c2.84,2,10.35,1.65,13.33,1.15a24.13,24.13,0,0,0,7.53-2.79c.7-.4,1.33-.83,2-1.29a33.22,33.22,0,0,1,3.54-2.2l1-.5c1.19-.58,2.53-1.23,2.79-2a1.24,1.24,0,0,0-.16-1,3.25,3.25,0,0,0-2.14-1.63c-4.24-1.19-12.3,2.45-15.54,4.39L25,190.23c2.92-1.75,11.6-6,16.72-4.55a4.74,4.74,0,0,1,3.07,2.37,2.69,2.69,0,0,1,.26,2.14c-.45,1.39-2.1,2.19-3.56,2.89l-.95.47a31.44,31.44,0,0,0-3.39,2.1c-.69.48-1.34.93-2.1,1.36a25.66,25.66,0,0,1-8,3A39.25,39.25,0,0,1,21.28,200.39Z"/><path class="cls-1" d="M79,181.82c-.61-.9-.36.53-1.2,1.08a8.21,8.21,0,0,1-2.35,1.2c-1.94.55-3.82.62-5.82,1.27-4.54,1.48-9.82,2-13.84,4.62-2.44,1.57-5.65,4.15-6.72,7-1.55,4,1.84,6.46,5.14,7.15,3.65.76,8,1.34,11.63,0,3.31-1.23,5.75-3.17,8.69-5,3.71-2.3,6.27-1.87,6.26-7.16,0-1.92,1.1-11.17-2.55-10.66-.19,0-.27.09-.24.28"/><path class="cls-2" d="M60.86,205.65a33.59,33.59,0,0,1-6.77-.82,8.06,8.06,0,0,1-5.52-3.57,5.33,5.33,0,0,1-.17-4.58c1.24-3.23,4.93-6,7-7.32,2.84-1.83,6.24-2.67,9.53-3.48,1.5-.37,3.06-.76,4.49-1.22a22.8,22.8,0,0,1,3.3-.75,24.53,24.53,0,0,0,2.55-.53,7.32,7.32,0,0,0,2.1-1.07,1.22,1.22,0,0,0,.41-.65l0-.05-.52.07a1,1,0,0,1,.22-.8,1,1,0,0,1,.7-.33,2.36,2.36,0,0,1,2,.61c1.73,1.59,1.66,5.79,1.45,9.6,0,.52,0,.93,0,1.2,0,4.5-1.87,5.4-4.25,6.54A24.16,24.16,0,0,0,75,199.74c-.75.47-1.48.94-2.19,1.41a32,32,0,0,1-6.64,3.65A15.14,15.14,0,0,1,60.86,205.65Zm18.31-23.39a2.44,2.44,0,0,1-.91,1.26,8.91,8.91,0,0,1-2.56,1.29,25.92,25.92,0,0,1-2.7.57,21.43,21.43,0,0,0-3.09.69c-1.49.49-3.07.88-4.6,1.25-3.17.78-6.45,1.59-9.07,3.29-1.56,1-5.3,3.66-6.43,6.6a3.84,3.84,0,0,0,.08,3.33,6.58,6.58,0,0,0,4.51,2.82c3.11.65,7.65,1.36,11.22,0a30.89,30.89,0,0,0,6.34-3.49c.72-.48,1.46-1,2.22-1.43a25.52,25.52,0,0,1,2.51-1.33c2.26-1.09,3.4-1.63,3.4-5.19,0-.29,0-.73.05-1.28C80.24,188.53,80.5,183.53,79.17,182.26Zm-.7,0a.64.64,0,0,0,.37.06.65.65,0,0,0,.24-.09.8.8,0,0,0-.34-.15Z"/><path class="cls-1" d="M65.88,181.31c-6.2-.62-15.39,1.76-17.48,8.85-1.14,3.84-.42,7.72,3.29,9.4,3.06,1.38,7.81,2.49,11.41,1.77,5.09-1,8-6,9.11-10.4,1.42-5.85-1.28-8.82-7.08-9.87"/><path class="cls-2" d="M60.63,202.3a24,24,0,0,1-9.25-2.06c-3.67-1.66-5.09-5.6-3.7-10.29,1-3.42,3.65-6.12,7.63-7.79a22.94,22.94,0,0,1,9.91-1.65l0-.19c3.44.62,5.72,1.86,7,3.8,1.16,1.77,1.39,4.12.7,7-1.11,4.58-4.24,9.87-9.69,11A13.35,13.35,0,0,1,60.63,202.3ZM64,182c-5.66,0-13.1,2.38-14.88,8.4-1.17,4-.1,7.15,2.88,8.5s7.54,2.41,11,1.72c4.76-1,7.53-5.71,8.53-9.84.6-2.48.44-4.38-.5-5.81s-2.62-2.4-5.16-3v.09C65.23,182,64.62,182,64,182Z"/><path class="cls-1" d="M43.92,173.65c1.58,2.34,1.44,8.89,1.2,11.71-.37,4.47-3.57,5.11-7,7.15-3,1.75-5.46,4.22-8.92,5s-8.09,1.36-11.46.81c-2.86-.47-6.6-2.11-7.48-5.37-1.32-4.87,1.27-6.94,5.51-7.85,2-.42,4.12-.19,6.09-.76s3.25-2.1,4.74-3.09a15.07,15.07,0,0,1,4-2.29c1.82-.49,3.84-.12,5.63-.75a11,11,0,0,0,3.73-2c1-1,2-2.85,3.23-3.61Z"/><path class="cls-2" d="M20.71,199.3a19.39,19.39,0,0,1-3.11-.22c-3.28-.54-7.13-2.38-8.09-5.92a6.88,6.88,0,0,1,.41-5.51c1-1.59,2.83-2.66,5.67-3.27a19.21,19.21,0,0,1,2.85-.32,14.64,14.64,0,0,0,3.19-.43,9.54,9.54,0,0,0,3.07-1.89c.47-.38,1-.77,1.46-1.11l.65-.44a12.36,12.36,0,0,1,3.62-1.94,13,13,0,0,1,2.76-.34,9.92,9.92,0,0,0,2.81-.4,10,10,0,0,0,3.46-1.86,12.54,12.54,0,0,0,1.11-1.34,9.22,9.22,0,0,1,2.25-2.36l.62-.39,1.09,1.69c2,3,1.4,11.25,1.32,12.19-.33,4-2.84,5.33-5.49,6.7-.62.32-1.26.66-1.91,1-.9.53-1.77,1.14-2.62,1.73a18.7,18.7,0,0,1-6.51,3.36A41.15,41.15,0,0,1,20.71,199.3ZM43,173.68a14.2,14.2,0,0,0-1.26,1.53,13.48,13.48,0,0,1-1.26,1.52,11.7,11.7,0,0,1-4,2.2,11.15,11.15,0,0,1-3.24.48,11.8,11.8,0,0,0-2.45.29,11.32,11.32,0,0,0-3.15,1.73l-.67.46c-.45.3-.89.65-1.36,1A10.63,10.63,0,0,1,22,185.07a16,16,0,0,1-3.51.48,17.9,17.9,0,0,0-2.63.29c-2.43.52-4,1.37-4.71,2.59a5.41,5.41,0,0,0-.24,4.33c.77,2.86,4.19,4.39,6.88,4.83,3.29.54,7.92-.06,11.17-.8a17.31,17.31,0,0,0,6-3.13c.87-.61,1.77-1.24,2.72-1.8.68-.4,1.34-.74,2-1.08,2.56-1.33,4.42-2.29,4.68-5.49.28-3.45.23-9.29-1.08-11.23Z"/><path class="cls-1" d="M29.17,177c2.84.49,6.29-.26,6.84,3.42.43,2.91-1.36,5.57-3.23,7.6-3.8,4.13-11,6.19-16.52,5.12-2.48-.48-6.17-1-6.46-3.79a12,12,0,0,1,2.47-8.17,14.19,14.19,0,0,1,15.18-5.12,8.88,8.88,0,0,1,4.38,3.22"/><path class="cls-2" d="M19.33,194.18a16.83,16.83,0,0,1-3.22-.3l-.51-.1c-2.48-.47-6.22-1.18-6.55-4.35a12.8,12.8,0,0,1,2.62-8.7,15,15,0,0,1,16-5.38,8.56,8.56,0,0,1,2.1,1c.44.05.9.09,1.35.12,2.27.17,5.11.38,5.62,3.85.39,2.6-.73,5.29-3.42,8.21C30.14,192,24.53,194.18,19.33,194.18Zm4.32-17.93a13.77,13.77,0,0,0-10.79,5.4,11.25,11.25,0,0,0-2.32,7.63c.2,1.91,2.54,2.5,5.34,3l.51.1c5.39,1.05,12.34-1.1,15.83-4.89,2.36-2.57,3.36-4.85,3-7-.29-2-1.47-2.33-3.52-2.52q.35.38.68.81l-1.19.92a9.39,9.39,0,0,0-2-2l-.2,0,0-.09a7.1,7.1,0,0,0-1.83-.88A12,12,0,0,0,23.65,176.24Z"/><path class="cls-1" d="M83.23,58.5a13.66,13.66,0,0,1,7.85,5.82c1.52,2.28,2.79,8,1.14,15.45s-2.78,11.77-4.05,16.46"/><path class="cls-2" d="M88.59,96.35l-.84-.23c1.3-4.81,2.42-9.07,4-16.44,1.54-7,.52-12.72-1.08-15.11a13.16,13.16,0,0,0-7.62-5.65l.27-.83a14.14,14.14,0,0,1,8.08,6c1.75,2.63,2.8,8.52,1.2,15.78S89.89,91.53,88.59,96.35Z"/><path class="cls-1" d="M36.26,25.59c-5.6,6.77-5.32,14.12-6.53,22.34-1.15,7.88-2.55,16-3.35,24-.81,8.17-3,15.95-3,24.31,0,7.88,3.38,15.24,8.6,21,11.45,12.66,28.33,12,41.86,4.37,5.64-3.18,10.17-10.31,12.84-15.76,3.18-6.51,2.29-16.45,2.29-23.81,0-4.34-3.2-26.06-3.29-28.36-.38-9.29-3.1-20-8.86-27.85-5.37-7.27-12.2-10-21.2-10.38-5.16-.22-8.74,2.54-12.73,5.32C40.43,22.46,37.29,24,36,26.6"/><path class="cls-2" d="M54.18,127.85q-1.07,0-2.13-.07a29.93,29.93,0,0,1-20.66-10c-5.68-6.28-8.81-13.92-8.8-21.51a89.89,89.89,0,0,1,1.67-15c.52-3.06,1.06-6.23,1.37-9.39.58-5.9,1.51-11.9,2.4-17.7.33-2.12.65-4.24,1-6.34.22-1.54.4-3.06.57-4.53.74-6.44,1.44-12.51,6.12-18.18l.23.19a17.38,17.38,0,0,1,4.92-4.09c.54-.35,1.07-.69,1.57-1l.71-.49c3.8-2.66,7.37-5.18,12.49-5,9.92.42,16.63,3.72,21.77,10.69,5.29,7.16,8.57,17.47,9,28.27,0,.83.52,4.55,1.09,8.85,1,7.48,2.21,16.79,2.21,19.54,0,1.27,0,2.63.05,4,.14,6.83.29,14.58-2.42,20.11-2.19,4.47-6.8,12.5-13.14,16.08A40.92,40.92,0,0,1,54.18,127.85ZM36.29,26.74C32.38,31.86,31.76,37.26,31,43.46c-.17,1.48-.35,3-.57,4.57-.31,2.1-.63,4.22-1,6.35-.89,5.78-1.8,11.75-2.38,17.62-.32,3.21-.86,6.41-1.38,9.49a88.66,88.66,0,0,0-1.65,14.74c0,7.22,3,14.5,8.41,20.51,7.91,8.74,22.81,14.44,40.93,4.22,6.21-3.5,10.83-12,12.53-15.43,2.55-5.21,2.4-12.76,2.27-19.42,0-1.41-.05-2.77-.05-4.05,0-2.65-1.27-12.3-2.19-19.35-.59-4.52-1.06-8.08-1.1-9-.43-10.51-3.6-20.51-8.72-27.44C71.32,19.72,65,16.61,55.54,16.21,50.95,16,47.71,18.27,44,20.9l-.71.5c-.51.36-1.06.71-1.62,1.07-2,1.29-4,2.62-5,4.47Z"/><path class="cls-1" d="M56,37C50.36,39,51.23,54.86,57,56c3.91.76,7.93-.53,9.13-4.56.73-2.46-.27-8.79-1.46-11.17a6.82,6.82,0,0,0-3.93-3.47c-1.28-.33-5.29-.38-5.26.7"/><path class="cls-2" d="M59.06,56.93a11.52,11.52,0,0,1-2.18-.21c-3.46-.67-5.06-5.44-5.36-9.32C51.16,43,52.2,38,55.28,36.48c1.23-.92,4.68-.67,5.67-.42a7.59,7.59,0,0,1,4.41,3.86c1.29,2.59,2.29,9.08,1.51,11.72C65.75,55.4,62.42,56.93,59.06,56.93Zm-2.82-19.3,0,.05c-2.57.94-3.58,5.54-3.26,9.6.29,3.62,1.69,7.48,4.16,8,3.08.6,7.1-.1,8.27-4,.67-2.27-.28-8.36-1.42-10.62a6.06,6.06,0,0,0-3.44-3.08A9.5,9.5,0,0,0,56.24,37.63Zm-.06-.16,0,.12a.34.34,0,0,0,0-.12Z"/><path class="cls-1" d="M38.53,38.25c-3.53-.18-4.69,6.69-4.81,9.12-.2,4.08-1.19,8.6,3,9.86C45.35,59.79,47,46.94,44.36,41.28a4.85,4.85,0,0,0-3-3.05c-1.12-.41-4.51-.68-4.06.77"/><path class="cls-2" d="M38.9,58.31a8.2,8.2,0,0,1-2.35-.37c-4.24-1.27-3.94-5.37-3.68-9,0-.54.08-1.09.1-1.63.08-1.77.8-6.81,3.09-8.88a4,4,0,0,1,.7-.51l.14-.15c1-1,3.77-.58,4.68-.25A5.59,5.59,0,0,1,45,41c1.92,4.14,1.7,11.51-1.47,15.16A6,6,0,0,1,38.9,58.31ZM38.4,39a1.93,1.93,0,0,0-1.33.56c-1.76,1.59-2.51,6-2.6,7.84,0,.55-.07,1.11-.11,1.66-.3,4.06-.27,6.58,2.61,7.44a4.84,4.84,0,0,0,5.46-1.35c2.71-3.13,2.9-10,1.24-13.55a4.11,4.11,0,0,0-2.6-2.66,6.82,6.82,0,0,0-2.56-.25l0,.3Z"/><path class="cls-2" d="M39.55,70.91c-.14,2.06.83,3.85,1,5.82s-.65,4.62,0,6.34c1.2,3.21,6.59,4,9.64,3.3,6.42-1.45,9.31-10.62,10.69-15.9a7,7,0,0,1,.92-1.54c-5.85,1.13-16.3,6.54-22.25,2.74"/><path class="cls-2" d="M47.92,87c-3.16,0-6.79-1.17-7.77-3.82a9.42,9.42,0,0,1-.13-4,13.58,13.58,0,0,0,.11-2.45,14.13,14.13,0,0,0-.48-2.31,10.84,10.84,0,0,1-.53-3.58l.87.06c0,.16,0,.32,0,.48,4.21,2.5,10.88.37,16.24-1.35a52.37,52.37,0,0,1,5.5-1.56l1-.19-.55.85-.25.37a4.35,4.35,0,0,0-.61,1c-.94,3.61-3.81,14.59-11,16.22A10.87,10.87,0,0,1,47.92,87ZM40.07,72.46c.1.59.25,1.17.41,1.78A14.94,14.94,0,0,1,41,76.69a14.06,14.06,0,0,1-.11,2.62A8.91,8.91,0,0,0,41,82.92c1.07,2.87,6.12,3.71,9.14,3,6.68-1.51,9.45-12.11,10.36-15.59a2.87,2.87,0,0,1,.36-.76c-1.3.33-2.79.8-4.34,1.3C51.16,72.6,44.61,74.7,40.07,72.46Z"/><path class="cls-1" d="M37.27,70.4C44.12,74.93,57,71.9,63.35,67.87"/><path class="cls-2" d="M46.22,73.09A16.68,16.68,0,0,1,37,70.77l.48-.73C44.3,74.53,57,71.39,63.12,67.5l.46.74A35.5,35.5,0,0,1,46.22,73.09Z"/><path class="cls-1" d="M48.41,82.05c-1.86-.78-6-.51-6.18,2.38a11.36,11.36,0,0,0,8.09,1.29,10.73,10.73,0,0,0,5.3-4c-2.22-.87-7.33-1.17-8.47,1.49"/><path class="cls-2" d="M48.06,86.44A12.66,12.66,0,0,1,42,84.81l-.23-.13v-.27A2.94,2.94,0,0,1,43.24,82a6.57,6.57,0,0,1,4.91-.5c2.13-1.25,5.77-.93,7.63-.2l.52.21L56,82a11.14,11.14,0,0,1-5.54,4.19A9.23,9.23,0,0,1,48.06,86.44ZM42.69,84.2a10.87,10.87,0,0,0,7.51,1.11,10.06,10.06,0,0,0,4.7-3.39c-2.34-.68-6.45-.66-7.35,1.44l-.8-.34a3,3,0,0,1,.53-.83,5.54,5.54,0,0,0-3.58.55A2.08,2.08,0,0,0,42.69,84.2Z"/><circle class="cls-2" cx="60.5" cy="48.06" r="3.73"/><path class="cls-2" d="M60.5,52.23a4.17,4.17,0,1,1,4.17-4.17A4.18,4.18,0,0,1,60.5,52.23Zm0-7.47a3.3,3.3,0,1,0,3.3,3.3A3.3,3.3,0,0,0,60.5,44.76Z"/><ellipse class="cls-2" cx="40.81" cy="50.21" rx="3.04" ry="3.99"/><path class="cls-2" d="M40.81,54.63c-1.92,0-3.47-2-3.47-4.42s1.56-4.42,3.47-4.42,3.47,2,3.47,4.42S42.73,54.63,40.81,54.63Zm0-8c-1.44,0-2.6,1.59-2.6,3.55s1.17,3.55,2.6,3.55,2.6-1.59,2.6-3.55S42.25,46.66,40.81,46.66Z"/><path class="cls-1" d="M38.57,102c-3.6,0-6.66,2.28-6.46,6.17A7.79,7.79,0,0,0,35,113.76C35,111.7,37,111.07,38.28,110c1.06-.9,3.71-3,2.95-4.56"/><path class="cls-2" d="M35.83,115.25l-1.24-.88a8.55,8.55,0,0,1-3.24-6.17A6.28,6.28,0,0,1,33,103.43a7.6,7.6,0,0,1,5.53-2.18v1.5a6.1,6.1,0,0,0-4.44,1.72,4.82,4.82,0,0,0-1.26,3.67,7.33,7.33,0,0,0,1.71,4.18,5.65,5.65,0,0,1,2.22-2.19,10.69,10.69,0,0,0,1-.72l.24-.21c.81-.68,3-2.49,2.51-3.46l1.35-.64c1,2-1.55,4.12-2.9,5.25l-.24.2a11.88,11.88,0,0,1-1.15.83c-1.16.77-1.87,1.3-1.83,2.36Z"/><path class="cls-1" d="M27.14,64.2c-2.92.27-5.43,6.95-5.57,9.24a29.46,29.46,0,0,0,1.93,12c1.26,3.42,4.28,6.07,7.1,8.35,1.54,1.25,3.19,2.2,4.8,3.29s3.33,1.76,4.62,2.8c1.32-2.24,1.7-2.2.29-3.15-1.89-1.26-8.24-6.32-9.62-8.1-2.46-3.15-3.07-3.49-4.15-7.34a17.11,17.11,0,0,1-.29-8.36c.52-2.58.5-5.7,1-8.69-.38-.13-.24.12-.46.33"/><path class="cls-2" d="M40.23,101l-.68-.54a17.47,17.47,0,0,0-2.47-1.52c-.71-.39-1.44-.79-2.11-1.24l-1.47-1a38.21,38.21,0,0,1-3.39-2.37c-2.85-2.32-6-5.09-7.33-8.68a30.29,30.29,0,0,1-2-12.3c.14-2.27,2.65-9.61,6.25-9.94h0a1.28,1.28,0,0,1,.39.07l.6.2-.1.62c-.21,1.35-.32,2.75-.43,4.1A39.35,39.35,0,0,1,27,73.09a16.33,16.33,0,0,0,.28,8,12.35,12.35,0,0,0,3,5.84l1,1.24c1.27,1.63,7.42,6.59,9.45,7.94,1.64,1.09,1.45,1.71.51,3.22-.16.26-.35.56-.57.93ZM26.32,65.3c-2,1.36-3.88,6.2-4,8.19a28.82,28.82,0,0,0,1.88,11.7c1.19,3.23,4,5.74,6.86,8a36.48,36.48,0,0,0,3.26,2.27c.5.32,1,.64,1.5,1s1.31.8,2,1.17,1.37.75,2,1.17l.16-.26a8.76,8.76,0,0,0,.46-.79,5.77,5.77,0,0,0-.53-.39c-1.9-1.27-8.35-6.41-9.8-8.27l-1-1.23a13.74,13.74,0,0,1-3.31-6.37,17.78,17.78,0,0,1-.3-8.71A38.05,38.05,0,0,0,26,68.35C26.11,67.35,26.19,66.33,26.32,65.3Zm.8-.34h0Z"/><path class="cls-1" d="M44.74,96.49c-1.55-2.62-5.28-.07-5.94,1.91-.76,2.25-.26,6.26,2.37,7.06.62-1.12,1.19-.47,1.83-.14a5,5,0,0,0,2.5.79c1.93-.2,4.11-2.73,4.56-4.43a6.71,6.71,0,0,0-.89-4.94C48.26,95,46.4,95.24,45,96.46c-.41.35-1.12,1.12-1,1.29"/><path class="cls-2" d="M45.31,106.87a6.09,6.09,0,0,1-2.66-.88l-.36-.21a3.32,3.32,0,0,0-.31-.18,1.27,1.27,0,0,0-.15.23l-.3.53-.58-.18A4.15,4.15,0,0,1,38.49,104a8.13,8.13,0,0,1-.4-5.84,5.87,5.87,0,0,1,4.42-3.51,2.84,2.84,0,0,1,2.46.89,3.85,3.85,0,0,1,2.83-.71,2.92,2.92,0,0,1,2,1.57,7.36,7.36,0,0,1,1,5.48c-.48,1.82-2.8,4.74-5.21,5Zm-3.38-2.79a2.21,2.21,0,0,1,1.14.42l.27.16a4.51,4.51,0,0,0,2.08.71c1.5-.15,3.51-2.35,3.91-3.88a6,6,0,0,0-.82-4.39,1.45,1.45,0,0,0-1-.81,2.66,2.66,0,0,0-2.06.75,4.2,4.2,0,0,0-.77.85.61.61,0,0,0-.1-.57l-1.2.9c-.38-.5-.06-1.13.45-1.69a1.33,1.33,0,0,0-1.17-.38,4.47,4.47,0,0,0-3.15,2.5,6.62,6.62,0,0,0,.31,4.68,2.88,2.88,0,0,0,1.09,1.22,1.46,1.46,0,0,1,.68-.41A1.31,1.31,0,0,1,41.93,104.07Z"/><path class="cls-1" d="M89.94,74.46c-.11-1.53-3.22-1.33-4.3-1.27-9.63.6-12.23,11.5-17.69,17.5-6.87,7.56-12.82,9.45-14.85,9.84-1.58.3-4.36,1-5.93.36-.29-2,.92-2.37,2.38-2.76C54.74,96.74,60,91,61.7,89.27c4.81-4.81,7.46-13.34,9.75-16.71,2.08-3.06,6.33-8,10.41-10.1,1.93-1,3.88-.77,5.92-.41"/><path class="cls-2" d="M48.83,101.9a5.24,5.24,0,0,1-1.94-.31l-.4-.16-.06-.42c-.41-2.7,1.6-3.24,2.93-3.6,4.52-1.21,9.25-6,11.26-8.11l.55-.56c3.06-3.06,5.26-7.75,7-11.52a40.67,40.67,0,0,1,2.64-5.08c1.87-2.75,6.22-8,10.69-10.34,2.14-1.11,4.24-.86,6.39-.48l-.26,1.48c-2-.35-3.72-.56-5.44.34C78.55,65,74.39,69.56,72.07,73a40,40,0,0,0-2.52,4.87c-1.82,3.88-4.08,8.71-7.32,11.95l-.54.55c-2.1,2.15-7,7.19-11.95,8.51-1.38.37-1.88.64-1.88,1.47a13.19,13.19,0,0,0,4.48-.4L53,99.8c1.62-.31,7.45-1.92,14.43-9.61a41.84,41.84,0,0,0,4.39-6.31c3.31-5.4,6.73-11,13.81-11.43,1.35-.08,4.94-.3,5.1,2l-1.5.11c0-.08-.15-.78-3.51-.57-6.31.39-9.37,5.41-12.62,10.72A43.61,43.61,0,0,1,68.5,91.2c-7.3,8-13.53,9.74-15.26,10.08l-.59.12A20,20,0,0,1,48.83,101.9Z"/><path class="cls-1" d="M46,102.47c-.84.39-1.25,2.47-1.12,3.34a4.81,4.81,0,0,0,2.73,3.68c1.19.63,2.75.82,3.61,1.92a3.86,3.86,0,0,1,.46,3.46c3.19-1.93,5.19-6.85,3.67-10.43-.84-2-3.82-2.76-5.76-2.35-1.19.25-2.69,1.27-3.89.76"/><path class="cls-2" d="M50.07,116.72l.9-2.13a3.12,3.12,0,0,0-.36-2.7,4.37,4.37,0,0,0-2-1.15,11.11,11.11,0,0,1-1.35-.57,5.57,5.57,0,0,1-3.12-4.23c-.15-1,.2-3.52,1.54-4.14l.25.54.07-.17a3.27,3.27,0,0,0,2.12-.38,8.83,8.83,0,0,1,1.32-.43c2.09-.43,5.54.3,6.6,2.8,1.73,4.08-.68,9.36-4,11.37Zm-4.15-13a4.45,4.45,0,0,0-.33,2,4,4,0,0,0,2.34,3.13,9.78,9.78,0,0,0,1.17.49A5.61,5.61,0,0,1,51.79,111a4.35,4.35,0,0,1,.82,2.19c2-2.08,3.21-5.65,2-8.41-.64-1.52-3.17-2.27-4.91-1.91a7.64,7.64,0,0,0-1.09.36A5.18,5.18,0,0,1,45.93,103.7Z"/><path class="cls-1" d="M46.13,1.28C55.33-1,66.74,4.5,73.43,10.66A28,28,0,0,1,80.2,19.5c1.39,2.93,1.2,9.57.57,12.39-.07,0-2.76-5.17-6.41-6.74a47.31,47.31,0,0,0-10.5-3.3C59.28,21,55.17,19,50.5,17.67c-5.29-1.53-6.59-5-5.39-10.07.34-1.44.41-6.28,2-6.07"/><path class="cls-2" d="M80.76,32.63c-.42,0-.6-.3-.81-.64-2.46-4.06-4.56-5.59-5.89-6.17a46.47,46.47,0,0,0-10.34-3.25,53,53,0,0,1-8.21-2.44c-1.68-.6-3.42-1.22-5.22-1.74-5.36-1.55-7.3-5.14-5.91-11,.07-.31.14-.85.21-1.43.28-2.3.57-4.12,1.5-4.87L46,.55c9.54-2.36,21.19,3.3,28,9.56a28.41,28.41,0,0,1,6.94,9.07c1.54,3.24,1.22,10.2.62,12.87l-.13.56-.57,0ZM47.11,1.83,47,2.27c-.52.24-.86,3-1,3.9-.08.65-.15,1.21-.24,1.6-1.2,5,.3,7.86,4.87,9.18,1.84.53,3.61,1.16,5.31,1.77a51.82,51.82,0,0,0,8,2.38,48,48,0,0,1,10.66,3.35c1.91.82,3.82,2.62,5.67,5.35.33-3.22.19-7.87-.81-10a27,27,0,0,0-6.6-8.61C66.6,5.39,55.95.09,47.11,1.83Z"/><path class="cls-1" d="M33,21.79C33.68,15.25,38.9,1.87,46.64,1,55.06.09,61,8.78,62.84,16a16.42,16.42,0,0,1,.47,5c-5.69-1.49-10.2-2.15-16.16-1.48C44.61,19.8,34.4,23.87,33,21.79"/><path class="cls-2" d="M34.79,23.13a2.77,2.77,0,0,1-2.44-.92L32.19,22l0-.28C33,14.49,38.48,1.16,46.56.27c4.06-.45,7.93,1.16,11.21,4.66a25.22,25.22,0,0,1,5.8,10.85,17.18,17.18,0,0,1,.5,5.25L64,22l-.89-.23a40.29,40.29,0,0,0-15.89-1.46,32.68,32.68,0,0,0-3.79,1C39.81,22.31,36.8,23.13,34.79,23.13Zm-1-1.62c1.22.66,6.8-1,9.27-1.7a31.34,31.34,0,0,1,4-1A40.7,40.7,0,0,1,62.59,20a15.47,15.47,0,0,0-.48-3.88C60.21,8.56,54.19.94,46.72,1.76c-4,.44-7,4.52-8.89,7.87A36.73,36.73,0,0,0,33.75,21.51Z"/><path class="cls-1" d="M33.09,29c-2.75.09-11.15-2.47-16.27-5.82-4.94-3.23-1.4-8.84-.57-10.07,3.61-5.32,7.17-6.13,14.38-7C37.55,5.37,45,5.61,50.06,9.51c2.36,1.8,9.58,7.31,11.77,9.31a44,44,0,0,0,4,3c-10.36.61-26.37-1.59-33.19,8.25-.11.08.77-.44,1-.59"/><path class="cls-2" d="M32.59,30.87a.64.64,0,0,1-.28-.07l-.45-.6.21-.47,0,0a43.76,43.76,0,0,1-15.63-5.89,6,6,0,0,1-2.79-3.9c-.59-3,1.21-6,2-7.21C19.35,7.22,23,6.27,30.54,5.41c9-1,15.54.12,20,3.5l.21.16c2.59,2,9.46,7.23,11.62,9.19a18.1,18.1,0,0,0,2.34,1.84c.44.3.93.64,1.61,1.16l1.57,1.22-2,.12c-2,.12-4.16.13-6.47.15-9.44.06-20.11.13-25.6,7l.25.33C33.22,30.72,32.83,30.87,32.59,30.87Zm.47-2.61v.06c6.07-6.94,17.24-7,26.32-7.07,1.47,0,2.88,0,4.23-.05a19.06,19.06,0,0,1-2.29-1.82c-2.11-1.92-8.95-7.14-11.52-9.11l-.21-.16C45.5,7,39.32,5.92,30.71,6.9c-7.2.82-10.46,1.65-13.84,6.63-.7,1-2.27,3.67-1.78,6.07a4.52,4.52,0,0,0,2.14,2.94C22.14,25.76,30.44,28.32,33.07,28.25Z"/><path class="cls-1" d="M55.25,24.57A5.41,5.41,0,0,0,54.9,30c1.18,1.88,3.19,1.2,5.16,1.3s3.31,1.36,5.19,1.8c2.12.5,1.58-3,.79-4.2a13,13,0,0,0-5-4.22c-1.45-.71-5-1.29-6.08.16"/><path class="cls-2" d="M65.62,33.88a2.4,2.4,0,0,1-.55-.07,11,11,0,0,1-2.31-.9A7,7,0,0,0,60,32c-.43,0-.88,0-1.32,0-1.55.07-3.31.14-4.44-1.66a6.17,6.17,0,0,1,.2-6l-.06,0c1.41-1.81,5.31-1.21,7-.37a13.76,13.76,0,0,1,5.25,4.47c.64.93,1.27,3.42.4,4.68A1.68,1.68,0,0,1,65.62,33.88Zm-6-3.36h.49a8.29,8.29,0,0,1,3.32,1,9.6,9.6,0,0,0,2,.79c.31.07.37,0,.4-.06.37-.54.07-2.3-.4-3a12.23,12.23,0,0,0-4.67-4c-1.33-.66-3.93-1-4.93-.27a4.71,4.71,0,0,0-.28,4.52c.64,1,1.55,1,3.1,1Z"/><path class="cls-1" d="M33.6,38.75a13.58,13.58,0,0,1,4.3-4.08c1.51-.89,3-1.79,3.52-3.54s.71-4.67-1.62-4.66c-2,0-3.83,1.79-4.81,3.42-.58,1-4.11,9.3-.76,8.48"/><path class="cls-2" d="M33.81,39.18a1.59,1.59,0,0,1-1.34-.65c-1.57-2.14,1.84-9,1.88-9,1-1.74,3.1-3.77,5.45-3.78h0a2.43,2.43,0,0,1,2,.93c1.05,1.38.56,3.73.29,4.67-.56,2-2.3,3.06-3.83,4A12.74,12.74,0,0,0,34.37,39l0,.15-.16,0,0,0,0,0A2.33,2.33,0,0,1,33.81,39.18Zm6-12h0c-1.61,0-3.26,1.54-4.17,3.06-.69,1.14-2.46,5.94-2,7.2A14,14,0,0,1,37.51,34c1.45-.86,2.78-1.65,3.18-3.1s.39-2.8,0-3.36A.94.94,0,0,0,39.82,27.22Z"/><path class="cls-1" d="M76.12,70.15c1.47-4.2,10-9.17,13.81-6"/><path class="cls-2" d="M76.12,70.71c1.79-4.38,9.36-9.22,13.81-6-.17-.13.18-1,0-1.12-4.45-3.26-12,1.59-13.81,6-.13.32.13.81,0,1.13Z"/><path class="cls-1" d="M46.35,97.09a2.61,2.61,0,0,0-2.83,3.14"/><path class="cls-2" d="M46.15,96.57a2.67,2.67,0,0,0-2.83,3.14c0,.36.36.69.4,1.05a2.67,2.67,0,0,1,2.83-3.14c-.14,0-.25-1-.4-1.05Z"/><path class="cls-1" d="M50.18,103.58c-.23,2.27,3.4,1.84,3.41,4.13.54-1,1-2.42,0-3.21s-2.52-.47-3.5-1.16c-.11.33.12.12.23.23"/><path class="cls-2" d="M53.17,109.44v-1.73c0-.81-.58-1.18-1.53-1.68s-1.87-1-1.89-2.22l0,0a.61.61,0,0,1,0-.58l.19-.55.48.34a3.92,3.92,0,0,0,1.55.49,4.49,4.49,0,0,1,2,.67c.7.52,1.3,1.6.15,3.77Zm-2.52-5.35c.14.49.63.78,1.38,1.17a4.39,4.39,0,0,1,1.62,1.21c.33-1.13-.15-1.49-.34-1.63a3.8,3.8,0,0,0-1.59-.51A8.56,8.56,0,0,1,50.65,104.09Zm-.22-.63.06,0a.46.46,0,0,0,0-.08Z"/><path class="cls-1" d="M41.45,96.23a3.13,3.13,0,0,0-1.9,3.29"/><path class="cls-2" d="M41.25,95.71A3.21,3.21,0,0,0,39.35,99c0,.36.38.69.4,1.05a3.21,3.21,0,0,1,1.9-3.29s-.42-1-.4-1.05Z"/><path class="cls-1" d="M26.89,65.43c-2.19.76-3.63,4.7-3.89,6.65a6.27,6.27,0,0,0,.28,3.13"/><path class="cls-2" d="M26.69,64.91c-3.21,1.4-4.6,6.72-3.6,9.8.1.32.31.76.39,1-1-3.06.43-8.37,3.61-9.76,0,0-.41-1-.4-1.05Z"/><path class="cls-1" d="M38.54,65.47c1.61-2.47,6.18-3.87,8.86-3.8"/><path class="cls-2" d="M38.54,66c1.89-2.63,5.74-3.81,8.86-3.8,0,0,0-1.12,0-1.12-3.12,0-7,1.17-8.86,3.8-.18.25.17.88,0,1.13Z"/><path class="cls-1" d="M82.41,83.32c9.3,3.57,16.12,48.88,6.36,48.27-3.26-.2-3.51-6.89-4.38-8.92a91,91,0,0,0-4.26-8.37c-1.77-3.19-3.26-6.54-5-9.7-1.5-2.69-3.52-4.77-5.13-7.31"/><path class="cls-2" d="M89,132.34h-.24c-3-.19-3.81-4.18-4.43-7.09A15.5,15.5,0,0,0,83.7,123a90.59,90.59,0,0,0-4.23-8.3c-.89-1.6-1.72-3.26-2.52-4.86s-1.63-3.26-2.51-4.84a34.5,34.5,0,0,0-2.82-4.09c-.77-1-1.57-2.05-2.29-3.18l1.27-.81c.68,1.07,1.46,2.09,2.22,3.08a35.62,35.62,0,0,1,2.94,4.27c.9,1.61,1.73,3.28,2.54,4.9s1.61,3.23,2.49,4.8a91.9,91.9,0,0,1,4.29,8.44,15.67,15.67,0,0,1,.68,2.56c.52,2.44,1.24,5.79,3.06,5.91s2.89-2.38,3.36-4.5c2.53-11.6-3.24-39.7-10-42.31l.54-1.4c5.11,2,8.29,13.76,9.42,18.74,2.19,9.64,2.79,19.57,1.54,25.3C92.62,131.3,90.59,132.34,89,132.34Z"/><path class="cls-1" d="M94.09,128.76c1-6.14-10.55-8.84-10.92-1.78"/><path class="cls-2" d="M94.83,128.88l-1.48-.24a4,4,0,0,0-1.69-3.81,6.06,6.06,0,0,0-5.84-.9A3.31,3.31,0,0,0,83.92,127l-1.5-.08a4.83,4.83,0,0,1,2.76-4.38,7.54,7.54,0,0,1,7.38,1.07A5.4,5.4,0,0,1,94.83,128.88Z"/><path class="cls-1" d="M94.55,153c2.39-1.35,3.22-7.73,3.61-10.53.49-3.58.22-8-1.52-11A10.85,10.85,0,0,0,79,129.78c-3.6,4.12-6.09,13.57-4.78,19,.87,3.61,4.57,4.43,6.3,1,.71-1.4.79-2.85,1.51-4.22.84-1.6,1.49-1.71,2.43-3.13"/><path class="cls-2" d="M94.92,153.65l-.74-1.31c2-1.15,2.89-7.48,3.22-9.87l0-.11c.43-3.17.28-7.6-1.43-10.55a10,10,0,0,0-7.73-5,10.08,10.08,0,0,0-8.64,3.44c-3.51,4-5.83,13.29-4.61,18.38a3.09,3.09,0,0,0,2.35,2.59,2.65,2.65,0,0,0,2.55-1.77,10.63,10.63,0,0,0,.69-2,11.36,11.36,0,0,1,.83-2.27,7.55,7.55,0,0,1,1.45-2,8,8,0,0,0,1-1.24l1.25.83a9.52,9.52,0,0,1-1.2,1.45,6.11,6.11,0,0,0-1.2,1.61,10.09,10.09,0,0,0-.71,2,11.92,11.92,0,0,1-.79,2.22,4.1,4.1,0,0,1-4.07,2.58A4.49,4.49,0,0,1,73.54,149c-1.34-5.57,1.11-15.33,4.94-19.71a11.56,11.56,0,0,1,9.91-3.95,11.43,11.43,0,0,1,8.88,5.72c1.61,2.78,2.22,7.09,1.62,11.51l0,.11C98.21,147.59,97.27,152.32,94.92,153.65Z"/><path class="cls-1" d="M94.63,142.88c.6,3.84.4,7.28-1.51,10.65-.8,1.42-1.81,3.37-3.32,3.9-1.36.47-4-.32-3.57-1.95"/><path class="cls-2" d="M88.9,158.32a4.27,4.27,0,0,1-2.78-1,2,2,0,0,1-.61-2.06l1.45.4a.51.51,0,0,0,.19.57,2.83,2.83,0,0,0,2.41.47c1.14-.4,2-2,2.75-3.26l.17-.3c1.63-2.88,2.07-6,1.42-10.17l1.48-.23c.7,4.51.21,7.94-1.6,11.14l-.17.3c-.84,1.49-1.88,3.36-3.56,3.94A3.5,3.5,0,0,1,88.9,158.32Z"/><path class="cls-1" d="M90.49,143.26A14.89,14.89,0,0,1,89.32,153c-1.1,2.18-3.66,6.13-6.4,5.18-3.83-1.33-1.69-5.13-.42-7.5s2.69-6.58,1.88-9.6"/><path class="cls-2" d="M83.78,159.11a3.33,3.33,0,0,1-1.1-.19,3.74,3.74,0,0,1-2.44-2.11c-.78-2,.55-4.48,1.52-6.29l.08-.16c1.41-2.62,2.52-6.44,1.82-9l1.45-.39c.86,3.21-.51,7.47-1.95,10.15l-.08.16c-.79,1.46-2,3.68-1.45,5a2.3,2.3,0,0,0,1.54,1.24c1.93.66,4.15-2.18,5.48-4.81a14.19,14.19,0,0,0,1.1-9.29l1.47-.3A15.67,15.67,0,0,1,90,153.37C89.26,154.82,86.83,159.11,83.78,159.11Z"/></svg>