<svg id="Icons" xmlns="http://www.w3.org/2000/svg" viewBox="0 0 224.12 278.32"><defs><style>.cls-1{fill:#10069f;}.cls-2{fill:#050050;}</style></defs><title>og-tour</title><path class="cls-1" d="M209,154.85c7.47.66,7.25-8.32,1.83-11-4.47-2.43-10.95-3.52-15.69-1.12a20.92,20.92,0,0,0-5.37,5"/><path class="cls-2" d="M208.27,155.66c6.43.58,10-6.43,5.54-11.3-3.31-3.58-10-4.68-14.55-4s-7.57,3.53-10.42,7c-1.3,1.57.81,1.94,1.79.73,4.72-5.8,10.94-6.84,17.67-4a8.31,8.31,0,0,1,4.69,4c1.32,2.83.4,5.84-3.5,6-.51,0-1.82,1.57-1.23,1.62Z"/><path class="cls-1" d="M178.42,156.53c1,3.39,3.69,5.2,6.35,6.41"/><path class="cls-2" d="M177.56,157.16c.33,3.36,3.48,5.61,6.29,7,1.07.51,3.07-1.82,1.83-2.37a14,14,0,0,1-3.82-2.29,14.34,14.34,0,0,1-2.65-3.68c-.32-.57-1.7.94-1.66,1.38Z"/><path class="cls-1" d="M179.69,149.64c-1.69.24-2.66,2.42-2.18,4.35.73,3.14,5.08,4.35,7.74,4.6,3.39.48,7.86,0,9.56-3.14,1-1.69,2.3-4.84-1.21-6.77"/><path class="cls-2" d="M180,148.82a5,5,0,0,0-3.2,6.78c1.59,3.44,6.66,4.19,10,4.21,3.55,0,7-1.21,8.92-4.36,1.62-2.68,2-6.37-1.42-7.69-.6-.23-2.22,1.19-1.66,1.76,1.63,1.68,2.58,3.12,1.4,5.44s-4,2.79-6.47,2.74a15.92,15.92,0,0,1-5.39-1,7.5,7.5,0,0,1-2.35-1.33c-.92-.84-3.05-4.05-.56-4.93.6-.21,1.88-2,.71-1.64Z"/><path class="cls-1" d="M180.64,162.68c4.93-1.26,8.56.53,6.38,4.1"/><path class="cls-2" d="M180.1,163.48c1.75-.27,3.89-.61,5.5.39a1.91,1.91,0,0,1,1,1.33c.11.8-.46,1.45-.46,2.25,0,.38.65.14.78.06,1.69-1,2.69-3.74,1-5.22s-4.85-1-6.86-.36c-.38.13-1.74,1.69-.88,1.56Z"/><path class="cls-1" d="M200.24,155c0-2.1,2-4.25,3.85-2.37"/><path class="cls-2" d="M200.85,154.61c.12-.46.38-1.41.85-1.66s1.16.46,1.66.55,1.79-.87,1.64-1.53a1.68,1.68,0,0,0-1.65-1.06,3.3,3.3,0,0,0-2.05.74c-1.15.85-2.13,2.4-1.69,3.85.13.43,1.18-.67,1.24-.89Z"/><path class="cls-1" d="M150.1,96.5c1.77,1.61,4,2.1,6,3.23,3.71,1.77,6.61,4.35,9.52,6.93,3.55,3.39,7.74,6.29,10.81,10a78.46,78.46,0,0,1,8.55,11.77c1.61,3.06,8.55,16.61,8.39,20.8-.16,4.35-4.84,5.48-8.55,4.19-3.23-1.13-5-4.68-7.1-7.26-5.64-6.61-13.39-8.71-21.13-11.77"/><path class="cls-2" d="M149.46,97.09c3.82,2.94,8.45,4.39,12.23,7.53,4,3.3,8,6.77,11.69,10.42,6.59,6.58,11.17,14.53,15,22.92,1.36,3,3.38,6.55,3.76,9.86a4.58,4.58,0,0,1-6.07,4.9c-2.62-.77-4-2.7-5.61-4.75-6.14-8-14-10.88-23.18-14.44-.65-.25-2.18,1.45-1.45,1.73,6,2.35,12.5,4.29,17.62,8.42,3.76,3,5.94,8.89,10.6,10.61,6.56,2.42,11.33-3,9.55-9.12a77.21,77.21,0,0,0-12.42-24.36c-4.22-5.5-9.06-9.75-14.23-14.31a53.43,53.43,0,0,0-7.91-6.18c-2.69-1.59-5.81-2.56-8.3-4.42-.37-.28-1.55,1-1.28,1.19Z"/><rect class="cls-1" x="156.9" y="112.77" width="62.34" height="45.92" transform="translate(-18.8 240.61) rotate(-62.7)"/><path class="cls-2" d="M194.61,175.31l-42.58-22,29.51-57.17,42.58,22Zm-39.88-22.84,39,20.14L221.42,119l-39-20.14Z"/><rect class="cls-1" x="160.77" y="116.68" width="55.29" height="36.78" transform="translate(-18.03 240.55) rotate(-62.7)"/><path class="cls-2" d="M192.5,169.41,158,151.63l26.27-50.9,34.45,17.78Zm-31.77-18.64,30.92,16,24.45-47.36-30.92-16Z"/><circle class="cls-1" cx="203.8" cy="105.26" r="4" transform="translate(16.79 238.08) rotate(-62.7)"/><path class="cls-2" d="M203.79,110.26a5,5,0,1,1,4.45-2.71A5,5,0,0,1,203.79,110.26Zm0-8a3,3,0,1,0,1.37.34A3,3,0,0,0,203.8,102.26Z"/><rect class="cls-1" x="198.23" y="96.3" width="7.39" height="25.18" transform="translate(12.56 238.38) rotate(-62.7)"/><path class="cls-2" d="M211.85,119.29,187.7,106.83,192,98.48l24.15,12.47ZM190.39,106,211,116.6l2.47-4.79-20.6-10.63Z"/><path class="cls-1" d="M193.2,105.09h0a30.12,30.12,0,0,0,5.37,2.77h0"/><path class="cls-2" d="M193.2,105.09l.15-.24h0l0,0,.09,0,.17.08.35.15.68.33,1.33.68,1.32.7.66.35.33.18.17.09.08,0,0,0h0l-.12.29-.12.29h-.09l-.09,0-.18-.05-.37-.11-.73-.27c-.48-.19-.94-.42-1.4-.65s-.89-.51-1.32-.79l-.63-.44-.3-.24-.15-.12-.07-.06,0,0,0,0h0Z"/><path class="cls-1" d="M106.51,11c-.36-1.57,2.42-3.51,4-3.87,2.54-.48,3.27.73,4.84,1.57"/><path class="cls-2" d="M107.21,10.48c.14-1.88,3.05-2.79,4.56-2.4,1.14.3,1.86,1.41,3.06,1.39.47,0,1.53-.95,1.27-1.46-1.09-2.12-4.48-2.21-6.34-1.33-1.52.72-4.6,2.79-3.94,4.87.16.51,1.36-.72,1.39-1.08Z"/><path class="cls-1" d="M83.41,51.54c-1.21-14.76,8.95-32.62,20.88-38.75,13.87-7.1,32.9-2.9,38.06,13.22a8.51,8.51,0,0,1,.32,2.26"/><path class="cls-2" d="M84.11,51c-.13-16,9-35,25.52-39.46,12.46-3.39,30.72,2.51,32,17.48.08.91,2.16-.53,2.14-1.28-.14-7.32-6.8-13.94-13.06-16.81a30.31,30.31,0,0,0-23.24-.34C92.23,16.47,80.91,36,82.71,52.08c0,.4,1.41-.62,1.41-1.08Z"/><path class="cls-1" d="M116.55,162.13c4.36,14.54,5.65,24.86,7.42,38.71.19,1.51,1.1,2.58,1.29,4.19.64,6.45,1.73,34.75,5,40.88,6.45,11.61,11.33-14.76,11.65-19.92.63-8,.65-15,3.06-24.51,1.87-14.42,4.84-21.93,7.9-42.58"/><path class="cls-2" d="M115.89,162.65a218.45,218.45,0,0,1,5.7,27.79c.95,6.71,2.63,13.27,3.08,20,.75,11.1.34,23.61,3.84,34.27,2.67,8.16,7.91,4.33,10.29-1.51,4.38-10.73,3.82-22.15,5.4-33.41,2.42-17.26,7-34.18,9.71-51.4.18-1.12-2,.21-2.13,1.06-1.86,12.8-5.14,25.3-7.17,38.06-1.17,7.36-2.7,14.54-3.23,22a110,110,0,0,1-1.49,13.72c-.8,4-1.54,9.82-4.16,13.15-3.52,4.48-5.62-4-6.13-6.59-2-10.21-2.34-20.79-3.06-31.16a27,27,0,0,0-1-6.41c-1.3-4.2-1.5-8.76-2.14-13.12a176.55,176.55,0,0,0-6.2-27.49c-.12-.39-1.44.63-1.33,1Z"/><path class="cls-1" d="M81.72,156.33c0,4.19,1.28,5.79,2.42,9.52,1.69,5.56,3.84,11.1,5.32,16.29,1.61,6.45,3.55,12.9,5.16,19,1.61,7.42,3.23,13.55,3.23,21.29,0,6.45-1.93,17.63,7.74,17.1,1.17-.06,6.14,10.35,6.37,8.43.85-7.14,2.5-35.12,4.11-41.25,1.69-8.47,6.93-21.54,9.84-40.08"/><path class="cls-2" d="M81,156.86c.15,5.2,2.43,10.27,4,15.17,2,6.2,3.84,12.38,5.56,18.67,3.15,11.48,6.47,23,6.18,35-.12,4.79-.92,12.46,4.79,14.43,1.34.46,2.83.16,3.94,1s1.78,2.7,2.44,3.78,1.88,4.27,3.32,4.22a2.06,2.06,0,0,0,1.51-1.24c1.68-4.38,1.06-10.81,1.43-15.44.55-6.94,1.06-13.91,1.93-20.82a109.21,109.21,0,0,1,4-16.86,238.66,238.66,0,0,0,6.76-28.63c.17-1-1.86.28-2,1a245.13,245.13,0,0,1-7,29.42,103.83,103.83,0,0,0-3.62,15.2c-.86,6.41-1.33,12.87-1.85,19.31-.27,3.35-.53,6.71-.8,10.06-.17,2.14.09,5.29-.69,7.32l1.51-1.24c-.88,0-3.19-4.9-3.61-5.57-1.77-2.81-1.76-2.57-4.76-3.16-7.43-1.46-5.19-12.32-5.29-17.7-.21-11.33-3.82-22.36-6.79-33.2-1.56-5.7-3.25-11.28-5.19-16.86-1.66-4.79-4.09-9.85-4.41-14.95,0-.34-1.39.58-1.38,1.07Z"/><path class="cls-1" d="M97.52,248.9c1-3.23-.81-7.26-2.42-10-1-1.77-3.39-3.55-3.06-5.81s3.55-3.06,5.48-3.55c4.19-1.13,8.39-1.61,12.58-.48,5.48,1.29,4.52,5.16,2.9,9.35a39.67,39.67,0,0,0-1.77,7.26c-.16,1.29-.32,2.58-.48,3.71,0,.32-.48,3.06,0,1.94"/><path class="cls-2" d="M98.21,248.47c.84-3.67-.31-7.22-2.21-10.41-.51-.85-1.67-1.83-2-2.77-1.26-4,1.06-4.2,3.12-4.72a24.69,24.69,0,0,1,10.64-.72c7.91,1.42,4.41,7,3,12.48-.62,2.49-2.29,7.49-1.31,10,.37.93,1.87-.54,2-1l.13-.47c.2-.7-.86-.2-1-.08l-.24.16,1.14.39a61.88,61.88,0,0,0,.85-6.16c.57-3.71,2.28-7.12,2.86-10.78,1-6.31-5.89-7.24-10.81-7-3.75.21-10.94,1-13,4.86-1,2-.15,3.64,1,5.28,2.53,3.47,5,7.27,4.33,11.8-.1.62,1.28-.44,1.38-.85Z"/><path class="cls-1" d="M129.45,246.48c-.16-1.94.48-3.55-.16-5.48a45.31,45.31,0,0,0-3.06-6.29c-1.94-4.35-1.77-6.93,3.06-8.87,3.71-1.61,8.71-2.58,12.58-1.13,1.61.65,5,2.26,5.48,4,.48,2.42-2.9,5.64-3.23,7.9a10.64,10.64,0,0,0,0,4.52"/><path class="cls-2" d="M130.22,245.9c.1-1.91.47-3.71,0-5.58-.5-2-1.74-3.87-2.64-5.75-1.05-2.19-2-4.11-.43-6.15,1.82-2.4,6.16-3.18,9.06-3.28a12.78,12.78,0,0,1,6.5,1.45c3.23,1.69,3.76,3.53,2,6.61-1.54,2.76-2.73,5.46-1.6,8.66.32.9,2-.65,2-1.22,0-2-.18-3.71.62-5.61.55-1.29,1.51-2.37,2.08-3.65.67-1.51,1.13-2.89.22-4.37-2.66-4.32-9.87-4.56-14.12-3.61-3.46.77-8.63,2.37-9.76,6.26-.57,2,.21,4,1,5.79s2,3.23,2.68,5c.92,2.24.69,4.27.83,6.65,0,.47,1.5-.65,1.53-1.16Z"/><path class="cls-1" d="M85.91,45.37c-5.16-10,13.22-29.67,21-34.19,13.55-7.74,27.42,2.9,34.19,13.87,1.29,1.61.65,3.23,1.61,2.58"/><path class="cls-2" d="M86.53,44.79c-2.5-5.73,1.55-12.58,4.7-17.16a62.43,62.43,0,0,1,12.52-13.57c13.82-10.89,31.27.56,37.45,14.38.13.28.36.29.64.21l.48-.14c.49-.14,2-1.93.93-1.8.17,0-6.56-9.42-7.28-10.13a31.78,31.78,0,0,0-12.1-7.87c-7.68-2.56-15.06-.23-21.09,4.76C95,19.87,80.06,34.63,85.29,45.95c.1.22,1.43-.72,1.24-1.16Z"/><path class="cls-1" d="M106.23,29.56c-2.58-6.77-3.87-14.84,4.84-18.71C124.29,5,140.74,17,139.45,24.4"/><path class="cls-2" d="M106.83,29.09c-1.05-3.55-2.24-7.88-1.29-11.57,2-7.72,12.39-8.09,18.48-6.37,6.42,1.81,14.09,6.61,14.5,13.93,0,.84,1.76-.78,1.85-1.17,1.13-4.55-3.88-8.94-7.17-11.13a24.51,24.51,0,0,0-17-4.16c-11.72,1.79-15,11.47-10.57,21.49.08.19,1.27-.69,1.18-1Z"/><path class="cls-1" d="M128.65,245.51C123.33,251,124,258.74,127,265.35c3.71,7.58,11.45,10,19.35,8.23,7.42-1.61,14.68-6.93,16.13-14.84,1.45-8.87-3.55-19.68-13.39-19.68-4.35,0-8.55,2.26-12.26,4.35-2.26,1.45-5.64,3.39-8.23,1.77"/><path class="cls-2" d="M128.37,245.21c-6.93,7.13-6,20.17,1.85,26.48,7.66,6.19,19.42,3.73,26.53-2.12a19.22,19.22,0,0,0,4.4-25,13.47,13.47,0,0,0-11.36-6.73,18.66,18.66,0,0,0-7,1.52c-3.79,1.49-9.09,6.29-13.23,4.67-1.09-.43-3.07,1.87-1.83,2.36,3,1.18,5.28.26,8.06-1.2,4.72-2.47,9.46-5.74,15.09-4.59,8.58,1.75,12.43,12.77,9.93,20.46-3.09,9.5-16.44,14.66-25.39,10.59-9.45-4.29-12.6-18-6.29-26,.72-.92-.09-1.09-.76-.4Z"/><path class="cls-1" d="M111.12,248.77c0,.68-.39,1.36-.4,2-4.59-.38-7.22-6.54-11.8-8.29-9.55-3.49-16.48,2.26-19.61,9.74-2.34,5.78-5.09,14.3.22,19.8,4.94,5.16,17.18,6.16,24.48,3.48,7.68-3,9.08-10.21,10.66-16.69.41-3.07,1.59-7.16-.69-9.56-2.28-2.75-3.18-2-2-1.33"/><path class="cls-2" d="M110.48,249.18q-.31,1-.57,2.1L111.4,250c-3.78-.84-5.68-4-8.46-6.36a13.19,13.19,0,0,0-7.55-3.11,15.39,15.39,0,0,0-12.47,4.88c-6.22,6.34-11.56,21.41-3.57,28.27,7.38,6.33,22.78,6.11,29.83-.61,4.73-4.51,12.38-23.24,3.33-26.78-.67-.26-1.71.71-1.85,1.31l-.12.52a.38.38,0,0,0,.23.43l.45.26c.54.32,2.07-1.16,1.6-1.69l-.31-.5-1.64,1.74c2.49-.18,3.37,5,3.3,6.62a34.4,34.4,0,0,1-1.15,6.58c-1.31,5.36-3.22,10.51-8.66,12.86C97,277.64,83.31,276.7,79,269c-4.45-7.92,1.51-23.31,10.13-26,5-1.55,9.81.23,13.46,3.61,2.34,2.17,4.19,4.45,7.47,5,.54.09,1.41-.72,1.48-1.25q.15-1,.25-2.1c0-.31-1.22.61-1.31.93Z"/><path class="cls-1" d="M111.12,247.32c0,.68-.39,1.36-.4,2-4.59-.38-7.22-6.54-11.8-8.29-9.55-3.49-16.48,2.26-19.61,9.74-2.34,5.78-5.09,14.3.22,19.8,4.94,5.16,17.18,6.16,24.48,3.48,7.68-3,9.08-10.21,10.66-16.69.41-3.07,1.59-7.16-.69-9.56-2.28-2.75-3.18-2-2-1.33"/><path class="cls-2" d="M110.48,247.73q-.31,1-.57,2.1l1.48-1.25c-3.78-.84-5.68-4-8.46-6.36a13.19,13.19,0,0,0-7.55-3.11A15.39,15.39,0,0,0,82.92,244c-6.22,6.34-11.56,21.41-3.57,28.27,7.38,6.33,22.78,6.11,29.83-.61,4.73-4.51,12.38-23.24,3.33-26.78-.67-.26-1.71.71-1.85,1.31l-.12.52a.38.38,0,0,0,.23.43l.45.26c.54.32,2.07-1.16,1.6-1.69l-.31-.5L110.87,247c2.49-.18,3.37,5,3.3,6.62a34.4,34.4,0,0,1-1.15,6.58c-1.31,5.36-3.22,10.51-8.66,12.86-7.33,3.17-21,2.23-25.36-5.44-4.45-7.92,1.51-23.31,10.13-26,5-1.55,9.81.23,13.46,3.61,2.34,2.17,4.19,4.45,7.47,5,.54.09,1.41-.72,1.48-1.25q.15-1,.25-2.1c0-.31-1.22.61-1.31.93Z"/><path class="cls-1" d="M128.65,244.55C123.33,250,124,257.77,127,264.38c3.71,7.58,11.45,10,19.35,8.23,7.42-1.61,14.68-6.93,16.13-14.84C164,248.9,159,238.1,149.13,238.1c-4.35,0-8.55,2.26-12.26,4.35-2.26,1.45-5.64,3.39-8.23,1.77"/><path class="cls-2" d="M128.37,244.25c-6.93,7.13-6,20.17,1.85,26.48,7.66,6.19,19.42,3.73,26.53-2.12a19.22,19.22,0,0,0,4.4-25,13.47,13.47,0,0,0-11.36-6.73,18.66,18.66,0,0,0-7,1.52c-3.79,1.49-9.09,6.29-13.23,4.67-1.09-.43-3.07,1.87-1.83,2.36,3,1.18,5.28.26,8.06-1.2,4.72-2.47,9.46-5.74,15.09-4.59,8.58,1.75,12.43,12.77,9.93,20.46-3.09,9.5-16.44,14.66-25.39,10.59-9.45-4.29-12.6-18-6.29-26,.72-.92-.09-1.09-.76-.4Z"/><path class="cls-1" d="M84,50.57c2.9-5.16,9.31-13.91,14.15-17.14,8.39-5.16,16.77-11,25.8-15.48,11.29-5.81,28.38-14.51,41.29-8.71,10.64,5.48-11.93,19.35-16.45,22.9"/><path class="cls-2" d="M84.61,50.3A68.66,68.66,0,0,1,95.83,36c4.82-4.45,11.54-7.79,17.14-11.19,9.94-6,20.89-12.08,32.19-15.06,5.71-1.51,12.31-2.32,18-.06,4.67,1.86,4.53,5.18,1.57,8.78-4.41,5.34-10.63,8.86-16.06,13-1,.74-1.05,2.46.35,1.39,6.34-4.87,14.57-9.18,18.75-16.27,6-10.2-10.95-10.71-17.08-9.69-14.38,2.38-28.28,10.71-40.45,18.32-5.39,3.37-11.46,6.43-16,11a63,63,0,0,0-10.79,14.7c-.41.77,1-.26,1.19-.55Z"/><path class="cls-1" d="M121.39,26c-13.55-.32-32.13,12.5-37.62,25.4-5.48,13.22-7.22,19.44-13.35,32.66-6.77,14.19-7.7,29.71-8.34,45.2C61.6,142.46,70.46,155,79,162.47c14.17,12.48,31.82,14.5,50.17,11.28,10.58-1.86,19.26-5,25.4-13.94a57.2,57.2,0,0,0,4.19-7.35A53.51,53.51,0,0,0,163.65,137a70,70,0,0,0,.31-17.1c-.63-6.18-2.59-10.91-4.18-16.84a213.23,213.23,0,0,1-4.2-26.86C155.26,69.24,152,62,152.1,59.24c.1-4.39-.28-11.82-.07-16.13C152.85,26.68,133.24,26,121.39,26Z"/><path class="cls-2" d="M122,25.28C110,25.15,98.17,32.44,90.11,41c-9.43,10-12.42,24.48-17.73,36.8C69,85.6,65.56,93.09,63.82,101.5A161.73,161.73,0,0,0,61.08,128c-.6,15.44,8.45,29.55,20.73,38.42s27.25,10.89,41.87,9.08c12.29-1.52,24.41-5.07,31.76-15.74a59.32,59.32,0,0,0,8.73-45.9c-1.47-6.48-3.7-12.67-4.87-19.23-1-5.87-2-11.79-2.52-17.74-.7-8-3.46-15.35-3.59-23.39-.09-5.85,1.24-13.36-1.52-18.76-5.12-10-20.09-9.81-29.66-9.83-.91,0-2.52,2.16-1.24,2.16,8.42,0,19.36-.2,26,5.82,7.76,7,2.67,20.27,4.54,29.36,1.19,5.78,2.76,11.13,3.33,17,.49,5,1.28,10,2.13,15,2.21,12.93,7.18,24.73,6.29,38.11-1.06,16-8.83,33.12-25,38.29-13,4.14-28.41,4.88-41.39.51A52.54,52.54,0,0,1,66.37,143.6c-3.41-7.46-3.3-14.89-2.82-22.89a134.71,134.71,0,0,1,2.79-22c2-8.64,5.93-16.34,9.3-24.46,2.7-6.51,5.1-13.14,7.74-19.68,5.92-14.67,21.12-27.47,37.52-27.81C121.4,26.75,122.44,25.28,122,25.28Z"/><path class="cls-1" d="M138.44,32.54c-2.18.67-2.3,3.24-2.3,5a31.22,31.22,0,0,1,9.56,2.24c1.45-3.24-5.44-6.93-8-7.38"/><path class="cls-2" d="M138.93,31.86c-2.84.91-3.67,3.46-3.72,6.22,0,.13,0,.37.2.39a35.66,35.66,0,0,1,9.52,2.29c.65.24,1.53-.72,1.72-1.24,1.45-3.94-4.9-7.65-8.13-8.06-.74-.09-2.58,1.67-1.6,2a16.77,16.77,0,0,1,5,2.28c1.28.89,3.51,2.59,2.86,4.42l1.72-1.24a35.34,35.34,0,0,0-6.9-1.91c-.73-.11-2.16.11-2.49-.68a3.64,3.64,0,0,1,1-3.09c.29-.14,1.41-1.5.81-1.31Z"/><path class="cls-1" d="M66.29,84.68c1.13-2.1,4.17-5,6.11-5,4.52-.16,7.76,0,11.31,2.3,7.58,4.84,11.07,11.15,16.23,18.41,5.47,8,9.44,17,15.06,24.92a56.5,56.5,0,0,0,4.38,5.49c1.12,1.23,4.36,3.29,4.57,4.82.58,4.24-6.72,1.14-8.37-.16-3-2.35-15-19.13-19.2-24.27C94.13,108.41,85,95.25,82.52,92.79c-.9-.91-3.93-2.41-4.8-3.08-.69-.53-4.64-1.29-5-.18"/><path class="cls-2" d="M66.82,84.56c2.81-4.33,9-4.93,13.59-3.15,3.46,1.35,6.56,4.13,9.08,6.81,4.65,4.95,8.53,11,12.07,16.76,4,6.46,7.32,13.3,11.56,19.6a45.32,45.32,0,0,0,6.11,7.68c.68.65,2.52,1.6,2.82,2.49.83,2.48-1.18,1.86-2.52,1.38-3.41-1.23-5.31-3.86-7.5-6.6-3.25-4.08-6.36-8.27-9.5-12.43Q95.25,107.46,88,97.77c-2.65-3.56-10.79-14-15.91-8.44-1.15,1.24.49,1.22,1.27.38.94-1,6.06,2.42,6.77,2.9A18.33,18.33,0,0,1,84.34,97c3.37,4.38,6.49,8.93,9.82,13.33,6.15,8.15,12,16.89,19,24.41,2,2.22,5.78,4.63,9,3.91A3.22,3.22,0,0,0,124.5,134c-1.32-2.64-5.21-5-7.07-7.38a102.43,102.43,0,0,1-7.83-12.15,238.78,238.78,0,0,0-13.79-22c-4.57-6.32-10.56-13-18.85-13.54-5.3-.32-8.51,1.51-11.3,6-.46.75,1-.11,1.15-.4Z"/><path class="cls-1" d="M119.78,132.62c3.06-6.61,13.55-5.64,15.8,1.13,2.42,6.93-14.51,14.35-15.16,5,0-.48-.32-1.13-.32-1.45h.65"/><path class="cls-2" d="M120.56,132.33c4.21-7.49,18.43,0,12.85,6.38a10.39,10.39,0,0,1-7.77,3.35c-3.5-.2-3.73-2.69-4.42-5.53L120,138.24l.37-.14c.31-.12,1.84-1.33,1.07-1.65l-.51-.21c-.82-.34-2.15,1-2,1.83.51,2.09.52,4.21,2.57,5.43a7.33,7.33,0,0,0,5.13.52c3.86-.77,8.2-3.44,9.75-7.21,1.87-4.55-2.38-8.76-6.66-9.52A10,10,0,0,0,119,132.92c-.51,1.05,1.31-.14,1.57-.59Z"/><path class="cls-2" d="M119,137.42c-1.38,2.28-4.23,2.55-6.29,3.89a9.22,9.22,0,0,0-3.37,3.91,12.28,12.28,0,0,0,1.26,13.15c.62.83,2-1,2.09-1.46.6-2.93,6.26-3.44,8.38-5.11,2.79-2.19,3.74-5.56,4.61-8.84.39-1.47-1.83-.28-2,.58-.88,3.48-2,6.45-5.44,8.15-1.29.63-2.69,1-4,1.67a6.81,6.81,0,0,0-3.74,4.62l2.09-1.46c-3.7-5-3.54-12.19,2.58-15.14,2.27-1.1,4-2.2,5.15-4.54.42-.89-1.11.25-1.3.57Z"/><path class="cls-1" d="M127,141.81c1.13,2.74.81,5.32,4,6.61,3.39,1.45,8.71,1,8.87,6,2.42-2.58,3.87-8.23,1.45-11.29-1.61-1.94-8.55-1.94-7.42-5.16"/><path class="cls-2" d="M126.19,142.44c1,3.39,1.37,6,5,7.27,3.31,1.15,7.26,1.05,7.7,5.4.08.82,1.5-.33,1.65-.51,2.45-2.94,4.28-8,2.25-11.6-1.58-2.83-8-2.17-8-5.69,0-.74-1.57.73-1.67.94-1.29,2.68,2,3.53,3.89,4.19s3.33.92,4.11,2.85c1.19,2.92.06,6.61-1.89,8.91l1.65-.51c-.3-3.27-2.53-4.37-5.44-5.15-1.67-.44-3.72-.7-5.08-1.86-1.57-1.34-1.75-3.69-2.54-5.48-.28-.65-1.86.69-1.69,1.25Z"/><path class="cls-1" d="M156.71,84.24c5,0,5,.81,5.81,3.87,1.13,3.71-3.06,7.26-3.23,10.48"/><path class="cls-2" d="M156.15,84.86c3.07.41,4.86.54,5.46,3.92.71,4-3.08,6.62-3.18,10.46,0,.65,1.63-.7,1.72-1.12.94-4.12,4.31-7,3.06-11.46-.86-3.05-2.93-3.34-5.95-3-.34,0-1.5,1.18-1.11,1.23Z"/><path class="cls-1" d="M162.19,86.5c5.64,2.74,3.87,12.1,2.1,16.77-1.45,4.19-4.19,7.26-6.77,10.81-2.26,3.39-4.35,7.1-6.94,10.48a35.08,35.08,0,0,1-15.32,11.61,2.29,2.29,0,0,1,1-.32l-2.74-4c-1-.16,4.19-4,4.84-4.84a45.36,45.36,0,0,0,5.48-6c5-7.1,9.35-13.87,12.1-21,1-2.58,6.29-14.51,1.45-15.64"/><path class="cls-2" d="M161.54,87.11c8.24,5.16,1.27,18.79-2.73,24.17-7,9.44-11.86,19.42-23.46,24-.68.27-1.81,2.32-.45,1.87l1-.32c.59-.2,1.83-1.16,1.33-1.89s-2.86-3.26-2.74-4c.07-.41,3.68-2.82,4.33-3.43,5.82-5.43,10.24-12.28,14.09-19.21,1.69-3,12.48-23.06,5.2-24.74-.61-.14-2.22,1.31-1.46,1.73,5.82,3.24-4.48,21.25-6.39,24.54-3.48,6-7.3,11.89-12.38,16.67-1.75,1.64-4.2,3.08-5.38,5.21-.15.26-.29.61-.08.88,1,1.33,1.92,2.79,2.86,4.18l1.33-1.89-1,.32-.45,1.87c12.66-5,18.48-16.19,26-26.78,4.12-5.83,10.26-19.51,1.71-24.39-.43-.25-1.58,1.05-1.31,1.22Z"/><path class="cls-1" d="M103.85,63.16a17.27,17.27,0,0,1,2.58-9.4c1.94-3.49,7.83-10.12,12.9-6.82C122.6,49.06,123.85,60,124,63a36.1,36.1,0,0,1-1,9.25c-.81,3-4,3.49-7.1,3.34-3.93-.25-6.5-1.2-8.86-3.33a7.84,7.84,0,0,1-2.26-3.62A21.29,21.29,0,0,1,103.85,63.16Z"/><path class="cls-2" d="M104.7,62.68a19.33,19.33,0,0,1,4.21-11.2c2.21-2.7,6.52-6.11,9.91-3.15,2.92,2.55,3.46,8.27,4,11.82.77,5.42,1.24,15-6.36,14.52-7.35-.48-10.77-5.23-11.73-12.15-.09-.67-1.72.7-1.72,1.27-.06,8.68,7.59,15.09,16.43,12.28,6.63-2.11,5.76-11.7,5.11-17.21-.67-5.78-2-16.5-10.37-13.32C107,48.26,103.09,56.65,103,63.79,103,64.35,104.67,63.23,104.7,62.68Z"/><path class="cls-1" d="M136.27,74a4.77,4.77,0,0,1-2.83-3.29,57.54,57.54,0,0,1-1.16-13.89c.12-3.25,1.45-6,3.14-8.72,1.24-2,6.39-2.43,7-2,5.32,3.38,6.89,11.66,6.41,18.3-.36,5.6-7.38,11.32-12.58,9.63Z"/><path class="cls-2" d="M137.12,73.24c-4-2.44-3.6-9.32-3.68-13.49-.08-4.45,2.22-16.41,9.09-12.05,3.41,2.16,4.69,7.46,5.14,11.17.28,2.31.63,5.92-.38,8.2-1.39,3.15-6.32,7.76-10.3,6.09-.64-.27-2.18,1.42-1.45,1.73,5.47,2.29,12-3.64,13.78-8.4,2-5.49.42-18.72-6-21.25-4.57-1.81-8.8,2.07-10.53,5.78-2,4.33-1.92,8.78-1.52,13.47.34,3.93.37,8.42,4.24,10.41C136.11,75.19,137.62,73.55,137.12,73.24Z"/><path class="cls-2" d="M115.14,57.31c-2.57-2.43-7.71,6.85-2.14,9,3.86,1.28,5.71-3.14,5.28-6.28-.14-1.29-.71-3-2-3.43-.71-.43-2.86-.14-2.43.43"/><path class="cls-2" d="M115.86,56.75c-.32-1.21-1.94-.69-2.7-.26a7.54,7.54,0,0,0-2.89,3.31c-1.46,3-1.11,7.38,3,7.78s6.48-4.3,6.25-7.81c-.13-1.91-.87-4.06-3-4.46-1.36-.26-3.72.35-3.77,2.06a.42.42,0,0,0,.25.47l.14,0c.45.14,1-.43,1.29-.71-.66.76.28.27.86.46A2.37,2.37,0,0,1,116.67,59a6.11,6.11,0,0,1,.51,2.86c-.1,2.47-1.81,4.88-4.34,2.84a4,4,0,0,1-1-4.39,4.55,4.55,0,0,1,1.18-2.18c.56-.42.81-.21,1.49-.13.41,0,1.44-.78,1.32-1.23Z"/><path class="cls-2" d="M139.6,55.6c-3.17-.69-5.92,9.09-.14,9,3-.14,4-3.72,3.31-6.06-.55-1.52-3.41-3.79-4-3"/><path class="cls-2" d="M140.27,54.83c-4.52-1-7.68,9-2.93,10.63,3.54,1.2,6.6-2.34,6.81-5.6a5.09,5.09,0,0,0-2-4.45c-1.13-1-2.46-1.74-3.71-.52-.3.29-.74.82-.6,1.28s1.07.44,1.44.64a5.49,5.49,0,0,1,2.33,2.48c.74,2-.3,5.07-2.84,4-1.39-.61-1.69-2.24-1.57-3.61.08-.86.46-3.37,1.73-3.26.54,0,1.93-1.42,1.33-1.55Z"/><path class="cls-2" d="M144.73,88.43c0,.12-3.63,4.11-3.63,4.11-5.32,7,4.11,24.31-10.64,24.92-7.38.24-11.61-5.56-16.21-10.28-1.81-1.94-10.89-12.94-8.23-15.36l-2.9-1c1.45,0,2.9,1,4.23,1.45a33.3,33.3,0,0,0,6.89,1.45,45.67,45.67,0,0,0,11.49-.12c4.6-.6,9.43-1.21,13.79-2.78A23.13,23.13,0,0,0,145,88.07"/><path class="cls-2" d="M144.1,88.19c-2.55,3.35-5.14,4.91-5.81,9.35-.73,4.81,1.37,11.92-1.56,16.12-2.68,3.84-9,2.67-12.4.75s-6.3-5.35-9-8.28c-1.79-2-10.34-11.19-8.32-13.83.32-.42.57-1.47-.14-1.71l-2.9-1-1.46,2.51c3.82.71,7.18,2.46,11.13,2.9a48.43,48.43,0,0,0,11,0c7.06-.82,14.71-1.83,20.68-6,1.27-.89.88-3-.75-1.93-6.12,3.93-13.91,4.91-21,5.52a44.36,44.36,0,0,1-10.47-.39c-3.29-.51-6.17-2.08-9.39-2.68-1.11-.21-2.87,2-1.46,2.51l2.9,1L105,91.32c-3.27,4.27,4,12,6.53,15,5.09,6.16,11.56,13.61,20.41,12.19,6.18-1,8.49-5.85,8.65-11.64.1-3.64-.58-7.41.12-11,.61-3.15,2.93-4.71,4.64-7.23.85-1.25-.58-1.38-1.27-.48Z"/><path class="cls-1" d="M119.58,112.31c2.78-1.92,8.1-3.31,10.64-.53.85-1.81,4.84-2.9,6.77-2.18,3.51,1.45,0,5.68-2.3,6.65-4.11,1.57-12.22-.23-14.76-3.69Z"/><path class="cls-2" d="M119.51,113c3.05-1.25,6.84-2.86,9.67-.25.59.54,1.58,0,1.95-.55a4.51,4.51,0,0,1,4-1.58c2.4.45,1.68,3,.2,4-1.87,1.3-4.55,1.08-6.71.71a15.83,15.83,0,0,1-5.62-2c-1-.61-1.8-1.8-3-1.82-.49,0-1.46.78-1.26,1.34,1.11,3.24,5.73,4.45,8.74,4.94,3.59.59,7.3.32,10-2.37,1.84-1.85,3.67-5.55.34-7-2.77-1.19-6.94.48-8.52,2.89l1.95-.55c-3.39-3-8.92-1.75-12,1.11C118.7,112.39,118.52,113.39,119.51,113Z"/><path class="cls-1" d="M110.42,248.9c0,4.52,2.26,7.42.64,11.61-2.26,5.81-7.74,8.39-13.55,8.71-4.19.32-21.13-1-20.8-6.77"/><path class="cls-2" d="M109.51,249.57c.39,6.76,3,12.42-4.34,16.84-3.17,1.92-7.35,2-10.95,1.75-4.64-.26-15.06-.69-16.6-6.37-.23-.84-1.76.74-1.82,1.16-1,7.11,16.62,7.56,20.85,7.32a17.85,17.85,0,0,0,12.56-5.57c4.72-5.31,2.48-10.13,2.11-16.46,0-.64-1.87.59-1.82,1.33Z"/><path class="cls-1" d="M128.32,244.87c3.55,5-4.84,16.29,5.16,20.81,10.64,4.52,23.38.64,28.87-8.39"/><path class="cls-2" d="M127.54,245.6c2.32,4.22-.7,9.61-.09,14.17.69,5.25,5.2,7.42,10,8.36,9.3,1.84,21.64-1.94,25.85-11.14.55-1.21-1.27-.21-1.56.1-4.11,4.5-7.9,7.92-14.16,9-5,.9-12.39.49-16.17-3.43-5-5.23,1.16-12.91-2.29-18.57-.27-.45-1.89.87-1.57,1.46Z"/><path class="cls-1" d="M123.6,131.42a4.23,4.23,0,0,1,1.09,4.35"/><path class="cls-2" d="M122.94,132a4.64,4.64,0,0,1,1.11,4.24c0,.27.53-.09.56-.11a2,2,0,0,0,.69-.79,4.27,4.27,0,0,0-1-4.56c-.29-.31-1.61.91-1.31,1.23Z"/><path class="cls-1" d="M131.31,130a6.53,6.53,0,0,1,.24,8"/><path class="cls-2" d="M130.52,130.77a6.51,6.51,0,0,1,1.35,3.61,9.07,9.07,0,0,1-1.07,3.94c-.34.85.76.29,1,0a6.75,6.75,0,0,0,.26-9c-.4-.44-1.94,1-1.57,1.46Z"/><path class="cls-1" d="M138.81,130c2.18-4.11,7.26-7.5,10.16-11.13A61.51,61.51,0,0,0,161.55,92.3"/><path class="cls-2" d="M139.33,129.92c2.45-3.88,6.19-6.45,9.22-9.8a54.08,54.08,0,0,0,6-8.12,62,62,0,0,0,7.77-20.14c.14-.67-1.37.44-1.48.89-2.12,8.19-5.05,15.92-10,22.88-3.76,5.32-9.37,9.06-12.65,14.7-.45.77,1-.12,1.15-.4Z"/><path class="cls-1" d="M72.28,81.9c5.81-.24,11.13,2.9,15,6.77"/><path class="cls-2" d="M71.66,82.61c6.05,0,10.38,3.12,15,6.67.34.26,1.56-.88,1.29-1.21a19.37,19.37,0,0,0-15-6.88c-.55,0-1.62,1.42-1.25,1.42Z"/><path class="cls-1" d="M67,86c1.45-1.21,3.14-1,4.84-.48"/><path class="cls-2" d="M67,86.44c1.21-.92,2.85-.54,4.22-.27.41.08,1.57-1.13,1.15-1.28a5.34,5.34,0,0,0-5.46.7c-.19.15-.85.7-.71,1s.61,0,.8-.15Z"/><path class="cls-1" d="M111.23,123.51c1,3.63,4.84,7.5,7.26,9.92"/><path class="cls-2" d="M110.55,124a14.77,14.77,0,0,0,2.77,5.38c1.2,1.58,2.7,3.68,4.42,4.71.49.3,1.81-.88,1.5-1.4-1-1.61-2.7-2.88-3.92-4.31a18.29,18.29,0,0,1-3.41-5.44c-.16-.42-1.47.64-1.37,1.06Z"/><path class="cls-1" d="M111.47,153.26c-1.45-5.81,3.63-8.23,8-9.43"/><path class="cls-2" d="M112.32,152.63c-.47-2.22-.19-4.36,1.73-5.8,1.51-1.13,3.34-1.57,5.05-2.29.3-.13,1.69-1.61.86-1.48-5.27.81-10.65,5.05-9.35,10.83.14.63,1.84-.63,1.71-1.26Z"/><path class="cls-1" d="M137.6,143.83c1.45.48,2.18,1.94,2.42,3.63"/><path class="cls-2" d="M137,144.47a3.38,3.38,0,0,1,1.55,1.48c.37.68.4,1.47.75,2.15.23.46,1.38-.93,1.42-1.2a3.94,3.94,0,0,0-.7-2.31,3.21,3.21,0,0,0-1.87-1.4c-.4-.12-1.55,1.1-1.14,1.28Z"/><path class="cls-1" d="M84.13,47.79C88,39.32,94.54,35,101.55,29.65"/><path class="cls-2" d="M84.73,47.51a35.19,35.19,0,0,1,8.42-10.75c2.76-2.43,5.93-4.39,8.6-6.92.32-.3.77-1.16,0-.68-7.44,4.43-14.53,11-18.17,18.9-.36.79,1-.22,1.19-.55Z"/><path class="cls-1" d="M136.15,18.52c4.6,0,9.19,0,13.06,2.66"/><path class="cls-2" d="M135.57,19.16c4.58,0,8.95.3,13,2.59.37.21,1.48-1,1.23-1.15-3.84-2.78-8.54-2.77-13.1-2.73-.49,0-1.44,1.29-1.15,1.29Z"/><path class="cls-1" d="M66.56,127.94c-6.61-9-19.35-31.77-23.55-38.22-4.35-7.1-6.45-15.32-10.64-22.42A101.35,101.35,0,0,1,28,57.79c-1.94-4.52-2.26-6.93,1.77-10.16,1.77-1.29,3.59-3.11,5.81-2.58l4.84,2.26c0,2.58,2.58,5,3.55,7.26A99.48,99.48,0,0,0,48.65,65c2.26,4,5.16,7.26,8.06,10.64,3.06,3.39,5.16,6.61,9,9,2.26,1.45,5.64,4.84,8.39,4.84"/><path class="cls-2" d="M67.13,127.41C53.18,107.14,41.58,85,31.33,62.72c-1.28-2.79-3.24-6.08-3.64-9.17-.51-3.88,3.89-8.16,7.78-7.35a12.64,12.64,0,0,1,2.21,1c2.21,1,2.12,2.56,3.31,4.62,2,3.56,3.48,7.19,5.23,10.9,3.11,6.6,8.06,12,12.83,17.45,3.29,3.74,9.15,9.5,14.36,10.23.73.1,2.1-1.64,1.45-1.73-5.6-.79-11.65-7.24-15.14-11.3C54.78,71.64,50.06,66.22,47,59.14a62.05,62.05,0,0,0-3.57-7.68c-1-1.69-1.49-4-2.71-5.2A7.48,7.48,0,0,0,32.66,45c-2.56,1.34-5.86,3.92-6.7,6.83-1.3,4.51,2.79,10.89,4.73,14.71,3.48,6.86,6.2,14.09,9.74,20.9,2,3.78,4.38,7.35,6.56,11,6.07,10.15,11.85,20.62,19,30.07.17.22,1.35-.77,1.14-1.06Z"/><path class="cls-1" d="M31.88,48.27C17.37,46.34,1.88,28.92,12,13.92,14,10.54,20.27,4.73,25.11,6.18c6.29,1.94,3.87,8,6.29,12.34,2.42,4.84,5.32,1.69,8.23,6.53,1.45,2.42,1.94,10.64,1.94,13.55,0,2.42-1.94,5.32-2.42,7.74"/><path class="cls-2" d="M32.58,47.45A28.79,28.79,0,0,1,12,32.32a18.29,18.29,0,0,1-1.28-14.13C12.56,13,19.13,4.55,25.51,7.67c3.73,1.83,3,6.32,4,9.65S32.13,21.57,35,23c4.55,2.25,4.84,6.59,5.23,11.19.4,4.77-.86,7.93-2.12,12.47-.43,1.52,1.89.34,2.14-.57.75-2.7,2.24-5.17,2.47-8a34.31,34.31,0,0,0-.32-5.92c-.47-4.91-1-9-5.73-11.24C30,17.75,33,13,29.76,8c-2.08-3.23-6-3.55-9.27-2.23C12.23,9,6.59,19,8,27.69,9.7,38.84,20.43,47.45,31.18,49.1c.66.1,2-1.54,1.4-1.64Z"/><path class="cls-1" d="M39.78,43.6a14.82,14.82,0,0,0,2.58-4.35c1.45-3.06-.64-6,0-9,.65-2.9,3.87-6.77,5.48-9.35,1.77-3.23,2.9-6,1.77-9.68-1.94-6-9.52-6.45-10.32.32-.32,3.06-1.77,11.13-6.61,9.35"/><path class="cls-2" d="M40.18,43.66a13.46,13.46,0,0,0,3.51-6.23A13.52,13.52,0,0,0,43.63,34c-.08-3.56,0-5.63,1.93-8.67,3-4.73,7.59-10.17,4.55-16.09C48.27,5.69,44,4.42,40.83,7.1c-2.75,2.34-2.75,14-7.4,12.87-.73-.18-2.23,1.59-1.49,1.78,9,2.25,6.63-16,13-13.92,9.21,3.06.89,14.25-1.8,18.89a11.21,11.21,0,0,0-1.9,5.54,25.23,25.23,0,0,0,.46,3.17c.38,3.39-.64,5.52-2.45,8.3-.62.95.62.3.93-.06Z"/><path class="cls-1" d="M22.37,47.15A25.42,25.42,0,0,0,18.17,45,15.14,15.14,0,0,1,10.43,37c-.81-1.45-1-3.06-2.42-4.19-1.94-1.45-3.71-1-5-3.71A36.54,36.54,0,0,1,1.08,18.92C.92,13.92,3,7.15,9.63,10.05,15.11,12.31,12,21,16.4,24.89"/><path class="cls-2" d="M23,46.59c-2.43-1.86-5.44-2.74-7.74-4.81s-3.15-4.44-4.63-7.12a8.34,8.34,0,0,0-3.73-3.73C3.69,29.07,3,26.16,2.47,22.64,2,20,1.58,16.91,2.4,14.26,3.7,10.07,8.31,9,11,12.77s.83,9.39,4.49,13c.58.56,2.33-1.06,1.8-1.68-3.87-4.47-1.24-13.59-8.18-15.36C4.82,7.59,1.75,10.9.68,14.76-.79,20.06-.12,29.54,5,32.47c3.9,2.24,4.2,5.83,6.91,9.15s6.2,4.35,9.87,6.08c.35.17,1.45-.93,1.2-1.12Z"/><path class="cls-1" d="M19.95,9.08C21.4,5.21,32-3,34.95,3.28c1.61,3.23-2.1,6.77-3.06,9.84-.65,2.58-.65,8.71,2.9,9.35"/><path class="cls-2" d="M20.57,8.8A14.76,14.76,0,0,1,29,2.18c1.63-.42,3.3-.33,4.44,1,1.91,2.33,0,5.18-1.18,7.34-1.74,3.15-3.68,12,1.85,12.64.39,0,1.83-1.18,1.38-1.43-2.59-1.42-3.15-4.37-2.92-7.13s1.77-4.55,2.82-6.9C36.66,5,36.75,1.06,33.12.16,28.05-1.08,20.91,5.09,19.26,9.51c-.21.56,1.18-.45,1.31-.71Z"/><path class="cls-1" d="M10.27,10.54C8.5,4.89,20.75-1.08,21.72,5.54c.81,4.35-.16,12.74,3.23,16.45"/><path class="cls-2" d="M10.93,10c-.82-5.5,9.09-9.71,10-2.79.62,4.88-.59,11.72,3.16,15.59.56.58,2.23-1,1.79-1.66-2.71-4-2.49-8.81-2.83-13.45-.2-2.69-.43-5.62-3.66-5.94C15.06,1.33,8,6.19,9.61,11c.13.4,1.37-.63,1.31-1Z"/><path class="cls-1" d="M26.24,29.73c5.32.16,9.35,6.93,9.35,11.61"/><path class="cls-2" d="M25.68,30.35c5.63.6,8.65,6.48,9.21,11.53,0,.43,1.39-.65,1.41-1.09.22-5.15-4.1-11.46-9.5-11.69-.44,0-1.44,1.21-1.12,1.25Z"/><path class="cls-1" d="M26.4,53.44c4,1,8.39-.32,12.1-2.26,2.26-1.13,7.1-5.32,4.35-8.23-2.58-2.74-5.71,1.63-10.48,2.9-3.83,1-9.6-.6-9.92,2.3C22.45,48.15,20.87,52,26.4,53.44Z"/><path class="cls-2" d="M25.71,54.23c6,1.35,13.79-1.22,17.51-6.28,2.93-4,.56-8.24-4.29-6.17-1.8.77-3.35,2-5.22,2.64-2.18.78-4.24.68-6.5.81-2,.11-4.08.27-5.29,2-2.16,3.15.39,6.59,3.8,7,.42,0,2-1.23,1.48-1.54C26,52,22,50.09,23.48,47.86c1-1.5,7.21-.56,9.11-1.14C35,46,41,41,42.23,44.85c.89,2.75-2.68,5.09-4.88,6.14a17.31,17.31,0,0,1-10.26,1.65C26.48,52.54,25.1,54.1,25.71,54.23Z"/><path class="cls-1" d="M123.93,90.09c4.84-.85,9.19-2.06,13.31-5"/><path class="cls-2" d="M123.36,90.77c4.71.45,10.82-2.05,14.23-5.26.48-.45.7-1.54-.29-1.07a62.58,62.58,0,0,1-6.88,3.08c-2.12.71-4.38,1-6.41,2-.19.09-1.25,1.21-.65,1.27Z"/><path class="cls-1" d="M107.84,43c3.14-2.66,3.39-2.66,7.26-4,1.09-.36,3-.48,3.87-1.21.6-.48,1.69-3.27,1.45-4.11-1.45-5.93-15.28,4.68-16.61,7.7l2.26,1.94Z"/><path class="cls-2" d="M107.88,43.36a21.31,21.31,0,0,1,8.25-3.9c1.55-.38,2.9-.77,3.86-2.12,1.46-2,2.37-6-1.07-6.37-3.2-.33-6.8,2.28-9.25,4s-5.37,3.88-6.78,6.65c-.06.12-.12.44,0,.54,1.9,1.51,2.15,2,4.45,1.46.41-.09,1.63-1.46,1-1.37-1.38.19-1.86.28-2.79-.95-.81-1.07-.46-.9.77-2.09a25.94,25.94,0,0,1,9-6c4.76-1.65,5.47,3.49,1,4.67a19.12,19.12,0,0,0-8.68,4.79C107,43.24,107,44,107.88,43.36Z"/><path class="cls-1" d="M205.73,165.09c-10,10.59-14.56-12.68-6.87-11.53"/><path class="cls-2" d="M205.68,164.65c-1.68,1.19-3.38,2.84-5.58,1.89a6.64,6.64,0,0,1-3.17-4c-.63-1.74-2-8.21,1.29-7.85,1,.11,2.69-2.12,1.27-2.29-5.9-.71-6.26,7.44-5,11.22.73,2.17,2.16,4.62,4.58,5.14,2.81.61,5.72-1.62,7.21-3.8.47-.69-.16-.66-.63-.33Z"/><path class="cls-1" d="M212.24,161.33c.66,5.61-7.31,5.16-10.06,2.35-2-2.54-3.76-9.66,0-11.57"/><path class="cls-2" d="M211.34,162c.25,4.23-6.27,2.92-8.17.76-2.23-2.54-3-7.73-.61-10.26.32-.34,1-1.46,0-1.2-5.66,1.48-4.41,11.51-.4,14.09s11.47,1.2,11-4.7c-.05-.64-1.83.61-1.79,1.31Z"/><path class="cls-1" d="M213.15,153.63c.21.5,2.48,3.29,1.38,5.65-2.5,5.68-11.12-.38-10.59-5.68"/><path class="cls-2" d="M212.53,154.21c.08.2.11.63.19.88a15.35,15.35,0,0,1,1.05,2.66c.41,2.73-1.68,3.19-3.69,2.38a8.62,8.62,0,0,1-3.52-2.79c-1.09-1.44-1.18-2.78-1.67-4.42-.26-.86-1.68.65-1.81,1-1.66,4.07,4.27,9.11,8.08,8.64a5.65,5.65,0,0,0,4.34-3.55,4.7,4.7,0,0,0-.1-3.67,7.08,7.08,0,0,0-.87-1.63c-.2-.24-.61-.46-.74-.65s-1.42.78-1.25,1.17Z"/><path class="cls-1" d="M213.72,153.18c-2.9,3.17-10.55,1.35-11.78-2.76,0,0-2-7.21,7.84-5.59"/><path class="cls-2" d="M213.38,152.81c-2.84,2.71-9.69.26-10.45-3.46-.82-4,3.33-3.8,6.23-3.45.8.1,2.38-1.94,1.45-2.11-4.55-.79-10.77,1-9.84,6.76s9.76,6.51,13.29,3c1-1,.32-1.68-.68-.73Z"/></svg>