<svg id="Icons" xmlns="http://www.w3.org/2000/svg" viewBox="0 0 168.09 208.74"><defs><style>.cls-1{fill:#10069f;}.cls-2{fill:#050050;}</style></defs><title>og-tour-mobile</title><path class="cls-1" d="M156.72,116.14c5.61.49,5.44-6.24,1.37-8.28-3.35-1.82-8.21-2.64-11.76-.84a15.69,15.69,0,0,0-4,3.77"/><path class="cls-2" d="M156.21,116.75a5,5,0,0,0,4.15-8.47c-2.48-2.69-7.49-3.51-10.91-3s-5.68,2.65-7.81,5.23c-1,1.18.61,1.46,1.35.55,3.54-4.35,8.21-5.13,13.25-3a6.24,6.24,0,0,1,3.52,3c1,2.12.3,4.38-2.62,4.47-.39,0-1.36,1.18-.92,1.22Z"/><path class="cls-1" d="M133.82,117.4c.73,2.54,2.77,3.9,4.76,4.81"/><path class="cls-2" d="M133.17,117.87c.24,2.52,2.61,4.21,4.72,5.22.8.38,2.3-1.36,1.37-1.78a10.52,10.52,0,0,1-2.86-1.72,10.76,10.76,0,0,1-2-2.76c-.24-.42-1.28.7-1.24,1Z"/><path class="cls-1" d="M134.77,112.23c-1.27.18-2,1.81-1.63,3.27.54,2.36,3.81,3.27,5.81,3.45,2.54.36,5.9,0,7.17-2.36.73-1.27,1.72-3.63-.91-5.08"/><path class="cls-2" d="M135,111.61a3.77,3.77,0,0,0-2.4,5.08c1.19,2.58,5,3.15,7.51,3.16s5.26-.91,6.69-3.27c1.21-2,1.51-4.77-1.06-5.77-.45-.17-1.66.89-1.25,1.32,1.22,1.26,1.93,2.34,1.05,4.08s-3,2.09-4.85,2.05a11.94,11.94,0,0,1-4-.73,5.62,5.62,0,0,1-1.76-1c-.69-.63-2.29-3-.42-3.7.45-.16,1.41-1.53.53-1.23Z"/><path class="cls-1" d="M135.48,122c3.7-.95,6.42.4,4.79,3.08"/><path class="cls-2" d="M135.08,122.61c1.32-.2,2.92-.46,4.12.29a1.43,1.43,0,0,1,.73,1c.09.6-.35,1.09-.35,1.68,0,.29.49.1.59,0,1.26-.76,2-2.81.72-3.92s-3.64-.77-5.15-.27c-.29.1-1.3,1.27-.66,1.17Z"/><path class="cls-1" d="M150.18,116.26c0-1.58,1.51-3.19,2.89-1.78"/><path class="cls-2" d="M150.63,116c.09-.34.28-1.06.64-1.25s.87.34,1.25.41,1.34-.65,1.23-1.15a1.26,1.26,0,0,0-1.23-.79,2.47,2.47,0,0,0-1.54.56,2.84,2.84,0,0,0-1.27,2.88c.1.32.89-.5.93-.67Z"/><path class="cls-1" d="M112.57,72.37c1.33,1.21,3,1.57,4.48,2.42a30.92,30.92,0,0,1,7.14,5.2c2.66,2.54,5.81,4.72,8.1,7.5a58.85,58.85,0,0,1,6.41,8.83c1.21,2.3,6.41,12.46,6.29,15.6s-3.63,4.11-6.41,3.14c-2.42-.85-3.75-3.51-5.32-5.44-4.23-5-10-6.53-15.85-8.83"/><path class="cls-2" d="M112.09,72.82c2.86,2.21,6.34,3.29,9.17,5.65s6,5.08,8.77,7.82c4.94,4.93,8.38,10.9,11.24,17.19,1,2.25,2.53,4.91,2.82,7.4a3.44,3.44,0,0,1-4.55,3.67c-2-.58-3-2-4.21-3.56-4.61-6-10.52-8.16-17.38-10.83-.49-.19-1.63,1.08-1.09,1.29,4.53,1.76,9.38,3.22,13.22,6.32,2.82,2.28,4.45,6.66,8,8,4.92,1.81,8.5-2.22,7.16-6.84a57.9,57.9,0,0,0-9.32-18.27,76.67,76.67,0,0,0-10.67-10.73,40.08,40.08,0,0,0-5.93-4.64c-2-1.2-4.35-1.92-6.23-3.31-.28-.21-1.16.74-1,.9Z"/><rect class="cls-1" x="117.67" y="84.58" width="46.76" height="34.44" transform="translate(-14.1 180.45) rotate(-62.7)"/><path class="cls-2" d="M146,131.48,114,115l22.13-42.88L168.09,88.6ZM116,114.35l29.27,15.11,20.76-40.22L136.8,74.14Z"/><rect class="cls-1" x="120.57" y="87.51" width="41.47" height="27.59" transform="translate(-13.52 180.41) rotate(-62.7)"/><path class="cls-2" d="M144.38,127.06l-25.84-13.34,19.7-38.17,25.84,13.34Zm-23.83-14,23.19,12,18.33-35.52-23.19-12Z"/><circle class="cls-1" cx="152.85" cy="78.95" r="3" transform="translate(12.59 178.56) rotate(-62.7)"/><path class="cls-2" d="M152.84,82.7a3.75,3.75,0,1,1,3.34-2A3.72,3.72,0,0,1,152.84,82.7Zm0-6a2.26,2.26,0,1,0,1,.25A2.26,2.26,0,0,0,152.85,76.69Z"/><rect class="cls-1" x="148.67" y="72.22" width="5.54" height="18.89" transform="translate(9.42 178.79) rotate(-62.7)"/><path class="cls-2" d="M158.89,89.47l-18.11-9.35L144,73.86l18.11,9.35Zm-16.09-10,15.45,8,1.85-3.59-15.45-8Z"/><path class="cls-1" d="M144.9,78.81h0a22.59,22.59,0,0,0,4,2.08h0"/><path class="cls-2" d="M144.9,78.81l.11-.18h.07l.07,0,.13.06.26.12.51.25,1,.51,1,.52.49.26.25.13.13.07.06,0,0,0h0l-.09.22-.09.22h-.06l-.07,0-.14,0-.28-.08-.55-.2c-.36-.14-.7-.32-1-.49s-.67-.38-1-.59l-.47-.33-.23-.18-.11-.09-.05,0,0,0h0Z"/><path class="cls-1" d="M79.88,8.26c-.27-1.18,1.81-2.63,3-2.9,1.91-.36,2.45.54,3.63,1.18"/><path class="cls-2" d="M80.41,7.86c.1-1.41,2.29-2.09,3.42-1.8.86.23,1.4,1.06,2.29,1,.35,0,1.15-.71,1-1.09-.82-1.59-3.36-1.66-4.76-1-1.14.54-3.45,2.1-3,3.65.12.38,1-.54,1-.81Z"/><path class="cls-1" d="M62.56,38.66c-.91-11.07,6.71-24.47,15.66-29.06,10.4-5.32,24.68-2.18,28.55,9.92a6.38,6.38,0,0,1,.24,1.69"/><path class="cls-2" d="M63.08,38.25C63,26.26,69.86,12,82.22,8.65c9.34-2.55,23,1.88,24,13.11.06.68,1.62-.4,1.61-1-.1-5.49-5.1-10.45-9.79-12.6a22.74,22.74,0,0,0-17.43-.25C69.17,12.35,60.68,27,62,39.06c0,.3,1.06-.46,1.05-.81Z"/><path class="cls-1" d="M87.41,121.6c3.27,10.91,4.24,18.64,5.56,29,.14,1.13.83,1.93,1,3.14.48,4.84,1.3,26.07,3.72,30.66,4.84,8.71,8.5-11.07,8.74-14.94.48-6,.48-11.25,2.3-18.39,1.4-10.81,3.63-16.45,5.93-31.93"/><path class="cls-2" d="M86.91,122a163.83,163.83,0,0,1,4.28,20.84c.71,5,2,9.95,2.31,15,.56,8.32.26,17.71,2.88,25.71,2,6.12,5.93,3.24,7.72-1.13,3.29-8,2.87-16.61,4-25.05,1.81-12.95,5.25-25.63,7.28-38.55.13-.84-1.5.16-1.6.8-1.39,9.6-3.86,19-5.38,28.54-.88,5.52-2,10.9-2.42,16.5a82.48,82.48,0,0,1-1.12,10.29c-.6,3-1.16,7.37-3.12,9.87-2.64,3.36-4.22-3-4.6-4.94-1.52-7.66-1.75-15.59-2.29-23.37a20.21,20.21,0,0,0-.74-4.8c-1-3.15-1.13-6.57-1.6-9.84a132.42,132.42,0,0,0-4.65-20.62c-.09-.29-1.08.47-1,.78Z"/><path class="cls-1" d="M61.29,117.25c0,3.14,1,4.34,1.81,7.14,1.27,4.17,2.88,8.33,4,12.22,1.21,4.84,2.66,9.68,3.87,14.27,1.21,5.56,2.42,10.16,2.42,16,0,4.84-1.44,13.22,5.81,12.82.87,0,4.61,7.76,4.78,6.32.64-5.35,1.88-26.34,3.08-30.93,1.27-6.35,5.2-16.15,7.38-30.06"/><path class="cls-2" d="M60.77,117.65c.11,3.9,1.82,7.7,3,11.38,1.52,4.65,2.88,9.29,4.17,14,2.36,8.61,4.85,17.23,4.63,26.24-.09,3.59-.69,9.34,3.6,10.82,1,.35,2.13.12,3,.75s1.34,2,1.83,2.84,1.41,3.2,2.49,3.17a1.55,1.55,0,0,0,1.13-.93c1.26-3.28.8-8.11,1.07-11.58.42-5.21.79-10.43,1.45-15.61a81.91,81.91,0,0,1,3-12.65,179,179,0,0,0,5.07-21.47c.12-.77-1.4.21-1.49.77a183.85,183.85,0,0,1-5.25,22.07,77.87,77.87,0,0,0-2.72,11.4c-.65,4.8-1,9.65-1.39,14.48-.2,2.51-.4,5-.6,7.54-.13,1.6.07,4-.51,5.49l1.13-.93c-.66,0-2.39-3.67-2.71-4.18-1.33-2.11-1.32-1.92-3.57-2.37-5.57-1.1-3.89-9.24-4-13.28-.16-8.5-2.87-16.77-5.09-24.9-1.17-4.28-2.44-8.46-3.89-12.65-1.25-3.59-3.07-7.39-3.31-11.21,0-.26-1,.43-1,.8Z"/><path class="cls-1" d="M73.14,186.68c.73-2.42-.6-5.44-1.81-7.5-.73-1.33-2.54-2.66-2.3-4.35s2.66-2.3,4.11-2.66a17.88,17.88,0,0,1,9.43-.36c4.11,1,3.39,3.87,2.18,7a29.75,29.75,0,0,0-1.33,5.44c-.12,1-.24,1.94-.36,2.78,0,.24-.36,2.3,0,1.45"/><path class="cls-2" d="M73.66,186.36A10.58,10.58,0,0,0,72,178.55c-.38-.64-1.25-1.37-1.47-2.08-.95-3,.79-3.15,2.34-3.54a18.52,18.52,0,0,1,8-.54c5.93,1.07,3.31,5.26,2.29,9.36-.46,1.86-1.72,5.62-1,7.48.27.69,1.4-.4,1.5-.76l.1-.35c.15-.53-.64-.15-.77-.06l-.18.12.86.29a46.41,46.41,0,0,0,.64-4.62c.43-2.78,1.71-5.34,2.14-8.09.75-4.73-4.42-5.43-8.11-5.22-2.81.16-8.2.71-9.73,3.65-.77,1.48-.11,2.73.79,4,1.9,2.6,3.77,5.45,3.25,8.85-.07.46,1-.33,1-.64Z"/><path class="cls-1" d="M97.09,184.86c-.12-1.45.36-2.66-.12-4.11a34,34,0,0,0-2.3-4.72c-1.45-3.27-1.33-5.2,2.3-6.65,2.78-1.21,6.53-1.94,9.43-.85,1.21.48,3.75,1.69,4.11,3,.36,1.81-2.18,4.23-2.42,5.93a8,8,0,0,0,0,3.39"/><path class="cls-2" d="M97.66,184.43a14.06,14.06,0,0,0,0-4.18,23.08,23.08,0,0,0-2-4.31c-.79-1.64-1.48-3.09-.33-4.61,1.36-1.8,4.62-2.39,6.8-2.46a9.58,9.58,0,0,1,4.87,1.08c2.43,1.27,2.82,2.65,1.53,5-1.15,2.07-2,4.09-1.2,6.5.24.67,1.49-.49,1.48-.92a9.82,9.82,0,0,1,.47-4.21c.41-1,1.13-1.78,1.56-2.74.5-1.13.85-2.17.17-3.28-2-3.24-7.4-3.42-10.59-2.71-2.59.57-6.47,1.78-7.32,4.7a6.4,6.4,0,0,0,.76,4.34c.59,1.28,1.47,2.42,2,3.73.69,1.68.52,3.2.62,5,0,.36,1.13-.49,1.15-.87Z"/><path class="cls-1" d="M64.43,34c-3.87-7.5,9.92-22.26,15.72-25.64,10.16-5.81,20.56,2.18,25.64,10.4,1,1.21.48,2.42,1.21,1.94"/><path class="cls-2" d="M64.9,33.59c-1.88-4.3,1.16-9.44,3.53-12.87a46.82,46.82,0,0,1,9.39-10.18c10.36-8.17,23.45.42,28.09,10.78.09.21.27.21.48.16l.36-.1c.37-.1,1.48-1.45.7-1.35.13,0-4.92-7.06-5.46-7.6a23.83,23.83,0,0,0-9.08-5.9c-5.76-1.92-11.29-.17-15.82,3.57C71.28,14.9,60,26,64,34.46c.08.16,1.08-.54.93-.87Z"/><path class="cls-1" d="M79.67,22.17c-1.94-5.08-2.9-11.13,3.63-14,9.92-4.35,22.26,4.6,21.29,10.16"/><path class="cls-2" d="M80.12,21.82c-.79-2.66-1.68-5.91-1-8.68C80.65,7.35,88.45,7.07,93,8.36c4.82,1.36,10.57,5,10.88,10.45,0,.63,1.32-.59,1.39-.88.85-3.41-2.91-6.7-5.38-8.35A18.38,18.38,0,0,0,87.16,6.46c-8.79,1.34-11.22,8.6-7.93,16.12.06.14,1-.52.88-.76Z"/><path class="cls-1" d="M96.49,184.14c-4,4.11-3.51,9.92-1.21,14.88,2.78,5.69,8.59,7.5,14.51,6.17,5.56-1.21,11-5.2,12.1-11.13,1.09-6.65-2.66-14.76-10-14.76-3.27,0-6.41,1.69-9.19,3.27-1.69,1.09-4.23,2.54-6.17,1.33"/><path class="cls-2" d="M96.27,183.91c-5.2,5.35-4.47,15.13,1.39,19.86s14.56,2.8,19.9-1.59a14.42,14.42,0,0,0,3.3-18.76,10.1,10.1,0,0,0-8.52-5,14,14,0,0,0-5.25,1.14c-2.84,1.12-6.81,4.72-9.92,3.5-.82-.32-2.3,1.41-1.37,1.77,2.24.88,4,.19,6-.9,3.54-1.85,7.1-4.31,11.31-3.45,6.44,1.31,9.32,9.58,7.44,15.34-2.32,7.13-12.33,11-19,7.94-7.09-3.22-9.45-13.5-4.72-19.51.54-.69-.07-.82-.57-.3Z"/><path class="cls-1" d="M83.34,186.58c0,.51-.3,1-.3,1.53-3.44-.28-5.42-4.91-8.85-6.22-7.16-2.62-12.36,1.69-14.71,7.31-1.76,4.34-3.82,10.72.17,14.85,3.7,3.87,12.89,4.62,18.36,2.61,5.76-2.26,6.81-7.66,8-12.51.31-2.3,1.19-5.37-.52-7.17-1.71-2.06-2.39-1.52-1.53-1"/><path class="cls-2" d="M82.86,186.89q-.24.78-.42,1.58l1.11-.93c-2.83-.63-4.26-3-6.34-4.77a9.89,9.89,0,0,0-5.66-2.33,11.55,11.55,0,0,0-9.35,3.66c-4.67,4.75-8.67,16.06-2.67,21.2,5.53,4.75,17.09,4.58,22.37-.46,3.55-3.38,9.29-17.43,2.49-20.09-.51-.2-1.28.53-1.39,1l-.09.39a.28.28,0,0,0,.17.32l.34.2c.41.24,1.55-.87,1.2-1.27l-.23-.37-1.23,1.31c1.86-.14,2.53,3.78,2.48,5a25.8,25.8,0,0,1-.86,4.94c-1,4-2.42,7.88-6.49,9.65-5.5,2.38-15.79,1.67-19-4.08-3.34-5.94,1.13-17.48,7.6-19.51,3.72-1.17,7.36.17,10.09,2.71,1.76,1.63,3.14,3.34,5.6,3.72.41.06,1.06-.54,1.11-.93s.14-1,.19-1.57c0-.23-.92.46-1,.7Z"/><path class="cls-1" d="M83.34,185.49c0,.51-.3,1-.3,1.53-3.44-.28-5.42-4.91-8.85-6.22-7.16-2.62-12.36,1.69-14.71,7.31-1.76,4.34-3.82,10.72.17,14.85,3.7,3.87,12.89,4.62,18.36,2.61,5.76-2.26,6.81-7.66,8-12.51.31-2.3,1.19-5.37-.52-7.17-1.71-2.06-2.39-1.52-1.53-1"/><path class="cls-2" d="M82.86,185.8q-.24.78-.42,1.58l1.11-.93c-2.83-.63-4.26-3-6.34-4.77a9.89,9.89,0,0,0-5.66-2.33A11.55,11.55,0,0,0,62.19,183c-4.67,4.75-8.67,16.06-2.67,21.2,5.53,4.75,17.09,4.58,22.37-.46,3.55-3.38,9.29-17.43,2.49-20.09-.51-.2-1.28.53-1.39,1l-.09.39a.28.28,0,0,0,.17.32l.34.2c.41.24,1.55-.87,1.2-1.27l-.23-.37-1.23,1.31c1.86-.14,2.53,3.78,2.48,5a25.8,25.8,0,0,1-.86,4.94c-1,4-2.42,7.88-6.49,9.65-5.5,2.38-15.79,1.67-19-4.08-3.34-5.94,1.13-17.48,7.6-19.51,3.72-1.17,7.36.17,10.09,2.71,1.76,1.63,3.14,3.34,5.6,3.72.41.06,1.06-.54,1.11-.93s.14-1,.19-1.57c0-.23-.92.46-1,.7Z"/><path class="cls-1" d="M96.49,183.41c-4,4.11-3.51,9.92-1.21,14.88,2.78,5.69,8.59,7.5,14.51,6.17,5.56-1.21,11-5.2,12.1-11.13,1.09-6.65-2.66-14.76-10-14.76-3.27,0-6.41,1.69-9.19,3.27-1.69,1.09-4.23,2.54-6.17,1.33"/><path class="cls-2" d="M96.27,183.18c-5.2,5.35-4.47,15.13,1.39,19.86s14.56,2.8,19.9-1.59a14.42,14.42,0,0,0,3.3-18.76,10.1,10.1,0,0,0-8.52-5,14,14,0,0,0-5.25,1.14c-2.84,1.12-6.81,4.72-9.92,3.5-.82-.32-2.3,1.41-1.37,1.77,2.24.88,4,.19,6-.9,3.54-1.85,7.1-4.31,11.31-3.45,6.44,1.31,9.32,9.58,7.44,15.34-2.32,7.13-12.33,11-19,7.94-7.09-3.22-9.45-13.5-4.72-19.51.54-.69-.07-.82-.57-.3Z"/><path class="cls-1" d="M63,37.93c2.18-3.87,7-10.43,10.61-12.85C79.91,21.21,86.2,16.85,93,13.46c8.47-4.35,21.29-10.89,31-6.53,8,4.11-9,14.51-12.34,17.18"/><path class="cls-2" d="M63.46,37.72A51.49,51.49,0,0,1,71.87,27c3.62-3.34,8.65-5.84,12.86-8.39,7.46-4.53,15.67-9.06,24.14-11.3,4.28-1.13,9.24-1.74,13.47,0,3.5,1.4,3.4,3.89,1.18,6.58-3.3,4-8,6.64-12,9.76-.72.55-.79,1.84.26,1,4.76-3.65,10.93-6.89,14.06-12.2,4.51-7.65-8.21-8-12.81-7.27-10.79,1.78-21.21,8-30.34,13.74-4,2.53-8.6,4.82-12,8.22a47.22,47.22,0,0,0-8.1,11c-.31.58.75-.2.89-.42Z"/><path class="cls-1" d="M91,19.51c-10.16-.24-24.1,9.37-28.21,19-4.11,9.92-5.41,14.58-10,24.49C47.74,73.7,47,85.35,46.56,97c-.36,9.89,6.28,19.28,12.66,24.89,10.63,9.36,23.87,10.88,37.63,8.46,7.93-1.4,14.44-3.77,19.05-10.46a42.9,42.9,0,0,0,3.14-5.51,40.13,40.13,0,0,0,3.69-11.61A52.5,52.5,0,0,0,123,89.91c-.47-4.64-1.94-8.18-3.14-12.63a159.92,159.92,0,0,1-3.15-20.15c-.24-5.2-2.66-10.64-2.61-12.7.08-3.29-.21-8.87,0-12.1C114.64,20,99.93,19.51,91,19.51Z"/><path class="cls-2" d="M91.52,19c-9-.1-17.89,5.37-23.94,11.76-7.07,7.47-9.32,18.36-13.3,27.6-2.53,5.88-5.11,11.49-6.42,17.8A121.3,121.3,0,0,0,45.81,96c-.45,11.58,6.34,22.16,15.55,28.82s20.44,8.16,31.4,6.81c9.22-1.14,18.31-3.8,23.82-11.8a44.49,44.49,0,0,0,6.55-34.43c-1.1-4.86-2.78-9.5-3.65-14.42-.78-4.4-1.51-8.85-1.89-13.3-.52-6-2.6-11.51-2.69-17.55-.07-4.38.93-10-1.14-14.07-3.84-7.5-15.07-7.36-22.24-7.37-.68,0-1.89,1.62-.93,1.62,6.31,0,14.52-.15,19.52,4.36,5.82,5.25,2,15.2,3.41,22,.89,4.33,2.07,8.35,2.5,12.79.36,3.77,1,7.52,1.59,11.25,1.66,9.7,5.39,18.55,4.72,28.58-.8,12-6.62,24.84-18.76,28.71-9.73,3.11-21.3,3.66-31,.38A39.41,39.41,0,0,1,49.78,107.7c-2.55-5.59-2.47-11.17-2.12-17.17A101,101,0,0,1,49.75,74c1.47-6.48,4.44-12.25,7-18.34,2-4.88,3.82-9.86,5.8-14.76,4.44-11,15.84-20.6,28.14-20.86C91.05,20.06,91.83,19,91.52,19Z"/><path class="cls-1" d="M103.83,24.41c-1.63.5-1.72,2.43-1.72,3.77a23.41,23.41,0,0,1,7.17,1.68c1.09-2.43-4.08-5.2-6-5.53"/><path class="cls-2" d="M104.2,23.89c-2.13.68-2.75,2.6-2.79,4.66,0,.1,0,.28.15.29a26.74,26.74,0,0,1,7.14,1.72c.49.18,1.15-.54,1.29-.93,1.09-3-3.68-5.74-6.1-6-.55-.07-1.93,1.25-1.2,1.47a12.58,12.58,0,0,1,3.74,1.71c1,.67,2.64,1.94,2.14,3.31l1.29-.93a26.5,26.5,0,0,0-5.17-1.43c-.55-.08-1.62.09-1.87-.51a2.73,2.73,0,0,1,.77-2.32c.22-.1,1.06-1.13.61-1Z"/><path class="cls-1" d="M49.72,63.51c.85-1.57,3.13-3.76,4.58-3.76,3.39-.12,5.82,0,8.48,1.72,5.68,3.63,8.3,8.36,12.17,13.8C79.06,81.3,82,88,86.25,94a42.37,42.37,0,0,0,3.29,4.12c.84.92,3.27,2.47,3.43,3.62.44,3.18-5,.85-6.28-.12-2.23-1.76-11.24-14.35-14.4-18.2-1.7-2.07-8.57-11.94-10.4-13.79-.67-.68-2.95-1.81-3.6-2.31s-3.48-1-3.72-.14"/><path class="cls-2" d="M50.11,63.42c2.11-3.25,6.75-3.7,10.19-2.36a19.94,19.94,0,0,1,6.81,5.11,77.9,77.9,0,0,1,9.06,12.57c3,4.85,5.49,10,8.67,14.7a34,34,0,0,0,4.59,5.76c.51.48,1.89,1.2,2.12,1.87.62,1.86-.89,1.4-1.89,1-2.56-.92-4-2.89-5.63-5-2.44-3.06-4.77-6.2-7.13-9.32Q71.44,80.6,66,73.33C64,70.66,57.95,62.85,54.1,67c-.86.93.37.91.95.29s4.55,1.81,5.08,2.18a13.75,13.75,0,0,1,3.13,3.26c2.52,3.28,4.87,6.7,7.36,10,4.61,6.11,9,12.67,14.22,18.31,1.53,1.67,4.34,3.48,6.72,2.93a2.41,2.41,0,0,0,1.82-3.48c-1-2-3.91-3.74-5.3-5.53a76.82,76.82,0,0,1-5.87-9.11A179.08,179.08,0,0,0,71.86,69.35c-3.43-4.74-7.92-9.78-14.14-10.16-4-.24-6.38,1.14-8.47,4.53-.35.56.73-.09.86-.3Z"/><path class="cls-1" d="M89.83,99.47c2.3-5,10.16-4.23,11.85.85s-10.89,10.76-11.37,3.75c0-.36-.24-.85-.24-1.09h.48"/><path class="cls-2" d="M90.42,99.25c3.16-5.62,13.83,0,9.64,4.78a7.79,7.79,0,0,1-5.83,2.51c-2.62-.15-2.8-2-3.32-4.15L90,103.68l.28-.11c.23-.09,1.38-1,.8-1.24l-.39-.16c-.62-.26-1.61.77-1.47,1.37.38,1.57.39,3.16,1.93,4.07A5.5,5.5,0,0,0,95,108c2.9-.58,6.15-2.58,7.31-5.4,1.4-3.41-1.78-6.57-5-7.14a7.5,7.5,0,0,0-8.09,4.22c-.38.79,1-.11,1.17-.44Z"/><path class="cls-2" d="M89.22,103.07c-1,1.71-3.17,1.91-4.72,2.92A6.91,6.91,0,0,0,82,108.92a9.21,9.21,0,0,0,.95,9.86c.47.62,1.49-.72,1.57-1.1.45-2.2,4.69-2.58,6.29-3.83,2.09-1.64,2.81-4.17,3.45-6.63.29-1.1-1.37-.21-1.54.44-.66,2.61-1.48,4.84-4.08,6.11-1,.47-2,.72-3,1.26a5.11,5.11,0,0,0-2.81,3.46l1.57-1.1c-2.77-3.73-2.65-9.14,1.93-11.36a7.15,7.15,0,0,0,3.86-3.41c.32-.67-.83.19-1,.43Z"/><path class="cls-1" d="M95.28,106.36c.85,2.06.6,4,3,5s6.53.73,6.65,4.48c1.81-1.94,2.9-6.17,1.09-8.47-1.21-1.45-6.41-1.45-5.56-3.87"/><path class="cls-2" d="M94.64,106.83c.77,2.54,1,4.5,3.78,5.45,2.48.86,5.44.79,5.78,4,.06.61,1.13-.24,1.24-.38,1.84-2.21,3.21-6,1.68-8.7-1.19-2.13-6-1.63-6-4.27,0-.56-1.18.54-1.25.7-1,2,1.47,2.65,2.92,3.14s2.49.69,3.09,2.14a6.92,6.92,0,0,1-1.42,6.68l1.24-.38c-.23-2.45-1.9-3.28-4.08-3.86-1.25-.33-2.79-.52-3.81-1.4-1.18-1-1.32-2.77-1.9-4.11-.21-.49-1.4.52-1.27.94Z"/><path class="cls-1" d="M117.53,63.18c3.75,0,3.75.6,4.35,2.9.85,2.78-2.3,5.44-2.42,7.86"/><path class="cls-2" d="M117.11,63.64c2.3.31,3.64.41,4.09,2.94.53,3-2.31,5-2.39,7.84,0,.48,1.22-.52,1.29-.84.7-3.09,3.24-5.25,2.3-8.59-.64-2.29-2.2-2.5-4.46-2.27-.25,0-1.12.89-.83.92Z"/><path class="cls-1" d="M121.64,64.87c4.23,2.06,2.9,9.07,1.57,12.58-1.09,3.14-3.14,5.44-5.08,8.1-1.69,2.54-3.27,5.32-5.2,7.86a26.31,26.31,0,0,1-11.49,8.71,1.72,1.72,0,0,1,.73-.24l-2.06-3c-.73-.12,3.14-3,3.63-3.63a34,34,0,0,0,4.11-4.48c3.75-5.32,7-10.4,9.07-15.72.73-1.94,4.72-10.89,1.09-11.73"/><path class="cls-2" d="M121.15,65.33c6.18,3.87,1,14.1-2,18.13-5.26,7.08-8.9,14.56-17.59,18-.51.2-1.36,1.74-.34,1.4l.73-.24c.44-.15,1.37-.87,1-1.42s-2.15-2.44-2.05-3c0-.31,2.76-2.11,3.25-2.57,4.36-4.08,7.68-9.21,10.57-14.4,1.27-2.28,9.36-17.29,3.9-18.55-.46-.11-1.67,1-1.09,1.3,4.36,2.43-3.36,15.94-4.79,18.41a53.91,53.91,0,0,1-9.28,12.5c-1.31,1.23-3.15,2.31-4,3.91-.11.2-.22.46-.06.66.77,1,1.44,2.09,2.15,3.14l1-1.42-.73.24-.34,1.4c9.5-3.79,13.86-12.14,19.48-20.08,3.09-4.37,7.7-14.63,1.28-18.29-.33-.19-1.18.79-1,.91Z"/><path class="cls-1" d="M77.89,47.37a13,13,0,0,1,1.94-7c1.45-2.62,5.87-7.59,9.68-5.12C91.95,36.79,92.89,45,93,47.25a27.07,27.07,0,0,1-.73,6.94c-.6,2.27-3,2.62-5.32,2.5a10,10,0,0,1-6.65-2.5,5.88,5.88,0,0,1-1.69-2.71A16,16,0,0,1,77.89,47.37Z"/><path class="cls-2" d="M78.53,47a14.5,14.5,0,0,1,3.16-8.4c1.66-2,4.89-4.58,7.44-2.36,2.19,1.91,2.6,6.2,3,8.87.58,4.07.93,11.27-4.77,10.89-5.51-.36-8.08-3.92-8.8-9.11-.07-.5-1.29.52-1.29,1,0,6.51,5.69,11.32,12.32,9.21,5-1.58,4.32-8.77,3.84-12.91-.51-4.34-1.48-12.37-7.78-10-5.37,2-8.3,8.33-8.38,13.68C77.24,48.26,78.5,47.42,78.53,47Z"/><path class="cls-1" d="M102.2,55.53a3.58,3.58,0,0,1-2.12-2.47,43.15,43.15,0,0,1-.87-10.42,13.21,13.21,0,0,1,2.36-6.54c.93-1.48,4.79-1.82,5.26-1.52,4,2.54,5.17,8.75,4.81,13.72-.27,4.2-5.53,8.49-9.43,7.22Z"/><path class="cls-2" d="M102.84,54.93c-3-1.83-2.7-7-2.76-10.12-.06-3.34,1.67-12.31,6.82-9,2.55,1.62,3.52,5.59,3.86,8.38.21,1.73.47,4.44-.28,6.15-1,2.36-4.74,5.82-7.73,4.57-.48-.2-1.63,1.07-1.09,1.29,4.1,1.72,9-2.73,10.34-6.3,1.5-4.11.31-14-4.47-15.94-3.43-1.36-6.6,1.55-7.9,4.33-1.52,3.25-1.44,6.59-1.14,10.1.25,3,.28,6.32,3.18,7.81C102.09,56.39,103.21,55.16,102.84,54.93Z"/><path class="cls-2" d="M86.36,43c-1.93-1.82-5.78,5.14-1.61,6.75,2.89,1,4.28-2.36,4-4.71-.11-1-.54-2.25-1.5-2.57-.54-.32-2.14-.11-1.82.32"/><path class="cls-2" d="M86.9,42.57c-.24-.91-1.46-.52-2-.2a5.66,5.66,0,0,0-2.17,2.48c-1.09,2.22-.83,5.53,2.22,5.84s4.86-3.23,4.68-5.86c-.1-1.43-.65-3-2.22-3.34-1-.19-2.79.26-2.83,1.55a.32.32,0,0,0,.19.35l.1,0c.34.1.78-.32,1-.54-.49.57.21.2.64.34a1.77,1.77,0,0,1,1,1,4.59,4.59,0,0,1,.38,2.14c-.07,1.85-1.36,3.66-3.26,2.13a3,3,0,0,1-.72-3.29,3.41,3.41,0,0,1,.89-1.64c.42-.32.61-.16,1.12-.1.3,0,1.08-.58,1-.92Z"/><path class="cls-2" d="M104.7,41.7c-2.38-.52-4.44,6.82-.1,6.72,2.27-.1,3-2.79,2.48-4.55-.41-1.14-2.56-2.84-3-2.22"/><path class="cls-2" d="M105.2,41.12c-3.39-.73-5.76,6.77-2.19,8,2.66.9,5-1.76,5.1-4.2a3.81,3.81,0,0,0-1.49-3.34c-.85-.73-1.84-1.3-2.78-.39-.22.22-.55.61-.45,1s.8.33,1.08.48a4.12,4.12,0,0,1,1.74,1.86c.56,1.47-.22,3.8-2.13,3a2.52,2.52,0,0,1-1.17-2.71c.06-.64.34-2.53,1.3-2.44.4,0,1.45-1.06,1-1.16Z"/><path class="cls-2" d="M108.55,66.32c0,.09-2.72,3.08-2.72,3.08-4,5.26,3.08,18.23-8,18.69-5.53.18-8.71-4.17-12.16-7.71-1.36-1.45-8.16-9.71-6.17-11.52l-2.18-.73c1.09,0,2.18.73,3.18,1.09a25,25,0,0,0,5.17,1.09,34.26,34.26,0,0,0,8.62-.09,49.79,49.79,0,0,0,10.34-2.09,17.35,17.35,0,0,0,4.08-2.09"/><path class="cls-2" d="M108.08,66.14c-1.91,2.51-3.86,3.68-4.36,7-.55,3.61,1,8.94-1.17,12.09-2,2.88-6.74,2-9.3.56s-4.73-4-6.71-6.21c-1.35-1.49-7.75-8.39-6.24-10.37.24-.32.43-1.1-.11-1.28L78,67.23l-1.09,1.89c2.87.53,5.38,1.84,8.35,2.18a36.32,36.32,0,0,0,8.25,0c5.3-.61,11-1.38,15.51-4.5,1-.67.66-2.23-.56-1.45C103.86,68.27,98,69,92.67,69.46a33.27,33.27,0,0,1-7.85-.29c-2.47-.39-4.63-1.56-7-2C77,67,75.63,68.7,76.69,69l2.18.73-.11-1.28c-2.45,3.2,3,9,4.9,11.29C87.47,84.4,92.33,90,99,88.92c4.64-.75,6.37-4.38,6.49-8.73.07-2.73-.44-5.56.09-8.26.46-2.36,2.2-3.53,3.48-5.42.64-.94-.44-1-1-.36Z"/><path class="cls-1" d="M89.68,84.23c2.09-1.44,6.08-2.48,8-.4.64-1.36,3.63-2.18,5.08-1.63,2.63,1.09,0,4.26-1.72,5C97.94,88.37,91.86,87,90,84.42Z"/><path class="cls-2" d="M89.63,84.74c2.29-.94,5.13-2.14,7.26-.18.44.41,1.18,0,1.46-.41a3.38,3.38,0,0,1,3-1.18c1.8.34,1.26,2.24.15,3-1.4,1-3.41.81-5,.53A11.87,11.87,0,0,1,92.28,85c-.73-.45-1.35-1.35-2.26-1.36-.37,0-1.09.58-.95,1,.83,2.43,4.3,3.34,6.56,3.71,2.7.44,5.47.24,7.48-1.78,1.38-1.39,2.75-4.16.26-5.23-2.08-.89-5.21.36-6.39,2.17l1.46-.41c-2.54-2.23-6.69-1.31-9,.83C89,84.3,88.89,85,89.63,84.74Z"/><path class="cls-1" d="M82.82,186.68c0,3.39,1.69,5.56.48,8.71-1.69,4.35-5.81,6.29-10.16,6.53-3.14.24-15.85-.73-15.6-5.08"/><path class="cls-2" d="M82.13,187.17c.29,5.07,2.23,9.31-3.25,12.63-2.38,1.44-5.51,1.46-8.21,1.31-3.48-.2-11.3-.52-12.45-4.78-.17-.63-1.32.55-1.37.87-.78,5.33,12.47,5.67,15.64,5.49a13.39,13.39,0,0,0,9.42-4.18c3.54-4,1.86-7.6,1.59-12.35,0-.48-1.4.44-1.37,1Z"/><path class="cls-1" d="M96.24,183.65c2.66,3.75-3.63,12.22,3.87,15.6,8,3.39,17.54.48,21.65-6.29"/><path class="cls-2" d="M95.66,184.2c1.74,3.17-.52,7.21-.07,10.62.52,3.93,3.9,5.56,7.49,6.27,7,1.38,16.23-1.46,19.39-8.35.42-.91-1-.16-1.17.08-3.08,3.37-5.93,5.94-10.62,6.78-3.77.67-9.29.37-12.13-2.57-3.77-3.92.87-9.68-1.71-13.92-.2-.34-1.42.65-1.17,1.1Z"/><path class="cls-1" d="M92.7,98.57a3.17,3.17,0,0,1,.82,3.26"/><path class="cls-2" d="M92.21,99A3.48,3.48,0,0,1,93,102.2c0,.2.4-.07.42-.08a1.47,1.47,0,0,0,.52-.59,3.2,3.2,0,0,0-.78-3.42c-.22-.23-1.21.68-1,.92Z"/><path class="cls-1" d="M98.48,97.53a4.9,4.9,0,0,1,.18,6"/><path class="cls-2" d="M97.89,98.08a4.88,4.88,0,0,1,1,2.71,6.8,6.8,0,0,1-.81,3c-.25.64.57.22.78,0A5.06,5.06,0,0,0,99.07,97c-.3-.33-1.46.72-1.17,1.1Z"/><path class="cls-1" d="M104.11,97.53c1.63-3.08,5.44-5.62,7.62-8.35a46.14,46.14,0,0,0,9.43-20"/><path class="cls-2" d="M104.5,97.44c1.84-2.91,4.64-4.84,6.92-7.35A40.56,40.56,0,0,0,115.89,84a46.49,46.49,0,0,0,5.83-15.11c.1-.5-1,.33-1.11.67a51.37,51.37,0,0,1-7.48,17.16c-2.82,4-7,6.79-9.49,11-.34.58.73-.09.86-.3Z"/><path class="cls-1" d="M54.21,61.43c4.35-.18,8.35,2.18,11.25,5.08"/><path class="cls-2" d="M53.74,62c4.54,0,7.78,2.34,11.23,5,.25.2,1.17-.66,1-.91a14.53,14.53,0,0,0-11.27-5.16c-.41,0-1.21,1.06-.94,1.07Z"/><path class="cls-1" d="M50.22,64.51c1.09-.91,2.36-.73,3.63-.36"/><path class="cls-2" d="M50.25,64.83c.91-.69,2.14-.4,3.17-.2.3.06,1.18-.85.86-1a4,4,0,0,0-4.09.52c-.14.11-.64.53-.53.75s.46,0,.6-.11Z"/><path class="cls-1" d="M83.42,92.63c.73,2.72,3.63,5.62,5.44,7.44"/><path class="cls-2" d="M82.91,93a11.08,11.08,0,0,0,2.08,4,13.89,13.89,0,0,0,3.32,3.53c.37.22,1.35-.66,1.12-1a27.35,27.35,0,0,0-2.94-3.24,13.72,13.72,0,0,1-2.56-4.08c-.12-.32-1.1.48-1,.8Z"/><path class="cls-1" d="M83.6,114.95c-1.09-4.35,2.72-6.17,6-7.08"/><path class="cls-2" d="M84.24,114.47c-.35-1.67-.15-3.27,1.3-4.35a17.21,17.21,0,0,1,3.79-1.72c.22-.09,1.27-1.21.65-1.11-4,.61-8,3.79-7,8.12.11.47,1.38-.47,1.28-.95Z"/><path class="cls-1" d="M103.2,107.87a3.06,3.06,0,0,1,1.81,2.72"/><path class="cls-2" d="M102.77,108.35a2.54,2.54,0,0,1,1.16,1.11c.28.51.3,1.11.56,1.61.18.34,1-.69,1.06-.9a3,3,0,0,0-.53-1.73,2.41,2.41,0,0,0-1.4-1c-.3-.09-1.17.82-.86,1Z"/><path class="cls-1" d="M63.1,35.84c2.9-6.35,7.8-9.62,13.06-13.61"/><path class="cls-2" d="M63.55,35.63a26.39,26.39,0,0,1,6.31-8.06c2.07-1.82,4.45-3.29,6.45-5.19.24-.23.58-.87,0-.51C70.7,25.2,65.39,30.1,62.66,36.05c-.27.59.76-.17.89-.42Z"/><path class="cls-1" d="M102.11,13.89c3.45,0,6.89,0,9.8,2"/><path class="cls-2" d="M101.68,14.37c3.43,0,6.71.23,9.77,1.94.28.16,1.11-.73.93-.86-2.88-2.09-6.41-2.08-9.83-2-.37,0-1.08,1-.87,1Z"/><path class="cls-1" d="M49.92,96C45,89.18,35.4,72.13,32.26,67.29,29,62,27.42,55.8,24.27,50.48A76,76,0,0,1,21,43.34c-1.45-3.39-1.69-5.2,1.33-7.62,1.33-1,2.69-2.33,4.35-1.94l3.63,1.69c0,1.94,1.94,3.75,2.66,5.44a74.61,74.61,0,0,0,3.51,7.86,49.45,49.45,0,0,0,6,8c2.3,2.54,3.87,5,6.77,6.77,1.69,1.09,4.23,3.63,6.29,3.63"/><path class="cls-2" d="M50.34,95.56C39.88,80.36,31.18,63.74,23.5,47c-1-2.09-2.43-4.56-2.73-6.88-.38-2.91,2.92-6.12,5.84-5.51a9.48,9.48,0,0,1,1.66.77c1.65.77,1.59,1.92,2.48,3.47,1.53,2.67,2.61,5.39,3.92,8.17,2.33,4.95,6,9,9.62,13.09,2.47,2.81,6.86,7.13,10.77,7.67.54.08,1.58-1.23,1.09-1.29-4.2-.59-8.74-5.43-11.35-8.47-3.71-4.32-7.25-8.39-9.51-13.69a46.54,46.54,0,0,0-2.68-5.76c-.75-1.26-1.12-3-2-3.9a5.61,5.61,0,0,0-6.08-1c-1.92,1-4.4,2.94-5,5.12-1,3.38,2.09,8.17,3.54,11,2.61,5.15,4.65,10.56,7.31,15.68,1.47,2.83,3.28,5.51,4.92,8.25,4.56,7.61,8.89,15.47,14.25,22.55.12.16,1-.57.86-.8Z"/><path class="cls-1" d="M23.91,36.21C13,34.75,1.41,21.69,9,10.44c1.45-2.54,6.17-6.89,9.8-5.81,4.72,1.45,2.9,6,4.72,9.25,1.81,3.63,4,1.27,6.17,4.9,1.09,1.81,1.45,8,1.45,10.16,0,1.81-1.45,4-1.81,5.81"/><path class="cls-2" d="M24.44,35.59A21.59,21.59,0,0,1,9,24.24a13.72,13.72,0,0,1-1-10.6C9.42,9.72,14.35,3.41,19.13,5.76c2.79,1.37,2.27,4.74,3,7.23s1.95,3.19,4.07,4.23c3.42,1.68,3.63,4.94,3.92,8.39s-.64,6-1.59,9.35c-.32,1.14,1.42.25,1.61-.43.56-2,1.68-3.88,1.85-6a25.73,25.73,0,0,0-.24-4.44c-.35-3.68-.73-6.73-4.3-8.43-4.93-2.35-2.72-5.92-5.15-9.7-1.56-2.42-4.48-2.66-7-1.67C9.17,6.77,4.94,14.24,6,20.76c1.31,8.36,9.36,14.82,17.42,16.06.49.08,1.51-1.15,1-1.23Z"/><path class="cls-1" d="M29.84,32.7a11.11,11.11,0,0,0,1.94-3.27c1.09-2.3-.48-4.48,0-6.77s2.9-5.08,4.11-7c1.33-2.42,2.18-4.48,1.33-7.26-1.45-4.48-7.14-4.84-7.74.24-.24,2.3-1.33,8.35-5,7"/><path class="cls-2" d="M30.13,32.74a10.09,10.09,0,0,0,2.63-4.67,10.14,10.14,0,0,0,0-2.54c-.06-2.67,0-4.22,1.45-6.51,2.23-3.55,5.7-7.63,3.41-12.07-1.38-2.68-4.6-3.64-7-1.63-2.06,1.75-2.06,10.5-5.55,9.65-.55-.13-1.67,1.2-1.12,1.33,6.71,1.69,5-12,9.75-10.44,6.91,2.3.67,10.69-1.35,14.16a8.41,8.41,0,0,0-1.42,4.16,18.92,18.92,0,0,0,.35,2.38c.28,2.54-.48,4.14-1.84,6.22-.46.71.46.22.7,0Z"/><path class="cls-1" d="M16.77,35.36a19.07,19.07,0,0,0-3.14-1.57,11.35,11.35,0,0,1-5.81-6c-.6-1.09-.73-2.3-1.81-3.14-1.45-1.09-2.78-.73-3.75-2.78A27.4,27.4,0,0,1,.81,14.19C.69,10.44,2.26,5.36,7.22,7.54,11.33,9.23,9,15.76,12.3,18.67"/><path class="cls-2" d="M17.23,34.94c-1.83-1.39-4.08-2.05-5.8-3.61S9.06,28,8,26a6.25,6.25,0,0,0-2.8-2.79C2.77,21.8,2.28,19.62,1.85,17A14.14,14.14,0,0,1,1.8,10.7c1-3.14,4.43-4,6.46-1.12s.62,7,3.36,9.72c.43.42,1.75-.8,1.35-1.26C10.07,14.68,12,7.85,6.84,6.52,3.61,5.69,1.31,8.18.51,11.07c-1.1,4-.6,11.09,3.22,13.28C6.66,26,6.88,28.72,8.92,31.22s4.65,3.27,7.4,4.56c.26.12,1.09-.7.9-.84Z"/><path class="cls-1" d="M15,6.81C16,3.91,24-2.26,26.21,2.46c1.21,2.42-1.57,5.08-2.3,7.38-.48,1.94-.48,6.53,2.18,7"/><path class="cls-2" d="M15.43,6.6a11.07,11.07,0,0,1,6.35-5,3.05,3.05,0,0,1,3.33.78c1.44,1.74,0,3.88-.89,5.51-1.3,2.36-2.76,9,1.38,9.48.29,0,1.37-.89,1-1.07-1.94-1.07-2.36-3.28-2.19-5.35s1.33-3.41,2.12-5.18c.93-2.08,1-5-1.73-5.69-3.8-.93-9.15,3.69-10.39,7-.16.42.88-.34,1-.53Z"/><path class="cls-1" d="M7.7,7.9C6.37,3.67,15.57-.81,16.29,4.15c.6,3.27-.12,9.56,2.42,12.34"/><path class="cls-2" d="M8.2,7.52C7.58,3.39,15,.24,15.67,5.42c.46,3.66-.44,8.79,2.37,11.69.42.43,1.68-.75,1.34-1.25-2-3-1.87-6.61-2.12-10.09-.15-2-.32-4.21-2.74-4.46C11.29,1,6,4.64,7.21,8.29c.1.3,1-.48,1-.77Z"/><path class="cls-1" d="M19.68,22.3c4,.12,7,5.2,7,8.71"/><path class="cls-2" d="M19.26,22.76c4.22.45,6.49,4.86,6.91,8.65,0,.32,1-.49,1.06-.82.17-3.86-3.08-8.59-7.12-8.77-.33,0-1.08.91-.84.94Z"/><path class="cls-1" d="M19.8,40.08c3,.77,6.29-.24,9.07-1.69,1.69-.85,5.32-4,3.27-6.17s-4.28,1.22-7.86,2.18c-2.87.76-7.2-.45-7.44,1.72C16.84,36.11,15.66,39,19.8,40.08Z"/><path class="cls-2" d="M19.29,40.68c4.48,1,10.35-.92,13.13-4.71,2.19-3,.42-6.18-3.22-4.62-1.35.58-2.52,1.48-3.92,2a16.42,16.42,0,0,1-4.88.61c-1.47.08-3.06.2-4,1.53-1.62,2.36.29,4.94,2.85,5.22.32,0,1.51-.92,1.11-1.15-.86-.49-3.93-2-2.79-3.62.77-1.13,5.41-.42,6.83-.85,1.81-.54,6.29-4.31,7.23-1.41.67,2.07-2,3.81-3.66,4.61a13,13,0,0,1-7.7,1.23C19.86,39.41,18.83,40.57,19.29,40.68Z"/><path class="cls-1" d="M92.95,67.57a23.43,23.43,0,0,0,10-3.72"/><path class="cls-2" d="M92.52,68.08c3.54.33,8.11-1.54,10.67-3.94.36-.34.52-1.15-.22-.8a46.93,46.93,0,0,1-5.16,2.31A41,41,0,0,0,93,67.13c-.14.07-.94.91-.49.95Z"/><path class="cls-1" d="M80.88,32.21c2.36-2,2.54-2,5.44-3,.82-.27,2.27-.36,2.9-.91a5.3,5.3,0,0,0,1.09-3.08C89.23,20.78,78.86,28.74,77.86,31l1.69,1.45Z"/><path class="cls-2" d="M80.91,32.52A16,16,0,0,1,87.1,29.6,4.44,4.44,0,0,0,90,28c1.09-1.53,1.78-4.52-.8-4.78-2.4-.24-5.1,1.71-6.94,3s-4,2.91-5.08,5c0,.09-.09.33,0,.41,1.43,1.13,1.61,1.48,3.33,1.09.3-.07,1.23-1.1.73-1-1,.14-1.4.21-2.09-.71s-.34-.67.57-1.57a19.45,19.45,0,0,1,6.76-4.48c3.57-1.24,4.1,2.61.73,3.5A14.34,14.34,0,0,0,80.71,32C80.28,32.43,80.23,33,80.91,32.52Z"/><path class="cls-1" d="M154.3,123.82c-7.53,7.94-10.92-9.51-5.15-8.65"/><path class="cls-2" d="M154.26,123.49c-1.26.89-2.53,2.13-4.18,1.42a5,5,0,0,1-2.38-3c-.47-1.3-1.53-6.15,1-5.88.74.08,2-1.59,1-1.72-4.43-.53-4.69,5.58-3.73,8.42.55,1.63,1.62,3.46,3.43,3.85,2.11.45,4.29-1.21,5.41-2.85.35-.52-.12-.49-.47-.24Z"/><path class="cls-1" d="M159.18,121c.49,4.21-5.49,3.87-7.55,1.76-1.53-1.9-2.82-7.24,0-8.68"/><path class="cls-2" d="M158.51,121.49c.19,3.17-4.7,2.19-6.13.57-1.67-1.9-2.27-5.8-.46-7.7.24-.25.76-1.1,0-.9-4.25,1.11-3.3,8.63-.3,10.57s8.6.9,8.23-3.53c0-.48-1.38.46-1.34,1Z"/><path class="cls-1" d="M159.86,115.22c.16.37,1.86,2.47,1,4.24-1.87,4.26-8.34-.28-7.94-4.26"/><path class="cls-2" d="M159.39,115.66c.06.15.08.47.14.66a11.51,11.51,0,0,1,.79,2c.3,2-1.26,2.39-2.77,1.78a6.47,6.47,0,0,1-2.64-2.1,8.88,8.88,0,0,1-1.25-3.31c-.19-.64-1.26.49-1.36.73-1.25,3,3.21,6.83,6.06,6.48a4.24,4.24,0,0,0,3.25-2.67,3.53,3.53,0,0,0-.08-2.75,5.31,5.31,0,0,0-.65-1.22c-.15-.18-.46-.35-.55-.49s-1.06.59-.94.88Z"/><path class="cls-1" d="M160.29,114.88c-2.18,2.38-7.92,1-8.83-2.07,0,0-1.49-5.41,5.88-4.19"/><path class="cls-2" d="M160,114.61c-2.13,2-7.27.2-7.83-2.59-.61-3,2.5-2.85,4.67-2.59.6.07,1.79-1.46,1.09-1.58-3.41-.59-8.08.72-7.38,5.07s7.32,4.88,10,2.24c.72-.71.24-1.26-.51-.55Z"/></svg>