<?xml version="1.0" encoding="utf-8"?>
<!-- Generator: Adobe Illustrator 19.0.0, SVG Export Plug-In . SVG Version: 6.00 Build 0)  -->
<svg version="1.1" id="Warstwa_1" xmlns="http://www.w3.org/2000/svg" xmlns:xlink="http://www.w3.org/1999/xlink" x="0px" y="0px"
	 width="288px" height="509.5px" viewBox="0 0 288 509.5" enable-background="new 0 0 288 509.5" xml:space="preserve">
<g>
	<defs>
		<rect id="SVGID_1_" width="288" height="509.5"/>
	</defs>
	<clipPath id="SVGID_2_">
		<use xlink:href="#SVGID_1_"  overflow="visible"/>
	</clipPath>
	<path clip-path="url(#SVGID_2_)" fill="#10069F" d="M173.3,246.2c11.2-13,33.4-46.1,40.6-55.5c7.5-10.3,11.7-22.6,19-32.9
		c3.1-4.7,5.2-9,7.8-14c3.5-6.7,4.3-10.3-1.5-15.7c-2.6-2.2-5.1-5.2-8.5-4.6l-7.7,2.9c-0.3,3.9-4.5,7.3-6.3,10.6
		c-2.6,5-5,10.5-8.4,15.4c-3.9,5.9-8.8,10.4-13.6,15.3c-5.1,4.8-8.7,9.5-14.9,12.7c-3.6,1.9-9.2,6.7-13.4,6.4"/>
	<path clip-path="url(#SVGID_2_)" fill="#0D0487" d="M174.2,246.3c13.2-14.7,24.2-31.3,35.8-47.4c5.3-7.4,10.4-14.6,14.6-22.7
		c6.4-12.3,16.5-24.5,20.7-37.8c2.3-7.2-3.3-16.7-11.2-17.5c-4-0.4-10.1,2.2-12.9,5c-2.7,2.7-4.8,7.9-6.8,11.4
		c-3.9,6.6-6.5,13.5-11.5,19.5c-4.6,5.6-10.1,10.9-15.4,15.8c-4.3,3.9-13.2,11-19.4,11.5c-2,0.2-6.4,5.7-3.5,5.4
		c6.3-0.5,12.2-5,17.2-8.3c6.8-4.4,12.3-10.7,18-16.4c5.4-5.5,10.2-11.2,13.9-18c3.9-7,9.9-14.2,12-22c-1.3,1.4-2.6,2.7-3.9,4.1
		c5.3-2,7.7-4,12.7,0c9.4,7.4,4.1,15.1-0.7,23.7c-7.5,13.4-14.8,27.9-23.7,40.3c-12.8,17.8-24.5,36.6-38.2,53.7
		C170.2,248.9,173.5,247.1,174.2,246.3"/>
	<path clip-path="url(#SVGID_2_)" fill="#10069F" d="M235.9,128.8c22.4-1.2,48.1-25.9,34.5-50c-2.5-5.4-11.4-15-19-13.4
		c-9.8,2.2-6.9,11.7-11.1,18.1c-4.3,7.1-8.3,1.9-13.3,9c-2.5,3.5-4.3,16-4.6,20.4c-0.3,3.7,2.3,8.4,2.8,12.1"/>
	<path clip-path="url(#SVGID_2_)" fill="#0D0487" d="M235.1,130.1c15.7-1.2,31.3-11.3,37.9-25.8c6.3-13.8,0.7-34.9-15-40
		c-5.3-1.7-10.9,0.3-14,4.9c-1.3,1.9-1.8,4-2.4,6.2c-1.8,6.4-5.3,9.2-10.9,12.2c-4.8,2.5-6.7,7.3-7.9,12.2c-1,4-1.8,8.3-2.1,12.5
		c-0.3,4.9,1.7,9.1,2.6,13.9c0.3,1.6,3.8-0.9,3.5-2.4c-1.3-6.4-3-11.4-2-17.9c0.5-3,0.8-6.5,1.9-9.4c1.6-4.2,5.3-5.4,8.7-7.5
		c7.4-4.6,6.6-9.4,10-16.6c5.8-12.3,17.5-1.2,21.6,4.5c4,5.6,6.2,12.5,5.5,19.4c-1.7,17.4-19.3,29.6-35.7,31.2
		C235.8,127.6,233.7,130.2,235.1,130.1"/>
	<path clip-path="url(#SVGID_2_)" fill="#10069F" d="M224.4,120.7c-1.5-2.4-2.6-4.2-3.4-7c-1.8-4.9,1.7-9,1.1-13.8
		c-0.6-4.5-5.1-10.8-7.2-14.9c-2.3-5.1-5.5-9.5-3.3-15c3.7-8.9,17.1-8.7,17.5,1.7c0.1,4.7,1.4,17.2,9,15.1"/>
	<path clip-path="url(#SVGID_2_)" fill="#0D0487" d="M225.5,119.7c-3.7-7.1-2.5-10.3-1.9-17.8c0.3-3.6-0.8-6.4-2.4-9.6
		c-1.9-3.7-4.2-7.2-6-11c-1.1-2.3-2.5-4.6-2.5-7.2c0-3.9,5.3-10,9.8-8.7c9.3,2.8,1.3,24.7,14.6,22.7c1-0.2,3.2-3,1.8-2.8
		c-10.8,1.5-5.7-16.4-11.1-21.2c-4.2-3.8-10.6-2-14.4,1.4c-6.6,6.1-3.7,13.7,0,20.6c3.8,7.2,7.4,11.6,6.5,19.9
		c-0.7,6.4-0.7,10,3.4,15.4C223.8,122.3,225.8,120.4,225.5,119.7"/>
	<path clip-path="url(#SVGID_2_)" fill="#10069F" d="M245.8,126.1c2.1-1.3,9.3,0.3,11.4-0.6c6.1-2.5,9.6-5.7,12.8-11.4
		c1.4-2.1,1.9-4.6,4.2-6.1c3.1-2,5.8-1,8.1-5.1c2.1-4.5,3.6-10.4,4.2-15.3c0.9-7.6-1.5-18.2-12-14.6c-8.6,2.8-5,16.4-12.1,21.8"/>
	<path clip-path="url(#SVGID_2_)" fill="#0D0487" d="M245.2,127c5.3-1.2,9.3,1,14.3-1.5c4.2-2.1,7.7-5.3,10.3-9.2
		c2.8-4.2,5.2-6.1,9.2-9.2c0.9-0.7,1.9-1.2,2.8-2c3.7-3.7,4.9-10.7,5.8-15.6c1.3-7.4,0.4-19.8-10-18.3c-12.5,1.8-8.7,16.2-15.8,23.2
		c-1.6,1.6-0.5,2.8,1.2,1.3c4.4-3.8,4.6-8.3,6.4-13.3c1.5-4.1,7.9-10.2,12.5-6.7c1.5,1.1,2.2,3.3,2.6,5c1.2,4.3,0.6,8.8-0.4,13.1
		c-1.3,6.1-3.1,9-7.9,12.4c-1.9,1.4-3.4,1.9-5,3.9c-4.6,6-5.7,13.8-16,14.5c-3.2,0.2-6-0.5-9,0.8C246,125.5,244.4,127.2,245.2,127"
		/>
	<path clip-path="url(#SVGID_2_)" fill="#10069F" d="M258.9,70.5c-1.7-6.1-17-19.9-22.2-10.7c-2.9,4.7,2.4,10.6,3.5,15.4
		c0.7,4-0.1,13.4-5.6,13.9"/>
	<path clip-path="url(#SVGID_2_)" fill="#0D0487" d="M260,69.6c-1.8-7-12.9-17.4-20.6-13.6c-3.6,1.8-5.5,5.7-4.8,9.6
		c0.6,3.6,3,6.5,3.9,9.9c0.9,3.5,0.8,10.7-3.3,12.4c-0.4,0.2-2.6,2.3-1.3,2.2c8.8-0.3,9.2-13.8,6.7-19.6c-1.2-2.8-6.3-10.9,0-12.5
		c2.4-0.6,6,1.6,7.8,2.8c3.7,2.5,7.7,6.3,9.6,10.5C258.1,71.9,260.2,70.3,260,69.6"/>
	<path clip-path="url(#SVGID_2_)" fill="#10069F" d="M273.5,73.9c3.4-8.4-14.6-19-16.9-9c-1.8,6.5-1.3,19.5-6.9,24.7"/>
	<path clip-path="url(#SVGID_2_)" fill="#0D0487" d="M274.5,73.2c3-7.4-7.5-16.1-14.6-13.3c-3.7,1.5-4.8,5.1-5.4,8.7
		c-1.2,7-1.1,14.8-5.7,20.6c-1.4,1.7,0.3,2,1.6,0.9c6.5-5.6,5.9-16,7.3-23.7c0.5-2.6,1.2-4.6,4.3-4.2c2,0.3,3.9,1.3,5.6,2.4
		c3,2.2,6,5.8,5,9.8C272.3,75.3,274.3,73.7,274.5,73.2"/>
	<path clip-path="url(#SVGID_2_)" fill="#10069F" d="M246.8,101.2c-8.1-0.4-15.1,9.4-15.7,16.6"/>
	<path clip-path="url(#SVGID_2_)" fill="#0D0487" d="M248.5,99.3c-5.2-0.4-9.8,2.9-13.1,6.5c-3.2,3.4-6.8,8.8-6.5,13.7
		c0.1,1.5,4.1-2.2,4.3-3c1.6-6.2,4.3-12.9,11.8-13.3C246.3,103.1,249.6,99.3,248.5,99.3"/>
	<path clip-path="url(#SVGID_2_)" fill="#10069F" d="M243.7,137.4c-6.3,1.1-12.8-1.5-18.2-4.9c-3.3-2-10.2-9-5.6-13.1
		c4.3-3.9,8.5,3.2,15.6,5.7c5.7,2,14.7,0.2,14.9,4.7C250.3,129.8,252.3,135.9,243.7,137.4"/>
	<path clip-path="url(#SVGID_2_)" fill="#0D0487" d="M244.5,136.1c-7.5,0.6-16-2.5-21.2-8.1c-0.9-1-1.8-2-2.3-3.2
		c-0.6-1.5-1.1-4.4,1.6-4.8c1.8-0.3,5.4,3.4,6.9,4.3c4.5,2.9,8.7,3,13.8,3.7c6.6,0.9,7,5.3,0.9,8.1c-0.4,0.2-2.9,2.5-1.4,2.4
		c4.9-0.1,10.6-4.5,9.2-9.9c-0.9-3.2-3.8-3.5-6.8-3.9c-6.9-0.9-10.9-2.5-16.8-6.2c-2.9-1.8-5.4-2.8-8.4-0.7c-2.3,1.6-3.8,4.2-3.2,7
		c1.9,10.1,17.5,15,26,13.7C243.7,138.5,245.8,136,244.5,136.1"/>
	<path clip-path="url(#SVGID_2_)" fill="#10069F" d="M30.7,471.8c-3,8.1,3.4,11.8,7.6,17.4c4.1,5.4,7.8,10.1,14.2,12.8
		c5.7,2.4,14.9,5.7,22.4,5.7c9.1,0,16.5-1.3,23.6-4c9.3-3.5,10.9-5.9,10.9-12.7c0-6.9-5.5-10.4-13.4-9.5"/>
	<path clip-path="url(#SVGID_2_)" fill="#0D0487" d="M74.9,509.5c-7.5,0-16.6-3.2-23-5.8c-6.7-2.8-10.6-7.5-15-13.4
		c-0.9-1.2-2-2.4-3-3.5c-3.6-3.9-7.6-8.3-4.9-15.6l3.4,1.3c-1.9,5.2,0.6,8,4.1,11.9c1.1,1.2,2.2,2.4,3.2,3.8
		c4.2,5.6,7.6,9.8,13.5,12.2c6,2.5,14.7,5.5,21.6,5.5h0.1c8.8,0,16.1-1.3,22.9-3.9c8.8-3.4,9.7-5.2,9.7-11c0-2.4-0.8-4.3-2.3-5.7
		c-2-1.8-5.2-2.5-9.1-2.1l-0.4-3.6c4.9-0.6,9.1,0.5,11.9,3c2.3,2,3.5,4.9,3.5,8.4c0,7.9-2.3,10.7-12,14.4
		C91.8,508.1,84.2,509.5,74.9,509.5L74.9,509.5z"/>
	<path clip-path="url(#SVGID_2_)" fill="#10069F" d="M113.1,460.4c0.4,1.7-0.9,3.8-0.5,5.8c0.3,1.3,1.5,2.8,2.7,3.7
		c2.7,2,6.8,2.1,9.7,3.7c6.9,3.8,13.1,7.4,20.7,9.7c7.4,2.2,17.5,2.5,25.2,2c11.6-0.7,17-2.5,23.7-6.1c4.8-2.6,5.8-3.2,8-6.5
		c2.3-3.2,0.8-3.7,0.7-7.7c0-5.7-5-10.8-9.5-14c-8.1-5.9-17.6-8.1-27.5-7.6c-3.1,0.2-5.9,1.7-9,2c-3.3,0.3-6.5,0.8-9.7,1.7
		c-4.9,1.3-10.1,2.6-14.7,4.6c-3.1,1.3-6.1,2.4-8.9,4.1c-2,1.2-4.1,3.6-6.5,3.9"/>
	<path clip-path="url(#SVGID_2_)" fill="#0D0487" d="M164.4,487.4c-5.6,0-13-0.4-19.2-2.3c-7.5-2.3-13.7-5.7-20.2-9.4l-0.8-0.5
		c-1.1-0.6-2.5-1-4-1.4c-2-0.6-4.2-1.1-5.9-2.5c-1.4-1-2.9-2.9-3.3-4.7c-0.3-1.5,0-2.8,0.3-3.9c0.2-0.7,0.3-1.4,0.2-1.9l3.5-0.8
		c0.3,1.3,0,2.5-0.2,3.5c-0.2,0.9-0.4,1.7-0.2,2.3c0.2,0.8,1.1,1.9,2,2.6c1.2,0.9,2.9,1.4,4.7,1.9c1.6,0.4,3.3,0.9,4.8,1.7l0.8,0.5
		c6.7,3.7,12.4,6.9,19.5,9.1c6,1.8,15.2,2.5,24.6,2c11.6-0.7,16.7-2.5,23-5.9c4.6-2.5,5.4-2.9,7.4-5.9c1.1-1.5,1-1.9,0.8-3.3
		c-0.2-0.8-0.3-1.9-0.4-3.4c0-5.4-5.5-10.2-8.7-12.5c-7.3-5.3-16.4-7.8-26.3-7.2c-1.4,0.1-2.8,0.5-4.3,0.9c-1.5,0.4-3,0.9-4.6,1
		c-3.5,0.3-6.5,0.8-9.4,1.6l-1.2,0.3c-4.5,1.2-9.1,2.4-13.2,4.2c-0.7,0.3-1.5,0.6-2.2,0.9c-2.3,0.9-4.5,1.8-6.5,3.1
		c-0.5,0.3-1.1,0.8-1.8,1.3c-1.6,1.2-3.4,2.6-5.5,2.8l-0.4-3.6c1.1-0.1,2.4-1.1,3.7-2.1c0.7-0.5,1.4-1.1,2.1-1.5
		c2.3-1.4,4.7-2.4,7-3.3c0.7-0.3,1.4-0.6,2.1-0.9c4.4-1.9,9.1-3.1,13.7-4.4l1.2-0.3c3.2-0.8,6.4-1.4,10-1.7c1.3-0.1,2.6-0.5,3.9-0.9
		c1.6-0.5,3.3-1,5.1-1.1c10.8-0.6,20.7,2.1,28.7,7.9c3.8,2.8,10.2,8.4,10.2,15.4c0,1.2,0.2,2,0.3,2.7c0.4,2,0.5,3.4-1.3,6
		c-2.6,3.7-3.9,4.4-8.7,7c-6.6,3.6-12.2,5.6-24.5,6.4C169.5,487.3,167.2,487.4,164.4,487.4"/>
	<path clip-path="url(#SVGID_2_)" fill="#10069F" d="M103.9,305.1c5.4,10.9,9.4,21.3,12.3,32.6c2.8,10.6,3.3,21.4,5,32.6
		c1.7,11,1.6,22.2,2.2,34c0.3,5.8,0.1,12.6,4.9,16.8c4.8,4.3,12,6.2,15.3-0.2c2.4-4.7,0.4-12.4,0.1-17.4c-0.3-5.9,1.2-11.2,1.5-16.7
		c0.5-11.8,0.7-23.3,2.9-34.8c4.2-22.3,11.3-43.9,21.9-64.5c4.7-9.2,12.5-17.4,16.7-26.7c3.9-8.7-1.4-9.8-9.5-13.2
		c-7.1-2.9-13.5-6-21.2-6.6c-7.3-0.5-14.4,1.8-21.6,1.5"/>
	<path clip-path="url(#SVGID_2_)" fill="#0D0487" d="M137.3,427c-3.3,0-6.9-1.6-10.1-4.4c-4.9-4.3-5.2-10.8-5.4-16.4l-0.1-1.7
		c-0.2-3.2-0.3-6.4-0.4-9.5c-0.3-8.4-0.6-16.4-1.8-24.3c-0.6-3.8-1-7.5-1.4-11.1c-0.9-7.4-1.7-14.3-3.5-21.3
		c-2.9-11-6.8-21.3-12.2-32.3l3.2-1.6c5.5,11.2,9.5,21.7,12.5,33c1.9,7.2,2.7,14.3,3.6,21.8c0.4,3.6,0.9,7.3,1.4,11
		c1.2,8.1,1.5,16.2,1.8,24.7c0.1,3.1,0.2,6.3,0.4,9.5l0.1,1.7c0.2,5.2,0.4,10.5,4.2,13.9c2.9,2.6,6.3,3.9,8.8,3.4
		c1.6-0.3,2.8-1.3,3.7-3c1.5-3,0.9-7.8,0.4-12c-0.2-1.6-0.4-3.1-0.4-4.4c-0.2-3.7,0.3-7.1,0.8-10.4c0.3-2.2,0.6-4.3,0.7-6.4
		c0.1-1.7,0.1-3.4,0.2-5.1c0.4-10.3,0.8-20,2.7-30c4.4-23.1,11.8-44.9,22.1-65c2.3-4.4,5.2-8.6,8-12.6c3.3-4.7,6.5-9.2,8.6-14
		c1.1-2.5,1.4-4.3,0.9-5.4c-0.7-1.8-3.7-3-7.5-4.5c-0.7-0.3-1.3-0.5-2-0.8c-1-0.4-2-0.8-3-1.2c-5.8-2.4-11.3-4.7-17.6-5.2
		c-3.6-0.2-7,0.2-10.7,0.7c-3.5,0.5-7.1,1-10.9,0.8l0.2-3.6c3.4,0.2,6.7-0.3,10.2-0.7c3.7-0.5,7.5-1,11.5-0.7
		c6.9,0.5,12.7,2.9,18.8,5.5c1,0.4,2,0.8,3,1.2c0.7,0.3,1.4,0.5,2,0.8c4.6,1.8,8.2,3.3,9.5,6.5c0.9,2.2,0.6,4.8-1,8.3
		c-2.3,5.1-5.7,9.9-9,14.6c-2.8,3.9-5.6,8-7.7,12.2c-10.1,19.7-17.4,41.3-21.7,64c-1.8,9.7-2.2,19.3-2.7,29.5
		c-0.1,1.7-0.1,3.4-0.2,5.1c-0.1,2.3-0.4,4.6-0.7,6.8c-0.4,3.1-0.9,6.4-0.7,9.7c0.1,1.2,0.2,2.7,0.4,4.2c0.6,4.8,1.2,10.1-0.8,14.1
		c-1.4,2.7-3.5,4.4-6.2,5C138.5,426.9,137.9,427,137.3,427"/>
	<path clip-path="url(#SVGID_2_)" fill="#10069F" d="M122,427.6c-9.4,4.4-12.2,21.3-10.9,30.4c1.7,12.5,12.2,11.1,21.2,16.5
		c16.5,9.8,50.9,12.4,67.9-3.4c7.7-7.2,2.8-13.7,2.9-23.9c0.1-12.4-9.3-13.9-20.5-19.4c-11-5.5-21.3,0.2-31.7,2.9
		c-5.4,1.4-9.5,2.6-15.2,1.2c-5.3-1.3-9.9-5.4-15.3-2.9"/>
	<path clip-path="url(#SVGID_2_)" fill="#0D0487" d="M165.7,484.3c-13.1,0-26.1-3.3-34.3-8.2c-2.6-1.5-5.3-2.5-7.9-3.4
		c-6.3-2.2-12.8-4.5-14.1-14.3c-1.2-8.8,1-27.2,11.9-32.3l0.4,0.8c3.7-0.9,7.1,0.5,10.1,1.8c1.5,0.6,3,1.3,4.6,1.7
		c5.1,1.2,8.7,0.3,13.7-1.1l0.6-0.2c2.1-0.6,4.3-1.3,6.4-1.9c8.4-2.7,17.2-5.6,26.6-0.9c2,1,3.9,1.8,5.8,2.7
		c8.5,3.8,15.8,7,15.7,18.4c0,3,0.4,5.6,0.8,8.2c0.9,5.9,1.8,11.4-4.3,17C192.4,480.9,179,484.3,165.7,484.3 M121.1,430.2
		c-6.8,5-9.4,18.9-8.2,27.6c1.1,7.7,5.6,9.2,11.8,11.4c2.8,1,5.7,2,8.6,3.7c15.1,9,49.1,12.4,65.8-3.2c4.6-4.3,4.1-8.1,3.2-13.8
		c-0.4-2.6-0.9-5.5-0.8-8.8c0.1-9-5.3-11.4-13.5-15c-1.9-0.8-3.9-1.7-5.9-2.7c-8.1-4-15.8-1.6-23.9,1.1c-2.1,0.7-4.4,1.4-6.6,2
		l-0.6,0.2c-5.1,1.4-9.5,2.5-15.5,1.1c-1.8-0.4-3.5-1.2-5.1-1.8c-3.2-1.4-6-2.6-8.9-1.2L121.1,430.2z"/>
	<path clip-path="url(#SVGID_2_)" fill="#10069F" d="M124.9,434.6c-2.7-3.7-5-9.6-7.1-13.7c-2.7-5.3-4.6-7.6,0.4-13.1
		c6.9-7.6,20.3-10,29.9-10c5.6,0,9.3,0.7,12.1,5.9c4.1,7.6,2.5,17.2-2.7,20.1c-8.8,5-16.7,3.4-25.9,7.4c-3,1.3-0.6,1.7-3.8,2.7
		L124.9,434.6z"/>
	<path clip-path="url(#SVGID_2_)" fill="#0D0487" d="M124.1,436.6l-0.7-0.9c-2-2.8-3.8-6.7-5.4-10.1c-0.6-1.4-1.2-2.7-1.8-3.8
		l-0.7-1.3c-2.4-4.6-4.1-7.9,1.3-13.8c8.9-9.8,26.1-10.5,31.2-10.5h0c5.5,0,10.3,0.5,13.7,6.9c4.5,8.3,2.8,19-3.4,22.6
		c-5,2.8-9.8,3.7-14.4,4.4c-3.8,0.6-7.6,1.3-11.6,3.1c-0.7,0.3-0.9,0.5-0.9,0.5c-0.5,1.2-1.3,1.7-3.1,2.3l-0.2,0.1L124.1,436.6z
		 M148.1,399.7c-9.7,0-22.2,2.5-28.5,9.4c-3.7,4-3,5.3-0.8,9.7l0.7,1.4c0.6,1.2,1.2,2.5,1.9,3.9c1.3,2.9,2.8,6.2,4.4,8.6l1.6-0.3
		c0.4-0.1,0.7-0.2,0.8-0.3c0.4-0.9,1-1.6,2.7-2.3c4.4-2,8.5-2.7,12.5-3.3c4.5-0.8,8.8-1.5,13.3-4c4.1-2.3,5.9-10.6,2-17.7
		C156.4,400.4,153.7,399.7,148.1,399.7L148.1,399.7z"/>
	<path clip-path="url(#SVGID_2_)" fill="#10069F" d="M131.2,433.1c-5.6,8.5,0.2,20.6,6.9,26.9c8.3,7.8,22,8.8,33.2,8.2
		c9.2-0.6,23.3-3.1,28.1-12.5c5-9.7,0.2-22.8-6.9-29.7c-8.9-8.6-19.8-11.6-32.1-10.7C143.1,416.5,131.2,433.1,131.2,433.1"/>
	<path clip-path="url(#SVGID_2_)" fill="#0D0487" d="M165.7,470.2c-12.9,0-22.6-3-28.8-8.8c-10.6-10-11.6-22.5-7.2-29.2l0-0.1
		c0.5-0.7,12.5-17.4,30.6-18.6c13.7-0.9,24.7,2.7,33.5,11.2c7.8,7.5,12.6,21.5,7.3,31.8c-5.4,10.5-20.9,12.9-29.6,13.5
		C169.5,470.1,167.6,470.2,165.7,470.2 M132.7,434.2c-5.1,7.8,0.8,19,6.7,24.5c6.4,6,17.1,8.6,31.8,7.7c6.4-0.4,21.9-2.3,26.6-11.5
		c4.6-8.9,0.3-21-6.6-27.6c-8-7.7-18.1-11.1-30.7-10.2C144.5,418.2,133.2,433.5,132.7,434.2"/>
	<path clip-path="url(#SVGID_2_)" fill="#10069F" d="M58.3,266.9c1,4.7,0,9.7,0.5,14.5c0.3,3.5,1.6,7.1,2,10.6
		c0.8,8.4,0,15.9-1.9,23.8c-3.6,14.9-4.8,30.8-7.8,45.8c-2.8,14.1-5,28.8-7.1,43c-1.2,7.6-2.1,14.9-3.9,22.2c-1.8,7-5,15.8-3.8,23.1
		c6.5,2.3,16.4,0.7,23.1,0.1c6.3-0.6,6.3-2.8,6.6-8.8c0.4-8,0.4-16.4,2.1-24.1c4.1-17.6,12.8-35.5,19.6-52.2
		c7.4-18.4,15-36.7,25.9-53.5c4.8-7.5,9.8-15.3,15.5-22.3c5-6.1,8.3-8.5-1-12.1c-6.3-2.4-13.4-2.5-19.9-4.4
		c-6.2-1.7-11.2-3.5-17.8-2.5c-7.8,1.1-11.9,7.6-18.8,8.8c-1-2.6-3.6-4.3-4.4-6.7"/>
	<path clip-path="url(#SVGID_2_)" fill="#0D0487" d="M44.9,453c-3.4,0-6.7-0.3-9.4-1.3l-1-0.4l-0.2-1.1c-1-6.3,1-13.4,2.7-19.6
		c0.4-1.5,0.8-2.9,1.1-4.2c1.5-6.1,2.4-12,3.4-18.4l1.5-9.8c1.9-12.2,3.8-24.9,6.2-37c1.3-6.6,2.3-13.4,3.3-20
		c1.3-8.5,2.5-17.4,4.6-25.9c2-8.4,2.6-15.6,1.8-23.2c-0.2-1.6-0.5-3.3-0.9-5.1c-0.4-1.8-0.8-3.7-1-5.5c-0.2-2.2-0.2-4.4-0.1-6.5
		c0.1-2.8,0.2-5.4-0.4-7.8l3.5-0.7c0.6,2.9,0.5,5.8,0.4,8.7c-0.1,2.1-0.1,4.1,0.1,6c0.2,1.6,0.5,3.3,0.9,5.1c0.4,1.8,0.8,3.7,1,5.5
		c0.8,8,0.2,15.6-1.9,24.4c-2,8.3-3.3,17.1-4.5,25.5c-1,6.7-2,13.6-3.3,20.2c-2.4,12-4.3,24.6-6.2,36.8l-1.5,9.8
		c-1,6.4-1.9,12.5-3.4,18.7c-0.3,1.4-0.8,2.8-1.2,4.3c-1.5,5.5-3.3,11.7-2.8,17c5.2,1.4,12.4,0.6,18.3,0c1.1-0.1,2.1-0.2,3.1-0.3
		c4.7-0.4,4.7-1,5-6.8l0-0.2c0.1-1.5,0.1-2.9,0.2-4.4c0.3-6.7,0.5-13.5,2-20c3.1-13.5,8.9-27,14.5-40.1c1.8-4.3,3.5-8.3,5.2-12.4
		c6.9-17.1,14.8-36.4,26-53.8l1.3-2c4.4-6.9,9-14,14.3-20.5c0.5-0.6,1-1.2,1.5-1.8c1.6-1.9,3.2-3.8,3-4.6c-0.1-0.3-0.7-1.3-4.8-2.9
		c-3.4-1.3-7.1-1.9-11-2.5c-2.9-0.5-5.9-1-8.8-1.8L106,274c-5.3-1.5-9.9-2.8-15.5-2c-3.7,0.5-6.4,2.4-9.3,4.3
		c-2.8,1.9-5.7,3.8-9.4,4.5l-1.5,0.2l-0.5-1.4c-0.4-1-1.2-1.9-2-2.9c-1-1.1-2-2.3-2.5-3.9l3.4-1.2c0.3,0.9,1,1.8,1.8,2.7
		c0.6,0.8,1.3,1.6,1.9,2.5c2.4-0.7,4.5-2.1,6.7-3.6c3.1-2.1,6.4-4.3,10.8-4.9c6.4-0.9,11.3,0.5,17,2.1l1.5,0.4
		c2.7,0.8,5.6,1.2,8.4,1.7c3.9,0.6,7.9,1.3,11.7,2.7c4.4,1.7,6.4,3.2,6.9,5.3c0.7,2.6-1.2,4.8-3.7,7.8c-0.5,0.5-0.9,1.1-1.4,1.7
		c-5.1,6.4-9.7,13.4-14.1,20.2l-1.3,2c-11.1,17.1-18.8,36.3-25.7,53.2c-1.7,4.1-3.5,8.3-5.2,12.4c-5.5,12.9-11.2,26.3-14.3,39.5
		c-1.4,6.1-1.7,12.8-1.9,19.3c-0.1,1.5-0.1,3-0.2,4.4l0,0.2c-0.3,5.9-0.5,9.5-8.3,10.3c-0.9,0.1-2,0.2-3,0.3
		C52.8,452.5,48.8,453,44.9,453"/>
	<path clip-path="url(#SVGID_2_)" fill="#10069F" d="M35.1,449.6c-1.3-1,1.9-1.9,3.5-3.3c1.2-1.1,3-2.7,3.9-4.3
		c1.8-3.1,2.7-5.9,0.7-9.3c-1.8-3.2-6.2-3.8-8.1-6.4c-2.4-3.4-0.6-7.2,1.9-10.1c9.9-11.1,29.5-12.2,42.9-8.6c7,1.9,13,8,8.9,15.5
		c-1.7,3.2-5,5.3-6.5,8.5c-1.8,3.8-1.2,7.8-2.4,11.6c-2.6,8.1-11.9,15.6-20.7,14.5c-7.8-1-11.4-7.4-19.3-8.2c-2.1-0.2-4-0.7-6.1-0.5
		c0.4,0,0.9,0,1.3,0"/>
	<path clip-path="url(#SVGID_2_)" fill="#0D0487" d="M61,459.7c-0.7,0-1.4,0-2-0.1c-4.3-0.5-7.3-2.5-10.2-4.4
		c-2.8-1.8-5.4-3.5-9.1-3.8c-0.6-0.1-1.2-0.2-1.8-0.2c-1-0.1-1.9-0.3-2.9-0.3l0,0c-0.2,0-0.5,0-0.8,0l-0.1,0L34,451
		c-0.1,0-0.1-0.1-0.2-0.1l-0.1-0.1c-0.7-0.7-0.8-1.4-0.8-1.9c0-0.6,0.3-1.1,0.6-1.5l0-0.2c0.1,0,0.1,0,0.2,0
		c0.5-0.5,1.2-0.9,1.9-1.3c0.6-0.3,1.3-0.7,1.7-1.1c1.6-1.4,2.9-2.8,3.5-3.9c1.9-3.3,2.1-5.2,0.7-7.5c-0.7-1.3-2.2-2.1-3.7-3
		c-1.6-0.9-3.2-1.8-4.2-3.3c-2.5-3.5-1.8-8,2.1-12.3c10-11.2,30.1-13.1,44.7-9.1c5.1,1.4,9.1,4.5,10.7,8.4c1.3,3.1,1.1,6.4-0.7,9.7
		c-0.9,1.7-2.2,3-3.4,4.4c-1.2,1.3-2.4,2.6-3.1,4.1c-0.9,1.9-1.1,3.9-1.4,6.1c-0.2,1.7-0.4,3.5-1,5.3
		C79.1,451.7,70.3,459.7,61,459.7 M39.7,447.7c0.1,0,0.3,0,0.4,0c4.5,0.5,7.6,2.5,10.6,4.4c2.7,1.7,5.3,3.4,8.7,3.8
		c8,1,16.5-6.1,18.7-13.3c0.5-1.5,0.6-3,0.8-4.6c0.3-2.3,0.5-4.7,1.7-7.2c0.9-2,2.3-3.5,3.7-5c1.1-1.2,2.2-2.4,2.9-3.6
		c1.2-2.3,1.4-4.5,0.5-6.6c-1.2-2.8-4.4-5.3-8.4-6.3c-13.6-3.7-32-2.1-41.1,8c-1.5,1.7-3.8,5-1.8,7.8c0.6,0.9,1.8,1.5,3.1,2.2
		c1.8,1,3.9,2.1,5.1,4.3c2.5,4.3,1.1,7.9-0.7,11.1C43,444.7,41.1,446.5,39.7,447.7C39.7,447.7,39.7,447.7,39.7,447.7"/>
	<path clip-path="url(#SVGID_2_)" fill="#10069F" d="M34.1,446.4c-3.1,3.6-4,12.7-4.3,20.1c-0.5,9.5,2.1,12.1,8.1,17.5
		c3.2,2.9,9,11.2,12.2,12.9c7.1,4,12.3,6.5,20.3,7.2c8.2,0.7,24.3-1.4,31.4-5.8c6.5-4,6-3.8,8.1-11.1c4.9-17.5-1.4-38.1-19.7-44.5
		c-10.4-3.6-18.4-1.9-28.9-1.3C56.3,441.7,37.2,442.8,34.1,446.4"/>
	<path clip-path="url(#SVGID_2_)" fill="#0D0487" d="M73.8,506.1c-1.3,0-2.5,0-3.6-0.1c-8.3-0.7-13.7-3.4-21-7.5
		c-2.2-1.2-5-4.5-8-8.1c-1.7-2.1-3.4-4-4.6-5.1c-6.2-5.7-9.2-8.9-8.7-18.9c0.4-8.2,1.3-17.2,4.8-21.1c0.9-1,3.7-4.2,28.4-5.6
		c2-0.1,4-0.3,5.8-0.4c8.1-0.6,15-1.2,23.7,1.8c15,5.2,27.4,23.3,20.8,46.7l-0.4,1.4c-1.8,6.4-2.1,6.8-8.5,10.8
		C96,504.1,82.5,506.1,73.8,506.1 M76.3,442.4c-2.9,0-5.9,0.2-9,0.5c-1.9,0.1-3.9,0.3-5.9,0.4c-22.1,1.2-25.5,3.8-25.9,4.3
		c-3.1,3.6-3.7,14.8-3.9,19c-0.5,8.8,1.9,10.9,7.5,16.1c1.4,1.2,3.1,3.3,4.9,5.4c2.4,2.8,5.3,6.3,7,7.2c7.1,3.9,11.9,6.3,19.6,7
		c8.5,0.7,23.9-1.5,30.3-5.5c5.4-3.4,5.4-3.4,6.9-8.7l0.4-1.4c4.4-15.8-0.5-36-18.5-42.3C84.8,442.9,80.5,442.4,76.3,442.4"/>
	<path clip-path="url(#SVGID_2_)" fill="#10069F" d="M38.4,461.6c-2-17.5,21.4-28.1,35.3-29.5c15.6-1.5,26.4,7.2,31.5,21.7
		c2.3,6.5,4.8,14.3,4.7,21.2c-0.1,8.9-10.3,13.6-17.9,15.4c-16.7,4.1-31.3,2.9-44-10.1C42.1,474.3,38,461.7,38.4,461.6"/>
	<path clip-path="url(#SVGID_2_)" fill="#0D0487" d="M76.4,494.5c-11.8,0-21.2-4.2-29.6-12.8c-5.2-5.3-10-16.6-10.2-20
		c-0.6-5.6,1-10.8,4.9-15.6c7.3-9,21.6-14.8,32-15.8c15.5-1.5,27.7,6.8,33.4,22.9c2.6,7.2,4.9,14.9,4.8,21.9
		c-0.1,11.2-13.5,15.8-19.3,17.2C86.7,493.8,81.4,494.5,76.4,494.5 M40.3,462.2c0.7,2.6,4.3,12.1,9.1,17
		c10.9,11.2,23.9,14.2,42.2,9.6c3.8-1,16.4-4.8,16.5-13.7c0.1-6.5-2.2-13.7-4.6-20.6c-5.2-14.6-15.7-21.9-29.6-20.5
		c-9.6,1-22.9,6.2-29.5,14.5c-3.3,4-4.6,8.4-4.1,13L40.3,462.2z"/>
	<path clip-path="url(#SVGID_2_)" fill="#10069F" d="M72.7,75.6c-11.1,7.5-16,30.3-19.6,42.5c-4.6,15.6-6.1,31.1-7.5,47.4
		c-3,34.7-14,63.7-1.2,97.6c5.7,15.1,11.7,26.8,28.3,32.1c16.4,5.2,34.2,8.1,51.2,4.6c14.2-2.9,32.1-6.8,44.5-14.5
		c10.4-6.5,19-22.5,23.2-33.8c10.9-29.3,7.5-61.1,2.6-93.3c-2.3-15.2-8.6-29.2-9.4-44.9c-0.7-14.9-3.9-29.8-7.5-43.7
		c-4.7-18.1-23.4-22.7-40.8-22c-10.9,0.4-48.9,1.6-53.2,11.6"/>
	<path clip-path="url(#SVGID_2_)" fill="#0D0487" d="M108.4,303.1c-11.1,0-23.2-2.1-36.2-6.2c-17.8-5.7-23.9-18.4-29.4-33.2
		c-9.6-25.3-6.1-47.9-2.4-71.8c1.3-8.6,2.7-17.4,3.5-26.6c1.5-17.8,3.1-32.5,7.5-47.7c0.5-1.6,1-3.5,1.5-5.5
		c3.6-13.2,8.6-31.2,18.8-38l2,3c-9.1,6.1-14,24.1-17.3,36c-0.6,2-1.1,3.9-1.6,5.5c-4.4,14.8-5.9,29.4-7.4,47
		c-0.8,9.3-2.2,18.2-3.5,26.8c-3.6,23.4-7,45.5,2.2,70c5.2,13.9,10.9,25.9,27.1,31c18.8,6,35.7,7.5,50.3,4.5
		c15.8-3.2,32.2-7,43.9-14.3c9.9-6.2,18.3-21.6,22.5-32.9c10.8-29.1,7.2-61.6,2.5-92.4c-0.9-6.3-2.6-12.5-4.3-18.6
		c-2.3-8.5-4.7-17.2-5.2-26.5c-0.6-12.6-2.9-25.9-7.5-43.3c-5-19.1-26.6-21.1-39-20.7l-0.8,0c-38.9,1.4-49,6.5-50.7,10.5l-3.3-1.4
		c2-4.7,9.7-11,53.9-12.7l0.8,0c23.3-0.9,38.5,7.4,42.6,23.4c4.6,17.7,6.9,31.3,7.6,44.1c0.4,8.9,2.8,17.5,5,25.8
		c1.7,6.1,3.4,12.5,4.4,19c4.7,31.3,8.4,64.3-2.7,94.2c-4.6,12.4-13.3,28.1-24,34.7c-12.1,7.6-28.9,11.4-45,14.7
		C119.3,302.6,113.9,303.1,108.4,303.1"/>
	<path clip-path="url(#SVGID_2_)" fill="#0D0487" d="M124.9,163.6c-0.4,5.5,3.8,13.9,6.3,18.8c2.8,5.6,7.6,9.2,12.6,13
		c5,3.8,10.2,3.4,16.4,3.4c3.2,0,5.9-2.6,8.6-4.5c3.2-2.2,1.8-3,1.1-6.3c-1.5-6.5-2.3-13.7-1.5-20.5c-8.4,1.3-16.4,1.4-24.9,0.6
		C140,167.8,124.9,163.6,124.9,163.6"/>
	<path clip-path="url(#SVGID_2_)" fill="#0D0487" d="M156.8,199.9c-4.9,0-9.3-0.3-13.7-3.6c-4.9-3.7-9.9-7.6-12.9-13.4
		c-2.4-4.7-6.8-13.4-6.4-19.3l0.1-1.3l1.2,0.3c0.2,0,15,4.2,18.3,4.5c8.8,0.8,16.7,0.6,24.7-0.6l1.4-0.2l-0.2,1.4
		c-0.7,5.9-0.2,12.7,1.5,20.2c0.2,0.7,0.4,1.3,0.5,1.8c0.7,2.1,1,3.5-2,5.6c-0.5,0.4-1.1,0.8-1.6,1.2c-2.3,1.7-4.7,3.5-7.5,3.5h0
		l-1.8,0C157.9,199.9,157.3,199.9,156.8,199.9 M126,165c0.3,5.3,4.1,12.8,6.2,16.9c2.7,5.4,7.4,8.9,12.3,12.7
		c4.2,3.2,8.5,3.2,14,3.2l1.8,0h0c2.2,0,4.3-1.6,6.3-3.1c0.6-0.4,1.1-0.9,1.7-1.2c1.8-1.3,1.8-1.5,1.2-3.2c-0.2-0.6-0.4-1.2-0.6-2
		c-1.6-7.1-2.2-13.7-1.7-19.5c-7.7,1-15.3,1.2-23.9,0.4C140.4,168.9,129.8,166,126,165"/>
	<path clip-path="url(#SVGID_2_)" fill="#10069F" d="M119.5,157.2c7.9,7.6,18.6,9.8,29.3,10.9c4.8,0.5,9.8,0.7,14.5-0.3
		c3.2-0.6,7.8-2.9,10.5-2.6"/>
	<path clip-path="url(#SVGID_2_)" fill="#0D0487" d="M155.8,170.3c-2.7,0-5.2-0.2-7.2-0.4c-10.8-1.1-21.9-3.2-30.4-11.4l2.5-2.6
		c7.7,7.4,18.1,9.3,28.3,10.4c3.6,0.4,9,0.7,14-0.2c1.1-0.2,2.4-0.7,3.8-1.1c2.5-0.8,5.1-1.7,7.2-1.5l-0.4,3.6
		c-1.3-0.1-3.6,0.7-5.7,1.3c-1.5,0.5-3,1-4.3,1.2C161,170.1,158.3,170.3,155.8,170.3"/>
	<path clip-path="url(#SVGID_2_)" fill="#10069F" d="M154.7,156.5c7.2,0,14.9-0.4,20.7-5.4"/>
	<path clip-path="url(#SVGID_2_)" fill="#0D0487" d="M154.7,158.3v-3.6c6.9,0,14.2-0.4,19.5-5l2.4,2.7
		C170.2,157.9,161.9,158.3,154.7,158.3"/>
	<path clip-path="url(#SVGID_2_)" fill="#10069F" d="M60.1,86.6c1.6-2.4,0.4-6.2,0.7-9.1c0.3-2.9,1.2-5.5,1.8-8.3
		c1.4-6.4,3.2-11.4,6.1-17.4C75.1,39,84.4,27.8,94.9,18.4c8.9-7.9,17.3-14.6,28.9-16.3c12.6-1.9,20.3,4.6,27.6,13.7
		c7.3,9,9.3,23.8,6.4,34.7c-5.1-0.4-10.3-2.9-15.6-3.1c-6.3-0.3-11,1-16.8,2.8c-11.1,3.5-20.8,9-31.4,14.3
		c-5.9,2.9-11.3,6.4-16.8,10c-5.1,3.3-12.3,7.7-15.9,12.8"/>
	<path clip-path="url(#SVGID_2_)" fill="#0D0487" d="M63,88.3l-1.3-0.9c0,0.1-0.1,0.1-0.1,0.2l-3-2c0.7-1.1,0.6-3,0.5-4.8
		c-0.1-1.1-0.2-2.3,0-3.5c0.2-2,0.7-3.9,1.2-5.7c0.2-0.9,0.5-1.9,0.7-2.8c1.4-6.5,3.2-11.7,6.3-17.8c6.1-12.2,15-23.6,26.6-33.9
		c8.8-7.8,17.6-14.9,29.8-16.7c13.9-2.1,22.3,5.7,29.3,14.3c7.2,9,10,23.9,6.8,36.3l-0.4,1.5l-1.5-0.1c-2.6-0.2-5.3-0.9-7.8-1.6
		c-2.7-0.7-5.2-1.4-7.7-1.5c-6.1-0.3-10.5,1-16.1,2.8c-8.6,2.7-16.3,6.7-24.5,10.8c-2.2,1.1-4.4,2.3-6.7,3.4
		c-5.6,2.8-10.6,6-16.6,9.9l-1.5,1C72,80.1,66,84,63,88.3 M128.1,3.6c-1.3,0-2.6,0.1-3.9,0.3c-11.2,1.7-19.3,8.2-28,15.9
		c-11.2,10-19.9,21-25.8,32.8c-2.9,5.9-4.7,10.8-6,17c-0.2,1-0.5,2-0.7,3c-0.5,1.7-0.9,3.4-1.1,5.1c-0.1,0.8,0,1.8,0.1,2.8
		c0.1,0.8,0.1,1.7,0.1,2.5c3.5-3.5,8.2-6.5,12.1-9.1l1.5-1c6.1-4,11.2-7.2,17-10.1c2.3-1.1,4.5-2.2,6.7-3.4
		c8.3-4.2,16.2-8.2,25-11.1c5.8-1.8,10.8-3.2,17.4-2.9c2.9,0.1,5.8,0.9,8.5,1.7c1.9,0.5,3.8,1,5.6,1.3c2.3-10.9-0.3-24-6.5-31.6
		C143.6,9,137.3,3.6,128.1,3.6"/>
	<path clip-path="url(#SVGID_2_)" fill="#10069F" d="M109.1,104.6c0.8-5.8,2.3-10.9,5.1-16.2c1.9-3.5,4.9-8.1,9-9.4
		c11.5-3.8,16.2,10.4,17,18.9c0.6,5.8,2.2,29-2.5,31.8c-4.7,2.8-12.4,3-17.7,2c-5.1-1-10.3-3.6-11.2-8.8
		C107.6,116.9,108.3,110.5,109.1,104.6"/>
	<path clip-path="url(#SVGID_2_)" fill="#0D0487" d="M126.1,134c-2.3,0-4.6-0.2-6.6-0.6c-7.1-1.4-11.7-5.1-12.7-10.2
		c-1.1-6.1-0.4-12.6,0.4-18.8c0.9-6.4,2.5-11.6,5.3-16.8c3-5.6,6.4-9.1,10-10.3c3.8-1.3,7.2-0.9,10.3,1c5.7,3.7,8.5,12.4,9.1,19.3
		c0.5,5,2.7,29.9-3.4,33.5C135.1,133.2,130.5,134,126.1,134 M126.8,80.1c-1,0-2,0.2-3.1,0.6c-2.7,0.9-5.4,3.8-7.9,8.6
		c-2.6,4.8-4.1,9.6-4.9,15.6c-0.8,5.9-1.5,12-0.5,17.7c0.9,4.8,6.5,6.7,9.8,7.3c4.9,1,12.1,0.8,16.5-1.8c2.6-1.5,3-17.1,1.7-30.1
		c-0.6-6.3-3.2-13.9-7.5-16.7C129.6,80.5,128.3,80.1,126.8,80.1"/>
	<path clip-path="url(#SVGID_2_)" fill="#10069F" d="M163.1,81.4c-5.6,6.2-6.6,15-6.8,23c-0.1,7.3-0.1,18,3.1,24.6
		c1.7,0.1,2.8,0.6,4.6,0.5c5.9-0.3,10.2-1.4,14.3-6c3.6-4.1,3.1-9.2,2.4-15c-0.5-4-3.5-20.1-8.3-26.9
		C169.9,77.9,167.1,76.9,163.1,81.4"/>
	<path clip-path="url(#SVGID_2_)" fill="#0D0487" d="M163.6,131.3c-1,0-1.8-0.1-2.5-0.3c-0.5-0.1-1.1-0.2-1.7-0.2l-1.1-0.1l-0.5-0.9
		c-3.2-6.6-3.5-16.6-3.3-25.5c0.2-8.2,1.1-17.4,7.2-24.1h0c2.3-2.5,4.4-3.7,6.5-3.5c2.7,0.2,4.5,2.3,5.6,3.8
		c5.2,7.3,8.2,23.8,8.7,27.8c0.7,5.4,1.4,11.5-2.9,16.4c-4.4,5.1-9.2,6.3-15.5,6.7C164,131.3,163.8,131.3,163.6,131.3 M160.7,127.3
		c0.4,0.1,0.7,0.1,1,0.2c0.8,0.1,1.4,0.3,2.3,0.2c5.6-0.3,9.3-1.3,13-5.4c3-3.4,2.7-7.6,2-13.6c-0.6-4.8-3.6-19.9-8-26.1
		c-1.1-1.5-2-2.3-2.8-2.3c-1-0.1-2.2,0.8-3.6,2.4h0c-5.3,5.8-6.2,14.3-6.3,21.8C158,109.7,157.8,120.5,160.7,127.3"/>
	<path clip-path="url(#SVGID_2_)" fill="#0D0487" d="M140.5,109c0,4.6-3.7,8.3-8.3,8.3c-4.6,0-8.3-3.7-8.3-8.3
		c0-4.6,3.7-8.3,8.3-8.3C136.8,100.7,140.5,104.4,140.5,109"/>
	<path clip-path="url(#SVGID_2_)" fill="#0D0487" d="M132.2,118.4c-5.2,0-9.4-4.2-9.4-9.4c0-5.2,4.2-9.4,9.4-9.4
		c5.2,0,9.4,4.2,9.4,9.4C141.6,114.2,137.4,118.4,132.2,118.4 M132.2,101.8c-4,0-7.3,3.3-7.3,7.3c0,4,3.3,7.3,7.3,7.3
		c4,0,7.3-3.3,7.3-7.3C139.5,105,136.2,101.8,132.2,101.8"/>
	<path clip-path="url(#SVGID_2_)" fill="#0D0487" d="M179.5,107.8c0,4-2.9,7.3-6.6,7.3c-3.6,0-6.6-3.3-6.6-7.3c0-4,2.9-7.3,6.6-7.3
		C176.6,100.5,179.5,103.7,179.5,107.8"/>
	<path clip-path="url(#SVGID_2_)" fill="#0D0487" d="M173,116.1c-4.2,0-7.6-3.8-7.6-8.4c0-4.6,3.4-8.4,7.6-8.4
		c4.2,0,7.6,3.8,7.6,8.4C180.6,112.4,177.2,116.1,173,116.1 M173,101.5c-3.1,0-5.5,2.8-5.5,6.3c0,3.4,2.5,6.3,5.5,6.3
		c3.1,0,5.5-2.8,5.5-6.3C178.5,104.3,176,101.5,173,101.5"/>
	<path clip-path="url(#SVGID_2_)" fill="#10069F" d="M110.4,55.8c-5.4-1.6,3.8-29.2,5.3-33.7c4-11.3,8.8-23.2,22.9-16.6
		c7.5,3.5,12,9.6,15.7,16.9c2.9,5.8,5.2,19.4,2,25.7c-8.3,0.6-12.5-1.9-21-1c-8.5,0.8-17.9,5.5-24.6,9.8"/>
	<path clip-path="url(#SVGID_2_)" fill="#0D0487" d="M111.8,58.4l-1.4-2.2l-0.4,1.3c-0.7-0.2-1.6-0.7-2.2-1.9
		c-3.3-6.4,5.4-31.3,6.4-34.1c3-8.4,6.1-16.1,12.5-18.7c3.7-1.5,8-1.2,12.9,1.1c6.9,3.2,12,8.7,16.5,17.7c3.1,6.3,5.5,20.4,2,27.4
		l-0.5,0.9l-1,0.1c-4.2,0.3-7.4-0.1-10.5-0.6c-3.2-0.4-6.3-0.9-10.4-0.5C126,49.8,115.7,55.8,111.8,58.4 M131.3,5.4
		c-1.2,0-2.3,0.2-3.4,0.7c-5,2.1-7.8,9-10.5,16.6c-5.2,14.7-8.3,29.7-6.5,31.4l-0.2,0.6c5.4-3.4,15-8.5,24.5-9.4
		c4.6-0.4,8,0,11.3,0.5c2.7,0.4,5.4,0.7,8.6,0.6c2.2-6.1,0.2-17.9-2.4-23.2c-4.1-8.2-8.7-13.2-14.8-16C135.5,6,133.3,5.4,131.3,5.4"
		/>
	<path clip-path="url(#SVGID_2_)" fill="#10069F" d="M194.2,161.2c2,1,4.6,4.8,6.5,6.6c2.6,2.4,4.5,5.8,5.8,9
		c2.3,5.6,2.5,12.2,0.5,17.8c-4.1,11.4-13,23.3-22.9,30.1c-6.9,4.7-12,6.4-19.2,10.9c4.1-2.7-2.3,2.3,0.4-1.8
		c2.7-4.2,8.3-9.1,15.9-17c7.4-7.7,13.4-15.2,15.6-25.7c0.9-4.6,0.8-10.7,0.1-15.3c-0.7-4.3-1.5-8.6-2.3-13"/>
	<path clip-path="url(#SVGID_2_)" fill="#0D0487" d="M164.7,237.2c-0.4,0-0.9-0.1-1.3-0.5c-1.6-1.3-0.3-3.3,0.2-4
		c1.9-2.9,5-6,9.3-10.3c2.1-2.1,4.4-4.4,6.9-7c7.9-8.2,13.1-15.3,15.1-24.8c0.8-4,0.9-9.8,0.1-14.6c-0.3-2.1-0.7-4.2-1.1-6.4
		c-0.4-2.2-0.8-4.4-1.2-6.6l0.7-0.1c0,0,0,0,0,0l1.6-3.2c1.6,0.8,3.1,2.6,4.7,4.4c0.8,1,1.6,1.9,2.3,2.5c2.4,2.2,4.5,5.5,6.2,9.6
		c2.5,6,2.6,13.1,0.5,19.1c-4.3,11.9-13.6,24-23.6,30.9c-3.9,2.7-7.2,4.4-10.6,6.1c-2.2,1.1-4.5,2.3-7,3.8c-0.2,0.2-0.8,0.6-1.5,0.9
		c0,0-0.1,0.1-0.1,0.1l0,0C165.4,237.1,165.1,237.2,164.7,237.2 M197,166.5c0.1,0.8,0.3,1.6,0.4,2.4c0.4,2.1,0.8,4.3,1.1,6.4
		c0.9,5.3,0.8,11.5-0.1,16c-2.2,10.4-7.7,17.9-16,26.6c-2.5,2.7-4.9,5-6.9,7.1c-2,2-3.8,3.8-5.3,5.4c0.9-0.5,1.7-0.9,2.6-1.3
		c3.3-1.7,6.5-3.3,10.2-5.9c9.5-6.5,18.2-17.9,22.2-29.2c1.9-5.2,1.7-11.3-0.4-16.5c-1.5-3.7-3.3-6.5-5.4-8.3
		C198.7,168.4,197.9,167.5,197,166.5"/>
	<path clip-path="url(#SVGID_2_)" fill="#10069F" d="M46.7,149.3c-2.4-0.1-11.1,4.6-13,6.2c-2.4,2.1-4.6,4.7-6.2,7.6
		c-2.8,5.3-3,11.1-3,17c0,11.6,1.3,21.5,6.9,31.5c1.6,2.9,4.2,6.3,6.8,8.3c0.8-12.2-2-23.8,4.4-34.8c6.7-11.4,19.1-8.8,29.3-5.1
		c4.8,1.7,9.9,5.4,14.1,8.1c4.8,3,10,9.2,14,13c8.3,7.9,12.8,15,21.9,21.8c4.3,3.3,8.8,6.9,13.8,9.3c3.6,1.7,10.2,5.4,13.8,4.4
		l-0.7-5.1c-5.3-0.8-15.4-13.1-18.5-17.8c-3.3-4.9-21-27.7-25.2-32.1c-2.7-2.9-6.1-6.1-10-9.2c-3.9-3.1-8.8-5.6-12.3-7.2
		c-14.2-6.6-23.4-6.8-38.8-2.2c1.3,0.3,0.7,0.8,1.5,0.4"/>
	<path clip-path="url(#SVGID_2_)" fill="#0D0487" d="M148.3,238.6c-3.6,0-8.2-2.3-11.8-4c-0.5-0.3-1-0.5-1.5-0.7
		c-4.5-2.1-8.5-5.2-12.4-8.2l-1.7-1.3c-5.7-4.3-9.6-8.6-13.8-13.2c-2.5-2.8-5.2-5.7-8.3-8.7c-1.2-1.1-2.4-2.4-3.8-3.8
		c-3.1-3.2-6.7-6.9-9.9-8.9c-1.1-0.6-2.2-1.4-3.3-2.1c-3.3-2.2-7.1-4.6-10.5-5.8c-10.1-3.6-21.2-5.9-27.2,4.3
		c-4.4,7.4-4.2,15.3-4.1,23.6c0.1,3.4,0.1,6.8-0.1,10.4l-0.2,3.4l-2.7-2c-3-2.3-5.7-6.1-7.3-8.9c-6.3-11.2-7.1-22.2-7.1-32.4
		c0-6.2,0.2-12.3,3.2-17.9c1.5-2.9,3.8-5.8,6.6-8.1c1.8-1.5,10.7-6.6,14.1-6.6c0.1,0,0.1,0,0.2,0l-0.2,3.6c-1.6,0-9.8,4.1-11.7,5.7
		c-2.4,2.1-4.4,4.6-5.7,7.1c-2.6,4.9-2.8,10.2-2.8,16.2c0,9.7,0.8,20.2,6.7,30.6c0.8,1.5,2.1,3.4,3.6,5.1c0-2,0-4.1,0-6.1
		c-0.2-8.5-0.3-17.2,4.6-25.5c8.3-14.1,25.2-8.1,31.5-5.9c3.8,1.4,7.8,3.9,11.3,6.2c1.1,0.7,2.2,1.4,3.2,2c3.6,2.2,7.3,6.1,10.6,9.5
		c1.3,1.3,2.5,2.6,3.7,3.7c3.2,3.1,5.9,6.1,8.5,8.9c4,4.5,7.8,8.7,13.2,12.8l1.7,1.3c3.7,2.8,7.6,5.8,11.8,7.8
		c0.5,0.2,1,0.5,1.5,0.8c2.6,1.3,6.7,3.3,9.4,3.6l-0.3-2c-6.8-2.5-16.6-15.5-18.4-18.2c-3.4-5.2-21-27.7-25-31.9
		c-3.1-3.3-6.4-6.3-9.8-9c-2.9-2.3-6.8-4.6-12-7c-13-6-21.6-6.7-36.1-2.5l0.4,0.6c-0.4,0.2-1.5,0.8-2.6-0.2c0,0,0,0-0.1,0l-6.4-1.6
		l6.3-1.9c16.1-4.9,25.9-4.3,40.1,2.3c5.4,2.5,9.6,5,12.7,7.5c3.5,2.8,6.9,5.9,10.1,9.4c4.4,4.6,22.3,27.7,25.4,32.4
		c3.8,5.6,13.2,16.3,17.3,17l1.3,0.2l1.1,8l-1.6,0.4C149.5,238.5,148.9,238.6,148.3,238.6"/>
	<path clip-path="url(#SVGID_2_)" fill="#10069F" d="M147.4,238.8c-6.4,1.3-15.3,7.1-11.6,14.9c1.7,3.5,3.4,5.1,3.6,9.4
		c0.2,4-1.5,6.3-3.6,9.4c9.1,1.6,17.8-7.9,14.9-16.3c-1.3-3.7-3.8-7.7-2-11.6c0.7-1.5,3.9-2.3,2.2-5c-1.2-2-4.7-1-6.5-0.3"/>
	<path clip-path="url(#SVGID_2_)" fill="#0D0487" d="M137.8,274.4c-0.8,0-1.5-0.1-2.3-0.2l-2.8-0.5l2-3c1.8-2.7,3-4.4,2.8-7.6
		c-0.2-2.7-1-4.1-2.1-6.1c-0.4-0.8-0.9-1.7-1.4-2.7c-1.4-2.9-1.4-5.9,0-8.6c1.8-3.7,5.9-6.4,9.9-7.9l-0.2-0.4
		c4.1-1.6,7.2-1.2,8.7,1.1c1.9,3.1-0.4,5.1-1.4,6c-0.3,0.2-0.7,0.6-0.7,0.7c-1.1,2.4,0,5,1.1,7.8c0.3,0.8,0.7,1.6,0.9,2.5
		c1.5,4.4,0.4,9.4-3,13.3C146.4,272.4,142.1,274.4,137.8,274.4 M147.7,240.1l0.1,0.4c-3.9,0.8-8.7,3.4-10.4,6.8
		c-0.9,1.8-0.9,3.5,0.1,5.5c0.4,0.9,0.9,1.7,1.3,2.4c1.2,2.1,2.3,4.1,2.5,7.7c0.2,3.3-0.8,5.6-2.1,7.8c2.8-0.4,5.5-1.9,7.6-4.2
		c2.5-3,3.4-6.6,2.3-9.8c-0.3-0.7-0.6-1.5-0.9-2.3c-1.3-3.2-2.8-6.9-1.1-10.7c0.4-0.9,1.1-1.5,1.7-2c0.3-0.2,0.8-0.7,0.9-0.9
		c0,0,0-0.1-0.2-0.4C149.3,240.2,148.6,240,147.7,240.1"/>
	<path clip-path="url(#SVGID_2_)" fill="#10069F" d="M166.6,237c5.9,1.4,10.6,5.2,9.7,11.5c-0.9,6.1-2.8,11.3-0.6,17.5
		c1.3,3.8,2.2,4.9-2.3,5.1c-2.8,0.1-8-0.4-10.2-2.4c-4.2-3.8-1.3-11.7,1.1-15.7c1.5-2.5,2.9-4.1,2.5-7.2"/>
	<path clip-path="url(#SVGID_2_)" fill="#0D0487" d="M172.8,272.8c-3.1,0-8.2-0.6-10.7-2.9c-5.2-4.7-1.8-13.8,0.8-18l0.6-0.9
		c1.2-1.9,1.9-3.1,1.7-5.2l3.6-0.4c0.3,3.4-0.9,5.4-2.3,7.5l-0.5,0.9c-2.2,3.6-4.6,10.5-1.4,13.4c1.5,1.4,5.7,2.1,8.9,2
		c0.8,0,1.2-0.1,1.5-0.1c-0.1-0.4-0.3-1-0.5-1.5l-0.4-1c-1.9-5.3-1-10-0.2-14.6c0.2-1.2,0.5-2.5,0.6-3.7c0.9-6.6-5.5-8.8-8.3-9.5
		l0.8-3.5c7.8,1.8,12,7,11.1,13.5c-0.2,1.3-0.4,2.6-0.7,3.9c-0.8,4.5-1.5,8.3,0,12.7l0.4,1c0.7,2,1.3,3.5,0.4,4.9
		c-0.9,1.4-2.9,1.6-4.6,1.6C173.3,272.8,173.1,272.8,172.8,272.8"/>
	<path clip-path="url(#SVGID_2_)" fill="#10069F" d="M156.5,233c8.6-9.6,21.1,13.6,7.2,19.1c-11.4,4.6-25.1-8.5-17-19.5
		c4.6-6.3,8.7-1.4,13,1.1"/>
	<path clip-path="url(#SVGID_2_)" fill="#0D0487" d="M158.9,254.8c-5.4,0-10.5-2.9-13.3-6.6c-4-5.1-4.1-11.5-0.3-16.7
		c4.3-5.9,8.8-3.8,12.1-1.6c2-1.2,4.1-1.4,6.3-0.6c4.5,1.7,8.1,7.6,8.1,13.4c0.1,5.1-2.6,9.1-7.3,11
		C162.6,254.5,160.7,254.8,158.9,254.8 M151.5,231.3c-1.1,0-2.2,0.7-3.4,2.4c-4.1,5.5-1.2,10.4,0.3,12.3c3,3.9,9,6.7,14.6,4.4
		c4.2-1.7,5.1-5.1,5.1-7.6c0-4.3-2.7-8.9-5.8-10.1c-0.7-0.2-1.3-0.3-1.9-0.2l-1.6,2.7c-0.8-0.5-1.7-1-2.5-1.6
		C154.3,232.2,152.8,231.3,151.5,231.3"/>
	<path clip-path="url(#SVGID_2_)" fill="#10069F" d="M47.4,181.2c-26.5,10.2-46,139.5-18.2,137.8c9.3-0.6,10-19.7,12.5-25.5
		c3.4-8.1,7.8-16.1,12.2-23.9c5.1-9.1,9.3-18.7,14.4-27.7c4.3-7.7,10-13.6,14.7-20.9"/>
	<path clip-path="url(#SVGID_2_)" fill="#0D0487" d="M28.7,320.8c-4.5,0-10.2-2.9-13-16c-3.6-16.3-1.8-44.6,4.4-72.1
		c3.2-14.2,12.2-47.7,26.7-53.2l1.3,3.4c-19.5,7.5-36.1,88-28.8,121.2c1.3,6.2,4.3,13.5,9.9,13.1c5.4-0.3,7.5-10,9-17.1
		c0.6-3,1.2-5.5,1.9-7.2c3.5-8.2,8-16.4,12.2-24.1c2.5-4.5,4.8-9.2,7.1-13.7c2.3-4.6,4.7-9.4,7.2-14c2.5-4.5,5.5-8.4,8.4-12.1
		c2.2-2.8,4.4-5.7,6.3-8.8l3.1,1.9c-2,3.2-4.3,6.2-6.5,9.1c-2.8,3.7-5.7,7.5-8.1,11.7c-2.5,4.5-4.9,9.2-7.2,13.8
		c-2.3,4.6-4.6,9.3-7.2,13.9c-4.2,7.6-8.6,15.7-12.1,23.7c-0.6,1.4-1.1,3.9-1.7,6.6c-1.8,8.2-4.2,19.5-12.3,20
		C29.1,320.8,28.9,320.8,28.7,320.8"/>
	<path clip-path="url(#SVGID_2_)" fill="#10069F" d="M14,310.9c-2.8-17.5,30.1-25.2,31.2-5.1"/>
	<path clip-path="url(#SVGID_2_)" fill="#0D0487" d="M12.3,311.2c-0.9-5.6,1.4-10.9,6.3-14.6c6-4.5,14.7-5.8,20.7-3
		c4.7,2.2,7.4,6.5,7.7,12.2l-3.6,0.2c-0.2-4.4-2.2-7.5-5.6-9.1c-4.9-2.3-12-1.2-17,2.6c-2.3,1.7-5.9,5.4-5,11.2L12.3,311.2z"/>
	<path clip-path="url(#SVGID_2_)" fill="#10069F" d="M111.2,56c7.7-5.8,35-16.8,44.5-22c8.7-4.8,18.9-9.2,27.5-14
		c7.8-4.4,31.6-14.7,36.4-1.2c4,11-8.8,22.6-17.4,27.9c-5.6,3.5-11.9,6.3-17.9,9.3c-4,2-8.9,5.2-13,5.8c0.2-5.7-11.7-11.1-16.4-12.3
		c-7.4-1.8-16.4-2.5-23.6-2.5h0.8"/>
	<path clip-path="url(#SVGID_2_)" fill="#0D0487" d="M169.5,64l0.1-2.2c0.1-3.9-9.8-9.2-15-10.5c-6.4-1.6-14.9-2.5-23.2-2.5v-1.5
		c-8.1,3.8-15.7,7.5-19.2,10.1l-2.2-2.9c4.9-3.7,17.3-9.3,28.2-14.3c6.6-3,12.9-5.9,16.4-7.8c4.3-2.3,8.9-4.6,13.4-6.8
		c4.8-2.3,9.7-4.7,14.1-7.2C183.1,18,203,7,214.5,11.3c3.3,1.2,5.6,3.6,6.8,6.9c4.4,12.2-9.3,24.7-18.1,30.1
		c-4.3,2.6-8.9,4.9-13.3,7.1c-1.6,0.8-3.1,1.5-4.7,2.3c-0.9,0.5-1.9,1-2.9,1.6c-3.3,1.8-7.1,3.9-10.6,4.4L169.5,64z M135.9,45.3
		c7.1,0.3,14,1.1,19.6,2.5c4.1,1,15.2,5.6,17.4,11.8c2.4-0.8,5.2-2.3,7.7-3.6c1-0.6,2.1-1.1,3-1.6c1.6-0.8,3.1-1.6,4.7-2.3
		c4.4-2.2,8.9-4.4,13-6.9c7.9-4.8,20.2-15.7,16.6-25.8c-0.8-2.3-2.4-3.9-4.6-4.7c-8-3-22.6,3.2-29.2,6.9c-4.5,2.5-9.5,4.9-14.3,7.3
		c-4.5,2.2-9.1,4.4-13.2,6.7c-3.7,2-10,4.9-16.7,7.9C138.5,44.1,137.2,44.7,135.9,45.3"/>
	<path clip-path="url(#SVGID_2_)" fill="#10069F" d="M119.9,75.3c-0.9,0.3-0.9,1.1-2,0.6c-4.8-12,13.6-31.3,25.9-25.9
		c0.2,4.7,1.2,11.1-1.5,15c-10.9-0.4-16.2,11.4-26,11.7"/>
	<path clip-path="url(#SVGID_2_)" fill="#0D0487" d="M116.3,78.6l-0.1-1.7l-0.1-0.3c-2.9-7.4,1.7-16.4,7.6-22.1
		c6.7-6.4,14.6-8.8,20.6-6.1l1,0.5l0.1,1.1c0,0.7,0.1,1.4,0.1,2.2c0.3,4.5,0.7,10.1-1.9,13.9l-0.6,0.8l-1,0
		c-5.1-0.2-8.9,2.6-12.8,5.7C125.5,75.4,121.5,78.4,116.3,78.6 M119.3,73.6l0.2,0.7c2.6-0.9,5-2.8,7.5-4.7c3.9-2.9,8.2-6.2,14.1-6.4
		c1.4-2.8,1.1-7,0.8-10.8c0-0.4,0-0.7-0.1-1.1c-5.4-1.7-11.5,1.8-15.7,5.8c-5.4,5.2-8.2,11.7-7.2,16.6
		C119.1,73.7,119.2,73.6,119.3,73.6"/>
	<path clip-path="url(#SVGID_2_)" fill="#10069F" d="M12.7,380.1C5.9,376.2,3.5,358,2.4,350c-1.4-10.2-0.6-22.9,4.3-31.5
		c10.8-18.6,36.3-20.6,50.2-4.7c10.3,11.7,17.4,38.7,13.6,54.4c-2.5,10.3-13,12.6-18,2.8c-2-4-2.3-8.1-4.3-12
		c-2.4-4.6-4.2-4.9-6.9-8.9"/>
	<path clip-path="url(#SVGID_2_)" fill="#0D0487" d="M11.8,381.6c-6.6-3.7-9.3-17.1-11.1-31.1l0-0.3c-1.7-12.5,0-24.8,4.6-32.6
		c5.4-9.2,14.5-15.1,25.1-16.2c10.7-1,20.9,3,28,11.2c10.9,12.4,17.8,40.2,14,56c-1.4,5.9-5.3,9.8-10.1,10.4
		c-4.5,0.5-8.7-2.2-11.3-7.2c-1.1-2.1-1.7-4.2-2.2-6.3c-0.6-2-1.1-3.9-2.1-5.7c-1.2-2.3-2.3-3.4-3.5-4.7c-1-1-2.1-2.2-3.4-4.1l3-2
		c1.1,1.6,2,2.6,3,3.6c1.3,1.3,2.6,2.7,4.1,5.5c1.1,2.2,1.7,4.3,2.3,6.4c0.6,2,1.1,3.8,2,5.6c1.9,3.7,4.6,5.6,7.6,5.2
		c3.2-0.4,6-3.4,7-7.7c3.5-14.6-3.2-41.2-13.2-52.7c-6.3-7.2-15.4-10.9-24.9-9.9c-9.4,0.9-17.5,6.1-22.3,14.4
		c-4.9,8.5-5.4,21.2-4.1,30.3l0,0.3c0.9,6.8,3.4,25,9.3,28.4L11.8,381.6z"/>
	<path clip-path="url(#SVGID_2_)" fill="#10069F" d="M12.5,351.2c-1.7,10.9-1.1,20.8,4.3,30.4c2.3,4,5.2,9.6,9.5,11.1
		c3.9,1.4,11.5-0.9,10.2-5.6"/>
	<path clip-path="url(#SVGID_2_)" fill="#0D0487" d="M28.9,394.9c-1.1,0-2.2-0.2-3.2-0.5c-4.7-1.6-7.6-6.9-10-11.1l-0.5-0.9
		c-5.1-9.1-6.5-18.8-4.5-31.6l3.6,0.6c-1.9,11.9-0.6,20.9,4.1,29.2l0.5,0.9c2.1,3.7,4.6,8.3,8,9.4c2.1,0.7,5.7,0,7.2-1.4
		c0.8-0.8,0.8-1.5,0.6-2l3.5-1c0.6,2.1,0,4-1.7,5.6C34.8,393.9,31.7,394.9,28.9,394.9"/>
	<path clip-path="url(#SVGID_2_)" fill="#10069F" d="M24.3,352.3c-1.9,9.6-1,19.3,3.3,27.9c3.1,6.2,10.4,17.5,18.3,14.8
		c10.9-3.8,4.8-14.7,1.2-21.4c-3.8-7-7.7-18.8-5.4-27.4"/>
	<path clip-path="url(#SVGID_2_)" fill="#0D0487" d="M43.5,397.2c-8.5,0-15.4-12.1-17.4-16.2c-4.4-8.7-5.6-18.7-3.5-29.1l3.5,0.7
		c-1.9,9.6-0.8,18.8,3.2,26.7c1.4,2.8,8.8,16.4,16,13.9c2.4-0.8,3.9-2.1,4.6-3.7c1.6-4-1.7-10.2-4.2-14.6l-0.2-0.4
		c-4.1-7.6-8-19.6-5.5-28.7l3.5,0.9c-2,7.5,1.2,18.5,5.2,26.1l0.2,0.4c2.7,5.1,6.5,12.1,4.3,17.7c-1,2.7-3.3,4.6-6.8,5.8
		C45.5,397,44.5,397.2,43.5,397.2"/>
	<path clip-path="url(#SVGID_2_)" fill="#10069F" d="M159.7,65.9c0.8-6-3.4-17.9,6.7-11.8c6.4,3.9,9.4,12.2,9,18.8
		C170.4,75.8,164.7,67,159.7,65.9"/>
	<path clip-path="url(#SVGID_2_)" fill="#0D0487" d="M173.3,75.3c-3,0-5.9-2.3-8.6-4.3c-1.9-1.5-3.8-3-5.4-3.3l-1.6-0.4l0.2-1.6
		c0.2-1.4,0.1-3.3-0.1-5.1c-0.3-4-0.5-7.8,2-9.4c2.3-1.4,5.4,0.1,7.5,1.4c7.3,4.5,10.2,13.7,9.9,20.4l-0.1,1l-0.9,0.5
		C175.3,75.1,174.3,75.3,173.3,75.3 M161.6,64.7c1.8,0.8,3.6,2.2,5.3,3.5c2.9,2.2,5,3.8,6.7,3.5c-0.1-5.5-2.5-12.5-8.2-16
		c-2.9-1.8-3.7-1.4-3.7-1.4c-0.7,0.4-0.4,4.4-0.3,6C161.6,61.8,161.7,63.3,161.6,64.7"/>
	<path clip-path="url(#SVGID_2_)" fill="#10069F" d="M156.8,189.9c5.1-7.6,17.9,4.2,1.4,7.2c-5.9,1.1-19.1,0.5-18-8.6
		c5.6-1.2,13.8-3.7,18.7,0.6"/>
	<path clip-path="url(#SVGID_2_)" fill="#0D0487" d="M153.5,199.3c-4.4,0-9.5-0.9-12.5-3.7c-2-1.9-2.9-4.4-2.5-7.3l0.1-1.3l1.3-0.3
		c0.6-0.1,1.1-0.3,1.7-0.4c4.9-1.1,11.5-2.6,16.4-0.1c1.9-1,3.9-0.9,5.6-0.4c2.9,1,4.8,3.5,4.6,6c-0.1,1.9-1.6,5.4-9.6,6.9
		C157.2,199.1,155.4,199.3,153.5,199.3 M142,190c0.1,1.2,0.6,2.2,1.4,3c3.1,2.9,10.3,3.1,14.5,2.4c4.8-0.9,6.6-2.5,6.6-3.6
		c0.1-0.9-0.9-1.9-2.1-2.4c-0.8-0.3-2.7-0.6-4.1,1.5l-2.2-1.5c-3.8-1.8-9.2-0.5-13.7,0.5C142.3,189.9,142.2,190,142,190"/>
	<path clip-path="url(#SVGID_2_)" fill="#10069F" d="M66,166.4c9.4,0.5,13.1,0.9,22,6.5c6.4,4.1,17.5,15.4,20.3,22.7"/>
	<path clip-path="url(#SVGID_2_)" fill="#0D0487" d="M66.7,167.2c9.4,0.5,17,3,24.3,9.2c6,5.1,12.5,11.6,15.5,19
		c0.4,1,3.8,1.4,3.5,0.5c-3.6-8.6-11.4-16.4-18.8-21.8c-8-5.9-16.2-8-26-8.5C62.9,165.5,65.6,167.2,66.7,167.2"/>
	<path clip-path="url(#SVGID_2_)" fill="#10069F" d="M162.6,234.8c1.8,1.8,2.6,4,2.2,6.5"/>
	<path clip-path="url(#SVGID_2_)" fill="#0D0487" d="M162.2,238.3c0.6,0.6,1.1,1.2,1.5,1.9c0.1,0.3,0.2,0.8,0.4,1.1
		c0,0.1,0,0.1,0,0.2c0-0.4,0-0.7,0-1.1c-0.1,0.9-0.2,1.9-0.1,2.8c0,0.3,0.1,1.5,0.4,1.7c0.8,0.6,1.1-2.2,1.2-2.5
		c0.5-3.8,0.4-8.1-2.4-11c-0.7-0.7-1.1,2.2-1.2,2.5c-0.1,0.9-0.2,1.9-0.1,2.8C161.8,237,161.8,237.9,162.2,238.3"/>
	<path clip-path="url(#SVGID_2_)" fill="#10069F" d="M200.7,177.3c4.3,9.2,3.9,17.2-3.1,24.2"/>
	<path clip-path="url(#SVGID_2_)" fill="#0D0487" d="M200.2,180.8c2.9,6.5,2.3,12-2.7,17.2c-1.3,1.4-0.2,7.1-0.1,7
		c8.1-8.6,8.3-20.7,3.6-31.1c-0.4-0.9-1.1,2.3-1.2,2.5C199.8,177.7,199.6,179.4,200.2,180.8"/>
	<path clip-path="url(#SVGID_2_)" fill="#10069F" d="M92.3,123.2c0,8.8-5.8,15.9-13,15.9c-7.2,0-13-7.1-13-15.9
		c0-8.8,5.8-15.9,13-15.9C86.5,107.2,92.3,114.4,92.3,123.2"/>
	<path clip-path="url(#SVGID_2_)" fill="#10069F" d="M75.9,107.8c0,0-1.7-10,1.2-33.2"/>
	<path clip-path="url(#SVGID_2_)" fill="#10069F" d="M82.6,107.8c0,0,2.3-27.7,7.8-41.3"/>
</g>
</svg>
