<svg id="Icons" xmlns="http://www.w3.org/2000/svg" viewBox="0 0 73.12 96"><defs><style>.cls-1{fill-rule:evenodd;}</style></defs><title>western-association</title><path class="cls-1" d="M36.28,15.39h.61c-.14,2.08,1.55,3.56,3,4.55-.39.88-1.87.61-2.23,1.52a3.64,3.64,0,0,0,1.83.65c0,.67-.64.62-.41,1.52.31.61,1.05.76,1.83.87,0,1.15-.87,1.39-1.62,1.73.33.37,1.1.27,1.42.65-.09.54-1,1.29-.2,1.52a5.67,5.67,0,0,1-2,1.52,2.93,2.93,0,0,0,2.84,0c.55.6-.6,1.23-1,1.52.53.8,2.57,0,2.64,1.3-.75.41-1.22-.31-2-.43-.52.36.79.58.61,1.3-.8.12-1.27-.75-1.83-.22A3.86,3.86,0,0,0,44,34.48c-.13,1.29-2.15,1.28-1.42,2.82-1.45,0-1.32-1.63-2.84-1.52,1.17.84,1.63,2.45,2.84,3.25.83,0,1.66,0,2-.43.63,1.45-2.27,1.23-3,1.3-.17,1.55,1.79.83,1.62,2.39-1.51.38-1.45-.91-2.43-1.08-.21.74,1.06,1.75,1.42,2.6h1.22c-.07.28-.36.34-.41.65a7.25,7.25,0,0,1,2.64.22,1,1,0,0,1-1.62.87c-.24.65.44,1.17-.2,2,.55.83,1.41,0,2.23.43-.27.58-.54,1.15-.81,1.73-1.26-.25-1.69-.54-2.44.43A13.75,13.75,0,0,0,45,51.39c-1,.32-2.21-1-3.86-.65A7.63,7.63,0,0,0,44,51.83c.25.89.54,1.73,1.62,1.73-.31,1.31-2.07,1.14-3,.65-.08,2,2.65,1.07,4.26,1.3-.32.67-1.25.68-1.62,1.3,1.13,1.22,2.23-.6,3.86-.22-.85,1-1.46,2.2-3.25,2.17-.1.75,1.1.12,1.22.65-.61,1.81-2.46-1.05-3,.65a1.22,1.22,0,0,1-1-1.52c-.47.15-.15,1.14-1,.87,1.08,1.52,3.15,2,5.48,2.17-.32,1-1.9.57-3,.65,0,1,1.48.44,1.42,1.52-3.28.25-4.92-1.25-7.71-1.52-.38,0-.14.72-.61.65C38.19,69,36,78.35,39.73,81.75c-1.8,1-4.35.56-6.29,0,.39-1.25,1.4-1.83,2-2.82V64a4.14,4.14,0,0,0-4.06-1.08c-.91.3-1.32,1.39-2,1.73h-2c.34-.72,1.09-1,1.62-1.52-.68-1-2.54-.76-3-2,2.87.17,5.8-.87,6.9-3.25-.55-.43-1.19.89-1.83,1.08-1.47-.4-1.77.38-3.45.22-.18-.38-.57-.55-.41-1.3h-1a4.92,4.92,0,0,0-.61-1.73c1.63-.46,3.87,1.45,5.68.22-.12-.81-.76-1.06-.81-2-.5,0-1,0-1,.43a2,2,0,0,0-2-1.08c1.11-1.35,2.76-2.11,4.06-3.25-.71-.67-1.39.53-2.43.22,0-1.53,1.7-1.22,2.43-2-.73-1.14-1.87.45-3,.22-.06-1.82,3.23-1.88,4.26-3.25-1.22-.36-2.5,1.08-4.06,1.08.5-1.85,3.13-1.43,3.25-3.69-1.16.42-1.65,1.56-3.25,1.52-.18-.86,1.18-1.18.61-1.73.84-.55,2.16-.58,3-1.08,0-.93.25-1.06.61-2-.68-.65-1.59.31-2.44.22.61-1.22,2.26-1.34,2.84-2.6-.39-.61-1.06.3-1.62.22,0-.79.58-1,.81-1.52a3.49,3.49,0,0,0-2.23.65c-.52-1.86,2.21-2.12,3-3.25-.2-.5-.7-.7-1.42-.65.25-.46.56-.85.81-1.3-.71-.6-1.1.59-2,.43-.18-.18-.12-.59-.41-.65.55-1.65,3.4-.84,4.67-1.73.21-.73-.63-.34-1-.43a3.19,3.19,0,0,1,.61-1.52c-.55-.64-1.39-1-1.62-2,.29-.31,1,0,1.42.22.39-.22-.53-.86-.81-1.08.65-.39,1.52-.54,1.83-1.3,0-1.13-1.64-.56-1.42-2a1.48,1.48,0,0,0,1.62-.87c0-.65-1-.28-1.22-.65a4.86,4.86,0,0,0,2-4.77m4.46,33.18c.16-.48,1-.28,1-.87-.62,0-1.54-.8-1.83-.43.53.15.2,1.24.81,1.3M31,52.91c.45-1,2.26-.48,2.44-1.73-1.3-.08-2.66.91-2.44,1.73"/><path d="M19.11,74.9c-4.48-6.68-7.23-15.86-7.23-26s2.75-19.32,7.23-26S29.82,12,36.76,12,49.93,16.24,54.4,22.91s7.23,15.86,7.23,26-2.75,19.32-7.23,26S43.69,85.76,36.76,85.76,23.58,81.57,19.11,74.9m.76-51.48c-4.36,6.5-7.08,15.52-7.08,25.49s2.71,19,7.08,25.49S30.2,84.85,36.76,84.85s12.52-4,16.89-10.46,7.08-15.52,7.08-25.49-2.72-19-7.08-25.49S43.31,13,36.76,13h0c-6.55,0-12.52,4-16.89,10.46"/><path d="M3,29.48a.75.75,0,0,0,.13.51,7.55,7.55,0,0,0,1,.88c1.12.83,3.48,2.7,4.74,3.57a.72.72,0,0,1,0,.39.54.54,0,0,1-.15.28l-1,.21-1.12.24c-.38.08-.73.15-.91.21.16.14.38.33.65.55l1,.77c.3.25.58.44.89.7a.63.63,0,0,1,0,.39.55.55,0,0,1-.15.27c-.49.08-1.55.3-2.43.5l-4.23,1c-.7.16-.77.21-.92.57l-.12.27c-.13.07-.34,0-.36-.13.12-.41.23-.88.36-1.45s.2-.93.28-1.36c.06-.08.34-.06.38.06v.21c0,.21,0,.3.1.32a12.48,12.48,0,0,0,1.45-.28l2.6-.57c.73-.16,1-.22,1.27-.3-.2-.19-.48-.44-.91-.77l-.28-.22A1.88,1.88,0,0,0,4.8,36a.89.89,0,0,0-.3,0L2,36.58c-.59.14-.68.2-.82.61l0,.11c-.11.09-.35,0-.36-.12.13-.48.24-.91.35-1.4s.22-1,.26-1.29c.06-.13.35,0,.38,0v.2c0,.14,0,.32.08.34a.87.87,0,0,0,.34,0L3,34.87l.72-.17-.59-.49L3,34.07a3.89,3.89,0,0,0-.72-.48c-.08,0-.12,0-.2.19l-.15.32c-.09.06-.33,0-.36-.12.09-.32.2-.72.28-1.09S2,32,2,31.74a.3.3,0,0,1,.39.08v.33c0,.4,0,.48.56,1,.38.37.8.76,1,1a3.38,3.38,0,0,0,.5.37.78.78,0,0,0,.29,0L6,34.2c.65-.16,1-.22,1.16-.25C6,33.13,4.83,32.3,3.66,31.47A5.69,5.69,0,0,0,2.82,31c-.07,0-.12,0-.2.18l-.12.23a.28.28,0,0,1-.36-.12c.1-.35.22-.8.29-1.13s.15-.72.2-1c.08-.09.31,0,.38.05Z"/><path d="M7.81,29.23c-.09.25-.08.28.09.34a1.55,1.55,0,0,0,2.08-1,1.15,1.15,0,0,0-.16-1.2.26.26,0,0,1,.34-.19A2.33,2.33,0,0,1,7.7,31a2.41,2.41,0,0,1-1.44-3.17,1.63,1.63,0,0,1,2.11-1.18c.19.07.32.18.19.51Zm-.19-.88a1,1,0,0,0,.07-.48c0-.07-.11-.12-.21-.16a.56.56,0,0,0-.77.36.92.92,0,0,0,.43,1.11c.14.05.21-.09.34-.44Z"/><path d="M11.32,26.84a2.74,2.74,0,0,1-1.19-.37.28.28,0,0,1,.15-.36,1.48,1.48,0,0,0,1.49-.58.54.54,0,0,0-.25-.78c-.36-.18-.73.06-1.07.33-.59.48-1.16.75-1.75.47-.86-.41-.91-1.36-.48-2.25a2.9,2.9,0,0,1,.74-1A2.91,2.91,0,0,1,10,22.6c.09.09,0,.35-.14.38-.67-.07-1,.09-1.16.43a.51.51,0,0,0,.19.72c.23.11.51,0,.95-.36a1.73,1.73,0,0,1,1.92-.48c.87.43.94,1.43.47,2.4a2.36,2.36,0,0,1-.92,1.14"/><path d="M11.24,19.32c-.08.13-.07.14.13.27l1.41.84c.52.31,1.11.66,1.52,0a1,1,0,0,0,.11-.5.24.24,0,0,1,.33,0,2.4,2.4,0,0,1-.3,1.74,1.12,1.12,0,0,1-1.73.46l-2.09-1.25c-.2-.12-.22-.12-.33.06l-.18.3a.22.22,0,0,1-.33-.11A4.53,4.53,0,0,0,9.84,20a3.48,3.48,0,0,0-.3-1.17c0-.09.12-.26.22-.27l.7.42c.18.11.19.1.3-.07l.52-.88a.24.24,0,0,1,.22,0c.1.06.25.19.25.32Z"/><path d="M14.37,16.83c-.16.21-.16.24,0,.35a1.55,1.55,0,0,0,2.26-.31,1.15,1.15,0,0,0,.19-1.19.26.26,0,0,1,.38-.09A2.21,2.21,0,0,1,17,17.95a2.2,2.2,0,0,1-3.22.55A2.4,2.4,0,0,1,13.31,15a1.63,1.63,0,0,1,2.36-.51c.17.13.25.26,0,.55Zm.08-.89a1,1,0,0,0,.21-.43c0-.07-.06-.15-.15-.22a.56.56,0,0,0-.85.12.92.92,0,0,0,.08,1.19c.12.09.23,0,.45-.32Z"/><path d="M16.91,13.31c-.31-.31-.4-.4-.65-.34l-.18,0a.25.25,0,0,1-.23-.23,8,8,0,0,0,.73-1.64.24.24,0,0,1,.22-.08c.14.17.23.3.3.37s.09.06.17,0a2.19,2.19,0,0,1,.41-1.18.62.62,0,0,1,.9,0,.68.68,0,0,1,0,1,.66.66,0,0,1-.46.18c-.33,0-.41.1-.46.15s0,.32.31.62l1.18,1.19c.54.54.63.57.92.33l.28-.23c.11,0,.29.16.26.28-.41.37-.74.69-1.12,1.07s-.68.69-.94,1c-.12,0-.3-.15-.28-.26l.14-.17c.24-.29.21-.39-.33-.93Z"/><path d="M20.41,10c-.25-.36-.32-.47-.57-.45h-.19a.25.25,0,0,1-.18-.27,8.92,8.92,0,0,0,1-1.48.24.24,0,0,1,.23,0c.09.13.2.36.25.43s.07.06.1,0a1,1,0,0,0,.13-.2,2.91,2.91,0,0,1,.84-1.1,1.32,1.32,0,0,1,2,.33l1.06,1.55c.43.63.52.68.88.48l.16-.09a.29.29,0,0,1,.2.32c-.31.18-.71.44-1.16.75s-.74.52-1,.72a.29.29,0,0,1-.22-.31l.15-.14c.19-.19.19-.27-.15-.77l-1-1.52A.72.72,0,0,0,21.8,8a.82.82,0,0,0-.38.58.61.61,0,0,0,.15.39l1.1,1.61c.34.5.43.55.69.42l.16-.09a.29.29,0,0,1,.21.32c-.31.18-.61.38-1.07.69s-.78.55-1.1.79a.29.29,0,0,1-.22-.31l.14-.12c.32-.27.31-.37-.13-1Z"/><path d="M31.44,5.13c-.27,0-.3.06-.34.28L30.9,6.73a1.2,1.2,0,0,0,0,.4c0,.06.11.11.44.11h.35c.08.06.15.31,0,.38-.4,0-.85.12-1.33.19S29.74,8,29.22,8c-.14,0-.16-.27-.1-.37l.3-.08a.78.78,0,0,0,.6-.65c.12-.46.23-1,.41-1.84L31,2.29A4,4,0,0,0,31.21.85,2.31,2.31,0,0,0,32.09,0c.15,0,.22,0,.3.17s.35.67.76,1.39l2.25,4c.35.61.49.84.92.83h.44c.08,0,.14.3.05.38-.55.07-1.16.16-1.75.26s-1,.18-1.52.29a.24.24,0,0,1-.09-.37l.35-.12c.25-.09.28-.17.27-.23a4.29,4.29,0,0,0-.34-.69L33.28,5c-.09-.16-.18-.17-.58-.1Zm1.11-.78c.26,0,.31-.09.17-.35l-.44-.82c-.24-.44-.46-.85-.6-1.06a12.68,12.68,0,0,0-.26,1.26l-.15.86c-.05.31,0,.33.29.28Z"/><path d="M37.32,6.84a2.75,2.75,0,0,1,0-1.25.28.28,0,0,1,.39,0c.1.46.46,1.15,1,1.22a.54.54,0,0,0,.66-.5c0-.4-.29-.67-.66-.9-.65-.4-1.09-.85-1-1.5.11-.94,1-1.31,2-1.19a2.88,2.88,0,0,1,1.19.37,2.91,2.91,0,0,1,0,1.1c-.06.11-.34.08-.4,0-.16-.65-.42-.92-.79-1a.51.51,0,0,0-.62.41c0,.25.17.48.65.78.73.45,1.16,1,1.08,1.66-.12,1-1,1.35-2.11,1.23a2.37,2.37,0,0,1-1.37-.5"/><path d="M41.65,7.46a2.74,2.74,0,0,1,.21-1.23.28.28,0,0,1,.38.1c0,.47.22,1.22.78,1.4a.54.54,0,0,0,.74-.36c.13-.38-.15-.72-.47-1-.55-.52-.9-1.05-.7-1.67.29-.9,1.23-1.08,2.17-.78a2.89,2.89,0,0,1,1.1.6,2.9,2.9,0,0,1-.17,1.09c-.08.1-.35,0-.4-.08,0-.67-.22-1-.58-1.1A.5.5,0,0,0,44,4.7c-.08.24.07.5.48.89a1.73,1.73,0,0,1,.73,1.84c-.31.92-1.29,1.12-2.32.78a2.36,2.36,0,0,1-1.25-.76"/><path d="M46.7,7.17a2.45,2.45,0,0,1,3.5-.74,2.35,2.35,0,1,1-2.44,4A2.3,2.3,0,0,1,46.7,7.17m1.54.63c-.58,1-.69,1.9-.11,2.24s1.11-.17,1.6-1,.72-1.87.16-2.2-1,0-1.65,1"/><path d="M56.76,11.74a.65.65,0,0,1-.2.58c-.22.24-.54.36-.64.26s-.1-.12-.1-.16a1.74,1.74,0,0,0-.33-1.4c-.55-.5-1.39-.17-1.9.39a1.65,1.65,0,0,0,.06,2.39,1.09,1.09,0,0,0,1.12.28.25.25,0,0,1,.06.38A2.18,2.18,0,0,1,52.54,14a2.22,2.22,0,0,1-.33-3.26A2.59,2.59,0,0,1,56,10.8a4.12,4.12,0,0,1,.77.94"/><path d="M56.8,16.43c-.58.5-.62.6-.4.91l.13.18a.29.29,0,0,1-.3.24c-.24-.32-.53-.66-.87-1.06s-.66-.75-.92-1c0-.12.17-.28.28-.26l.16.15c.27.26.38.24,1-.26l1.25-1.08c.33-.28.43-.37.39-.62l0-.19a.25.25,0,0,1,.25-.21,9.15,9.15,0,0,0,1.59.87.23.23,0,0,1,.06.22c-.26.2-.63.5-1,.82Zm3.8-3.15a.8.8,0,0,1-1.17-.13A.74.74,0,0,1,59.5,12a.81.81,0,0,1,1.16.13.76.76,0,0,1-.06,1.11"/><path d="M60.18,20.73c-.64.38-.62.76-.49,1A.85.85,0,0,0,60,22a.2.2,0,0,1-.13.25,1.91,1.91,0,0,1-1.23-.77,1.39,1.39,0,0,1-.22-1,.28.28,0,0,0,0-.2.53.53,0,0,0-.23-.13,1.75,1.75,0,0,1-.84-.61,1.17,1.17,0,0,1,.23-1.71c.46-.31.94-.21,1.61.35l.86.72c.16.14.26.15.34.11l.32-.19c.34-.23.68-.67.41-1.08-.15-.23-.42-.34-.85-.15a.47.47,0,0,1-.4,0,2,2,0,0,1-.67-.54.24.24,0,0,1,.08-.37,1.28,1.28,0,0,1,1,0,3.35,3.35,0,0,1,1.63,1.22,1.31,1.31,0,0,1-.49,2.1Zm-.54-1.3c.15-.09.17-.12.12-.18-.34-.39-.75-.66-1.17-.37a.63.63,0,0,0-.21.85c.2.29.4.24.69.06Z"/><path d="M64,22.94c-.07-.13-.09-.14-.3,0l-1.45.77c-.54.29-1.14.6-.76,1.31a1,1,0,0,0,.37.35.24.24,0,0,1-.18.27,2.4,2.4,0,0,1-1.33-1.16,1.12,1.12,0,0,1,.5-1.72L63,21.6c.2-.11.22-.13.12-.31L63,21a.22.22,0,0,1,.27-.22,4.47,4.47,0,0,0,.88.61,3.47,3.47,0,0,0,1.15.35.33.33,0,0,1,.11.33l-.72.38c-.18.1-.19.11-.09.3l.48.9a.25.25,0,0,1-.14.18.47.47,0,0,1-.41,0Z"/><path d="M63.46,27.71c-.7.3-.77.39-.65.75l.07.21a.29.29,0,0,1-.36.14c-.14-.38-.31-.79-.52-1.28s-.41-.91-.58-1.25a.29.29,0,0,1,.35-.16l.11.19c.18.33.29.34,1,0l1.51-.66c.4-.17.52-.23.55-.48L65,25a.25.25,0,0,1,.3-.13,9.09,9.09,0,0,0,1.26,1.3.24.24,0,0,1,0,.23c-.31.11-.75.29-1.21.49ZM68,25.82a.8.8,0,0,1-1.07-.47.74.74,0,0,1,.39-1,.82.82,0,0,1,1.07.47.76.76,0,0,1-.39,1"/><path d="M64.87,28.85A2.45,2.45,0,0,1,68,30.61,2.35,2.35,0,1,1,63.53,32a2.3,2.3,0,0,1,1.34-3.14m.74,1.49c-1.09.36-1.77,1-1.56,1.61s.95.61,1.88.29,1.77-.93,1.57-1.55-.75-.72-1.88-.35"/><path d="M67.71,35.37c.43-.09.56-.11.64-.35l.06-.18a.25.25,0,0,1,.32-.07,8.87,8.87,0,0,0,1,1.53.24.24,0,0,1-.05.22l-.49.07c-.06,0-.08,0-.07.07a1.08,1.08,0,0,0,.13.2,2.9,2.9,0,0,1,.69,1.2,1.32,1.32,0,0,1-1.06,1.68L67,40.12c-.75.15-.83.22-.78.63l0,.19a.29.29,0,0,1-.38.07c0-.35-.14-.83-.25-1.37s-.19-.89-.28-1.21a.29.29,0,0,1,.37-.09l.07.2c.1.25.18.28.77.16l1.81-.37a.72.72,0,0,0,.6-.94.82.82,0,0,0-.39-.58.6.6,0,0,0-.41,0l-1.91.39c-.59.12-.68.19-.65.47l0,.18a.29.29,0,0,1-.38.07c0-.35-.11-.71-.22-1.25s-.2-.93-.3-1.32a.29.29,0,0,1,.37-.09l.06.18c.13.4.22.42,1,.27Z"/><path d="M4.29,49.62a2.54,2.54,0,0,1,2.6,2.62C7,53.67,6.28,55,4.74,55.1S2.32,54,2.22,52.47s.57-2.74,2.07-2.85m.35,1.72c-1.14.07-2,.53-1.91,1.23s.77.87,1.75.8,1.95-.48,1.9-1.17c0-.53-.55-.94-1.74-.86"/><path d="M6.89,58.63c0-.3-.06-.31-.35-.26l-2.18.34c-.78.12-.86.18-.83.58l0,.4a.25.25,0,0,1-.36,0c-.06-.57-.13-1.07-.22-1.63s-.17-1-.25-1.41a.25.25,0,0,1,.35-.07l.05.19c.11.42.2.46,1,.34l2.18-.34c.29,0,.3-.07.26-.35L6.48,56a.25.25,0,0,1,.29-.08l.32.48c.1.14.18.24.32.22a4.77,4.77,0,0,1,1.83.06A2.42,2.42,0,0,1,11,58.83c.11.69-.11,1.45-.67,1.54-.36.06-.63-.2-.69-.6a.64.64,0,0,1,.12-.51c.51-.61.6-.82.58-1,0-.31-.39-.45-1.39-.3l-1.22.19c-.29,0-.3.06-.25.36l.18,1.14c0,.07-.11.1-.2.12A.44.44,0,0,1,7,59.7Z"/><path d="M6.63,66.85c-1,.29-1,.39-1,.95l0,.34a.29.29,0,0,1-.37.1C5.18,67.6,5,67,4.86,66.48s-.35-1.13-.56-1.75a.29.29,0,0,1,.37-.11l.15.31c.24.51.34.56,1.32.26L10,64c1-.29,1-.39,1-.94l0-.34a.29.29,0,0,1,.37-.11c.17.63.33,1.22.5,1.77s.35,1.12.56,1.74a.29.29,0,0,1-.37.11L11.8,66c-.24-.51-.34-.56-1.32-.26Z"/><path d="M8.72,69c.4-.17.52-.22.55-.48l0-.2a.24.24,0,0,1,.3-.13,9.69,9.69,0,0,0,1.28,1.4.26.26,0,0,1,0,.24c-.14.06-.4.13-.47.16s-.07.06-.06.09a1.14,1.14,0,0,0,.17.18,3.19,3.19,0,0,1,.94,1.11,1.36,1.36,0,0,1-.68,1.93L9.06,74c-.7.3-.77.38-.64.79l.05.19a.28.28,0,0,1-.36.14c-.13-.35-.31-.83-.54-1.36S7.2,72.92,7,72.61a.28.28,0,0,1,.35-.16l.12.19c.15.24.24.25.79,0l1.7-.72a.74.74,0,0,0,.38-1.08.89.89,0,0,0-.51-.52.58.58,0,0,0-.41.07l-1.8.76c-.55.23-.62.32-.54.61l.06.19a.27.27,0,0,1-.36.14c-.13-.35-.27-.72-.49-1.25s-.4-.92-.59-1.3a.28.28,0,0,1,.35-.16l.1.17c.21.39.31.4,1,.1Z"/><path d="M13,79.91c-.88.53-1.07.7-1,.9a1.41,1.41,0,0,0,.34.4.34.34,0,0,1-.4.25,9.81,9.81,0,0,0-1.46-1.66.23.23,0,0,1,0-.26l.31-.14c.07-.06.07-.11,0-.14a2.78,2.78,0,0,1-1.08-.88,2.18,2.18,0,0,1,.65-3.09,2.63,2.63,0,0,1,3.65,1.17,3.67,3.67,0,0,1,.31.62.21.21,0,0,0,.24,0l1.2-.72c.37-.23.48-.29.46-.56v-.23a.23.23,0,0,1,.28-.17,12.48,12.48,0,0,0,1.48,1.27.26.26,0,0,1,0,.21c-.4.21-.8.44-1.38.79Zm.43-2.1a.72.72,0,0,0,.27-.26.86.86,0,0,0,0-.8c-.32-.53-1.13-.75-2.11-.16a1.53,1.53,0,0,0-.77,2,1,1,0,0,0,.37.36c.13.07.26,0,.43-.09Z"/><path d="M15.76,82.18c-.18-.21-.21-.22-.34-.11a1.6,1.6,0,0,0-.16,2.35,1.24,1.24,0,0,0,1.15.51.27.27,0,0,1,0,.4,2.36,2.36,0,0,1-2.31-.85,2.27,2.27,0,0,1,.12-3.36,2.48,2.48,0,0,1,3.55.46,1.69,1.69,0,0,1,0,2.49c-.16.13-.32.18-.56-.11Zm.88.31a1,1,0,0,0,.39.32c.06,0,.16,0,.25-.09a.57.57,0,0,0,.06-.88,1,1,0,0,0-1.21-.23c-.12.1,0,.24.23.54Z"/><path d="M18.67,85c.28-.33.37-.43.28-.68l-.06-.19a.24.24,0,0,1,.21-.25,9.15,9.15,0,0,0,1.77.61.26.26,0,0,1,.11.26,1.83,1.83,0,0,0-.25.26.15.15,0,0,0,0,.18,3.66,3.66,0,0,1,1.45.67,2,2,0,0,1,.21,2.92,2.66,2.66,0,0,1-3.94,0A3.87,3.87,0,0,1,18,88.5c-.1-.05-.19-.05-.34.12l-.7.82c-.5.58-.52.68-.23,1l.29.29a.28.28,0,0,1-.26.28c-.45-.41-.81-.73-1.24-1.1s-.77-.64-1.12-.91a.27.27,0,0,1,.24-.3l.2.14c.33.23.43.19.92-.39Zm.1,2.3a.84.84,0,0,0-.2.66.89.89,0,0,0,.28.57c.57.49,1.35.21,2-.57a1.45,1.45,0,0,0,0-2.17.71.71,0,0,0-.49-.21c-.09,0-.24.07-.51.39Z"/><path d="M24.87,90.08c-.24-.13-.28-.13-.36,0a1.6,1.6,0,0,0,.73,2.24,1.24,1.24,0,0,0,1.26,0,.27.27,0,0,1,.16.37,2.35,2.35,0,0,1-2.46.08,2.27,2.27,0,0,1-1.15-3.16,2.48,2.48,0,0,1,3.47-.9,1.69,1.69,0,0,1,.95,2.31c-.1.18-.23.29-.56.11Zm.93,0a1,1,0,0,0,.48.15c.07,0,.14-.08.2-.18a.57.57,0,0,0-.28-.83,1,1,0,0,0-1.21.24c-.07.14.07.22.41.41Z"/><path d="M28.56,91.56c.11-.42.14-.55,0-.73l-.14-.14a.24.24,0,0,1,.08-.32,9.71,9.71,0,0,0,1.89-.16.26.26,0,0,1,.19.15c0,.15-.14.39-.16.47s0,.09,0,.1a1.14,1.14,0,0,0,.24,0,3.2,3.2,0,0,1,1.46-.07,1.36,1.36,0,0,1,1.12,1.71l-.48,1.82c-.19.74-.17.84.24,1l.18.07a.28.28,0,0,1-.11.37c-.36-.12-.85-.26-1.41-.4s-.93-.23-1.27-.3a.28.28,0,0,1,.09-.37l.22,0c.28,0,.35,0,.5-.61l.47-1.78a.74.74,0,0,0-.62-1,.89.89,0,0,0-.72.08.58.58,0,0,0-.2.37l-.49,1.89c-.15.58-.13.69.15.8l.18.07a.28.28,0,0,1-.11.37c-.36-.12-.73-.22-1.29-.37s-1-.24-1.39-.33a.27.27,0,0,1,.09-.37l.19,0c.43.07.5,0,.69-.74Z"/><path d="M39.64,93.9c0,1,.09,1.27.32,1.27a1.4,1.4,0,0,0,.52-.1.33.33,0,0,1,0,.47,9.88,9.88,0,0,0-2.16.47.23.23,0,0,1-.21-.15l0-.34c0-.09-.06-.12-.11-.08a2.79,2.79,0,0,1-1.29.51,2.18,2.18,0,0,1-2.39-2.07,2.62,2.62,0,0,1,2.8-2.62,3.6,3.6,0,0,1,.69,0,.21.21,0,0,0,.11-.21l0-1.4c0-.44,0-.56-.26-.68l-.21-.1a.23.23,0,0,1,0-.33,12.57,12.57,0,0,0,1.83-.67.27.27,0,0,1,.21.07c0,.45,0,.91,0,1.59ZM38,92.5a.72.72,0,0,0-.1-.37.85.85,0,0,0-.7-.38c-.62,0-1.2.62-1.16,1.76,0,.72.42,1.7,1.41,1.67A1,1,0,0,0,38,95c.13-.08.14-.22.13-.42Z"/><path d="M42.64,92.35c-.27.08-.28.11-.23.27a1.6,1.6,0,0,0,2.1,1.06,1.24,1.24,0,0,0,.92-.86.26.26,0,0,1,.37.15,2.36,2.36,0,0,1-1.68,1.8,2.27,2.27,0,0,1-3-1.42,2.48,2.48,0,0,1,1.81-3.09,1.69,1.69,0,0,1,2.3,1c.06.2,0,.36-.31.47Zm.63-.69a1,1,0,0,0,.45-.24s0-.16,0-.26a.57.57,0,0,0-.79-.39,1,1,0,0,0-.68,1c0,.15.21.11.58,0Z"/><path d="M46.31,90.74c-.22-.38-.28-.49-.55-.49h-.2A.24.24,0,0,1,45.4,90a9.68,9.68,0,0,0,1.23-1.44.25.25,0,0,1,.24,0c.08.13.18.38.21.44s.07.06.1,0a1,1,0,0,0,.16-.19,3.18,3.18,0,0,1,1-1.07,1.36,1.36,0,0,1,2,.43l.94,1.63c.38.66.47.71.87.53l.18-.08a.28.28,0,0,1,.18.34c-.34.17-.78.41-1.29.71s-.82.49-1.12.68a.27.27,0,0,1-.2-.32l.17-.14c.22-.18.22-.27-.08-.79l-.92-1.6a.74.74,0,0,0-1.12-.25.89.89,0,0,0-.46.57.58.58,0,0,0,.12.4l1,1.69c.3.52.39.58.67.46l.18-.08a.28.28,0,0,1,.18.34c-.34.17-.68.35-1.18.64s-.86.51-1.22.74a.27.27,0,0,1-.2-.32l.16-.12c.36-.26.35-.36,0-1Z"/><path d="M52.75,85.28c-.12.1-.12.12,0,.3l1.07,1.24c.4.46.84,1,1.48.43a1.07,1.07,0,0,0,.28-.46.24.24,0,0,1,.31.11A2.61,2.61,0,0,1,55,88.52a1.16,1.16,0,0,1-1.84-.06l-1.58-1.85c-.15-.17-.17-.18-.34,0l-.28.24a.21.21,0,0,1-.27-.21,4.93,4.93,0,0,0,.44-1,3.59,3.59,0,0,0,.13-1.23c0-.09.21-.22.31-.19l.53.62c.13.16.15.16.32,0l.82-.7a.24.24,0,0,1,.21.09.45.45,0,0,1,.13.39Z"/><path d="M57.8,73.79a13.13,13.13,0,0,0,1.49.84c.08.11-.07.41-.2.42a2.17,2.17,0,0,0-2.57,1,2.89,2.89,0,0,0,1.07,4.11c1.79,1.23,3.54.74,4.36-.46a2.58,2.58,0,0,0,0-3,.37.37,0,0,1,.32-.34,4.46,4.46,0,0,1,1.15,1.35A9.81,9.81,0,0,1,62.37,80a6,6,0,0,1-2.53,2.22,3.33,3.33,0,0,1-3.23-.35A3.48,3.48,0,0,1,55.06,79a5.69,5.69,0,0,1,1.1-3.32,16.22,16.22,0,0,1,1.64-1.9"/><path d="M64.75,72.08c.65.37,1,.14,1.08-.08a.94.94,0,0,0,.08-.47.2.2,0,0,1,.29,0A2.06,2.06,0,0,1,66.13,73a1.51,1.51,0,0,1-.79.75c-.1,0-.14.08-.16.14a.61.61,0,0,0,0,.28A1.9,1.9,0,0,1,65,75.27a1.21,1.21,0,0,1-1.62.72c-.5-.24-.64-.73-.48-1.63.08-.47.15-.81.22-1.16s0-.31-.07-.36l-.32-.18c-.37-.18-.93-.24-1.15.22-.13.26-.1.56.29.84a.46.46,0,0,1,.22.34A2.21,2.21,0,0,1,62,75a.25.25,0,0,1-.37.13,1.29,1.29,0,0,1-.5-.89,3.66,3.66,0,0,1,.29-2.12,1.34,1.34,0,0,1,2.1-.71Zm-.89,1.19c-.15-.09-.19-.09-.21,0-.18.52-.22,1,.25,1.25a.65.65,0,0,0,.86-.27c.16-.34,0-.49-.28-.65Z"/><path d="M64.41,69.48c-.42-.13-.54-.17-.74,0l-.14.13a.24.24,0,0,1-.31-.1,10.68,10.68,0,0,0-.08-1.9.25.25,0,0,1,.16-.18c.15,0,.39.16.46.18s.09,0,.1,0a1.09,1.09,0,0,0,0-.25,3.09,3.09,0,0,1,0-1.46,1.46,1.46,0,0,1,.72-.92c.19-.09.25-.15.27-.22a2.63,2.63,0,0,0-.06-.43,2.86,2.86,0,0,1,0-1.44,1.34,1.34,0,0,1,1.75-1l1.79.56c.73.23.83.21,1-.16l.08-.18a.27.27,0,0,1,.36.13c-.13.35-.28.79-.45,1.34s-.28,1-.36,1.27a.28.28,0,0,1-.37-.1l0-.19c.06-.3,0-.37-.59-.55l-1.77-.55a.73.73,0,0,0-1,.55.84.84,0,0,0,.06.73.56.56,0,0,0,.29.18l1.93.6c.57.18.68.16.8-.1l.08-.18a.28.28,0,0,1,.36.13c-.13.35-.26.72-.42,1.24s-.28.93-.35,1.24a.28.28,0,0,1-.37-.1l0-.19c.05-.28,0-.35-.6-.53l-1.77-.55a.73.73,0,0,0-1,.56.87.87,0,0,0,.06.7.59.59,0,0,0,.36.21l1.87.58c.57.18.68.16.8-.12l.08-.18a.28.28,0,0,1,.36.13c-.13.35-.26.72-.43,1.27s-.29,1-.38,1.33a.27.27,0,0,1-.37-.09l0-.19c.08-.39,0-.47-.72-.69Z"/><path d="M67.09,59.87c-.43-.07-.56-.09-.73.12l-.12.15a.24.24,0,0,1-.32,0,9.17,9.17,0,0,0-.41-1.83.26.26,0,0,1,.17-.23,1.8,1.8,0,0,0,.35.08.15.15,0,0,0,.17-.07,3.64,3.64,0,0,1-.2-1.59,2,2,0,0,1,2.38-1.72c1.51.23,2.37,1.58,2.1,3.33a3.9,3.9,0,0,1-.12.53c0,.11.06.19.28.23l1.07.17c.76.12.85.08.94-.31l.1-.4a.27.27,0,0,1,.38.07c-.11.59-.2,1.07-.29,1.64s-.14,1-.19,1.43a.28.28,0,0,1-.38,0l0-.24c0-.4-.06-.46-.82-.58Zm1.9-1.3a.85.85,0,0,0,.67-.18.9.9,0,0,0,.34-.54c.11-.74-.54-1.26-1.54-1.41s-1.75.32-1.87,1.11a.71.71,0,0,0,.07.53c.06.07.19.16.61.23Z"/><path d="M70.69,53.51a2.61,2.61,0,0,1-1.24.12.31.31,0,0,1,0-.41c.46-.13,1.12-.56,1.16-1.17a.56.56,0,0,0-.53-.66c-.4,0-.65.35-.86.75-.37.71-.79,1.21-1.44,1.17-.95-.05-1.36-1-1.3-2a3.2,3.2,0,0,1,.3-1.28,2.78,2.78,0,0,1,1.1-.12c.12.06.1.36,0,.43-.65.21-.89.5-.91.89s.15.61.45.63.47-.2.74-.73c.41-.8.89-1.28,1.6-1.24,1,.07,1.41,1,1.34,2.15a2.61,2.61,0,0,1-.42,1.48"/><path class="cls-1" d="M5.81,44.76a1.45,1.45,0,1,1-1.45-1.45,1.45,1.45,0,0,1,1.45,1.45"/><path class="cls-1" d="M70,44.76a1.45,1.45,0,1,1-1.45-1.45A1.45,1.45,0,0,1,70,44.76"/></svg>